<svg width="79" height="89" viewBox="0 0 79 89" fill="none" xmlns="http://www.w3.org/2000/svg">
<g style="mix-blend-mode:multiply">
<path opacity="0.03" d="M23.9613 87.8503C21.973 87.8503 20.0368 87.4147 18.2095 86.5623C11.08 83.2238 7.85614 74.4018 11.0279 66.8915L31.2659 18.9457C33.5335 13.571 38.6132 10.0952 44.1993 10.0952C49.7855 10.0952 54.8651 13.571 57.1374 18.9457L77.3754 66.8915C80.5472 74.4018 77.3234 83.2286 70.1892 86.567C68.3666 87.4194 66.4351 87.855 64.4421 87.855C58.8512 87.855 53.7715 84.3793 51.5039 78.9999L48.4931 71.8684H39.9056L36.8947 78.9999C34.6271 84.3793 29.5475 87.855 23.9566 87.855L23.9613 87.8503Z" fill="#FBFBFB"/>
<path opacity="0.06" d="M23.6347 87.5047C21.6464 87.5047 19.7149 87.0738 17.8876 86.2167C10.7628 82.883 7.54369 74.0657 10.7108 66.5601L30.9488 18.6143C33.2164 13.2396 38.2912 9.76855 43.8727 9.76855C49.4541 9.76855 54.529 13.2396 56.7966 18.6143L77.0346 66.5601C80.2017 74.0657 76.9825 82.883 69.8531 86.2214C68.0305 87.0738 66.099 87.5047 64.1107 87.5047C58.5245 87.5047 53.4496 84.0337 51.182 78.659L48.1712 71.5228H39.5694L36.5586 78.659C34.291 84.0337 29.2161 87.5047 23.6299 87.5047H23.6347Z" fill="#F7F7F7"/>
<path opacity="0.1" d="M23.3128 87.1544C21.3245 87.1544 19.393 86.7235 17.5704 85.8664C10.4504 82.5326 7.23127 73.7248 10.3983 66.224L30.6363 18.2781C32.9039 12.9082 37.9741 9.44189 43.5508 9.44189C49.1275 9.44189 54.2024 12.9129 56.4652 18.2781L76.7032 66.224C79.8703 73.7248 76.6512 82.5374 69.5264 85.8664C67.7086 86.7187 65.7771 87.1496 63.7888 87.1496C58.2074 87.1496 53.1372 83.6786 50.8696 78.3087L47.854 71.1677H39.2428L36.2272 78.3134C33.9596 83.6833 28.8895 87.1544 23.3081 87.1544H23.3128Z" fill="#F3F3F3"/>
<path opacity="0.13" d="M22.9861 86.8092C21.0026 86.8092 19.0711 86.3783 17.2485 85.5259C10.1332 82.1969 6.91882 73.3938 10.0812 65.8977L30.3192 17.9519C32.582 12.5867 37.6474 9.12036 43.2241 9.12036C48.8008 9.12036 53.8662 12.5867 56.1291 17.9519L76.3671 65.8977C79.5295 73.3891 76.315 82.1969 69.1998 85.5259C67.3819 86.3783 65.4504 86.8092 63.4669 86.8092C57.8902 86.8092 52.82 83.3429 50.5572 77.9777L47.5416 70.8272H38.9162L35.8959 77.9777C33.633 83.3429 28.5628 86.8092 22.9861 86.8092Z" fill="#EFEFEF"/>
<path opacity="0.16" d="M22.6642 86.4632C20.6807 86.4632 18.7539 86.0323 16.9313 85.1799C9.8208 81.8557 6.61113 73.0573 9.76873 65.566L30.0067 17.6201C32.2696 12.2597 37.3303 8.7981 42.9022 8.7981C48.4742 8.7981 53.5349 12.2597 55.7978 17.6201L76.0358 65.566C79.1934 73.0526 75.9837 81.851 68.8732 85.1799C67.0553 86.0323 65.1285 86.4632 63.145 86.4632C57.573 86.4632 52.5076 82.9969 50.2447 77.6365L47.2244 70.4813H38.5848L35.5645 77.6412C33.3016 83.0017 28.2409 86.468 22.6642 86.468V86.4632Z" fill="#EBEBEB"/>
<path opacity="0.19" d="M22.3374 86.1129C20.3539 86.1129 18.4271 85.682 16.6092 84.8296C9.5082 81.5053 6.29379 72.7165 9.45139 65.2346L29.6894 17.2887C31.9523 11.933 37.0082 8.47144 42.5754 8.47144C48.1427 8.47144 53.1986 11.933 55.4615 17.2887L75.6995 65.2346C78.8571 72.7165 75.6474 81.5101 68.5416 84.8343C66.7238 85.682 64.8017 86.1176 62.8182 86.1176C57.2509 86.1176 52.1903 82.6561 49.9274 77.3003L46.9023 70.1357H38.2485L35.2235 77.3003C32.9606 82.6561 27.9047 86.1224 22.3374 86.1224V86.1129Z" fill="#E6E7E7"/>
<path opacity="0.23" d="M22.0156 85.7669C20.0368 85.7669 18.11 85.336 16.2921 84.4837C9.19581 81.1641 5.98614 72.38 9.14374 64.9028L29.3817 16.957C31.6399 11.606 36.6958 8.14917 42.2583 8.14917C47.8208 8.14917 52.8768 11.606 55.1349 16.957L75.3729 64.9028C78.5258 72.38 75.3208 81.1641 68.2198 84.4884C66.4066 85.336 64.4799 85.7669 62.501 85.7669C56.9338 85.7669 51.8826 82.3054 49.6197 76.9544L46.5947 69.785H37.9267L34.9016 76.9544C32.6435 82.3101 27.5875 85.7669 22.025 85.7669H22.0156Z" fill="#E2E3E3"/>
<path opacity="0.26" d="M21.689 85.4162C19.7102 85.4162 17.7834 84.9853 15.9703 84.1329C8.87869 80.8134 5.67375 72.0387 8.82661 64.5663L29.0646 16.6205C31.3227 11.2742 36.374 7.81738 41.9317 7.81738C47.4895 7.81738 52.5407 11.2742 54.7988 16.6205L75.0368 64.5663C78.1897 72.0387 74.9848 80.8134 67.8884 84.1329C66.0753 84.9806 64.1533 85.4115 62.1745 85.4115C56.612 85.4115 51.5607 81.9547 49.3026 76.6037L46.2728 69.4248H37.5906L34.5608 76.6037C32.3027 81.9547 27.2515 85.4115 21.6937 85.4115L21.689 85.4162Z" fill="#DEDFE0"/>
<path opacity="0.29" d="M21.367 85.071C19.3882 85.071 17.4662 84.6401 15.6531 83.7924C8.56621 80.4777 5.36127 71.7077 8.51414 64.24L28.7521 16.2942C31.0103 10.9527 36.052 7.49585 41.6098 7.49585C47.1675 7.49585 52.2093 10.9479 54.4674 16.2942L74.7054 64.24C77.8535 71.703 74.6533 80.4777 67.5618 83.7924C65.7486 84.6401 63.8266 85.071 61.8525 85.071C56.2948 85.071 51.2483 81.6189 48.9949 76.2727L45.9604 69.0891H37.2639L34.2294 76.2727C31.976 81.6189 26.9248 85.071 21.3718 85.071H21.367Z" fill="#DADBDC"/>
<path opacity="0.32" d="M21.0404 84.7251C19.0664 84.7251 17.1443 84.2942 15.3312 83.4465C8.24908 80.1317 5.04888 71.3713 8.19701 63.9083L28.435 15.9625C30.6884 10.6209 35.7302 7.17358 41.2832 7.17358C46.8362 7.17358 51.8732 10.6257 54.1314 15.9625L74.3694 63.9083C77.5175 71.3665 74.3173 80.1317 67.2352 83.4465C65.4268 84.2942 63.5047 84.7251 61.5306 84.7251C55.9776 84.7251 50.9359 81.273 48.6825 75.9314L45.648 68.7384H36.9373L33.9028 75.9314C31.6494 81.273 26.6077 84.7251 21.0546 84.7251H21.0404Z" fill="#D6D7D8"/>
<path opacity="0.35" d="M20.7138 84.3747C18.7397 84.3747 16.8177 83.9438 15.0093 83.0962C7.9319 79.7861 4.73642 71.0257 7.87982 63.5769L28.1178 15.6311C30.3712 10.2943 35.4082 6.84692 40.9518 6.84692C46.4953 6.84692 51.5371 10.2943 53.7905 15.6311L74.0285 63.5769C77.1719 71.0304 73.9764 79.7861 66.899 83.1009C65.0906 83.9485 63.1734 84.3795 61.1993 84.3795C55.651 84.3795 50.6092 80.9321 48.3606 75.5953L45.3213 68.3975H36.5965L33.5572 75.5953C31.3038 80.9321 26.2668 84.3795 20.7185 84.3795L20.7138 84.3747Z" fill="#D2D3D4"/>
<path opacity="0.39" d="M20.3919 84.0295C18.4178 84.0295 16.5005 83.5986 14.6921 82.751C7.61948 79.4409 4.42401 70.6899 7.56741 63.2459L27.8054 15.3001C30.0541 9.96802 35.0911 6.52539 40.6299 6.52539C46.1687 6.52539 51.2058 9.96802 53.4544 15.3001L73.6924 63.2459C76.8358 70.6947 73.6403 79.4457 66.5677 82.7557C64.7593 83.6033 62.842 84.0295 60.8679 84.0295C55.3244 84.0295 50.2873 80.5822 48.0387 75.2501L44.9994 68.0476H36.2604L33.2211 75.2548C30.9725 80.5869 25.9355 84.0343 20.3919 84.0343V84.0295Z" fill="#CECFD0"/>
<path opacity="0.42" d="M20.0652 83.6785C18.0911 83.6785 16.1785 83.2475 14.3701 82.3999C7.30697 79.0946 4.11149 70.3483 7.25489 62.909L27.4929 14.9679C29.7416 9.64063 34.7738 6.198 40.3079 6.198C45.842 6.198 50.8743 9.64063 53.123 14.9679L73.361 62.9138C76.4996 70.3531 73.3089 79.0993 66.241 82.4046C64.4373 83.2523 62.52 83.6785 60.5459 83.6785C55.0071 83.6785 49.9748 80.2358 47.7262 74.9085L44.6822 67.6965H35.9289L32.885 74.9085C30.6363 80.2358 25.604 83.6832 20.0652 83.6832V83.6785Z" fill="#CACBCC"/>
<path opacity="0.45" d="M19.7432 83.3332C17.7739 83.3332 15.8566 82.9023 14.0529 82.0594C6.99448 78.7541 3.80374 70.0173 6.94241 62.5828L27.1757 14.6369C29.4243 9.31436 34.4471 5.87646 39.9812 5.87646C45.5153 5.87646 50.5429 9.31436 52.7868 14.6369L73.0248 62.5828C76.1635 70.0173 72.9727 78.7541 65.9095 82.0594C64.1059 82.9023 62.1933 83.3332 60.2192 83.3332C54.6852 83.3332 49.6576 79.8906 47.4089 74.568L44.3602 67.3513H35.5928L32.5441 74.568C30.2954 79.8953 25.2679 83.3332 19.7338 83.3332H19.7432Z" fill="#C6C7C8"/>
<path opacity="0.48" d="M19.4166 82.9876C17.4472 82.9876 15.5347 82.5567 13.731 81.7138C6.67729 78.4132 3.49129 69.6812 6.62522 62.2514L26.8632 14.3055C29.1072 8.9877 34.13 5.5498 39.6593 5.5498C45.1887 5.5498 50.2115 8.9877 52.4554 14.3055L72.6934 62.2514C75.8273 69.6812 72.6413 78.4132 65.5829 81.7138C63.7792 82.5567 61.8667 82.9876 59.8973 82.9876C54.368 82.9876 49.3404 79.5497 47.0965 74.2272L44.0478 67.001H35.2661L32.2174 74.2272C29.9735 79.5497 24.9507 82.9876 19.4166 82.9876Z" fill="#C2C3C4"/>
<path opacity="0.52" d="M19.0947 82.6366C17.1254 82.6366 15.2176 82.2104 13.4092 81.3628C6.36018 78.0622 3.17417 69.3396 6.3081 61.9192L26.5461 13.9734C28.79 8.6603 33.8081 5.22241 39.3327 5.22241C44.8574 5.22241 49.8754 8.65557 52.1194 13.9734L72.3574 61.9192C75.4913 69.3443 72.3053 78.0669 65.2563 81.3675C63.4526 82.2104 61.5448 82.6366 59.5755 82.6366C54.0509 82.6366 49.028 79.2034 46.7841 73.8856L43.7307 66.6546H34.9348L31.8814 73.8856C29.6374 79.2034 24.6194 82.6366 19.0947 82.6366Z" fill="#BDBEC0"/>
<path opacity="0.55" d="M18.7681 82.2914C16.8035 82.2914 14.8909 81.8652 13.0872 81.0175C6.04299 77.7217 2.86172 69.0039 5.99092 61.5882L26.2337 13.6424C28.4776 8.33404 33.4909 4.90088 39.0108 4.90088C44.5307 4.90088 49.544 8.33404 51.788 13.6424L72.026 61.5882C75.1552 69.0086 71.9739 77.7217 64.9297 81.0223C63.1307 81.8652 61.2182 82.2914 59.2535 82.2914C53.7337 82.2914 48.7156 78.8582 46.4717 73.5451L43.4182 66.3047H34.6082L31.5547 73.5451C29.3155 78.8582 24.2974 82.2914 18.7775 82.2914H18.7681Z" fill="#B9BABC"/>
<path opacity="0.58" d="M18.4462 81.9458C16.4816 81.9458 14.5737 81.5196 12.7701 80.6719C5.73056 77.3808 2.55403 68.6677 5.67849 61.2568L25.9165 13.311C28.1557 8.00264 33.169 4.57422 38.6842 4.57422C44.1993 4.57422 49.2127 8.00264 51.4519 13.311L71.6899 61.2568C74.8191 68.6677 71.6378 77.3808 64.5983 80.6719C62.7994 81.5148 60.8915 81.941 58.9269 81.941C53.407 81.941 48.3984 78.5126 46.1545 73.2042L43.0963 65.9591H34.2721L31.2139 73.2042C28.9747 78.5126 23.9613 81.941 18.4462 81.941V81.9458Z" fill="#B5B6B8"/>
<path opacity="0.61" d="M18.1195 81.5951C16.1549 81.5951 14.247 81.1689 12.4481 80.326C5.41806 77.0349 2.23679 68.3313 5.36599 60.9251L25.604 12.9793C27.8432 7.67564 32.8518 4.25195 38.3622 4.25195C43.8726 4.25195 48.8812 7.68038 51.1204 12.9793L71.3584 60.9251C74.4829 68.3313 71.3064 77.0349 64.2716 80.326C62.4727 81.1689 60.5696 81.5951 58.6049 81.5951C53.0898 81.5951 48.0812 78.1666 45.8467 72.863L42.7838 65.6131H33.9454L30.8824 72.8678C28.6432 78.1714 23.6346 81.5998 18.1242 81.5998L18.1195 81.5951Z" fill="#B1B2B4"/>
<path opacity="0.65" d="M17.7976 81.2495C15.8377 81.2495 13.9299 80.8233 12.1309 79.9804C5.10563 76.694 1.9291 67.9951 5.05356 60.5937L25.2868 12.6479C27.5213 7.34898 32.5252 3.92529 38.0356 3.92529C43.546 3.92529 48.5451 7.34898 50.7843 12.6479L71.0223 60.5937C74.1468 67.9951 70.9703 76.6893 63.9402 79.9804C62.146 80.8233 60.2382 81.2495 58.2783 81.2495C52.7679 81.2495 47.764 77.8258 45.5296 72.5269L42.4666 65.2675H33.614L30.5511 72.5269C28.3166 77.8258 23.3127 81.2495 17.8023 81.2495H17.7976Z" fill="#ADAEB0"/>
<path opacity="0.68" d="M17.4709 80.8988C15.511 80.8988 13.608 80.4726 11.809 79.6297C4.78845 76.3434 1.61664 67.6539 4.73637 60.262L24.9744 12.3161C27.2088 7.02198 32.208 3.60303 37.7089 3.60303C43.2099 3.60303 48.209 7.02198 50.4482 12.3161L70.6862 60.262C73.806 67.6586 70.6341 76.3481 63.6088 79.6344C61.8146 80.4726 59.9116 80.8988 57.9517 80.8988C52.446 80.8988 47.4468 77.4751 45.2124 72.1809L42.1447 64.9169H33.2779L30.2102 72.1809C27.9758 77.4751 22.9766 80.8988 17.4709 80.8988Z" fill="#A9AAAC"/>
<path opacity="0.71" d="M17.1443 80.5532C15.1845 80.5532 13.2814 80.127 11.4872 79.2841C4.47133 76.0025 1.29953 67.3178 4.41926 59.9306L24.6573 11.9847C26.8917 6.69532 31.8861 3.27637 37.3823 3.27637C42.8786 3.27637 47.8777 6.69532 50.1074 11.9847L70.3454 59.9306C73.4652 67.3178 70.2934 76.0025 63.2775 79.2888C61.4833 80.127 59.5802 80.5532 57.6251 80.5532C52.1241 80.5532 47.1297 77.1342 44.8953 71.8401L41.8276 64.5665H32.9466L29.8742 71.8401C27.6397 77.1342 22.6453 80.5532 17.1443 80.5532Z" fill="#A5A6A8"/>
<path opacity="0.74" d="M16.8224 80.208C14.8672 80.208 12.9642 79.7818 11.17 78.9389C4.15884 75.6573 0.991775 66.982 4.10677 59.5996L24.3448 11.6537C26.5745 6.36905 31.5689 2.95483 37.0604 2.95483C42.5519 2.95483 47.5463 6.36905 49.776 11.6537L70.014 59.5996C73.129 66.982 69.9619 75.662 62.9508 78.9389C61.1566 79.7771 59.2583 80.2032 57.3031 80.2032C51.8069 80.2032 46.8125 76.789 44.5828 71.4996L41.5104 64.2213H32.6151L29.5427 71.4996C27.313 76.789 22.3186 80.2032 16.8224 80.2032V80.208Z" fill="#A1A2A4"/>
<path opacity="0.77" d="M16.4957 79.8569C14.5406 79.8569 12.6422 79.4307 10.848 78.5926C3.84166 75.3157 0.679322 66.6452 3.78958 59.2674L24.0323 11.3216C26.2621 6.04166 31.2517 2.62744 36.7385 2.62744C42.2252 2.62744 47.2149 6.04166 49.4446 11.3216L69.6826 59.2674C72.7976 66.6452 69.6306 75.3157 62.6242 78.5926C60.8347 79.4307 58.9364 79.8569 56.9812 79.8569C51.4897 79.8569 46.5001 76.4427 44.2703 71.158L41.1932 63.8702H32.2837L29.2066 71.158C26.9769 76.4427 21.9872 79.8569 16.4957 79.8569Z" fill="#9D9EA1"/>
<path opacity="0.81" d="M16.1738 79.5116C14.2186 79.5116 12.3203 79.0854 10.5308 78.2472C3.53392 74.9703 0.366845 66.3093 3.48184 58.9363L23.7151 10.9905C25.9448 5.71524 30.925 2.30103 36.4118 2.30103C41.8985 2.30103 46.8787 5.71051 49.1085 10.9905L69.3465 58.9363C72.4567 66.3093 69.2944 74.9703 62.2928 78.2472C60.5033 79.0854 58.605 79.5116 56.6545 79.5116C51.1678 79.5116 46.1828 76.1021 43.9531 70.8221L40.876 63.5296H31.9523L28.8752 70.8221C26.6455 76.1021 21.6605 79.5116 16.1738 79.5116Z" fill="#999A9D"/>
<path opacity="0.84" d="M15.8471 79.1614C13.8967 79.1614 11.9984 78.7352 10.2089 77.897C3.21673 74.6249 0.054392 65.9686 3.16465 58.605L23.4027 10.6592C25.6277 5.38399 30.6079 1.97925 36.0899 1.97925C41.5719 1.97925 46.5521 5.38873 48.7771 10.6592L69.0151 58.605C72.1254 65.9733 68.963 74.6296 61.9661 77.9018C60.1766 78.7399 58.283 79.1614 56.3326 79.1614C50.8506 79.1614 45.8657 75.7519 43.6407 70.4767L40.5588 63.1747H31.6209L28.5391 70.4767C26.3141 75.7519 21.3339 79.1614 15.8519 79.1614H15.8471Z" fill="#949699"/>
<path opacity="0.87" d="M15.5252 78.816C13.5748 78.816 11.6811 78.3898 9.89168 77.5517C2.90424 74.2795 -0.253361 65.6327 2.85217 58.2739L23.0854 10.3281C25.3104 5.05758 30.2859 1.65283 35.7632 1.65283C41.2405 1.65283 46.2159 5.05758 48.4409 10.3281L68.6789 58.2739C71.7844 65.6327 68.6268 74.2842 61.6347 77.5564C59.8499 78.3945 57.9516 78.816 56.0012 78.816C50.5239 78.816 45.5437 75.4113 43.3187 70.1408L40.2368 62.8341H31.2848L28.1982 70.1408C25.9732 75.4113 20.9977 78.816 15.5204 78.816H15.5252Z" fill="#909295"/>
<path opacity="0.9" d="M15.1986 78.4698C13.2482 78.4698 11.3546 78.0436 9.56983 77.2102C2.58713 73.9428 -0.570476 65.3007 2.53505 57.9466L22.7731 9.99609C24.998 4.73033 29.9688 1.33032 35.4413 1.33032C40.9139 1.33032 45.8846 4.73033 48.1096 9.99609L68.3476 57.9419C71.4531 65.296 68.2955 73.9381 61.3128 77.2102C59.5281 78.0436 57.6345 78.4698 55.6841 78.4698C50.2115 78.4698 45.236 75.0651 43.0111 69.7993L39.9245 62.4879H30.9582L27.8716 69.8041C25.6513 75.0698 20.6759 78.4746 15.2033 78.4746L15.1986 78.4698Z" fill="#8C8E91"/>
<path opacity="0.94" d="M14.8767 78.1197C12.931 78.1197 11.0374 77.6936 9.25267 76.8601C2.2747 73.5974 -0.878169 64.9601 2.22262 57.6108L22.4559 9.66494C24.6762 4.40392 29.6469 1.00391 35.1147 1.00391C40.5825 1.00391 45.5533 4.40392 47.7735 9.66494L68.0115 57.6108C71.1123 64.9601 67.9594 73.5974 60.9815 76.8601C59.1967 77.6936 57.3079 78.1197 55.3574 78.1197C49.8849 78.1197 44.9189 74.7197 42.6986 69.4587L39.6073 62.1378H30.6268L27.5355 69.4587C25.3153 74.7197 20.3445 78.1245 14.8767 78.1245V78.1197Z" fill="#888A8D"/>
<path opacity="0.97" d="M14.55 77.7738C12.6044 77.7738 10.7155 77.3476 8.93075 76.5142C1.95751 73.2515 -1.19062 64.6236 1.90544 57.279L22.1434 9.3332C24.3637 4.07691 29.325 0.681641 34.7928 0.681641C40.2606 0.681641 45.2219 4.07691 47.4421 9.3332L67.6801 57.279C70.7809 64.6236 67.628 73.2515 60.6548 76.5142C58.8748 77.3476 56.9812 77.7738 55.0355 77.7738C49.5677 77.7738 44.6017 74.3738 42.3862 69.1175L39.2948 61.7919H30.3002L27.2089 69.1175C24.9886 74.3785 20.0226 77.7738 14.5595 77.7738H14.55Z" fill="#848689"/>
<path d="M14.2234 77.4279C12.2777 77.4279 10.3888 77.0065 8.60406 76.1683C1.63556 72.9104 -1.51258 64.2872 1.58822 56.9521L21.8262 9.00156C24.0465 3.75001 29.0078 0.354736 34.4661 0.354736C39.9244 0.354736 44.8857 3.75001 47.106 9.00156L67.344 56.9474C70.44 64.2872 67.2919 72.9056 60.3234 76.1683C58.5434 77.0018 56.6545 77.4232 54.7088 77.4232C49.2458 77.4232 44.2845 74.0279 42.069 68.7716L38.9729 61.4365H29.964L26.868 68.7716C24.6524 74.0279 19.6912 77.4232 14.2281 77.4232L14.2234 77.4279Z" fill="#808285"/>
</g>
<path d="M14.2234 77.7835C12.2304 77.7835 10.2941 77.3479 8.47154 76.4955C1.33735 73.157 -1.89126 64.3255 1.28054 56.8057L21.5185 8.85991C23.7909 3.47578 28.8705 0 34.4661 0C40.0618 0 45.1414 3.47578 47.4137 8.85991L67.6517 56.8057C70.8235 64.3208 67.5996 73.157 60.4607 76.4955C58.6381 77.3479 56.7019 77.7835 54.7089 77.7835C49.1132 77.7835 44.0289 74.3077 41.7613 68.9236L38.7552 61.8016H30.1818L27.1757 68.9236C24.9034 74.3077 19.8238 77.7835 14.2281 77.7835H14.2234Z" fill="url(#paint0_linear_53_38104)"/>
<path d="M14.2234 76.3629C12.4197 76.3629 10.6681 75.9699 9.01592 75.198C2.5587 72.1768 -0.357467 64.1835 2.51136 57.3835L22.7541 9.43293C24.8087 4.56495 29.4054 1.42065 34.4661 1.42065C39.5268 1.42065 44.1235 4.56495 46.1781 9.43293L66.4161 57.3788C69.2849 64.1788 66.3688 72.1721 59.9115 75.1933C58.2594 75.9652 56.5125 76.3582 54.7088 76.3582C49.6481 76.3582 45.0467 73.2092 42.9921 68.3412L39.6309 60.3763H29.306L25.9448 68.3459C23.8903 73.2139 19.2935 76.3629 14.2281 76.3629H14.2234Z" fill="url(#paint1_linear_53_38104)"/>
<path d="M42.1305 60.2105C41.785 60.2105 41.4536 60.0069 41.3116 59.666L40.7103 58.2454H39.167C38.6747 58.2454 38.277 57.8476 38.277 57.3551C38.277 56.8626 38.6747 56.4648 39.167 56.4648H41.2974C41.6524 56.4648 41.9743 56.6779 42.1163 57.0094L42.9448 58.9746C43.1342 59.4245 42.9259 59.9454 42.4714 60.1395C42.3578 60.1869 42.2394 60.2105 42.1258 60.2105H42.1305Z" fill="#DD1E47"/>
<path d="M36.033 58.2454H32.8943C32.402 58.2454 32.0043 57.8476 32.0043 57.3551C32.0043 56.8626 32.402 56.4648 32.8943 56.4648H36.033C36.5253 56.4648 36.923 56.8626 36.923 57.3551C36.923 57.8476 36.5253 58.2454 36.033 58.2454Z" fill="#DD1E47"/>
<path d="M26.7969 60.2105C26.6833 60.2105 26.5649 60.1869 26.4513 60.1395C26.0016 59.9501 25.7886 59.4292 25.9779 58.9746L26.8064 57.0094C26.9437 56.6827 27.2656 56.4648 27.6254 56.4648H29.7557C30.248 56.4648 30.6457 56.8626 30.6457 57.3551C30.6457 57.8476 30.248 58.2454 29.7557 58.2454H28.2124L27.6112 59.666C27.4691 60.0069 27.1378 60.2105 26.7922 60.2105H26.7969Z" fill="#DD1E47"/>
<path d="M13.163 74.1704C13.1299 74.1704 13.0967 74.1704 13.0683 74.1657C11.8943 74.0378 10.7486 73.7158 9.65981 73.2044C9.32843 73.0481 9.00652 72.8777 8.69407 72.6883C8.27274 72.4373 8.13545 71.8927 8.38636 71.4713C8.63726 71.0498 9.18641 70.9125 9.603 71.1635C9.86338 71.3197 10.138 71.4665 10.4125 71.5944C11.3215 72.0206 12.2825 72.2905 13.2624 72.3947C13.75 72.4468 14.1003 72.8871 14.0483 73.3749C14.0009 73.8295 13.6127 74.1657 13.1677 74.1657L13.163 74.1704ZM55.8451 74.161C55.4001 74.161 55.0166 73.8295 54.9645 73.3749C54.9077 72.8871 55.258 72.4468 55.7457 72.3899C56.7019 72.281 57.6393 72.0111 58.5293 71.5944C58.8275 71.4571 59.1163 71.3008 59.3956 71.1303C59.8122 70.8746 60.3613 71.0072 60.617 71.4286C60.8726 71.8454 60.7401 72.3947 60.3187 72.6504C59.9873 72.854 59.637 73.0387 59.282 73.2044C58.2168 73.7016 57.0996 74.0236 55.9492 74.1562C55.9161 74.1562 55.8782 74.161 55.8451 74.161ZM51.627 73.7348C51.5371 73.7348 51.4424 73.7206 51.3477 73.6922C49.866 73.2044 48.531 72.4231 47.3664 71.3576C47.0066 71.0261 46.9782 70.4626 47.3096 70.1027C47.641 69.7428 48.1996 69.7144 48.5641 70.0459C49.5393 70.9362 50.6613 71.5944 51.9016 72.0016C52.3655 72.1532 52.6212 72.6551 52.4697 73.1239C52.3466 73.498 52.001 73.7348 51.627 73.7348ZM17.3763 73.7158C17.007 73.7158 16.6615 73.4791 16.5336 73.1097C16.3774 72.6456 16.6283 72.1437 17.0922 71.9827C18.3278 71.566 19.4451 70.903 20.4155 70.0033C20.7753 69.6671 21.3387 69.6908 21.6701 70.0506C22.0014 70.4105 21.9825 70.9741 21.6227 71.3055C20.4676 72.3757 19.1326 73.1713 17.6603 73.6685C17.5657 73.7016 17.471 73.7158 17.3763 73.7158ZM6.04301 69.9275C5.7637 69.9275 5.48913 69.7949 5.31397 69.5487C4.42397 68.2843 3.80381 66.8685 3.46769 65.3389C3.36355 64.8607 3.66652 64.3871 4.14466 64.2829C4.62753 64.1788 5.0962 64.4818 5.20035 64.9601C5.47966 66.2387 6.02407 67.4699 6.76258 68.5306C7.04663 68.9331 6.94721 69.4871 6.54482 69.7665C6.38859 69.8754 6.21343 69.9275 6.03354 69.9275H6.04301ZM62.9366 69.8707C62.7615 69.8707 62.5863 69.8186 62.4301 69.7144C62.0277 69.4351 61.9283 68.881 62.2076 68.4785C62.9556 67.4036 63.4716 66.196 63.7462 64.8985C63.8503 64.4203 64.319 64.1125 64.7971 64.2166C65.2753 64.3208 65.583 64.7896 65.4788 65.2679C65.1522 66.7974 64.5415 68.2181 63.661 69.4871C63.4905 69.7381 63.2112 69.8707 62.9319 69.8707H62.9366ZM45.4917 68.147C45.1556 68.147 44.829 67.9529 44.6822 67.6214C44.6491 67.5456 44.6112 67.4651 44.5781 67.3846L43.0064 63.6626C42.817 63.2127 43.0253 62.6919 43.4798 62.4977C43.9295 62.3083 44.4502 62.5166 44.6443 62.9712L46.3013 66.8874C46.5048 67.3325 46.3012 67.8582 45.8562 68.0618C45.7379 68.1139 45.6148 68.1423 45.4917 68.1423V68.147ZM23.4785 68.0855C23.3601 68.0855 23.237 68.0618 23.1187 68.0097C22.6689 67.8108 22.4701 67.2852 22.6689 66.8401L24.3259 62.9192C24.5152 62.4693 25.036 62.2562 25.4904 62.4456C25.9402 62.635 26.1532 63.1559 25.9638 63.6105L24.2927 67.5646C24.146 67.896 23.8193 68.0949 23.4832 68.0949L23.4785 68.0855ZM4.25828 61.7969C4.2062 61.7969 4.15413 61.7969 4.09732 61.7827C3.61445 61.6927 3.29727 61.2333 3.38248 60.7503C3.53397 59.9264 3.77541 59.1119 4.10205 58.3353L4.8595 56.5453C5.04886 56.0955 5.56961 55.8824 6.02407 56.0718C6.47381 56.2612 6.68684 56.7821 6.49748 57.2367L5.74003 59.0267C5.46546 59.6801 5.25716 60.3715 5.13407 61.0676C5.05833 61.4985 4.68434 61.7969 4.26301 61.7969H4.25828ZM64.6693 61.7258C64.2527 61.7258 63.8787 61.4275 63.7982 61.0013C63.6704 60.3242 63.4669 59.6565 63.2018 59.0219L62.4206 57.1657C62.2313 56.7158 62.4396 56.1949 62.894 56.0007C63.3438 55.8066 63.8693 56.0197 64.0586 56.4743L64.8397 58.3306C65.1569 59.0835 65.3936 59.8696 65.5451 60.6698C65.6351 61.1529 65.3179 61.6169 64.8397 61.7069C64.7829 61.7164 64.7261 61.7211 64.674 61.7211L64.6693 61.7258ZM7.34013 53.8367C7.22652 53.8367 7.10817 53.813 6.99455 53.7656C6.54482 53.5762 6.33179 53.0553 6.52115 52.6007L8.18279 48.6609C8.37215 48.211 8.8929 47.9979 9.34737 48.1874C9.7971 48.3768 10.0101 48.8977 9.82077 49.3523L8.15912 53.2921C8.0171 53.6331 7.68572 53.8367 7.34013 53.8367ZM61.5732 53.7704C61.2277 53.7704 60.8963 53.5668 60.7543 53.2258L59.0926 49.286C58.9032 48.8361 59.1115 48.3152 59.566 48.1211C60.0157 47.9316 60.5365 48.14 60.7306 48.5946L62.3922 52.5344C62.5816 52.9843 62.3733 53.5052 61.9188 53.6993C61.8052 53.7467 61.6869 53.7704 61.5732 53.7704ZM10.6634 45.9617C10.5498 45.9617 10.4315 45.938 10.3178 45.8907C9.86811 45.7013 9.65508 45.1804 9.84444 44.7258L11.5061 40.7859C11.6954 40.3361 12.2162 40.123 12.6707 40.3124C13.1204 40.5018 13.3334 41.0227 13.1441 41.4773L11.4824 45.4172C11.3404 45.7581 11.009 45.9617 10.6634 45.9617ZM58.25 45.8954C57.9044 45.8954 57.573 45.6918 57.431 45.3509L55.7693 41.411C55.58 40.9611 55.7883 40.4403 56.2427 40.2461C56.6972 40.0567 57.2132 40.265 57.4073 40.7196L59.0689 44.6595C59.2583 45.1094 59.05 45.6302 58.5955 45.8244C58.4819 45.8717 58.3636 45.8954 58.25 45.8954ZM13.9915 38.0868C13.8778 38.0868 13.7595 38.0631 13.6459 38.0157C13.1961 37.8263 12.9831 37.3054 13.1725 36.8508L14.8341 32.911C15.0235 32.4611 15.5442 32.248 15.9987 32.4374C16.4484 32.6269 16.6615 33.1478 16.4721 33.6024L14.8104 37.5422C14.6684 37.8831 14.337 38.0868 13.9915 38.0868ZM54.9267 38.0205C54.5811 38.0205 54.2497 37.8169 54.1077 37.4759L52.446 33.5361C52.2567 33.0862 52.465 32.5653 52.9194 32.3712C53.3739 32.1817 53.8899 32.3901 54.084 32.8447L55.7457 36.7845C55.935 37.2344 55.7267 37.7553 55.2722 37.9494C55.1586 37.9968 55.0403 38.0205 54.9267 38.0205ZM17.3147 30.2118C17.2011 30.2118 17.0828 30.1881 16.9692 30.1408C16.5194 29.9514 16.3064 29.4305 16.4958 28.9759L18.1574 25.036C18.3468 24.5862 18.8675 24.3731 19.322 24.5625C19.7717 24.7519 19.9847 25.2728 19.7954 25.7274L18.1337 29.6672C17.9917 30.0082 17.6603 30.2118 17.3147 30.2118ZM51.6034 30.1455C51.2578 30.1455 50.9264 29.9419 50.7844 29.601L49.1227 25.6611C48.9334 25.2112 49.1417 24.6904 49.5961 24.4962C50.0506 24.3068 50.5713 24.5151 50.7607 24.9697L52.4224 28.9096C52.6117 29.3594 52.4034 29.8803 51.949 30.0745C51.8353 30.1218 51.717 30.1455 51.6034 30.1455ZM20.638 22.3369C20.5244 22.3369 20.4061 22.3132 20.2925 22.2658C19.8427 22.0764 19.6297 21.5555 19.8191 21.1009L21.4807 17.1611C21.6701 16.7112 22.1908 16.4981 22.6453 16.6875C23.095 16.877 23.308 17.3979 23.1187 17.8524L21.457 21.7923C21.315 22.1332 20.9836 22.3369 20.638 22.3369ZM48.2753 22.2706C47.9298 22.2706 47.5984 22.0669 47.4564 21.726L45.7947 17.7862C45.6053 17.3363 45.8136 16.8154 46.2681 16.6212C46.7178 16.4318 47.2433 16.6402 47.4327 17.0948L49.0943 21.0346C49.2837 21.4845 49.0754 22.0054 48.6209 22.1995C48.5073 22.2469 48.389 22.2706 48.2753 22.2706ZM23.9613 14.4619C23.8477 14.4619 23.7294 14.4382 23.6157 14.3909C23.166 14.2015 22.953 13.6806 23.1423 13.226L24.3401 10.3847C24.5057 9.9917 24.6998 9.59866 24.9081 9.22457C25.1496 8.79838 25.6893 8.64212 26.1153 8.88362C26.5414 9.12513 26.6929 9.66496 26.4562 10.0911C26.2763 10.4084 26.1153 10.7352 25.978 11.0714L24.7803 13.9126C24.6383 14.2536 24.3069 14.4572 23.9613 14.4572V14.4619ZM44.952 14.3956C44.6065 14.3956 44.2751 14.192 44.1331 13.851L42.9638 11.0761C42.8123 10.721 42.6418 10.3753 42.4525 10.0391C42.211 9.61287 42.3578 9.07304 42.7839 8.8268C43.2099 8.58529 43.7496 8.73209 43.9958 9.15827C44.2183 9.55131 44.4218 9.96329 44.6017 10.3847L45.771 13.1597C45.9604 13.6095 45.7521 14.1304 45.2976 14.3246C45.184 14.3719 45.0657 14.3956 44.952 14.3956ZM28.4729 7.34936C28.203 7.34936 27.9379 7.22624 27.7628 6.9942C27.4693 6.60116 27.545 6.04712 27.9379 5.74879C29.1924 4.80172 30.6032 4.14823 32.1228 3.80728C32.6009 3.69837 33.0744 4.00143 33.1832 4.47971C33.2921 4.95798 32.9891 5.43152 32.511 5.54044C31.2375 5.82456 30.0588 6.37386 29.0078 7.16941C28.8469 7.29253 28.6622 7.34936 28.4729 7.34936ZM40.4168 7.30674C40.2322 7.30674 40.0476 7.24991 39.8866 7.13153C38.8262 6.34545 37.6474 5.80562 36.3692 5.52623C35.8911 5.42205 35.5834 4.94851 35.6875 4.47024C35.7917 3.99196 36.2651 3.68416 36.7432 3.78834C38.2676 4.11982 39.6831 4.76383 40.9423 5.70144C41.3352 5.99503 41.4157 6.54907 41.1222 6.94211C40.9471 7.17415 40.6819 7.302 40.4074 7.302L40.4168 7.30674Z" fill="#DD1E47"/>
<path d="M60.2524 60.267L40.0144 12.3212C39.0392 10.0151 36.8663 8.52344 34.4661 8.52344C32.066 8.52344 29.893 10.0103 28.9178 12.3212L8.67984 60.267C7.31643 63.4918 8.69877 67.2707 11.7617 68.7055C14.8293 70.1403 18.413 68.6866 19.7764 65.4618L24.9223 53.2776H44.0147L49.1606 65.4618C50.1642 67.8437 52.3845 69.2595 54.7136 69.2595C55.5373 69.2595 56.3752 69.0843 57.1753 68.7055C60.2382 67.2707 61.6206 63.4918 60.2572 60.267H60.2524ZM30.3191 40.4873L34.4709 30.6566L38.6226 40.4873H30.3238H30.3191Z" fill="url(#paint2_linear_53_38104)"/>
<defs>
<linearGradient id="paint0_linear_53_38104" x1="0.0638932" y1="38.8918" x2="68.8684" y2="38.8918" gradientUnits="userSpaceOnUse">
<stop stop-color="#F1F2F2"/>
<stop offset="1" stop-color="#D1D3D4"/>
</linearGradient>
<linearGradient id="paint1_linear_53_38104" x1="1.41306" y1="38.8918" x2="67.5191" y2="38.8918" gradientUnits="userSpaceOnUse">
<stop stop-color="#D1D3D4"/>
<stop offset="1" stop-color="#F1F2F2"/>
</linearGradient>
<linearGradient id="paint2_linear_53_38104" x1="8.15436" y1="38.8915" x2="60.7779" y2="38.8915" gradientUnits="userSpaceOnUse">
<stop stop-color="#E24263"/>
<stop offset="0.11" stop-color="#E0375A"/>
<stop offset="0.32" stop-color="#DE284F"/>
<stop offset="0.57" stop-color="#DD2048"/>
<stop offset="1" stop-color="#DD1E47"/>
</linearGradient>
</defs>
</svg>
