<svg width="67" height="89" viewBox="0 0 67 89" fill="none" xmlns="http://www.w3.org/2000/svg">
<g style="mix-blend-mode:multiply">
<path opacity="0.03" d="M26.0613 88.4799C25.7299 88.4799 25.389 88.4657 25.0482 88.442C24.7073 88.4704 24.3712 88.4799 24.0351 88.4799C16.2239 88.4799 9.87085 81.7887 9.87085 73.5634V25.6223C9.87085 17.3969 16.2239 10.7058 24.0351 10.7058H36.9353C43.7571 10.7058 50.1717 13.5044 55.0004 18.5855C59.8244 23.6666 62.4849 30.424 62.4849 37.6076C62.4849 40.2499 62.1157 42.8591 61.3914 45.3831C64.7573 50.0616 66.5325 55.6447 66.5325 61.5781C66.5325 68.7617 63.8767 75.5191 59.0527 80.5954C54.2288 85.6765 47.8094 88.4751 40.9877 88.4751H26.066L26.0613 88.4799Z" fill="#FBFBFB"/>
<path opacity="0.06" d="M25.7394 88.1386C25.408 88.1386 25.0671 88.1245 24.7263 88.1008C24.3854 88.1292 24.0493 88.1386 23.7132 88.1386C15.902 88.1386 9.54895 81.4475 9.54895 73.2269V25.2953C9.54895 17.0747 15.902 10.3835 23.7132 10.3835H36.6134C43.4352 10.3835 49.8498 13.1822 54.6738 18.2585C59.4978 23.3396 62.1583 30.0922 62.1583 37.2758C62.1583 39.9134 61.789 42.5274 61.0647 45.0513C64.4306 49.7299 66.2059 55.3129 66.2059 61.2416C66.2059 68.4252 63.5501 75.1779 58.7261 80.259C53.9021 85.34 47.4875 88.1386 40.6658 88.1386H25.7441H25.7394Z" fill="#F7F7F7"/>
<path opacity="0.1" d="M25.4127 87.7926C25.0813 87.7926 24.7404 87.7784 24.3996 87.7547C24.0587 87.7831 23.7226 87.7926 23.3865 87.7926C15.5801 87.7926 9.22699 81.1062 9.22699 72.8809V24.954C9.22699 16.7333 15.5801 10.0422 23.3865 10.0422H36.282C43.1037 10.0422 49.5184 12.8408 54.3423 17.9172C59.1663 22.9983 61.8221 29.7509 61.8221 36.9345C61.8221 39.5721 61.4529 42.1861 60.7286 44.71C64.0945 49.3886 65.8697 54.9669 65.8697 60.9003C65.8697 68.0839 63.2139 74.8366 58.3899 79.9129C53.566 84.994 47.1513 87.7879 40.3296 87.7879H25.4127V87.7926Z" fill="#F3F3F3"/>
<path opacity="0.13" d="M25.0908 87.4521C24.7594 87.4521 24.4185 87.4379 24.0777 87.4142C23.7368 87.4427 23.4007 87.4521 23.0646 87.4521C15.2582 87.4521 8.90509 80.7658 8.90509 72.5451V24.6277C8.90509 16.4071 15.2582 9.7207 23.0646 9.7207H35.9601C42.7818 9.7207 49.1917 12.5193 54.0157 17.5957C58.8397 22.6767 61.4955 29.4294 61.4955 36.6082C61.4955 39.2459 61.1262 41.8598 60.4019 44.379C63.7678 49.0576 65.5431 54.6359 65.5431 60.5646C65.5431 67.7482 62.8873 74.4961 58.0633 79.5772C53.2393 84.6582 46.8247 87.4521 40.0077 87.4521H25.0908Z" fill="#EFEFEF"/>
<path opacity="0.16" d="M24.7688 87.1115C24.4374 87.1115 24.0965 87.0973 23.7557 87.0736C23.4148 87.102 23.0787 87.1115 22.7426 87.1115C14.9362 87.1115 8.58783 80.4251 8.58783 72.2044V24.2918C8.58783 16.0711 14.9362 9.38477 22.7426 9.38477H35.6334C42.4504 9.38477 48.865 12.1786 53.6842 17.2597C58.5082 22.3361 61.164 29.0887 61.164 36.2723C61.164 38.9099 60.7948 41.5191 60.0705 44.0431C63.4364 48.7217 65.2116 54.2999 65.2116 60.2286C65.2116 67.4075 62.5558 74.1602 57.7366 79.2365C52.9126 84.3128 46.5027 87.1115 39.681 87.1115H24.7688Z" fill="#EBEBEB"/>
<path opacity="0.19" d="M24.4469 86.7702C24.1155 86.7702 23.7746 86.756 23.4338 86.7324C23.0929 86.7608 22.7568 86.7702 22.4207 86.7702C14.6143 86.7702 8.26593 80.0839 8.26593 71.868V23.9648C8.26593 15.7489 14.6143 9.0625 22.4207 9.0625H35.3115C42.1285 9.0625 48.5384 11.8564 53.3624 16.9327C58.1863 22.0091 60.8421 28.7617 60.8421 35.9406C60.8421 38.5782 60.4729 41.1874 59.7486 43.7113C63.1145 48.3852 64.885 53.9635 64.885 59.8922C64.885 67.071 62.2292 73.819 57.41 78.8953C52.586 83.9716 46.1761 86.7702 39.3591 86.7702H24.4469Z" fill="#E6E7E7"/>
<path opacity="0.23" d="M24.1249 86.4293C23.7935 86.4293 23.4527 86.4151 23.1118 86.3914C22.771 86.4199 22.4349 86.4293 22.0988 86.4293C14.2971 86.4293 7.94873 79.743 7.94873 71.5271V23.6286C7.94873 15.4127 14.2971 8.72632 22.0988 8.72632H34.9895C41.8066 8.72632 48.2164 11.5202 53.0357 16.5965C57.8549 21.6729 60.5107 28.4208 60.5107 35.5996C60.5107 38.2373 60.1415 40.8465 59.4172 43.3704C62.7831 48.0443 64.5536 53.6226 64.5536 59.5513C64.5536 66.7301 61.8978 73.478 57.0785 78.5544C52.2546 83.6307 45.8447 86.4246 39.0277 86.4246H24.1155L24.1249 86.4293Z" fill="#E2E3E3"/>
<path opacity="0.26" d="M23.8031 86.0881C23.4717 86.0881 23.1308 86.0739 22.7947 86.0502C22.4539 86.0787 22.1178 86.0881 21.7864 86.0881C13.9847 86.0881 7.63635 79.4065 7.63635 71.1906V23.3016C7.63635 15.0857 13.9847 8.40405 21.7864 8.40405H34.6724C41.4894 8.40405 47.8993 11.1979 52.7186 16.2743C57.5378 21.3506 60.1936 28.0985 60.1936 35.2774C60.1936 37.915 59.8244 40.5242 59.1001 43.0434C62.4612 47.7173 64.2365 53.2955 64.2365 59.2195C64.2365 66.3984 61.5807 73.1463 56.7614 78.2179C51.9422 83.2942 45.5323 86.0881 38.7153 86.0881H23.8078H23.8031Z" fill="#DEDFE0"/>
<path opacity="0.29" d="M23.4763 85.7423C23.1449 85.7423 22.8041 85.7281 22.4679 85.7044C22.1271 85.7328 21.791 85.7423 21.4596 85.7423C13.6579 85.7423 7.30957 79.0607 7.30957 70.8448V22.9605C7.30957 14.7446 13.6579 8.06299 21.4596 8.06299H34.3456C41.1627 8.06299 47.5678 10.8569 52.3871 15.9332C57.2063 21.0095 59.8621 27.7575 59.8621 34.9316C59.8621 37.5692 59.4928 40.1784 58.7685 42.6976C62.1297 47.3715 63.905 52.945 63.905 58.8737C63.905 66.0478 61.2492 72.7958 56.4347 77.8721C51.6154 82.9484 45.2055 85.7423 38.3885 85.7423H23.481H23.4763Z" fill="#DADBDC"/>
<path opacity="0.32" d="M23.1545 85.4018C22.8231 85.4018 22.4823 85.3876 22.1461 85.364C21.81 85.3924 21.4692 85.4018 21.1378 85.4018C13.3361 85.4018 6.99249 78.7202 6.99249 70.509V22.6343C6.99249 14.4231 13.3361 7.74146 21.1378 7.74146H34.0191C40.8314 7.74146 47.2413 10.5353 52.0605 15.6069C56.8798 20.6833 59.5356 27.4265 59.5356 34.6053C59.5356 37.2429 59.1663 39.8521 58.442 42.3714C61.8032 47.0452 63.5784 52.6187 63.5784 58.5427C63.5784 65.7168 60.9274 72.4648 56.1081 77.5364C51.2889 82.6127 44.879 85.4066 38.0667 85.4066H23.164L23.1545 85.4018Z" fill="#D6D7D8"/>
<path opacity="0.35" d="M22.8326 85.0609C22.5012 85.0609 22.1604 85.0467 21.8242 85.023C21.4881 85.0515 21.1473 85.0609 20.8159 85.0609C13.0189 85.0609 6.67059 78.3793 6.67059 70.1681V22.2981C6.67059 14.0869 13.0142 7.40527 20.8159 7.40527H33.6972C40.5095 7.40527 46.9146 10.1991 51.7339 15.2707C56.5531 20.3471 59.2042 27.0903 59.2042 34.2644C59.2042 36.902 58.8349 39.5065 58.1106 42.0304C61.4718 46.7043 63.247 52.2778 63.247 58.2018C63.247 65.3759 60.596 72.1191 55.7767 77.1954C50.9575 82.2671 44.5523 85.0657 37.7401 85.0657H22.8373L22.8326 85.0609Z" fill="#D2D3D4"/>
<path opacity="0.39" d="M22.5107 84.7197C22.1793 84.7197 21.8384 84.7055 21.5023 84.6818C21.1662 84.7103 20.8253 84.7197 20.494 84.7197C12.697 84.7197 6.35339 78.0381 6.35339 69.8317V21.9711C6.35339 13.7599 12.697 7.08301 20.494 7.08301H33.3705C40.1828 7.08301 46.588 9.87689 51.4025 14.9485C56.2217 20.0201 58.8728 26.768 58.8728 33.9374C58.8728 36.575 58.5035 39.1795 57.7792 41.6987C61.1404 46.3725 62.9156 51.9414 62.9156 57.8653C62.9156 65.0394 60.2646 71.7826 55.4453 76.8542C50.6261 81.9258 44.2209 84.7197 37.4087 84.7197H22.5107Z" fill="#CECFD0"/>
<path opacity="0.42" d="M22.1887 84.3791C21.8573 84.3791 21.5165 84.3649 21.1803 84.3412C20.8442 84.3696 20.5034 84.3791 20.172 84.3791C12.375 84.3791 6.03143 77.7021 6.03143 69.491V21.6351C6.03143 13.424 12.375 6.74707 20.172 6.74707H33.0486C39.8609 6.74707 46.2613 9.54096 51.0805 14.6126C55.8998 19.6842 58.5508 26.4274 58.5508 33.6015C58.5508 36.2391 58.1816 38.8435 57.4573 41.3628C60.8184 46.0319 62.589 51.6054 62.589 57.5294C62.589 64.7035 59.9379 71.442 55.1186 76.5136C50.2994 81.5852 43.899 84.3791 37.0867 84.3791H22.1887Z" fill="#CACBCC"/>
<path opacity="0.45" d="M21.8668 84.0378C21.5354 84.0378 21.1945 84.0236 20.8584 83.9999C20.5223 84.0283 20.1814 84.0378 19.8501 84.0378C12.0531 84.0378 5.71423 77.3609 5.71423 69.1497V21.3034C5.71423 13.0969 12.0578 6.41528 19.8501 6.41528H32.7266C39.5389 6.41528 45.9393 9.20916 50.7538 14.276C55.5684 19.3476 58.2242 26.0908 58.2242 33.2602C58.2242 35.8931 57.8549 38.5023 57.1306 41.0215C60.4918 45.6906 62.2623 51.2642 62.2623 57.1834C62.2623 64.3528 59.6112 71.096 54.7967 76.1676C49.9775 81.2392 43.577 84.0331 36.7648 84.0331H21.8715L21.8668 84.0378Z" fill="#C6C7C8"/>
<path opacity="0.48" d="M21.5401 83.6921C21.2087 83.6921 20.8679 83.6778 20.5318 83.6542C20.1956 83.6826 19.8548 83.6921 19.5234 83.6921C11.7312 83.6921 5.38757 77.0151 5.38757 68.8087V20.9671C5.38757 12.7606 11.7264 6.08374 19.5234 6.08374H32.3952C39.2028 6.08374 45.6079 8.87762 50.4225 13.9445C55.237 19.0161 57.8928 25.7593 57.8928 32.9287C57.8928 35.5615 57.5235 38.1707 56.7992 40.69C60.1604 45.3591 61.9309 50.9279 61.9309 56.8519C61.9309 64.0212 59.2798 70.7644 54.4653 75.8313C49.6508 80.9029 43.2457 83.6968 36.4381 83.6968H21.5448L21.5401 83.6921Z" fill="#C2C3C4"/>
<path opacity="0.52" d="M21.2182 83.3515C20.8868 83.3515 20.5459 83.3373 20.2098 83.3136C19.8737 83.342 19.5329 83.3515 19.2015 83.3515C11.4092 83.3515 5.07037 76.6746 5.07037 68.4682V20.636C5.07037 12.4296 11.4092 5.75269 19.2015 5.75269H32.0733C38.8809 5.75269 45.2813 8.54183 50.0958 13.6134C54.9103 18.685 57.5614 25.4235 57.5614 32.5929C57.5614 35.2258 57.1921 37.835 56.4678 40.3494C59.829 45.0185 61.5995 50.5874 61.5995 56.5066C61.5995 63.676 58.9484 70.4144 54.1339 75.486C49.3194 80.5576 42.919 83.3468 36.1067 83.3468H21.2182V83.3515Z" fill="#BDBEC0"/>
<path opacity="0.55" d="M20.8963 83.0107C20.5649 83.0107 20.224 82.9964 19.8879 82.9728C19.5518 83.0012 19.211 83.0107 18.8796 83.0107C11.0873 83.0107 4.74847 76.3338 4.74847 68.1321V20.3046C4.74847 12.0982 11.0873 5.42603 18.8796 5.42603H31.7467C38.5542 5.42603 44.9546 8.21517 49.7691 13.2868C54.5837 18.3584 57.2347 25.0968 57.2347 32.2615C57.2347 34.8944 56.8655 37.4988 56.1412 40.0181C59.5023 44.6871 61.2729 50.256 61.2729 56.1752C61.2729 63.3446 58.6218 70.083 53.8073 75.1499C48.9928 80.2215 42.5924 83.0107 35.7848 83.0107H20.8963Z" fill="#B9BABC"/>
<path opacity="0.58" d="M20.5745 82.6694C20.2431 82.6694 19.9023 82.6552 19.5661 82.6315C19.23 82.6599 18.8892 82.6694 18.5578 82.6694C10.7656 82.6694 4.4267 75.9972 4.4267 67.7908V19.9728C4.4267 11.7711 10.7656 5.09424 18.5578 5.09424H31.4249C38.2324 5.09424 44.6281 7.88338 49.4426 12.9502C54.2572 18.0171 56.9082 24.7556 56.9082 31.925C56.9082 34.5578 56.539 37.1623 55.8147 39.6815C59.1711 44.3506 60.9463 49.9147 60.9463 55.8339C60.9463 62.9986 58.2953 69.737 53.4855 74.8039C48.671 79.8708 42.2706 82.6647 35.4678 82.6647H20.584L20.5745 82.6694Z" fill="#B5B6B8"/>
<path opacity="0.61" d="M20.2526 82.3285C19.9212 82.3285 19.5803 82.3143 19.2442 82.2906C18.9081 82.319 18.5672 82.3285 18.2359 82.3285C10.4484 82.3285 4.1095 75.6564 4.1095 67.4547V19.6414C4.1095 11.4397 10.4484 4.76758 18.2359 4.76758H31.103C37.9105 4.76758 44.3062 7.55672 49.1207 12.6236C53.9352 17.6905 56.5863 24.4289 56.5863 31.5936C56.5863 34.2264 56.217 36.8309 55.4927 39.3501C58.8492 44.0145 60.6197 49.5833 60.6197 55.5025C60.6197 62.6672 57.9686 69.4056 53.1588 74.4725C48.3443 79.5394 41.9486 82.3333 35.1411 82.3333H20.2573L20.2526 82.3285Z" fill="#B1B2B4"/>
<path opacity="0.65" d="M19.9259 81.9824C19.5945 81.9824 19.2537 81.9682 18.9176 81.9445C18.5814 81.9729 18.2406 81.9824 17.9092 81.9824C10.1217 81.9824 3.78284 75.3102 3.78284 67.1085V19.3048C3.78284 11.1031 10.117 4.43091 17.9092 4.43091H30.7716C37.5744 4.43091 43.9748 7.22006 48.7846 12.2869C53.5991 17.3538 56.2454 24.0923 56.2454 31.2569C56.2454 33.8898 55.8762 36.4942 55.1519 39.0087C58.5083 43.6731 60.2788 49.2419 60.2788 55.1564C60.2788 62.3211 57.6278 69.0548 52.818 74.1216C48.0035 79.1885 41.6078 81.9777 34.805 81.9777H19.9212L19.9259 81.9824Z" fill="#ADAEB0"/>
<path opacity="0.68" d="M19.604 81.6415C19.2726 81.6415 18.9317 81.6273 18.5956 81.6036C18.2595 81.632 17.9186 81.6415 17.5873 81.6415C9.79978 81.6415 3.46564 74.9694 3.46564 66.7724V18.9734C3.46564 10.7717 9.79978 4.10425 17.5873 4.10425H30.4496C37.2524 4.10425 43.6481 6.89339 48.4579 11.9603C53.2677 17.0271 55.9188 23.7608 55.9188 30.9255C55.9188 33.5584 55.5495 36.1628 54.8252 38.6773C58.1816 43.3417 59.9522 48.9105 59.9522 54.825C59.9522 61.9896 57.3011 68.7234 52.4913 73.7902C47.6815 78.8571 41.2811 81.6463 34.4783 81.6463H19.5992L19.604 81.6415Z" fill="#A9AAAC"/>
<path opacity="0.71" d="M19.282 81.301C18.9506 81.301 18.6098 81.2868 18.2737 81.2631C17.9375 81.2915 17.5967 81.301 17.2653 81.301C9.47782 81.301 3.14368 74.6336 3.14368 66.4319V18.6423C3.14368 10.4454 9.47782 3.77319 17.2653 3.77319H30.1229C36.9258 3.77319 43.3214 6.56234 48.1312 11.6245C52.941 16.6913 55.5921 23.4251 55.5921 30.585C55.5921 33.2178 55.2228 35.8223 54.4985 38.3368C57.8549 43.0012 59.6255 48.5653 59.6255 54.4798C59.6255 61.6444 56.9791 68.3781 52.1693 73.4402C47.3596 78.5071 40.9639 81.2963 34.1611 81.2963H19.282V81.301Z" fill="#A5A6A8"/>
<path opacity="0.74" d="M18.9601 80.9601C18.6287 80.9601 18.2878 80.9459 17.9517 80.9222C17.6156 80.9507 17.2748 80.9601 16.9434 80.9601C9.15588 80.9601 2.82648 74.2927 2.82648 66.0957V18.3109C2.82648 10.114 9.16062 3.44653 16.9434 3.44653H29.801C36.6038 3.44653 42.9948 6.23567 47.8045 11.2978C52.6143 16.3647 55.2654 23.0984 55.2654 30.2583C55.2654 32.8912 54.8961 35.4909 54.1718 38.0101C57.5283 42.6745 59.2988 48.2386 59.2988 54.1531C59.2988 61.313 56.6525 68.0467 51.8427 73.1088C47.0329 78.1757 40.6372 80.9649 33.8344 80.9649H18.9601V80.9601Z" fill="#A1A2A4"/>
<path opacity="0.77" d="M18.6382 80.6191C18.3068 80.6191 17.9659 80.6049 17.6298 80.5812C17.2937 80.6096 16.9529 80.6191 16.6215 80.6191C8.83872 80.6191 2.50458 73.9517 2.50458 65.7547V17.9794C2.50458 9.78242 8.83872 3.11499 16.6215 3.11499H29.4791C36.2772 3.11499 42.6729 5.90414 47.4827 10.9663C52.2924 16.0284 54.9388 22.7621 54.9388 29.922C54.9388 32.5549 54.5695 35.1546 53.8452 37.6739C57.2016 42.3382 58.9722 47.9023 58.9722 53.8121C58.9722 60.972 56.3258 67.7057 51.516 72.7678C46.7063 77.83 40.3106 80.6191 33.5125 80.6191H18.6382Z" fill="#9D9EA1"/>
<path opacity="0.81" d="M18.3162 80.2782C17.9848 80.2782 17.6439 80.264 17.3078 80.2404C16.9717 80.2688 16.6309 80.2782 16.2995 80.2782C8.51672 80.2782 2.18732 73.6108 2.18732 65.4186V17.648C2.18732 9.45103 8.51672 2.78833 16.2995 2.78833H29.1524C35.9505 2.78833 42.3461 5.57747 47.1512 10.6396C51.961 15.7017 54.6073 22.4355 54.6073 29.5954C54.6073 32.2282 54.238 34.828 53.5137 37.3425C56.8702 42.0068 58.636 47.5662 58.636 53.4807C58.636 60.6406 55.9896 67.3696 51.1798 72.4317C46.3701 77.4938 39.9791 80.283 33.1763 80.283H18.3067L18.3162 80.2782Z" fill="#999A9D"/>
<path opacity="0.84" d="M17.9896 79.9319C17.6582 79.9319 17.3173 79.9177 16.9812 79.894C16.6451 79.9224 16.3043 79.9319 15.9729 79.9319C8.19012 79.9319 1.86072 73.2644 1.86072 65.0722V17.3111C1.86072 9.11884 8.19012 2.45142 15.9729 2.45142H28.8258C35.6239 2.45142 42.0148 5.24056 46.8246 10.298C51.6344 15.3601 54.2807 22.0891 54.2807 29.249C54.2807 31.8771 53.9162 34.4816 53.1871 36.9961C56.5436 41.6557 58.3094 47.2198 58.3094 53.1296C58.3094 60.2895 55.663 67.0185 50.8532 72.0806C46.0435 77.1427 39.6525 79.9319 32.8544 79.9319H17.9848H17.9896Z" fill="#949699"/>
<path opacity="0.87" d="M17.6676 79.5912C17.3362 79.5912 16.9954 79.577 16.6593 79.5534C16.3231 79.5818 15.9823 79.5912 15.6509 79.5912C7.86816 79.5912 1.53876 72.9286 1.53876 64.7363V16.9799C1.53876 8.7877 7.86816 2.125 15.6509 2.125H28.4991C35.2972 2.125 41.6881 4.90941 46.4932 9.97154C51.2982 15.0337 53.9493 21.7627 53.9493 28.9178C53.9493 31.546 53.5847 34.1504 52.8557 36.6649C56.2074 41.3246 57.9779 46.8886 57.9779 52.7984C57.9779 59.9536 55.3316 66.6826 50.5266 71.7447C45.7168 76.8068 39.3258 79.596 32.5325 79.596H17.6676V79.5912Z" fill="#909295"/>
<path opacity="0.9" d="M17.3459 79.2507C17.0145 79.2507 16.6736 79.2365 16.3375 79.2128C16.0014 79.2412 15.6605 79.2507 15.3292 79.2507C7.55115 79.2507 1.22174 72.588 1.22174 64.3958V16.6489C1.22174 8.45664 7.55115 1.79395 15.3292 1.79395H28.1773C34.9754 1.79395 41.3616 4.57835 46.1667 9.64048C50.9717 14.7026 53.618 21.4316 53.618 28.5868C53.618 31.2149 53.2535 33.8194 52.5292 36.3339C55.8809 40.9935 57.6514 46.5528 57.6514 52.4626C57.6514 59.6178 55.0051 66.3468 50.2001 71.4042C45.395 76.4663 39.0041 79.2507 32.206 79.2507H17.3411H17.3459Z" fill="#8C8E91"/>
<path opacity="0.94" d="M17.024 78.9091C16.6926 78.9091 16.3517 78.8949 16.0156 78.8712C15.6795 78.8996 15.3386 78.9091 15.0073 78.9091C7.22925 78.9091 0.899841 72.2464 0.899841 64.0542V16.312C0.899841 8.11973 7.22925 1.45703 15.0073 1.45703H27.8554C34.6488 1.45703 41.0397 4.24144 45.8448 9.30358C50.6498 14.3657 53.2961 21.09 53.2961 28.2451C53.2961 30.8733 52.9316 33.4777 52.2073 35.9875C55.559 40.6471 57.3295 46.2065 57.3295 52.1162C57.3295 59.2714 54.6832 65.9957 49.8782 71.0578C45.0731 76.1199 38.6822 78.9043 31.8888 78.9043H17.0287L17.024 78.9091Z" fill="#888A8D"/>
<path opacity="0.97" d="M16.702 78.5686C16.3706 78.5686 16.0297 78.5544 15.6936 78.5307C15.3575 78.5591 15.0167 78.5686 14.6853 78.5686C6.90725 78.5686 0.582581 71.9059 0.582581 63.7184V15.9857C0.582581 7.79819 6.90725 1.1355 14.6853 1.1355H27.5287C34.322 1.1355 40.7083 3.91991 45.5133 8.9773C50.3184 14.0394 52.9647 20.7637 52.9647 27.9189C52.9647 30.547 52.6002 33.1467 51.8759 35.6612C55.2276 40.3208 56.9981 45.8802 56.9981 51.7852C56.9981 58.9404 54.3518 65.6647 49.5467 70.7221C44.7417 75.7794 38.3507 78.5686 31.5574 78.5686H16.6972H16.702Z" fill="#848689"/>
<path d="M16.3801 78.2228C16.0487 78.2228 15.7078 78.2086 15.3717 78.1849C15.0356 78.2133 14.6948 78.2228 14.3634 78.2228C6.58535 78.2228 0.260681 71.5601 0.260681 63.3726V15.6446C0.260681 7.45713 6.58535 0.794434 14.3634 0.794434H27.2068C34.0002 0.794434 40.3864 3.57884 45.1914 8.63624C49.9965 13.6936 52.6428 20.4226 52.6428 27.5731C52.6428 30.2012 52.2783 32.8009 51.554 35.3154C54.9057 39.9751 56.6714 45.5297 56.6714 51.4394C56.6714 58.5946 54.0251 65.3188 49.2248 70.3762C44.4198 75.4336 38.0336 78.2228 31.2402 78.2228H16.3848H16.3801Z" fill="#808285"/>
</g>
<path d="M16.3233 78.4033C15.9919 78.4033 15.651 78.3891 15.3102 78.3654C14.9693 78.3938 14.6332 78.4033 14.2971 78.4033C6.48595 78.4033 0.132874 71.7122 0.132874 63.4868V15.541C0.132874 7.31562 6.48595 0.624512 14.2971 0.624512H27.1974C34.0238 0.624512 40.4385 3.42313 45.2624 8.5042C50.0912 13.5853 52.7469 20.3427 52.7469 27.5263C52.7469 30.1686 52.3777 32.7778 51.6534 35.3018C55.0193 39.9803 56.7945 45.5634 56.7945 51.4968C56.7945 58.6804 54.1388 65.4378 49.31 70.5189C44.4813 75.5999 38.0667 78.3985 31.2402 78.3985H16.3138L16.3233 78.4033Z" fill="url(#paint0_linear_53_38062)"/>
<path d="M16.3232 76.9827C15.9871 76.9827 15.6509 76.9685 15.3101 76.9401C14.9692 76.9685 14.6331 76.9827 14.297 76.9827C7.22909 76.9827 1.47723 70.9261 1.47723 63.4868V15.541C1.47723 8.10173 7.22909 2.04517 14.297 2.04517H27.1972C33.6592 2.04517 39.7377 4.69698 44.3108 9.50814C48.8839 14.324 51.4024 20.7215 51.4024 27.5263C51.4024 30.2776 50.9763 32.9957 50.1526 35.5859C53.5848 40.0893 55.45 45.6439 55.45 51.5016C55.45 58.3063 52.9315 64.7086 48.3631 69.5197C43.79 74.3356 37.7115 76.9827 31.2496 76.9827H16.3232Z" fill="url(#paint1_linear_53_38062)"/>
<path d="M48.3868 38.7725C48.1122 38.7725 47.8424 38.6446 47.672 38.4078C47.2696 37.8585 46.8388 37.3234 46.3891 36.8167C46.1666 36.5658 46.105 36.2059 46.2281 35.8934C46.4837 35.2635 46.711 34.6148 46.9098 33.9613C47.0518 33.4925 47.5489 33.2273 48.0176 33.3694C48.4862 33.5114 48.7513 34.0039 48.6093 34.4775C48.4484 35.0078 48.2685 35.5382 48.0744 36.0544C48.4342 36.4758 48.7797 36.9162 49.1064 37.3613C49.3952 37.7543 49.31 38.3131 48.917 38.602C48.7608 38.7156 48.5762 38.7725 48.3916 38.7725H48.3868Z" fill="#FAAC18"/>
<path d="M31.2498 74.8517H29.1479C28.6555 74.8517 28.2579 74.4539 28.2579 73.9615C28.2579 73.469 28.6555 73.0712 29.1479 73.0712H31.2498C31.9409 73.0712 32.6368 73.0333 33.3185 72.967C33.8014 72.9149 34.2417 73.2701 34.2938 73.7578C34.3458 74.2456 33.9908 74.6812 33.5032 74.7333C32.7599 74.8091 32.0025 74.847 31.2498 74.847V74.8517ZM24.8778 74.8517H20.6077C20.1153 74.8517 19.7177 74.4539 19.7177 73.9615C19.7177 73.469 20.1153 73.0712 20.6077 73.0712H24.8778C25.3701 73.0712 25.7678 73.469 25.7678 73.9615C25.7678 74.4539 25.3701 74.8517 24.8778 74.8517ZM16.3423 74.8517H16.3234C15.9872 74.8517 15.6559 74.8328 15.3103 74.7996C14.1457 74.918 13.0095 74.8328 11.897 74.5818C11.4189 74.4729 11.1206 73.9946 11.2295 73.5163C11.3384 73.0381 11.8118 72.7397 12.2947 72.8486C13.2415 73.0665 14.2072 73.1328 15.2156 73.0239C15.2771 73.0191 15.3434 73.0191 15.4097 73.0239C15.7221 73.057 16.0204 73.076 16.3281 73.076C16.8204 73.076 17.2228 73.4737 17.2228 73.9662C17.2228 74.4587 16.8346 74.8565 16.3423 74.8565V74.8517ZM37.5839 73.8715C37.2099 73.8715 36.8596 73.63 36.7365 73.2512C36.5898 72.7824 36.8454 72.2851 37.3141 72.1336C38.6065 71.7216 39.8657 71.1723 41.054 70.4999C41.48 70.2584 42.0197 70.4099 42.2611 70.8361C42.5026 71.2623 42.3511 71.8069 41.925 72.0436C40.6326 72.7729 39.2645 73.3743 37.8537 73.8194C37.7638 73.8478 37.6739 73.862 37.5839 73.862V73.8715ZM8.27076 72.7966C8.08139 72.7966 7.89203 72.735 7.73108 72.6119C6.50023 71.6695 5.48714 70.4999 4.72496 69.1314C4.48826 68.7052 4.63975 68.1606 5.06581 67.9238C5.49188 67.6871 6.03629 67.8386 6.27299 68.2648C6.91682 69.4202 7.76895 70.4052 8.81044 71.2007C9.19863 71.4991 9.27437 72.0578 8.97613 72.4462C8.80097 72.6734 8.53586 72.7966 8.27076 72.7966ZM44.9737 69.7091C44.7228 69.7091 44.4767 69.6049 44.3015 69.4013C43.9796 69.0319 44.0222 68.4684 44.3914 68.1511C44.9169 67.6965 45.4282 67.2088 45.9158 66.6974C46.3703 66.2191 46.8105 65.7077 47.2224 65.1915C47.5254 64.808 48.084 64.7417 48.4675 65.0447C48.8509 65.3478 48.9172 65.9066 48.6142 66.2901C48.1692 66.8537 47.6958 67.4029 47.2035 67.9191C46.678 68.4731 46.1241 68.9988 45.556 69.4913C45.3903 69.6381 45.182 69.7091 44.9737 69.7091ZM4.21369 65.5467C3.76869 65.5467 3.3805 65.2105 3.33316 64.7559C3.28582 64.3344 3.26215 63.9082 3.26215 63.482V60.3898C3.26215 59.8974 3.6598 59.4996 4.15214 59.4996C4.64448 59.4996 5.04214 59.8974 5.04214 60.3898V63.482C5.04214 63.8419 5.06108 64.2066 5.09895 64.5617C5.15103 65.0495 4.80071 65.4851 4.3131 65.5419C4.27996 65.5419 4.24683 65.5467 4.21369 65.5467ZM50.2285 63.0417C50.0912 63.0417 49.9492 63.0085 49.8214 62.9422C49.3859 62.7149 49.2154 62.1798 49.4427 61.7442C50.0676 60.5366 50.5836 59.2581 50.9765 57.9464C51.1185 57.4776 51.6109 57.2077 52.0795 57.3497C52.5482 57.4918 52.818 57.9843 52.676 58.4531C52.2547 59.8689 51.6961 61.2517 51.0191 62.5587C50.8629 62.8617 50.5504 63.0369 50.2285 63.0369V63.0417ZM4.15214 57.0088C3.6598 57.0088 3.26215 56.611 3.26215 56.1185V51.8472C3.26215 51.3547 3.6598 50.9569 4.15214 50.9569C4.64448 50.9569 5.04214 51.3547 5.04214 51.8472V56.1185C5.04214 56.611 4.64448 57.0088 4.15214 57.0088ZM52.6618 54.9063C52.6287 54.9063 52.6003 54.9063 52.5671 54.9015C52.0795 54.8494 51.7245 54.4138 51.7765 53.926C51.8618 53.1258 51.9044 52.3065 51.9044 51.4968C51.9044 50.938 51.8854 50.3745 51.8428 49.8205C51.805 49.3327 52.1742 48.9065 52.6618 48.8686C53.1494 48.8355 53.5755 49.2001 53.6134 49.6879C53.656 50.2845 53.6796 50.8907 53.6796 51.492C53.6796 52.3634 53.6323 53.2489 53.5423 54.1107C53.495 54.5653 53.1068 54.9063 52.6618 54.9063ZM4.15214 48.4709C3.6598 48.4709 3.26215 48.0731 3.26215 47.5806V43.3093C3.26215 42.8168 3.6598 42.419 4.15214 42.419C4.64448 42.419 5.04214 42.8168 5.04214 43.3093V47.5806C5.04214 48.0731 4.64448 48.4709 4.15214 48.4709ZM52.0369 46.4394C51.644 46.4394 51.2842 46.1742 51.1801 45.7764C50.8345 44.4505 50.3611 43.1578 49.7788 41.9266C49.5705 41.4814 49.7551 40.9558 50.2001 40.7427C50.6451 40.5344 51.1706 40.719 51.3836 41.1642C52.0132 42.4948 52.5245 43.8965 52.8985 45.3266C53.0216 45.8001 52.7376 46.2878 52.2642 46.411C52.1884 46.4299 52.1127 46.4394 52.0369 46.4394ZM4.15214 39.933C3.6598 39.933 3.26215 39.5352 3.26215 39.0427V34.7714C3.26215 34.2789 3.6598 33.8811 4.15214 33.8811C4.64448 33.8811 5.04214 34.2789 5.04214 34.7714V39.0427C5.04214 39.5352 4.64448 39.933 4.15214 39.933ZM4.15214 31.3951C3.6598 31.3951 3.26215 30.9973 3.26215 30.5048V26.2335C3.26215 25.741 3.6598 25.3432 4.15214 25.3432C4.64448 25.3432 5.04214 25.741 5.04214 26.2335V30.5048C5.04214 30.9973 4.64448 31.3951 4.15214 31.3951ZM48.6189 30.8647C48.5858 30.8647 48.5574 30.8647 48.5243 30.86C48.0367 30.8079 47.6816 30.3722 47.7337 29.8845C47.8142 29.1031 47.8568 28.3123 47.8568 27.5262C47.8568 26.9438 47.8331 26.3566 47.7905 25.7836C47.7526 25.2959 48.1171 24.8697 48.6095 24.8318C49.0923 24.7892 49.5231 25.1585 49.561 25.651C49.6084 26.2666 49.632 26.9012 49.632 27.531C49.632 28.3786 49.5847 29.2357 49.4995 30.0786C49.4521 30.5332 49.0639 30.8742 48.6189 30.8742V30.8647ZM4.15214 22.8571C3.6598 22.8571 3.26215 22.4594 3.26215 21.9669V17.6956C3.26215 17.2031 3.6598 16.8053 4.15214 16.8053C4.64448 16.8053 5.04214 17.2031 5.04214 17.6956V21.9669C5.04214 22.4594 4.64448 22.8571 4.15214 22.8571ZM47.9704 22.3978C47.5775 22.3978 47.2177 22.1326 47.1135 21.7348C46.7632 20.4137 46.2898 19.1162 45.7028 17.8897C45.4897 17.4493 45.6791 16.919 46.1194 16.7059C46.5644 16.4928 47.0899 16.6822 47.3029 17.1226C47.9372 18.4532 48.4533 19.8502 48.832 21.2803C48.9598 21.7538 48.6758 22.2415 48.2023 22.3647C48.1266 22.3836 48.0509 22.3931 47.9751 22.3931L47.9704 22.3978ZM44.3062 14.7407C44.0364 14.7407 43.7666 14.6176 43.5914 14.3808C43.0612 13.6657 42.4836 12.9744 41.8682 12.3256C41.5416 11.9799 41.2007 11.6485 40.8599 11.3312C40.5001 10.9997 40.4764 10.4362 40.8078 10.0763C41.1392 9.71643 41.7025 9.69276 42.0623 10.0242C42.4316 10.3652 42.8008 10.7298 43.1559 11.0992C43.8234 11.8 44.4483 12.5482 45.0211 13.3248C45.3099 13.7178 45.2294 14.2766 44.8317 14.5655C44.6755 14.6839 44.4861 14.7407 44.3062 14.7407ZM4.36044 14.3287C4.30363 14.3287 4.24683 14.324 4.18528 14.3098C3.70241 14.215 3.38997 13.7463 3.48465 13.268C3.78762 11.7384 4.38411 10.3131 5.25518 9.0298C5.52975 8.62256 6.08363 8.52311 6.49076 8.79776C6.89789 9.07242 7.00203 9.62646 6.72273 10.0337C5.98422 11.1181 5.47768 12.3256 5.22204 13.6184C5.13682 14.0398 4.76757 14.3334 4.35097 14.3334L4.36044 14.3287ZM38.062 8.99665C37.9058 8.99665 37.7449 8.95404 37.5981 8.8688C36.4335 8.15849 35.1932 7.56657 33.9198 7.10723C33.4606 6.94149 33.2191 6.4348 33.3848 5.97073C33.5505 5.5114 34.0571 5.2699 34.521 5.43564C35.9128 5.93286 37.2573 6.57687 38.526 7.35348C38.9426 7.60919 39.0751 8.15375 38.8195 8.5752C38.6538 8.84985 38.3603 9.00139 38.062 9.00139V8.99665ZM9.03767 7.47186C8.74416 7.47186 8.45538 7.32506 8.28496 7.05514C8.02459 6.63843 8.14767 6.09386 8.56427 5.82868C9.89927 4.99052 11.3573 4.46488 12.9054 4.26126C13.3882 4.19496 13.838 4.54065 13.8995 5.0284C13.9611 5.51614 13.6202 5.96126 13.1326 6.02282C11.845 6.1933 10.6236 6.63369 9.50634 7.33453C9.35958 7.4245 9.19863 7.47186 9.03294 7.47186H9.03767ZM30.0805 6.14595C30.0426 6.14595 30 6.14595 29.9574 6.13648C29.0532 6.01336 28.1253 5.94706 27.2069 5.94706H25.8198C25.3275 5.94706 24.9298 5.54929 24.9298 5.06154C24.9298 4.5738 25.3275 4.17603 25.8198 4.17603H27.2069C28.2058 4.17603 29.2141 4.24705 30.1988 4.37964C30.6864 4.44594 31.0225 4.8958 30.9563 5.37881C30.8947 5.82394 30.516 6.14595 30.0757 6.14595H30.0805ZM21.5497 5.9518H17.2796C16.7873 5.9518 16.3896 5.55403 16.3896 5.06628C16.3896 4.57854 16.7873 4.18076 17.2796 4.18076H21.5497C22.0421 4.18076 22.4397 4.57854 22.4397 5.06628C22.4397 5.55403 22.0421 5.9518 21.5497 5.9518Z" fill="#FAAC18"/>
<path d="M26.5819 53.897H24.4516C23.9592 53.897 23.5616 53.4993 23.5616 53.0115V49.9904C23.5616 49.4979 23.9592 49.1001 24.4516 49.1001H26.5819C27.0742 49.1001 27.4719 49.4979 27.4719 49.9904C27.4719 50.4828 27.0742 50.8806 26.5819 50.8806H25.3416V52.1213H26.5819C27.0742 52.1213 27.4719 52.5191 27.4719 53.0115C27.4719 53.504 27.0742 53.897 26.5819 53.897Z" fill="#FAAC18"/>
<path d="M31.2497 53.8974H31.1313C30.639 53.8974 30.2413 53.4996 30.2413 53.0119C30.2413 52.5241 30.639 52.1216 31.1313 52.1216H31.2497C31.2497 52.1216 31.316 52.1216 31.4059 52.0269C31.529 51.8991 31.5905 51.7191 31.5905 51.4965C31.5905 51.274 31.5243 51.0988 31.4012 50.9662C31.316 50.8762 31.2734 50.8762 31.2497 50.8762H31.1361C30.6437 50.8762 30.2461 50.4784 30.2461 49.986C30.2461 49.4935 30.6437 49.0957 31.1361 49.0957H31.2497C31.7894 49.0957 32.2864 49.3183 32.6888 49.735C33.1338 50.2038 33.3658 50.8099 33.3658 51.4918C33.3658 52.1737 33.1338 52.7798 32.6888 53.2439C32.2864 53.6654 31.7894 53.8879 31.2449 53.8879L31.2497 53.8974Z" fill="#FAAC18"/>
<path d="M26.5819 29.922H24.4516C23.9592 29.922 23.5616 29.5243 23.5616 29.0318V26.0106C23.5616 25.5181 23.9592 25.1204 24.4516 25.1204H26.5819C27.0742 25.1204 27.4719 25.5181 27.4719 26.0106C27.4719 26.5031 27.0742 26.9009 26.5819 26.9009H25.3416V28.1415H26.5819C27.0742 28.1415 27.4719 28.5393 27.4719 29.0318C27.4719 29.5243 27.0742 29.922 26.5819 29.922Z" fill="#FAAC18"/>
<path d="M43.5913 38.503C43.1132 38.001 42.6067 37.5369 42.0859 37.1013C43.7523 34.2459 44.6565 30.9595 44.6565 27.5263C44.6565 22.6157 42.8433 18.0035 39.5437 14.5277C36.2488 11.0566 31.8651 9.14355 27.2021 9.14355H14.3019C10.9502 9.14355 8.22809 12.0037 8.22809 15.5363V63.4821C8.22809 67.0147 10.9454 69.8749 14.3019 69.8749C14.6474 69.8749 14.9836 69.837 15.3149 69.7802C15.6463 69.837 15.9824 69.8749 16.328 69.8749H31.2544C35.9175 69.8749 40.3012 67.9618 43.5961 64.4908C46.891 61.0197 48.7088 56.4027 48.7088 51.4969C48.7088 46.591 46.8957 41.974 43.5961 38.4982L43.5913 38.503ZM30.9562 23.5723C31.9598 24.6283 32.5137 26.0347 32.5137 27.5263C32.5137 29.018 31.9598 30.4244 30.9562 31.4804C29.9526 32.5364 28.6176 33.1188 27.1974 33.1188H20.3662V21.9338H27.1974C28.6176 21.9338 29.9526 22.5163 30.9515 23.5723H30.9562ZM35.0038 55.4557C34.0002 56.5117 32.6652 57.0941 31.245 57.0941H20.3662V45.9044H31.245C32.6652 45.9044 34.0002 46.4868 34.9991 47.5428C36.0027 48.5988 36.5566 50.0052 36.5566 51.4969C36.5566 52.9885 36.0027 54.3949 34.9991 55.4509L35.0038 55.4557Z" fill="url(#paint2_linear_53_38062)"/>
<defs>
<linearGradient id="paint0_linear_53_38062" x1="0.132874" y1="39.5115" x2="56.7993" y2="39.5115" gradientUnits="userSpaceOnUse">
<stop stop-color="#F1F2F2"/>
<stop offset="1" stop-color="#D1D3D4"/>
</linearGradient>
<linearGradient id="paint1_linear_53_38062" x1="1.48197" y1="39.5116" x2="55.45" y2="39.5116" gradientUnits="userSpaceOnUse">
<stop stop-color="#D1D3D4"/>
<stop offset="1" stop-color="#F1F2F2"/>
</linearGradient>
<linearGradient id="paint2_linear_53_38062" x1="8.22809" y1="39.5116" x2="48.7041" y2="39.5116" gradientUnits="userSpaceOnUse">
<stop stop-color="#FABC45"/>
<stop offset="0.18" stop-color="#FAB531"/>
<stop offset="0.37" stop-color="#FAB022"/>
<stop offset="0.61" stop-color="#FAAC1A"/>
<stop offset="1" stop-color="#FAAC18"/>
</linearGradient>
</defs>
</svg>
