<svg width="73" height="89" viewBox="0 0 73 89" fill="none" xmlns="http://www.w3.org/2000/svg">
<g style="mix-blend-mode:multiply">
<path opacity="0.03" d="M46.3782 88.0212C26.6515 88.0212 10.5984 70.5808 10.5984 49.1437C10.5984 27.7065 26.6468 10.2661 46.3782 10.2661C52.9633 10.2661 59.4016 12.2266 65.0019 15.9391C68.2021 18.0606 70.4271 21.3659 71.265 25.2489C72.103 29.1319 71.4544 33.1238 69.4424 36.4954C66.834 40.8567 62.3509 43.4612 57.4559 43.4612C54.7859 43.4612 52.1822 42.6704 49.9193 41.1693C48.8447 40.4542 47.6185 40.0801 46.3782 40.0801C42.2596 40.0801 38.9127 44.1478 38.9127 49.1484C38.9127 54.149 42.2644 58.2167 46.3782 58.2167C47.6422 58.2167 48.8873 57.8236 49.9808 57.0849C52.2721 55.5317 54.9184 54.7125 57.6405 54.7125C62.4787 54.7125 66.9287 57.2696 69.5466 61.5504C71.5964 64.8983 72.2829 68.8855 71.4781 72.778C70.678 76.6705 68.4862 79.9995 65.3096 82.1541C59.6383 85.9992 53.0911 88.0354 46.383 88.0354L46.3782 88.0212Z" fill="#FBFBFB"/>
<path opacity="0.06" d="M46.0517 87.6707C26.3297 87.6707 10.2861 70.235 10.2861 48.8027C10.2861 27.3703 26.3297 9.93457 46.0517 9.93457C52.632 9.93457 59.0703 11.895 64.6659 15.6076C67.8614 17.7243 70.0864 21.0296 70.9243 24.9079C71.7623 28.7862 71.1137 32.7781 69.1017 36.1449C66.4933 40.5015 62.0196 43.106 57.1246 43.106C54.4594 43.106 51.8556 42.3152 49.5975 40.8141C48.5181 40.099 47.292 39.7202 46.0517 39.7202C41.9284 39.7202 38.5719 43.7926 38.5719 48.7979C38.5719 53.8032 41.9284 57.8757 46.0517 57.8757C47.3157 57.8757 48.5607 57.4826 49.659 56.7392C51.9456 55.186 54.5919 54.3667 57.3092 54.3667C62.1427 54.3667 66.5927 56.9191 69.2059 61.1952C71.251 64.5384 71.9374 68.5256 71.1374 72.4133C70.3373 76.3011 68.1455 79.63 64.9736 81.7846C59.3023 85.6298 52.7598 87.6613 46.0517 87.6613V87.6707Z" fill="#F7F7F7"/>
<path opacity="0.1" d="M45.7297 87.3249C26.0125 87.3249 9.97357 69.894 9.97357 48.4711C9.97357 27.0482 26.0125 9.61719 45.7297 9.61719C52.3101 9.61719 58.7436 11.5776 64.3392 15.2854C67.5347 17.4022 69.755 20.7027 70.5929 24.581C71.4308 28.4546 70.7823 32.4465 68.7703 35.8086C66.1666 40.1652 61.6929 42.7649 56.8027 42.7649C54.1374 42.7649 51.5384 41.9741 49.2803 40.4777C48.2009 39.7627 46.9701 39.3838 45.7297 39.3838C41.6017 39.3838 38.2405 43.461 38.2405 48.4758C38.2405 53.4906 41.6017 57.5677 45.7297 57.5677C46.9985 57.5677 48.2435 57.1747 49.3418 56.4312C51.6283 54.878 54.2747 54.0588 56.9873 54.0588C61.816 54.0588 66.2613 56.6112 68.8744 60.8825C70.9195 64.2257 71.606 68.2034 70.8059 72.0912C70.0059 75.9742 67.8188 79.2985 64.647 81.4531C58.9756 85.2982 52.4379 87.3297 45.7297 87.3297V87.3249Z" fill="#F3F3F3"/>
<path opacity="0.13" d="M45.4031 86.9752C25.6905 86.9752 9.65637 69.549 9.65637 48.1308C9.65637 26.7126 25.6905 9.28638 45.4031 9.28638C51.9786 9.28638 58.4122 11.2468 64.0078 14.9546C67.1986 17.0714 69.4188 20.3672 70.2568 24.2407C71.0947 28.1143 70.4461 32.0968 68.4389 35.4589C65.8352 39.8107 61.3662 42.4104 56.4807 42.4104C53.8202 42.4104 51.2212 41.6196 48.9631 40.1232C47.879 39.4082 46.6529 39.0294 45.4078 39.0294C41.2703 39.0294 37.9091 43.1113 37.9091 48.1308C37.9091 53.1503 41.275 57.2322 45.4078 57.2322C46.6765 57.2322 47.9263 56.8391 49.0246 56.0957C51.3111 54.5472 53.9527 53.728 56.6653 53.728C61.4893 53.728 65.9346 56.2757 68.543 60.547C70.5881 63.8854 71.2698 67.8632 70.4745 71.7462C69.6745 75.6292 67.4873 78.9487 64.3203 81.0986C58.6536 84.939 52.1112 86.9704 45.4078 86.9704L45.4031 86.9752Z" fill="#EFEFEF"/>
<path opacity="0.16" d="M45.0812 86.6287C25.3782 86.6287 9.34399 69.2072 9.34399 47.7985C9.34399 26.3898 25.3734 8.96826 45.0812 8.96826C51.6568 8.96826 58.0856 10.9287 63.6813 14.6365C66.872 16.7485 69.0875 20.0443 69.9254 23.9179C70.7586 27.7867 70.1148 31.7692 68.1076 35.1266C65.5086 39.4737 61.0397 42.0686 56.1589 42.0686C53.4983 42.0686 50.9041 41.2778 48.646 39.7815C47.5619 39.0617 46.331 38.6828 45.086 38.6828C40.9437 38.6828 37.573 42.7695 37.573 47.7985C37.573 52.8275 40.9437 56.9141 45.086 56.9141C46.3547 56.9141 47.6092 56.521 48.7075 55.7729C50.9893 54.2244 53.6309 53.4052 56.3435 53.4052C61.1675 53.4052 65.6033 55.9528 68.2117 60.2194C70.2521 63.5578 70.9385 67.5308 70.1385 71.4091C69.3384 75.2874 67.156 78.6069 63.989 80.7568C58.3223 84.5972 51.7846 86.6287 45.086 86.6287H45.0812Z" fill="#EBEBEB"/>
<path opacity="0.19" d="M44.7545 86.2833C25.0562 86.2833 9.03149 68.8665 9.03149 47.4626C9.03149 26.0586 25.0562 8.64185 44.7545 8.64185C51.3301 8.64185 57.7589 10.6023 63.3498 14.3054C66.5358 16.4174 68.7513 19.7084 69.5893 23.5773C70.4225 27.4461 69.7786 31.4238 67.7714 34.7765C65.1724 39.1236 60.7082 41.7138 55.8322 41.7138C53.1764 41.7138 50.5774 40.923 48.324 39.4313C47.2399 38.7116 46.0043 38.3327 44.7545 38.3327C40.6075 38.3327 37.2321 42.4241 37.2321 47.4578C37.2321 52.4915 40.6075 56.5829 44.7545 56.5829C46.028 56.5829 47.2825 56.1899 48.3855 55.4417C50.6673 53.8932 53.3042 53.0787 56.0121 53.0787C60.8313 53.0787 65.2671 55.6264 67.8708 59.8882C69.9112 63.2219 70.5929 67.1949 69.7976 71.0685C69.0023 74.9468 66.8151 78.2615 63.6528 80.4067C57.9862 84.2471 51.4532 86.2786 44.7545 86.2786V86.2833Z" fill="#E6E7E7"/>
<path opacity="0.23" d="M44.4326 85.9333C24.739 85.9333 8.71899 68.526 8.71899 47.1221C8.71899 25.7181 24.739 8.31079 44.4326 8.31079C51.0034 8.31079 57.4322 10.2712 63.0184 13.9743C66.2044 16.0863 68.4152 19.3774 69.2531 23.2415C70.0863 27.1056 69.4425 31.0785 67.44 34.4359C64.841 38.7783 60.3815 41.3685 55.5102 41.3685C52.8544 41.3685 50.2602 40.5777 48.0115 39.0861C46.9227 38.3663 45.6871 37.9875 44.4373 37.9875C40.2855 37.9875 36.9054 42.0883 36.9054 47.1221C36.9054 52.1558 40.2855 56.2566 44.4373 56.2566C45.7107 56.2566 46.97 55.8636 48.073 55.1154C50.3548 53.5669 52.987 52.7524 55.6948 52.7524C60.5093 52.7524 64.9404 55.2953 67.5489 59.5572C69.5892 62.8909 70.2709 66.8592 69.4756 70.7327C68.6803 74.6063 66.4979 77.921 63.3356 80.0661C57.6737 83.9065 51.1407 85.9333 44.442 85.9333H44.4326Z" fill="#E2E3E3"/>
<path opacity="0.26" d="M44.1061 85.5878C24.422 85.5878 8.40198 68.1852 8.40198 46.7907C8.40198 25.3962 24.4172 7.99365 44.1061 7.99365C50.6769 7.99365 57.101 9.94938 62.6872 13.6572C65.8684 15.7644 68.0792 19.0555 68.9171 22.9149C69.7503 26.7742 69.1065 30.7472 67.104 34.0999C64.5098 38.4375 60.0503 41.0278 55.1837 41.0278C52.5327 41.0278 49.9384 40.2416 47.6897 38.75C46.6009 38.0302 45.3653 37.6467 44.1108 37.6467C39.9496 37.6467 36.5695 41.7523 36.5695 46.7955C36.5695 51.8386 39.9543 55.9442 44.1108 55.9442C45.389 55.9442 46.6482 55.5464 47.7513 54.7982C50.0283 53.2545 52.6652 52.4353 55.3683 52.4353C60.1781 52.4353 64.6044 54.9782 67.2129 59.2353C69.2485 62.5643 69.935 66.5278 69.1349 70.4014C68.3396 74.2702 66.1572 77.5849 62.9996 79.7253C57.3377 83.561 50.8095 85.5925 44.1108 85.5925L44.1061 85.5878Z" fill="#DEDFE0"/>
<path opacity="0.29" d="M43.7841 85.2414C24.1047 85.2414 8.09418 67.8436 8.09418 46.4538C8.09418 25.0641 24.1047 7.66626 43.7841 7.66626C50.3502 7.66626 56.7743 9.62198 62.3604 13.3251C65.5417 15.4323 67.7525 18.7187 68.5857 22.578C69.4189 26.4374 68.775 30.4056 66.7725 33.7535C64.1783 38.0864 59.7283 40.6767 54.857 40.6767C52.2059 40.6767 49.6164 39.8906 47.3677 38.3989C46.2789 37.6744 45.0386 37.2956 43.7841 37.2956C39.6181 37.2956 36.2285 41.4059 36.2285 46.4538C36.2285 51.5018 39.6181 55.6121 43.7841 55.6121C45.0623 55.6121 46.3262 55.2143 47.4293 54.4661C49.7063 52.9224 52.3385 52.1079 55.0416 52.1079C59.8514 52.1079 64.273 54.6461 66.8767 58.9032C68.9123 62.2274 69.594 66.191 68.7987 70.0598C68.0034 73.9286 65.8257 77.2339 62.6681 79.379C57.011 83.2147 50.478 85.2461 43.7888 85.2461L43.7841 85.2414Z" fill="#DADBDC"/>
<path opacity="0.32" d="M43.4573 84.8915C23.7827 84.8915 7.77692 67.4984 7.77692 46.1181C7.77692 24.7378 23.7827 7.34473 43.4573 7.34473C50.0234 7.34473 56.4428 9.30045 62.029 13.0035C65.2055 15.1108 67.4163 18.3924 68.2495 22.247C69.0827 26.1016 68.4388 30.0699 66.4411 33.4131C63.8516 37.7459 59.4016 40.3315 54.535 40.3315C51.8839 40.3315 49.2991 39.5454 47.0505 38.0537C45.9569 37.3292 44.7166 36.9456 43.4573 36.9456C39.2867 36.9456 35.8924 41.0607 35.8924 46.1181C35.8924 51.1755 39.2867 55.2906 43.4573 55.2906C44.7403 55.2906 45.9995 54.8928 47.112 54.1398C49.3844 52.5961 52.0165 51.7816 54.7149 51.7816C59.5199 51.7816 63.9368 54.3198 66.5405 58.5722C68.5761 61.8964 69.2578 65.8552 68.4625 69.7193C67.6672 73.5834 65.4895 76.8887 62.3367 79.0291C56.6795 82.8647 50.1513 84.8915 43.4621 84.8915H43.4573Z" fill="#D6D7D8"/>
<path opacity="0.35" d="M43.1309 84.5459C23.4609 84.5459 7.4599 67.1575 7.4599 45.782C7.4599 24.4064 23.4609 7.01807 43.1309 7.01807C49.6922 7.01807 56.1116 8.97378 61.693 12.6721C64.8695 14.7746 67.0756 18.0563 67.9088 21.9109C68.742 25.7607 68.0982 29.7243 66.1004 33.0674C63.5109 37.3956 59.0656 39.9811 54.2038 39.9811C51.5574 39.9811 48.9727 39.1951 46.7287 37.7081C45.6352 36.9836 44.3901 36.6 43.1309 36.6C38.9554 36.6 35.5564 40.7198 35.5564 45.782C35.5564 50.8441 38.9554 54.9639 43.1309 54.9639C44.4138 54.9639 45.6778 54.5661 46.7903 53.8132C49.0626 52.2742 51.69 51.455 54.3884 51.455C59.1887 51.455 63.6056 53.9931 66.2045 58.236C68.2354 61.5555 68.9171 65.5143 68.1218 69.3737C67.3265 73.233 65.1536 76.5383 62.0007 78.6787C56.3435 82.5144 49.8201 84.5411 43.1309 84.5411V84.5459Z" fill="#D2D3D4"/>
<path opacity="0.39" d="M42.8089 84.1952C23.1484 84.1952 7.1521 66.8116 7.1521 45.4455C7.1521 24.0794 23.1484 6.6958 42.8089 6.6958C49.3702 6.6958 55.7848 8.65152 61.3663 12.3499C64.5381 14.4524 66.7441 17.7293 67.5773 21.5791C68.4105 25.429 67.7667 29.3878 65.7689 32.731C63.1841 37.0544 58.7389 39.6399 53.8818 39.6399C51.2354 39.6399 48.6554 38.8538 46.4115 37.3669C45.3179 36.6424 44.0681 36.2589 42.8089 36.2589C38.624 36.2589 35.2202 40.3834 35.2202 45.455C35.2202 50.5266 38.624 54.6511 42.8089 54.6511C44.0965 54.6511 45.3605 54.2533 46.473 53.5004C48.7453 51.9614 51.368 51.1469 54.0664 51.1469C58.862 51.1469 63.2741 53.6803 65.8731 57.9233C67.904 61.2428 68.5857 65.1968 67.7904 69.0561C66.995 72.9155 64.8221 76.216 61.674 78.3517C56.0215 82.1826 49.498 84.2094 42.8089 84.2094V84.1952Z" fill="#CECFD0"/>
<path opacity="0.42" d="M42.4822 83.8496C22.8265 83.8496 6.8349 66.4707 6.8349 45.1094C6.8349 23.748 22.8265 6.36914 42.4822 6.36914C49.0388 6.36914 55.4582 8.32486 61.0349 12.0232C64.2067 14.1257 66.408 17.3979 67.2412 21.2477C68.0696 25.0929 67.4305 29.0516 65.4328 32.3901C62.848 36.7135 58.4075 39.2896 53.5551 39.2896C50.9135 39.2896 48.3287 38.5035 46.0895 37.0166C44.9912 36.2873 43.7462 35.9038 42.4822 35.9038C38.2926 35.9038 34.8841 40.033 34.8841 45.1094C34.8841 50.1857 38.2926 54.315 42.4822 54.315C43.7698 54.315 45.0386 53.9172 46.1511 53.1595C48.4187 51.6205 51.0461 50.806 53.7397 50.806C58.5306 50.806 62.9427 53.3395 65.5369 57.5776C67.5678 60.8924 68.2448 64.8417 67.4542 68.7011C66.6589 72.5557 64.4907 75.8563 61.3426 77.9919C55.6901 81.8229 49.1714 83.8496 42.4869 83.8496H42.4822Z" fill="#CACBCC"/>
<path opacity="0.45" d="M42.1603 83.504C22.5094 83.504 6.52252 66.1298 6.52252 44.7732C6.52252 23.4166 22.5094 6.04248 42.1603 6.04248C48.717 6.04248 55.1316 7.99819 60.7083 11.6918C63.8754 13.7896 66.0767 17.0617 66.9099 20.9069C67.7383 24.752 67.0992 28.7013 65.1062 32.0398C62.5214 36.3584 58.0856 38.9345 53.238 38.9345C50.5964 38.9345 48.0163 38.1484 45.7771 36.6663C44.6788 35.937 43.4291 35.5534 42.1651 35.5534C37.9707 35.5534 34.5575 39.6874 34.5575 44.7685C34.5575 49.8496 37.9707 53.9836 42.1651 53.9836C43.4527 53.9836 44.7262 53.5858 45.8434 52.8281C48.111 51.2891 50.7337 50.4794 53.4273 50.4794C58.2182 50.4794 62.6208 53.0081 65.2151 57.2463C67.2413 60.561 67.923 64.5056 67.1276 68.3602C66.3371 72.2101 64.1641 75.5106 61.0207 77.6416C55.3683 81.4725 48.8495 83.4992 42.1698 83.4992L42.1603 83.504Z" fill="#C6C7C8"/>
<path opacity="0.48" d="M41.8337 83.1533C22.1874 83.1533 6.20532 65.7839 6.20532 44.4368C6.20532 23.0896 22.1874 5.72021 41.8337 5.72021C48.3903 5.72021 54.8002 7.67119 60.3769 11.3695C63.544 13.4673 65.7406 16.7347 66.5737 20.5799C67.4022 24.4203 66.7631 28.3696 64.7701 31.7033C62.19 36.0173 57.759 38.5933 52.9113 38.5933C50.2745 38.5933 47.6944 37.8072 45.4552 36.325C44.3522 35.5958 43.1024 35.2122 41.8337 35.2122C37.6346 35.2122 34.2166 39.3509 34.2166 44.4415C34.2166 49.532 37.6346 53.6708 41.8337 53.6708C43.1261 53.6708 44.3995 53.2683 45.5168 52.5106C47.7844 50.9763 50.4023 50.1618 53.0912 50.1618C57.8773 50.1618 62.28 52.6905 64.8695 56.924C66.8957 60.234 67.5726 64.1786 66.782 68.0285C65.9915 71.8783 63.8233 75.1694 60.6799 77.3051C55.0322 81.136 48.5134 83.158 41.8337 83.158V83.1533Z" fill="#C2C3C4"/>
<path opacity="0.52" d="M41.5117 82.8077C21.8749 82.8077 5.89752 65.443 5.89752 44.1006C5.89752 22.7582 21.8749 5.39355 41.5117 5.39355C48.0636 5.39355 54.4735 7.34453 60.0454 11.0429C63.2078 13.1406 65.4043 16.4081 66.2328 20.2437C67.0613 24.0794 66.4222 28.0287 64.4291 31.3577C61.8491 35.6669 57.4228 38.243 52.5798 38.243C49.943 38.243 47.3677 37.4616 45.1332 35.9794C44.0302 35.2502 42.7757 34.8619 41.5069 34.8619C37.2984 34.8619 33.8757 39.0054 33.8757 44.1006C33.8757 49.1959 37.2984 53.3394 41.5069 53.3394C42.7993 53.3394 44.0775 52.9369 45.1948 52.1792C47.4576 50.6449 50.0755 49.8304 52.7645 49.8304C57.5458 49.8304 61.9438 52.3544 64.5333 56.5879C66.5595 59.8979 67.2364 63.8377 66.4458 67.6829C65.6552 71.528 63.4871 74.8191 60.3484 76.95C54.7007 80.7762 48.1867 82.803 41.5069 82.803L41.5117 82.8077Z" fill="#BDBEC0"/>
<path opacity="0.55" d="M41.1852 82.457C21.5531 82.457 5.58051 65.0971 5.58051 43.7642C5.58051 22.4312 21.5531 5.07129 41.1852 5.07129C47.7371 5.07129 54.1422 7.02226 59.7142 10.7159C62.8765 12.8089 65.0731 16.0763 65.8969 19.912C66.7253 23.7477 66.0862 27.6922 64.0979 31.0165C61.5226 35.3257 57.0963 37.897 52.2581 37.897C49.6212 37.897 47.0507 37.1157 44.8162 35.6335C43.7132 34.8995 42.4539 34.516 41.1852 34.516C36.9719 34.516 33.5445 38.6641 33.5445 43.7689C33.5445 48.8736 36.9719 53.0218 41.1852 53.0218C42.4823 53.0218 43.7605 52.6193 44.8777 51.8617C47.1406 50.3274 49.7538 49.5177 52.4427 49.5177C57.2194 49.5177 61.6173 52.0416 64.2021 56.2703C66.2235 59.5756 66.9052 63.5155 66.1099 67.3559C65.3193 71.201 63.1558 74.4874 60.0172 76.6183C54.3695 80.4445 47.8602 82.4665 41.1852 82.4665V82.457Z" fill="#B9BABC"/>
<path opacity="0.58" d="M40.8632 82.1114C21.2359 82.1114 5.26801 64.7562 5.26801 43.428C5.26801 22.0998 21.2359 4.74463 40.8632 4.74463C47.4104 4.74463 53.8155 6.6956 59.3875 10.3892C62.5451 12.4822 64.7417 15.7449 65.5654 19.5759C66.3939 23.4068 65.7548 27.3466 63.7665 30.6756C61.1912 34.9801 56.7696 37.5514 51.9361 37.5514C49.304 37.5514 46.7334 36.7701 44.499 35.2879C43.3912 34.5539 42.1367 34.1656 40.8632 34.1656C36.6452 34.1656 33.213 38.3185 33.213 43.428C33.213 48.5375 36.6452 52.6904 40.8632 52.6904C42.1603 52.6904 43.4385 52.2879 44.5652 51.5255C46.8234 49.9913 49.4413 49.1815 52.1255 49.1815C56.8974 49.1815 61.2906 51.7055 63.8754 55.9295C65.8968 59.2348 66.5738 63.1699 65.7832 67.0103C64.9926 70.8507 62.8291 74.137 59.6952 76.2632C54.0522 80.0894 47.5429 82.1114 40.868 82.1114H40.8632Z" fill="#B5B6B8"/>
<path opacity="0.61" d="M40.5365 81.7658C20.9139 81.7658 4.95544 64.4201 4.95544 43.0919C4.95544 21.7637 20.9186 4.41797 40.5365 4.41797C47.0836 4.41797 53.4888 6.36895 59.056 10.0578C62.2136 12.1461 64.4055 15.4088 65.2292 19.2397C66.0576 23.0659 65.4185 27.0058 63.4302 30.33C60.8597 34.6298 56.4381 37.2011 51.6094 37.2011C48.9772 37.2011 46.4114 36.4197 44.1769 34.9423C43.0692 34.2083 41.8099 33.82 40.5317 33.82C36.3042 33.82 32.8673 37.9824 32.8673 43.0919C32.8673 48.2014 36.3042 52.3638 40.5317 52.3638C41.8336 52.3638 43.1118 51.9613 44.2385 51.1989C46.4966 49.6694 49.1098 48.8596 51.7893 48.8596C56.5612 48.8596 60.9496 51.3788 63.5297 55.6028C65.5511 58.9034 66.2281 62.8337 65.4375 66.6741C64.6469 70.5098 62.4882 73.7962 59.3542 75.9223C53.7113 79.7485 47.202 81.7706 40.5317 81.7706L40.5365 81.7658Z" fill="#B1B2B4"/>
<path opacity="0.65" d="M40.2098 81.4151C20.5967 81.4151 4.63824 64.0741 4.63824 42.7554C4.63824 21.4367 20.5967 4.0957 40.2098 4.0957C46.7522 4.0957 53.1574 6.04669 58.7199 9.73555C61.8727 11.8239 64.0646 15.0818 64.8883 18.908C65.712 22.7342 65.0777 26.6693 63.0941 29.9888C60.5235 34.2885 56.1067 36.8504 51.2827 36.8504C48.6553 36.8504 46.0847 36.0691 43.8597 34.5916C42.752 33.8576 41.488 33.4693 40.2098 33.4693C35.9776 33.4693 32.5359 37.6365 32.5359 42.7554C32.5359 47.8744 35.9776 52.0415 40.2098 52.0415C41.5116 52.0415 42.7946 51.639 43.9213 50.8766C46.1794 49.3471 48.7879 48.5373 51.4673 48.5373C56.2345 48.5373 60.6182 51.0566 63.1983 55.271C65.215 58.5716 65.8919 62.4972 65.1013 66.3329C64.3108 70.1686 62.152 73.4502 59.0228 75.5717C53.3846 79.3931 46.8753 81.4151 40.2051 81.4151H40.2098Z" fill="#ADAEB0"/>
<path opacity="0.68" d="M39.888 81.0696C20.2796 81.0696 4.32593 63.7333 4.32593 42.4193C4.32593 21.1053 20.2796 3.76904 39.888 3.76904C46.4304 3.76904 52.8309 5.72003 58.3933 9.40889C61.5415 11.4972 63.7333 14.7504 64.5571 18.5766C65.3808 22.3981 64.7464 26.3332 62.7629 29.6479C60.1923 33.9429 55.7802 36.5048 50.9609 36.5048C48.3335 36.5048 45.7677 35.7235 43.5427 34.246C42.4302 33.512 41.1662 33.119 39.888 33.119C35.651 33.119 32.2047 37.2909 32.2047 42.4146C32.2047 47.5383 35.651 51.7101 39.888 51.7101C41.1899 51.7101 42.4775 51.3076 43.6042 50.5405C45.8576 49.011 48.4661 48.2012 51.1455 48.2012C55.908 48.2012 60.2917 50.7157 62.867 54.9302C64.8837 58.226 65.5607 62.1517 64.7701 65.9826C63.9842 69.8135 61.8255 73.0904 58.6963 75.2166C53.0581 79.0381 46.5535 81.0601 39.888 81.0601V81.0696Z" fill="#A9AAAC"/>
<path opacity="0.71" d="M39.5613 80.7196C19.9577 80.7196 4.01343 63.3881 4.01343 42.0836C4.01343 20.779 19.9624 3.44751 39.5613 3.44751C46.1037 3.44751 52.4994 5.39849 58.0619 9.08262C61.21 11.1662 63.3972 14.4194 64.2209 18.2409C65.0446 22.0623 64.4103 25.988 62.4267 29.3027C59.8608 33.593 55.4535 36.1548 50.6342 36.1548C48.0116 36.1548 45.4457 35.3735 43.2207 33.9008C42.1082 33.1621 40.8395 32.7738 39.5613 32.7738C35.3196 32.7738 31.8638 36.9504 31.8638 42.0836C31.8638 47.2167 35.3149 51.3933 39.5613 51.3933C40.8679 51.3933 42.1555 50.9861 43.287 50.2237C45.5404 48.6942 48.1441 47.8891 50.8236 47.8891C55.5813 47.8891 59.9603 50.4036 62.5403 54.6134C64.557 57.9045 65.2292 61.8301 64.4434 65.6563C63.6575 69.4825 61.4988 72.7594 58.3744 74.8809C52.7361 78.7023 46.2363 80.7196 39.5708 80.7196H39.5613Z" fill="#A5A6A8"/>
<path opacity="0.74" d="M39.2395 80.374C19.6453 80.374 3.70105 63.0472 3.70105 41.7474C3.70105 20.4476 19.6453 3.12085 39.2395 3.12085C45.7772 3.12085 52.1728 5.06709 57.7353 8.75596C60.8787 10.8395 63.0659 14.088 63.8896 17.9095C64.7133 21.7262 64.0789 25.6518 62.0954 28.9619C59.5295 33.2474 55.1269 35.8092 50.3124 35.8092C47.6897 35.8092 45.1286 35.0279 42.9036 33.5552C41.7864 32.8165 40.5224 32.4282 39.2347 32.4282C34.9836 32.4282 31.5277 36.6095 31.5277 41.7474C31.5277 46.8853 34.9836 51.0667 39.2347 51.0667C40.5413 51.0667 41.8337 50.6594 42.9651 49.8923C45.2185 48.3675 47.8223 47.5577 50.4923 47.5577C55.25 47.5577 59.6242 50.0722 62.1995 54.2773C64.2115 57.5684 64.8885 61.4893 64.1026 65.3107C63.3168 69.1369 61.1628 72.4091 58.0383 74.5305C52.4048 78.352 45.905 80.3693 39.2395 80.3693V80.374Z" fill="#A1A2A4"/>
<path opacity="0.77" d="M38.9128 80.0285C19.3233 80.0285 3.38385 62.7064 3.38385 41.4161C3.38385 20.1258 19.3233 2.80371 38.9128 2.80371C45.4505 2.80371 51.8414 4.74995 57.3992 8.43882C60.5426 10.5224 62.725 13.7709 63.5487 17.5829C64.3724 21.3948 63.7381 25.3205 61.7592 28.6305C59.1981 32.916 54.7955 35.4732 49.9857 35.4732C47.363 35.4732 44.8067 34.6966 42.5864 33.2191C41.4692 32.4804 40.2004 32.0874 38.9128 32.0874C34.6569 32.0874 31.1963 36.2734 31.1963 41.4208C31.1963 46.5682 34.6569 50.7543 38.9128 50.7543C40.2241 50.7543 41.5165 50.347 42.6479 49.5799C44.8966 48.0551 47.5003 47.2453 50.1703 47.2453C54.9233 47.2453 59.2928 49.7551 61.8681 53.9601C63.8801 57.2465 64.5523 61.1627 63.7665 64.9888C62.9806 68.8103 60.8266 72.0825 57.7069 74.1992C52.0734 78.0159 45.5736 80.0379 38.9128 80.0379V80.0285Z" fill="#9D9EA1"/>
<path opacity="0.81" d="M38.5908 79.6777C19.0061 79.6777 3.07135 62.3604 3.07135 41.0748C3.07135 19.7893 19.0061 2.47192 38.5908 2.47192C45.1238 2.47192 51.5147 4.41818 57.0725 8.10231C60.2112 10.1811 62.3936 13.4296 63.2173 17.2369C64.041 21.0489 63.4066 24.965 61.4278 28.2751C58.8667 32.5559 54.4688 35.113 49.6637 35.113C47.0458 35.113 44.4894 34.3364 42.2692 32.8637C41.1519 32.1249 39.8785 31.7319 38.5908 31.7319C34.3302 31.7319 30.8649 35.9227 30.8649 41.0748C30.8649 46.2269 34.3302 50.4177 38.5908 50.4177C39.9021 50.4177 41.1993 50.0105 42.3307 49.2434C44.5794 47.7186 47.1784 46.9136 49.8484 46.9136C54.5966 46.9136 58.9661 49.4233 61.5367 53.6236C63.5487 56.91 64.2209 60.8214 63.435 64.6429C62.6492 68.4643 60.4999 71.7318 57.3802 73.8485C51.7467 77.6652 45.2516 79.6824 38.5956 79.6824L38.5908 79.6777Z" fill="#999A9D"/>
<path opacity="0.84" d="M38.2641 79.3321C18.6841 79.3321 2.75885 62.0195 2.75885 40.7387C2.75885 19.4578 18.6889 2.14526 38.2641 2.14526C44.7971 2.14526 51.188 4.0915 56.7411 7.77563C59.8797 9.85447 62.0621 13.0982 62.8811 16.9055C63.7048 20.7127 63.0705 24.6289 61.0916 27.9342C58.5353 32.2103 54.1373 34.7674 49.337 34.7674C46.7191 34.7674 44.1675 33.9908 41.9472 32.518C40.8252 31.7746 39.5518 31.3815 38.2641 31.3815C33.9988 31.3815 30.524 35.5771 30.524 40.7339C30.524 45.8908 33.994 50.0863 38.2641 50.0863C39.5802 50.0863 40.8726 49.6791 42.0135 48.9072C44.2621 47.3824 46.8564 46.5774 49.5264 46.5774C54.2699 46.5774 58.6347 49.0824 61.2053 53.2827C63.2125 56.5643 63.8895 60.4758 63.1036 64.2925C62.3177 68.1092 60.1685 71.3767 57.0535 73.4886C51.4247 77.3054 44.9296 79.3227 38.2736 79.3227L38.2641 79.3321Z" fill="#949699"/>
<path opacity="0.87" d="M37.9423 78.9866C18.3718 78.9866 2.44647 61.6787 2.44647 40.4073C2.44647 19.136 18.3718 1.82812 37.9423 1.82812C44.4705 1.82812 50.8615 3.77438 56.4145 7.45851C59.5484 9.53735 61.7308 12.7763 62.5498 16.5789C63.3735 20.3814 62.7344 24.2975 60.7651 27.5981C58.2087 31.8742 53.8155 34.4266 49.0199 34.4266C46.4067 34.4266 43.8503 33.6499 41.6348 32.182C40.5129 31.4385 39.2347 31.0455 37.947 31.0455C33.6722 31.0455 30.1974 35.2458 30.1974 40.4121C30.1974 45.5784 33.6722 49.7787 37.947 49.7787C39.2631 49.7787 40.5602 49.3714 41.7011 48.5996C43.945 47.0795 46.5393 46.2745 49.2045 46.2745C53.9433 46.2745 58.3081 48.7795 60.8739 52.9751C62.8812 56.2567 63.5534 60.1634 62.7676 63.9754C61.9817 67.7874 59.8372 71.0501 56.7222 73.162C51.0934 76.9788 44.6031 78.996 37.947 78.996L37.9423 78.9866Z" fill="#909295"/>
<path opacity="0.9" d="M37.6156 78.6358C18.0498 78.6358 2.12927 61.3327 2.12927 40.0661C2.12927 18.7995 18.0498 1.49634 37.6156 1.49634C44.1438 1.49634 50.53 3.44259 56.0831 7.12198C59.217 9.19608 61.3947 12.4351 62.2137 16.2376C63.0326 20.0401 62.3983 23.9516 60.4289 27.2474C57.8725 31.5187 53.4841 34.0664 48.6885 34.0664C46.0753 34.0664 43.5237 33.2898 41.3082 31.8218C40.1862 31.0783 38.908 30.6853 37.6109 30.6853C33.3313 30.6853 29.8518 34.8903 29.8518 40.0614C29.8518 45.2324 33.3313 49.4374 37.6109 49.4374C38.9317 49.4374 40.2288 49.0302 41.3697 48.2536C43.6136 46.7335 46.2079 45.9285 48.8684 45.9285C53.6072 45.9285 57.9625 48.4288 60.5283 52.6244C62.5356 55.9012 63.2078 59.8079 62.4219 63.6152C61.6361 67.4272 59.4916 70.6851 56.3813 72.7971C50.7573 76.6091 44.2669 78.6264 37.6109 78.6264L37.6156 78.6358Z" fill="#8C8E91"/>
<path opacity="0.94" d="M37.2938 78.2903C17.7327 78.2903 1.82166 60.9919 1.82166 39.7347C1.82166 18.4776 17.7375 1.1792 37.2938 1.1792C43.822 1.1792 50.2035 3.12545 55.7518 6.80484C58.881 8.87895 61.0586 12.1132 61.8776 15.911C62.6966 19.7088 62.0623 23.6155 60.0929 26.916C57.5412 31.1826 53.1575 33.7303 48.362 33.7303C45.7535 33.7303 43.2019 32.9537 40.9911 31.4857C39.8644 30.7422 38.5862 30.3444 37.289 30.3444C33.0047 30.3444 29.5158 34.5542 29.5158 39.7347C29.5158 44.9152 33 49.125 37.289 49.125C38.6098 49.125 39.9117 48.7178 41.0526 47.9412C43.2918 46.4211 45.8861 45.6161 48.5466 45.6161C53.2806 45.6161 57.6359 48.1164 60.197 52.3025C62.1995 55.5794 62.8718 59.4766 62.0907 63.2838C61.3095 67.0911 59.165 70.349 56.0548 72.4563C50.4307 76.2683 43.9404 78.2856 37.2938 78.2856V78.2903Z" fill="#888A8D"/>
<path opacity="0.97" d="M36.9671 77.9396C17.4108 77.9396 1.50446 60.6459 1.50446 39.3935C1.50446 18.1411 17.4108 0.847412 36.9671 0.847412C43.4906 0.847412 49.8721 2.79365 55.4204 6.46832C58.5496 8.54242 60.7225 11.772 61.5415 15.5697C62.3605 19.3675 61.7261 23.2695 59.7568 26.5653C57.2051 30.8272 52.8261 33.3748 48.0353 33.3748C45.4268 33.3748 42.8799 32.5982 40.6691 31.135C39.5424 30.3868 38.2595 29.9937 36.9624 29.9937C32.6733 29.9937 29.1796 34.2082 29.1796 39.3935C29.1796 44.5788 32.6686 48.7932 36.9624 48.7932C38.2832 48.7932 39.5898 48.3813 40.7354 47.6094C42.9746 46.0893 45.5641 45.2891 48.2246 45.2891C52.9539 45.2891 57.3045 47.7893 59.8656 51.9707C61.8681 55.2428 62.5404 59.1401 61.7545 62.9473C60.9734 66.7498 58.8289 70.0078 55.7234 72.115C50.0993 75.927 43.6137 77.9396 36.9671 77.9396Z" fill="#848689"/>
<path d="M36.6404 77.594C17.0936 77.594 1.18719 60.3098 1.18719 39.0574C1.18719 17.8049 17.0888 0.520752 36.6404 0.520752C43.1639 0.520752 49.5406 2.46226 55.0889 6.14166C58.2134 8.21102 60.3863 11.4406 61.2053 15.2336C62.0243 19.0267 61.3899 22.9286 59.4253 26.2197C56.8784 30.4816 52.4994 33.0245 47.7133 33.0245C45.1048 33.0245 42.5627 32.2479 40.3519 30.7846C39.2204 30.0364 37.9375 29.6434 36.6404 29.6434C32.3419 29.6434 28.8482 33.8674 28.8482 39.0574C28.8482 44.2473 32.3466 48.4666 36.6404 48.4666C37.9659 48.4666 39.2725 48.0546 40.4181 47.278C42.6573 45.7627 45.2421 44.9577 47.8979 44.9577C52.6225 44.9577 56.9731 47.4532 59.5294 51.6345C61.5319 54.9067 62.1994 58.7992 61.4183 62.6017C60.6372 66.4042 58.4974 69.6574 55.3919 71.7599C49.7726 75.5719 43.287 77.5845 36.6404 77.5845V77.594Z" fill="#808285"/>
</g>
<path d="M36.6405 77.9493C16.9043 77.9493 0.851196 60.5042 0.851196 39.0623C0.851196 17.6205 16.9043 0.175293 36.6405 0.175293C43.2256 0.175293 49.6686 2.13574 55.2689 5.85302C58.4691 7.97448 60.6941 11.2845 61.5368 15.1675C62.3747 19.0506 61.7262 23.0472 59.7142 26.4188C57.1057 30.7848 52.6179 33.3893 47.7181 33.3893C45.0482 33.3893 42.4397 32.5938 40.1768 31.0974C39.1022 30.3871 37.8808 30.0082 36.6452 30.0082C32.5361 30.0082 29.1891 34.0712 29.1891 39.0623C29.1891 44.0534 32.5361 48.1164 36.6452 48.1164C37.9045 48.1164 39.1495 47.7233 40.2384 46.9846C42.5296 45.4314 45.1807 44.6075 47.9028 44.6075C52.7457 44.6075 57.2004 47.1646 59.8183 51.4501C61.8682 54.798 62.5546 58.79 61.7546 62.6824C60.9545 66.5749 58.7627 69.9086 55.5814 72.068C49.9053 75.9131 43.3581 77.9493 36.6452 77.9493H36.6405Z" fill="url(#paint0_linear_53_38024)"/>
<path d="M36.6405 76.529C17.6523 76.529 2.20044 59.7184 2.20044 39.0626C2.20044 18.4068 17.6523 1.59619 36.6405 1.59619C42.97 1.59619 49.1621 3.48561 54.5494 7.05136C57.4466 8.96919 59.4586 11.9667 60.2208 15.4803C60.9782 18.994 60.3912 22.6118 58.5686 25.6614C56.2063 29.6107 52.1492 31.969 47.7135 31.969C45.2991 31.969 42.9415 31.2492 40.8917 29.8949C39.604 29.0378 38.1318 28.5879 36.6405 28.5879C31.7834 28.5879 27.8352 33.2854 27.8352 39.0626C27.8352 44.8398 31.7834 49.5373 36.6405 49.5373C38.1602 49.5373 39.6561 49.0685 40.9675 48.1782C43.041 46.7718 45.4411 46.0284 47.9028 46.0284C52.2818 46.0284 56.3152 48.3439 58.6822 52.2175C60.538 55.2481 61.1581 58.8565 60.4338 62.3797C59.7095 65.9028 57.7259 68.9192 54.8476 70.8702C49.3893 74.5685 43.0978 76.5243 36.6453 76.5243L36.6405 76.529Z" fill="url(#paint1_linear_53_38024)"/>
<path d="M36.6404 74.3977C35.1823 74.3977 33.7101 74.2935 32.2709 74.0804C31.788 74.0094 31.4472 73.5595 31.5182 73.0765C31.5892 72.5935 32.0389 72.2525 32.5218 72.3236C33.8758 72.5225 35.2581 72.6219 36.6357 72.6219H36.7872C36.7872 72.6219 36.7872 72.6219 36.7919 72.6219C37.2795 72.6219 37.6772 73.0149 37.6772 73.5027C37.6772 73.9952 37.2843 74.3929 36.7967 74.3977H36.631H36.6404ZM41.0383 74.0662C40.6075 74.0662 40.2288 73.7489 40.1626 73.3085C40.0915 72.8255 40.4229 72.3709 40.9105 72.2999C42.2645 72.0963 43.6184 71.7932 44.9345 71.3954C45.4031 71.2534 45.9002 71.5185 46.0422 71.9874C46.1842 72.4562 45.9191 72.9534 45.4505 73.0954C44.0539 73.5169 42.6148 73.8389 41.1756 74.0567C41.133 74.0615 41.0857 74.0662 41.0431 74.0662H41.0383ZM28.247 73.1759C28.1618 73.1759 28.0766 73.1618 27.9961 73.1381C26.6043 72.7261 25.2267 72.2052 23.8964 71.5943C23.4514 71.3907 23.2573 70.8604 23.4609 70.4152C23.6644 69.9701 24.1946 69.7759 24.6396 69.9796C25.8894 70.5573 27.1913 71.045 28.5026 71.4333C28.9713 71.5754 29.2411 72.0679 29.0991 72.5367C28.9855 72.9202 28.6304 73.1712 28.247 73.1712V73.1759ZM49.1667 71.618C48.8306 71.618 48.5134 71.4286 48.3619 71.1018C48.1536 70.6567 48.3477 70.1311 48.7927 69.9227C50.033 69.345 51.2497 68.6726 52.4095 67.9244C52.8214 67.6592 53.3705 67.7776 53.6356 68.1896C53.9007 68.6016 53.7824 69.1509 53.3705 69.416C52.1444 70.2068 50.852 70.9219 49.5359 71.5328C49.4129 71.5896 49.2898 71.6133 49.1619 71.6133L49.1667 71.618ZM20.5352 69.6339C20.3695 69.6339 20.2039 69.5865 20.0571 69.4918C18.8405 68.7105 17.6569 67.8391 16.5444 66.8968C16.1705 66.5795 16.1231 66.0208 16.4403 65.6467C16.7575 65.2726 17.3161 65.2252 17.6901 65.5425C18.7458 66.4375 19.863 67.2614 21.0134 68.0002C21.4252 68.2653 21.5483 68.8147 21.2832 69.2266C21.1128 69.4918 20.8288 69.6339 20.5352 69.6339ZM56.0121 66.7074C55.8322 66.7074 55.6476 66.6506 55.4914 66.5369C55.0937 66.2481 55.0037 65.694 55.2925 65.2963C56.0547 64.245 56.5944 63.0564 56.8926 61.7637C57.0015 61.2854 57.4796 60.987 57.9578 61.1007C58.4359 61.2096 58.7342 61.6879 58.6205 62.1662C58.2655 63.691 57.6311 65.0926 56.7269 66.338C56.5518 66.5795 56.2819 66.7074 56.0074 66.7074H56.0121ZM14.0543 64.155C13.8129 64.155 13.5715 64.0556 13.3963 63.8662C12.4258 62.8007 11.5027 61.6548 10.6648 60.4662C10.3807 60.0637 10.4754 59.5096 10.8778 59.2302C11.2802 58.9461 11.8341 59.0408 12.1134 59.4433C12.9134 60.5751 13.7845 61.6595 14.7076 62.6729C15.039 63.0375 15.0106 63.5963 14.6508 63.9277C14.4804 64.084 14.2674 64.1598 14.0543 64.1598V64.155ZM57.901 58.6241C57.4749 58.6241 57.0962 58.3163 57.0252 57.8806C56.8216 56.6352 56.3861 55.4609 55.7328 54.3954L55.6523 54.2628C55.3872 53.8508 55.5103 53.3015 55.9269 53.0363C56.3387 52.7712 56.8879 52.8943 57.153 53.311L57.2524 53.472C58.0241 54.7316 58.5401 56.1238 58.7815 57.5965C58.862 58.0795 58.5306 58.5389 58.0477 58.6146C58.0004 58.6241 57.9531 58.6241 57.9057 58.6241H57.901ZM9.15462 57.2177C8.83744 57.2177 8.52973 57.0472 8.37351 56.7489C7.68707 55.4751 7.07638 54.1444 6.54617 52.7901C6.36627 52.3355 6.59351 51.8193 7.04798 51.6394C7.50244 51.4595 8.01845 51.6867 8.19835 52.1413C8.70015 53.4294 9.28717 54.6985 9.93574 55.906C10.1677 56.3369 10.0067 56.8767 9.57595 57.1088C9.4434 57.1798 9.29664 57.213 9.15462 57.213V57.2177ZM36.6404 53.4388C35.4001 53.4388 34.174 53.2258 32.9952 52.7996C32.536 52.6338 32.2946 52.1271 32.4603 51.6631C32.626 51.199 33.1325 50.9622 33.5964 51.128C34.8226 51.5684 36.1244 51.7388 37.4073 51.6252C37.8997 51.5778 38.3257 51.9425 38.3683 52.4349C38.411 52.9227 38.0512 53.3536 37.5588 53.3962C37.2559 53.4246 36.9481 53.4341 36.6404 53.4341V53.4388ZM41.5212 52.1508C41.2088 52.1508 40.9058 51.9851 40.7448 51.6962C40.5081 51.27 40.6596 50.7255 41.0904 50.4887C41.3413 50.3466 41.5875 50.1951 41.8289 50.0341C42.8326 49.3522 43.9308 48.8503 45.0859 48.533C45.5593 48.4051 46.047 48.6845 46.1748 49.1581C46.3026 49.6316 46.0233 50.1193 45.5499 50.2472C44.5841 50.5124 43.6657 50.9338 42.8231 51.5068C42.539 51.7009 42.2455 51.8809 41.952 52.0466C41.8147 52.1224 41.668 52.1603 41.5212 52.1603V52.1508ZM53.4605 51.6299C53.29 51.6299 53.1149 51.5826 52.9634 51.4784C51.8793 50.7444 50.6768 50.2661 49.3892 50.0531C48.9063 49.9726 48.5797 49.5132 48.6601 49.0302C48.7406 48.5472 49.1951 48.2157 49.6827 48.301C51.2213 48.5567 52.6604 49.1296 53.9575 50.0057C54.3647 50.2803 54.4688 50.8297 54.199 51.2369C54.0285 51.4926 53.7492 51.6299 53.4605 51.6299ZM29.6767 50.6592C29.4636 50.6592 29.2506 50.5834 29.0849 50.4319C27.9819 49.4374 27.0351 48.2394 26.2729 46.8803C26.0362 46.4542 26.1877 45.9096 26.6137 45.6728C27.0398 45.436 27.5842 45.5876 27.8209 46.0138C28.4884 47.2071 29.3121 48.2488 30.2684 49.1107C30.6329 49.4374 30.6613 50.0009 30.3347 50.3656C30.1595 50.5597 29.9181 50.6592 29.6767 50.6592ZM6.05383 49.3049C5.6609 49.3049 5.30112 49.0397 5.19697 48.6419C4.83245 47.2449 4.54367 45.8054 4.34484 44.3658C4.27856 43.8781 4.61468 43.433 5.10229 43.3619C5.58516 43.2909 6.03489 43.6319 6.1059 44.1196C6.3 45.4881 6.56984 46.8614 6.92016 48.192C7.04324 48.6656 6.7592 49.1533 6.2858 49.2764C6.21005 49.2954 6.13431 49.3049 6.05856 49.3049H6.05383ZM25.5438 43.3667C25.1367 43.3667 24.7722 43.0873 24.6775 42.6706C24.4124 41.4962 24.2799 40.2745 24.2799 39.0527C24.2799 38.7686 24.2846 38.4845 24.2988 38.2051C24.3225 37.7174 24.7438 37.3432 25.2314 37.3622C25.719 37.3859 26.0977 37.8026 26.0741 38.2951C26.0599 38.546 26.0551 38.797 26.0551 39.0527C26.0551 40.1513 26.1735 41.2357 26.4102 42.287C26.5191 42.7653 26.2161 43.2388 25.7379 43.3477C25.6717 43.3619 25.6054 43.3714 25.5438 43.3714V43.3667ZM4.87505 40.8901C4.39692 40.8901 3.99926 40.5065 3.98979 40.0235C3.98032 39.7015 3.97559 39.3747 3.97559 39.048C3.97559 37.921 4.02766 36.7845 4.12234 35.6669C4.16495 35.1792 4.60048 34.8193 5.08335 34.8619C5.57096 34.9045 5.93074 35.3354 5.88814 35.8232C5.79346 36.8839 5.74612 37.9683 5.74612 39.048C5.74612 39.3605 5.74612 39.6683 5.75558 39.9761C5.76979 40.4686 5.38159 40.8758 4.88925 40.8853C4.87979 40.8853 4.87505 40.8853 4.86559 40.8853L4.87505 40.8901ZM25.9794 34.9613C25.8847 34.9613 25.79 34.9471 25.6953 34.914C25.2314 34.7577 24.9805 34.251 25.1415 33.787C25.6338 32.3285 26.325 30.9789 27.2008 29.7761C27.4895 29.3783 28.0434 29.2883 28.4411 29.5772C28.8387 29.8661 28.924 30.4201 28.6399 30.8179C27.873 31.8786 27.2623 33.0672 26.8268 34.3552C26.7037 34.7246 26.3581 34.9566 25.9841 34.9566L25.9794 34.9613ZM5.62303 32.4232C5.56149 32.4232 5.50468 32.4185 5.44314 32.4042C4.965 32.3048 4.65255 31.836 4.75197 31.3577C5.04548 29.9371 5.4242 28.5212 5.87867 27.1479C6.03489 26.6839 6.5367 26.4282 7.00063 26.5845C7.46457 26.7407 7.72021 27.2427 7.56399 27.7067C7.12845 29.0137 6.76867 30.3633 6.48936 31.7176C6.40415 32.1391 6.03489 32.4279 5.62303 32.4279V32.4232ZM47.7133 29.8235C47.4293 29.8235 47.1453 29.814 46.8659 29.7903C46.3783 29.7524 46.0138 29.3263 46.0517 28.8338C46.0896 28.346 46.5156 27.9814 47.008 28.0193C48.3051 28.1234 49.607 27.9435 50.8236 27.5031C51.2828 27.3374 51.7941 27.5742 51.9598 28.0335C52.1255 28.4928 51.8888 29.0042 51.4296 29.17C50.2413 29.6009 48.9915 29.8187 47.7181 29.8187L47.7133 29.8235ZM42.8894 28.5639C42.7426 28.5639 42.5958 28.5259 42.4586 28.4502C42.2171 28.3129 41.9757 28.1661 41.739 28.0098C40.8348 27.4131 39.8596 26.9775 38.8465 26.717C38.3731 26.5939 38.0843 26.1109 38.2074 25.6374C38.3305 25.1638 38.8133 24.875 39.2868 24.9981C40.4987 25.3059 41.6538 25.822 42.7237 26.5324C42.9225 26.6649 43.1213 26.7881 43.3296 26.9017C43.7557 27.1432 43.9119 27.6831 43.6705 28.1092C43.5095 28.3981 43.2065 28.5639 42.8941 28.5639H42.8894ZM30.9407 28.2276C30.6566 28.2276 30.3773 28.0903 30.2069 27.8393C29.9323 27.4321 30.0412 26.8828 30.4436 26.6081C31.7596 25.7179 33.1846 25.1307 34.6805 24.8513C35.1634 24.7613 35.6273 25.0786 35.7173 25.5616C35.8072 26.0446 35.4901 26.5087 35.0072 26.5987C33.7527 26.8307 32.5502 27.3326 31.4425 28.0808C31.291 28.185 31.1158 28.2324 30.9454 28.2324L30.9407 28.2276ZM54.6913 26.9727C54.4593 26.9727 54.2321 26.8828 54.0569 26.7076C53.7161 26.3571 53.7208 25.7936 54.0711 25.4527C54.6534 24.8797 55.1694 24.2262 55.6002 23.5112C55.8417 23.1039 56.0547 22.6777 56.2346 22.2421C56.4192 21.7875 56.94 21.5744 57.3944 21.7591C57.8489 21.9438 58.0619 22.4647 57.8773 22.9193C57.6643 23.4354 57.4086 23.9421 57.1246 24.4204C56.6181 25.268 56.0074 26.0446 55.3162 26.7218C55.1458 26.8923 54.9185 26.9727 54.696 26.9727H54.6913ZM8.29776 24.3635C8.16994 24.3635 8.04212 24.3351 7.91904 24.2783C7.47404 24.07 7.28468 23.5396 7.49297 23.0992C8.11313 21.7828 8.81377 20.4947 9.58068 19.2683C9.84106 18.8516 10.3902 18.7284 10.8021 18.9889C11.2187 19.2493 11.3417 19.7986 11.0814 20.2106C10.3523 21.3755 9.68483 22.5973 9.09308 23.8521C8.94159 24.1741 8.62441 24.3635 8.28829 24.3635H8.29776ZM57.8584 19.3109C57.3708 19.3109 56.9731 18.9178 56.9731 18.4301C56.9636 17.1137 56.7033 15.8304 56.1967 14.6228C56.0074 14.1682 56.2204 13.6521 56.6701 13.4627C57.1199 13.2733 57.6406 13.4864 57.83 13.9362C58.4265 15.3616 58.7342 16.8674 58.7436 18.4206C58.7436 18.9084 58.3507 19.3109 57.8631 19.3156H57.8584V19.3109ZM12.814 17.161C12.6152 17.161 12.4211 17.0947 12.2554 16.9621C11.8767 16.6543 11.8199 16.0908 12.1276 15.712C13.0507 14.5802 14.0496 13.5006 15.0958 12.5061C15.4509 12.1699 16.0142 12.1841 16.3504 12.5393C16.6865 12.8944 16.6723 13.4579 16.3172 13.7942C15.3231 14.7412 14.3763 15.7641 13.5005 16.8343C13.3253 17.0474 13.0697 17.161 12.8093 17.161H12.814ZM54.6298 11.668C54.4073 11.668 54.1848 11.5875 54.0143 11.4217C53.6167 11.0382 53.1811 10.6877 52.7172 10.3847C52.0639 9.94903 51.3822 9.53705 50.6958 9.15822C50.265 8.92145 50.1135 8.38161 50.3502 7.95068C50.5869 7.51976 51.1266 7.36824 51.5574 7.60501C52.2817 8.00752 53.0013 8.44791 53.6972 8.90724C54.2463 9.27187 54.7671 9.68858 55.2452 10.1479C55.6002 10.4889 55.6097 11.0476 55.2689 11.4028C55.0937 11.5827 54.8617 11.6774 54.6298 11.6774V11.668ZM18.973 11.3081C18.6984 11.3081 18.4286 11.1802 18.2534 10.9435C17.9647 10.5457 18.0546 9.99164 18.4475 9.70278C19.631 8.84094 20.8761 8.0596 22.1495 7.37297C22.5803 7.14093 23.12 7.30194 23.352 7.73286C23.584 8.16378 23.423 8.70362 22.9922 8.93565C21.7898 9.5844 20.611 10.3231 19.4938 11.1376C19.3375 11.2513 19.1529 11.3081 18.973 11.3081ZM47.2731 7.46294C47.1689 7.46294 47.06 7.444 46.9559 7.40138C45.673 6.9089 44.3427 6.50166 43.0077 6.1986C42.5296 6.08968 42.2313 5.6114 42.3402 5.13786C42.4491 4.65959 42.9225 4.35652 43.4006 4.47017C44.8161 4.79218 46.2269 5.2231 47.5903 5.74873C48.0495 5.92394 48.2767 6.4401 48.1015 6.8947C47.9642 7.24986 47.6281 7.46294 47.2731 7.46294ZM26.448 7.2972C26.0883 7.2972 25.7474 7.07464 25.6149 6.71475C25.4444 6.25542 25.6811 5.744 26.1403 5.57352C27.5085 5.07157 28.924 4.65959 30.3489 4.36127C30.827 4.26182 31.3004 4.56488 31.3999 5.04789C31.4993 5.52616 31.1963 5.9997 30.7134 6.09915C29.3737 6.38327 28.0387 6.76684 26.751 7.24038C26.6516 7.27826 26.5475 7.2972 26.4433 7.2972H26.448ZM39.0027 5.57826C38.979 5.57826 38.9554 5.57826 38.9317 5.57826C37.5588 5.46935 36.1623 5.45988 34.8036 5.54511C34.3113 5.57826 33.8947 5.20416 33.8615 4.71642C33.8284 4.22867 34.2024 3.80721 34.69 3.77407C36.1292 3.68409 37.6156 3.69357 39.069 3.81196C39.5566 3.84984 39.9211 4.28076 39.8832 4.7685C39.8454 5.23257 39.4572 5.58299 38.998 5.58299L39.0027 5.57826Z" fill="#0095DA"/>
<path d="M36.6405 69.4256C21.3685 69.4256 8.94641 55.8019 8.94641 39.0623C8.94641 22.3227 21.3685 8.69897 36.6405 8.69897C41.6965 8.69897 46.6483 10.2096 50.9562 13.065C53.7919 14.945 54.6441 18.8943 52.8593 21.8823C51.0746 24.8703 47.3252 25.7653 44.4848 23.8854C42.1178 22.3179 39.4052 21.4845 36.6405 21.4845C28.0672 21.4845 21.0892 29.3689 21.0892 39.0623C21.0892 48.7556 28.0672 56.6401 36.6405 56.6401C39.4573 56.6401 42.2172 55.7782 44.6174 54.154C47.4389 52.2409 51.1929 53.098 53.0108 56.0671C54.8287 59.0362 54.0144 62.9902 51.1929 64.9033C46.8282 67.8629 41.7959 69.4256 36.6405 69.4256Z" fill="url(#paint2_linear_53_38024)"/>
<defs>
<linearGradient id="paint0_linear_53_38024" x1="0.851196" y1="39.0576" x2="62.0765" y2="39.0576" gradientUnits="userSpaceOnUse">
<stop stop-color="#F1F2F2"/>
<stop offset="1" stop-color="#D1D3D4"/>
</linearGradient>
<linearGradient id="paint1_linear_53_38024" x1="2.20044" y1="39.0579" x2="60.7273" y2="39.0579" gradientUnits="userSpaceOnUse">
<stop stop-color="#D1D3D4"/>
<stop offset="1" stop-color="#F1F2F2"/>
</linearGradient>
<linearGradient id="paint2_linear_53_38024" x1="8.94641" y1="39.0576" x2="53.9766" y2="39.0576" gradientUnits="userSpaceOnUse">
<stop stop-color="#00AEEE"/>
<stop offset="0.23" stop-color="#009FE2"/>
<stop offset="0.52" stop-color="#0097DC"/>
<stop offset="1" stop-color="#0095DA"/>
</linearGradient>
</defs>
</svg>
