<svg width="75" height="89" viewBox="0 0 75 89" fill="none" xmlns="http://www.w3.org/2000/svg">
<g style="mix-blend-mode:multiply">
<path opacity="0.03" d="M39.9222 58.264C44.7746 58.264 45.4989 52.5816 45.4989 49.1958C45.4989 45.81 44.7746 40.1275 39.9222 40.1275H38.8996V58.264H39.9222ZM24.7449 88.0733C16.9384 88.0733 10.5901 81.387 10.5901 73.1663V25.2205C10.5901 16.9999 16.9384 10.3135 24.7449 10.3135H39.9222C59.559 10.3135 73.8084 26.6648 73.8084 49.191C73.8084 71.7173 59.559 88.0686 39.9222 88.0686H24.7449V88.0733Z" fill="#FBFBFB"/>
<path opacity="0.06" d="M39.6004 57.9422C44.4622 57.9422 45.1865 52.255 45.1865 48.8644C45.1865 45.4739 44.4622 39.7867 39.6004 39.7867H38.5684V57.9469H39.6004V57.9422ZM24.4231 87.7278C16.6214 87.7278 10.2778 81.0461 10.2778 72.835V24.8891C10.2778 16.678 16.6214 9.99634 24.4231 9.99634H39.6004C59.2324 9.99634 73.4771 26.3429 73.4771 48.8644C73.4771 71.3859 59.2324 87.7325 39.6004 87.7325H24.4231V87.7278Z" fill="#F7F7F7"/>
<path opacity="0.1" d="M39.2737 57.6158C44.145 57.6158 44.874 51.9192 44.874 48.5239C44.874 45.1286 44.145 39.4319 39.2737 39.4319H38.2274V57.6158H39.2737ZM24.0963 87.3778C16.3041 87.3778 9.96051 80.7009 9.96051 72.4944V24.5486C9.96051 16.3422 16.2994 9.66528 24.0963 9.66528H39.2737C58.8962 9.66528 73.1409 26.0071 73.1409 48.5191C73.1409 71.0312 58.8962 87.373 39.2737 87.373H24.0963V87.3778Z" fill="#F3F3F3"/>
<path opacity="0.13" d="M38.9517 57.2936C43.8324 57.2936 44.5615 51.5922 44.5615 48.1922C44.5615 44.7922 43.8324 39.0908 38.9517 39.0908H37.896V57.2936H38.9517ZM23.7743 87.0366C15.9868 87.0366 9.65271 80.3644 9.65271 72.1675V24.2216C9.65271 16.02 15.9868 9.35254 23.7743 9.35254H38.9517C58.5695 9.35254 72.8047 25.6896 72.8047 48.1969C72.8047 70.7042 58.5648 87.0413 38.9517 87.0413H23.7743V87.0366Z" fill="#EFEFEF"/>
<path opacity="0.16" d="M38.6252 56.9666C43.5154 56.9666 44.2445 51.2557 44.2445 47.8509C44.2445 44.4462 43.5154 38.7353 38.6252 38.7353H37.56V56.9618H38.6252V56.9666ZM23.4479 86.6859C15.6651 86.6859 9.33569 80.0184 9.33569 71.8262V23.8804C9.33569 15.6882 15.6651 9.02075 23.4479 9.02075H38.6252C58.2383 9.02075 72.4688 25.3531 72.4688 47.8509C72.4688 70.3488 58.2335 86.6811 38.6252 86.6811H23.4479V86.6859Z" fill="#EBEBEB"/>
<path opacity="0.19" d="M38.3032 56.6447C43.2029 56.6447 43.932 50.9291 43.932 47.5196C43.932 44.1101 43.1982 38.3945 38.3032 38.3945H37.2238V56.6447H38.3032ZM23.1259 86.3403C15.3526 86.3403 9.02319 79.6776 9.02319 71.4949V23.549C9.02319 15.3616 15.3479 8.70361 23.1259 8.70361H38.3032C57.9068 8.70361 72.1374 25.0312 72.1374 47.5243C72.1374 70.0174 57.9068 86.345 38.3032 86.345H23.1259V86.3403Z" fill="#E6E7E7"/>
<path opacity="0.23" d="M37.9765 56.3184C42.8857 56.3184 43.6195 50.5933 43.6195 47.1838C43.6195 43.7743 42.8857 38.0492 37.9765 38.0492H36.8877V56.3231H37.9765V56.3184ZM22.7992 85.9903C15.0306 85.9903 8.71069 79.3371 8.71069 71.1544V23.2085C8.71069 15.0258 15.0306 8.37256 22.7992 8.37256H37.9765C57.5754 8.37256 71.8012 24.6954 71.8012 47.1838C71.8012 69.6722 57.5754 85.9951 37.9765 85.9951H22.7992V85.9903Z" fill="#E2E3E3"/>
<path opacity="0.26" d="M37.6547 55.9965C42.5733 55.9965 43.3071 50.2666 43.3071 46.8477C43.3071 43.4287 42.5733 37.6989 37.6547 37.6989H36.5564V55.9965H37.6547ZM22.4773 85.6447C14.7135 85.6447 8.39832 78.9962 8.39832 70.8182V22.8724C8.39832 14.6991 14.7135 8.0459 22.4773 8.0459H37.6547C57.2488 8.0459 71.4651 24.364 71.4651 46.8429C71.4651 69.3218 57.2441 85.64 37.6547 85.64H22.4773V85.6447Z" fill="#DEDFE0"/>
<path opacity="0.29" d="M37.328 55.6695C42.2561 55.6695 42.9899 49.9301 42.9899 46.5112C42.9899 43.0922 42.2561 37.353 37.328 37.353H36.2202V55.6742H37.328V55.6695ZM22.1507 85.2941C14.3916 85.2941 8.08112 78.6503 8.08112 70.4817V22.5359C8.08112 14.3674 14.3916 7.72363 22.1507 7.72363H37.328C56.9127 7.72363 71.129 24.037 71.129 46.5112C71.129 68.9854 56.9127 85.2988 37.328 85.2988H22.1507V85.2941Z" fill="#DADBDC"/>
<path opacity="0.32" d="M37.0013 55.3472C41.9389 55.3472 42.6774 49.6032 42.6774 46.1747C42.6774 42.7463 41.9389 37.0023 37.0013 37.0023H35.8794V55.3424H37.0013V55.3472ZM21.824 84.9528C14.0744 84.9528 7.76392 78.3138 7.76392 70.15V22.2042C7.76392 14.0404 14.0697 7.40137 21.824 7.40137H37.0013C56.5813 7.40137 70.7929 23.7101 70.7929 46.1747C70.7929 68.6394 56.5813 84.9481 37.0013 84.9481H21.824V84.9528Z" fill="#D6D7D8"/>
<path opacity="0.35" d="M36.6795 55.0209C41.6266 55.0209 42.3651 49.2674 42.3651 45.839C42.3651 42.4106 41.6266 36.6571 36.6795 36.6571H35.5481V55.0209H36.6795ZM21.5022 84.6029C13.7573 84.6029 7.4563 77.9686 7.4563 69.8143V21.8685C7.4563 13.7141 13.7573 7.07983 21.5022 7.07983H36.6795C56.2547 7.07983 70.4568 23.3838 70.4568 45.8438C70.4568 68.3037 56.25 84.6077 36.6795 84.6077H21.5022V84.6029Z" fill="#D2D3D4"/>
<path opacity="0.39" d="M36.3528 54.6939C41.3093 54.6939 42.0478 48.9356 42.0478 45.4977C42.0478 42.0598 41.3093 36.3016 36.3528 36.3016H35.2119V54.6891H36.3528V54.6939ZM21.1755 84.2522C13.4353 84.2522 7.13904 77.6226 7.13904 69.473V21.5272C7.13904 13.3776 13.4353 6.74805 21.1755 6.74805H36.3528C55.9185 6.74805 70.1206 23.0472 70.1206 45.4977C70.1206 67.9482 55.9185 84.2474 36.3528 84.2474H21.1755V84.2522Z" fill="#CECFD0"/>
<path opacity="0.42" d="M36.0308 54.3719C40.9968 54.3719 41.7401 48.6042 41.7401 45.1663C41.7401 41.7285 40.9968 35.9608 36.0308 35.9608H34.8757V54.3719H36.0308ZM20.8535 83.9066C13.1181 83.9066 6.82654 77.2818 6.82654 69.1369V21.1911C6.82654 13.0462 13.1181 6.42139 20.8535 6.42139H36.0308C55.5918 6.42139 69.7892 22.7159 69.7892 45.1616C69.7892 67.6074 55.5918 83.9018 36.0308 83.9018H20.8535V83.9066Z" fill="#CACBCC"/>
<path opacity="0.45" d="M35.7041 54.0449C40.6796 54.0449 41.4228 48.2725 41.4228 44.8299C41.4228 41.3872 40.6796 35.6148 35.7041 35.6148H34.5395V54.0497H35.7041V54.0449ZM20.5268 83.5559C12.8008 83.5559 6.51404 76.9358 6.51404 68.8004V20.8546C6.51404 12.7192 12.8008 6.09912 20.5268 6.09912H35.7041C55.2604 6.09912 69.4483 22.3889 69.4483 44.8299C69.4483 67.2709 55.2557 83.5606 35.7041 83.5606H20.5268V83.5559Z" fill="#C6C7C8"/>
<path opacity="0.48" d="M35.3823 53.723C40.3673 53.723 41.1105 47.9411 41.1105 44.4937C41.1105 41.0464 40.3673 35.2645 35.3823 35.2645H34.2083V53.723H35.3823ZM20.205 83.2103C12.4838 83.2103 6.20172 76.5949 6.20172 68.4643V20.5184C6.20172 12.3878 12.4838 5.77246 20.205 5.77246H35.3823C54.9291 5.77246 69.117 22.0574 69.117 44.489C69.117 66.9205 54.9291 83.2055 35.3823 83.2055H20.205V83.2103Z" fill="#C2C3C4"/>
<path opacity="0.52" d="M35.0556 53.3964C40.05 53.3964 40.7932 47.605 40.7932 44.1577C40.7932 40.7103 40.0453 34.9189 35.0556 34.9189H33.8673V53.3964H35.0556ZM19.8783 82.8648C12.1618 82.8648 5.88446 76.2542 5.88446 68.133V20.1871C5.88446 12.0612 12.1618 5.45532 19.8783 5.45532H35.0556C54.5977 5.45532 68.7809 21.7356 68.7809 44.1624C68.7809 66.5892 54.5977 82.8695 35.0556 82.8695H19.8783V82.8648Z" fill="#BDBEC0"/>
<path opacity="0.55" d="M34.7338 53.0745C39.7376 53.0745 40.4856 47.2784 40.4856 43.8215C40.4856 40.3647 39.7376 34.5686 34.7338 34.5686H33.5361V53.0698H34.7338V53.0745ZM19.5564 82.5192C11.8447 82.5192 5.57684 75.9133 5.57684 67.7968V19.851C5.57684 11.7345 11.8494 5.12866 19.5564 5.12866H34.7338C54.2711 5.12866 68.4496 21.4042 68.4496 43.8215C68.4496 66.2389 54.2711 82.5144 34.7338 82.5144H19.5564V82.5192Z" fill="#B9BABC"/>
<path opacity="0.58" d="M34.4071 52.7475C39.4204 52.7475 40.1684 46.9419 40.1684 43.4851C40.1684 40.0282 39.4204 34.2226 34.4071 34.2226H33.1999V52.7475H34.4071ZM19.2298 82.1685C11.5275 82.1685 5.25964 75.5673 5.25964 67.4603V19.5145C5.25964 11.4028 11.5275 4.8064 19.2298 4.8064H34.4071C53.935 4.8064 68.1087 21.0772 68.1087 43.4898C68.1087 65.9024 53.935 82.1732 34.4071 82.1732H19.2298V82.1685Z" fill="#B5B6B8"/>
<path opacity="0.61" d="M34.0851 52.4256C39.1079 52.4256 39.8559 46.6153 39.8559 43.1537C39.8559 39.6921 39.1079 33.8818 34.0851 33.8818H32.8685V52.4303H34.0851V52.4256ZM18.9078 81.8229C11.2103 81.8229 4.94714 75.2312 4.94714 67.1242V19.1784C4.94714 11.0714 11.2103 4.47974 18.9078 4.47974H34.0851C53.6083 4.47974 67.7773 20.7458 67.7773 43.1537C67.7773 65.5616 53.6083 81.8276 34.0851 81.8276H18.9078V81.8229Z" fill="#B1B2B4"/>
<path opacity="0.65" d="M33.7585 52.0985C38.7907 52.0985 39.5435 46.2787 39.5435 42.8124C39.5435 39.3461 38.7907 33.5263 33.7585 33.5263H32.5276V52.0985H33.7585ZM18.5811 81.4721C10.8883 81.4721 4.62994 74.8852 4.62994 66.7829V18.8371C4.62994 10.7396 10.8883 4.14795 18.5811 4.14795H33.7585C53.2769 4.14795 67.4411 20.4093 67.4411 42.8077C67.4411 65.206 53.2769 81.4674 33.7585 81.4674H18.5811V81.4721Z" fill="#ADAEB0"/>
<path opacity="0.68" d="M33.4319 51.7722C38.4736 51.7722 39.2263 45.9477 39.2263 42.4767C39.2263 39.0056 38.4736 33.1811 33.4319 33.1811H32.1916V51.777H33.4319V51.7722ZM18.2546 81.1222C10.5712 81.1222 4.31757 74.54 4.31757 66.4472V18.5014C4.31757 10.4086 10.5712 3.82642 18.2546 3.82642H33.4319C52.9408 3.82642 67.1003 20.0783 67.1003 42.4767C67.1003 64.8751 52.9408 81.1269 33.4319 81.1269H18.2546V81.1222Z" fill="#A9AAAC"/>
<path opacity="0.71" d="M33.1099 51.45C38.1611 51.45 38.9138 45.616 38.9138 42.1402C38.9138 38.6644 38.1611 32.8304 33.1099 32.8304H31.8601V51.4452H33.1099V51.45ZM17.9326 80.781C10.254 80.781 4.00507 74.2035 4.00507 66.1155V18.1697C4.00507 10.0816 10.254 3.50415 17.9326 3.50415H33.1099C52.6141 3.50415 66.7689 19.7513 66.7689 42.1402C66.7689 64.5291 52.6141 80.7762 33.1099 80.7762H17.9326V80.781Z" fill="#A5A6A8"/>
<path opacity="0.74" d="M32.7832 51.1237C37.8439 51.1237 38.6014 45.285 38.6014 41.8045C38.6014 38.3239 37.8439 32.4852 32.7832 32.4852H31.5193V51.1237H32.7832ZM17.6059 80.431C9.93206 80.431 3.68787 73.8583 3.68787 65.7797V17.8339C3.68787 9.75534 9.93206 3.18262 17.6059 3.18262H32.7832C52.2827 3.18262 66.4328 19.425 66.4328 41.8092C66.4328 64.1934 52.2827 80.4358 32.7832 80.4358H17.6059V80.431Z" fill="#A1A2A4"/>
<path opacity="0.77" d="M32.4614 50.801C37.5316 50.801 38.289 44.9529 38.289 41.4676C38.289 37.9824 37.5316 32.1341 32.4614 32.1341H31.188V50.7963H32.4614V50.801ZM17.2841 80.0847C9.61497 80.0847 3.38025 73.5167 3.38025 65.4429V17.497C3.38025 9.4232 9.61971 2.85522 17.2841 2.85522H32.4614C51.9515 2.85522 66.1015 19.0929 66.1015 41.4676C66.1015 63.8423 51.9562 80.08 32.4614 80.08H17.2841V80.0847Z" fill="#9D9EA1"/>
<path opacity="0.81" d="M32.1347 50.4747C37.2143 50.4747 37.9718 44.6218 37.9718 41.1318C37.9718 37.6418 37.2143 31.7889 32.1347 31.7889H30.8518V50.4747H32.1347ZM16.9574 79.7347C9.29771 79.7347 3.06299 73.1715 3.06299 65.1024V17.1565C3.06299 9.08743 9.29771 2.52417 16.9574 2.52417H32.1347C51.62 2.52417 65.7606 18.7571 65.7606 41.1271C65.7606 63.4971 51.62 79.73 32.1347 79.73H16.9574V79.7347Z" fill="#999A9D"/>
<path opacity="0.84" d="M31.8127 50.1529C36.9018 50.1529 37.6593 44.2904 37.6593 40.8005C37.6593 37.3105 36.8971 31.4481 31.8127 31.4481H30.5156V50.1576H31.8127V50.1529ZM16.6354 79.3891C8.98048 79.3891 2.75049 72.8306 2.75049 64.771V16.8252C2.75049 8.76554 8.98048 2.20703 16.6354 2.20703H31.8127C51.2933 2.20703 65.4291 18.4352 65.4291 40.8005C65.4291 63.1657 51.2933 79.3939 31.8127 79.3939H16.6354V79.3891Z" fill="#949699"/>
<path opacity="0.87" d="M31.4862 49.8258C36.5848 49.8258 37.3469 43.9587 37.3469 40.4592C37.3469 36.9598 36.5848 31.0926 31.4862 31.0926H30.1796V49.8258H31.4862ZM16.3089 79.0384C8.65869 79.0384 2.43817 72.4847 2.43817 64.4298V16.4839C2.43817 8.42904 8.66343 1.87524 16.3089 1.87524H31.4862C50.9573 1.87524 65.0931 18.0987 65.0931 40.4545C65.0931 62.8103 50.962 79.0337 31.4862 79.0337H16.3089V79.0384Z" fill="#909295"/>
<path opacity="0.9" d="M31.1642 49.5036C36.2723 49.5036 37.0344 43.627 37.0344 40.1275C37.0344 36.6281 36.2723 30.7514 31.1642 30.7514H29.8482V49.5036H31.1642ZM15.9869 78.6973C8.34146 78.6973 2.12567 72.1482 2.12567 64.1028V16.157C2.12567 8.10681 8.34619 1.5625 15.9869 1.5625H31.1642C50.6306 1.5625 64.757 17.7812 64.757 40.1323C64.757 62.4833 50.6306 78.702 31.1642 78.702H15.9869V78.6973Z" fill="#8C8E91"/>
<path opacity="0.94" d="M30.8376 49.1773C35.9551 49.1773 36.7172 43.2959 36.7172 39.787C36.7172 36.2781 35.9551 30.3967 30.8376 30.3967H29.512V49.1725H30.8376V49.1773ZM15.6603 78.3473C8.02426 78.3473 1.80847 71.8029 1.80847 63.7623V15.8164C1.80847 7.77575 8.02426 1.23145 15.6603 1.23145H30.8376C50.2992 1.23145 64.4208 17.4454 64.4208 39.787C64.4208 62.1285 50.2992 78.3425 30.8376 78.3425H15.6603V78.3473Z" fill="#888A8D"/>
<path opacity="0.97" d="M30.5108 48.8554C35.6378 48.8554 36.4047 42.9646 36.4047 39.4557C36.4047 35.9467 35.6378 30.0559 30.5108 30.0559H29.1711V48.8554H30.5108ZM15.3335 78.0017C7.70226 78.0017 1.49121 71.4621 1.49121 63.4309V15.4851C1.49121 7.44913 7.69753 0.914307 15.3335 0.914307H30.5108C49.963 0.914307 64.0846 17.1235 64.0846 39.4604C64.0846 61.7972 49.9677 78.0064 30.5108 78.0064H15.3335V78.0017Z" fill="#848689"/>
<path d="M28.8398 48.5283H30.189C35.3255 48.5283 36.0924 42.6328 36.0924 39.1191C36.0924 35.6055 35.3255 29.7052 30.189 29.7052H28.8398V48.5283ZM15.0117 77.651C7.38518 77.651 1.18359 71.1209 1.18359 63.0897V15.1438C1.18359 7.11262 7.38518 0.58252 15.0117 0.58252H30.189C49.6364 0.58252 63.7486 16.787 63.7486 39.1191C63.7486 61.4512 49.6317 77.6557 30.189 77.6557H15.0117V77.651Z" fill="#808285"/>
</g>
<path d="M15.0118 78.0066C7.20061 78.0066 0.847534 71.3154 0.847534 63.0901V15.1443C0.847534 6.91889 7.20061 0.227783 15.0118 0.227783H30.1891C49.8306 0.227783 64.0895 16.5838 64.0895 39.1148C64.0895 61.6458 49.8353 78.0018 30.1891 78.0018H15.0118V78.0066ZM30.1891 48.1736C35.032 48.1736 35.7563 42.5006 35.7563 39.1195C35.7563 35.7385 35.032 30.0655 30.1891 30.0655H29.176V48.1783H30.1891V48.1736Z" fill="url(#paint0_linear_53_37982)"/>
<path d="M15.0119 76.5862C7.94396 76.5862 2.19684 70.5297 2.19684 63.0904V15.1445C2.19684 7.70524 7.94869 1.64868 15.0119 1.64868H30.1892C49.0496 1.64868 62.7404 17.4081 62.7404 39.1151C62.7404 60.8221 49.0496 76.5815 30.1892 76.5815H15.0119V76.5862ZM30.1892 49.5945C36.4286 49.5945 37.1056 42.2689 37.1056 39.1198C37.1056 35.9708 36.4334 28.6451 30.1892 28.6451H27.8269V49.5992H30.1892V49.5945Z" fill="url(#paint1_linear_53_37982)"/>
<path d="M30.189 74.4548H27.8883C27.3959 74.4548 27.003 74.0571 27.003 73.5646C27.003 73.0721 27.4007 72.6743 27.8883 72.6743H30.189C30.8281 72.6743 31.4672 72.6554 32.0874 72.6175C32.5892 72.5891 32.9963 72.9585 33.0294 73.451C33.0578 73.9387 32.6838 74.3601 32.1962 74.3933C31.5382 74.4312 30.8612 74.4548 30.189 74.4548ZM23.6276 74.4548H19.3717C18.8794 74.4548 18.4865 74.0571 18.4865 73.5646C18.4865 73.0721 18.8841 72.6743 19.3717 72.6743H23.6276C24.12 72.6743 24.5129 73.0721 24.5129 73.5646C24.5129 74.0571 24.1152 74.4548 23.6276 74.4548ZM15.1158 74.4548H15.0117C13.4495 74.4548 11.9346 74.1234 10.5144 73.4699C10.0694 73.2663 9.87527 72.7359 10.0788 72.2908C10.2824 71.8456 10.8079 71.6515 11.2576 71.8551C12.4411 72.3997 13.7051 72.6791 15.0117 72.6791H15.1158C15.6082 72.6791 16.0011 73.0769 16.0011 73.5693C16.0011 74.0618 15.6034 74.4596 15.1158 74.4596V74.4548ZM36.3575 73.8393C35.9456 73.8393 35.5763 73.5504 35.4864 73.1289C35.387 72.6459 35.6994 72.1771 36.1776 72.0824C37.5315 71.803 38.8618 71.4242 40.1352 70.9554C40.5944 70.7849 41.1057 71.0217 41.2761 71.481C41.4465 71.9403 41.2098 72.4518 40.7506 72.6223C39.392 73.1242 37.9765 73.5267 36.5326 73.8203C36.4711 73.8345 36.4143 73.8393 36.3527 73.8393H36.3575ZM7.50351 71.0217C7.25734 71.0217 7.01117 70.9222 6.83601 70.7234C5.81346 69.5632 5.04182 68.2231 4.55421 66.7456C4.39799 66.2816 4.65362 65.7796 5.11756 65.6233C5.58623 65.4671 6.0833 65.7228 6.23953 66.1868C6.65139 67.437 7.29995 68.564 8.16628 69.5443C8.48819 69.9136 8.45506 70.4724 8.0858 70.7991C7.91538 70.9459 7.70708 71.0217 7.49878 71.0217H7.50351ZM44.3106 70.9033C43.9982 70.9033 43.6999 70.7376 43.5343 70.4487C43.2976 70.0225 43.449 69.478 43.8751 69.2412C45.0681 68.5782 46.2185 67.8111 47.2978 66.9635C47.686 66.6604 48.2399 66.7314 48.5429 67.115C48.8458 67.4986 48.7796 68.0573 48.3914 68.3604C47.241 69.2649 46.0102 70.0841 44.7414 70.7944C44.6041 70.8702 44.4574 70.908 44.3106 70.908V70.9033ZM50.9809 65.6754C50.7631 65.6754 50.5454 65.5949 50.3749 65.4339C50.0199 65.0977 50.0009 64.5342 50.3371 64.179C51.2649 63.1894 52.136 62.1097 52.9313 60.9732C53.2106 60.5707 53.7645 60.4712 54.1669 60.7554C54.5693 61.0348 54.6687 61.5888 54.3847 61.9913C53.542 63.1988 52.6141 64.3448 51.6295 65.396C51.4543 65.5807 51.2176 65.6754 50.9809 65.6754ZM4.85719 63.1562C4.36485 63.1562 3.97192 62.7584 3.97192 62.266V58.0089C3.97192 57.5164 4.36958 57.1233 4.85719 57.1233C5.34479 57.1233 5.74245 57.5211 5.74245 58.0089V62.266C5.74245 62.7584 5.34479 63.1562 4.85719 63.1562ZM55.8522 58.7286C55.7149 58.7286 55.5776 58.6955 55.4451 58.6292C55.0096 58.4019 54.8391 57.8668 55.0616 57.4311C55.6865 56.2236 56.2451 54.9498 56.7327 53.6381C56.9032 53.1787 57.4144 52.942 57.8736 53.1124C58.3328 53.2829 58.5695 53.7944 58.3991 54.2537C57.8878 55.6317 57.2961 56.9765 56.6428 58.2456C56.4866 58.5487 56.1741 58.7286 55.8522 58.7286ZM4.85719 54.642C4.36485 54.642 3.97192 54.2442 3.97192 53.7517V49.4946C3.97192 49.0021 4.36958 48.6043 4.85719 48.6043C5.34479 48.6043 5.74245 49.0021 5.74245 49.4946V53.7517C5.74245 54.2442 5.34479 54.642 4.85719 54.642ZM58.8157 50.7684C58.7447 50.7684 58.6737 50.7589 58.6027 50.74C58.1246 50.6216 57.8358 50.1386 57.9541 49.6651C58.2808 48.3487 58.5459 46.9707 58.7447 45.5784C58.8157 45.0907 59.2655 44.7545 59.7483 44.8255C60.2359 44.8965 60.572 45.3464 60.501 45.8294C60.2927 47.2832 60.0182 48.718 59.6726 50.096C59.5732 50.4985 59.2086 50.7684 58.811 50.7684H58.8157ZM4.85719 46.123C4.36485 46.123 3.97192 45.7252 3.97192 45.2327V40.9756C3.97192 40.4832 4.36958 40.0854 4.85719 40.0854C5.34479 40.0854 5.74245 40.4832 5.74245 40.9756V45.2327C5.74245 45.7252 5.34479 46.123 4.85719 46.123ZM60.0229 42.3536C60.0229 42.3536 59.9945 42.3536 59.9803 42.3536C59.4927 42.33 59.114 41.9132 59.1376 41.4255C59.1755 40.6678 59.1944 39.8912 59.1944 39.1241C59.1944 38.4943 59.1802 37.8645 59.1566 37.2489C59.1376 36.7611 59.5211 36.3444 60.0087 36.3255C60.0182 36.3255 60.0324 36.3255 60.0418 36.3255C60.5152 36.3255 60.9082 36.6996 60.9271 37.1779C60.9508 37.8219 60.965 38.4706 60.965 39.1241C60.965 39.9197 60.946 40.7247 60.9082 41.5107C60.8845 41.9843 60.4916 42.3584 60.0229 42.3584V42.3536ZM4.85719 37.6088C4.36485 37.6088 3.97192 37.211 3.97192 36.7185V32.4614C3.97192 31.9689 4.36958 31.5712 4.85719 31.5712C5.34479 31.5712 5.74245 31.9689 5.74245 32.4614V36.7185C5.74245 37.211 5.34479 37.6088 4.85719 37.6088ZM59.682 33.8584C59.2418 33.8584 58.8631 33.5316 58.8015 33.0865C58.6169 31.6895 58.366 30.3115 58.0535 28.9904C57.9399 28.5121 58.2382 28.0338 58.7116 27.9202C59.1944 27.8065 59.6679 28.1049 59.7815 28.5784C60.1081 29.9611 60.3685 31.396 60.5626 32.8545C60.6289 33.3422 60.2833 33.7873 59.8004 33.8536C59.7625 33.8584 59.7199 33.8631 59.682 33.8631V33.8584ZM4.85719 29.0946C4.36485 29.0946 3.97192 28.6968 3.97192 28.2043V23.9472C3.97192 23.4547 4.36958 23.0569 4.85719 23.0569C5.34479 23.0569 5.74245 23.4547 5.74245 23.9472V28.2043C5.74245 28.6968 5.34479 29.0946 4.85719 29.0946ZM57.7127 25.5904C57.3482 25.5904 57.0073 25.3631 56.8748 24.9984C56.4061 23.682 55.8617 22.3987 55.251 21.1817C55.0332 20.7413 55.2084 20.2109 55.6487 19.9884C56.0889 19.7658 56.6191 19.9458 56.8416 20.3862C57.4807 21.6647 58.0583 23.019 58.5506 24.397C58.7163 24.8611 58.4749 25.3678 58.0109 25.5335C57.9115 25.5667 57.8121 25.5856 57.7127 25.5856V25.5904ZM4.85719 20.5756C4.36485 20.5756 3.97192 20.1778 3.97192 19.6853V15.4282C3.97192 14.9357 4.36958 14.5379 4.85719 14.5379C5.34479 14.5379 5.74245 14.9357 5.74245 15.4282V19.6853C5.74245 20.1778 5.34479 20.5756 4.85719 20.5756ZM53.9018 18.0043C53.6177 18.0043 53.3384 17.8669 53.168 17.6159C52.3916 16.47 51.53 15.3761 50.6164 14.3722C50.285 14.0076 50.3134 13.4488 50.6732 13.1173C51.0377 12.7859 51.5963 12.8143 51.9277 13.1742C52.8982 14.2396 53.8118 15.3998 54.6356 16.6168C54.9101 17.024 54.806 17.5734 54.3989 17.848C54.2474 17.9522 54.0722 17.9995 53.9018 17.9995V18.0043ZM5.5815 12.1513C5.47261 12.1513 5.36846 12.1324 5.25958 12.0898C4.80038 11.9098 4.57788 11.3984 4.75304 10.9391C5.31639 9.49003 6.14958 8.19253 7.23367 7.08445C7.57452 6.73403 8.13788 6.72931 8.48819 7.07026C8.83851 7.4112 8.84325 7.9747 8.5024 8.32512C7.58873 9.25799 6.88336 10.3566 6.40522 11.5831C6.26793 11.9335 5.93181 12.1513 5.57676 12.1513H5.5815ZM48.1831 11.7393C47.989 11.7393 47.7902 11.6731 47.6245 11.5405C46.5593 10.6739 45.4184 9.89255 44.2396 9.20592C43.8136 8.95968 43.6715 8.41511 43.9177 7.99366C44.1639 7.56748 44.7083 7.42539 45.1296 7.67163C46.3889 8.40088 47.6055 9.23905 48.7417 10.1625C49.1204 10.4703 49.182 11.029 48.8742 11.4126C48.6991 11.6304 48.4435 11.7393 48.1831 11.7393ZM40.8501 7.48697C40.7412 7.48697 40.637 7.46803 40.5281 7.42541C39.2594 6.93766 37.9339 6.53515 36.5894 6.23682C36.1113 6.13264 35.8083 5.65911 35.9125 5.1761C36.0166 4.69783 36.49 4.39476 36.9729 4.49894C38.4073 4.81621 39.8228 5.24239 41.172 5.76328C41.6312 5.93849 41.8584 6.45464 41.6785 6.90924C41.5412 7.25966 41.2051 7.47749 40.8501 7.47749V7.48697ZM11.3807 6.2463C11.0256 6.2463 10.6943 6.03321 10.557 5.68279C10.3771 5.22819 10.5996 4.71204 11.054 4.53209C12.318 4.03014 13.6483 3.77915 15.007 3.77915H15.5466C16.039 3.77915 16.4319 4.17693 16.4319 4.66941C16.4319 5.16189 16.0342 5.55967 15.5466 5.55967H15.007C13.8708 5.55967 12.7583 5.77277 11.7073 6.18948C11.5985 6.2321 11.4896 6.25101 11.3807 6.25101V6.2463ZM32.575 5.6449C32.575 5.6449 32.5324 5.6449 32.5087 5.6449C31.7465 5.58807 30.9654 5.55967 30.189 5.55967H28.3238C27.8315 5.55967 27.4385 5.16189 27.4385 4.66941C27.4385 4.17693 27.8362 3.77915 28.3238 3.77915H30.189C31.0127 3.77915 31.8365 3.8123 32.6412 3.86913C33.1288 3.90701 33.4981 4.3332 33.4602 4.82095C33.4271 5.28501 33.0389 5.64016 32.575 5.64016V5.6449ZM24.0632 5.55493H19.8073C19.3149 5.55493 18.922 5.15715 18.922 4.66467C18.922 4.17219 19.3197 3.77441 19.8073 3.77441H24.0632C24.5555 3.77441 24.9484 4.17219 24.9484 4.66467C24.9484 5.15715 24.5508 5.55493 24.0632 5.55493Z" fill="#F15A29"/>
<path d="M25.1663 28.6403C24.674 28.6403 24.2763 28.2425 24.2763 27.7501V25.6191C24.2763 25.1267 24.674 24.7289 25.1663 24.7289H27.2966C27.789 24.7289 28.1866 25.1267 28.1866 25.6191C28.1866 26.1116 27.789 26.5094 27.2966 26.5094H26.0563V27.7501C26.0563 28.2425 25.6586 28.6403 25.1663 28.6403Z" fill="#F15A29"/>
<path d="M25.1663 46.8241C24.674 46.8241 24.2763 46.4263 24.2763 45.9338V41.3878C24.2763 40.8953 24.674 40.4976 25.1663 40.4976C25.6586 40.4976 26.0563 40.8953 26.0563 41.3878V45.9338C26.0563 46.4263 25.6586 46.8241 25.1663 46.8241ZM25.1663 37.7321C24.674 37.7321 24.2763 37.3343 24.2763 36.8419V32.2959C24.2763 31.8034 24.674 31.4056 25.1663 31.4056C25.6586 31.4056 26.0563 31.8034 26.0563 32.2959V36.8419C26.0563 37.3343 25.6586 37.7321 25.1663 37.7321Z" fill="#F15A29"/>
<path d="M27.2966 53.5007H25.1663C24.674 53.5007 24.2763 53.1029 24.2763 52.6104V50.4795C24.2763 49.987 24.674 49.5892 25.1663 49.5892C25.6586 49.5892 26.0563 49.987 26.0563 50.4795V51.7202H27.2966C27.789 51.7202 28.1866 52.1179 28.1866 52.6057C28.1866 53.0934 27.789 53.4959 27.2966 53.4959V53.5007Z" fill="#F15A29"/>
<path d="M31.1927 53.4533C30.743 53.4533 30.3548 53.1124 30.3122 52.653C30.2649 52.1653 30.6199 51.7296 31.1075 51.6822C32.3289 51.5639 33.4225 51.1945 34.3598 50.5837C34.7669 50.3185 35.3208 50.4321 35.5859 50.8441C35.851 51.2561 35.7374 51.8054 35.3256 52.0706C34.1468 52.8377 32.7834 53.3018 31.278 53.4486C31.2496 53.4486 31.2212 53.4486 31.188 53.4486L31.1927 53.4533ZM37.4937 49.3998C37.3375 49.3998 37.1766 49.3572 37.0345 49.272C36.618 49.0162 36.4854 48.4717 36.7363 48.0502C37.3139 47.1031 37.7873 45.9714 38.1376 44.6834C38.2701 44.2098 38.7625 43.9304 39.2311 44.063C39.7045 44.1956 39.9791 44.6834 39.8513 45.1569C39.4536 46.6012 38.914 47.8845 38.2512 48.9736C38.0855 49.2483 37.792 49.3998 37.4937 49.3998ZM39.6714 41.9652C39.643 41.9652 39.6193 41.9652 39.5909 41.9652C39.1033 41.9226 38.7435 41.4917 38.7861 41.004C38.8572 40.1942 38.8761 39.536 38.8761 39.124C38.8761 38.7215 38.8619 38.068 38.7909 37.2535C38.7483 36.7658 39.1081 36.3349 39.5957 36.2922C40.088 36.2449 40.5141 36.6095 40.5567 37.0973C40.6324 37.978 40.6514 38.6836 40.6514 39.124C40.6514 39.5739 40.6324 40.2889 40.5567 41.1602C40.5141 41.6196 40.1259 41.97 39.6714 41.97V41.9652ZM38.9944 34.2087C38.6062 34.2087 38.2465 33.9482 38.1376 33.5552C37.7825 32.2672 37.3139 31.1354 36.7363 30.1883C36.4807 29.7669 36.6132 29.2223 37.0345 28.9666C37.4559 28.7156 38.0003 28.8435 38.2559 29.2649C38.9187 30.3541 39.4536 31.6374 39.8513 33.0817C39.9839 33.5552 39.7045 34.0429 39.2311 34.1755C39.1507 34.1992 39.0749 34.2087 38.9944 34.2087ZM34.8427 27.8017C34.677 27.8017 34.5066 27.7543 34.3598 27.6549C33.4225 27.044 32.3289 26.6699 31.1123 26.5516C30.6247 26.5042 30.2696 26.0685 30.317 25.5808C30.3643 25.093 30.8093 24.7379 31.2874 24.7852C32.7929 24.932 34.1563 25.4009 35.3303 26.168C35.7422 26.4379 35.8558 26.9872 35.5859 27.3944C35.4155 27.6549 35.1315 27.7969 34.8427 27.7969V27.8017Z" fill="#F15A29"/>
<path d="M30.1892 69.4826H15.0118C11.6601 69.4826 8.94281 66.6224 8.94281 63.0898V15.144C8.94281 11.6114 11.6601 8.75122 15.0118 8.75122H30.1892C45.3807 8.75122 55.9944 21.2384 55.9944 39.1145C55.9944 56.9906 45.3854 69.4779 30.1892 69.4779V69.4826ZM21.0809 56.697H30.1892C40.2727 56.697 43.8516 47.2263 43.8516 39.1193C43.8516 31.0123 40.2727 21.5415 30.1892 21.5415H21.0809V56.7018V56.697Z" fill="url(#paint2_linear_53_37982)"/>
<defs>
<linearGradient id="paint0_linear_53_37982" x1="0.8428" y1="39.1195" x2="64.0895" y2="39.1195" gradientUnits="userSpaceOnUse">
<stop stop-color="#F1F2F2"/>
<stop offset="1" stop-color="#D1D3D4"/>
</linearGradient>
<linearGradient id="paint1_linear_53_37982" x1="2.1921" y1="39.1198" x2="62.7404" y2="39.1198" gradientUnits="userSpaceOnUse">
<stop stop-color="#D1D3D4"/>
<stop offset="1" stop-color="#F1F2F2"/>
</linearGradient>
<linearGradient id="paint2_linear_53_37982" x1="8.93808" y1="39.1193" x2="55.9944" y2="39.1193" gradientUnits="userSpaceOnUse">
<stop stop-color="#F67950"/>
<stop offset="0.13" stop-color="#F46D42"/>
<stop offset="0.34" stop-color="#F26233"/>
<stop offset="0.59" stop-color="#F15C2B"/>
<stop offset="1" stop-color="#F15A29"/>
</linearGradient>
</defs>
</svg>
