<svg width="69" height="89" viewBox="0 0 69 89" fill="none" xmlns="http://www.w3.org/2000/svg">
<g style="mix-blend-mode:multiply">
<path opacity="0.03" d="M24.0219 10.601H54.3765C62.183 10.601 68.5313 17.2873 68.5313 25.508C68.5313 32.289 64.2896 38.0047 58.3768 39.8136C58.2111 39.8657 58.0312 39.9178 57.8608 39.9604C57.8087 39.9746 57.7614 39.9935 57.7046 40.0077C57.7756 40.1024 57.8561 40.2066 57.9271 40.3013C59.8633 42.8963 60.9332 46.1117 60.9332 49.4833C60.9332 52.8549 59.7828 56.3022 57.7093 58.9493C57.8797 58.9919 58.0407 59.0535 58.2111 59.1055C58.3815 59.1576 58.5567 59.2097 58.7224 59.2665C64.4411 61.1891 68.5171 66.8006 68.5218 73.4396C68.5218 73.6385 68.5218 73.8326 68.5124 74.0268C68.2283 81.9822 61.9889 88.3608 54.3671 88.3608H24.0124C16.206 88.3608 9.85767 81.6744 9.85767 73.4538V25.508C9.85767 17.2873 16.206 10.601 24.0124 10.601H24.0219Z" fill="#FBFBFB"/>
<path opacity="0.06" d="M23.6999 10.2787H54.0545C61.8515 10.2787 68.1998 16.9603 68.1998 25.1715C68.1998 31.9526 63.9534 37.6682 58.0359 39.4724C57.8749 39.5197 57.6808 39.5766 57.5198 39.6192C57.4678 39.6334 57.4252 39.657 57.3731 39.6665C57.4441 39.7565 57.5293 39.8654 57.5956 39.9601C59.5365 42.5551 60.6064 45.7704 60.6064 49.142C60.6064 52.5136 59.4561 55.9563 57.3826 58.5986C57.5482 58.6412 57.695 58.7123 57.856 58.7643C58.0169 58.8164 58.2063 58.8685 58.3672 58.9253C64.1002 60.8337 68.1762 66.4451 68.1951 73.0794C68.1951 73.2783 68.1951 73.4725 68.1856 73.6666C67.9111 81.6268 61.6763 88.0101 54.0498 88.0101H23.6952C15.8982 88.0101 9.54987 81.3284 9.54987 73.1173V25.1715C9.54987 16.9603 15.8935 10.2787 23.6952 10.2787H23.6999Z" fill="#F7F7F7"/>
<path opacity="0.1" d="M23.3734 9.95203H53.728C61.5203 9.95203 67.8639 16.6289 67.8639 24.8354C67.8639 31.6164 63.6127 37.3368 57.6857 39.1315C57.5342 39.1788 57.3259 39.2357 57.1697 39.2783C57.1223 39.2925 57.0845 39.3162 57.0324 39.3304C57.0987 39.4156 57.1886 39.534 57.2549 39.624C59.1959 42.219 60.2705 45.439 60.2705 48.8106C60.2705 52.1822 59.1201 55.6201 57.0513 58.2625C57.2123 58.3051 57.3401 58.3903 57.4963 58.4377C57.6526 58.485 57.8561 58.5466 58.0076 58.5987C63.75 60.4976 67.8355 66.0995 67.8591 72.7338C67.8591 72.9327 67.8591 73.1269 67.8497 73.321C67.5846 81.2812 61.3498 87.6693 53.7233 87.6693H23.3687C15.5765 87.6693 9.23285 80.9923 9.23285 72.7859V24.8401C9.23285 16.6337 15.5717 9.95677 23.3687 9.95677L23.3734 9.95203Z" fill="#F3F3F3"/>
<path opacity="0.13" d="M23.0467 9.63049H53.4014C61.1889 9.63049 67.523 16.3026 67.523 24.4996C67.523 31.2807 63.2718 37.0058 57.3306 38.791C57.1839 38.8384 56.9661 38.8952 56.8146 38.9378C56.7673 38.952 56.7341 38.9804 56.6868 38.9946C56.7531 39.0799 56.8478 39.203 56.9093 39.2882C58.855 41.8832 59.9296 45.1033 59.9296 48.4749C59.9296 51.8465 58.784 55.2796 56.7105 57.9172C56.8667 57.9551 56.9756 58.0546 57.1271 58.1019C57.2786 58.1493 57.4916 58.2108 57.6383 58.2582C63.3902 60.1429 67.4851 65.7449 67.5135 72.3697C67.5135 72.5686 67.5135 72.7627 67.5041 72.9568C67.2484 80.9218 61.0137 87.3146 53.3919 87.3146H23.0373C15.2498 87.3146 8.91565 80.6424 8.91565 72.4454V24.4996C8.91565 16.2979 15.2498 9.63049 23.0373 9.63049H23.0467Z" fill="#EFEFEF"/>
<path opacity="0.16" d="M22.7248 9.3031H53.0794C60.8622 9.3031 67.1916 15.9705 67.1916 24.1628C67.1916 30.9438 62.9357 36.6689 56.985 38.4494C56.843 38.492 56.6157 38.5583 56.469 38.5962C56.4216 38.6104 56.398 38.6436 56.3506 38.653C56.4122 38.7335 56.5163 38.8614 56.5731 38.9466C58.5236 41.5416 59.5982 44.7664 59.5982 48.138C59.5982 51.5096 58.4525 54.9381 56.3838 57.5757C56.5353 57.6135 56.6252 57.7272 56.772 57.7698C56.9187 57.8125 57.1412 57.8787 57.2832 57.9261C63.0446 59.7966 67.1442 65.3985 67.1821 72.0186C67.1821 72.2175 67.1821 72.4116 67.1726 72.6058C66.9265 80.5707 60.6917 86.9729 53.0699 86.9729H22.7153C14.9326 86.9729 8.60315 80.3055 8.60315 72.1133V24.1675C8.60315 15.9753 14.9326 9.30784 22.7153 9.30784L22.7248 9.3031Z" fill="#EBEBEB"/>
<path opacity="0.19" d="M22.3982 8.98157H52.7528C60.5261 8.98157 66.8555 15.6442 66.8555 23.827C66.8555 30.6081 62.5949 36.3379 56.6347 38.109C56.4974 38.1516 56.256 38.2179 56.1187 38.2558C56.0761 38.2652 56.0524 38.3078 56.0098 38.3173C56.0714 38.3931 56.1755 38.5304 56.2371 38.6109C58.1875 41.2059 59.2669 44.4307 59.2669 47.8023C59.2669 51.1739 58.1212 54.5928 56.0572 57.2305C56.1992 57.2683 56.2797 57.3914 56.417 57.4341C56.5543 57.4767 56.791 57.543 56.9282 57.5904C62.7038 59.4466 66.8082 65.0438 66.8555 71.6639C66.8555 71.8628 66.8555 72.057 66.8508 72.2511C66.6141 80.2208 60.3841 86.623 52.7576 86.623H22.4029C14.6296 86.623 8.30023 79.9603 8.30023 71.7776V23.8317C8.30023 15.6443 14.6249 8.98631 22.4029 8.98631L22.3982 8.98157Z" fill="#E6E7E7"/>
<path opacity="0.23" d="M22.0762 8.65491H52.4308C60.1994 8.65491 66.5193 15.3081 66.5193 23.4909C66.5193 30.272 62.2587 36.0065 56.2843 37.7681C56.1518 37.8107 55.9009 37.877 55.7683 37.9101C55.7257 37.9196 55.7115 37.9622 55.6689 37.9764C55.7257 38.0522 55.8393 38.1943 55.8961 38.27C57.8513 40.865 58.9307 44.0946 58.9307 47.4662C58.9307 50.8378 57.785 54.252 55.721 56.8849C55.8583 56.918 55.9198 57.0553 56.0524 57.0979C56.1849 57.1406 56.4358 57.2068 56.5636 57.2542C62.3486 59.0963 66.4578 64.6935 66.5146 71.3088C66.5146 71.503 66.5146 71.7019 66.5098 71.896C66.2826 79.8657 60.0526 86.2774 52.4261 86.2774H22.0715C14.3029 86.2774 7.98297 79.6242 7.98297 71.4415V23.4956C7.98297 15.3128 14.3029 8.65965 22.0715 8.65965L22.0762 8.65491Z" fill="#E2E3E3"/>
<path opacity="0.26" d="M21.7495 8.33311H52.1041C59.8679 8.33311 66.1831 14.9816 66.1831 23.1596C66.1831 29.936 61.9178 35.6752 55.934 37.4321C55.8061 37.4699 55.5458 37.541 55.418 37.5741C55.3753 37.5836 55.3659 37.6309 55.3233 37.6404C55.3801 37.7114 55.4937 37.863 55.5505 37.934C57.5104 40.529 58.5898 43.7585 58.5898 47.1301C58.5898 50.5017 57.4441 53.9112 55.3848 56.5441C55.5174 56.5772 55.56 56.7288 55.6925 56.7667C55.8251 56.8046 56.0807 56.8803 56.2038 56.9229C61.9983 58.7555 66.1169 64.348 66.1784 70.9539C66.1784 71.1481 66.1784 71.3469 66.1737 71.5411C65.9559 79.5155 59.7259 85.9272 52.1041 85.9272H21.7495C13.9857 85.9272 7.67047 79.2787 7.67047 71.1007V23.1549C7.67047 14.9816 13.9857 8.32837 21.7495 8.32837V8.33311Z" fill="#DEDFE0"/>
<path opacity="0.29" d="M21.4277 8.00598H51.7823C59.5414 8.00598 65.8519 14.6497 65.8519 22.8183C65.8519 29.5946 61.5818 35.3386 55.5932 37.086C55.4749 37.1239 55.2003 37.1949 55.0772 37.2281C55.0393 37.2375 55.0346 37.2896 54.992 37.2991C55.0441 37.3654 55.1671 37.5217 55.2192 37.5927C57.1791 40.1877 58.2632 43.422 58.2632 46.7935C58.2632 50.1651 57.1223 53.5699 55.0583 56.198C55.1861 56.2312 55.2097 56.3922 55.3376 56.4301C55.4654 56.4679 55.7305 56.5437 55.8488 56.5816C61.6528 58.4 65.7808 63.9878 65.8471 70.5936C65.8471 70.7878 65.8471 70.9867 65.8471 71.1808C65.6388 79.1552 59.4088 85.5764 51.787 85.5764H21.4324C13.6733 85.5764 7.36285 78.9326 7.36285 70.7641V22.8183C7.36285 14.6497 13.6733 8.00598 21.4324 8.00598H21.4277Z" fill="#DADBDC"/>
<path opacity="0.32" d="M21.1009 7.68372H51.4556C59.2052 7.68372 65.5157 14.3227 65.5157 22.4865C65.5157 29.2629 61.2456 35.0117 55.2428 36.7495C55.1292 36.7827 54.8404 36.8632 54.7268 36.8916C54.6889 36.9011 54.6889 36.9579 54.6511 36.9674C54.7031 37.0336 54.8262 37.1946 54.8783 37.2609C56.8429 39.8559 57.927 43.0902 57.927 46.4618C57.927 49.8334 56.7861 53.2334 54.7268 55.8616C54.8499 55.89 54.8546 56.0652 54.9777 56.1031C55.1008 56.141 55.3801 56.2167 55.4937 56.2546C61.3071 58.0588 65.4399 63.6466 65.5204 70.2477C65.5204 70.4418 65.5204 70.6407 65.5204 70.8349C65.3216 78.814 59.0963 85.2399 51.4698 85.2399H21.1151C13.3655 85.2399 7.05505 78.6009 7.05505 70.4371V22.4913C7.05505 14.3274 13.3608 7.68843 21.1151 7.68843L21.1009 7.68372Z" fill="#D6D7D8"/>
<path opacity="0.35" d="M20.7792 7.35706H51.1338C58.8787 7.35706 65.1797 13.9913 65.1797 22.1457C65.1797 28.922 60.9049 34.6708 54.8927 36.4039C54.7838 36.4371 54.4855 36.5176 54.3766 36.546C54.3435 36.5554 54.3482 36.617 54.3104 36.6218C54.3577 36.6833 54.4903 36.8538 54.5376 36.9154C56.507 39.5103 57.591 42.7494 57.591 46.1162C57.591 49.4831 56.4501 52.8831 54.3908 55.5065C54.5045 55.5349 54.4997 55.7243 54.6133 55.7575C54.727 55.7906 55.0205 55.8711 55.1294 55.909C60.9569 57.699 65.0945 63.282 65.1797 69.8831C65.1797 70.0773 65.1797 70.2762 65.1797 70.4703C64.9903 78.4494 58.7651 84.8801 51.1386 84.8801H20.7839C13.039 84.8801 6.73804 78.2458 6.73804 70.0915V22.1457C6.73804 13.9913 13.039 7.35706 20.7839 7.35706H20.7792Z" fill="#D2D3D4"/>
<path opacity="0.39" d="M20.4525 7.03052H50.8071C58.5472 7.03052 64.8435 13.66 64.8435 21.8097C64.8435 28.586 60.5639 34.3395 54.5422 36.0585C54.4381 36.0916 54.1304 36.1721 54.0262 36.2005C53.9931 36.21 54.0026 36.2715 53.9694 36.281C54.0168 36.3426 54.1493 36.513 54.1967 36.5746C56.166 39.1696 57.2548 42.4086 57.2548 45.7802C57.2548 49.1518 56.1139 52.5376 54.0594 55.1658C54.1683 55.1942 54.1446 55.393 54.2535 55.4262C54.3623 55.4593 54.6653 55.5399 54.7695 55.5777C60.6065 57.3535 64.7488 62.9365 64.8435 69.5282C64.8435 69.7223 64.8435 69.9212 64.8435 70.1154C64.6636 78.0992 58.4384 84.5346 50.8118 84.5346H20.4572C12.717 84.5346 6.42078 77.9051 6.42078 69.7555V21.8097C6.42078 13.66 12.717 7.03052 20.4572 7.03052H20.4525Z" fill="#CECFD0"/>
<path opacity="0.42" d="M20.1305 6.7086H50.4852C58.2206 6.7086 64.5121 13.3334 64.5121 21.4783C64.5121 28.2546 60.2278 34.0081 54.1966 35.7223C54.0972 35.7507 53.78 35.836 53.6759 35.8644C53.6428 35.8738 53.6617 35.9402 53.6286 35.9496C53.6712 36.0065 53.8132 36.1864 53.8558 36.2432C55.8299 38.8382 56.9187 42.0772 56.9187 45.4488C56.9187 48.8204 55.7825 52.2015 53.7232 54.8249C53.8274 54.8533 53.7848 55.0617 53.8889 55.0948C53.9931 55.128 54.3055 55.2132 54.4049 55.2463C60.2515 57.0079 64.4032 62.5909 64.5026 69.1778C64.5026 69.372 64.5026 69.5709 64.5026 69.765C64.3322 77.7489 58.107 84.189 50.4852 84.189H20.1305C12.3951 84.189 6.10358 77.5642 6.10358 69.4194V21.4735C6.10358 13.3287 12.3951 6.70386 20.1305 6.70386V6.7086Z" fill="#CACBCC"/>
<path opacity="0.45" d="M19.8038 6.38159H50.1585C57.8844 6.38159 64.1712 13.0017 64.1712 21.1371C64.1712 27.9134 59.8869 33.6716 53.8415 35.3764C53.7469 35.4048 53.4155 35.49 53.3208 35.5184C53.2924 35.5279 53.3113 35.5989 53.2829 35.6037C53.3255 35.6558 53.4723 35.8452 53.5102 35.8973C55.489 38.4922 56.5778 41.736 56.5778 45.1076C56.5778 48.4792 55.4416 51.8555 53.3871 54.4789C53.4865 54.5026 53.4249 54.7299 53.5244 54.7584C53.6238 54.7868 53.9504 54.8767 54.0404 54.9051C59.8964 56.6572 64.0528 62.2308 64.1665 68.8177C64.1665 69.0118 64.1665 69.2107 64.1665 69.4049C64.0055 77.3935 57.785 83.8383 50.1585 83.8383H19.8038C12.0779 83.8383 5.79108 77.2183 5.79108 69.0829V21.1371C5.79108 13.0017 12.0779 6.38159 19.8038 6.38159Z" fill="#C6C7C8"/>
<path opacity="0.48" d="M19.4773 6.05994H49.8319C57.5531 6.05994 63.8352 12.6753 63.8352 20.8059C63.8352 27.5823 59.5462 33.3453 53.4961 35.0405C53.4061 35.0689 53.0653 35.1589 52.9753 35.1826C52.9469 35.1921 52.9753 35.2678 52.9469 35.2726C52.9848 35.3246 53.1363 35.5141 53.1741 35.5662C55.153 38.1612 56.2465 41.4049 56.2465 44.7765C56.2465 48.1481 55.1104 51.5197 53.0558 54.1384C53.1457 54.162 53.0747 54.3988 53.1647 54.4272C53.2546 54.4556 53.5955 54.5456 53.6807 54.574C59.5462 56.3119 63.7121 61.8855 63.8305 68.4677C63.8305 68.6618 63.8305 68.8607 63.8305 69.0548C63.679 77.0434 57.4584 83.4978 49.8319 83.4978H19.4773C11.7561 83.4978 5.474 76.8824 5.474 68.7518V20.8059C5.474 12.6753 11.7561 6.05994 19.4773 6.05994Z" fill="#C2C3C4"/>
<path opacity="0.52" d="M19.1553 5.73267H49.5099C57.2264 5.73267 63.5038 12.3433 63.5038 20.4645C63.5038 27.2361 59.21 33.0038 53.1504 34.6943C53.0699 34.718 52.7149 34.8127 52.6297 34.8364C52.6013 34.8411 52.6344 34.9216 52.606 34.9311C52.6439 34.9784 52.8001 35.1773 52.8332 35.2247C54.8168 37.8197 55.9104 41.0681 55.9104 44.4397C55.9104 47.8113 54.7742 51.1782 52.7244 53.7969C52.8096 53.8205 52.7196 54.0668 52.8048 54.0952C52.89 54.1236 53.2404 54.2136 53.3208 54.242C59.2005 55.9657 63.3712 61.5392 63.4943 68.1119C63.4943 68.3061 63.4943 68.505 63.4943 68.6991C63.3523 76.6925 57.1317 83.1468 49.5052 83.1468H19.1553C11.4388 83.1468 5.1615 76.5362 5.1615 68.415V20.4692C5.1615 12.3433 11.4388 5.73738 19.1553 5.73738V5.73267Z" fill="#BDBEC0"/>
<path opacity="0.55" d="M18.8286 5.41101H49.1832C56.895 5.41101 63.1628 12.0169 63.1628 20.1334C63.1628 26.905 58.8691 32.6774 52.7953 34.3585C52.7196 34.3821 52.355 34.4769 52.2746 34.4958C52.2509 34.5005 52.2888 34.5858 52.2604 34.5952C52.2935 34.6378 52.4545 34.8462 52.4876 34.8888C54.4759 37.4838 55.5695 40.7323 55.5695 44.1039C55.5695 47.4755 54.438 50.8376 52.3834 53.4516C52.4639 53.4705 52.355 53.7357 52.4355 53.7593C52.516 53.783 52.8758 53.8777 52.9515 53.9062C58.8407 55.6156 63.0161 61.1844 63.1486 67.7572C63.1486 67.9513 63.1486 68.1502 63.1486 68.3444C63.0161 76.3377 56.7956 82.8015 49.1738 82.8015H18.8286C11.1169 82.8015 4.849 76.1956 4.849 68.0791V20.1334C4.849 12.0169 11.1216 5.41101 18.8286 5.41101Z" fill="#B9BABC"/>
<path opacity="0.58" d="M18.5068 5.08447H48.8615C56.5637 5.08447 62.8316 11.6856 62.8316 19.7926C62.8316 26.5642 58.5331 32.3414 52.4499 34.013C52.3788 34.0367 52.0001 34.1314 51.9291 34.1503C51.9054 34.155 51.9481 34.245 51.9291 34.2498C51.9623 34.2924 52.1279 34.5055 52.1563 34.5433C54.1446 37.1383 55.2429 40.3916 55.2429 43.7632C55.2429 47.1348 54.1115 50.4874 52.0617 53.106C52.1374 53.125 52.0096 53.3997 52.0853 53.4233C52.1611 53.447 52.5351 53.5465 52.6061 53.5702C58.5047 55.2654 62.6896 60.8342 62.8316 67.4022C62.8316 67.5964 62.8363 67.7952 62.8316 67.9894C62.7085 75.9875 56.488 82.4513 48.8662 82.4513H18.5068C10.8045 82.4513 4.53668 75.8501 4.53668 67.7432V19.7973C4.53668 11.6856 10.8045 5.08921 18.5068 5.08921V5.08447Z" fill="#B5B6B8"/>
<path opacity="0.61" d="M18.1801 4.76208H48.5347C56.2323 4.76208 62.4954 11.3538 62.4954 19.4608C62.4954 26.2324 58.1922 32.0095 52.0995 33.6764C52.0332 33.6953 51.645 33.7948 51.5787 33.8137C51.5598 33.8185 51.6071 33.9131 51.5834 33.9179C51.6118 33.9558 51.7823 34.1736 51.8107 34.2115C53.8037 36.8065 54.902 40.0597 54.902 43.4313C54.902 46.8029 53.7706 50.1508 51.7207 52.7647C51.7917 52.7837 51.6497 53.0678 51.716 53.0915C51.7823 53.1152 52.1705 53.2146 52.2367 53.2335C58.1448 54.9193 62.3344 60.4834 62.4859 67.0467C62.4859 67.2408 62.4907 67.4397 62.4859 67.6339C62.3723 75.6319 56.1565 82.1052 48.53 82.1052H18.1801C10.4825 82.1052 4.21942 75.5136 4.21942 67.4066V19.4608C4.21942 11.3538 10.4825 4.76208 18.1801 4.76208Z" fill="#B1B2B4"/>
<path opacity="0.65" d="M17.8581 4.43513H48.2128C55.9056 4.43513 62.164 11.0221 62.164 19.1243C62.164 25.8959 57.8607 31.6778 51.7538 33.3352C51.6923 33.3542 51.2946 33.4583 51.2331 33.4725C51.2141 33.4773 51.2662 33.5767 51.2473 33.5815C51.2757 33.6146 51.4508 33.8419 51.4745 33.8751C53.4723 36.4701 54.5706 39.728 54.5706 43.0996C54.5706 46.4712 53.4391 49.8144 51.394 52.4236C51.4556 52.4378 51.2994 52.7408 51.3609 52.7598C51.4224 52.7787 51.8201 52.8829 51.8816 52.9019C57.8039 54.5735 61.9983 60.1328 62.1545 66.6913C62.1545 66.8855 62.1592 67.0844 62.1545 67.2785C62.0503 75.2813 55.8346 81.7546 48.208 81.7546H17.8581C10.1653 81.7546 3.90692 75.1677 3.90692 67.0654V19.1196C3.90692 11.0221 10.1653 4.43042 17.8581 4.43042V4.43513Z" fill="#ADAEB0"/>
<path opacity="0.68" d="M17.5316 4.10889H47.8862C55.5696 4.10889 61.8232 10.6911 61.8232 18.7839C61.8232 25.5555 57.5153 31.3421 51.3989 32.9901C51.3421 33.009 50.935 33.1132 50.8782 33.1274C50.8592 33.1274 50.9207 33.2315 50.9018 33.2363C50.9255 33.2694 51.1054 33.5015 51.1291 33.5299C53.1268 36.1249 54.2298 39.3828 54.2298 42.7544C54.2298 46.126 53.0984 49.4645 51.0533 52.0737C51.1101 52.0879 50.935 52.4004 50.9918 52.4193C51.0486 52.4383 51.4557 52.5425 51.5125 52.5614C57.4443 54.2188 61.6481 59.7781 61.809 66.3319C61.8138 66.5261 61.8138 66.7202 61.809 66.9191C61.7144 74.9219 55.4986 81.4046 47.8768 81.4046H17.5316C9.84827 81.4046 3.5946 74.8225 3.5946 66.7297V18.7839C3.5946 10.6911 9.84827 4.10889 17.5316 4.10889Z" fill="#A9AAAC"/>
<path opacity="0.71" d="M17.2096 3.78662H47.5643C55.2429 3.78662 61.4918 10.3641 61.4918 18.4521C61.4918 25.2237 57.1791 31.0104 51.058 32.6536C51.0107 32.6678 50.5846 32.7767 50.5372 32.7909C50.523 32.7909 50.5846 32.8998 50.5704 32.9045C50.5941 32.9329 50.7787 33.1697 50.8024 33.1981C52.8049 35.7931 53.9079 39.0511 53.9079 42.4227C53.9079 45.7943 52.7812 49.128 50.7361 51.7325C50.7882 51.7467 50.5941 52.0687 50.6461 52.0876C50.6982 52.1066 51.1195 52.2107 51.1669 52.2297C57.1081 53.8728 61.3166 59.4275 61.4918 65.9812C61.4965 66.1754 61.4965 66.3695 61.4918 66.5684C61.4066 74.576 55.1908 81.0634 47.569 81.0634H17.2096C9.53103 81.0634 3.2821 74.486 3.2821 66.398V18.4521C3.2821 10.3641 9.53103 3.78662 17.2096 3.78662Z" fill="#A5A6A8"/>
<path opacity="0.74" d="M16.883 3.45996H47.2376C54.9115 3.45996 61.1557 10.0327 61.1557 18.1113C61.1557 24.8829 56.843 30.6743 50.7077 32.308C50.6651 32.3222 50.2295 32.4311 50.1869 32.4453C50.1727 32.4453 50.2437 32.5589 50.2295 32.5637C50.2485 32.5874 50.4426 32.8336 50.4615 32.8573C52.4687 35.4523 53.5717 38.7149 53.5717 42.0865C53.5717 45.4581 52.445 48.7871 50.3999 51.3916C50.4473 51.401 50.2342 51.742 50.2816 51.7562C50.3289 51.7704 50.7597 51.8841 50.8023 51.8983C56.753 53.5273 60.971 59.0819 61.1509 65.6309C61.1557 65.8251 61.1604 66.0192 61.1557 66.2181C61.0799 74.2256 54.8689 80.7179 47.2423 80.7179H16.883C9.2091 80.7179 2.9649 74.1451 2.9649 66.0665V18.1207C2.9649 10.0422 9.2091 3.46944 16.883 3.46944V3.45996Z" fill="#A1A2A4"/>
<path opacity="0.77" d="M16.5611 3.13804H46.9157C54.5849 3.13804 60.8196 9.70602 60.8196 17.7799C60.8196 24.5515 56.5021 30.3429 50.3574 31.9718C50.3195 31.9813 49.8745 32.0997 49.8366 32.1092C49.8224 32.1092 49.8982 32.2275 49.884 32.2275C49.9029 32.2512 50.097 32.5022 50.1159 32.5211C52.1232 35.1114 53.2309 38.3788 53.2309 41.7504C53.2309 45.122 52.1042 48.4415 50.0639 51.046C50.1065 51.0554 49.8792 51.4059 49.9171 51.4201C49.955 51.4343 50.4 51.548 50.4378 51.5574C56.398 53.1722 60.6208 58.7268 60.8101 65.2664C60.8149 65.4605 60.8196 65.6547 60.8148 65.8535C60.7486 73.8658 54.5375 80.3628 46.911 80.3628H16.5611C8.89195 80.3628 2.65723 73.7948 2.65723 65.7209V17.7751C2.65723 9.70131 8.89669 3.1333 16.5611 3.1333V3.13804Z" fill="#9D9EA1"/>
<path opacity="0.81" d="M16.2344 2.81104H46.5891C54.2487 2.81104 60.4834 9.3743 60.4834 17.4434C60.4834 24.2103 56.1613 30.0111 50.007 31.6306C49.9739 31.6401 49.5147 31.7585 49.4815 31.768C49.4721 31.768 49.5526 31.8863 49.5384 31.8911C49.5526 31.91 49.7561 32.1657 49.7703 32.1847C51.7823 34.7749 52.8901 38.0471 52.8901 41.4187C52.8901 44.7903 51.7634 48.1051 49.7277 50.7095C49.7609 50.719 49.5194 51.0836 49.5526 51.0931C49.5857 51.1025 50.0402 51.2209 50.0733 51.2304C56.0477 52.8357 60.2752 58.3809 60.4692 64.9204C60.474 65.1146 60.4787 65.3087 60.474 65.5076C60.4172 73.5199 54.2061 80.0216 46.5796 80.0216H16.2344C8.57475 80.0216 2.34003 73.4583 2.34003 65.3892V17.4434C2.34003 9.3743 8.57475 2.81104 16.2344 2.81104Z" fill="#999A9D"/>
<path opacity="0.84" d="M15.9078 2.4895H46.2624C53.9173 2.4895 60.1473 9.04801 60.1473 17.1076C60.1473 23.8745 55.8204 29.6801 49.6567 31.2901C49.6283 31.2996 49.1596 31.418 49.1312 31.4275C49.1217 31.4275 49.207 31.5506 49.1975 31.5553C49.2117 31.5695 49.4153 31.8347 49.4295 31.8489C51.4462 34.4392 52.5539 37.7113 52.5539 41.0829C52.5539 44.4545 51.432 47.7646 49.3916 50.3643C49.42 50.3738 49.1596 50.7479 49.188 50.7573C49.2164 50.7668 49.6851 50.8852 49.7088 50.8947C55.6926 52.4858 59.9295 58.0309 60.1331 64.5657C60.1378 64.7599 60.1426 64.954 60.1426 65.1529C60.0952 73.1699 53.8842 79.6764 46.2624 79.6764H15.9078C8.25282 79.6764 2.02283 73.1179 2.02283 65.0582V17.1124C2.02283 9.05275 8.25282 2.49424 15.9078 2.49424V2.4895Z" fill="#949699"/>
<path opacity="0.87" d="M15.5859 2.16284H45.9406C53.5908 2.16284 59.8113 8.71664 59.8113 16.7715C59.8113 23.5384 55.4844 29.344 49.3065 30.9493C49.2828 30.954 48.8047 31.0771 48.781 31.0819C48.7763 31.0819 48.8662 31.2097 48.8567 31.2097C48.8662 31.2239 49.0792 31.4939 49.0887 31.5081C51.1054 34.0983 52.2179 37.3752 52.2179 40.7468C52.2179 44.1184 51.0959 47.4237 49.0603 50.0235C49.084 50.0282 48.8047 50.4165 48.8283 50.426C48.852 50.4354 49.3301 50.5538 49.3538 50.5632C55.3471 52.1401 59.5888 57.6853 59.8018 64.2154C59.8066 64.4096 59.8113 64.6037 59.8113 64.8026C59.7734 72.8196 53.5671 79.3355 45.9406 79.3355H15.5859C7.93573 79.3355 1.71521 72.7817 1.71521 64.7268V16.781C1.71521 8.72609 7.94047 2.17232 15.5859 2.17232V2.16284Z" fill="#909295"/>
<path opacity="0.9" d="M15.2592 1.84058H45.6138C53.2593 1.84058 59.4751 8.38962 59.4751 16.4351C59.4751 23.2019 55.1435 29.0122 48.9608 30.6033C48.9466 30.6081 48.4543 30.7312 48.4353 30.7359C48.4306 30.7359 48.5253 30.8685 48.5205 30.8685C48.53 30.878 48.743 31.1574 48.7525 31.1668C50.7739 33.7571 51.8864 37.034 51.8864 40.4056C51.8864 43.7772 50.7645 47.0777 48.7288 49.6727C48.7478 49.6727 48.4543 50.08 48.4685 50.0847C48.4827 50.0894 48.975 50.2126 48.9939 50.222C54.9967 51.7847 59.2479 57.3251 59.4656 63.8505C59.4704 64.0447 59.4751 64.2388 59.4751 64.4377C59.4467 72.4594 53.2404 78.9753 45.6138 78.9753H15.2592C7.61374 78.9753 1.39795 72.4263 1.39795 64.3809V16.4351C1.39795 8.38489 7.61847 1.84058 15.2592 1.84058Z" fill="#8C8E91"/>
<path opacity="0.94" d="M14.9372 1.51392H45.2919C52.9279 1.51392 59.1437 8.05822 59.1437 16.0989C59.1437 22.8658 54.8073 28.6809 48.6152 30.2625C48.6057 30.2625 48.0992 30.3951 48.0897 30.3951C48.0897 30.3951 48.1891 30.5277 48.1844 30.5324C48.1891 30.5371 48.4116 30.8213 48.4163 30.8307C50.4425 33.421 51.555 36.7026 51.555 40.0742C51.555 43.4458 50.433 46.7416 48.4021 49.3366C48.4116 49.3366 48.1039 49.7533 48.1134 49.7581C48.1228 49.7628 48.6294 49.8907 48.6388 49.8907C54.6558 51.4391 58.907 56.9795 59.1342 63.5002C59.1389 63.6943 59.1437 63.8885 59.1437 64.0874C59.1247 72.1139 52.9184 78.6345 45.2919 78.6345H14.9372C7.30124 78.6345 1.08545 72.0902 1.08545 64.0495V16.1037C1.08545 8.06296 7.30124 1.51866 14.9372 1.51866V1.51392Z" fill="#888A8D"/>
<path opacity="0.97" d="M14.6106 1.19165H44.9652C52.5965 1.19165 58.8075 7.73123 58.8075 15.7625C58.8075 22.5293 54.4711 28.3444 48.2648 29.9212C48.2601 29.9212 47.7441 30.0539 47.7393 30.0539L47.8435 30.1912C47.8435 30.1912 48.0755 30.4848 48.0755 30.4895C50.1016 33.0798 51.2189 36.3614 51.2189 39.733C51.2189 43.1046 50.0969 46.3909 48.066 48.9859C48.0707 48.9859 47.7441 49.4121 47.7488 49.4169C47.7536 49.4216 48.2696 49.5495 48.2743 49.5495C54.3007 51.0885 58.5614 56.6241 58.7981 63.14C58.8028 63.3342 58.8075 63.5283 58.8075 63.7272C58.7981 71.7537 52.5917 78.279 44.9699 78.279H14.6106C6.9793 78.279 0.76825 71.7395 0.76825 63.7082V15.7625C0.76825 7.7265 6.9793 1.19165 14.6106 1.19165Z" fill="#848689"/>
<path d="M14.2888 77.9333C6.66222 77.9333 0.460632 71.4032 0.460632 63.372V15.4262C0.460632 7.39497 6.66222 0.864868 14.2888 0.864868H44.6434C52.2699 0.864868 58.4715 7.39497 58.4715 15.4262C58.4715 22.1931 54.1304 28.0129 47.9146 29.5803L47.3891 29.7129L47.7347 30.1532C49.7656 32.7435 50.8828 36.0299 50.8828 39.3967C50.8828 42.7636 49.7656 46.05 47.7347 48.6402L47.3891 49.0806L47.9146 49.2132C54.1304 50.7806 58.4715 56.6051 58.4715 63.3673C58.4715 71.3985 52.2699 77.9286 44.6434 77.9286H14.2888V77.9333Z" fill="#808285"/>
</g>
<path d="M14.2888 78.2888C6.47765 78.2888 0.124573 71.5977 0.124573 63.3723V15.4265C0.124573 7.20111 6.47765 0.51001 14.2888 0.51001H44.6434C52.4546 0.51001 58.8077 7.20111 58.8077 15.4265C58.8077 22.468 54.2393 28.3494 47.9904 29.9262C50.0639 32.5733 51.219 35.8976 51.219 39.397C51.219 42.8965 50.0686 46.2207 47.9904 48.8678C54.2393 50.4447 58.8077 56.3308 58.8077 63.3676C58.8077 71.5929 52.4546 78.284 44.6434 78.284H14.2888V78.2888Z" fill="url(#paint0_linear_53_37941)"/>
<path d="M14.2889 76.8684C7.22094 76.8684 1.47382 70.8119 1.47382 63.3726V15.4268C1.47382 7.98747 7.22567 1.93091 14.2889 1.93091H44.6435C51.7114 1.93091 57.4585 7.98747 57.4585 15.4268C57.4585 22.8661 51.9623 28.6527 45.1122 28.9131C48.0141 31.3898 49.8699 35.1686 49.8699 39.3973C49.8699 43.626 48.0141 47.4049 45.1122 49.8815C51.9623 50.1419 57.4585 56.0943 57.4585 63.3678C57.4585 70.6414 51.7067 76.8637 44.6435 76.8637H14.2889V76.8684Z" fill="url(#paint1_linear_53_37941)"/>
<path d="M26.5736 29.8078H24.4433C23.951 29.8078 23.558 29.41 23.558 28.9175V25.8964C23.558 25.4039 23.9557 25.0061 24.4433 25.0061H26.5736C27.066 25.0061 27.4589 25.4039 27.4589 25.8964C27.4589 26.3888 27.0612 26.7866 26.5736 26.7866H25.3333V28.0273H26.5736C27.066 28.0273 27.4589 28.4251 27.4589 28.9175C27.4589 29.41 27.0612 29.8078 26.5736 29.8078Z" fill="#76B83F"/>
<path d="M34.8013 50.7666H30.6969C30.2046 50.7666 29.8116 50.3688 29.8116 49.8763C29.8116 49.3839 30.2093 48.9861 30.6969 48.9861H34.8013C35.2936 48.9861 35.6866 49.3839 35.6866 49.8763C35.6866 50.3688 35.2889 50.7666 34.8013 50.7666ZM38.8915 50.5961C38.4749 50.5961 38.1009 50.2978 38.0205 49.8716C37.9305 49.3886 38.2477 48.9245 38.7258 48.8346C39.9519 48.6025 41.1023 48.1195 42.1485 47.4045C42.5509 47.1298 43.1048 47.2293 43.3841 47.6365C43.6634 48.039 43.5593 48.5931 43.1521 48.8724C41.9024 49.7295 40.5248 50.3025 39.0572 50.5819C39.0004 50.5914 38.9483 50.5961 38.8915 50.5961ZM45.4955 46.107C45.3298 46.107 45.1641 46.0596 45.0126 45.9649C44.6008 45.6997 44.4824 45.1504 44.7522 44.7385C45.4387 43.6825 45.9074 42.5128 46.1441 41.2721C46.234 40.7891 46.6979 40.4766 47.1808 40.5666C47.6637 40.6565 47.9761 41.1254 47.8862 41.6036C47.6069 43.0763 47.053 44.4543 46.2387 45.7044C46.0683 45.9649 45.7843 46.107 45.4955 46.107ZM47.0104 38.2415C46.5938 38.2415 46.2198 37.9479 46.1393 37.5217C45.8979 36.2763 45.4292 35.1114 44.738 34.0554C44.4682 33.6434 44.5866 33.0941 44.9984 32.8289C45.4103 32.559 45.9594 32.6774 46.2245 33.0894C47.0388 34.3395 47.5974 35.7175 47.8814 37.1902C47.9761 37.6732 47.6589 38.1373 47.1761 38.232C47.1193 38.2415 47.0625 38.2462 47.0056 38.2462L47.0104 38.2415ZM42.6314 31.5409C42.461 31.5409 42.2858 31.4888 42.1343 31.3846C41.0881 30.6696 39.933 30.1913 38.7069 29.964C38.224 29.8741 37.9068 29.41 37.9968 28.927C38.0867 28.444 38.5507 28.1267 39.0335 28.2167C40.5011 28.4913 41.8834 29.0643 43.1332 29.9167C43.5403 30.1913 43.6445 30.7454 43.3652 31.1526C43.1948 31.4036 42.9154 31.5409 42.6314 31.5409ZM34.7776 29.8125H30.6732C30.1809 29.8125 29.788 29.4147 29.788 28.9222C29.788 28.4298 30.1856 28.032 30.6732 28.032H34.7776C35.27 28.032 35.6629 28.4298 35.6629 28.9222C35.6629 29.4147 35.2652 29.8125 34.7776 29.8125Z" fill="#76B83F"/>
<path d="M26.5736 53.7828H24.4433C23.951 53.7828 23.558 53.385 23.558 52.8973V49.8761C23.558 49.3836 23.9557 48.9858 24.4433 48.9858H26.5736C27.066 48.9858 27.4589 49.3836 27.4589 49.8761C27.4589 50.3686 27.0612 50.7664 26.5736 50.7664H25.3333V52.007H26.5736C27.066 52.007 27.4589 52.4048 27.4589 52.8973C27.4589 53.3898 27.0612 53.7828 26.5736 53.7828Z" fill="#76B83F"/>
<path d="M44.6434 74.7373H44.1889C43.6966 74.7373 43.3036 74.3395 43.3036 73.847C43.3036 73.3545 43.7013 72.9567 44.1889 72.9567H44.6434C45.8032 72.9567 46.9346 72.7342 48.0093 72.3033C48.4637 72.1186 48.9797 72.3364 49.1644 72.791C49.349 73.2456 49.1265 73.7617 48.672 73.9464C47.3891 74.4673 46.0304 74.7278 44.6434 74.7278V74.7373ZM39.9425 74.7373H35.696C35.2037 74.7373 34.8108 74.3395 34.8108 73.847C34.8108 73.3545 35.2084 72.9567 35.696 72.9567H39.9425C40.4348 72.9567 40.8277 73.3545 40.8277 73.847C40.8277 74.3395 40.4301 74.7373 39.9425 74.7373ZM31.4543 74.7373H27.2079C26.7156 74.7373 26.3179 74.3395 26.3179 73.847C26.3179 73.3545 26.7156 72.9567 27.2079 72.9567H31.4543C31.9467 72.9567 32.3396 73.3545 32.3396 73.847C32.3396 74.3395 31.942 74.7373 31.4543 74.7373ZM22.9662 74.7373H18.7198C18.2275 74.7373 17.8345 74.3395 17.8345 73.847C17.8345 73.3545 18.2322 72.9567 18.7198 72.9567H22.9662C23.4586 72.9567 23.8515 73.3545 23.8515 73.847C23.8515 74.3395 23.4538 74.7373 22.9662 74.7373ZM14.4781 74.7373H14.2887C12.8022 74.7373 11.3536 74.4342 9.99496 73.8423C9.54523 73.6481 9.34167 73.1225 9.53576 72.6726C9.72986 72.2228 10.2553 72.0144 10.7051 72.2133C11.8412 72.7105 13.0484 72.9615 14.2887 72.9615H14.4781C14.9704 72.9615 15.3634 73.3593 15.3634 73.8517C15.3634 74.3442 14.9657 74.742 14.4781 74.742V74.7373ZM51.8344 71.6545C51.6119 71.6545 51.3894 71.5693 51.2189 71.4035C50.8686 71.0626 50.8592 70.4991 51.2 70.1487C52.1042 69.2111 52.8048 68.1172 53.2735 66.8907C53.4487 66.4314 53.9647 66.2041 54.4192 66.3793C54.8784 66.5545 55.1056 67.0707 54.9304 67.5253C54.3765 68.9743 53.5481 70.2718 52.4782 71.3846C52.303 71.5646 52.0711 71.6545 51.8391 71.6545H51.8344ZM6.92257 71.4603C6.68114 71.4603 6.44444 71.3656 6.26928 71.1715C5.22305 70.035 4.43247 68.7138 3.91173 67.2553C3.74604 66.7912 3.99221 66.2846 4.45141 66.1236C4.91061 65.9579 5.42188 66.1993 5.58284 66.6634C6.01837 67.8993 6.69061 69.0121 7.57114 69.9734C7.90252 70.3333 7.87885 70.8968 7.51906 71.2283C7.34864 71.3846 7.13561 71.4603 6.91784 71.4603H6.92257ZM54.7979 63.9358C54.3197 63.9358 53.9268 63.557 53.9126 63.074C53.8747 61.7575 53.5812 60.4932 53.0415 59.3046C52.838 58.8595 53.0368 58.3339 53.4818 58.1303C53.9268 57.9266 54.4523 58.1255 54.6559 58.5706C55.2902 59.9723 55.6358 61.4687 55.6831 63.0219C55.6973 63.5097 55.3139 63.9216 54.8215 63.9358C54.8121 63.9358 54.8026 63.9358 54.7931 63.9358H54.7979ZM4.13423 63.6707C3.64189 63.6707 3.24896 63.2729 3.24896 62.7804V58.5328C3.24896 58.0403 3.64662 57.6473 4.13423 57.6473C4.62183 57.6473 5.01949 58.045 5.01949 58.5328V62.7804C5.01949 63.2729 4.62183 63.6707 4.13423 63.6707ZM51.3752 56.4161C51.1621 56.4161 50.9444 56.3402 50.7739 56.184C49.8035 55.2937 48.691 54.6402 47.4649 54.233C47.0009 54.0767 46.7453 53.5748 46.9015 53.1107C47.0577 52.6466 47.5595 52.391 48.0235 52.5472C49.4863 53.0302 50.8166 53.8163 51.9764 54.8723C52.3362 55.2038 52.3646 55.7625 52.0332 56.1272C51.858 56.3213 51.6166 56.4161 51.3799 56.4161H51.3752ZM4.13423 55.1801C3.64189 55.1801 3.24896 54.7823 3.24896 54.2898V50.0422C3.24896 49.5497 3.64662 49.1519 4.13423 49.1519C4.62183 49.1519 5.01949 49.5497 5.01949 50.0422V54.2898C5.01949 54.7823 4.62183 55.1801 4.13423 55.1801ZM43.5545 53.7832H39.3081C38.8158 53.7832 38.4228 53.3854 38.4228 52.8976C38.4228 52.4099 38.8205 52.0074 39.3081 52.0074H43.5545C44.0469 52.0074 44.4445 52.4052 44.4445 52.8976C44.4445 53.3901 44.0469 53.7832 43.5545 53.7832ZM35.0664 53.7832H30.82C30.3276 53.7832 29.9347 53.3854 29.9347 52.8976C29.9347 52.4099 30.3324 52.0074 30.82 52.0074H35.0664C35.5588 52.0074 35.9517 52.4052 35.9517 52.8976C35.9517 53.3901 35.554 53.7832 35.0664 53.7832ZM4.13896 46.6896C3.64662 46.6896 3.2537 46.2918 3.2537 45.7993V41.5516C3.2537 41.0592 3.65136 40.6614 4.13896 40.6614C4.62657 40.6614 5.02423 41.0592 5.02423 41.5516V45.7993C5.02423 46.2918 4.62657 46.6896 4.13896 46.6896ZM4.13896 38.199C3.64662 38.199 3.2537 37.8012 3.2537 37.3087V33.0611C3.2537 32.5686 3.65136 32.1708 4.13896 32.1708C4.62657 32.1708 5.02423 32.5686 5.02423 33.0611V37.3087C5.02423 37.8012 4.62657 38.199 4.13896 38.199ZM4.13896 29.7084C3.64662 29.7084 3.2537 29.3107 3.2537 28.8182V24.5705C3.2537 24.0781 3.65136 23.6803 4.13896 23.6803C4.62657 23.6803 5.02423 24.0781 5.02423 24.5705V28.8182C5.02423 29.3107 4.62657 29.7084 4.13896 29.7084ZM43.6255 26.7962H39.3791C38.8868 26.7962 38.4939 26.3984 38.4939 25.9059C38.4939 25.4134 38.8915 25.0157 39.3791 25.0157H43.6255C44.1179 25.0157 44.5108 25.4134 44.5108 25.9059C44.5108 26.3984 44.1132 26.7962 43.6255 26.7962ZM35.1374 26.7962H30.891C30.3987 26.7962 30.0057 26.3984 30.0057 25.9059C30.0057 25.4134 30.4034 25.0157 30.891 25.0157H35.1374C35.6298 25.0157 36.0227 25.4134 36.0227 25.9059C36.0227 26.3984 35.625 26.7962 35.1374 26.7962ZM47.8152 26.28C47.4459 26.28 47.1003 26.048 46.9725 25.6786C46.8163 25.2146 47.0625 24.7126 47.5264 24.5516C48.7478 24.1396 49.8603 23.4719 50.826 22.5817C51.1858 22.2502 51.7492 22.2691 52.0805 22.629C52.4119 22.9889 52.393 23.5524 52.0332 23.8839C50.8828 24.9494 49.5573 25.7402 48.0992 26.2327C48.0045 26.2658 47.9099 26.28 47.8152 26.28ZM4.14369 21.2226C3.65136 21.2226 3.25843 20.8248 3.25843 20.3324V16.0847C3.25843 15.5922 3.65609 15.1945 4.14369 15.1945C4.6313 15.1945 5.02896 15.5922 5.02896 16.0847V20.3324C5.02896 20.8248 4.6313 21.2226 4.14369 21.2226ZM53.8842 20.6923C53.7659 20.6923 53.6428 20.6686 53.5244 20.6165C53.0794 20.4176 52.8759 19.892 53.0747 19.4421C53.6049 18.2535 53.8889 16.9844 53.9221 15.668C53.9315 15.185 54.3292 14.8014 54.8073 14.8014C54.8168 14.8014 54.8215 14.8014 54.831 14.8014C55.3186 14.8109 55.7068 15.2181 55.6973 15.7106C55.6595 17.2638 55.3234 18.765 54.6985 20.1666C54.5517 20.4981 54.2251 20.6923 53.8889 20.6923H53.8842ZM4.73545 12.7984C4.64077 12.7984 4.54135 12.7841 4.44194 12.751C3.978 12.59 3.73183 12.0833 3.89279 11.6193C4.40407 10.156 5.18518 8.83009 6.22194 7.68886C6.55332 7.32424 7.11193 7.30059 7.47646 7.62733C7.84098 7.9588 7.86465 8.51756 7.538 8.88219C6.6622 9.84821 5.99944 10.9658 5.56864 12.2064C5.44082 12.5711 5.09997 12.8031 4.73072 12.8031L4.73545 12.7984ZM54.083 12.4243C53.728 12.4243 53.3919 12.2112 53.2546 11.8607C52.7764 10.639 52.0711 9.54514 51.1621 8.61701C50.8166 8.26659 50.826 7.70307 51.1763 7.36212C51.5267 7.02117 52.09 7.02592 52.4309 7.37634C53.5102 8.47968 54.3434 9.77244 54.9115 11.2167C55.0914 11.6713 54.8642 12.1875 54.4097 12.3674C54.3055 12.41 54.1919 12.429 54.0878 12.429L54.083 12.4243ZM10.2979 6.69444C9.95709 6.69444 9.63518 6.49556 9.48369 6.16882C9.28486 5.71896 9.48369 5.19805 9.93342 4.99916C11.3158 4.38356 12.7833 4.07578 14.2982 4.07578H14.4213C14.9136 4.07578 15.3066 4.47356 15.3066 4.9613C15.3066 5.44905 14.9089 5.84682 14.4213 5.84682H14.2982C13.0342 5.84682 11.8081 6.10726 10.6577 6.61869C10.5394 6.67078 10.4163 6.69444 10.2979 6.69444ZM48.2933 6.53816C48.1844 6.53816 48.0755 6.51922 47.9667 6.4766C46.911 6.05989 45.7985 5.84682 44.6576 5.84682H44.1368C43.6445 5.84682 43.2516 5.44905 43.2516 4.9613C43.2516 4.47356 43.6492 4.07578 44.1368 4.07578H44.6576C46.021 4.07578 47.356 4.33148 48.62 4.83344C49.0744 5.01338 49.2969 5.52953 49.117 5.98413C48.9797 6.33455 48.6436 6.5429 48.2933 6.5429V6.53816ZM39.8904 5.84208H35.644C35.1516 5.84208 34.7587 5.44431 34.7587 4.95656C34.7587 4.46882 35.1564 4.07104 35.644 4.07104H39.8904C40.3827 4.07104 40.7757 4.46882 40.7757 4.95656C40.7757 5.44431 40.378 5.84208 39.8904 5.84208ZM31.4023 5.84208H27.1558C26.6635 5.84208 26.2706 5.44431 26.2706 4.95656C26.2706 4.46882 26.6682 4.07104 27.1558 4.07104H31.4023C31.8946 4.07104 32.2875 4.46882 32.2875 4.95656C32.2875 5.44431 31.8899 5.84208 31.4023 5.84208ZM22.9141 5.84208H18.6677C18.1754 5.84208 17.7825 5.44431 17.7825 4.95656C17.7825 4.46882 18.1801 4.07104 18.6677 4.07104H22.9141C23.4065 4.07104 23.7994 4.46882 23.7994 4.95656C23.7994 5.44431 23.4018 5.84208 22.9141 5.84208Z" fill="#76B83F"/>
<path d="M44.6435 56.9794H20.3579V45.7897H37.0548C40.4065 45.7897 43.1238 42.9295 43.1238 39.3969C43.1238 35.8643 40.4065 33.0041 37.0548 33.0041H20.3579V21.8191H44.6435C47.9952 21.8191 50.7125 18.9589 50.7125 15.4263C50.7125 11.8937 47.9952 9.03357 44.6435 9.03357H14.2888C10.9371 9.03357 8.21979 11.8937 8.21979 15.4263V63.3722C8.21979 66.9048 10.9371 69.7649 14.2888 69.7649H44.6435C47.9952 69.7649 50.7125 66.9048 50.7125 63.3722C50.7125 59.8396 47.9952 56.9794 44.6435 56.9794Z" fill="url(#paint2_linear_53_37941)"/>
<defs>
<linearGradient id="paint0_linear_53_37941" x1="0.119839" y1="39.4018" x2="58.8124" y2="39.4018" gradientUnits="userSpaceOnUse">
<stop stop-color="#F1F2F2"/>
<stop offset="1" stop-color="#D1D3D4"/>
</linearGradient>
<linearGradient id="paint1_linear_53_37941" x1="1.46908" y1="39.402" x2="57.4633" y2="39.402" gradientUnits="userSpaceOnUse">
<stop stop-color="#D1D3D4"/>
<stop offset="1" stop-color="#F1F2F2"/>
</linearGradient>
<linearGradient id="paint2_linear_53_37941" x1="8.21505" y1="39.4016" x2="50.7172" y2="39.4016" gradientUnits="userSpaceOnUse">
<stop stop-color="#8DC63F"/>
<stop offset="0.21" stop-color="#80BE3F"/>
<stop offset="0.51" stop-color="#78B93F"/>
<stop offset="1" stop-color="#76B83F"/>
</linearGradient>
</defs>
</svg>
