<svg width="69" height="89" viewBox="0 0 69 89" fill="none" xmlns="http://www.w3.org/2000/svg">
<g style="mix-blend-mode:multiply">
<path opacity="0.03" d="M24.0219 10.8417H54.3766C62.183 10.8417 68.5313 17.528 68.5313 25.7487C68.5313 31.9615 64.8198 37.4498 59.4988 39.6423C59.3473 39.7038 59.1816 39.7702 59.0301 39.827C58.9922 39.8412 58.9591 39.8601 58.9212 39.8696C59.0017 39.9643 59.0869 40.0685 59.1627 40.1679C61.2835 42.8245 62.4576 46.1771 62.4576 49.724C62.4576 57.7268 56.4359 64.2758 48.9182 64.6167C48.7147 64.6262 48.4874 64.631 48.2839 64.631H38.4655L38.172 64.6404V73.6992C38.172 81.9199 31.8236 88.6062 24.0172 88.6062C16.2108 88.6062 9.86243 81.9199 9.86243 73.6992V25.7534C9.86243 17.5328 16.2108 10.8464 24.0172 10.8464L24.0219 10.8417Z" fill="#FBFBFB"/>
<path opacity="0.06" d="M23.6999 10.5194H54.0545C61.8515 10.5194 68.1998 17.201 68.1998 25.4122C68.1998 31.625 64.4883 37.1134 59.1578 39.3011C59.0158 39.3627 58.8359 39.429 58.6892 39.4858C58.6513 39.5 58.6229 39.5189 58.585 39.5332C58.6607 39.6231 58.7554 39.7368 58.8264 39.8315C60.9473 42.488 62.1261 45.8454 62.1261 49.3922C62.1261 57.395 56.0996 63.9441 48.5773 64.2708C48.3784 64.2803 48.1417 64.285 47.9429 64.285H38.1245L37.8405 64.3039V73.3628C37.8405 81.5739 31.4969 88.2556 23.6952 88.2556C15.8935 88.2556 9.54987 81.5739 9.54987 73.3628V25.4169C9.54987 17.2058 15.8935 10.5241 23.6952 10.5241L23.6999 10.5194Z" fill="#F7F7F7"/>
<path opacity="0.1" d="M23.3734 10.1927H53.7281C61.5203 10.1927 67.8639 16.8697 67.8639 25.0761C67.8639 31.2889 64.1477 36.782 58.8077 38.9602C58.6704 39.0171 58.4811 39.0881 58.339 39.1402C58.3059 39.1544 58.2775 39.1734 58.2396 39.1876C58.3154 39.2776 58.41 39.3959 58.4811 39.4859C60.6066 42.1425 61.7854 45.4998 61.7854 49.0466C61.7854 57.0495 55.7543 63.5985 48.2271 63.9158C48.0378 63.9253 47.7869 63.93 47.5928 63.93H37.7744L37.4998 63.9584V73.0219C37.4998 81.2284 31.1609 87.9053 23.364 87.9053C15.567 87.9053 9.22815 81.2284 9.22815 73.0219V25.0761C9.22815 16.8697 15.567 10.1927 23.364 10.1927H23.3734Z" fill="#F3F3F3"/>
<path opacity="0.13" d="M23.0467 9.87122H53.4013C61.1888 9.87122 67.523 16.5434 67.523 24.7404C67.523 30.9532 63.8068 36.4462 58.4573 38.6197C58.3247 38.6766 58.1259 38.7523 57.9886 38.7997C57.9555 38.8139 57.9318 38.8376 57.8987 38.8518C57.9697 38.937 58.0738 39.0601 58.1401 39.1501C60.2704 41.8067 61.4492 45.1688 61.4492 48.7156C61.4492 56.7184 55.4133 63.2675 47.8815 63.5753C47.6968 63.5848 47.4317 63.5894 47.2471 63.5894H37.4287L37.1636 63.6274V72.6909C37.1636 80.8926 30.8295 87.56 23.042 87.56C15.2545 87.56 8.92035 80.8879 8.92035 72.6909V24.7451C8.92035 16.5434 15.2545 9.87596 23.042 9.87596L23.0467 9.87122Z" fill="#EFEFEF"/>
<path opacity="0.16" d="M22.7248 9.54382H53.0794C60.8622 9.54382 67.1916 16.2113 67.1916 24.4035C67.1916 30.6163 63.4706 36.1141 58.1117 38.2829C57.9839 38.335 57.7756 38.4155 57.643 38.4629C57.6099 38.4771 57.5909 38.5008 57.5578 38.515C57.6288 38.5955 57.733 38.7281 57.7992 38.8133C59.9343 41.4698 61.1131 44.832 61.1131 48.3788C61.1131 56.3863 55.0677 62.9307 47.5359 63.2243C47.3607 63.2337 47.0814 63.2384 46.9015 63.2384H37.0831L36.8275 63.2858V72.354C36.8275 80.5463 30.4981 87.2137 22.7153 87.2137C14.9326 87.2137 8.60315 80.5463 8.60315 72.354V24.4082C8.60315 16.216 14.9326 9.54856 22.7153 9.54856L22.7248 9.54382Z" fill="#EBEBEB"/>
<path opacity="0.19" d="M22.3982 9.22229H52.7528C60.5261 9.22229 66.8555 15.885 66.8555 24.0677C66.8555 30.2806 63.1346 35.7784 57.7662 37.9424C57.6431 37.9945 57.4253 38.075 57.2975 38.1224C57.2644 38.1319 57.2502 38.165 57.2218 38.1745C57.288 38.255 57.4017 38.3923 57.4679 38.4728C59.603 41.1294 60.7865 44.4915 60.7865 48.0383C60.7865 56.0458 54.7364 62.5901 47.1951 62.8742C47.0247 62.8837 46.7359 62.8884 46.5607 62.8884H36.7423L36.4962 62.9453V72.0135C36.4962 80.201 30.1715 86.859 22.3935 86.859C14.6154 86.859 8.29077 80.1963 8.29077 72.0135V24.0677C8.29077 15.8802 14.6154 9.22229 22.3935 9.22229H22.3982Z" fill="#E6E7E7"/>
<path opacity="0.23" d="M22.0762 8.89563H52.4308C60.1994 8.89563 66.5193 15.5489 66.5193 23.7316C66.5193 29.9445 62.7984 35.4422 57.4205 37.6016C57.3021 37.6489 57.0702 37.7389 56.9518 37.7815C56.9234 37.791 56.9092 37.8241 56.8808 37.8383C56.9424 37.9141 57.0654 38.0562 57.127 38.1367C59.2668 40.7932 60.455 44.1601 60.455 47.7069C60.455 55.7145 54.4002 62.2587 46.8541 62.5334C46.6932 62.5429 46.3855 62.5429 46.2198 62.5429H36.4014L36.1694 62.6092V71.6822C36.1694 79.865 29.8495 86.5182 22.0809 86.5182C14.3124 86.5182 7.99243 79.865 7.99243 71.6822V23.7364C7.99243 15.5536 14.3124 8.90037 22.0809 8.90037L22.0762 8.89563Z" fill="#E2E3E3"/>
<path opacity="0.26" d="M21.7495 8.57383H52.1041C59.8679 8.57383 66.1831 15.2223 66.1831 23.4003C66.1831 29.6131 62.4575 35.1157 57.0701 37.2655C56.9565 37.3129 56.7151 37.4029 56.6015 37.4455C56.5731 37.455 56.5636 37.4928 56.5352 37.5023C56.5967 37.5733 56.7198 37.7249 56.7814 37.8006C58.9259 40.4572 60.1141 43.824 60.1141 47.3708C60.1141 55.3784 54.0498 61.9227 46.5038 62.1832C46.3475 62.1926 46.0304 62.1926 45.8694 62.1926H36.051L35.8285 62.2684V71.3414C35.8285 79.5147 29.5133 86.1679 21.7495 86.1679C13.9857 86.1679 7.67047 79.5194 7.67047 71.3414V23.3956C7.67047 15.2223 13.9857 8.56909 21.7495 8.56909V8.57383Z" fill="#DEDFE0"/>
<path opacity="0.29" d="M21.4277 8.2467H51.7823C59.5414 8.2467 65.8519 14.8905 65.8519 23.059C65.8519 29.2718 62.1262 34.7744 56.7294 36.9243C56.6205 36.9716 56.3696 37.0616 56.2607 37.1042C56.2323 37.1137 56.2276 37.1516 56.2039 37.161C56.2607 37.2321 56.3933 37.3883 56.4501 37.4594C58.5993 40.1159 59.7876 43.4828 59.7876 47.0343C59.7876 55.0418 53.7185 61.5862 46.1677 61.8371C46.0163 61.8419 45.6849 61.8466 45.5381 61.8466H35.715L35.502 61.9318V71.0096C35.502 79.1781 29.1915 85.8219 21.4324 85.8219C13.6733 85.8219 7.36285 79.1781 7.36285 71.0096V23.0638C7.36285 14.8952 13.6733 8.25144 21.4324 8.25144L21.4277 8.2467Z" fill="#DADBDC"/>
<path opacity="0.32" d="M21.101 7.92444H51.4557C59.2053 7.92444 65.5158 14.5635 65.5158 22.7273C65.5158 28.9448 61.7853 34.4474 56.3791 36.5878C56.2749 36.6304 56.0145 36.7298 55.9104 36.7677C55.882 36.7772 55.8867 36.8197 55.8583 36.8292C55.9151 36.8955 56.0477 37.0613 56.1045 37.1276C58.2537 39.7841 59.4467 43.1557 59.4467 46.7026C59.4467 54.7148 53.373 61.2544 45.8174 61.4959C45.6754 61.5006 45.3298 61.5054 45.1878 61.5054H35.3647L35.1611 61.6001V70.6778C35.1611 78.8416 28.8554 85.4807 21.101 85.4807C13.3467 85.4807 7.04095 78.8416 7.04095 70.6778V22.732C7.04095 14.5682 13.3467 7.92918 21.101 7.92918V7.92444Z" fill="#D6D7D8"/>
<path opacity="0.35" d="M20.7792 7.59825H51.1338C58.8787 7.59825 65.1797 14.2325 65.1797 22.3869C65.1797 28.6044 61.4493 34.107 56.0335 36.2426C55.9341 36.2852 55.6643 36.3847 55.5649 36.4226C55.5412 36.432 55.5459 36.4747 55.5175 36.4841C55.5696 36.5457 55.7116 36.7162 55.7637 36.7825C57.9177 39.439 59.1106 42.8106 59.1106 46.3575C59.1106 54.3697 53.0274 60.914 45.4719 61.1366C45.3346 61.1413 44.9795 61.1461 44.8423 61.1461H35.0191L34.825 61.2455V70.328C34.825 78.4823 28.524 85.1166 20.7792 85.1166C13.0343 85.1166 6.73328 78.4823 6.73328 70.328V22.3822C6.73328 14.2278 13.0343 7.59351 20.7792 7.59351V7.59825Z" fill="#D2D3D4"/>
<path opacity="0.39" d="M20.4525 7.27124H50.8072C58.5473 7.27124 64.8436 13.9008 64.8436 22.0504C64.8436 28.2679 61.1132 33.7752 55.6832 35.9014C55.5885 35.9393 55.3092 36.0435 55.2098 36.0813C55.1861 36.0908 55.1956 36.1382 55.1719 36.1476C55.224 36.2092 55.3708 36.3844 55.4181 36.446C57.5768 39.0978 58.7698 42.4788 58.7698 46.0257C58.7698 54.0379 52.6818 60.5823 45.1216 60.7954C44.9938 60.8001 44.6198 60.8048 44.492 60.8048H34.6688L34.4842 60.9137V69.9962C34.4842 78.1458 28.1879 84.7753 20.4478 84.7753C12.7076 84.7753 6.41138 78.1458 6.41138 69.9962V22.0504C6.41138 13.9008 12.7076 7.27124 20.4478 7.27124H20.4525Z" fill="#CECFD0"/>
<path opacity="0.42" d="M20.1306 6.94885H50.4852C58.2206 6.94885 64.5121 13.5737 64.5121 21.7186C64.5121 27.9361 60.777 33.4434 55.3423 35.5696C55.2524 35.6075 54.9636 35.7164 54.8689 35.7495C54.8452 35.759 54.8595 35.8064 54.8358 35.8158C54.8831 35.8727 55.0346 36.0573 55.0819 36.1142C57.2407 38.766 58.4384 42.147 58.4384 45.6938C58.4384 53.7061 52.3457 60.2504 44.7807 60.454C44.6576 60.4588 44.2741 60.4635 44.1511 60.4635H34.3279L34.1528 60.5819V69.6691C34.1528 77.814 27.8612 84.4388 20.1258 84.4388C12.3904 84.4388 6.09888 77.814 6.09888 69.6691V21.7233C6.09888 13.5784 12.3904 6.95359 20.1258 6.95359L20.1306 6.94885Z" fill="#CACBCC"/>
<path opacity="0.45" d="M19.8039 6.62231H50.1585C57.8844 6.62231 64.1712 13.2424 64.1712 21.3778C64.1712 27.5954 60.4361 33.1074 54.9919 35.2241C54.9067 35.2572 54.6037 35.3709 54.5185 35.404C54.4996 35.4135 54.5138 35.4655 54.4901 35.4703C54.5375 35.5224 54.6937 35.7118 54.7363 35.7686C56.8998 38.4204 58.0975 41.8015 58.0975 45.353C58.0975 53.3653 52 59.9096 44.4303 60.099C44.3167 60.1038 43.919 60.1085 43.8007 60.1085H33.9776L33.8119 60.2364V69.3236C33.8119 77.459 27.5251 84.0791 19.7991 84.0791C12.0732 84.0791 5.78638 77.459 5.78638 69.3236V21.3778C5.78638 13.2424 12.0732 6.62231 19.7991 6.62231H19.8039Z" fill="#C6C7C8"/>
<path opacity="0.48" d="M19.4773 6.30066H49.8319C57.5532 6.30066 63.8352 12.916 63.8352 21.0467C63.8352 27.2642 60.0953 32.7762 54.6417 34.8882C54.5612 34.9214 54.2488 35.035 54.1683 35.0682C54.1494 35.0776 54.1683 35.1297 54.1494 35.1392C54.192 35.1913 54.3529 35.3854 54.3956 35.4375C56.5637 38.0893 57.7615 41.4751 57.7615 45.022C57.7615 53.0342 51.6545 59.5785 44.0848 59.7585C43.9759 59.7632 43.5641 59.768 43.4552 59.768H33.6321L33.4758 59.9053V68.9925C33.4758 77.1232 27.1938 83.7385 19.4726 83.7385C11.7514 83.7385 5.4693 77.1232 5.4693 68.9925V21.0467C5.4693 12.916 11.7514 6.30066 19.4726 6.30066H19.4773Z" fill="#C2C3C4"/>
<path opacity="0.52" d="M19.1553 5.97339H49.51C57.2265 5.97339 63.5038 12.584 63.5038 20.7052C63.5038 26.9227 59.7639 32.4347 54.3008 34.542C54.2251 34.5751 53.9032 34.6935 53.8274 34.7219C53.8085 34.7267 53.8321 34.7882 53.8132 34.793C53.8511 34.8403 54.0215 35.0439 54.0594 35.0913C56.2323 37.7431 57.43 41.1289 57.43 44.6805C57.43 52.6975 51.3184 59.237 43.7439 59.4075C43.6398 59.4122 43.2184 59.417 43.1143 59.417H33.2912L33.1444 59.5638V68.6557C33.1444 76.7817 26.8671 83.3875 19.1506 83.3875C11.4341 83.3875 5.1568 76.7769 5.1568 68.6557V20.7099C5.1568 12.584 11.4341 5.97813 19.1506 5.97813L19.1553 5.97339Z" fill="#BDBEC0"/>
<path opacity="0.55" d="M18.8286 5.65147H49.1833C56.895 5.65147 63.1629 12.2573 63.1629 20.3738C63.1629 26.5913 59.423 32.1081 53.9457 34.2106C53.8747 34.239 53.5433 34.3622 53.4723 34.3858C53.4534 34.3906 53.4818 34.4521 53.4676 34.4616C53.5055 34.5042 53.6806 34.7125 53.7137 34.7599C55.8867 37.4117 57.0891 40.7975 57.0891 44.3491C57.0891 52.3661 50.9727 58.9057 43.3935 59.062C43.2989 59.062 42.8586 59.0667 42.7639 59.0667H32.9408L32.8035 59.2229V68.3149C32.8035 76.4314 26.5309 83.0372 18.8239 83.0372C11.1169 83.0372 4.8443 76.4314 4.8443 68.3149V20.3691C4.8443 12.2526 11.1169 5.64673 18.8239 5.64673L18.8286 5.65147Z" fill="#B9BABC"/>
<path opacity="0.58" d="M18.5067 5.32481H48.8613C56.5636 5.32481 62.8315 11.9259 62.8315 20.0329C62.8315 26.2505 59.0869 31.7672 53.6048 33.865C53.5386 33.8934 53.1977 34.0165 53.1314 34.0402C53.1172 34.045 53.1456 34.1112 53.1314 34.1159C53.1646 34.1586 53.3445 34.3717 53.3776 34.4143C55.5553 37.0661 56.7577 40.4566 56.7577 44.0034C56.7577 52.0205 50.6319 58.5601 43.0527 58.7068C42.9627 58.7068 42.513 58.7116 42.423 58.7116H32.5952L32.4674 58.8773V67.974C32.4674 76.0857 26.1995 82.6821 18.4972 82.6821C10.795 82.6821 4.5271 76.081 4.5271 67.974V20.0282C4.5271 11.9164 10.795 5.32007 18.4972 5.32007L18.5067 5.32481Z" fill="#B5B6B8"/>
<path opacity="0.61" d="M18.1802 5.00328H48.5348C56.2323 5.00328 62.4955 11.595 62.4955 19.7019C62.4955 25.9195 58.7508 31.441 53.2594 33.5293C53.1978 33.5529 52.8475 33.6855 52.786 33.7045C52.7718 33.7092 52.8049 33.7755 52.7907 33.7802C52.8238 33.8181 53.0085 34.0407 53.0369 34.0786C55.2192 36.7304 56.4217 40.1209 56.4217 43.6725C56.4217 51.6895 50.2911 58.2291 42.7072 58.3664C42.6267 58.3664 42.1628 58.3712 42.0776 58.3712H32.2497L32.1314 58.5464V67.643C32.1314 75.75 25.8682 82.3417 18.1707 82.3417C10.4731 82.3417 4.21002 75.75 4.21002 67.643V19.6972C4.21002 11.5902 10.4731 4.99854 18.1707 4.99854L18.1802 5.00328Z" fill="#B1B2B4"/>
<path opacity="0.65" d="M17.8582 4.67627H48.2128C55.9056 4.67627 62.164 11.2632 62.164 19.3655C62.164 25.583 58.4194 31.1045 52.9137 33.188C52.8569 33.2117 52.4971 33.3443 52.4403 33.3632C52.4261 33.368 52.4687 33.439 52.4545 33.4438C52.4829 33.4769 52.6723 33.7089 52.7007 33.7421C54.8878 36.3939 56.095 39.7845 56.095 43.336C56.095 51.353 49.9597 57.8925 42.371 58.0204C42.2952 58.0204 41.8171 58.0251 41.7414 58.0251H31.9135L31.8046 58.2098V67.3113C31.8046 75.4088 25.5462 82.0004 17.8534 82.0004C10.1606 82.0004 3.90222 75.4135 3.90222 67.3113V19.3655C3.90222 11.2679 10.1606 4.67627 17.8534 4.67627H17.8582Z" fill="#ADAEB0"/>
<path opacity="0.68" d="M17.5316 4.34961H47.8863C55.5696 4.34961 61.8233 10.9318 61.8233 19.0246C61.8233 25.2421 58.0739 30.7684 52.5635 32.8472C52.5114 32.8662 52.1374 33.0035 52.0901 33.0224C52.0759 33.0224 52.1232 33.0981 52.109 33.1029C52.1374 33.136 52.3315 33.3681 52.3552 33.4012C54.5423 36.053 55.7542 39.4483 55.7542 42.9999C55.7542 51.0216 49.6095 57.5564 42.0208 57.6701C41.9545 57.6701 41.4622 57.6748 41.3912 57.6748H31.5633L31.4639 57.869V66.9704C31.4639 75.0632 25.2102 81.6454 17.5269 81.6454C9.84357 81.6454 3.5899 75.0632 3.5899 66.9704V19.0246C3.5899 10.9318 9.84357 4.34961 17.5269 4.34961H17.5316Z" fill="#A9AAAC"/>
<path opacity="0.71" d="M17.2097 4.02769H47.5643C55.2429 4.02769 61.4918 10.6051 61.4918 18.6932C61.4918 24.9107 57.7425 30.4369 52.2179 32.511C52.1753 32.53 51.7871 32.6673 51.7445 32.6862C51.735 32.6862 51.7823 32.7667 51.7681 32.7667C51.7918 32.7952 51.9954 33.0367 52.019 33.0651C54.2109 35.7169 55.4228 39.1122 55.4228 42.6637C55.4228 50.6855 49.2733 57.2203 41.6799 57.3245C41.6184 57.3245 41.1165 57.3245 41.0503 57.3245H31.2224L31.1325 57.5281V66.6343C31.1325 74.7223 24.8835 81.2998 17.2049 81.2998C9.52633 81.2998 3.2774 74.7223 3.2774 66.6343V18.6884C3.2774 10.6004 9.52633 4.02295 17.2049 4.02295L17.2097 4.02769Z" fill="#A5A6A8"/>
<path opacity="0.74" d="M16.8831 3.7003H47.2377C54.9116 3.7003 61.1558 10.273 61.1558 18.3516C61.1558 24.5739 57.4017 30.1001 51.8723 32.1647C51.8345 32.1789 51.4368 32.3257 51.3989 32.3399C51.3895 32.3399 51.4415 32.4205 51.4321 32.4252C51.451 32.4489 51.6593 32.6998 51.683 32.7235C53.8796 35.3753 55.0915 38.7754 55.0915 42.3222C55.0915 50.3439 48.9372 56.8787 41.3391 56.9734C41.287 56.9734 40.7663 56.9734 40.7142 56.9734H30.8864L30.8106 57.1866V66.2927C30.8106 74.3713 24.5664 80.944 16.8926 80.944C9.21868 80.944 2.97449 74.3713 2.97449 66.2927V18.3469C2.97449 10.2683 9.21868 3.69556 16.8926 3.69556L16.8831 3.7003Z" fill="#A1A2A4"/>
<path opacity="0.77" d="M16.5611 3.37876H46.9158C54.5849 3.37876 60.8196 9.94671 60.8196 18.0206C60.8196 24.2429 57.0655 29.7691 51.522 31.829C51.4888 31.8432 51.0817 31.99 51.0486 32.0042C51.0391 32.0042 51.0959 32.0894 51.0864 32.0894C51.1054 32.1131 51.3184 32.3641 51.3373 32.3878C53.5387 35.0396 54.7506 38.4395 54.7506 41.9911C54.7506 50.0128 48.5916 56.5477 40.9887 56.6282C40.9414 56.6282 40.4112 56.6282 40.3638 56.6282H30.536L30.4697 56.8507V65.9616C30.4697 74.0355 24.2303 80.6035 16.5658 80.6035C8.90145 80.6035 2.66199 74.0355 2.66199 65.9616V18.0158C2.66199 9.94197 8.90145 3.37402 16.5658 3.37402L16.5611 3.37876Z" fill="#9D9EA1"/>
<path opacity="0.81" d="M16.2344 3.05176H46.5891C54.2487 3.05176 60.4834 9.61502 60.4834 17.6841C60.4834 23.9064 56.7294 29.4326 51.1763 31.4925C51.1479 31.5067 50.7313 31.6535 50.6982 31.6677C50.6887 31.6677 50.7503 31.753 50.7408 31.7577C50.755 31.7766 50.9728 32.0371 50.9917 32.056C53.193 34.7078 54.4097 38.1079 54.4097 41.6594C54.4097 49.6812 48.2412 56.2207 40.6384 56.287C40.5958 56.287 40.0514 56.287 40.0135 56.287H30.1856L30.1288 56.5191V65.6299C30.1288 73.6991 23.8941 80.2623 16.2344 80.2623C8.57475 80.2623 2.34003 73.6991 2.34003 65.6299V17.6841C2.34003 9.61502 8.57475 3.05176 16.2344 3.05176Z" fill="#999A9D"/>
<path opacity="0.84" d="M15.9077 2.73022H46.2624C53.9173 2.73022 60.1473 9.28874 60.1473 17.3484C60.1473 23.5707 56.3885 29.1016 50.8307 31.152C50.807 31.1615 50.381 31.3177 50.3526 31.3272C50.3478 31.3272 50.4094 31.4172 50.4046 31.4172C50.4188 31.4314 50.6413 31.7013 50.6555 31.7155C52.8616 34.3673 54.0782 37.7721 54.0782 41.3237C54.0782 49.3501 47.9051 55.885 40.2975 55.9418C40.2643 55.9418 39.7057 55.9418 39.6726 55.9418H29.8447L29.7974 56.1833V65.2989C29.7974 73.3586 23.5674 79.9171 15.9125 79.9171C8.25752 79.9171 2.02753 73.3586 2.02753 65.2989V17.3531C2.02753 9.29348 8.25752 2.73491 15.9125 2.73491L15.9077 2.73022Z" fill="#949699"/>
<path opacity="0.87" d="M15.5859 2.40318H45.9406C53.5908 2.40318 59.8113 8.95694 59.8113 17.0118C59.8113 23.2341 56.0525 28.7651 50.4805 30.8108C50.4616 30.8202 50.026 30.9765 50.0024 30.986C49.9976 30.986 50.0639 31.076 50.0592 31.076C50.0686 31.0902 50.3006 31.3601 50.3101 31.3743C52.5209 34.0261 53.7375 37.4308 53.7375 40.9824C53.7375 49.0089 47.5596 55.5437 39.9473 55.5864C39.9189 55.5864 39.3508 55.5864 39.3224 55.5864H29.4945L29.4567 55.8373V64.9529C29.4567 73.0078 23.2314 79.5616 15.5859 79.5616C7.94047 79.5616 1.71521 73.0078 1.71521 64.9529V17.0071C1.71521 8.95221 7.94047 2.39844 15.5859 2.39844V2.40318Z" fill="#909295"/>
<path opacity="0.9" d="M15.2592 2.0813H45.6139C53.2593 2.0813 59.4751 8.63032 59.4751 16.6757C59.4751 22.898 55.7116 28.4337 50.1349 30.4699C50.1207 30.4747 49.6709 30.6357 49.6567 30.6451C49.6567 30.6451 49.723 30.7398 49.7183 30.7398C49.7277 30.7493 49.9597 31.0287 49.9692 31.0382C52.18 33.69 53.4014 37.0947 53.4014 40.651C53.4014 48.6775 47.214 55.2123 39.6016 55.2455C39.5827 55.2455 38.9957 55.2455 38.9768 55.2455H29.1442L29.1158 55.5059V64.6263C29.1158 72.6765 22.8952 79.2207 15.2545 79.2207C7.61377 79.2207 1.39325 72.6717 1.39325 64.6263V16.6805C1.39325 8.63032 7.61377 2.08598 15.2545 2.08598L15.2592 2.0813Z" fill="#8C8E91"/>
<path opacity="0.94" d="M14.9373 1.75464H45.2919C52.9279 1.75464 59.1437 8.29897 59.1437 16.3397C59.1437 22.562 55.3801 28.0976 49.7892 30.1339C49.7798 30.1339 49.3206 30.3043 49.3111 30.3091L49.3821 30.4037C49.3868 30.4085 49.6283 30.6973 49.633 30.7021C51.8485 33.3492 53.0699 36.7634 53.0699 40.3149C53.0699 48.3414 46.8778 54.8762 39.2607 54.8999C39.2465 54.8999 38.6501 54.8999 38.6359 54.8999H28.8033L28.7843 55.1699V64.2902C28.7843 72.3309 22.5685 78.8752 14.9325 78.8752C7.29654 78.8752 1.08075 72.3309 1.08075 64.2902V16.3444C1.08075 8.30371 7.29654 1.75938 14.9325 1.75938L14.9373 1.75464Z" fill="#888A8D"/>
<path opacity="0.97" d="M14.6106 1.43266H44.9652C52.5965 1.43266 58.8076 7.97224 58.8076 16.0035C58.8076 22.2258 55.044 27.7662 49.4436 29.7929C49.4389 29.7929 48.9702 29.9634 48.9655 29.9634C48.9655 29.9634 49.0412 30.0581 49.0412 30.0629L49.2921 30.3612C51.5124 33.0083 52.7338 36.4225 52.7338 39.974C52.7338 48.0005 46.5369 54.5353 38.9151 54.5448C38.9104 54.5448 38.2997 54.5448 38.2902 54.5448H28.4577L28.4482 54.8242V63.9445C28.4482 71.9805 22.2371 78.5154 14.6059 78.5154C6.9746 78.5154 0.76355 71.9758 0.76355 63.9445V15.9987C0.76355 7.96277 6.9746 1.42798 14.6059 1.42798L14.6106 1.43266Z" fill="#848689"/>
<path d="M14.2888 78.1742C6.66222 78.1742 0.460632 71.6441 0.460632 63.6129V15.667C0.460632 7.63582 6.66222 1.10571 14.2888 1.10571H44.6434C52.2699 1.10571 58.4715 7.63582 58.4715 15.667C58.4715 21.8893 54.7032 27.4297 49.0934 29.4517L48.6152 29.6222L48.9514 30.02C51.1764 32.6671 52.3977 36.086 52.3977 39.6376C52.3977 47.6688 46.1961 54.1989 38.5696 54.1989H28.1121V63.6081C28.1121 71.6393 21.9105 78.1694 14.284 78.1694L14.2888 78.1742Z" fill="#808285"/>
</g>
<path d="M14.2888 78.5295C6.47765 78.5295 0.124573 71.8384 0.124573 63.613V15.6672C0.124573 7.44184 6.47765 0.750732 14.2888 0.750732H44.6434C52.4546 0.750732 58.8077 7.44184 58.8077 15.6672C58.8077 22.1026 54.8264 27.7614 49.2023 29.7881C51.4699 32.492 52.7339 35.9631 52.7339 39.6377C52.7339 47.8631 46.3808 54.5542 38.5697 54.5542H28.453V63.6083C28.453 71.8337 22.1 78.5248 14.2888 78.5248V78.5295Z" fill="url(#paint0_linear_53_37900)"/>
<path d="M14.2889 77.1093C7.22094 77.1093 1.47382 71.0527 1.47382 63.6134V15.6676C1.47382 8.22832 7.22567 2.17175 14.2889 2.17175H44.6435C51.7114 2.17175 57.4585 8.22832 57.4585 15.6676C57.4585 22.4534 52.6771 28.0838 46.4756 29.0261C49.4627 31.498 51.3848 35.3384 51.3848 39.6429C51.3848 47.0822 45.6329 53.1388 38.5697 53.1388H27.1039V63.6134C27.1039 71.0527 21.352 77.1093 14.2889 77.1093Z" fill="url(#paint1_linear_53_37900)"/>
<path d="M26.5736 30.0486H24.4433C23.951 30.0486 23.558 29.6509 23.558 29.1584V26.1372C23.558 25.6447 23.9557 25.2469 24.4433 25.2469H26.5736C27.066 25.2469 27.4589 25.6447 27.4589 26.1372C27.4589 26.6297 27.0612 27.0275 26.5736 27.0275H25.3333V28.2681H26.5736C27.066 28.2681 27.4589 28.6659 27.4589 29.1584C27.4589 29.6509 27.0612 30.0486 26.5736 30.0486Z" fill="#8C3D96"/>
<path d="M35.2701 51.0074H30.9337C30.4414 51.0074 30.0485 50.6097 30.0485 50.1172C30.0485 49.6247 30.4461 49.2269 30.9337 49.2269H35.2701C35.7625 49.2269 36.1554 49.6247 36.1554 50.1172C36.1554 50.6097 35.7577 51.0074 35.2701 51.0074ZM39.6065 50.9554C39.1568 50.9554 38.7733 50.6144 38.726 50.1598C38.6739 49.672 39.0289 49.2364 39.5165 49.1843C40.8326 49.047 42.0824 48.6255 43.228 47.9342C43.6494 47.6832 44.1938 47.8158 44.4447 48.2372C44.6956 48.6587 44.563 49.2032 44.1417 49.4542C42.7736 50.2829 41.2776 50.7849 39.6964 50.9506C39.6633 50.9506 39.6349 50.9554 39.6018 50.9554H39.6065ZM46.8212 46.6367C46.646 46.6367 46.4708 46.5846 46.3146 46.4757C45.9122 46.1963 45.8128 45.6422 46.0921 45.2397C46.8543 44.1458 47.375 42.9241 47.6449 41.6077C47.7443 41.1294 48.2082 40.8169 48.6911 40.9116C49.174 41.0063 49.4817 41.4751 49.387 41.9581C49.0698 43.5113 48.4544 44.9556 47.5502 46.2531C47.3798 46.4993 47.1005 46.6319 46.8212 46.6319V46.6367ZM48.5112 38.3687C48.0994 38.3687 47.7301 38.0798 47.6402 37.6583C47.3703 36.3466 46.8496 35.125 46.0827 34.0311C45.8033 33.6286 45.898 33.0745 46.3004 32.7951C46.7028 32.5158 47.2567 32.6104 47.536 33.013C48.4402 34.3057 49.0604 35.75 49.3775 37.3032C49.477 37.7815 49.1645 38.255 48.6864 38.3498C48.6248 38.364 48.568 38.3687 48.5065 38.3687H48.5112ZM43.6683 31.4692C43.5121 31.4692 43.3559 31.4266 43.2138 31.3414C42.0682 30.6547 40.8184 30.2333 39.5023 30.1007C39.0147 30.0486 38.6597 29.613 38.7118 29.1252C38.7638 28.6375 39.1994 28.2823 39.687 28.3344C41.2681 28.4954 42.7641 28.9974 44.1322 29.8213C44.5536 30.0723 44.6861 30.6216 44.4352 31.0383C44.2695 31.3177 43.976 31.4692 43.673 31.4692H43.6683ZM35.2512 30.0533H30.9148C30.4225 30.0533 30.0295 29.6556 30.0295 29.1631C30.0295 28.6706 30.4272 28.2728 30.9148 28.2728H35.2512C35.7435 28.2728 36.1364 28.6706 36.1364 29.1631C36.1364 29.6556 35.7388 30.0533 35.2512 30.0533Z" fill="#8C3D96"/>
<path d="M24.4433 53.1381C23.951 53.1381 23.558 52.7403 23.558 52.2479V50.1169C23.558 49.6245 23.9557 49.2267 24.4433 49.2267H26.5736C27.066 49.2267 27.4589 49.6245 27.4589 50.1169C27.4589 50.6094 27.0612 51.0072 26.5736 51.0072H25.3333V52.2479C25.3333 52.7403 24.9356 53.1381 24.448 53.1381H24.4433Z" fill="#8C3D96"/>
<path d="M12.5135 74.8169C12.4614 74.8169 12.4093 74.8169 12.3525 74.8027C10.8471 74.5281 9.44108 73.9456 8.16763 73.0648C7.76523 72.7854 7.66108 72.2361 7.94039 71.8289C8.2197 71.4264 8.77358 71.3222 9.17597 71.6016C10.2411 72.3356 11.4199 72.8233 12.6744 73.0553C13.1573 73.1453 13.4745 73.6047 13.3893 74.0877C13.3088 74.5138 12.9395 74.8169 12.5182 74.8169H12.5135ZM16.67 74.6891C16.2723 74.6891 15.9078 74.4191 15.8084 74.0166C15.69 73.5431 15.9788 73.0601 16.4569 72.9417C17.6925 72.6339 18.8381 72.0704 19.8607 71.2749C20.2489 70.9718 20.8075 71.0428 21.1057 71.4264C21.4087 71.8147 21.3377 72.3687 20.9543 72.6718C19.7329 73.6236 18.3647 74.296 16.883 74.6654C16.812 74.6843 16.741 74.6938 16.67 74.6938V74.6891ZM5.7864 70.2236C5.49289 70.2236 5.20412 70.0768 5.03843 69.8116C4.22417 68.5236 3.67503 67.1077 3.41939 65.5971C3.33891 65.1141 3.66082 64.6548 4.14369 64.5695C4.62657 64.4843 5.08577 64.8111 5.17098 65.2941C5.38875 66.5726 5.85268 67.7706 6.53912 68.8598C6.80422 69.2718 6.6764 69.8211 6.26454 70.0863C6.11779 70.181 5.9521 70.2236 5.79114 70.2236H5.7864ZM23.1082 69.6885C22.9615 69.6885 22.8147 69.6506 22.6774 69.5748C22.2466 69.3381 22.0952 68.7983 22.3319 68.3673C22.9568 67.2403 23.3449 66.0186 23.4917 64.7305C23.5485 64.2428 23.984 63.8971 24.4716 63.9492C24.9592 64.006 25.3096 64.4417 25.2528 64.9294C25.0823 66.4542 24.6184 67.8985 23.8799 69.2291C23.7189 69.5227 23.416 69.6885 23.1035 69.6885H23.1082ZM4.13423 62.1498C3.64189 62.1498 3.24896 61.752 3.24896 61.2595V57.064C3.24896 56.5715 3.64662 56.1737 4.13423 56.1737C4.62183 56.1737 5.01949 56.5715 5.01949 57.064V61.2595C5.01949 61.752 4.62183 62.1498 4.13423 62.1498ZM24.4432 61.5294C23.9509 61.5294 23.558 61.1316 23.558 60.6391V56.4436C23.558 55.9511 23.9556 55.5533 24.4432 55.5533C24.9308 55.5533 25.3285 55.9511 25.3285 56.4436V60.6391C25.3285 61.1316 24.9308 61.5294 24.4432 61.5294ZM4.13423 53.7634C3.64189 53.7634 3.24896 53.3656 3.24896 52.8731V48.6775C3.24896 48.1851 3.64662 47.7873 4.13423 47.7873C4.62183 47.7873 5.01949 48.1851 5.01949 48.6775V52.8731C5.01949 53.3656 4.62183 53.7634 4.13423 53.7634ZM4.13423 45.3723C3.64189 45.3723 3.24896 44.9745 3.24896 44.482V40.2864C3.24896 39.794 3.64662 39.3962 4.13423 39.3962C4.62183 39.3962 5.01949 39.794 5.01949 40.2864V44.482C5.01949 44.9745 4.62183 45.3723 4.13423 45.3723ZM4.13423 36.9812C3.64189 36.9812 3.24896 36.5834 3.24896 36.0909V31.8954C3.24896 31.4029 3.64662 31.0051 4.13423 31.0051C4.62183 31.0051 5.01949 31.4029 5.01949 31.8954V36.0909C5.01949 36.5834 4.62183 36.9812 4.13423 36.9812ZM4.13423 28.5901C3.64189 28.5901 3.24896 28.1923 3.24896 27.6998V23.5043C3.24896 23.0118 3.64662 22.614 4.13423 22.614C4.62183 22.614 5.01949 23.0118 5.01949 23.5043V27.6998C5.01949 28.1923 4.62183 28.5901 4.13423 28.5901ZM43.3983 27.0321H39.204C38.7116 27.0321 38.3187 26.6343 38.3187 26.1418C38.3187 25.6494 38.7164 25.2516 39.204 25.2516H43.3983C43.8907 25.2516 44.2836 25.6494 44.2836 26.1418C44.2836 26.6343 43.8859 27.0321 43.3983 27.0321ZM35.0096 27.0321H30.8153C30.3229 27.0321 29.93 26.6343 29.93 26.1418C29.93 25.6494 30.3276 25.2516 30.8153 25.2516H35.0096C35.5019 25.2516 35.8996 25.6494 35.8996 26.1418C35.8996 26.6343 35.5019 27.0321 35.0096 27.0321ZM47.5453 26.5964C47.1666 26.5964 46.8163 26.3502 46.6979 25.9714C46.5559 25.5026 46.8163 25.0054 47.285 24.8633C48.5016 24.4892 49.6188 23.8641 50.5988 23.0118C50.9728 22.6897 51.5314 22.7276 51.8533 23.097C52.1752 23.4663 52.1373 24.0298 51.7681 24.3519C50.5988 25.37 49.2685 26.1087 47.8104 26.5586C47.7252 26.587 47.6353 26.5964 47.5501 26.5964H47.5453ZM53.7138 21.2597C53.5812 21.2597 53.4487 21.2312 53.3256 21.1697C52.8853 20.9519 52.7054 20.4215 52.9185 19.9811C53.4865 18.8257 53.8132 17.585 53.8937 16.2875C53.9268 15.7998 54.3387 15.4352 54.8358 15.4588C55.3234 15.4872 55.6973 15.9087 55.6689 16.4012C55.5743 17.9307 55.1861 19.3987 54.5186 20.7672C54.3623 21.0797 54.0499 21.2644 53.7233 21.2644L53.7138 21.2597ZM4.13423 20.1989C3.64189 20.1989 3.24896 19.8011 3.24896 19.3086V15.6624C3.24896 15.4635 3.2537 15.2694 3.26316 15.0705C3.28684 14.5828 3.67503 14.1944 4.19577 14.2276C4.68338 14.2513 5.0621 14.668 5.03843 15.1605C5.02896 15.3262 5.02423 15.4967 5.02423 15.6624V19.3086C5.02423 19.8011 4.62657 20.1989 4.13896 20.1989H4.13423ZM54.2345 13.1006C53.8653 13.1006 53.5197 12.8686 53.3919 12.4992C52.9753 11.2727 52.3314 10.1646 51.4793 9.1986C51.1527 8.82924 51.1905 8.27045 51.5551 7.94371C51.9196 7.62171 52.4829 7.65013 52.8096 8.0195C53.8179 9.16072 54.5801 10.4772 55.0725 11.9262C55.2287 12.3903 54.9825 12.8922 54.5186 13.0532C54.4239 13.0864 54.3292 13.1006 54.2345 13.1006ZM5.16151 11.9641C5.03369 11.9641 4.90587 11.9357 4.78279 11.8788C4.33779 11.6705 4.15316 11.1401 4.36146 10.695C5.01949 9.30753 5.92843 8.09053 7.06459 7.07716C7.42912 6.75042 7.99247 6.78357 8.31911 7.1482C8.64576 7.51282 8.61262 8.07635 8.2481 8.40309C7.28709 9.26019 6.52018 10.2878 5.9663 11.4574C5.81481 11.7794 5.49763 11.9641 5.16151 11.9641ZM48.8141 6.99663C48.6862 6.99663 48.5631 6.96825 48.4401 6.91143C47.2755 6.36686 46.0352 6.08746 44.7475 6.07326C44.2552 6.06852 43.8623 5.666 43.8717 5.17352C43.8765 4.68104 44.2741 4.30222 44.7712 4.29749C46.3097 4.31643 47.7962 4.65264 49.1928 5.30139C49.6378 5.50974 49.8271 6.03537 49.6236 6.48049C49.4721 6.8025 49.1549 6.99195 48.8188 6.99195L48.8141 6.99663ZM11.2637 6.5468C10.8897 6.5468 10.5394 6.30527 10.421 5.93117C10.2695 5.46237 10.5252 4.96516 10.9938 4.81363C12.059 4.46794 13.1668 4.29749 14.2935 4.29749H15.4107C15.903 4.29749 16.296 4.69526 16.296 5.183C16.296 5.67075 15.8983 6.06852 15.4107 6.06852H14.2935C13.3561 6.06852 12.4283 6.21533 11.5383 6.49945C11.4483 6.52787 11.3536 6.54206 11.2637 6.54206V6.5468ZM40.5674 6.07326H36.373C35.8807 6.07326 35.4877 5.67549 35.4877 5.18774C35.4877 4.7 35.8854 4.30223 36.373 4.30223H40.5674C41.0597 4.30223 41.4526 4.7 41.4526 5.18774C41.4526 5.67549 41.055 6.07326 40.5674 6.07326ZM32.1834 6.07326H27.989C27.4967 6.07326 27.1038 5.67549 27.1038 5.18774C27.1038 4.7 27.5014 4.30223 27.989 4.30223H32.1834C32.6757 4.30223 33.0687 4.7 33.0687 5.18774C33.0687 5.67549 32.671 6.07326 32.1834 6.07326ZM23.7947 6.07326H19.6003C19.108 6.07326 18.7151 5.67549 18.7151 5.18774C18.7151 4.7 19.1127 4.30223 19.6003 4.30223H23.7947C24.287 4.30223 24.6799 4.7 24.6799 5.18774C24.6799 5.67549 24.2823 6.07326 23.7947 6.07326Z" fill="#8C3D96"/>
<path d="M44.6435 9.27441H14.2888C10.9371 9.27441 8.21979 12.1346 8.21979 15.6672V63.613C8.21979 67.1456 10.9371 70.0058 14.2888 70.0058C17.6405 70.0058 20.3579 67.1456 20.3579 63.613V46.0352H38.5697C41.9214 46.0352 44.6387 43.1751 44.6387 39.6425C44.6387 36.1099 41.9214 33.2497 38.5697 33.2497H20.3579V22.0647H44.6435C47.9952 22.0647 50.7125 19.2045 50.7125 15.6719C50.7125 12.1393 47.9952 9.27915 44.6435 9.27915V9.27441Z" fill="url(#paint2_linear_53_37900)"/>
<defs>
<linearGradient id="paint0_linear_53_37900" x1="0.119839" y1="39.6377" x2="58.8124" y2="39.6377" gradientUnits="userSpaceOnUse">
<stop stop-color="#F1F2F2"/>
<stop offset="1" stop-color="#D1D3D4"/>
</linearGradient>
<linearGradient id="paint1_linear_53_37900" x1="1.46908" y1="39.6382" x2="57.4633" y2="39.6382" gradientUnits="userSpaceOnUse">
<stop stop-color="#D1D3D4"/>
<stop offset="1" stop-color="#F1F2F2"/>
</linearGradient>
<linearGradient id="paint2_linear_53_37900" x1="8.21505" y1="39.6377" x2="50.7172" y2="39.6377" gradientUnits="userSpaceOnUse">
<stop stop-color="#9155A6"/>
<stop offset="0.22" stop-color="#8E479D"/>
<stop offset="0.52" stop-color="#8C3F97"/>
<stop offset="1" stop-color="#8C3D96"/>
</linearGradient>
</defs>
</svg>
