<svg width="77" height="89" viewBox="0 0 77 89" fill="none" xmlns="http://www.w3.org/2000/svg">
<g style="mix-blend-mode:multiply">
<path opacity="0.03" d="M45.1828 10.8673C56.7433 10.8673 67.6032 17.0802 74.2214 27.4933C77.3837 32.4655 77.4026 38.8677 74.3729 43.8351C74.3208 43.9204 74.2592 44.0151 74.2072 44.1003C74.2498 44.1619 74.2924 44.2329 74.3303 44.2992C75.8262 46.7143 76.6121 49.4892 76.6121 52.4109V63.0656C76.6121 70.3486 72.3988 74.8661 71.0117 76.353L70.8744 76.4999C64.1758 84.3085 55.0343 88.6272 45.1781 88.6272C25.6549 88.6272 9.77222 71.1868 9.77222 49.7496C9.77222 28.3125 25.6549 10.872 45.1781 10.872L45.1828 10.8673Z" fill="#FBFBFB"/>
<path opacity="0.06" d="M44.8608 10.5406C56.4213 10.5406 67.2718 16.7535 73.8899 27.1619C77.0523 32.134 77.0712 38.5363 74.0367 43.499C73.9846 43.5842 73.9231 43.6789 73.871 43.7642C73.9089 43.8257 73.9562 43.9015 73.9941 43.963C75.49 46.3733 76.2759 49.153 76.2759 52.0747V62.7294C76.2759 70.0077 72.0626 74.5252 70.6803 76.0074L70.543 76.1542C63.8443 83.9582 54.7076 88.2768 44.8561 88.2768C25.3377 88.2768 9.45972 70.8411 9.45972 49.4087C9.45972 27.9763 25.3377 10.5406 44.8561 10.5406H44.8608Z" fill="#F7F7F7"/>
<path opacity="0.1" d="M44.5344 10.2191C56.0901 10.2191 66.9405 16.432 73.554 26.8309C76.7163 31.8031 76.7305 38.2006 73.696 43.1633C73.6439 43.2438 73.5824 43.3432 73.5303 43.4284C73.5682 43.49 73.6203 43.5658 73.6534 43.6273C75.1541 46.0376 75.9399 48.8173 75.9399 51.739V62.3937C75.9399 69.6672 71.7314 74.1801 70.3443 75.6622L70.207 75.809C63.5084 83.6129 54.3764 87.9269 44.5249 87.9269C25.0159 87.9269 9.1427 70.4959 9.1427 49.073C9.1427 27.6501 25.0159 10.2191 44.5249 10.2191H44.5344Z" fill="#F3F3F3"/>
<path opacity="0.13" d="M44.2123 9.89246C55.7634 9.89246 66.6091 16.1005 73.2225 26.4994C76.3849 31.4716 76.3991 37.8692 73.3598 42.8271C73.3125 42.9076 73.2462 43.0118 73.1989 43.0875C73.2367 43.1444 73.2888 43.2296 73.3219 43.2864C74.8226 45.6967 75.6085 48.4812 75.6085 51.3982V62.0528C75.6085 69.3216 71.3999 73.8344 70.0176 75.3166L69.8803 75.4634C63.1864 83.2626 54.0544 87.5812 44.2076 87.5812C24.7034 87.5812 8.8349 70.155 8.8349 48.7369C8.8349 27.3187 24.7034 9.89246 44.2076 9.89246H44.2123Z" fill="#EFEFEF"/>
<path opacity="0.16" d="M43.8858 9.57019C55.4321 9.57019 66.2778 15.7783 72.8865 26.1725C76.0441 31.1399 76.063 37.5374 73.019 42.5001C72.9717 42.5759 72.9054 42.6848 72.8581 42.7606C72.8912 42.8174 72.948 42.9026 72.9859 42.9594C74.4866 45.3697 75.2772 48.1542 75.2772 51.0712V61.7258C75.2772 68.9899 71.0733 73.498 69.691 74.9801L69.5537 75.127C62.8598 82.9261 53.7326 87.2401 43.8858 87.2401C24.3863 87.2401 8.52252 69.8186 8.52252 48.4099C8.52252 27.0012 24.3863 9.57967 43.8858 9.57967V9.57019Z" fill="#EBEBEB"/>
<path opacity="0.19" d="M43.5638 9.24353C55.1101 9.24353 65.9463 15.4469 72.5597 25.8411C75.7173 30.8085 75.7315 37.206 72.6875 42.164C72.6449 42.235 72.5739 42.3486 72.5266 42.4196C72.5597 42.4717 72.6213 42.5665 72.6544 42.6185C74.1551 45.0289 74.9457 47.8133 74.9457 50.7303V61.3849C74.9457 68.6443 70.7419 73.1523 69.3595 74.6298L69.2222 74.7766C62.5283 82.5758 53.4058 86.885 43.5638 86.885C24.069 86.885 8.21472 69.4682 8.21472 48.0642C8.21472 26.6603 24.0737 9.24353 43.5638 9.24353Z" fill="#E6E7E7"/>
<path opacity="0.23" d="M43.2371 8.92126C54.7787 8.92126 65.6149 15.1246 72.2236 25.5141C75.3812 30.4815 75.3954 36.8743 72.3419 41.8322C72.2993 41.9033 72.2283 42.0169 72.181 42.088C72.2141 42.14 72.2757 42.2348 72.3088 42.2869C73.8142 44.6972 74.6048 47.4816 74.6048 50.3986V61.0532C74.6048 68.3078 70.4057 72.8112 69.0234 74.2933L68.8861 74.4401C62.1922 82.2346 53.0744 86.5438 43.2371 86.5438C23.7518 86.5438 7.89752 69.1365 7.89752 47.7326C7.89752 26.3286 23.7518 8.92126 43.2371 8.92126Z" fill="#E2E3E3"/>
<path opacity="0.26" d="M42.9153 8.5946C54.4522 8.5946 65.2836 14.798 71.8923 25.1827C75.0499 30.1454 75.0641 36.5429 72.006 41.4961C71.9633 41.5624 71.8923 41.6808 71.8497 41.7471C71.8829 41.7944 71.9444 41.8986 71.9776 41.9459C73.483 44.3562 74.2736 47.1406 74.2736 50.0576V60.7123C74.2736 67.9622 70.0745 72.4655 68.6969 73.943L68.5596 74.0898C61.8704 81.8842 52.7526 86.1934 42.9153 86.1934C23.4348 86.1934 7.58521 68.7909 7.58521 47.3964C7.58521 26.0019 23.4348 8.59934 42.9153 8.59934V8.5946Z" fill="#DEDFE0"/>
<path opacity="0.29" d="M42.5886 8.26768C54.1208 8.26768 64.9522 14.4663 71.5562 24.851C74.7138 29.8137 74.7233 36.2065 71.6651 41.1597C71.6272 41.226 71.5515 41.3444 71.5089 41.4107C71.5373 41.458 71.6036 41.5622 71.6367 41.6096C73.1421 44.0199 73.9374 46.8043 73.9374 49.7166V60.3712C73.9374 67.6163 69.7431 72.115 68.3607 73.5924L68.2234 73.7392C61.5343 81.5336 52.4212 85.8381 42.5886 85.8381C23.1128 85.8381 7.26801 68.4403 7.26801 47.0505C7.26801 25.6608 23.1128 8.26294 42.5886 8.26294V8.26768Z" fill="#DADBDC"/>
<path opacity="0.32" d="M42.2666 7.94568C53.7987 7.94568 64.6207 14.1443 71.2247 24.5243C74.3823 29.487 74.3917 35.875 71.3288 40.8282C71.291 40.8898 71.2105 41.0129 71.1726 41.0744C71.201 41.1171 71.272 41.226 71.3004 41.2734C72.8106 43.6789 73.6012 46.4681 73.6012 49.3803V60.035C73.6012 67.2754 69.4068 71.7693 68.0292 73.2515L67.8919 73.3982C61.2027 81.1879 52.0944 85.4924 42.2666 85.4924C22.8002 85.4924 6.96014 68.0993 6.96014 46.7191C6.96014 25.3388 22.8002 7.94568 42.2666 7.94568Z" fill="#D6D7D8"/>
<path opacity="0.35" d="M41.9401 7.61902C53.4674 7.61902 64.2894 13.8129 70.8887 24.1929C74.0415 29.1508 74.0557 35.5436 70.9881 40.4921C70.9502 40.5489 70.8697 40.6768 70.8366 40.7384C70.865 40.781 70.936 40.8946 70.9644 40.9372C72.4746 43.3428 73.2699 46.132 73.2699 49.0443V59.6989C73.2699 66.9346 69.0803 71.4284 67.7027 72.9058L67.5654 73.0527C60.8809 80.8424 51.7726 85.1469 41.9448 85.1469C22.4832 85.1469 6.64783 67.7585 6.64783 46.3829C6.64783 25.0074 22.4832 7.61902 41.9448 7.61902H41.9401Z" fill="#D2D3D4"/>
<path opacity="0.39" d="M41.6134 7.29749C53.1361 7.29749 63.9533 13.4914 70.5526 23.8666C73.7055 28.8246 73.7149 35.2126 70.6473 40.1658C70.6141 40.2227 70.5289 40.3552 70.4958 40.4073C70.5194 40.4499 70.5952 40.5636 70.6236 40.6062C72.1338 43.0118 72.9291 45.8009 72.9291 48.7132V59.3678C72.9291 66.5988 68.7394 71.0879 67.3618 72.5653L67.2246 72.7122C60.5401 80.5019 51.4366 84.8016 41.6134 84.8016C22.1565 84.8016 6.32593 67.418 6.32593 46.0519C6.32593 24.6858 22.1565 7.30223 41.6134 7.30223V7.29749Z" fill="#CECFD0"/>
<path opacity="0.42" d="M41.2914 6.97009C52.8093 6.97009 63.6266 13.164 70.2211 23.5345C73.374 28.4924 73.3835 34.8805 70.3111 39.829C70.2779 39.8811 70.1927 40.0184 70.1596 40.0705C70.1832 40.1084 70.2637 40.2315 70.2874 40.2694C71.7975 42.675 72.5929 45.4641 72.5929 48.3764V59.031C72.5929 66.2572 68.408 70.7463 67.0304 72.219L66.8931 72.3659C60.2086 80.1509 51.1098 84.4505 41.2914 84.4505C21.8393 84.4505 6.01813 67.0717 6.01813 45.7103C6.01813 24.349 21.844 6.97009 41.2914 6.97009Z" fill="#CACBCC"/>
<path opacity="0.45" d="M40.9647 6.64817C52.4779 6.64817 63.2904 12.8373 69.885 23.2078C73.0378 28.1658 73.0473 34.5491 69.9654 39.4976C69.937 39.5449 69.8471 39.687 69.8139 39.7343C69.8376 39.7722 69.9181 39.8953 69.9418 39.9332C71.4566 42.3388 72.252 45.1279 72.252 48.0402V58.6948C72.252 65.9163 68.0671 70.4007 66.6942 71.8782L66.5569 72.0249C59.8772 79.8099 50.7784 84.1049 40.96 84.1049C21.5173 84.1049 5.69617 66.7308 5.69617 45.3742C5.69617 24.0176 21.5173 6.64343 40.96 6.64343L40.9647 6.64817Z" fill="#C6C7C8"/>
<path opacity="0.48" d="M40.6429 6.3219C52.1561 6.3219 62.9639 12.5111 69.5537 22.8769C72.7066 27.8301 72.7113 34.2181 69.6294 39.1618C69.601 39.2092 69.5111 39.3512 69.4827 39.3986C69.5064 39.4317 69.5868 39.5643 69.6105 39.5975C71.1254 42.0031 71.9207 44.7922 71.9207 47.7045V58.3591C71.9207 65.5758 67.7406 70.0603 66.363 71.533L66.2257 71.6798C59.546 79.4647 50.4519 83.7597 40.6382 83.7597C21.2003 83.7597 5.38385 66.3903 5.38385 45.0432C5.38385 23.6961 21.2003 6.32664 40.6382 6.32664L40.6429 6.3219Z" fill="#C2C3C4"/>
<path opacity="0.52" d="M40.3162 5.99925C51.8246 5.99925 62.6277 12.1836 69.2175 22.5494C72.3656 27.5026 72.3751 33.8859 69.2885 38.8297C69.2601 38.8723 69.1702 39.0191 69.1418 39.0617C69.1607 39.0949 69.2459 39.2275 69.2696 39.2606C70.7845 41.6662 71.5845 44.4553 71.5845 47.3676V58.0222C71.5845 65.2342 67.4044 69.7139 66.0315 71.1866L65.8942 71.3334C59.2145 79.1136 50.1251 83.4086 40.3162 83.4086C20.883 83.4086 5.07605 66.044 5.07605 44.7016C5.07605 23.3592 20.8877 5.99451 40.3162 5.99451V5.99925Z" fill="#BDBEC0"/>
<path opacity="0.55" d="M39.9944 5.67297C51.4981 5.67297 62.3012 11.8574 68.891 22.2137C72.0391 27.1669 72.0438 33.5502 68.9573 38.4892C68.9336 38.5319 68.8389 38.6787 68.8105 38.7213C68.8294 38.7497 68.9194 38.8918 68.9383 38.9202C70.4532 41.3258 71.2533 44.1149 71.2533 47.0272V57.6818C71.2533 64.8891 67.0778 69.3687 65.705 70.8414L65.5677 70.9882C58.888 78.7685 49.8033 83.0587 39.9944 83.0587C20.5659 83.0587 4.76373 65.6988 4.76373 44.3659C4.76373 23.033 20.5707 5.67297 39.9944 5.67297Z" fill="#B9BABC"/>
<path opacity="0.58" d="M39.6677 5.34639C51.1667 5.34639 61.965 11.5308 68.5548 21.8823C71.7029 26.8308 71.7077 33.2142 68.6163 38.1532C68.5927 38.1911 68.498 38.3426 68.4743 38.3805C68.4933 38.4089 68.5832 38.5509 68.6021 38.5793C70.1218 40.9802 70.9218 43.774 70.9218 46.6863V57.3409C70.9218 64.5435 66.7464 69.0184 65.3735 70.4911L65.2362 70.6379C58.5613 78.4182 49.4766 82.7037 39.6725 82.7037C20.2534 82.7037 4.45123 65.3485 4.45123 44.0203C4.45123 22.6921 20.2534 5.33691 39.6725 5.33691L39.6677 5.34639Z" fill="#B5B6B8"/>
<path opacity="0.61" d="M39.3457 5.02452C50.8447 5.02452 61.6383 11.2042 68.2233 21.5558C71.3714 26.5043 71.3762 32.8828 68.2801 37.8266C68.2564 37.8597 68.1618 38.016 68.1381 38.0539C68.1523 38.0775 68.247 38.2244 68.2659 38.2528C69.7855 40.6536 70.5856 43.4475 70.5856 46.3598V57.0144C70.5856 64.2122 66.4149 68.6871 65.042 70.1551L64.9048 70.3019C58.2298 78.0774 49.1499 82.3677 39.3504 82.3677C19.9362 82.3677 4.13867 65.0219 4.13867 43.6937C4.13867 22.3655 19.9362 5.01978 39.3504 5.01978L39.3457 5.02452Z" fill="#B1B2B4"/>
<path opacity="0.65" d="M39.0192 4.69739C50.5134 4.69739 61.307 10.8771 67.8873 21.2239C71.0355 26.1724 71.0355 32.5509 67.9394 37.49C67.9205 37.5231 67.8163 37.6841 67.7974 37.7125C67.8116 37.7362 67.911 37.8877 67.9252 37.9114C69.4448 40.3123 70.2496 43.1061 70.2496 46.0184V56.673C70.2496 63.8661 66.0789 68.3363 64.7108 69.809L64.5735 69.9558C57.8985 77.7313 48.8234 82.0168 39.0239 82.0168C19.6144 82.0168 3.82635 64.6758 3.82635 43.3571C3.82635 22.0384 19.6144 4.69739 39.0239 4.69739H39.0192Z" fill="#ADAEB0"/>
<path opacity="0.68" d="M38.6926 4.37559C50.1821 4.37559 60.9709 10.5505 67.5512 20.8974C70.6946 25.8411 70.6994 32.2197 67.5939 37.1587C67.5749 37.1871 67.4708 37.3529 67.4518 37.3813C67.466 37.4002 67.5655 37.5565 67.5797 37.5801C69.104 39.981 69.9041 42.7749 69.9041 45.6871V56.3418C69.9041 63.5301 65.7381 68.0003 64.3653 69.4682L64.228 69.6151C57.5577 77.3858 48.4826 81.6713 38.6878 81.6713C19.283 81.6713 3.49976 64.3351 3.49976 43.0211C3.49976 21.7071 19.283 4.37085 38.6878 4.37085L38.6926 4.37559Z" fill="#A9AAAC"/>
<path opacity="0.71" d="M38.3706 4.04893C49.8553 4.04893 60.6442 10.2239 67.2198 20.566C70.3632 25.5097 70.3679 31.8883 67.2577 36.8225C67.2435 36.851 67.1346 37.0167 67.1204 37.0404C67.1346 37.0593 67.234 37.2203 67.2482 37.2393C68.7725 39.6401 69.5773 42.434 69.5773 45.3462V56.0009C69.5773 63.1845 65.4114 67.6499 64.0433 69.1179L63.906 69.2647C57.2357 77.0355 48.1653 81.3162 38.3706 81.3162C18.9752 81.3162 3.19196 63.9847 3.19196 42.6802C3.19196 21.3757 18.9705 4.04419 38.3706 4.04419V4.04893Z" fill="#A5A6A8"/>
<path opacity="0.74" d="M38.0438 3.72693C49.5286 3.72693 60.308 9.90187 66.8836 20.2392C70.027 25.183 70.027 31.5568 66.9167 36.4911C66.9025 36.5148 66.7936 36.6852 66.7794 36.7089C66.7889 36.7279 66.8978 36.8889 66.9072 36.9078C68.4316 39.3087 69.2364 42.1026 69.2364 45.0148V55.6694C69.2364 62.8483 65.0752 67.3137 63.707 68.7817L63.5697 68.9285C56.8995 76.6993 47.8338 80.9801 38.0438 80.9801C18.6532 80.9801 2.87939 63.6533 2.87939 42.3535C2.87939 21.0538 18.6532 3.72693 38.0438 3.72693Z" fill="#A1A2A4"/>
<path opacity="0.77" d="M37.7221 3.39954C49.2021 3.39954 59.9815 9.56974 66.5523 19.9071C69.6957 24.8461 69.6957 31.2247 66.5807 36.1542C66.5665 36.1731 66.4577 36.3484 66.4435 36.3673C66.4529 36.3815 66.5618 36.552 66.5713 36.5662C68.0956 38.967 68.9004 41.7656 68.9004 44.6732V55.3278C68.9004 62.5019 64.7392 66.9627 63.3711 68.4306L63.2338 68.5775C56.5683 76.3435 47.5026 80.6243 37.7173 80.6243C18.3314 80.6243 2.56238 63.3022 2.56238 42.0119C2.56238 20.7216 18.3314 3.39954 37.7173 3.39954H37.7221Z" fill="#9D9EA1"/>
<path opacity="0.81" d="M37.3954 3.07774C48.8707 3.07774 59.6453 9.24794 66.2162 19.5806C69.3596 24.5196 69.3596 30.8934 66.2398 35.823C66.2304 35.8419 66.1168 36.0171 66.1073 36.036C66.1168 36.0502 66.2256 36.2207 66.2351 36.2349C67.7642 38.6311 68.569 41.4344 68.569 44.3419V54.9966C68.569 62.1659 64.4125 66.6267 63.0444 68.0899L62.9071 68.2367C56.2416 76.0027 47.1806 80.2788 37.3954 80.2788C18.0189 80.2788 2.24988 62.9615 2.24988 41.6759C2.24988 20.3903 18.0142 3.073 37.3954 3.073V3.07774Z" fill="#999A9D"/>
<path opacity="0.84" d="M37.0734 2.75108C48.5439 2.75108 59.3186 8.91654 65.8847 19.2492C69.0234 24.1882 69.0234 30.562 65.9036 35.4915C65.8942 35.5057 65.7805 35.6857 65.7711 35.6999C65.7758 35.7094 65.8894 35.8893 65.8989 35.8988C67.428 38.2949 68.2328 41.0983 68.2328 44.0058V54.6604C68.2328 61.8251 64.0763 66.2811 62.7129 67.7443L62.5756 67.8911C55.9101 75.6571 46.8539 79.9332 37.0734 79.9332C17.7017 79.9332 1.94208 62.6206 1.94208 41.3398C1.94208 20.0589 17.7017 2.74634 37.0734 2.74634V2.75108Z" fill="#949699"/>
<path opacity="0.87" d="M36.7468 2.42908C48.2174 2.42908 58.9826 8.59453 65.5487 18.9224C68.6874 23.8614 68.6874 30.2305 65.5582 35.1601C65.5487 35.1696 65.4351 35.3543 65.4256 35.3685C65.4304 35.3779 65.5487 35.5579 65.5534 35.5673C67.0825 37.9634 67.8921 40.7668 67.8921 43.6743V54.3289C67.8921 61.4888 63.7403 65.9448 62.3722 67.4081L62.2349 67.5549C55.5694 75.3162 46.5179 79.5922 36.7421 79.5922C17.3752 79.5922 1.6203 62.2844 1.6203 41.013C1.6203 19.7417 17.3752 2.43382 36.7421 2.43382L36.7468 2.42908Z" fill="#909295"/>
<path opacity="0.9" d="M36.4249 2.10215C47.8907 2.10215 58.6559 8.2676 65.222 18.5908C68.3607 23.525 68.3607 29.8941 65.2267 34.8237C65.222 34.8332 65.1037 35.0225 65.0942 35.0273C65.0942 35.032 65.2173 35.2214 65.222 35.2262C66.7511 37.6223 67.5606 40.4256 67.5606 43.3332V53.9878C67.5606 61.143 63.4089 65.5942 62.0455 67.0575L61.9082 67.2043C55.2474 74.9656 46.1959 79.2369 36.4201 79.2369C17.0579 79.2369 1.3078 61.9338 1.3078 40.6671C1.3078 19.4005 17.0579 2.09741 36.4201 2.09741L36.4249 2.10215Z" fill="#8C8E91"/>
<path opacity="0.94" d="M36.0981 1.77588C47.5592 1.77588 58.3197 7.93665 64.8858 18.2598C68.0245 23.1941 68.0197 29.5631 64.8858 34.4879C64.8858 34.4927 64.758 34.6868 64.758 34.6916C64.758 34.6916 64.8811 34.8857 64.8858 34.8905C66.4196 37.2866 67.2292 40.0899 67.2292 42.9975V53.6521C67.2292 60.8025 63.0821 65.2538 61.7187 66.7123L61.5814 66.8591C54.9207 74.6204 45.8739 78.8869 36.1029 78.8869C16.7501 78.8869 1 61.5886 1 40.3314C1 19.0743 16.7454 1.77588 36.1029 1.77588H36.0981Z" fill="#888A8D"/>
<path opacity="0.97" d="M35.7763 1.45396C47.2327 1.45396 57.9931 7.61466 64.5545 17.9283C67.6932 22.8626 67.6884 29.227 64.5545 34.1518L64.4267 34.3507C64.4267 34.3507 64.5545 34.5448 64.5545 34.5495C66.0883 36.9457 66.8979 39.749 66.8979 42.6565V53.3112C66.8979 60.4569 62.7509 64.9034 61.3875 66.3667L61.2502 66.5134C54.5894 74.27 45.5474 78.5413 35.7811 78.5413C16.4331 78.5413 0.692383 61.2477 0.692383 39.9952C0.692383 18.7428 16.4331 1.44922 35.7811 1.44922L35.7763 1.45396Z" fill="#848689"/>
<path d="M35.4497 78.1954C16.1064 78.1954 0.370483 60.9112 0.370483 39.6588C0.370483 18.4064 16.1064 1.12695 35.4497 1.12695C46.9013 1.12695 57.657 7.28297 64.2184 17.5967C67.3523 22.5262 67.3523 28.8953 64.2089 33.8154L64.0811 34.0142L64.2089 34.2131C65.7428 36.6092 66.557 39.4126 66.557 42.3201V52.9747C66.557 60.1157 62.4147 64.5623 61.0513 66.0208L60.9141 66.1675C54.258 73.9241 45.216 78.1907 35.4497 78.1907V78.1954Z" fill="#808285"/>
</g>
<path d="M35.4497 78.5504C15.9218 78.5504 0.0344238 61.1052 0.0344238 39.6634C0.0344238 18.2215 15.9218 0.776367 35.4497 0.776367C47.015 0.776367 57.8749 6.99393 64.4978 17.4071C67.7217 22.4739 67.6791 29.0182 64.4883 34.0235C66.0648 36.4812 66.8932 39.3319 66.8932 42.3294V52.984C66.8932 60.2718 62.6752 64.7941 61.2881 66.281L61.1508 66.4278C54.4474 74.2365 45.306 78.5599 35.445 78.5599L35.4497 78.5504Z" fill="url(#paint0_linear_53_37857)"/>
<path d="M35.4498 77.1302C16.6651 77.1302 1.38367 60.3196 1.38367 39.6638C1.38367 19.008 16.6651 2.19739 35.4498 2.19739C46.5653 2.19739 57.0038 8.1782 63.3759 18.1983C66.5335 23.161 66.1358 29.5537 62.822 34.0239C64.5262 36.3158 65.544 39.1997 65.544 42.3298V52.9844C65.544 59.6898 61.6195 63.8995 60.3271 65.2822L60.1899 65.4338C53.7232 72.9631 44.9273 77.1349 35.4498 77.1349V77.1302ZM34.1669 29.3028C33.1348 29.4969 32.1691 29.9278 31.2933 30.5434C32.188 30.0131 33.1538 29.5963 34.1669 29.3028Z" fill="url(#paint1_linear_53_37857)"/>
<path d="M60.4265 36.3914C60.1708 36.3914 59.9199 36.2826 59.7448 36.0742C59.3282 35.5723 58.8595 35.1177 58.353 34.7152C58.1399 34.5447 58.0168 34.2889 58.0168 34.019C58.0168 33.7491 58.1399 33.4934 58.353 33.3229C58.8595 32.9204 59.3282 32.4658 59.74 31.9639C60.0525 31.585 60.6111 31.5329 60.9898 31.8455C61.3685 32.158 61.4206 32.7168 61.1082 33.0956C60.8383 33.4176 60.5543 33.7254 60.2513 34.019C60.5543 34.3079 60.8383 34.6157 61.1034 34.9377C61.4159 35.3118 61.3685 35.8753 60.9898 36.1879C60.8241 36.3252 60.6206 36.3962 60.4217 36.3962L60.4265 36.3914Z" fill="#EC008C"/>
<path d="M34.8864 74.9939H34.8675C33.381 74.9655 31.8898 74.8234 30.4317 74.5724C29.9488 74.4872 29.6222 74.0326 29.7074 73.5496C29.7926 73.0666 30.2518 72.7446 30.7299 72.8251C32.1028 73.0619 33.5041 73.1944 34.9006 73.2181C35.393 73.2276 35.7812 73.6348 35.7717 74.1226C35.7622 74.6056 35.3646 74.9939 34.8864 74.9939ZM39.2039 74.7618C38.7636 74.7618 38.3801 74.4351 38.3233 73.9852C38.2618 73.4975 38.6026 73.0524 39.0902 72.9908C40.4726 72.8109 41.8549 72.5315 43.1946 72.1479C43.6681 72.0153 44.1557 72.2852 44.2929 72.7588C44.4255 73.2323 44.1557 73.72 43.6823 73.8574C42.2573 74.2646 40.7898 74.563 39.3175 74.7524C39.2796 74.7571 39.2417 74.7618 39.2039 74.7618ZM26.3841 73.5401C26.2941 73.5401 26.1995 73.5259 26.1048 73.4927C24.7035 73.0287 23.3164 72.4557 21.9909 71.7833C21.5554 71.5607 21.3755 71.0304 21.598 70.59C21.8205 70.1496 22.3507 69.9791 22.791 70.1969C24.0455 70.8267 25.3473 71.3713 26.6634 71.807C27.1273 71.9632 27.383 72.4652 27.2268 72.9293C27.1037 73.3034 26.7581 73.5401 26.3841 73.5401ZM47.5074 72.3989C47.1712 72.3989 46.8493 72.2048 46.6978 71.878C46.4943 71.4329 46.6931 70.9073 47.1381 70.7036C48.4021 70.1307 49.6424 69.4535 50.8212 68.6911C51.233 68.4259 51.7822 68.5443 52.0473 68.9563C52.3124 69.3682 52.194 69.9175 51.7822 70.1827C50.5277 70.9925 49.2116 71.7075 47.8719 72.3184C47.7535 72.3705 47.6304 72.3989 47.5074 72.3989ZM18.6771 69.6618C18.5019 69.6618 18.3268 69.6098 18.1705 69.5008C16.9634 68.6627 15.7988 67.7251 14.7052 66.7164C14.3454 66.385 14.3218 65.8214 14.6532 65.4615C14.9845 65.1017 15.5479 65.078 15.9077 65.4095C16.9444 66.3613 18.0475 67.2468 19.1884 68.0424C19.5907 68.3217 19.6902 68.8758 19.4109 69.2783C19.2404 69.5245 18.9611 69.6571 18.6818 69.6571L18.6771 69.6618ZM54.7741 67.7346C54.5232 67.7346 54.277 67.6304 54.1019 67.4267C53.78 67.0526 53.8226 66.4939 54.1966 66.1766C55.2475 65.2721 56.2559 64.2777 57.2027 63.2217C57.5293 62.8571 58.0927 62.8239 58.4572 63.1507C58.8217 63.4774 58.8548 64.0409 58.5282 64.4056C57.534 65.5184 56.4689 66.5649 55.3564 67.5214C55.1907 67.6635 54.9824 67.7346 54.7788 67.7346H54.7741ZM12.3193 63.8279C12.0636 63.8279 11.8127 63.7189 11.6376 63.5106C10.6955 62.3835 9.81023 61.176 9.01018 59.9306C8.74508 59.5187 8.86343 58.9693 9.28002 58.7041C9.69188 58.4389 10.241 58.5574 10.5061 58.9741C11.2636 60.1579 12.1062 61.2991 13.001 62.3741C13.3134 62.7482 13.2661 63.3117 12.8921 63.6242C12.7264 63.7615 12.5228 63.8326 12.324 63.8326L12.3193 63.8279ZM60.6064 61.356C60.4407 61.356 60.2703 61.3086 60.1236 61.2139C59.7117 60.944 59.5981 60.3947 59.8679 59.9875C60.6301 58.8178 61.1982 57.5771 61.5532 56.3128C61.6858 55.8393 62.1734 55.5646 62.6468 55.6924C63.1202 55.825 63.3948 56.3128 63.2622 56.7863C62.8598 58.2306 62.2207 59.637 61.3544 60.9582C61.184 61.2186 60.8999 61.3607 60.6112 61.3607L60.6064 61.356ZM7.64678 56.559C7.3154 56.559 6.99822 56.3743 6.84673 56.0571C6.21237 54.7359 5.64902 53.3531 5.17088 51.9515C5.01466 51.4874 5.26083 50.9807 5.72476 50.8244C6.19343 50.6634 6.69524 50.9144 6.85146 51.3785C7.30593 52.7139 7.84088 54.0303 8.44683 55.2899C8.65986 55.7303 8.47524 56.2607 8.03024 56.4738C7.90715 56.5353 7.7746 56.5637 7.64678 56.5637V56.559ZM62.8835 53.1448C62.3912 53.1448 61.9982 52.747 61.9982 52.2545V47.9216C61.9982 47.4292 62.3959 47.0314 62.8835 47.0314C63.3711 47.0314 63.7688 47.4292 63.7688 47.9216V52.2545C63.7688 52.747 63.3711 53.1448 62.8835 53.1448ZM4.86317 48.3763C4.45131 48.3763 4.08679 48.0922 3.99684 47.6707C3.68913 46.2312 3.46663 44.7584 3.32934 43.2905C3.282 42.8027 3.64179 42.3718 4.12939 42.3244C4.617 42.2723 5.04779 42.637 5.09513 43.1247C5.22295 44.5264 5.44072 45.9281 5.7295 47.3013C5.83364 47.7796 5.52593 48.2531 5.04779 48.3526C4.98625 48.3668 4.92471 48.3715 4.86317 48.3715V48.3763ZM62.8835 44.4791C62.3912 44.4791 61.9982 44.0813 61.9982 43.5888V42.3244C61.9982 41.3774 61.8657 40.4445 61.6006 39.5448C61.4633 39.076 61.7331 38.5788 62.2018 38.4414C62.6705 38.3041 63.1628 38.574 63.3048 39.0428C63.6173 40.1035 63.7735 41.2069 63.7735 42.3197V43.5841C63.7735 44.0765 63.3758 44.4743 62.8882 44.4743L62.8835 44.4791ZM4.05838 39.7721C4.05838 39.7721 4.04418 39.7721 4.03944 39.7721C3.5471 39.7626 3.15891 39.3553 3.16838 38.8676C3.19679 37.3949 3.31514 35.908 3.51397 34.4495C3.58024 33.9617 4.02998 33.6208 4.51285 33.6871C5.00045 33.7534 5.33657 34.1985 5.27503 34.6862C5.08567 36.0785 4.97678 37.4943 4.94838 38.9008C4.93891 39.3838 4.54125 39.7721 4.06311 39.7721H4.05838ZM5.22295 31.2057C5.14721 31.2057 5.0762 31.1962 5.00045 31.1773C4.52705 31.0542 4.23827 30.5712 4.36136 30.0977C4.73061 28.6676 5.18508 27.247 5.72003 25.8737C5.89992 25.4144 6.4112 25.1918 6.8704 25.367C7.3296 25.547 7.5521 26.0584 7.37694 26.5177C6.8704 27.8247 6.43487 29.179 6.08455 30.538C5.9804 30.9405 5.62061 31.2057 5.22769 31.2057H5.22295ZM62.4669 29.5058C62.3864 29.5058 62.306 29.4963 62.2255 29.4726C61.7521 29.34 61.4775 28.8523 61.6101 28.3787C61.8562 27.498 61.9793 26.5887 61.9793 25.67C61.9793 25.2581 61.9556 24.8414 61.9036 24.4341C61.842 23.9464 62.1876 23.5013 62.6752 23.4444C63.1486 23.3829 63.6031 23.7286 63.6646 24.2163C63.7262 24.6993 63.7546 25.187 63.7546 25.6748C63.7546 26.7497 63.6078 27.8247 63.319 28.857C63.2101 29.25 62.8551 29.5058 62.4669 29.5058ZM8.35688 23.1508C8.21486 23.1508 8.07284 23.1177 7.94029 23.0467C7.50949 22.8146 7.3438 22.2748 7.57577 21.8439C8.27641 20.5369 9.06226 19.2678 9.90965 18.0698C10.1937 17.6673 10.7476 17.5725 11.1452 17.8567C11.5476 18.1408 11.6423 18.6949 11.3583 19.0926C10.5535 20.2339 9.8055 21.4414 9.138 22.682C8.97704 22.9804 8.66933 23.1508 8.35688 23.1508ZM61.4018 21.1383C61.0988 21.1383 60.8005 20.982 60.6348 20.6979C60.5828 20.6079 60.526 20.518 60.4691 20.428C59.7732 19.3341 59.0111 18.2734 58.2015 17.279C57.8938 16.9001 57.9506 16.3413 58.3294 16.0288C58.7081 15.721 59.2667 15.7778 59.5791 16.1567C60.4313 17.2079 61.2361 18.3207 61.9698 19.4714C62.0361 19.5756 62.1024 19.6846 62.1687 19.7935C62.4148 20.2149 62.2775 20.7595 61.8515 21.0104C61.7095 21.0957 61.5532 21.1336 61.4018 21.1336V21.1383ZM13.356 16.0998C13.143 16.0998 12.9252 16.0241 12.7548 15.8631C12.395 15.5316 12.3713 14.9681 12.7027 14.6082C13.7111 13.5143 14.7904 12.482 15.9219 11.5397C16.3006 11.2271 16.8592 11.2745 17.1717 11.6533C17.4841 12.0321 17.4368 12.5909 17.058 12.9035C15.9881 13.7937 14.9609 14.7739 14.0093 15.811C13.8342 16.0004 13.5975 16.0998 13.356 16.0998ZM55.9481 14.4425C55.7304 14.4425 55.5126 14.362 55.3375 14.2009C54.3149 13.2349 53.2213 12.3352 52.0899 11.5302C51.6922 11.2461 51.5976 10.692 51.8816 10.2895C52.1656 9.89174 52.7195 9.79706 53.1219 10.0812C54.3196 10.9383 55.4747 11.8854 56.5541 12.9082C56.9092 13.2444 56.9281 13.8079 56.592 14.1631C56.4168 14.3478 56.1801 14.4425 55.9481 14.4425ZM19.9979 10.5736C19.6996 10.5736 19.4109 10.4268 19.2452 10.1569C18.9848 9.74019 19.1126 9.19091 19.5292 8.9352C20.7932 8.14912 22.1187 7.44828 23.4679 6.85635C23.9177 6.65747 24.4384 6.86586 24.6372 7.31099C24.8361 7.76085 24.6325 8.28173 24.1828 8.48062C22.914 9.03939 21.6643 9.69762 20.4713 10.4411C20.3245 10.531 20.1636 10.5736 20.0026 10.5736H19.9979ZM48.9181 9.43244C48.7808 9.43244 48.6388 9.39925 48.511 9.33295C47.2659 8.68421 45.9688 8.12542 44.6575 7.67083C44.1935 7.50982 43.9474 7.00319 44.1083 6.53912C44.2693 6.07505 44.7711 5.8288 45.2398 5.9898C46.6316 6.47281 48.0092 7.06946 49.33 7.75609C49.7655 7.98339 49.9359 8.5185 49.7087 8.95416C49.5525 9.25722 49.24 9.43244 48.9181 9.43244ZM27.8942 7.11682C27.5061 7.11682 27.1463 6.85637 27.0374 6.46334C26.9096 5.9898 27.1889 5.50203 27.6623 5.37417C29.0967 4.98587 30.569 4.70179 32.0413 4.53132C32.5241 4.46976 32.9691 4.82487 33.0259 5.31261C33.0828 5.80036 32.7324 6.24079 32.2448 6.29761C30.8625 6.45861 29.4754 6.72376 28.1309 7.08838C28.0505 7.10733 27.9747 7.12156 27.899 7.12156L27.8942 7.11682ZM40.7661 6.60536C40.714 6.60536 40.6572 6.60067 40.6004 6.5912C39.2275 6.33076 37.8263 6.1745 36.4344 6.12714C35.9421 6.1082 35.5634 5.70093 35.5776 5.20845C35.5965 4.71597 35.9989 4.3419 36.496 4.35137C37.9777 4.40346 39.469 4.56916 40.927 4.84381C41.4099 4.93379 41.7271 5.39788 41.6372 5.88089C41.5567 6.30708 41.1827 6.60536 40.7661 6.60536Z" fill="#EC008C"/>
<path d="M35.8758 54.0353C35.4024 54.0353 35.0095 53.666 34.9905 53.1877C34.9905 53.1025 34.9905 53.022 35.0142 52.9462C34.9669 52.8089 34.9527 52.6573 34.9811 52.501C35.0663 52.018 35.5349 51.696 36.0084 51.7813C36.5149 51.8712 37.0356 51.9139 37.5564 51.9139H37.9824C38.4227 51.9139 38.8014 52.2406 38.863 52.6763C38.9245 53.1166 38.6547 53.5334 38.2286 53.6518C37.4759 53.8649 36.7043 53.9927 35.9279 54.0306C35.9137 54.0306 35.8995 54.0306 35.8853 54.0306L35.8758 54.0353Z" fill="#EC008C"/>
<path d="M32.1975 52.1177C32.0318 52.1177 31.8661 52.0703 31.7193 51.9756C30.5169 51.2038 29.4801 50.2141 28.6375 49.035C28.3534 48.6372 28.4434 48.0832 28.8458 47.7943C29.2481 47.5102 29.7973 47.6001 30.0861 48.0026C30.7962 48.9971 31.6672 49.8305 32.6803 50.4792C33.0922 50.7444 33.2105 51.2938 32.9502 51.7057C32.7797 51.9709 32.4957 52.113 32.2022 52.113L32.1975 52.1177ZM27.7191 45.8481C27.3214 45.8481 26.9616 45.5781 26.8575 45.1756C26.6255 44.2475 26.5071 43.2909 26.5071 42.3249C26.5071 41.8608 26.5355 41.392 26.5876 40.9374C26.6444 40.4497 27.0989 40.104 27.5723 40.1608C28.0599 40.2177 28.4055 40.658 28.3487 41.1458C28.3013 41.5341 28.2777 41.9319 28.2777 42.3249C28.2777 43.1441 28.3771 43.9539 28.5759 44.7399C28.6943 45.2135 28.4055 45.6965 27.9321 45.8196C27.8611 45.8386 27.7853 45.8481 27.7143 45.8481H27.7191ZM28.6422 38.1862C28.5002 38.1862 28.3582 38.153 28.2256 38.082C27.7948 37.85 27.6291 37.3149 27.8611 36.8792C28.538 35.6054 29.4375 34.4878 30.5263 33.5644C30.9003 33.2472 31.4589 33.2945 31.7761 33.6638C32.0933 34.0379 32.0507 34.5967 31.6767 34.914C30.7583 35.6953 30.0009 36.6377 29.428 37.7126C29.2671 38.011 28.9594 38.1814 28.6422 38.1814V38.1862ZM34.5171 33.214C34.1431 33.214 33.7928 32.9725 33.6745 32.5984C33.523 32.1296 33.7786 31.6324 34.2473 31.4808C35.3124 31.1352 36.4249 30.96 37.5516 30.96H38.4132C38.9056 30.96 39.2985 31.3577 39.2985 31.8502C39.2985 32.3427 38.9008 32.7405 38.4132 32.7405H37.5516C36.6096 32.7405 35.6817 32.8873 34.7917 33.1761C34.7018 33.2046 34.6071 33.2188 34.5171 33.2188V33.214Z" fill="#EC008C"/>
<path d="M44.5012 32.7358H42.3709C41.8786 32.7358 41.4809 32.3381 41.4809 31.8456C41.4809 31.3531 41.8786 30.9553 42.3709 30.9553H42.8064C42.7307 30.8606 42.6549 30.7659 42.5792 30.676C42.2667 30.2971 42.3188 29.7383 42.6975 29.4258C43.0763 29.1133 43.6349 29.1654 43.9473 29.5442C44.3213 29.9941 44.6716 30.4771 44.9841 30.9695C45.0646 31.0927 45.145 31.2158 45.2303 31.3342C45.4196 31.6041 45.4433 31.9592 45.2918 32.2528C45.1403 32.5464 44.8373 32.7311 44.5059 32.7311L44.5012 32.7358Z" fill="#EC008C"/>
<path d="M31.5916 53.2064C31.4685 53.2064 31.3454 53.1827 31.2271 53.1259C29.8258 52.4914 28.5523 51.5584 27.4351 50.3509C27.1037 49.991 27.1227 49.4276 27.4824 49.0961C27.8422 48.7646 28.4008 48.7835 28.737 49.1434C29.6932 50.1758 30.7773 50.9713 31.9608 51.5064C32.4058 51.71 32.6047 52.2356 32.4011 52.6808C32.2543 53.0075 31.9324 53.2016 31.5916 53.2016V53.2064ZM25.6977 46.9888C25.3569 46.9888 25.0349 46.7947 24.8882 46.4632C24.2633 45.0757 23.842 43.5793 23.6289 42.0214C23.5627 41.5336 23.9035 41.0885 24.3864 41.0222C24.8692 40.9607 25.319 41.2921 25.3853 41.7799C25.5746 43.1674 25.9533 44.498 26.5072 45.7339C26.7061 46.179 26.5072 46.7047 26.0622 46.9083C25.9439 46.9604 25.8208 46.9841 25.6977 46.9841V46.9888ZM24.4905 38.4272C24.4527 38.4272 24.4148 38.4272 24.3722 38.4178C23.8846 38.3562 23.5437 37.9064 23.6053 37.4233C23.8088 35.8654 24.2207 34.369 24.8361 32.9768C25.0349 32.5269 25.5557 32.3233 26.0054 32.5222C26.4552 32.7211 26.6587 33.242 26.4599 33.6919C25.9155 34.9325 25.5462 36.2679 25.3663 37.6554C25.3095 38.1005 24.9261 38.4272 24.4858 38.4272H24.4905ZM28.0079 30.5523C27.7949 30.5523 27.5819 30.4765 27.4114 30.3203C27.0469 29.9888 27.0232 29.43 27.3499 29.0654C28.4529 27.8484 29.7216 26.9013 31.1134 26.2526C31.5584 26.0442 32.0839 26.2383 32.2922 26.6835C32.5005 27.1286 32.3064 27.6542 31.8614 27.8626C30.6826 28.4119 29.608 29.2169 28.6612 30.2587C28.4861 30.4529 28.2446 30.5523 28.0032 30.5523H28.0079ZM39.914 28.2225C39.772 28.2225 39.6252 28.1893 39.4927 28.1136C38.2808 27.4553 37.0026 27.1002 35.7055 27.0576C35.2178 27.0434 34.8297 26.6314 34.8486 26.1389C34.8675 25.6464 35.2463 25.2629 35.767 25.2818C37.3434 25.3339 38.882 25.7601 40.3401 26.5509C40.7709 26.7829 40.9318 27.3227 40.6999 27.7537C40.5389 28.052 40.2359 28.2177 39.9187 28.2177L39.914 28.2225Z" fill="#EC008C"/>
<path d="M52.7243 35.9322H37.5469C34.1952 35.9322 31.4779 38.7924 31.4779 42.325C31.4779 45.8576 34.1952 48.7178 37.5469 48.7178H46.6552V51.6301C46.5085 51.7721 46.3475 51.8905 46.2102 52.0515C43.3367 55.3994 39.5163 57.2415 35.4498 57.2415C27.08 57.2415 20.2724 49.3571 20.2724 39.659C20.2724 29.9609 27.08 22.0812 35.4498 22.0812C40.2501 22.0812 44.8231 24.7662 47.6825 29.2553C49.5477 32.1913 53.3207 32.9726 56.1044 31.0121C58.888 29.047 59.6359 25.0787 57.7707 22.1428C52.6532 14.0973 44.3119 9.29565 35.4498 9.29565C20.3861 9.29565 8.12964 22.9194 8.12964 39.659C8.12964 56.3986 20.3861 70.0223 35.4498 70.0223C42.9958 70.0223 50.0164 66.6838 55.2191 60.6178C55.9008 59.8223 58.798 57.2367 58.798 52.9749V42.3203C58.798 38.7877 56.0807 35.9275 52.729 35.9275L52.7243 35.9322Z" fill="url(#paint2_linear_53_37857)"/>
<defs>
<linearGradient id="paint0_linear_53_37857" x1="0.0344238" y1="39.6634" x2="66.8979" y2="39.6634" gradientUnits="userSpaceOnUse">
<stop stop-color="#F1F2F2"/>
<stop offset="1" stop-color="#D1D3D4"/>
</linearGradient>
<linearGradient id="paint1_linear_53_37857" x1="1.38367" y1="39.6638" x2="65.544" y2="39.6638" gradientUnits="userSpaceOnUse">
<stop stop-color="#D1D3D4"/>
<stop offset="1" stop-color="#F1F2F2"/>
</linearGradient>
<linearGradient id="paint2_linear_53_37857" x1="8.12964" y1="39.6637" x2="58.798" y2="39.6637" gradientUnits="userSpaceOnUse">
<stop stop-color="#F033A3"/>
<stop offset="0.04" stop-color="#EF2DA0"/>
<stop offset="0.2" stop-color="#ED1997"/>
<stop offset="0.39" stop-color="#EC0A90"/>
<stop offset="0.62" stop-color="#EC028D"/>
<stop offset="1" stop-color="#EC008C"/>
</linearGradient>
</defs>
</svg>
