<svg width="75" height="90" viewBox="0 0 75 90" fill="none" xmlns="http://www.w3.org/2000/svg">
<g style="mix-blend-mode:multiply">
<path opacity="0.03" d="M59.9092 88.7389C52.1028 88.7389 45.7544 82.0526 45.7544 73.8319V63.1678H38.6486V73.8319C38.6486 82.0526 32.3003 88.7389 24.4939 88.7389C16.6875 88.7389 10.3391 82.0526 10.3391 73.8319V25.8861C10.3391 17.6655 16.6875 10.9791 24.4939 10.9791C32.3003 10.9791 38.6486 17.6655 38.6486 25.8861V33.3538H45.7544V25.8861C45.7544 17.6655 52.1028 10.9791 59.9092 10.9791C67.7156 10.9791 74.064 17.6655 74.064 25.8861V73.8319C74.064 82.0526 67.7156 88.7389 59.9092 88.7389Z" fill="#FBFBFB"/>
<path opacity="0.06" d="M59.5825 88.3882C51.7808 88.3882 45.4372 81.7065 45.4372 73.4953V62.8171H38.3125V73.4953C38.3125 81.7065 31.9689 88.3882 24.1672 88.3882C16.3655 88.3882 10.0219 81.7065 10.0219 73.4953V25.5495C10.0219 17.3383 16.3655 10.6567 24.1672 10.6567C31.9689 10.6567 38.3125 17.3383 38.3125 25.5495V33.0315H45.4372V25.5495C45.4372 17.3383 51.7808 10.6567 59.5825 10.6567C67.3842 10.6567 73.7278 17.3383 73.7278 25.5495V73.4953C73.7278 81.7065 67.3842 88.3882 59.5825 88.3882Z" fill="#F7F7F7"/>
<path opacity="0.1" d="M59.2608 88.0427C51.4686 88.0427 45.1249 81.3658 45.1249 73.1594V62.4716H37.9766V73.1594C37.9766 81.3658 31.6377 88.0427 23.8407 88.0427C16.0438 88.0427 9.7049 81.3658 9.7049 73.1594V25.2136C9.7049 17.0071 16.0438 10.3302 23.8407 10.3302C31.6377 10.3302 37.9766 17.0071 37.9766 25.2136V32.7049H45.1249V25.2136C45.1249 17.0071 51.4638 10.3302 59.2608 10.3302C67.0577 10.3302 73.3966 17.0071 73.3966 25.2136V73.1594C73.3966 81.3658 67.0577 88.0427 59.2608 88.0427Z" fill="#F3F3F3"/>
<path opacity="0.13" d="M58.934 87.6926C51.1466 87.6926 44.8124 81.0205 44.8124 72.8235V62.1215H37.6404V72.8235C37.6404 81.0252 31.3062 87.6926 23.5187 87.6926C15.7312 87.6926 9.39709 81.0205 9.39709 72.8235V24.8777C9.39709 16.676 15.7312 10.0085 23.5187 10.0085C31.3062 10.0085 37.6404 16.6807 37.6404 24.8777V32.3833H44.8124V24.8777C44.8124 16.676 51.1466 10.0085 58.934 10.0085C66.7215 10.0085 73.0557 16.6807 73.0557 24.8777V72.8235C73.0557 81.0252 66.7215 87.6926 58.934 87.6926Z" fill="#EFEFEF"/>
<path opacity="0.16" d="M58.6122 87.3464C50.8294 87.3464 44.5 80.679 44.5 72.4868V61.7753H37.309V72.4868C37.309 80.679 30.9796 87.3464 23.1969 87.3464C15.4141 87.3464 9.08472 80.679 9.08472 72.4868V24.5409C9.08472 16.3487 15.4141 9.68127 23.1969 9.68127C30.9796 9.68127 37.309 16.3487 37.309 24.5409V32.056H44.5V24.5409C44.5 16.3487 50.8294 9.68127 58.6122 9.68127C66.395 9.68127 72.7244 16.3487 72.7244 24.5409V72.4868C72.7244 80.679 66.395 87.3464 58.6122 87.3464Z" fill="#EBEBEB"/>
<path opacity="0.19" d="M58.2856 87.0007C50.5123 87.0007 44.1829 80.338 44.1829 72.1553V61.4296H36.9682V72.1553C36.9682 80.3428 30.6435 87.0007 22.8655 87.0007C15.0875 87.0007 8.76282 80.338 8.76282 72.1553V24.2094C8.76282 16.022 15.0875 9.36401 22.8655 9.36401C30.6435 9.36401 36.9682 16.0267 36.9682 24.2094V31.7387H44.1829V24.2094C44.1829 16.022 50.5075 9.36401 58.2856 9.36401C66.0636 9.36401 72.3883 16.0267 72.3883 24.2094V72.1553C72.3883 80.3428 66.0636 87.0007 58.2856 87.0007Z" fill="#E6E7E7"/>
<path opacity="0.23" d="M57.9635 86.6509C50.1949 86.6509 43.875 79.9977 43.875 71.8149V61.0798H36.6414V71.8149C36.6414 79.9977 30.3215 86.6509 22.5529 86.6509C14.7844 86.6509 8.46442 79.9977 8.46442 71.8149V23.8691C8.46442 15.6863 14.7844 9.03308 22.5529 9.03308C30.3215 9.03308 36.6414 15.6863 36.6414 23.8691V31.4078H43.875V23.8691C43.875 15.6863 50.1949 9.03308 57.9635 9.03308C65.732 9.03308 72.052 15.6863 72.052 23.8691V71.8149C72.052 79.9977 65.732 86.6509 57.9635 86.6509Z" fill="#E2E3E3"/>
<path opacity="0.26" d="M57.6369 86.3053C49.873 86.3053 43.5578 79.6567 43.5578 71.4787V60.7341H36.3006V71.4787C36.3006 79.652 29.9854 86.3053 22.2215 86.3053C14.4577 86.3053 8.14252 79.6567 8.14252 71.4787V23.5329C8.14252 15.3596 14.4577 8.70642 22.2215 8.70642C29.9854 8.70642 36.3006 15.3549 36.3006 23.5329V31.0811H43.5578V23.5329C43.5578 15.3596 49.873 8.70642 57.6369 8.70642C65.4007 8.70642 71.7159 15.3549 71.7159 23.5329V71.4787C71.7159 79.652 65.4007 86.3053 57.6369 86.3053Z" fill="#DEDFE0"/>
<path opacity="0.29" d="M57.315 85.9589C49.556 85.9589 43.2455 79.3151 43.2455 71.1466V60.3878H35.9645V71.1466C35.9645 79.3151 29.6541 85.9589 21.895 85.9589C14.1359 85.9589 7.82544 79.3151 7.82544 71.1466V23.2007C7.82544 15.0322 14.1359 8.38843 21.895 8.38843C29.6541 8.38843 35.9645 15.0322 35.9645 23.2007V30.7631H43.2455V23.2007C43.2455 15.0322 49.556 8.38843 57.315 8.38843C65.0741 8.38843 71.3846 15.0322 71.3846 23.2007V71.1466C71.3846 79.3151 65.0741 85.9589 57.315 85.9589Z" fill="#DADBDC"/>
<path opacity="0.32" d="M56.9884 85.609C49.2388 85.609 42.9283 78.97 42.9283 70.8061V60.0379H35.6284V70.8061C35.6284 78.97 29.3227 85.609 21.5683 85.609C13.814 85.609 7.50824 78.97 7.50824 70.8061V22.8603C7.50824 14.6965 13.814 8.0575 21.5683 8.0575C29.3227 8.0575 35.6284 14.6965 35.6284 22.8603V30.4322H42.9283V22.8603C42.9283 14.6965 49.234 8.0575 56.9884 8.0575C64.7427 8.0575 71.0485 14.6965 71.0485 22.8603V70.8061C71.0485 78.97 64.7427 85.609 56.9884 85.609Z" fill="#D6D7D8"/>
<path opacity="0.35" d="M56.6665 85.2633C48.9216 85.2633 42.6206 78.629 42.6206 70.4747V59.6922H35.2971V70.4747C35.2971 78.629 28.9961 85.2633 21.2512 85.2633C13.5063 85.2633 7.20532 78.629 7.20532 70.4747V22.5288C7.20532 14.3745 13.5063 7.74023 21.2512 7.74023C28.9961 7.74023 35.2971 14.3745 35.2971 22.5288V30.115H42.6206V22.5288C42.6206 14.3745 48.9216 7.74023 56.6665 7.74023C64.4114 7.74023 70.7124 14.3745 70.7124 22.5288V70.4747C70.7124 78.629 64.4114 85.2633 56.6665 85.2633Z" fill="#D2D3D4"/>
<path opacity="0.39" d="M56.3399 84.9127C48.5997 84.9127 42.3034 78.2831 42.3034 70.1335V59.3416H34.961V70.1335C34.961 78.2831 28.6647 84.9127 20.9245 84.9127C13.1844 84.9127 6.88812 78.2831 6.88812 70.1335V22.1877C6.88812 14.0381 13.1844 7.40857 20.9245 7.40857C28.6647 7.40857 34.961 14.0381 34.961 22.1877V29.7833H42.3034V22.1877C42.3034 14.0381 48.5997 7.40857 56.3399 7.40857C64.08 7.40857 70.3763 14.0381 70.3763 22.1877V70.1335C70.3763 78.2831 64.08 84.9127 56.3399 84.9127Z" fill="#CECFD0"/>
<path opacity="0.42" d="M56.0132 84.5671C48.2777 84.5671 41.9862 77.9423 41.9862 69.7974V58.996H34.6201V69.7974C34.6201 77.9423 28.3285 84.5671 20.5931 84.5671C12.8577 84.5671 6.56616 77.9423 6.56616 69.7974V21.8516C6.56616 13.7067 12.8577 7.08191 20.5931 7.08191C28.3285 7.08191 34.6201 13.7067 34.6201 21.8516V29.4566H41.9862V21.8516C41.9862 13.7067 48.2777 7.08191 56.0132 7.08191C63.7486 7.08191 70.0401 13.7067 70.0401 21.8516V69.7974C70.0401 77.9423 63.7486 84.5671 56.0132 84.5671Z" fill="#CACBCC"/>
<path opacity="0.45" d="M55.6911 84.2214C47.9652 84.2214 41.6784 77.6013 41.6784 69.4659V58.6503H34.2885V69.4659C34.2885 77.6013 28.0018 84.2214 20.2758 84.2214C12.5499 84.2214 6.26306 77.6013 6.26306 69.4659V21.5201C6.26306 13.3847 12.5499 6.76465 20.2758 6.76465C28.0018 6.76465 34.2885 13.3847 34.2885 21.5201V29.1394H41.6784V21.5201C41.6784 13.3847 47.9652 6.76465 55.6911 6.76465C63.4171 6.76465 69.7039 13.3847 69.7039 21.5201V69.4659C69.7039 77.6013 63.4171 84.2214 55.6911 84.2214Z" fill="#C6C7C8"/>
<path opacity="0.48" d="M55.3646 83.8708C47.6434 83.8708 41.3614 77.2555 41.3614 69.1248V58.2997H33.9526V69.1248C33.9526 77.2555 27.6705 83.8708 19.9493 83.8708C12.2281 83.8708 5.94604 77.2555 5.94604 69.1248V21.179C5.94604 13.0483 12.2281 6.43298 19.9493 6.43298C27.6705 6.43298 33.9526 13.0483 33.9526 21.179V28.8077H41.3614V21.179C41.3614 13.0483 47.6434 6.43298 55.3646 6.43298C63.0859 6.43298 69.3679 13.0483 69.3679 21.179V69.1248C69.3679 77.2555 63.0859 83.8708 55.3646 83.8708Z" fill="#C2C3C4"/>
<path opacity="0.52" d="M55.0427 83.5251C47.3262 83.5251 41.0489 76.9145 41.0489 68.7933V57.954H33.6165V68.7933C33.6165 76.9193 27.3391 83.5251 19.6227 83.5251C11.9062 83.5251 5.62885 76.9145 5.62885 68.7933V20.8475C5.62885 12.7216 11.9062 6.11572 19.6227 6.11572C27.3391 6.11572 33.6165 12.7263 33.6165 20.8475V28.4904H41.0489V20.8475C41.0489 12.7216 47.3262 6.11572 55.0427 6.11572C62.7592 6.11572 69.0365 12.7263 69.0365 20.8475V68.7933C69.0365 76.9193 62.7592 83.5251 55.0427 83.5251Z" fill="#BDBEC0"/>
<path opacity="0.55" d="M54.7161 83.1746C47.0044 83.1746 40.7365 76.5687 40.7365 68.4523V57.6035H33.2851V68.4523C33.2851 76.5687 27.0125 83.1746 19.3055 83.1746C11.5985 83.1746 5.32593 76.5687 5.32593 68.4523V20.5064C5.32593 12.39 11.5985 5.78406 19.3055 5.78406C27.0125 5.78406 33.2851 12.39 33.2851 20.5064V28.1588H40.7365V20.5064C40.7365 12.39 47.0091 5.78406 54.7161 5.78406C62.4231 5.78406 68.6957 12.39 68.6957 20.5064V68.4523C68.6957 76.5687 62.4231 83.1746 54.7161 83.1746Z" fill="#B9BABC"/>
<path opacity="0.58" d="M54.3941 82.8289C46.6918 82.8289 40.424 76.2277 40.424 68.1207V57.2578H32.9489V68.1207C32.9489 76.2324 26.6811 82.8289 18.9788 82.8289C11.2765 82.8289 5.00867 76.2277 5.00867 68.1207V20.1749C5.00867 12.0632 11.2765 5.4668 18.9788 5.4668C26.6811 5.4668 32.9489 12.0679 32.9489 20.1749V27.8415H40.424V20.1749C40.424 12.0632 46.6918 5.4668 54.3941 5.4668C62.0964 5.4668 68.3643 12.0679 68.3643 20.1749V68.1207C68.3643 76.2324 62.0964 82.8289 54.3941 82.8289Z" fill="#B5B6B8"/>
<path opacity="0.61" d="M54.0675 82.4834C46.3699 82.4834 40.1068 75.8917 40.1068 67.7847V56.9123H32.6081V67.7847C32.6081 75.8917 26.345 82.4834 18.6474 82.4834C10.9499 82.4834 4.68677 75.8917 4.68677 67.7847V19.8389C4.68677 11.7319 10.9499 5.14026 18.6474 5.14026C26.345 5.14026 32.6081 11.7319 32.6081 19.8389V27.515H40.1068V19.8389C40.1068 11.7319 46.3699 5.14026 54.0675 5.14026C61.765 5.14026 68.0282 11.7319 68.0282 19.8389V67.7847C68.0282 75.8917 61.765 82.4834 54.0675 82.4834Z" fill="#B1B2B4"/>
<path opacity="0.65" d="M53.7455 82.1326C46.0527 82.1326 39.7943 75.5457 39.7943 67.4435V56.5615H32.2767V67.4435C32.2767 75.541 26.0183 82.1326 18.3255 82.1326C10.6327 82.1326 4.37427 75.5457 4.37427 67.4435V19.4977C4.37427 11.4001 10.6327 4.80847 18.3255 4.80847C26.0183 4.80847 32.2767 11.3954 32.2767 19.4977V27.1832H39.7943V19.4977C39.7943 11.4001 46.0527 4.80847 53.7455 4.80847C61.4383 4.80847 67.6967 11.3954 67.6967 19.4977V67.4435C67.6967 75.541 61.4383 82.1326 53.7455 82.1326Z" fill="#ADAEB0"/>
<path opacity="0.68" d="M53.419 81.7871C45.7356 81.7871 39.482 75.2049 39.482 67.1121V56.216H31.9407V67.1121C31.9407 75.2049 25.687 81.7871 18.0036 81.7871C10.3203 81.7871 4.06665 75.2049 4.06665 67.1121V19.1663C4.06665 11.0735 10.3203 4.49133 18.0036 4.49133C25.687 4.49133 31.9407 11.0735 31.9407 19.1663V26.8661H39.482V19.1663C39.482 11.0735 45.7356 4.49133 53.419 4.49133C61.1023 4.49133 67.356 11.0735 67.356 19.1663V67.1121C67.356 75.2049 61.1023 81.7871 53.419 81.7871Z" fill="#A9AAAC"/>
<path opacity="0.71" d="M53.0922 81.4371C45.4136 81.4371 39.1647 74.8596 39.1647 66.7716V55.866H31.6045V66.7716C31.6045 74.8596 25.3555 81.4371 17.6769 81.4371C9.99832 81.4371 3.74939 74.8596 3.74939 66.7716V18.8258C3.74939 10.7377 9.99832 4.16028 17.6769 4.16028C25.3555 4.16028 31.6045 10.7377 31.6045 18.8258V26.535H39.1647V18.8258C39.1647 10.7377 45.4136 4.16028 53.0922 4.16028C60.7708 4.16028 67.0198 10.7377 67.0198 18.8258V66.7716C67.0198 74.8596 60.7708 81.4371 53.0922 81.4371Z" fill="#A5A6A8"/>
<path opacity="0.74" d="M52.7703 81.0916C45.0964 81.0916 38.8522 74.5189 38.8522 66.4403V55.5205H31.2683V66.4403C31.2683 74.5189 25.0241 81.0916 17.3503 81.0916C9.67638 81.0916 3.43219 74.5189 3.43219 66.4403V18.4945C3.43219 10.4159 9.67638 3.84314 17.3503 3.84314C25.0241 3.84314 31.2683 10.4159 31.2683 18.4945V26.2179H38.8522V18.4945C38.8522 10.4159 45.0964 3.84314 52.7703 3.84314C60.4442 3.84314 66.6884 10.4159 66.6884 18.4945V66.4403C66.6884 74.5189 60.4442 81.0916 52.7703 81.0916Z" fill="#A1A2A4"/>
<path opacity="0.77" d="M52.4438 80.7452C44.7746 80.7452 38.5399 74.1772 38.5399 66.1034V55.1741H30.9323V66.1034C30.9323 74.1772 24.6928 80.7452 17.0284 80.7452C9.36403 80.7452 3.12457 74.1772 3.12457 66.1034V18.1575C3.12457 10.0837 9.36403 3.51575 17.0284 3.51575C24.6928 3.51575 30.9323 10.0837 30.9323 18.1575V25.8905H38.5399V18.1575C38.5399 10.0837 44.7793 3.51575 52.4438 3.51575C60.1082 3.51575 66.3476 10.0837 66.3476 18.1575V66.1034C66.3476 74.1772 60.1082 80.7452 52.4438 80.7452Z" fill="#9D9EA1"/>
<path opacity="0.81" d="M52.1218 80.3954C44.4621 80.3954 38.2274 73.8321 38.2274 65.763V54.8243H30.6009V65.763C30.6009 73.8321 24.3661 80.3954 16.7065 80.3954C9.0468 80.3954 2.81207 73.8321 2.81207 65.763V17.8172C2.81207 9.74808 9.0468 3.18481 16.7065 3.18481C24.3661 3.18481 30.6009 9.74808 30.6009 17.8172V25.5595H38.2274V17.8172C38.2274 9.74808 44.4621 3.18481 52.1218 3.18481C59.7815 3.18481 66.0162 9.74808 66.0162 17.8172V65.763C66.0162 73.8321 59.7815 80.3954 52.1218 80.3954Z" fill="#999A9D"/>
<path opacity="0.84" d="M51.7951 80.0497C44.1402 80.0497 37.9102 73.4911 37.9102 65.4315V54.4786H30.26V65.4315C30.26 73.4911 24.03 80.0497 16.375 80.0497C8.7201 80.0497 2.49011 73.4911 2.49011 65.4315V17.4857C2.49011 9.42607 8.7201 2.86755 16.375 2.86755C24.03 2.86755 30.26 9.42607 30.26 17.4857V25.2423H37.9102V17.4857C37.9102 9.42607 44.1402 2.86755 51.7951 2.86755C59.45 2.86755 65.68 9.42607 65.68 17.4857V65.4315C65.68 73.4911 59.45 80.0497 51.7951 80.0497Z" fill="#949699"/>
<path opacity="0.87" d="M51.4733 79.704C43.8231 79.704 37.6025 73.1503 37.6025 65.0954V54.1329H29.9334V65.0954C29.9334 73.1503 23.7081 79.704 16.0627 79.704C8.41721 79.704 2.19196 73.1503 2.19196 65.0954V17.1496C2.19196 9.09466 8.41721 2.54089 16.0627 2.54089C23.7081 2.54089 29.9334 9.09466 29.9334 17.1496V24.9156H37.6025V17.1496C37.6025 9.09466 43.8278 2.54089 51.4733 2.54089C59.1187 2.54089 65.344 9.09466 65.344 17.1496V65.0954C65.344 73.1503 59.1187 79.704 51.4733 79.704Z" fill="#909295"/>
<path opacity="0.9" d="M51.1466 79.3533C43.5011 79.3533 37.2853 72.8043 37.2853 64.7589V53.7822H29.5925V64.7589C29.5925 72.8091 23.372 79.3533 15.7313 79.3533C8.09052 79.3533 1.87 72.8043 1.87 64.7589V16.8131C1.87 8.76291 8.09052 2.21863 15.7313 2.21863C23.372 2.21863 29.5925 8.76765 29.5925 16.8131V24.5933H37.2853V16.8131C37.2853 8.76291 43.5058 2.21863 51.1466 2.21863C58.7873 2.21863 65.0078 8.76765 65.0078 16.8131V64.7589C65.0078 72.8091 58.7873 79.3533 51.1466 79.3533Z" fill="#8C8E91"/>
<path opacity="0.94" d="M50.8246 79.0078C43.1886 79.0078 36.9728 72.4635 36.9728 64.4228V53.4367H29.2564V64.4228C29.2564 72.4635 23.0406 79.0078 15.4046 79.0078C7.76858 79.0078 1.5528 72.4635 1.5528 64.4228V16.477C1.5528 8.4363 7.76858 1.89197 15.4046 1.89197C23.0406 1.89197 29.2564 8.4363 29.2564 16.477V24.2667H36.9728V16.477C36.9728 8.4363 43.1886 1.89197 50.8246 1.89197C58.4606 1.89197 64.6764 8.4363 64.6764 16.477V64.4228C64.6764 72.4635 58.4606 79.0078 50.8246 79.0078Z" fill="#888A8D"/>
<path opacity="0.97" d="M50.4979 78.6571C42.8666 78.6571 36.6556 72.1175 36.6556 64.0863V53.086H28.9202V64.0863C28.9202 72.1223 22.7139 78.6571 15.0779 78.6571C7.44185 78.6571 1.23553 72.1175 1.23553 64.0863V16.1405C1.23553 8.10455 7.44659 1.5697 15.0779 1.5697C22.7091 1.5697 28.9202 8.10928 28.9202 16.1405V23.9444H36.6556V16.1405C36.6556 8.10455 42.8666 1.5697 50.4979 1.5697C58.1292 1.5697 64.3402 8.10928 64.3402 16.1405V64.0863C64.3402 72.1223 58.1339 78.6571 50.4979 78.6571Z" fill="#848689"/>
<path d="M50.1761 78.3115C42.5496 78.3115 36.348 71.7814 36.348 63.7502V52.7404H28.5889V63.7502C28.5889 71.7814 22.3873 78.3115 14.7608 78.3115C7.13426 78.3115 0.932678 71.7814 0.932678 63.7502V15.8044C0.932678 7.77314 7.13426 1.24304 14.7608 1.24304C22.3873 1.24304 28.5889 7.77314 28.5889 15.8044V23.6178H36.348V15.8044C36.348 7.77314 42.5496 1.24304 50.1761 1.24304C57.8026 1.24304 64.0042 7.77314 64.0042 15.8044V63.7502C64.0042 71.7814 57.8026 78.3115 50.1761 78.3115Z" fill="#808285"/>
</g>
<path d="M50.1762 78.6671C42.365 78.6671 36.0119 71.976 36.0119 63.7506V53.096H28.9298V63.7506C28.9298 71.976 22.5767 78.6671 14.7609 78.6671C6.94496 78.6671 0.596619 71.976 0.596619 63.7506V15.8048C0.596619 7.57941 6.9497 0.888306 14.7609 0.888306C22.572 0.888306 28.9298 7.57941 28.9298 15.8048V23.263H36.0119V15.8048C36.0119 7.57941 42.365 0.888306 50.1762 0.888306C57.9873 0.888306 64.3451 7.57941 64.3451 15.8048V63.7506C64.3451 71.976 57.9921 78.6671 50.1762 78.6671Z" fill="url(#paint0_linear_53_37812)"/>
<path d="M50.1762 77.246C43.1083 77.246 37.3612 71.1894 37.3612 63.7501V51.6749H27.5807V63.7501C27.5807 71.1894 21.8288 77.246 14.7609 77.246C7.69298 77.246 1.94586 71.1894 1.94586 63.7501V15.8043C1.94586 8.36503 7.69772 2.30847 14.7609 2.30847C21.8241 2.30847 27.5807 8.36503 27.5807 15.8043V24.6832H37.3612V15.8043C37.3612 8.36503 43.113 2.30847 50.1762 2.30847C57.2394 2.30847 62.9913 8.36503 62.9913 15.8043V63.7501C62.9913 71.1894 57.2394 77.246 50.1762 77.246Z" fill="url(#paint1_linear_53_37812)"/>
<path d="M40.0216 51.6749C39.5293 51.6749 39.1316 51.2771 39.1316 50.7846V49.5439H37.8913C37.3989 49.5439 37.0013 49.1462 37.0013 48.6537C37.0013 48.1612 37.3989 47.7634 37.8913 47.7634H40.0216C40.5139 47.7634 40.9116 48.1612 40.9116 48.6537V50.7846C40.9116 51.2771 40.5139 51.6749 40.0216 51.6749Z" fill="#00A185"/>
<path d="M34.2745 49.5439H30.6577C30.1654 49.5439 29.7677 49.1462 29.7677 48.6537C29.7677 48.1612 30.1654 47.7634 30.6577 47.7634H34.2745C34.7668 47.7634 35.1645 48.1612 35.1645 48.6537C35.1645 49.1462 34.7668 49.5439 34.2745 49.5439Z" fill="#00A185"/>
<path d="M24.9106 51.6749C24.4183 51.6749 24.0206 51.2771 24.0206 50.7846V48.6537C24.0206 48.1612 24.4183 47.7634 24.9106 47.7634H27.0409C27.5333 47.7634 27.9309 48.1612 27.9309 48.6537C27.9309 49.1462 27.5333 49.5439 27.0409 49.5439H25.8006V50.7846C25.8006 51.2771 25.403 51.6749 24.9106 51.6749Z" fill="#00A185"/>
<path d="M13.3453 75.0162C13.3027 75.0162 13.2601 75.0162 13.2175 75.0067C11.6363 74.7794 10.1546 74.2111 8.8101 73.3209C8.40298 73.0509 8.28936 72.5016 8.5592 72.0897C8.82904 71.6777 9.37819 71.5688 9.79005 71.8387C10.9168 72.5821 12.1571 73.0557 13.4731 73.2451C13.956 73.3162 14.2969 73.766 14.2258 74.249C14.1643 74.6894 13.7808 75.0114 13.35 75.0114L13.3453 75.0162ZM17.6627 74.6799C17.284 74.6799 16.9337 74.4337 16.8154 74.0549C16.6686 73.5861 16.9337 73.0889 17.4024 72.9468C18.6711 72.5538 19.8262 71.8955 20.8346 70.9863C21.1991 70.6596 21.7624 70.688 22.0891 71.0527C22.4157 71.4173 22.3873 71.976 22.0228 72.3075C20.8251 73.3871 19.4427 74.1732 17.9279 74.6421C17.8426 74.6705 17.7527 74.6799 17.6675 74.6799H17.6627ZM6.26319 70.3755C5.96968 70.3755 5.68091 70.2287 5.51522 69.9635C4.66309 68.6234 4.10447 67.1412 3.8583 65.5643C3.78256 65.0813 4.11394 64.6267 4.59681 64.5509C5.08442 64.4751 5.53415 64.8066 5.6099 65.2897C5.81819 66.625 6.2916 67.8752 7.01117 69.0117C7.27628 69.4236 7.15319 69.9729 6.7366 70.2381C6.58984 70.3328 6.42415 70.3755 6.26319 70.3755ZM23.978 69.0259C23.8549 69.0259 23.7318 69.0022 23.6134 68.9501C23.1684 68.7512 22.9649 68.2256 23.1684 67.7757C23.7176 66.554 24.0064 65.2471 24.0206 63.888C24.0253 63.4003 24.4561 63.0214 24.92 63.0119C25.4124 63.0166 25.8006 63.4192 25.7958 63.9116C25.7722 65.5122 25.436 67.056 24.7875 68.5003C24.6407 68.8317 24.3141 69.0259 23.978 69.0259ZM4.60155 61.9512C4.10921 61.9512 3.71155 61.5534 3.71155 61.0609V56.6902C3.71155 56.1977 4.10921 55.7999 4.60155 55.7999C5.09389 55.7999 5.49155 56.1977 5.49155 56.6902V61.0609C5.49155 61.5534 5.09389 61.9512 4.60155 61.9512ZM24.9106 60.4169C24.4182 60.4169 24.0206 60.0191 24.0206 59.5267V55.1559C24.0206 54.6634 24.4182 54.2657 24.9106 54.2657C25.4029 54.2657 25.8006 54.6634 25.8006 55.1559V59.5267C25.8006 60.0191 25.4029 60.4169 24.9106 60.4169ZM4.60155 53.2097C4.10921 53.2097 3.71155 52.8119 3.71155 52.3194V47.9487C3.71155 47.4562 4.10921 47.0584 4.60155 47.0584C5.09389 47.0584 5.49155 47.4562 5.49155 47.9487V52.3194C5.49155 52.8119 5.09389 53.2097 4.60155 53.2097ZM4.60155 44.4682C4.10921 44.4682 3.71155 44.0704 3.71155 43.5779V39.2072C3.71155 38.7147 4.10921 38.3169 4.60155 38.3169C5.09389 38.3169 5.49155 38.7147 5.49155 39.2072V43.5779C5.49155 44.0704 5.09389 44.4682 4.60155 44.4682ZM4.60155 35.7266C4.10921 35.7266 3.71155 35.3288 3.71155 34.8363V30.4656C3.71155 29.9731 4.10921 29.5753 4.60155 29.5753C5.09389 29.5753 5.49155 29.9731 5.49155 30.4656V34.8363C5.49155 35.3288 5.09389 35.7266 4.60155 35.7266ZM4.60155 26.9851C4.10921 26.9851 3.71155 26.5873 3.71155 26.0948V21.7241C3.71155 21.2316 4.10921 20.8338 4.60155 20.8338C5.09389 20.8338 5.49155 21.2316 5.49155 21.7241V26.0948C5.49155 26.5873 5.09389 26.9851 4.60155 26.9851ZM24.9106 22.0414C24.4182 22.0414 24.0206 21.6436 24.0206 21.1511V16.7804C24.0206 16.2879 24.4182 15.8901 24.9106 15.8901C25.4029 15.8901 25.8006 16.2879 25.8006 16.7804V21.1511C25.8006 21.6436 25.4029 22.0414 24.9106 22.0414ZM4.60155 18.2436C4.10921 18.2436 3.71155 17.8458 3.71155 17.3533V15.7954C3.71155 14.7772 3.8441 13.7639 4.10447 12.7837C4.23229 12.3101 4.7199 12.0307 5.18857 12.1539C5.66197 12.2817 5.94601 12.7647 5.81819 13.2382C5.59569 14.0669 5.48681 14.924 5.48681 15.7906V17.3486C5.48681 17.8411 5.08915 18.2388 4.59681 18.2388L4.60155 18.2436ZM24.3851 13.3566C24.0111 13.3566 23.6655 13.1199 23.5424 12.7458C23.1258 11.4625 22.4583 10.3023 21.5636 9.29842C21.2369 8.93379 21.2701 8.37027 21.6346 8.04353C21.9991 7.71678 22.5625 7.74994 22.8891 8.11457C23.9495 9.30315 24.7354 10.6717 25.2325 12.1917C25.384 12.6558 25.1283 13.1577 24.6644 13.3093C24.5744 13.3377 24.4798 13.3519 24.3898 13.3519L24.3851 13.3566ZM6.91649 10.0324C6.72239 10.0324 6.5283 9.97085 6.36261 9.83826C5.97915 9.53046 5.91761 8.97167 6.22532 8.58811C7.21947 7.34743 8.47872 6.3151 9.87053 5.60479C10.3061 5.38222 10.841 5.55747 11.0635 5.99312C11.286 6.42878 11.1108 6.96389 10.6753 7.18645C9.50601 7.78311 8.44558 8.64965 7.61239 9.69617C7.43723 9.914 7.17686 10.0277 6.91649 10.0277V10.0324ZM18.7184 7.03963C18.6001 7.03963 18.477 7.01593 18.3634 6.96384C17.142 6.42874 15.8307 6.17305 14.4957 6.21093C13.9939 6.22514 13.5962 5.8416 13.582 5.34912C13.5678 4.85664 13.9513 4.44937 14.4436 4.43516C16.0437 4.38781 17.6154 4.69562 19.0782 5.33964C19.528 5.53852 19.7315 6.0594 19.5327 6.50926C19.3859 6.84074 19.0593 7.03963 18.7184 7.03963Z" fill="#00A185"/>
<path d="M27.0409 28.5903H24.9106C24.4183 28.5903 24.0206 28.1925 24.0206 27.7V25.5691C24.0206 25.0766 24.4183 24.6788 24.9106 24.6788C25.403 24.6788 25.8006 25.0766 25.8006 25.5691V26.8098H27.0409C27.5333 26.8098 27.9309 27.2075 27.9309 27.7C27.9309 28.1925 27.5333 28.5903 27.0409 28.5903Z" fill="#00A185"/>
<path d="M34.2745 28.5901H30.6577C30.1654 28.5901 29.7677 28.1923 29.7677 27.6998C29.7677 27.2073 30.1654 26.8096 30.6577 26.8096H34.2745C34.7668 26.8096 35.1645 27.2073 35.1645 27.6998C35.1645 28.1923 34.7668 28.5901 34.2745 28.5901Z" fill="#00A185"/>
<path d="M40.0216 28.5903H37.8913C37.3989 28.5903 37.0013 28.1925 37.0013 27.7C37.0013 27.2075 37.3989 26.8098 37.8913 26.8098H39.1316V25.5691C39.1316 25.0766 39.5293 24.6788 40.0216 24.6788C40.5139 24.6788 40.9116 25.0766 40.9116 25.5691V27.7C40.9116 28.1925 40.5139 28.5903 40.0216 28.5903Z" fill="#00A185"/>
<path d="M51.6248 75.0066C51.194 75.0066 50.8153 74.6893 50.749 74.249C50.678 73.7659 51.0141 73.3113 51.497 73.2403C52.813 73.0462 54.0533 72.5679 55.1753 71.815C55.5824 71.545 56.1363 71.654 56.4061 72.0612C56.676 72.4685 56.5671 73.0225 56.16 73.2924C54.8155 74.1874 53.3338 74.7604 51.7573 74.9924C51.7147 74.9971 51.6674 75.0019 51.6248 75.0019V75.0066ZM47.3073 74.6893C47.2221 74.6893 47.1369 74.6751 47.047 74.6515C45.5273 74.1874 44.145 73.4108 42.9426 72.3311C42.578 72.0044 42.5449 71.4408 42.8715 71.0762C43.1982 70.7116 43.7568 70.6784 44.1261 71.0052C45.1391 71.9096 46.2942 72.5632 47.5677 72.9515C48.0364 73.0935 48.3015 73.5907 48.1595 74.0595C48.0411 74.4431 47.6908 74.6893 47.3121 74.6893H47.3073ZM58.6927 70.3375C58.5317 70.3375 58.366 70.2949 58.2193 70.2002C57.8027 69.9397 57.6796 69.3904 57.94 68.9737C58.6548 67.8372 59.1235 66.5824 59.327 65.247C59.4028 64.764 59.8573 64.4277 60.3401 64.5035C60.823 64.5793 61.1591 65.0291 61.0834 65.5169C60.8419 67.0938 60.2928 68.576 59.4454 69.9208C59.275 70.1907 58.9862 70.3375 58.6927 70.3375ZM40.9732 69.0637C40.6371 69.0637 40.3104 68.8695 40.1637 68.5428C39.5104 67.0985 39.1648 65.5595 39.1364 63.9589C39.1269 63.4664 39.5198 63.064 40.0075 63.0545C40.4951 63.0829 40.9022 63.438 40.9117 63.9258C40.9353 65.2801 41.2288 66.587 41.7827 67.8088C41.9863 68.2539 41.7827 68.7796 41.3424 68.9832C41.2241 69.0353 41.101 69.0637 40.9779 69.0637H40.9732ZM60.3307 61.9085C59.8383 61.9085 59.4407 61.5107 59.4407 61.0182V56.6475C59.4407 56.155 59.8383 55.7572 60.3307 55.7572C60.823 55.7572 61.2207 56.155 61.2207 56.6475V61.0182C61.2207 61.5107 60.823 61.9085 60.3307 61.9085ZM40.0217 60.4595C39.5293 60.4595 39.1317 60.0617 39.1317 59.5692V55.1984C39.1317 54.706 39.5293 54.3082 40.0217 54.3082C40.514 54.3082 40.9117 54.706 40.9117 55.1984V59.5692C40.9117 60.0617 40.514 60.4595 40.0217 60.4595ZM60.3307 53.167C59.8383 53.167 59.4407 52.7692 59.4407 52.2767V47.906C59.4407 47.4135 59.8383 47.0157 60.3307 47.0157C60.823 47.0157 61.2207 47.4135 61.2207 47.906V52.2767C61.2207 52.7692 60.823 53.167 60.3307 53.167ZM60.3307 44.4254C59.8383 44.4254 59.4407 44.0277 59.4407 43.5352V39.1644C59.4407 38.6719 59.8383 38.2742 60.3307 38.2742C60.823 38.2742 61.2207 38.6719 61.2207 39.1644V43.5352C61.2207 44.0277 60.823 44.4254 60.3307 44.4254ZM60.3307 35.6839C59.8383 35.6839 59.4407 35.2861 59.4407 34.7937V30.4229C59.4407 29.9304 59.8383 29.5326 60.3307 29.5326C60.823 29.5326 61.2207 29.9304 61.2207 30.4229V34.7937C61.2207 35.2861 60.823 35.6839 60.3307 35.6839ZM60.3307 26.9424C59.8383 26.9424 59.4407 26.5446 59.4407 26.0521V21.6814C59.4407 21.1889 59.8383 20.7911 60.3307 20.7911C60.823 20.7911 61.2207 21.1889 61.2207 21.6814V26.0521C61.2207 26.5446 60.823 26.9424 60.3307 26.9424ZM40.0217 22.0839C39.5293 22.0839 39.1317 21.6861 39.1317 21.1936V16.8229C39.1317 16.3304 39.5293 15.9326 40.0217 15.9326C40.514 15.9326 40.9117 16.3304 40.9117 16.8229V21.1936C40.9117 21.6861 40.514 22.0839 40.0217 22.0839ZM60.3307 18.2009C59.8383 18.2009 59.4407 17.8031 59.4407 17.3106V15.7953C59.4407 14.9145 59.327 14.0432 59.0951 13.205C58.9673 12.7315 59.2466 12.2437 59.72 12.1159C60.1934 11.988 60.681 12.2674 60.8088 12.741C61.0786 13.7307 61.2159 14.7582 61.2159 15.7953V17.3106C61.2159 17.8031 60.8183 18.2009 60.3259 18.2009H60.3307ZM40.5329 13.3992C40.443 13.3992 40.353 13.3849 40.2631 13.3565C39.7944 13.205 39.5388 12.7078 39.6903 12.239C40.1779 10.7189 40.9637 9.34093 42.0147 8.15235C42.3413 7.78299 42.8999 7.74988 43.2692 8.07662C43.6385 8.40337 43.6716 8.9621 43.3449 9.33146C42.4549 10.3354 41.7922 11.5003 41.3803 12.7836C41.2572 13.1624 40.9117 13.3992 40.5377 13.3992H40.5329ZM57.9873 9.99916C57.7269 9.99916 57.4713 9.88554 57.2962 9.66771C56.4582 8.62592 55.3931 7.76407 54.219 7.17215C53.7835 6.94959 53.6036 6.41921 53.8261 5.97882C54.0486 5.54317 54.5788 5.36324 55.0191 5.5858C56.4156 6.29138 57.6796 7.31891 58.6785 8.55485C58.9862 8.93841 58.9247 9.49719 58.5459 9.805C58.3802 9.93759 58.1861 10.0039 57.992 10.0039L57.9873 9.99916ZM46.1712 7.0585C45.8303 7.0585 45.5084 6.85962 45.3616 6.53288C45.1628 6.08302 45.3616 5.56208 45.8114 5.3632C47.1937 4.7476 48.6613 4.43982 50.1762 4.43982H50.4413C50.9289 4.45403 51.3171 4.86603 51.3076 5.35377C51.2934 5.84152 50.9147 6.23927 50.3987 6.22033H50.1762C48.9122 6.22033 47.6861 6.47604 46.531 6.9922C46.4126 7.04429 46.2895 7.06798 46.1712 7.06798V7.0585Z" fill="#00A185"/>
<path d="M50.1762 9.41187C46.8245 9.41187 44.1072 12.272 44.1072 15.8046V31.7866H20.8346V15.8046C20.8346 12.272 18.1173 9.41187 14.7609 9.41187C11.4044 9.41187 8.69183 12.272 8.69183 15.8046V63.7505C8.69183 67.2831 11.4092 70.1432 14.7609 70.1432C18.1126 70.1432 20.8346 67.2831 20.8346 63.7505V44.5721H44.1072V63.7505C44.1072 67.2831 46.8245 70.1432 50.1762 70.1432C53.5279 70.1432 56.2452 67.2831 56.2452 63.7505V15.8046C56.2452 12.272 53.5279 9.41187 50.1762 9.41187Z" fill="url(#paint2_linear_53_37812)"/>
<defs>
<linearGradient id="paint0_linear_53_37812" x1="0.591885" y1="39.7753" x2="64.3404" y2="39.7753" gradientUnits="userSpaceOnUse">
<stop stop-color="#F1F2F2"/>
<stop offset="1" stop-color="#D1D3D4"/>
</linearGradient>
<linearGradient id="paint1_linear_53_37812" x1="1.94113" y1="39.7749" x2="62.9913" y2="39.7749" gradientUnits="userSpaceOnUse">
<stop stop-color="#D1D3D4"/>
<stop offset="1" stop-color="#F1F2F2"/>
</linearGradient>
<linearGradient id="paint2_linear_53_37812" x1="8.6871" y1="39.7752" x2="56.2452" y2="39.7752" gradientUnits="userSpaceOnUse">
<stop stop-color="#33B49D"/>
<stop offset="0.04" stop-color="#2DB19A"/>
<stop offset="0.2" stop-color="#19AA90"/>
<stop offset="0.39" stop-color="#0AA58A"/>
<stop offset="0.62" stop-color="#02A186"/>
<stop offset="1" stop-color="#00A185"/>
</linearGradient>
</defs>
</svg>
