<svg width="39" height="89" viewBox="0 0 39 89" fill="none" xmlns="http://www.w3.org/2000/svg">
<g style="mix-blend-mode:multiply">
<path opacity="0.03" d="M24.1991 88.1232C16.3927 88.1232 10.0444 81.4369 10.0444 73.2162V25.2704C10.0444 17.0498 16.3927 10.3634 24.1991 10.3634C32.0056 10.3634 38.3539 17.0498 38.3539 25.2704V73.2162C38.3539 81.4369 32.0056 88.1232 24.1991 88.1232Z" fill="#FBFBFB"/>
<path opacity="0.06" d="M23.8774 87.7726C16.0757 87.7726 9.73206 81.091 9.73206 72.8798V24.9339C9.73206 16.7227 16.0757 10.0411 23.8774 10.0411C31.679 10.0411 38.0227 16.7227 38.0227 24.9339V72.8798C38.0227 81.091 31.679 87.7726 23.8774 87.7726Z" fill="#F7F7F7"/>
<path opacity="0.1" d="M23.5506 87.427C15.7584 87.427 9.41479 80.7501 9.41479 72.5437V24.5978C9.41479 16.3914 15.7537 9.71448 23.5506 9.71448C31.3476 9.71448 37.6865 16.3914 37.6865 24.5978V72.5437C37.6865 80.7501 31.3476 87.427 23.5506 87.427Z" fill="#F3F3F3"/>
<path opacity="0.13" d="M23.2286 87.077C15.4411 87.077 9.10699 80.4048 9.10699 72.2078V24.2621C9.10699 16.0604 15.4411 9.39294 23.2286 9.39294C31.0161 9.39294 37.3503 16.0651 37.3503 24.2621V72.2078C37.3503 80.4095 31.0161 87.077 23.2286 87.077Z" fill="#EFEFEF"/>
<path opacity="0.16" d="M22.9021 86.7307C15.1194 86.7307 8.78998 80.0633 8.78998 71.871V23.9252C8.78998 15.733 15.1194 9.06555 22.9021 9.06555C30.6849 9.06555 37.0143 15.733 37.0143 23.9252V71.871C37.0143 80.0633 30.6849 86.7307 22.9021 86.7307Z" fill="#EBEBEB"/>
<path opacity="0.19" d="M22.5802 86.3852C14.8069 86.3852 8.47748 79.7224 8.47748 71.5397V23.5938C8.47748 15.4064 14.8021 8.74841 22.5802 8.74841C30.3582 8.74841 36.6829 15.4111 36.6829 23.5938V71.5397C36.6829 79.7272 30.3582 86.3852 22.5802 86.3852Z" fill="#E6E7E7"/>
<path opacity="0.23" d="M22.2535 86.0352C14.4849 86.0352 8.16498 79.3819 8.16498 71.1992V23.2534C8.16498 15.0706 14.4849 8.41736 22.2535 8.41736C30.022 8.41736 36.342 15.0706 36.342 23.2534V71.1992C36.342 79.3819 30.022 86.0352 22.2535 86.0352Z" fill="#E2E3E3"/>
<path opacity="0.26" d="M21.9316 85.6896C14.1678 85.6896 7.8526 79.0412 7.8526 70.8632V22.9173C7.8526 14.744 14.1678 8.09082 21.9316 8.09082C29.6954 8.09082 36.0106 14.7393 36.0106 22.9173V70.8632C36.0106 79.0365 29.6954 85.6896 21.9316 85.6896Z" fill="#DEDFE0"/>
<path opacity="0.29" d="M21.605 85.3432C13.8459 85.3432 7.5354 78.6996 7.5354 70.531V22.5851C7.5354 14.4166 13.8459 7.77283 21.605 7.77283C29.364 7.77283 35.6745 14.4166 35.6745 22.5851V70.531C35.6745 78.6996 29.364 85.3432 21.605 85.3432Z" fill="#DADBDC"/>
<path opacity="0.32" d="M21.2783 84.9933C13.5287 84.9933 7.2182 78.3543 7.2182 70.1905V22.2447C7.2182 14.0809 13.5239 7.44189 21.2783 7.44189C29.0326 7.44189 35.3384 14.0809 35.3384 22.2447V70.1905C35.3384 78.3543 29.0326 84.9933 21.2783 84.9933Z" fill="#D6D7D8"/>
<path opacity="0.35" d="M20.9565 84.6477C13.2116 84.6477 6.91058 78.0134 6.91058 69.8591V21.9132C6.91058 13.7589 13.2116 7.12463 20.9565 7.12463C28.7013 7.12463 35.0023 13.7589 35.0023 21.9132V69.8591C35.0023 78.0134 28.7013 84.6477 20.9565 84.6477Z" fill="#D2D3D4"/>
<path opacity="0.39" d="M20.6297 84.2971C12.8896 84.2971 6.59332 77.6675 6.59332 69.5179V21.5721C6.59332 13.4225 12.8896 6.79297 20.6297 6.79297C28.3699 6.79297 34.6662 13.4225 34.6662 21.5721V69.5179C34.6662 77.6675 28.3699 84.2971 20.6297 84.2971Z" fill="#CECFD0"/>
<path opacity="0.42" d="M20.3078 83.9515C12.5724 83.9515 6.28082 77.3267 6.28082 69.1818V21.236C6.28082 13.0911 12.5724 6.46631 20.3078 6.46631C28.0432 6.46631 34.3347 13.0911 34.3347 21.236V69.1818C34.3347 77.3267 28.0432 83.9515 20.3078 83.9515Z" fill="#CACBCC"/>
<path opacity="0.45" d="M19.9811 83.6058C12.2551 83.6058 5.96832 76.9858 5.96832 68.8504V20.9045C5.96832 12.7691 12.2551 6.14905 19.9811 6.14905C27.707 6.14905 33.9938 12.7691 33.9938 20.9045V68.8504C33.9938 76.9858 27.707 83.6058 19.9811 83.6058Z" fill="#C6C7C8"/>
<path opacity="0.48" d="M19.6593 83.2552C11.9381 83.2552 5.65601 76.6399 5.65601 68.5093V20.5634C5.65601 12.4327 11.9381 5.81738 19.6593 5.81738C27.3805 5.81738 33.6626 12.4327 33.6626 20.5634V68.5093C33.6626 76.6399 27.3805 83.2552 19.6593 83.2552Z" fill="#C2C3C4"/>
<path opacity="0.52" d="M19.3326 82.9095C11.6161 82.9095 5.33875 76.2989 5.33875 68.1777V20.2319C5.33875 12.106 11.6161 5.50012 19.3326 5.50012C27.049 5.50012 33.3264 12.1107 33.3264 20.2319V68.1777C33.3264 76.3036 27.049 82.9095 19.3326 82.9095Z" fill="#BDBEC0"/>
<path opacity="0.55" d="M19.0107 82.559C11.299 82.559 5.03113 75.953 5.03113 67.8366V19.8908C5.03113 11.7744 11.3037 5.16846 19.0107 5.16846C26.7177 5.16846 32.9903 11.7744 32.9903 19.8908V67.8366C32.9903 75.953 26.7177 82.559 19.0107 82.559Z" fill="#B9BABC"/>
<path opacity="0.58" d="M18.6841 82.2133C10.9818 82.2133 4.71393 75.6121 4.71393 67.5051V19.5593C4.71393 11.4476 10.9818 4.8512 18.6841 4.8512C26.3863 4.8512 32.6542 11.4523 32.6542 19.5593V67.5051C32.6542 75.6168 26.3863 82.2133 18.6841 82.2133Z" fill="#B5B6B8"/>
<path opacity="0.61" d="M18.3574 81.8677C10.6599 81.8677 4.39673 75.276 4.39673 67.169V19.2232C4.39673 11.1162 10.6599 4.52454 18.3574 4.52454C26.0549 4.52454 32.3181 11.1162 32.3181 19.2232V67.169C32.3181 75.276 26.0549 81.8677 18.3574 81.8677Z" fill="#B1B2B4"/>
<path opacity="0.65" d="M18.0354 81.5171C10.3426 81.5171 4.08423 74.9301 4.08423 66.8279V18.8821C4.08423 10.7845 10.3426 4.19287 18.0354 4.19287C25.7282 4.19287 31.9866 10.7798 31.9866 18.8821V66.8279C31.9866 74.9254 25.7282 81.5171 18.0354 81.5171Z" fill="#ADAEB0"/>
<path opacity="0.68" d="M17.7089 81.1714C10.0255 81.1714 3.77185 74.5892 3.77185 66.4965V18.5506C3.77185 10.4578 10.0255 3.87561 17.7089 3.87561C25.3922 3.87561 31.6459 10.4578 31.6459 18.5506V66.4965C31.6459 74.5892 25.3922 81.1714 17.7089 81.1714Z" fill="#A9AAAC"/>
<path opacity="0.71" d="M17.3869 80.8215C9.70828 80.8215 3.45935 74.244 3.45935 66.1559V18.2102C3.45935 10.1221 9.70828 3.54468 17.3869 3.54468C25.0655 3.54468 31.3144 10.1221 31.3144 18.2102V66.1559C31.3144 74.244 25.0655 80.8215 17.3869 80.8215Z" fill="#A5A6A8"/>
<path opacity="0.74" d="M17.0602 80.4759C9.38634 80.4759 3.14215 73.9031 3.14215 65.8245V17.8787C3.14215 9.80017 9.38634 3.22742 17.0602 3.22742C24.7341 3.22742 30.9783 9.80017 30.9783 17.8787V65.8245C30.9783 73.9031 24.7341 80.4759 17.0602 80.4759Z" fill="#A1A2A4"/>
<path opacity="0.77" d="M16.7384 80.1295C9.06926 80.1295 2.83453 73.5616 2.83453 65.4878V17.5419C2.83453 9.46809 9.07399 2.90015 16.7384 2.90015C24.4028 2.90015 30.6423 9.46809 30.6423 17.5419V65.4878C30.6423 73.5616 24.4028 80.1295 16.7384 80.1295Z" fill="#9D9EA1"/>
<path opacity="0.81" d="M16.4117 79.7796C8.752 79.7796 2.51727 73.2164 2.51727 65.1473V17.2015C2.51727 9.13235 8.752 2.56909 16.4117 2.56909C24.0713 2.56909 30.3061 9.13235 30.3061 17.2015V65.1473C30.3061 73.2164 24.0713 79.7796 16.4117 79.7796Z" fill="#999A9D"/>
<path opacity="0.84" d="M16.0897 79.434C8.43476 79.434 2.20477 72.8755 2.20477 64.8159V16.8701C2.20477 8.81047 8.43476 2.25195 16.0897 2.25195C23.7446 2.25195 29.9746 8.81047 29.9746 16.8701V64.8159C29.9746 72.8755 23.7446 79.434 16.0897 79.434Z" fill="#949699"/>
<path opacity="0.87" d="M15.7632 79.0884C8.11298 79.0884 1.89246 72.5347 1.89246 64.4798V16.534C1.89246 8.47906 8.11771 1.92529 15.7632 1.92529C23.4086 1.92529 29.6339 8.47906 29.6339 16.534V64.4798C29.6339 72.5347 23.4086 79.0884 15.7632 79.0884Z" fill="#909295"/>
<path opacity="0.9" d="M15.4412 78.7377C7.79574 78.7377 1.57996 72.1887 1.57996 64.1432V16.1975C1.57996 8.14731 7.80048 1.60303 15.4412 1.60303C23.0819 1.60303 29.3025 8.15205 29.3025 16.1975V64.1432C29.3025 72.1934 23.0819 78.7377 15.4412 78.7377Z" fill="#8C8E91"/>
<path opacity="0.94" d="M15.1145 78.3922C7.47854 78.3922 1.26276 71.8478 1.26276 63.8072V15.8614C1.26276 7.8207 7.47854 1.27637 15.1145 1.27637C22.7505 1.27637 28.9663 7.8207 28.9663 15.8614V63.8072C28.9663 71.8478 22.7505 78.3922 15.1145 78.3922Z" fill="#888A8D"/>
<path opacity="0.97" d="M14.7878 78.0415C7.15655 78.0415 0.945496 71.5019 0.945496 63.4707V15.5249C0.945496 7.48895 7.15655 0.954102 14.7878 0.954102C22.4191 0.954102 28.6301 7.49368 28.6301 15.5249V63.4707C28.6301 71.5067 22.4191 78.0415 14.7878 78.0415Z" fill="#848689"/>
<path d="M14.466 77.6959C6.83947 77.6959 0.637878 71.1658 0.637878 63.1346V15.1888C0.637878 7.15754 6.83947 0.627441 14.466 0.627441C22.0925 0.627441 28.2941 7.15754 28.2941 15.1888V63.1346C28.2941 71.1658 22.0925 77.6959 14.466 77.6959Z" fill="#808285"/>
</g>
<path d="M14.4661 78.0512C6.6549 78.0512 0.301819 71.3601 0.301819 63.1348V15.1889C0.301819 6.96357 6.6549 0.272461 14.4661 0.272461C22.2772 0.272461 28.6303 6.96357 28.6303 15.1889V63.1348C28.6303 71.3601 22.2772 78.0512 14.4661 78.0512Z" fill="url(#paint0_linear_53_37774)"/>
<path d="M14.466 76.631C7.39809 76.631 1.64624 70.5745 1.64624 63.1352V15.1893C1.64624 7.75004 7.39809 1.69348 14.466 1.69348C21.5339 1.69348 27.2858 7.75004 27.2858 15.1893V63.1352C27.2858 70.5745 21.5339 76.631 14.466 76.631Z" fill="url(#paint1_linear_53_37774)"/>
<path d="M14.5086 74.4996H14.466C12.9133 74.4996 11.4126 74.1729 9.99708 73.5289C9.55208 73.3252 9.35325 72.7996 9.55682 72.3545C9.76038 71.9094 10.2859 71.7105 10.7309 71.9141C11.9096 72.454 13.1642 72.7239 14.4613 72.7239C14.9536 72.7239 15.3702 73.1216 15.3702 73.6141C15.3702 74.1066 14.9962 74.5044 14.5039 74.5044L14.5086 74.4996ZM18.6036 73.5905C18.2674 73.5905 17.9455 73.401 17.7988 73.0743C17.5952 72.6292 17.7893 72.1035 18.2343 71.8952C19.4036 71.3553 20.4356 70.5834 21.302 69.6032C21.6286 69.2386 22.1872 69.2007 22.5565 69.5275C22.921 69.8542 22.9589 70.413 22.6322 70.7823C21.6002 71.9472 20.3694 72.8659 18.9775 73.5099C18.8592 73.5667 18.7314 73.5905 18.6083 73.5905H18.6036ZM6.9957 71.1092C6.74953 71.1092 6.5081 71.0097 6.33294 70.8108C5.31039 69.6648 4.53874 68.3389 4.04167 66.8756C3.88544 66.4116 4.13161 65.9049 4.59555 65.7487C5.05948 65.5924 5.56129 65.8386 5.72225 66.3027C6.14358 67.5386 6.79214 68.6562 7.65847 69.6269C7.98512 69.9915 7.95198 70.5551 7.58746 70.8819C7.41703 71.0334 7.20873 71.1092 6.9957 71.1092ZM24.0666 67.4392C23.972 67.4392 23.8773 67.425 23.7826 67.3918C23.3187 67.2356 23.0678 66.7337 23.224 66.2696C23.5601 65.261 23.7353 64.2096 23.7353 63.1347V62.3865C23.7353 61.894 24.1329 61.4963 24.6253 61.4963C25.1176 61.4963 25.5153 61.894 25.5153 62.3865V63.1347C25.5153 64.4038 25.3117 65.6492 24.914 66.8378C24.7909 67.2072 24.4454 67.444 24.0714 67.444L24.0666 67.4392ZM4.31151 63.3146C3.81917 63.3146 3.42151 62.9169 3.42151 62.4244V58.1957C3.42151 57.7033 3.81917 57.3054 4.31151 57.3054C4.80385 57.3054 5.20151 57.7033 5.20151 58.1957V62.4244C5.20151 62.9169 4.80385 63.3146 4.31151 63.3146ZM24.6205 59.0434C24.1282 59.0434 23.7305 58.6456 23.7305 58.1531V53.9244C23.7305 53.4319 24.1282 53.0341 24.6205 53.0341C25.1129 53.0341 25.5105 53.4319 25.5105 53.9244V58.1531C25.5105 58.6456 25.1129 59.0434 24.6205 59.0434ZM4.31151 54.8573C3.81917 54.8573 3.42151 54.4595 3.42151 53.967V49.7383C3.42151 49.2458 3.81917 48.848 4.31151 48.848C4.80385 48.848 5.20151 49.2458 5.20151 49.7383V53.967C5.20151 54.4595 4.80385 54.8573 4.31151 54.8573ZM24.6205 50.5859C24.1282 50.5859 23.7305 50.1882 23.7305 49.6957V45.4669C23.7305 44.9745 24.1282 44.5767 24.6205 44.5767C25.1129 44.5767 25.5105 44.9745 25.5105 45.4669V49.6957C25.5105 50.1882 25.1129 50.5859 24.6205 50.5859ZM4.31151 46.3999C3.81917 46.3999 3.42151 46.0021 3.42151 45.5096V41.2809C3.42151 40.7884 3.81917 40.3906 4.31151 40.3906C4.80385 40.3906 5.20151 40.7884 5.20151 41.2809V45.5096C5.20151 46.0021 4.80385 46.3999 4.31151 46.3999ZM24.6205 42.1285C24.1282 42.1285 23.7305 41.7308 23.7305 41.2383V37.0095C23.7305 36.5171 24.1282 36.1193 24.6205 36.1193C25.1129 36.1193 25.5105 36.5171 25.5105 37.0095V41.2383C25.5105 41.7308 25.1129 42.1285 24.6205 42.1285ZM4.31151 37.9425C3.81917 37.9425 3.42151 37.5447 3.42151 37.0522V32.8235C3.42151 32.331 3.81917 31.9332 4.31151 31.9332C4.80385 31.9332 5.20151 32.331 5.20151 32.8235V37.0522C5.20151 37.5447 4.80385 37.9425 4.31151 37.9425ZM24.6205 33.6711C24.1282 33.6711 23.7305 33.2734 23.7305 32.7809V28.5521C23.7305 28.0597 24.1282 27.6619 24.6205 27.6619C25.1129 27.6619 25.5105 28.0597 25.5105 28.5521V32.7809C25.5105 33.2734 25.1129 33.6711 24.6205 33.6711ZM4.31151 29.485C3.81917 29.485 3.42151 29.0873 3.42151 28.5948V24.3661C3.42151 23.8736 3.81917 23.4758 4.31151 23.4758C4.80385 23.4758 5.20151 23.8736 5.20151 24.3661V28.5948C5.20151 29.0873 4.80385 29.485 4.31151 29.485ZM24.6205 25.2137C24.1282 25.2137 23.7305 24.816 23.7305 24.3235V20.0947C23.7305 19.6023 24.1282 19.2045 24.6205 19.2045C25.1129 19.2045 25.5105 19.6023 25.5105 20.0947V24.3235C25.5105 24.816 25.1129 25.2137 24.6205 25.2137ZM4.31151 21.0276C3.81917 21.0276 3.42151 20.6298 3.42151 20.1374V15.9087C3.42151 15.4162 3.81917 15.0184 4.31151 15.0184C4.80385 15.0184 5.20151 15.4162 5.20151 15.9087V20.1374C5.20151 20.6298 4.80385 21.0276 4.31151 21.0276ZM24.6205 16.7563C24.1282 16.7563 23.7305 16.3586 23.7305 15.8661V15.1841C23.7305 14.0903 23.5506 13.0153 23.2003 11.9925C23.0394 11.5284 23.2903 11.0217 23.7542 10.8655C24.2181 10.7092 24.7247 10.9555 24.8809 11.4195C25.2928 12.6271 25.5058 13.8961 25.5058 15.1889V15.8708C25.5058 16.3632 25.1081 16.761 24.6158 16.761L24.6205 16.7563ZM4.87486 12.6318C4.78018 12.6318 4.6855 12.6176 4.59081 12.5844C4.12688 12.4282 3.87598 11.9215 4.0322 11.4574C4.52454 9.99416 5.29619 8.66828 6.31874 7.51758C6.64539 7.15296 7.204 7.11979 7.57326 7.4418C7.93778 7.76854 7.97092 8.32733 7.649 8.69669C6.78741 9.66744 6.13884 10.785 5.71752 12.0256C5.59443 12.395 5.24885 12.6318 4.87486 12.6318ZM21.9221 8.96658C21.6807 8.96658 21.4345 8.86714 21.2594 8.67299C20.3836 7.6975 19.3468 6.93034 18.1775 6.39998C17.7325 6.19636 17.5337 5.67074 17.7372 5.22561C17.9408 4.78048 18.4663 4.58163 18.9113 4.78525C20.3078 5.41979 21.5434 6.32897 22.5849 7.48914C22.9115 7.85377 22.8831 8.41729 22.5139 8.74403C22.3434 8.89556 22.1352 8.97132 21.9221 8.97132V8.96658ZM10.3474 6.49472C10.0113 6.49472 9.68937 6.30059 9.53788 5.97858C9.33432 5.53345 9.52841 5.00783 9.97341 4.79947C11.3842 4.15072 12.8848 3.81921 14.4376 3.81921C14.9252 3.81921 15.3229 4.21698 15.3276 4.70473C15.3276 5.19721 14.9299 5.59499 14.4423 5.59499C13.1452 5.59499 11.8907 5.87436 10.7167 6.4142C10.5983 6.47102 10.4705 6.49472 10.3474 6.49472Z" fill="#EC008C"/>
<path d="M14.4662 69.5275C11.1145 69.5275 8.3924 66.6673 8.3924 63.1347V15.1889C8.3924 11.6563 11.1097 8.79614 14.4662 8.79614C17.8226 8.79614 20.5399 11.6563 20.5399 15.1889V63.1347C20.5399 66.6673 17.8226 69.5275 14.4662 69.5275Z" fill="url(#paint2_linear_53_37774)"/>
<defs>
<linearGradient id="paint0_linear_53_37774" x1="0.297085" y1="39.1595" x2="28.6303" y2="39.1595" gradientUnits="userSpaceOnUse">
<stop stop-color="#F1F2F2"/>
<stop offset="1" stop-color="#D1D3D4"/>
</linearGradient>
<linearGradient id="paint1_linear_53_37774" x1="1.64624" y1="39.1599" x2="27.281" y2="39.1599" gradientUnits="userSpaceOnUse">
<stop stop-color="#D1D3D4"/>
<stop offset="1" stop-color="#F1F2F2"/>
</linearGradient>
<linearGradient id="paint2_linear_53_37774" x1="8.3924" y1="39.1595" x2="20.5352" y2="39.1595" gradientUnits="userSpaceOnUse">
<stop stop-color="#F033A3"/>
<stop offset="0.04" stop-color="#EF2DA0"/>
<stop offset="0.2" stop-color="#ED1997"/>
<stop offset="0.39" stop-color="#EC0A90"/>
<stop offset="0.62" stop-color="#EC028D"/>
<stop offset="1" stop-color="#EC008C"/>
</linearGradient>
</defs>
</svg>
