<svg width="65" height="89" viewBox="0 0 65 89" fill="none" xmlns="http://www.w3.org/2000/svg">
<g style="mix-blend-mode:multiply">
<path opacity="0.03" d="M35.6938 25.432C35.6938 17.2114 42.0421 10.525 49.8485 10.525C57.655 10.525 64.0033 17.2114 64.0033 25.432V60.0571C64.0033 75.6176 51.9788 88.2801 37.1992 88.2801C22.4195 88.2801 10.3951 75.6176 10.3951 60.0571C10.3951 52.1774 16.2369 45.7042 23.5983 45.1881C23.925 45.1644 24.2516 45.1549 24.583 45.1549C28.5264 45.1643 32.1338 46.8549 34.7186 49.6677C34.9363 49.8997 35.1636 50.1697 35.3624 50.4159C35.476 50.5533 35.5849 50.6763 35.6938 50.8231V25.432Z" fill="#FBFBFB"/>
<path opacity="0.06" d="M35.3814 25.0955C35.3814 16.8844 41.7251 10.2026 49.5267 10.2026C57.3284 10.2026 63.672 16.8844 63.672 25.0955V59.7206C63.672 75.2764 51.6523 87.9341 36.8774 87.9341C22.1025 87.9341 10.0828 75.2764 10.0828 59.7206C10.0828 51.8315 15.934 45.3583 23.3097 44.861C23.6363 44.8374 23.963 44.8279 24.2943 44.8279C28.2331 44.8468 31.8404 46.5469 34.4204 49.3739C34.6287 49.6012 34.8702 49.8852 35.0643 50.122C35.1731 50.2546 35.2773 50.3588 35.3814 50.4961V25.0908V25.0955Z" fill="#F7F7F7"/>
<path opacity="0.1" d="M35.0689 24.7595C35.0689 16.5531 41.4078 9.8761 49.2047 9.8761C57.0017 9.8761 63.3405 16.5531 63.3405 24.7595V59.3846C63.3405 74.9356 51.3256 87.5839 36.5601 87.5839C21.7946 87.5839 9.77966 74.9356 9.77966 59.3846C9.77966 51.4907 15.6451 45.0174 23.0255 44.5344C23.3521 44.5154 23.6788 44.5013 24.0102 44.5061C27.9489 44.5345 31.5515 46.2439 34.1268 49.0852C34.3304 49.303 34.5813 49.6061 34.7659 49.8381C34.8701 49.966 34.9742 50.0465 35.0736 50.1791V24.7548L35.0689 24.7595Z" fill="#F3F3F3"/>
<path opacity="0.13" d="M34.7517 24.4228C34.7517 16.2211 41.0858 9.55371 48.8733 9.55371C56.6608 9.55371 62.9949 16.2258 62.9949 24.4228V59.048C62.9949 74.5896 50.9847 87.2378 36.224 87.2378C21.4633 87.2378 9.453 74.5943 9.453 59.048C9.453 51.1494 15.3279 44.6713 22.7178 44.2073C23.0444 44.1883 23.3758 44.1788 23.7072 44.1788C27.6459 44.2167 31.2438 45.9358 33.8143 48.7912C34.0084 48.9996 34.2736 49.3215 34.4534 49.5441C34.5529 49.6672 34.6523 49.7241 34.7517 49.8567V24.418V24.4228Z" fill="#EFEFEF"/>
<path opacity="0.16" d="M34.4394 24.0868C34.4394 15.8945 40.7688 9.22717 48.5515 9.22717C56.3343 9.22717 62.6637 15.8945 62.6637 24.0868V58.712C62.6637 74.2488 50.6582 86.8876 35.9022 86.8876C21.1462 86.8876 9.14069 74.2488 9.14069 58.712C9.14069 50.8086 15.0298 44.3306 22.4291 43.8807C22.7558 43.8618 23.0872 43.8523 23.4185 43.857C27.3525 43.9044 30.9551 45.6328 33.5162 48.5025C33.7009 48.7061 33.9802 49.0424 34.1553 49.2602C34.2547 49.3786 34.3494 49.4164 34.4394 49.5395V24.0868Z" fill="#EBEBEB"/>
<path opacity="0.19" d="M34.1269 23.7503C34.1269 15.5628 40.4515 8.90479 48.2296 8.90479C56.0076 8.90479 62.3323 15.5675 62.3323 23.7503V58.3755C62.3323 73.9076 50.3315 86.5416 35.5802 86.5416C20.829 86.5416 8.82819 73.9076 8.82819 58.3755C8.82819 50.4674 14.7315 43.9846 22.1356 43.5584C22.4622 43.5395 22.7936 43.53 23.125 43.5347C27.059 43.5916 30.6568 45.3294 33.2132 48.2133C33.3931 48.4074 33.6819 48.7626 33.8523 48.971C33.947 49.0846 34.0369 49.0988 34.1269 49.2172V23.7503Z" fill="#E6E7E7"/>
<path opacity="0.23" d="M33.8144 23.4143C33.8144 15.2315 40.1343 8.57825 47.9029 8.57825C55.6714 8.57825 61.9914 15.2315 61.9914 23.4143V58.0394C61.9914 73.562 49.9953 86.1961 35.2535 86.1961C20.5117 86.1961 8.51569 73.5667 8.51569 58.0394C8.51569 50.1265 14.4285 43.6438 21.8467 43.2318C22.1734 43.2129 22.5048 43.2082 22.8361 43.213C26.7654 43.2792 30.3633 45.0266 32.9149 47.9246C33.0853 48.1093 33.3883 48.4833 33.5493 48.6822C33.6392 48.7911 33.7292 48.7818 33.8144 48.8954V23.4095V23.4143Z" fill="#E2E3E3"/>
<path opacity="0.26" d="M33.4971 23.0781C33.4971 14.9048 39.8123 8.25159 47.5761 8.25159C55.34 8.25159 61.6552 14.9001 61.6552 23.0781V57.708C61.6552 73.2258 49.6638 85.8504 34.9268 85.8504C20.1897 85.8504 8.19843 73.2258 8.19843 57.708C8.19843 49.7904 14.1254 43.3076 21.5484 42.9099C21.8751 42.8909 22.2064 42.8862 22.5378 42.8909C26.4671 42.9667 30.0602 44.7235 32.6071 47.631C32.7728 47.811 33.09 48.2041 33.2415 48.3935C33.3267 48.4977 33.4119 48.4645 33.4924 48.5781V23.0781H33.4971Z" fill="#DEDFE0"/>
<path opacity="0.29" d="M33.1848 22.7416C33.1848 14.5731 39.4953 7.92932 47.2544 7.92932C55.0134 7.92932 61.3239 14.5731 61.3239 22.7416V57.3667C61.3239 72.8799 49.3373 85.4997 34.605 85.4997C19.8727 85.4997 7.88611 72.8799 7.88611 57.3667C7.88611 49.4444 13.8226 42.957 21.255 42.5781C21.5864 42.5592 21.9131 42.5544 22.2444 42.5639C26.1737 42.6492 29.7621 44.4155 32.3043 47.3372C32.4605 47.5077 32.7919 47.9196 32.9386 48.0996C33.0191 48.2037 33.0996 48.1469 33.1801 48.2511V22.7369L33.1848 22.7416Z" fill="#DADBDC"/>
<path opacity="0.32" d="M32.8722 22.4055C32.8722 14.2417 39.178 7.60266 46.9323 7.60266C54.6867 7.60266 60.9924 14.2417 60.9924 22.4055V57.0307C60.9924 72.5344 49.0106 85.1494 34.2877 85.1494C19.5649 85.1494 7.58301 72.5344 7.58301 57.0307C7.58301 49.1037 13.5337 42.6162 20.9756 42.2516C21.307 42.2374 21.6384 42.2326 21.9697 42.2374C25.8943 42.3321 29.4874 44.1078 32.0201 47.0437C32.1716 47.2047 32.5124 47.6357 32.6497 47.8109C32.7302 47.9104 32.806 47.8299 32.8817 47.9293V22.4008L32.8722 22.4055Z" fill="#D6D7D8"/>
<path opacity="0.35" d="M32.56 22.0697C32.56 13.9154 38.861 7.28113 46.6059 7.28113C54.3507 7.28113 60.6517 13.9154 60.6517 22.0697V56.695C60.6517 72.1939 48.6746 84.8042 33.9565 84.8042C19.2384 84.8042 7.26129 72.1939 7.26129 56.695C7.26129 48.7632 13.2214 42.271 20.6728 41.9253C21.0042 41.9111 21.3356 41.9064 21.667 41.9158C25.5915 42.02 29.1799 43.8005 31.7079 46.7554C31.8499 46.9117 32.2049 47.3567 32.3375 47.5225C32.4132 47.6172 32.4842 47.5131 32.5552 47.6078V22.0603L32.56 22.0697Z" fill="#D2D3D4"/>
<path opacity="0.39" d="M32.2427 21.7336C32.2427 13.584 38.539 6.95447 46.2791 6.95447C54.0193 6.95447 60.3155 13.584 60.3155 21.7336V56.3636C60.3155 71.8578 48.3432 84.4586 33.6298 84.4586C18.9164 84.4586 6.94403 71.853 6.94403 56.3636C6.94403 48.4271 12.9184 41.9348 20.3792 41.608C20.7106 41.5938 21.042 41.5891 21.3734 41.5985C25.2979 41.7122 28.8816 43.5022 31.4048 46.4713C31.5421 46.6181 31.9066 47.0822 32.0344 47.2385C32.1054 47.3284 32.1764 47.2005 32.2427 47.2952V21.7336Z" fill="#CECFD0"/>
<path opacity="0.42" d="M31.9302 21.3967C31.9302 13.2519 38.2217 6.62708 45.9571 6.62708C53.6925 6.62708 59.9841 13.2519 59.9841 21.3967V56.0218C59.9841 71.5066 48.0164 84.1075 33.3125 84.1075C18.6086 84.1075 6.63623 71.5066 6.63623 56.0218C6.63623 48.0806 12.6201 41.5837 20.0904 41.2759C20.4217 41.2617 20.7531 41.2617 21.0845 41.2711C25.0043 41.3943 28.588 43.1938 31.1065 46.1771C31.2343 46.3144 31.613 46.7973 31.7361 46.9489C31.8024 47.0341 31.8686 46.8873 31.9349 46.9726V21.3967H31.9302Z" fill="#CACBCC"/>
<path opacity="0.45" d="M31.6177 21.0611C31.6177 12.9257 37.9045 6.30554 45.6305 6.30554C53.3564 6.30554 59.6432 12.9257 59.6432 21.0611V55.6862C59.6432 71.1662 47.6803 83.7623 32.9811 83.7623C18.2819 83.7623 6.31903 71.1662 6.31903 55.6862C6.31903 47.7402 12.3171 41.2433 19.7921 40.9497C20.1235 40.9355 20.4549 40.9355 20.7862 40.9497C24.706 41.0823 28.285 42.8912 30.7987 45.8887C30.9218 46.0213 31.31 46.5233 31.4236 46.6606C31.4852 46.7411 31.5514 46.5707 31.6082 46.6512V21.0611H31.6177Z" fill="#C6C7C8"/>
<path opacity="0.48" d="M31.3054 20.7249C31.3054 12.5943 37.5875 5.97888 45.3087 5.97888C53.0299 5.97888 59.312 12.5943 59.312 20.7249V55.3501C59.312 70.8253 47.3538 83.412 32.6593 83.412C17.9649 83.412 6.00671 70.8253 6.00671 55.3501C6.00671 47.3993 12.0189 40.8977 19.5034 40.6231C19.8348 40.6089 20.1662 40.6089 20.5023 40.6231C24.4174 40.7651 28.001 42.5835 30.5053 45.5952C30.619 45.7183 31.0214 46.2392 31.1302 46.3718C31.1918 46.4475 31.2486 46.2533 31.3054 46.3291V20.7202V20.7249Z" fill="#C2C3C4"/>
<path opacity="0.52" d="M30.9882 20.3934C30.9882 12.2674 37.2655 5.66162 44.982 5.66162C52.6985 5.66162 58.9758 12.2722 58.9758 20.3934V55.0186C58.9758 70.4844 47.0224 83.071 32.3327 83.071C17.643 83.071 5.68951 70.4891 5.68951 55.0186C5.68951 47.0631 11.7112 40.5614 19.2052 40.3009C19.5366 40.2915 19.8727 40.2915 20.2041 40.3009C24.1191 40.4525 27.698 42.2804 30.1976 45.3063C30.3065 45.4247 30.7184 45.9597 30.8225 46.0828C30.8793 46.1539 30.9314 45.9408 30.9882 46.0119V20.3886V20.3934Z" fill="#BDBEC0"/>
<path opacity="0.55" d="M30.6756 20.0566C30.6756 11.9401 36.9482 5.33435 44.6552 5.33435C52.3623 5.33435 58.6349 11.9401 58.6349 20.0566V54.6818C58.6349 70.1429 46.6909 82.7201 32.0059 82.7201C17.3209 82.7201 5.37695 70.1429 5.37695 54.6818C5.37695 46.7216 11.4128 40.2152 18.9163 39.9784C19.2477 39.969 19.5838 39.969 19.9152 39.9784C23.8302 40.1394 27.4044 41.9767 29.8993 45.0121C29.9987 45.121 30.4295 45.6751 30.5194 45.7935C30.5715 45.8598 30.6236 45.623 30.6709 45.6893V20.0519L30.6756 20.0566Z" fill="#B9BABC"/>
<path opacity="0.58" d="M30.3633 19.721C30.3633 11.6092 36.6312 5.01282 44.3335 5.01282C52.0357 5.01282 58.3036 11.614 58.3036 19.721V54.3462C58.3036 69.8025 46.3644 82.3749 31.6841 82.3749C17.0039 82.3749 5.06464 69.8025 5.06464 54.3462C5.06464 46.3813 11.11 39.8748 18.6229 39.6523C18.9543 39.6428 19.2904 39.6428 19.6218 39.657C23.5321 39.8275 27.1063 41.6743 29.5964 44.7239C29.6911 44.8233 30.1314 45.3962 30.2166 45.5051C30.2639 45.5667 30.3112 45.3062 30.3586 45.3678V19.7162L30.3633 19.721Z" fill="#B5B6B8"/>
<path opacity="0.61" d="M30.0508 19.3848C30.0508 11.2778 36.3139 4.68616 44.0115 4.68616C51.709 4.68616 57.9722 11.2778 57.9722 19.3848V54.0147C57.9722 69.4615 46.0377 82.0341 31.3621 82.0341C16.6866 82.0341 4.75214 69.4663 4.75214 54.0147C4.75214 46.045 10.8117 39.5339 18.3294 39.3302C18.6655 39.3208 18.9968 39.3255 19.3282 39.3397C23.2385 39.5197 26.808 41.3759 29.2934 44.4397C29.3786 44.5344 29.8331 45.1217 29.9135 45.2211C29.9561 45.278 30.0035 44.9938 30.0461 45.0554V19.3896L30.0508 19.3848Z" fill="#B1B2B4"/>
<path opacity="0.65" d="M29.7337 19.0487C29.7337 10.9512 35.9921 4.3595 43.6849 4.3595C51.3777 4.3595 57.6361 10.9464 57.6361 19.0487V53.6738C57.6361 69.1159 45.7064 81.679 31.0403 81.679C16.3743 81.679 4.44452 69.1159 4.44452 53.6738C4.44452 45.6994 10.5136 39.1882 18.0454 38.9988C18.3815 38.9894 18.7129 38.9988 19.049 39.0083C22.9546 39.1977 26.5288 41.0635 29.0047 44.1415C29.0852 44.2267 29.5491 44.8376 29.6201 44.9275C29.6627 44.9796 29.7006 44.6766 29.7385 44.7287V19.0439L29.7337 19.0487Z" fill="#ADAEB0"/>
<path opacity="0.68" d="M29.4212 18.7122C29.4212 10.6194 35.6749 4.03723 43.3582 4.03723C51.0416 4.03723 57.2952 10.6194 57.2952 18.7122V53.3373C57.2952 68.7747 45.3702 81.333 30.7089 81.333C16.0476 81.333 4.12256 68.7747 4.12256 53.3373C4.12256 45.3582 10.2058 38.847 17.7424 38.6718C18.0785 38.6624 18.4099 38.6718 18.746 38.686C22.6516 38.8849 26.221 40.7554 28.6922 43.8523C28.7632 43.9281 29.2414 44.558 29.3076 44.6385C29.3455 44.6858 29.3834 44.3591 29.4165 44.4064V18.7075L29.4212 18.7122Z" fill="#A9AAAC"/>
<path opacity="0.71" d="M29.1087 18.3761C29.1087 10.288 35.3577 3.71057 43.0363 3.71057C50.7149 3.71057 56.9638 10.288 56.9638 18.3761V53.0013C56.9638 68.4292 45.0435 80.9827 30.3869 80.9827C15.7304 80.9827 3.81006 68.4292 3.81006 53.0013C3.81006 45.0174 9.90276 38.5015 17.4535 38.3453C17.7897 38.3405 18.121 38.3453 18.4572 38.3595C22.3627 38.5679 25.9275 40.4478 28.3939 43.5589C28.4602 43.63 28.9478 44.274 29.0093 44.3497C29.0425 44.3923 29.0756 44.0419 29.1087 44.0845V18.3713V18.3761Z" fill="#A5A6A8"/>
<path opacity="0.74" d="M28.7962 18.0396C28.7962 9.961 35.0404 3.38831 42.7143 3.38831C50.3882 3.38831 56.6324 9.961 56.6324 18.0396V52.6648C56.6324 68.088 44.7168 80.6368 30.065 80.6368C15.4131 80.6368 3.49756 68.088 3.49756 52.6648C3.49756 44.6762 9.60446 38.1602 17.16 38.0229C17.4961 38.0182 17.8322 38.0229 18.1636 38.0419C22.0644 38.2597 25.6292 40.1491 28.0909 43.2745C28.1477 43.336 28.6495 43.999 28.7063 44.0653C28.7347 44.1031 28.7678 43.7338 28.7962 43.7717V18.0443V18.0396Z" fill="#A1A2A4"/>
<path opacity="0.77" d="M28.4792 17.7034C28.4792 9.62959 34.7187 3.06165 42.3831 3.06165C50.0475 3.06165 56.287 9.62959 56.287 17.7034V52.3287C56.287 67.7471 44.3761 80.2863 29.7337 80.2863C15.0914 80.2863 3.18054 67.7424 3.18054 52.3287C3.18054 44.3353 9.30165 37.8146 16.8619 37.6962C17.198 37.6915 17.5341 37.6963 17.8655 37.7152C21.7664 37.9425 25.3264 39.8414 27.7833 42.981C27.8354 43.0331 28.3467 43.715 28.394 43.7718C28.4224 43.8049 28.4461 43.4119 28.4698 43.4451V17.6987L28.4792 17.7034Z" fill="#9D9EA1"/>
<path opacity="0.81" d="M28.1667 17.3673C28.1667 9.29819 34.4014 2.73499 42.0611 2.73499C49.7208 2.73499 55.9555 9.29819 55.9555 17.3673V51.9924C55.9555 67.4014 44.0494 79.9407 29.4118 79.9407C14.7741 79.9407 2.86804 67.4014 2.86804 51.9924C2.86804 43.9943 8.99862 37.4738 16.5731 37.3696C16.9092 37.3696 17.2453 37.3696 17.5814 37.3933C21.4823 37.63 25.0423 39.5384 27.4898 42.6921C27.5324 42.7395 28.0626 43.4356 28.1004 43.4877C28.1241 43.5161 28.1431 43.0994 28.1667 43.1278V17.3673Z" fill="#999A9D"/>
<path opacity="0.84" d="M27.8542 17.0309C27.8542 8.97129 34.0842 2.41272 41.7391 2.41272C49.394 2.41272 55.624 8.97129 55.624 17.0309V51.656C55.624 67.0603 43.7227 79.5948 29.0898 79.5948C14.4568 79.5948 2.55548 67.0603 2.55548 51.656C2.55548 43.6532 8.70026 37.1279 16.2795 37.0427C16.6156 37.0427 16.9517 37.0474 17.2878 37.0664C21.1839 37.3126 24.7439 39.2305 27.1867 42.3937C27.2245 42.4316 27.7642 43.1466 27.7974 43.1892C27.8163 43.2129 27.8352 42.7725 27.8542 42.7961V17.0214V17.0309Z" fill="#949699"/>
<path opacity="0.87" d="M27.5418 16.6948C27.5418 8.63989 33.7671 2.08606 41.4126 2.08606C49.058 2.08606 55.2833 8.63989 55.2833 16.6948V51.3199C55.2833 66.7194 43.3867 79.2445 28.7632 79.2445C14.1398 79.2445 2.24316 66.7194 2.24316 51.3199C2.24316 43.3124 8.39741 36.7871 15.9908 36.716C16.3269 36.716 16.663 36.7207 16.9992 36.7444C20.8953 37.0001 24.4505 38.9274 26.8933 42.1048C26.9217 42.138 27.4756 42.8719 27.4992 42.9051C27.5134 42.924 27.5276 42.4648 27.5418 42.4837V16.6948Z" fill="#909295"/>
<path opacity="0.9" d="M27.2247 16.3582C27.2247 8.30802 33.4452 1.76379 41.0859 1.76379C48.7266 1.76379 54.9472 8.31275 54.9472 16.3582V50.9834C54.9472 66.3734 43.0553 78.8985 28.4366 78.8985C13.8179 78.8985 1.92596 66.3782 1.92596 50.9834C1.92596 42.9711 8.09441 36.441 15.6925 36.3889C16.0287 36.3889 16.3648 36.3984 16.7009 36.4173C20.5923 36.6825 24.1475 38.6192 26.5856 41.8109C26.6092 41.8346 27.1726 42.5876 27.1915 42.6113C27.201 42.6255 27.2152 42.1425 27.2247 42.1567V16.3488V16.3582Z" fill="#8C8E91"/>
<path opacity="0.94" d="M26.9121 16.022C26.9121 7.98135 33.1279 1.43713 40.7639 1.43713C48.3999 1.43713 54.6157 7.98135 54.6157 16.022V50.6473C54.6157 66.0326 42.7286 78.5481 28.1146 78.5481C13.5006 78.5481 1.61346 66.0326 1.61346 50.6473C1.61346 42.6303 7.79138 36.1001 15.399 36.067C15.7351 36.067 16.0759 36.0765 16.4073 36.1002C20.2987 36.3748 23.8492 38.321 26.2825 41.5269C26.2967 41.5411 26.8743 42.313 26.8885 42.3272C26.8979 42.3366 26.9027 41.8299 26.9121 41.8394V16.0173V16.022Z" fill="#888A8D"/>
<path opacity="0.97" d="M26.5998 15.6864C26.5998 7.65045 32.8108 1.1156 40.4421 1.1156C48.0733 1.1156 54.2844 7.65518 54.2844 15.6864V50.3116C54.2844 65.6922 42.402 78.203 27.7975 78.203C13.193 78.203 1.31055 65.6922 1.31055 50.3116C1.31055 42.2851 7.50266 35.755 15.1197 35.7408C15.4606 35.7408 15.7967 35.7502 16.1281 35.7739C20.0195 36.058 23.57 38.0137 25.9938 41.2338C26.0033 41.2433 26.5903 42.0294 26.5998 42.0389C26.5998 42.0389 26.6092 41.518 26.6092 41.5227V15.6864H26.5998Z" fill="#848689"/>
<path d="M27.466 77.8571C12.8663 77.8571 0.988586 65.351 0.988586 49.9752C0.988586 41.944 7.19017 35.4139 14.8167 35.4139C19.0963 35.4139 23.0587 37.4311 25.6813 40.9448L26.2825 41.7498V15.3453C26.2825 7.31404 32.4841 0.783936 40.1107 0.783936C47.7372 0.783936 53.9388 7.31404 53.9388 15.3453V49.9705C53.9388 65.3416 42.0611 77.8524 27.4613 77.8524L27.466 77.8571Z" fill="#808285"/>
</g>
<path d="M27.4661 78.2121C12.6817 78.2121 0.652527 65.5449 0.652527 49.9797C0.652527 41.7543 7.0056 35.0632 14.8168 35.0632C19.2904 35.0632 23.3333 37.2274 25.9465 40.7268V15.3498C25.9465 7.12445 32.2996 0.43335 40.1107 0.43335C47.9219 0.43335 54.2749 7.12445 54.2749 15.3498V49.975C54.2749 65.545 42.2458 78.2074 27.4614 78.2074L27.4661 78.2121Z" fill="url(#paint0_linear_53_37736)"/>
<path d="M27.4662 76.7919C13.4251 76.7919 2.00183 64.764 2.00183 49.9801C2.00183 42.5408 7.75368 36.4842 14.8169 36.4842C20.8764 36.4842 25.9703 40.9356 27.2958 46.8974V15.3502C27.2958 7.91093 33.0476 1.85437 40.1108 1.85437C47.174 1.85437 52.9258 7.91093 52.9258 15.3502V49.9755C52.9258 64.7593 41.5026 76.7872 27.4615 76.7872L27.4662 76.7919Z" fill="url(#paint1_linear_53_37736)"/>
<path d="M27.5702 74.6604H27.4613C25.9653 74.6604 24.4646 74.5137 23.0066 74.2248C22.5237 74.1301 22.2113 73.6613 22.3107 73.1783C22.4053 72.6953 22.874 72.3874 23.3569 72.4821C24.7014 72.752 26.0837 72.8847 27.466 72.8847H27.5749C28.0673 72.8847 28.4602 73.2824 28.4602 73.7749C28.4602 74.2673 28.0625 74.6652 27.5749 74.6652L27.5702 74.6604ZM31.8497 74.2201C31.4379 74.2201 31.0686 73.9312 30.9834 73.5098C30.884 73.0315 31.1964 72.5627 31.6746 72.4633C33.0191 72.1886 34.3446 71.7766 35.618 71.2415C36.0678 71.0521 36.5885 71.2652 36.7826 71.715C36.972 72.1696 36.7589 72.6858 36.3092 72.8799C34.9316 73.4576 33.4925 73.9028 32.0344 74.2011C31.9728 74.2153 31.916 74.2201 31.8545 74.2201H31.8497ZM19.0678 72.9888C18.9542 72.9888 18.8406 72.9652 18.727 72.9226C17.3589 72.3543 16.0286 71.644 14.7788 70.82C14.3717 70.5501 14.2581 69.9961 14.5279 69.5889C14.7978 69.1816 15.3516 69.068 15.7588 69.3379C16.9139 70.105 18.14 70.7585 19.404 71.2842C19.8584 71.4736 20.0715 71.9897 19.8821 72.4443C19.7401 72.7853 19.4087 72.9936 19.0631 72.9936L19.0678 72.9888ZM39.7509 70.9053C39.4668 70.9053 39.1828 70.768 39.0123 70.5122C38.7378 70.105 38.8466 69.5509 39.2538 69.281C40.3947 68.5186 41.474 67.6379 42.4635 66.6672C42.8138 66.3215 43.3771 66.3261 43.718 66.6765C44.0636 67.0269 44.0588 67.5905 43.7085 67.9315C42.6386 68.9827 41.474 69.9298 40.2432 70.7537C40.0917 70.8532 39.9213 70.9053 39.7509 70.9053ZM11.9195 68.2582C11.697 68.2582 11.4745 68.1729 11.2993 68.0072C10.2389 66.9749 9.25893 65.8337 8.39733 64.612C8.11329 64.2142 8.20797 63.6601 8.60563 63.376C9.00329 63.0919 9.55717 63.1866 9.84121 63.5844C10.6413 64.7162 11.5502 65.7769 12.5349 66.7334C12.8852 67.0744 12.8947 67.6378 12.5538 67.9882C12.3787 68.1682 12.1467 68.2582 11.9195 68.2582ZM45.8672 64.9008C45.6921 64.9008 45.5122 64.8487 45.3559 64.7398C44.9536 64.4557 44.8589 63.9016 45.1382 63.5038C45.9288 62.3768 46.6247 61.1694 47.207 59.9098C47.4105 59.4646 47.9407 59.2704 48.3857 59.4788C48.8307 59.6824 49.0248 60.2127 48.8165 60.6579C48.1916 62.0122 47.4389 63.3145 46.5868 64.5268C46.4116 64.773 46.1371 64.9055 45.8578 64.9055L45.8672 64.9008ZM6.95819 61.2687C6.62207 61.2687 6.30489 61.0793 6.1534 60.7573C5.52377 59.4124 5.0125 58.0014 4.62904 56.5618C4.50122 56.0883 4.78526 55.6005 5.25867 55.4774C5.73207 55.3495 6.21968 55.6337 6.34276 56.1072C6.69782 57.4426 7.17595 58.7543 7.75824 60.0044C7.96654 60.4496 7.77244 60.9752 7.33218 61.1835C7.20909 61.2404 7.08127 61.2687 6.95819 61.2687ZM49.4698 57.1158C49.3941 57.1158 49.3183 57.1063 49.2426 57.0874C48.7692 56.9642 48.4851 56.4766 48.6082 56.0031C48.9585 54.6724 49.1905 53.2943 49.2994 51.9116C49.3373 51.4239 49.7633 51.064 50.2557 51.0971C50.7433 51.135 51.1078 51.566 51.0699 52.0537C50.9516 53.5406 50.7007 55.0181 50.3267 56.4529C50.2225 56.8507 49.8628 57.1158 49.4698 57.1158ZM27.466 53.7063C25.6008 53.7063 24.0859 52.0348 24.0859 49.9749C24.0859 49.4824 24.4836 49.0656 24.9759 49.0656C25.4683 49.0656 25.8612 49.4445 25.8612 49.9323H24.9759L25.8612 49.9465C25.8612 51.0593 26.5902 51.9258 27.5039 51.9211C27.9773 51.9211 28.3892 52.2952 28.4128 52.7735C28.4318 53.2612 28.072 53.6779 27.5844 53.6969H27.4708L27.466 53.7063ZM4.75213 52.9771C4.29766 52.9771 3.90947 52.6267 3.86686 52.1626C3.80532 51.4381 3.77692 50.7042 3.77692 49.9749C3.77692 49.1841 3.85739 48.3885 4.01835 47.6166C4.11777 47.1336 4.58644 46.8258 5.06457 46.9252C5.54271 47.0247 5.85516 47.4935 5.75574 47.9717C5.62319 48.6252 5.55218 49.2977 5.55218 49.9702C5.55218 50.6426 5.58058 51.3339 5.63739 52.011C5.68 52.4988 5.31548 52.9297 4.82787 52.9723C4.8042 52.9723 4.7758 52.9723 4.75213 52.9723V52.9771ZM29.9609 50.671C29.4685 50.671 29.0709 50.2732 29.0709 49.7807V45.4668C29.0709 44.9743 29.4685 44.5765 29.9609 44.5765C30.4532 44.5765 30.8509 44.9743 30.8509 45.4668V49.7807C30.8509 50.2732 30.4532 50.671 29.9609 50.671ZM50.2699 48.5589C49.7775 48.5589 49.3846 48.1612 49.3846 47.6687V43.3547C49.3846 42.8623 49.7823 42.4645 50.2699 42.4645C50.7575 42.4645 51.1551 42.8623 51.1551 43.3547V47.6687C51.1551 48.1612 50.7575 48.5589 50.2699 48.5589ZM24.1049 46.6317C23.7593 46.6317 23.4326 46.428 23.2906 46.0918C22.7651 44.8653 22.0077 43.7857 21.0467 42.8812C20.6916 42.545 20.6727 41.9815 21.0088 41.6264C21.3449 41.2665 21.9083 41.2522 22.2633 41.5884C23.4042 42.6634 24.299 43.9419 24.9239 45.3957C25.1179 45.8456 24.9096 46.3664 24.4599 46.5606C24.3463 46.608 24.2279 46.6317 24.1096 46.6317H24.1049ZM6.57473 44.7518C6.39957 44.7518 6.21968 44.6996 6.06819 44.5907C5.66579 44.3113 5.56638 43.7572 5.85042 43.3547C6.74516 42.0714 7.9192 40.9728 9.23526 40.1726C9.65659 39.9169 10.201 40.0542 10.4566 40.471C10.7123 40.8924 10.575 41.4369 10.1584 41.6926C9.0459 42.365 8.06122 43.2932 7.30851 44.3729C7.13808 44.6191 6.85877 44.7518 6.57946 44.7518H6.57473ZM29.9609 42.0478C29.4685 42.0478 29.0709 41.65 29.0709 41.1576V36.8436C29.0709 36.3511 29.4685 35.9534 29.9609 35.9534C30.4532 35.9534 30.8509 36.3511 30.8509 36.8436V41.1576C30.8509 41.65 30.4532 42.0478 29.9609 42.0478ZM17.9932 40.9113C17.8985 40.9113 17.8039 40.8971 17.7092 40.8639C16.4736 40.4425 15.1386 40.3004 13.8415 40.4425C13.3491 40.4899 12.9136 40.1442 12.8615 39.6565C12.8095 39.1687 13.1598 38.733 13.6474 38.6762C15.1954 38.5057 16.7955 38.6763 18.2773 39.1829C18.7412 39.3392 18.9874 39.8458 18.8311 40.3099C18.7033 40.6793 18.3625 40.9113 17.9932 40.9113ZM50.2699 39.9358C49.7775 39.9358 49.3846 39.5381 49.3846 39.0456V34.7316C49.3846 34.2391 49.7823 33.8414 50.2699 33.8414C50.7575 33.8414 51.1551 34.2391 51.1551 34.7316V39.0456C51.1551 39.5381 50.7575 39.9358 50.2699 39.9358ZM29.9609 33.4199C29.4685 33.4199 29.0709 33.0222 29.0709 32.5297V28.2157C29.0709 27.7232 29.4685 27.3255 29.9609 27.3255C30.4532 27.3255 30.8509 27.7232 30.8509 28.2157V32.5297C30.8509 33.0222 30.4532 33.4199 29.9609 33.4199ZM50.2699 31.3079C49.7775 31.3079 49.3846 30.9102 49.3846 30.4177V26.1037C49.3846 25.6113 49.7823 25.2135 50.2699 25.2135C50.7575 25.2135 51.1551 25.6113 51.1551 26.1037V30.4177C51.1551 30.9102 50.7575 31.3079 50.2699 31.3079ZM29.9609 24.792C29.4685 24.792 29.0709 24.3943 29.0709 23.9018V19.5878C29.0709 19.0954 29.4685 18.6976 29.9609 18.6976C30.4532 18.6976 30.8509 19.0954 30.8509 19.5878V23.9018C30.8509 24.3943 30.4532 24.792 29.9609 24.792ZM50.2699 22.6801C49.7775 22.6801 49.3846 22.2823 49.3846 21.7899V17.4759C49.3846 16.9834 49.7823 16.5857 50.2699 16.5857C50.7575 16.5857 51.1551 16.9834 51.1551 17.4759V21.7899C51.1551 22.2823 50.7575 22.6801 50.2699 22.6801ZM29.9609 16.1642H29.9561C29.4638 16.1642 29.0709 15.7617 29.0756 15.2692C29.0851 13.6923 29.4022 12.1628 30.0224 10.7279C30.2165 10.2781 30.7372 10.0697 31.1917 10.2639C31.6414 10.458 31.8497 10.9836 31.6557 11.4335C31.1302 12.6458 30.8603 13.9386 30.8556 15.2787C30.8556 15.7664 30.4579 16.1594 29.9703 16.1594L29.9609 16.1642ZM50.0521 14.0712C49.6403 14.0712 49.271 13.7823 49.1811 13.3608C48.9159 12.0539 48.3952 10.8416 47.6378 9.75242C47.3584 9.34991 47.4579 8.79594 47.8603 8.51655C48.2626 8.23716 48.8165 8.33659 49.0958 8.7391C49.9906 10.0271 50.606 11.462 50.9184 13.0057C51.0179 13.4887 50.7054 13.9575 50.2273 14.0522C50.1657 14.0664 50.1089 14.0712 50.0474 14.0712H50.0521ZM33.2984 8.46915C33.0617 8.46915 32.825 8.3744 32.6498 8.18972C32.3137 7.82983 32.3326 7.2711 32.6924 6.93489C33.857 5.84575 35.1967 5.0407 36.6832 4.53875C37.1471 4.38249 37.6489 4.63354 37.8099 5.09761C37.9661 5.56168 37.7152 6.06358 37.2513 6.22458C36.011 6.64603 34.8843 7.31845 33.9091 8.23238C33.7386 8.39338 33.5209 8.47389 33.3031 8.47389L33.2984 8.46915ZM45.2565 7.19536C45.1003 7.19536 44.9394 7.15273 44.7973 7.06749C43.6612 6.37613 42.4208 5.94998 41.1143 5.80792C40.6266 5.75583 40.2763 5.31541 40.3284 4.82766C40.3805 4.33992 40.8255 3.98954 41.3083 4.04163C42.8753 4.21684 44.3571 4.7235 45.7157 5.55219C46.1323 5.8079 46.2696 6.35239 46.014 6.77384C45.8483 7.0485 45.5548 7.2001 45.2565 7.2001V7.19536Z" fill="#76B83F"/>
<path d="M27.4662 69.6887C17.1412 69.6887 8.7478 60.8476 8.7478 49.9799C8.7478 46.4473 11.4651 43.5871 14.8168 43.5871C18.1685 43.5871 20.8859 46.4473 20.8859 49.9799C20.8859 53.7966 23.8352 56.9031 27.4614 56.9031C31.0877 56.9031 34.037 53.7966 34.037 49.9799V15.3548C34.037 11.8222 36.7544 8.96204 40.1061 8.96204C43.4577 8.96204 46.1751 11.8222 46.1751 15.3548V49.9799C46.1751 60.8476 37.7769 69.6887 27.4567 69.6887H27.4662Z" fill="url(#paint2_linear_53_37736)"/>
<defs>
<linearGradient id="paint0_linear_53_37736" x1="0.652527" y1="39.3251" x2="54.2797" y2="39.3251" gradientUnits="userSpaceOnUse">
<stop stop-color="#F1F2F2"/>
<stop offset="1" stop-color="#D1D3D4"/>
</linearGradient>
<linearGradient id="paint1_linear_53_37736" x1="2.00183" y1="39.3255" x2="52.9306" y2="39.3255" gradientUnits="userSpaceOnUse">
<stop stop-color="#D1D3D4"/>
<stop offset="1" stop-color="#F1F2F2"/>
</linearGradient>
<linearGradient id="paint2_linear_53_37736" x1="8.7478" y1="39.3254" x2="46.1846" y2="39.3254" gradientUnits="userSpaceOnUse">
<stop stop-color="#8DC63F"/>
<stop offset="0.21" stop-color="#80BE3F"/>
<stop offset="0.51" stop-color="#78B93F"/>
<stop offset="1" stop-color="#76B83F"/>
</linearGradient>
</defs>
</svg>
