<svg width="75" height="89" viewBox="0 0 75 89" fill="none" xmlns="http://www.w3.org/2000/svg">
<g style="mix-blend-mode:multiply">
<path opacity="0.03" d="M24.4939 10.5417C30.8233 10.5417 36.1964 14.8888 38.0048 20.9691C38.0616 21.1585 38.1184 21.3669 38.1658 21.5563C38.1894 21.6557 38.2226 21.7504 38.2463 21.8545L44.8408 14.9125C47.5155 12.0997 51.0707 10.5465 54.8485 10.5465C58.6263 10.5465 62.1863 12.0949 64.8563 14.9125C67.531 17.7253 69.0033 21.471 69.0033 25.4535C69.0033 29.4359 67.6067 32.9875 65.0598 35.7767C64.9935 35.8477 64.9178 35.9282 64.8515 35.9992L54.6307 46.7627L69.9169 62.8583C72.5917 65.6711 74.064 69.4168 74.064 73.3993C74.064 77.3818 72.5917 81.1227 69.9169 83.9403C67.2469 86.7531 63.6917 88.3063 59.9092 88.3063C56.1267 88.3063 52.5714 86.7578 49.9014 83.9403L38.6486 72.0923V73.3709C38.6486 73.6408 38.6392 73.9391 38.6297 74.2043C38.232 82.0508 32.0447 88.3016 24.4939 88.3016C16.9431 88.3016 10.3391 81.6152 10.3391 73.3946V25.4487C10.3391 17.2281 16.6875 10.5417 24.4939 10.5417Z" fill="#FBFBFB"/>
<path opacity="0.06" d="M24.1672 10.2191C30.5014 10.2191 35.8792 14.571 37.6734 20.6654C37.7255 20.8453 37.7871 21.0679 37.8344 21.2526C37.8581 21.352 37.8959 21.4326 37.9196 21.532L44.5189 14.5805C47.1889 11.7677 50.7441 10.2191 54.5219 10.2191C58.2996 10.2191 61.8549 11.7677 64.5249 14.5805C67.1949 17.3933 68.6672 21.1343 68.6672 25.112C68.6672 29.0897 67.2659 32.6459 64.719 35.4351C64.6527 35.5061 64.577 35.5914 64.5107 35.6577L54.2899 46.4212L69.5856 62.5263C72.2556 65.3391 73.7279 69.0801 73.7279 73.0578C73.7279 77.0355 72.2556 80.7765 69.5856 83.5893C66.9156 86.4021 63.3651 87.9506 59.5826 87.9506C55.8001 87.9506 52.2543 86.4021 49.5795 83.5893L38.3078 71.7224V73.0009C38.3078 73.2614 38.3031 73.5787 38.2889 73.8344C37.9007 81.6856 31.7133 87.9459 24.1625 87.9459C16.6117 87.9459 10.0172 81.2642 10.0172 73.0531V25.1073C10.0172 16.8961 16.3608 10.2145 24.1625 10.2145L24.1672 10.2191Z" fill="#F7F7F7"/>
<path opacity="0.1" d="M23.8454 9.89256C30.1796 9.89256 35.5622 14.2539 37.3469 20.3578C37.399 20.533 37.4605 20.7698 37.5078 20.945C37.5315 21.0397 37.5741 21.1108 37.5978 21.2055L44.2065 14.2491C46.8765 11.4363 50.427 9.89256 54.2001 9.89256C57.9731 9.89256 61.5236 11.441 64.1936 14.2538C66.8636 17.0619 68.3312 20.803 68.3312 24.776C68.3312 28.749 66.9299 32.3099 64.3782 35.099C64.3167 35.1653 64.2315 35.2553 64.1699 35.3216L53.9444 46.0852L69.2496 62.1997C71.9196 65.0125 73.3918 68.7488 73.3918 72.7218C73.3918 76.6948 71.9196 80.4357 69.2496 83.2438C66.5843 86.0519 63.0338 87.6003 59.256 87.6003C55.4783 87.6003 51.9325 86.0519 49.2625 83.2438L37.9765 71.3579V72.6365C37.9765 72.8874 37.9718 73.2237 37.9576 73.4746C37.5836 81.3307 31.3962 87.6003 23.8454 87.6003C16.2946 87.6003 9.70959 80.9235 9.70959 72.717V24.7712C9.70959 16.5648 16.0485 9.88782 23.8454 9.88782V9.89256Z" fill="#F3F3F3"/>
<path opacity="0.13" d="M23.5187 9.57056C29.8528 9.57056 35.2449 13.9365 37.0202 20.0594C37.0722 20.2299 37.1385 20.4761 37.1811 20.6513C37.2048 20.7413 37.2569 20.8029 37.2758 20.8976L43.8892 13.9318C46.5592 11.1237 50.105 9.5753 53.8781 9.5753C57.6511 9.5753 61.1969 11.1237 63.8669 13.9318C66.5321 16.7399 68.0044 20.4761 68.0044 24.4444C68.0044 28.4126 66.6031 31.9784 64.0468 34.7628C63.9852 34.8291 63.9 34.9191 63.8385 34.9854L53.6129 45.7489L68.9228 61.8682C71.5928 64.6763 73.0604 68.4125 73.0604 72.3855C73.0604 76.3585 71.5928 80.0948 68.9228 82.9029C66.2576 85.7109 62.7118 87.2594 58.9387 87.2594C55.1657 87.2594 51.6199 85.7109 48.9499 82.9029L37.645 70.998V72.2813C37.645 72.5275 37.6403 72.878 37.6261 73.1195C37.2663 80.9802 31.0789 87.2641 23.5234 87.2641C15.9679 87.2641 9.40179 80.5919 9.40179 72.3949V24.4491C9.40179 16.2474 15.7359 9.58004 23.5234 9.58004L23.5187 9.57056Z" fill="#EFEFEF"/>
<path opacity="0.16" d="M23.1969 9.2439C29.5358 9.2439 34.9278 13.6146 36.6936 19.7517C36.741 19.9127 36.812 20.1779 36.8546 20.3436C36.8783 20.4289 36.9351 20.4809 36.954 20.5709L43.5769 13.6004C46.2422 10.7923 49.788 9.24864 53.5563 9.24864C57.3246 9.24864 60.8704 10.7923 63.5356 13.6004C66.2009 16.4085 67.6684 20.1352 67.6684 24.1082C67.6684 28.0812 66.2624 31.6423 63.7108 34.4267C63.654 34.4882 63.564 34.5877 63.5025 34.6492L53.277 45.4175L68.5963 61.5463C71.2616 64.3543 72.7291 68.0858 72.7291 72.0541C72.7291 76.0223 71.2616 79.7538 68.5963 82.5619C65.931 85.3699 62.39 86.9138 58.617 86.9138C54.8439 86.9138 51.3029 85.3699 48.6376 82.5619L37.3138 70.6382V71.9215C37.3138 72.1582 37.3091 72.5276 37.2949 72.7596C36.9493 80.6298 30.7572 86.9185 23.2016 86.9185C15.6461 86.9185 9.08948 80.251 9.08948 72.0588V24.113C9.08948 15.9208 15.4189 9.25338 23.2016 9.25338L23.1969 9.2439Z" fill="#EBEBEB"/>
<path opacity="0.19" d="M22.8702 8.92163C29.2091 8.92163 34.6059 13.302 36.3669 19.4485C36.4143 19.6048 36.4853 19.8794 36.5279 20.0404C36.5516 20.1257 36.6131 20.1635 36.632 20.2488L43.2597 13.2688C45.925 10.4655 49.466 8.92163 53.2296 8.92163C56.9931 8.92163 60.5389 10.4655 63.1995 13.2688C65.8647 16.0722 67.3275 19.7989 67.3275 23.7671C67.3275 27.7354 65.9215 31.3011 63.3651 34.0856C63.3083 34.1471 63.2137 34.2465 63.1568 34.3081L52.9313 45.0764L68.2554 61.2146C70.9207 64.018 72.3882 67.7494 72.3882 71.7129C72.3882 75.6765 70.9207 79.4079 68.2554 82.2113C65.5949 85.0146 62.0538 86.5584 58.2855 86.5584C54.5172 86.5584 50.9762 85.0146 48.3156 82.2113L36.9729 70.2686V71.5519C36.9729 71.7792 36.9682 72.1675 36.954 72.3901C36.6226 80.265 30.4305 86.5632 22.8702 86.5632C15.31 86.5632 8.76752 79.9004 8.76752 71.7177V23.7719C8.76752 15.5844 15.0922 8.92637 22.8702 8.92637V8.92163Z" fill="#E6E7E7"/>
<path opacity="0.23" d="M22.5435 8.59505C28.8824 8.59505 34.2886 12.98 36.0355 19.1408C36.0781 19.2923 36.1539 19.5812 36.1917 19.7327C36.2107 19.8132 36.2817 19.8417 36.3006 19.9222L42.9377 12.9375C45.5983 10.1341 49.1393 8.59031 52.9029 8.59031C56.6664 8.59031 60.2075 10.1341 62.868 12.9375C65.5285 15.7408 66.9961 19.4628 66.9961 23.4263C66.9961 27.3898 65.5901 30.9651 63.029 33.7448C62.9769 33.8016 62.8775 33.9105 62.8207 33.9673L52.5904 44.7356L67.924 60.8833C70.5845 63.6867 72.052 67.4134 72.052 71.3721C72.052 75.3309 70.5845 79.0624 67.924 81.8657C65.2634 84.6691 61.7271 86.2082 57.9636 86.2082C54.2 86.2082 50.6589 84.6643 47.9984 81.861L36.6367 69.8946V71.178C36.6367 71.3959 36.632 71.7983 36.6178 72.0161C36.2959 79.8958 30.1085 86.2034 22.5435 86.2034C14.9785 86.2034 8.45502 79.5502 8.45502 71.3674V23.4216C8.45502 15.2388 14.775 8.58557 22.5435 8.58557V8.59505Z" fill="#E2E3E3"/>
<path opacity="0.26" d="M22.2216 8.27344C28.5652 8.27344 33.9714 12.6632 35.7088 18.8429C35.7514 18.9849 35.8272 19.288 35.8651 19.4348C35.884 19.5106 35.9597 19.5294 35.9787 19.6099L42.6205 12.6158C45.2811 9.81714 48.8174 8.27344 52.5762 8.27344C56.335 8.27344 59.8714 9.81714 62.5319 12.6158C65.1924 15.4144 66.6552 19.1364 66.6552 23.1C66.6552 27.0635 65.2492 30.6387 62.6834 33.4184C62.6313 33.4752 62.5271 33.5841 62.4751 33.641L52.2448 44.414L67.5878 60.5663C70.2484 63.3649 71.7112 67.087 71.7112 71.0505C71.7112 75.0141 70.2484 78.736 67.5878 81.5346C64.932 84.3333 61.3957 85.877 57.6322 85.877C53.8686 85.877 50.337 84.3333 47.6765 81.5346L36.2959 69.5493V70.8326C36.2959 71.041 36.2911 71.4624 36.2817 71.6708C35.9739 79.5599 29.7866 85.877 22.2168 85.877C14.6471 85.877 8.13782 79.2286 8.13782 71.0505V23.1047C8.13782 14.9314 14.453 8.27818 22.2168 8.27818L22.2216 8.27344Z" fill="#DEDFE0"/>
<path opacity="0.29" d="M21.895 7.94604C28.2386 7.94604 33.6496 12.3452 35.3823 18.5343C35.4249 18.6716 35.5054 18.9889 35.5385 19.1262C35.5575 19.202 35.6379 19.2068 35.6569 19.2825L42.3035 12.2836C44.9593 9.48501 48.4956 7.94604 52.2497 7.94604C56.0038 7.94604 59.5401 9.48501 62.1959 12.2836C64.8517 15.0822 66.3145 18.7996 66.3145 22.7584C66.3145 26.7171 64.9037 30.297 62.3426 33.0719C62.2953 33.124 62.1864 33.2425 62.1343 33.2946L51.9041 44.0676L67.2518 60.2294C69.9076 63.0281 71.3752 66.7454 71.3752 70.7042C71.3752 74.663 69.9124 78.3802 67.2518 81.1788C64.596 83.9774 61.0644 85.5164 57.3056 85.5164C53.5468 85.5164 50.0152 83.9774 47.3594 81.1788L35.9598 69.1745V70.4579C35.9598 70.6568 35.9551 71.0972 35.9456 71.2961C35.6521 79.19 29.46 85.5164 21.8903 85.5164C14.3206 85.5164 7.82074 78.8727 7.82074 70.7042V22.7584C7.82074 14.5898 14.1312 7.94604 21.8903 7.94604H21.895Z" fill="#DADBDC"/>
<path opacity="0.32" d="M21.573 7.62425C27.9166 7.62425 33.3371 12.0282 35.0555 18.2316C35.0934 18.3642 35.1786 18.6909 35.2117 18.8283C35.2307 18.8993 35.3159 18.8946 35.3348 18.9656L41.9909 11.9572C44.6467 9.16332 48.1783 7.62425 51.9324 7.62425C55.6865 7.62425 59.218 9.16332 61.8738 11.9619C64.5296 14.7558 65.9924 18.473 65.9924 22.4271C65.9924 26.3811 64.5817 29.9658 62.0159 32.7408C61.9685 32.7929 61.8549 32.9112 61.8076 32.9633L51.5773 43.7363L66.9345 59.9078C69.5903 62.7016 71.0531 66.4188 71.0531 70.3729C71.0531 74.327 69.5903 78.0443 66.9345 80.8382C64.2835 83.632 60.7519 85.171 56.993 85.171C53.2342 85.171 49.7074 83.632 47.0516 80.8382L35.6331 68.8151V70.0983C35.6331 70.2877 35.6283 70.7471 35.6189 70.9365C35.3396 78.8351 29.1474 85.171 21.5777 85.171C14.008 85.171 7.51764 78.532 7.51764 70.3682V22.4223C7.51764 14.2585 13.8234 7.61951 21.5777 7.61951L21.573 7.62425Z" fill="#D6D7D8"/>
<path opacity="0.35" d="M21.2463 7.29785C27.5947 7.29785 33.0151 11.7065 34.7289 17.9288C34.7667 18.0519 34.8519 18.3976 34.8851 18.5254C34.904 18.5917 34.994 18.5775 35.0129 18.6486L41.6737 11.6355C44.3247 8.84166 47.8563 7.30259 51.6057 7.30259C55.355 7.30259 58.8866 8.84166 61.5377 11.6355C64.1888 14.4294 65.6516 18.1419 65.6516 22.0912C65.6516 26.0405 64.2408 29.63 61.6702 32.4049C61.6276 32.4523 61.5093 32.5754 61.462 32.6274L51.227 43.4005L66.5937 59.5766C69.2447 62.3705 70.7075 66.083 70.7075 70.037C70.7075 73.9911 69.2447 77.7037 66.5937 80.4975C63.9426 83.2914 60.4157 84.8304 56.6616 84.8304C52.9076 84.8304 49.3807 83.2914 46.7296 80.4975L35.2922 68.4555V69.7388C35.2922 69.9187 35.2875 70.397 35.278 70.5769C35.0129 78.485 28.8208 84.8304 21.2463 84.8304C13.6719 84.8304 7.20044 78.1961 7.20044 70.0418V22.0959C7.20044 13.9416 13.5014 7.30733 21.2463 7.30733V7.29785Z" fill="#D2D3D4"/>
<path opacity="0.39" d="M20.9246 6.97131C27.2729 6.97131 32.7029 11.3894 34.4024 17.6212C34.4355 17.7396 34.5255 18.0947 34.5586 18.2179C34.5728 18.2794 34.6722 18.2557 34.6911 18.322L41.3614 11.2994C44.0125 8.51026 47.5393 6.97131 51.2887 6.97131C55.038 6.97131 58.5649 8.51026 61.216 11.2994C63.867 14.0886 65.3251 17.8011 65.3251 21.7504C65.3251 25.6998 63.9096 29.2892 61.339 32.0641C61.2964 32.1115 61.1781 32.2393 61.1307 32.2819L50.8958 43.0597L66.2672 59.2452C68.9182 62.0344 70.3763 65.747 70.3763 69.6963C70.3763 73.6456 68.9182 77.3582 66.2624 80.1473C63.6114 82.9365 60.0892 84.4754 56.3399 84.4754C52.5905 84.4754 49.0637 82.9365 46.4126 80.1473L34.9563 68.0863V69.3696C34.9563 69.54 34.9563 70.0373 34.942 70.2077C34.6911 78.1206 28.4943 84.4754 20.9198 84.4754C13.3454 84.4754 6.88342 77.8459 6.88342 69.6963V21.7504C6.88342 13.6008 13.1797 6.97131 20.9198 6.97131H20.9246Z" fill="#CECFD0"/>
<path opacity="0.42" d="M20.5978 6.64866C26.9462 6.64866 32.3808 11.0715 34.0709 17.3175C34.104 17.4312 34.194 17.8004 34.2271 17.9141C34.2413 17.9756 34.3502 17.9378 34.3644 17.9994L41.0394 10.972C43.6905 8.18287 47.2126 6.64866 50.9572 6.64866C54.7018 6.64866 58.2239 8.18287 60.875 10.972C63.5261 13.7612 64.9841 17.469 64.9841 21.4136C64.9841 25.3582 63.5687 28.9523 60.9981 31.7273C60.9602 31.7699 60.8324 31.9025 60.7945 31.9451L50.5595 42.7228L65.9404 58.9178C68.5915 61.707 70.0496 65.4148 70.0496 69.3594C70.0496 73.304 68.5915 77.0118 65.9404 79.801C63.2941 82.5901 59.772 84.1243 56.0226 84.1243C52.2733 84.1243 48.7559 82.5901 46.1048 79.801L34.6295 67.721V69.009C34.6295 69.17 34.6295 69.6862 34.6153 69.8472C34.3739 77.7647 28.1818 84.1291 20.6026 84.1291C13.0234 84.1291 6.57562 77.5043 6.57562 69.3594V21.4136C6.57562 13.2687 12.8672 6.64392 20.6026 6.64392L20.5978 6.64866Z" fill="#CACBCC"/>
<path opacity="0.45" d="M20.2758 6.32239C26.6289 6.32239 32.0636 10.75 33.7489 17.0149C33.782 17.1191 33.8767 17.5027 33.9051 17.6116C33.9193 17.6684 34.0329 17.621 34.0471 17.6826L40.7268 10.6459C43.3732 7.85671 46.8953 6.32239 50.6352 6.32239C54.3751 6.32239 57.8972 7.85671 60.5435 10.6459C63.1898 13.4303 64.6479 17.1381 64.6479 21.0779C64.6479 25.0178 63.2324 28.6167 60.6571 31.3916C60.6193 31.4342 60.4914 31.5716 60.4536 31.6094L50.2186 42.3872L65.6042 58.5917C68.2505 61.3761 69.7086 65.0839 69.7086 69.0238C69.7086 72.9636 68.2505 76.6714 65.6042 79.4606C62.9579 82.245 59.4405 83.7792 55.6959 83.7792C51.9512 83.7792 48.4339 82.245 45.7875 79.4558L34.2933 67.3569V68.6449C34.2933 68.7964 34.2933 69.3315 34.2791 69.4831C34.0518 77.4054 27.8597 83.7792 20.2758 83.7792C12.6919 83.7792 6.26306 77.1592 6.26306 69.0238V21.0779C6.26306 12.9425 12.5499 6.32239 20.2758 6.32239Z" fill="#C6C7C8"/>
<path opacity="0.48" d="M19.9492 6.00047C26.3023 6.00047 31.7464 10.4376 33.4175 16.712C33.4459 16.8114 33.5454 17.2092 33.569 17.3086C33.5832 17.3607 33.7016 17.3086 33.711 17.3607L40.4002 10.3192C43.0466 7.53479 46.564 6.00047 50.3038 6.00047C54.0437 6.00047 57.5611 7.53479 60.2074 10.3192C62.8538 13.1036 64.3071 16.8067 64.3071 20.7465C64.3071 24.6864 62.8916 28.2852 60.3116 31.0554C60.2737 31.0933 60.1412 31.2354 60.108 31.2733L49.8683 42.0511L65.2634 58.2603C67.9097 61.0447 69.3631 64.7478 69.3631 68.6876C69.3631 72.6275 67.905 76.3306 65.2587 79.115C62.6171 81.8994 59.0997 83.4336 55.3598 83.4336C51.6199 83.4336 48.1025 81.8994 45.4562 79.115L33.943 66.9923V68.2803C33.943 68.4271 33.943 68.9764 33.9335 69.1185C33.7205 77.0503 27.5237 83.4336 19.9397 83.4336C12.3558 83.4336 5.93646 76.8183 5.93646 68.6876V20.7418C5.93646 12.6111 12.2185 5.99573 19.9397 5.99573L19.9492 6.00047Z" fill="#C2C3C4"/>
<path opacity="0.52" d="M19.6273 5.67346C25.9804 5.67346 31.4293 10.1152 33.0956 16.4038C33.1241 16.4985 33.2235 16.9058 33.2471 17.0052C33.2613 17.0573 33.3844 16.991 33.3939 17.0384L40.0878 9.98734C42.7294 7.20293 46.2468 5.67346 49.982 5.67346C53.7171 5.67346 57.2345 7.20766 59.8761 9.98734C62.5177 12.7717 63.9758 16.4701 63.9758 20.4052C63.9758 24.3403 62.5556 27.9439 59.9755 30.7141C59.9424 30.752 59.8051 30.8942 59.7719 30.9321L49.5322 41.7144L64.9368 57.9332C67.5784 60.7176 69.0364 64.4159 69.0364 68.351C69.0364 72.2861 67.5831 75.9892 64.9368 78.7689C62.2952 81.5533 58.7825 83.0829 55.0426 83.0829C51.3028 83.0829 47.7901 81.5485 45.1485 78.7689L33.6211 66.6274V67.9154C33.6211 68.0527 33.6211 68.621 33.6117 68.7536C33.4128 76.6901 27.216 83.0829 19.6321 83.0829C12.0481 83.0829 5.63824 76.4722 5.63824 68.351V20.4052C5.63824 12.2793 11.9156 5.67346 19.6321 5.67346H19.6273Z" fill="#BDBEC0"/>
<path opacity="0.55" d="M19.3008 5.35107C25.6586 5.35107 31.1075 9.79758 32.7644 16.1004C32.7928 16.1856 32.8922 16.6118 32.9159 16.7018C32.9301 16.7491 33.0579 16.6734 33.0674 16.7207L39.7708 9.66495C42.4124 6.88528 45.925 5.35107 49.6554 5.35107C53.3859 5.35107 56.9032 6.88054 59.5401 9.66495C62.1817 12.4446 63.635 16.143 63.635 20.0733C63.635 24.0037 62.2148 27.6121 59.6348 30.3823C59.6016 30.4154 59.4596 30.5669 59.4312 30.6001L49.1915 41.3826L64.6008 57.6108C67.2424 60.3904 68.6957 64.0888 68.6957 68.0191C68.6957 71.9495 67.2424 75.6479 64.6008 78.4323C61.9639 81.2119 58.4513 82.7415 54.7161 82.7415C50.981 82.7415 47.4683 81.2119 44.8315 78.4323L33.2851 66.2718V67.5598C33.2851 67.6877 33.2851 68.2749 33.2757 68.398C33.091 76.3392 26.8942 82.7415 19.3055 82.7415C11.7169 82.7415 5.32593 76.1356 5.32593 68.0191V20.0733C5.32593 11.9569 11.5985 5.35107 19.3055 5.35107H19.3008Z" fill="#B9BABC"/>
<path opacity="0.58" d="M18.974 5.02454C25.3318 5.02454 30.7901 9.48054 32.4328 15.7975C32.4565 15.878 32.5654 16.3137 32.5843 16.399C32.5938 16.4416 32.7311 16.3563 32.7405 16.399L39.4487 9.33379C42.0855 6.55411 45.5982 5.02454 49.3286 5.02454C53.059 5.02454 56.5669 6.55411 59.2085 9.33379C61.8454 12.1135 63.2987 15.807 63.2987 19.7327C63.2987 23.6583 61.8785 27.2762 59.2937 30.0416C59.2653 30.0748 59.1186 30.2263 59.0902 30.2594L48.8505 41.0419L64.2692 57.2749C66.9061 60.0545 68.3594 63.7481 68.3594 67.6785C68.3594 71.6089 66.9061 75.3025 64.2645 78.0821C61.6276 80.8618 58.1197 82.3914 54.3845 82.3914C50.6494 82.3914 47.1462 80.8618 44.5046 78.0821L32.9394 65.9027V67.1908C32.9394 67.3091 32.9394 67.9153 32.9299 68.0289C32.7547 75.9796 26.5626 82.3867 18.9692 82.3867C11.3758 82.3867 4.99908 75.7855 4.99908 67.6785V19.7327C4.99908 11.621 11.2669 5.02454 18.9692 5.02454H18.974Z" fill="#B5B6B8"/>
<path opacity="0.61" d="M18.6521 4.70288C25.0147 4.70288 30.473 9.16364 32.111 15.4949C32.1347 15.5706 32.2436 16.0205 32.2625 16.0963C32.272 16.1389 32.414 16.0394 32.4234 16.0773L39.1363 9.00739C41.7732 6.23245 45.2811 4.70288 49.0068 4.70288C52.7325 4.70288 56.2404 6.23245 58.8772 9.00739C61.5141 11.7823 62.9674 15.4759 62.9674 19.4015C62.9674 23.3272 61.5425 26.945 58.9577 29.7105C58.9293 29.7389 58.7826 29.8999 58.7542 29.9283L48.5097 40.7155L63.9379 56.958C66.5748 59.7329 68.0281 63.4265 68.0281 67.3521C68.0281 71.2777 66.5748 74.9713 63.9379 77.7463C61.3011 80.5212 57.7979 82.0508 54.0675 82.0508C50.337 82.0508 46.8339 80.5212 44.197 77.7463L32.6128 65.5479V66.8359C32.6128 66.9448 32.6128 67.5699 32.6033 67.6741C32.4424 75.6295 26.2455 82.0508 18.6521 82.0508C11.0587 82.0508 4.69147 75.4591 4.69147 67.3521V19.4063C4.69147 11.2993 10.9546 4.70762 18.6521 4.70762V4.70288Z" fill="#B1B2B4"/>
<path opacity="0.65" d="M18.3255 4.37569C24.688 4.37569 30.1558 8.84594 31.7796 15.1866C31.7985 15.2577 31.9122 15.7169 31.9311 15.7879C31.9406 15.8258 32.0873 15.717 32.0968 15.7501L38.8191 8.67072C41.456 5.89578 44.9592 4.37095 48.6848 4.37095C52.4105 4.37095 55.9137 5.90052 58.5506 8.67072C61.1874 11.4457 62.636 15.1345 62.636 19.0554C62.636 22.9763 61.2111 26.5989 58.6216 29.3644C58.5979 29.3928 58.4417 29.5537 58.418 29.5822L48.1736 40.3694L63.6065 56.6213C66.2434 59.3962 67.692 63.0851 67.692 67.006C67.692 70.9269 66.2386 74.6204 63.6065 77.3906C60.9744 80.1656 57.4712 81.6904 53.7455 81.6904C50.0198 81.6904 46.5167 80.1608 43.8798 77.3906L32.2767 65.1733V66.4613C32.2767 66.5608 32.2767 67.2001 32.2672 67.2995C32.1204 75.2597 25.9236 81.6904 18.3255 81.6904C10.7273 81.6904 4.37427 75.1035 4.37427 67.0012V19.0554C4.37427 10.9579 10.6327 4.36621 18.3255 4.36621V4.37569Z" fill="#ADAEB0"/>
<path opacity="0.68" d="M18.0037 4.04895C24.3662 4.04895 29.8387 8.52384 31.4578 14.8835C31.4767 14.945 31.5903 15.4233 31.6093 15.4849C31.6187 15.518 31.775 15.3996 31.7797 15.4327L38.5068 8.34861C41.1389 5.5784 44.6421 4.04895 48.363 4.04895C52.084 4.04895 55.5872 5.57367 58.2193 8.34861C60.8514 11.1188 62.3 14.803 62.3 18.7239C62.3 22.6448 60.8751 26.2674 58.2856 29.0281C58.2619 29.0518 58.1057 29.2223 58.082 29.2459L47.8375 40.0332L63.28 56.2944C65.9121 59.0646 67.3607 62.7536 67.3607 66.6697C67.3607 70.5859 65.9121 74.2747 63.2752 77.0497C60.6431 79.8199 57.1447 81.3494 53.419 81.3494C49.6933 81.3494 46.1948 79.8246 43.5627 77.0497L31.9407 64.8134V66.1014C31.9407 66.1914 31.9407 66.8496 31.9359 66.9396C31.8034 74.9092 25.6065 81.3447 18.0037 81.3447C10.4008 81.3447 4.06665 74.7625 4.06665 66.6697V18.7239C4.06665 10.6311 10.3203 4.04895 18.0037 4.04895Z" fill="#A9AAAC"/>
<path opacity="0.71" d="M17.6769 3.72742C24.0442 3.72742 29.5167 8.20717 31.1263 14.581C31.1453 14.6378 31.2589 15.1256 31.2731 15.1872C31.2825 15.2156 31.4435 15.0876 31.4482 15.1161L38.1848 8.02719C40.8169 5.25698 44.3153 3.73216 48.0316 3.73216C51.7478 3.73216 55.251 5.25698 57.8783 8.02719C60.5105 10.7974 61.9591 14.4767 61.9591 18.3976C61.9591 22.3185 60.5341 25.9411 57.9399 28.7019C57.921 28.7255 57.7553 28.8961 57.7363 28.9198L47.4919 39.7069L62.939 55.973C65.5712 58.7432 67.0198 62.4273 67.0198 66.3435C67.0198 70.2596 65.5712 73.9438 62.939 76.714C60.3116 79.4842 56.8132 81.0091 53.0922 81.0091C49.3713 81.0091 45.8728 79.4842 43.2454 76.714L31.6045 64.4588V65.7515C31.6045 65.832 31.6045 66.5092 31.5997 66.5897C31.4814 74.5641 25.2798 81.0137 17.6769 81.0137C10.0741 81.0137 3.74939 74.4362 3.74939 66.3482V18.4024C3.74939 10.3143 9.99832 3.7369 17.6769 3.7369V3.72742Z" fill="#A5A6A8"/>
<path opacity="0.74" d="M17.355 3.40076C23.7222 3.40076 29.2042 7.88989 30.7996 14.2732C30.8138 14.3253 30.9369 14.8272 30.9464 14.8793C30.9511 14.9078 31.1215 14.7657 31.1263 14.7894L37.8675 7.69105C40.4949 4.92558 43.9934 3.40076 47.7096 3.40076C51.4258 3.40076 54.9243 4.92558 57.5516 7.69105C60.179 10.4565 61.6276 14.1359 61.6276 18.052C61.6276 21.9682 60.198 25.5955 57.6037 28.3562C57.5848 28.3752 57.4191 28.5504 57.4002 28.5693L47.151 39.3613L62.6076 55.6369C65.235 58.4023 66.6836 62.0817 66.6836 65.9978C66.6836 69.914 65.235 73.5935 62.6076 76.3589C59.9802 79.1244 56.4865 80.6492 52.7703 80.6492C49.0541 80.6492 45.5603 79.1244 42.9282 76.3589L31.2683 64.0801V65.3729C31.2683 65.4439 31.2683 66.14 31.2635 66.211C31.1547 74.1902 24.9578 80.6492 17.355 80.6492C9.75209 80.6492 3.43689 74.0764 3.43689 65.9978V18.052C3.43689 9.97345 9.68108 3.40076 17.355 3.40076Z" fill="#A1A2A4"/>
<path opacity="0.77" d="M17.0283 3.07849C23.3956 3.07849 28.8823 7.57238 30.473 13.9699C30.4872 14.0125 30.6103 14.5287 30.6197 14.576C30.6245 14.5997 30.7996 14.4482 30.8044 14.4719L37.5504 7.36878C40.1777 4.60331 43.6715 3.07849 47.3829 3.07849C51.0944 3.07849 54.5882 4.60331 57.2155 7.36878C59.8429 10.1342 61.2868 13.8088 61.2868 17.7203C61.2868 21.6317 59.8571 25.2638 57.2582 28.0245C57.2439 28.0434 57.0688 28.2234 57.0546 28.2376L46.8054 39.0295L62.2715 55.3146C64.8989 58.0801 66.3428 61.7547 66.3428 65.6661C66.3428 69.5775 64.8941 73.257 62.2668 76.0224C59.6441 78.7879 56.1504 80.3079 52.4342 80.3079C48.718 80.3079 45.229 78.7832 42.6016 76.0224L30.9227 63.7247V65.0174C30.9227 65.079 30.9227 65.794 30.918 65.8556C30.8233 73.8394 24.6264 80.3079 17.0189 80.3079C9.41126 80.3079 3.11499 73.7399 3.11499 65.6661V17.7203C3.11499 9.64644 9.35445 3.07849 17.0189 3.07849H17.0283Z" fill="#9D9EA1"/>
<path opacity="0.81" d="M16.7064 2.75144C23.0784 2.75144 28.5699 7.24997 30.1464 13.6664C30.1558 13.7043 30.2836 14.2347 30.2931 14.2726C30.2978 14.2915 30.4777 14.1305 30.4825 14.1494L37.2379 7.03688C39.8606 4.27615 43.3496 2.75144 47.0611 2.75144C50.7726 2.75144 54.2615 4.27141 56.8842 7.03688C59.5068 9.79761 60.9555 13.4723 60.9555 17.3838C60.9555 21.2952 59.5258 24.9272 56.9268 27.688C56.9126 27.7022 56.7374 27.8868 56.7232 27.901L46.474 38.693L61.9449 54.9827C64.5675 57.7434 66.0161 61.4181 66.0161 65.3296C66.0161 69.241 64.5723 72.911 61.9449 75.6765C59.3222 78.4372 55.8332 79.9619 52.1218 79.9619C48.4103 79.9619 44.9213 78.4419 42.2986 75.6765L30.6008 63.3597V64.6524C30.6008 64.7045 30.6008 65.4385 30.6008 65.4906C30.5203 73.484 24.3188 79.9571 16.7112 79.9571C9.10357 79.9571 2.81677 73.3939 2.81677 65.3248V17.379C2.81677 9.30991 9.0515 2.7467 16.7112 2.7467L16.7064 2.75144Z" fill="#999A9D"/>
<path opacity="0.84" d="M16.3798 2.42991C22.7518 2.42991 28.248 6.93804 29.8197 13.364C29.8292 13.3971 29.957 13.937 29.9664 13.9701C29.9664 13.9891 30.1558 13.8138 30.1605 13.828L36.9207 6.71072C39.5434 3.94999 43.0276 2.42991 46.7391 2.42991C50.4506 2.42991 53.9349 3.94999 56.5575 6.71072C59.1802 9.47145 60.6241 13.1414 60.6241 17.0481C60.6241 20.9548 59.1944 24.5916 56.5907 27.3476C56.5812 27.3618 56.4013 27.5512 56.3871 27.5607L46.1379 38.3526L61.6182 54.6518C64.2409 57.4125 65.6847 61.0825 65.6847 64.9892C65.6847 68.8959 64.2409 72.5659 61.6182 75.3266C58.9956 78.0873 55.5113 79.6073 51.7998 79.6073C48.0883 79.6073 44.6041 78.0873 41.9814 75.3266L30.2647 62.9909V64.2836C30.2647 64.331 30.2647 65.0792 30.2647 65.1218C30.1984 73.1199 23.9968 79.6073 16.3845 79.6073C8.77217 79.6073 2.49957 73.0488 2.49957 64.9892V17.0434C2.49957 8.98374 8.72956 2.42517 16.3845 2.42517L16.3798 2.42991Z" fill="#949699"/>
<path opacity="0.87" d="M16.0531 2.10299C22.4251 2.10299 27.926 6.61587 29.4883 13.056C29.4977 13.0797 29.6255 13.6384 29.635 13.662C29.635 13.6762 29.8291 13.4916 29.8338 13.5058L36.6035 6.37906C39.2262 3.61832 42.7057 2.10299 46.4124 2.10299C50.1192 2.10299 53.6034 3.62306 56.2214 6.37906C58.8393 9.13505 60.2832 12.805 60.2832 16.707C60.2832 20.6089 58.8488 24.2504 56.245 27.0064C56.2356 27.0159 56.0509 27.21 56.0415 27.2195L45.7875 38.0162L61.2773 54.3249C63.9 57.0856 65.3391 60.7508 65.3391 64.6528C65.3391 68.5548 63.8952 72.2246 61.2726 74.9806C58.6547 77.7366 55.1704 79.2567 51.4637 79.2567C47.7569 79.2567 44.2727 77.7366 41.6547 74.9806L29.9191 62.626V63.9188C29.9191 63.9567 29.9191 64.7238 29.9191 64.757C29.867 72.7598 23.6654 79.2567 16.0483 79.2567C8.43127 79.2567 2.17761 72.7029 2.17761 64.6481V16.7022C2.17761 8.64733 8.40287 2.09351 16.0483 2.09351L16.0531 2.10299Z" fill="#909295"/>
<path opacity="0.9" d="M15.7313 1.78064C22.108 1.78064 27.6137 6.29817 29.1617 12.7572C29.1664 12.7762 29.3037 13.3492 29.3085 13.3681C29.3085 13.3776 29.5073 13.1834 29.512 13.1929L36.2864 6.06145C38.9044 3.30545 42.3839 1.78538 46.0906 1.78538C49.7974 1.78538 53.2769 3.30545 55.8948 6.06145C58.5127 8.81745 59.9566 12.4825 59.9566 16.3798C59.9566 20.277 58.5222 23.928 55.9137 26.6792C55.909 26.6887 55.7197 26.883 55.7102 26.8924L45.4563 37.689L60.9508 54.0073C63.5687 56.7633 65.0126 60.4284 65.0126 64.3256C65.0126 68.2228 63.5687 71.8928 60.9508 74.6488C58.3328 77.4048 54.8533 78.9248 51.1513 78.9248C47.4493 78.9248 43.9698 77.4048 41.3471 74.6488L29.5925 62.2752V63.568C29.5925 63.5964 29.5925 64.3825 29.5925 64.4109C29.5546 72.4232 23.3483 78.9248 15.7313 78.9248C8.11419 78.9248 1.87 72.3758 1.87 64.3303V16.3845C1.87 8.33435 8.09052 1.79012 15.7313 1.79012V1.78064Z" fill="#8C8E91"/>
<path opacity="0.94" d="M15.4045 1.45398C21.7813 1.45398 27.2917 5.981 28.835 12.4495C28.835 12.4637 28.977 13.0461 28.9818 13.0603C28.9818 13.065 29.1853 12.8615 29.1901 12.8662L35.9692 5.72519C38.5871 2.9692 42.0619 1.45398 45.7639 1.45398C49.4659 1.45398 52.9407 2.9692 55.5586 5.72519C58.1766 8.48119 59.6157 12.1417 59.6157 16.0389C59.6157 19.9361 58.1813 23.5871 55.5728 26.3384C55.5728 26.3431 55.374 26.5468 55.3693 26.5515L45.1153 37.3481L60.6193 53.671C63.2372 56.427 64.6764 60.0875 64.6764 63.9847C64.6764 67.8819 63.2372 71.5424 60.6193 74.2984C58.0061 77.0544 54.5266 78.5697 50.8246 78.5697C47.1226 78.5697 43.6478 77.0544 41.0299 74.2984L29.2611 61.9059V63.1987C29.2611 63.1987 29.2611 64.0226 29.2611 64.0416C29.2327 72.0586 23.0311 78.5697 15.4093 78.5697C7.78749 78.5697 1.5575 72.0254 1.5575 63.9847V16.0389C1.5575 7.9982 7.77328 1.45398 15.4093 1.45398H15.4045Z" fill="#888A8D"/>
<path opacity="0.97" d="M15.0826 1.13245C21.4593 1.13245 26.9745 5.66422 28.5083 12.147C28.5083 12.1517 28.6503 12.7531 28.6503 12.7579C28.6503 12.7579 28.8634 12.5448 28.8634 12.5495L35.652 5.40378C38.2652 2.65252 41.7399 1.13719 45.4372 1.13719C49.1345 1.13719 52.6093 2.65252 55.2225 5.40378C57.8357 8.15504 59.2748 11.8155 59.2748 15.708C59.2748 19.6005 57.8357 23.2562 55.2272 26.0075C55.2272 26.0075 55.0284 26.2158 55.0237 26.2205L44.7697 37.0172L60.2784 53.3496C62.8916 56.1009 64.3308 59.7613 64.3308 63.6538C64.3308 67.5463 62.8916 71.2068 60.2737 73.958C57.6605 76.7093 54.1857 78.2246 50.4884 78.2246C46.7912 78.2246 43.3164 76.7093 40.7032 73.958L28.9154 61.5418V62.8346C28.9154 62.8346 28.9154 63.668 28.9154 63.6775C28.9012 71.6993 22.6997 78.2246 15.0779 78.2246C7.45606 78.2246 1.23553 71.685 1.23553 63.6538V15.708C1.23553 7.67203 7.44659 1.13719 15.0779 1.13719L15.0826 1.13245Z" fill="#848689"/>
<path d="M50.1761 77.8739C46.4836 77.8739 43.0088 76.3585 40.3956 73.6073L28.5889 61.1721V63.3078C28.5889 71.339 22.3873 77.8691 14.7608 77.8691C7.13427 77.8691 0.932678 71.339 0.932678 63.3078V15.362C0.932678 7.33076 7.13427 0.800659 14.7608 0.800659C21.1423 0.800659 26.6622 5.33719 28.1865 11.8389L28.3285 12.4498L35.3396 5.06725C37.9528 2.31599 41.4229 0.800659 45.1202 0.800659C48.8174 0.800659 52.2875 2.31599 54.9007 5.06725C57.5139 7.81851 58.953 11.4742 58.953 15.362C58.953 19.2497 57.5139 22.9102 54.9007 25.6615L44.4432 36.6712L59.9614 53.0131C62.5746 55.7643 64.0137 59.42 64.0137 63.3078C64.0137 67.1956 62.5746 70.856 59.9614 73.6073C57.3529 76.3585 53.8781 77.8691 50.1856 77.8691L50.1761 77.8739Z" fill="#808285"/>
</g>
<path d="M50.1762 78.2288C46.3937 78.2288 42.8337 76.6757 40.159 73.8628L28.9251 62.0338V63.3124C28.9251 71.5377 22.572 78.2288 14.7609 78.2288C6.9497 78.2288 0.596619 71.5377 0.596619 63.3124V15.3665C0.596619 7.14118 6.9497 0.450073 14.7609 0.450073C21.398 0.450073 26.9794 5.22329 28.5132 11.7581L35.103 4.82083C37.7777 2.00327 41.3377 0.450073 45.1202 0.450073C48.9027 0.450073 52.4627 2.00327 55.1374 4.82083C57.8122 7.63838 59.2845 11.3841 59.2845 15.3665C59.2845 19.349 57.8122 23.0995 55.1327 25.917L44.9119 36.6758L60.1934 52.7666C62.8681 55.5842 64.3451 59.3299 64.3451 63.3124C64.3451 67.2948 62.8729 71.0453 60.1934 73.8628C57.5187 76.6804 53.9634 78.2288 50.1762 78.2288Z" fill="url(#paint0_linear_53_37693)"/>
<path d="M50.1762 76.808C46.7535 76.808 43.5344 75.4063 41.1105 72.8539L27.5759 58.6004V63.3074C27.5759 70.7467 21.8241 76.8032 14.7609 76.8032C7.69772 76.8032 1.94586 70.7467 1.94586 63.3074V15.3616C1.94586 7.92227 7.69772 1.8657 14.7609 1.8657C21.8241 1.8657 27.2635 7.59551 27.5665 14.7554L36.0546 5.81506C38.4784 3.26742 41.6928 1.86096 45.1203 1.86096C48.5477 1.86096 51.7621 3.26268 54.1859 5.81506C56.605 8.3627 57.94 11.7532 57.94 15.3568C57.94 18.9605 56.605 22.3509 54.1859 24.8986L43.0136 36.6661L59.2466 53.7609C61.6657 56.3085 63.0007 59.699 63.0007 63.3026C63.0007 66.9063 61.6657 70.2968 59.2466 72.8444C56.8275 75.392 53.6084 76.7985 50.1857 76.7985L50.1762 76.808Z" fill="url(#paint1_linear_53_37693)"/>
<path d="M24.9106 54.7039C24.4183 54.7039 24.0253 54.306 24.0253 53.8136V51.6826C24.0253 51.318 24.2478 50.9913 24.5839 50.8587C24.9201 50.7214 25.3083 50.8066 25.5544 51.0718L27.022 52.6155C27.3581 52.9707 27.3439 53.5342 26.9888 53.8704C26.6527 54.1877 26.1367 54.1925 25.7959 53.8941C25.7533 54.344 25.3745 54.6991 24.9106 54.6991V54.7039Z" fill="#DD1E47"/>
<path d="M14.7561 74.6773C14.5951 74.6773 14.4294 74.6773 14.2684 74.6679C13.7808 74.6442 13.3974 74.2322 13.4211 73.7397C13.4447 73.252 13.8519 72.8637 14.3489 72.8921C15.6697 72.9489 16.9953 72.7216 18.2214 72.2055C18.6711 72.0161 19.1918 72.2292 19.3812 72.679C19.5706 73.1336 19.3575 73.6497 18.9078 73.8392C17.587 74.3932 16.1905 74.6726 14.7561 74.6726V74.6773ZM10.1404 73.5314C9.99835 73.5314 9.85633 73.4983 9.72851 73.4272C8.3509 72.698 7.10585 71.6514 6.13537 70.4013C5.8324 70.013 5.90341 69.4542 6.2916 69.1559C6.67979 68.8576 7.23367 68.9238 7.53665 69.3121C8.35564 70.3634 9.40186 71.2442 10.557 71.8551C10.9925 72.0824 11.1582 72.6222 10.9262 73.0531C10.7653 73.3562 10.4575 73.5267 10.1404 73.5267V73.5314ZM22.1033 71.4241C21.8855 71.4241 21.6725 71.3483 21.5021 71.1873C21.1423 70.8558 21.1186 70.2924 21.4547 69.9325C22.3636 68.9475 23.0501 67.8063 23.4904 66.5325C23.6513 66.0684 24.1578 65.8221 24.6171 65.9831C25.081 66.1441 25.3272 66.6509 25.1662 67.1102C24.6455 68.6161 23.8359 69.9704 22.7566 71.1353C22.5814 71.3247 22.3447 71.4194 22.1033 71.4194V71.4241ZM4.93293 66.8545C4.53527 66.8545 4.17548 66.5893 4.07133 66.1868C3.83463 65.2539 3.71155 64.2832 3.71155 63.3077V61.6361C3.71155 61.1436 4.10921 60.7459 4.60155 60.7459C5.09389 60.7459 5.49155 61.1436 5.49155 61.6361V63.3077C5.49155 64.1364 5.59569 64.9555 5.79452 65.7463C5.91761 66.2199 5.62883 66.7029 5.15543 66.826C5.08442 66.845 5.00867 66.8545 4.93766 66.8545H4.93293ZM24.9106 63.4166C24.4182 63.4166 24.0253 63.0188 24.0253 62.5264V58.165C24.0253 57.6725 24.423 57.2748 24.9106 57.2748C25.3982 57.2748 25.7958 57.6725 25.7958 58.165V62.5264C25.7958 63.0188 25.3982 63.4166 24.9106 63.4166ZM4.60155 58.165C4.10921 58.165 3.71155 57.7673 3.71155 57.2748V52.9135C3.71155 52.421 4.10921 52.0232 4.60155 52.0232C5.09389 52.0232 5.49155 52.421 5.49155 52.9135V57.2748C5.49155 57.7673 5.09389 58.165 4.60155 58.165ZM4.60155 49.4472C4.10921 49.4472 3.71155 49.0494 3.71155 48.557V44.1956C3.71155 43.7031 4.10921 43.3054 4.60155 43.3054C5.09389 43.3054 5.49155 43.7031 5.49155 44.1956V48.557C5.49155 49.0494 5.09389 49.4472 4.60155 49.4472ZM4.60155 40.7294C4.10921 40.7294 3.71155 40.3315 3.71155 39.839V35.4778C3.71155 34.9853 4.10921 34.5876 4.60155 34.5876C5.09389 34.5876 5.49155 34.9853 5.49155 35.4778V39.839C5.49155 40.3315 5.09389 40.7294 4.60155 40.7294ZM4.60155 32.0114C4.10921 32.0114 3.71155 31.6137 3.71155 31.1212V26.76C3.71155 26.2675 4.10921 25.8696 4.60155 25.8696C5.09389 25.8696 5.49155 26.2675 5.49155 26.76V31.1212C5.49155 31.6137 5.09389 32.0114 4.60155 32.0114ZM4.60155 23.2936C4.10921 23.2936 3.71155 22.8959 3.71155 22.4034V18.042C3.71155 17.5495 4.10921 17.1518 4.60155 17.1518C5.09389 17.1518 5.49155 17.5495 5.49155 18.042V22.4034C5.49155 22.8959 5.09389 23.2936 4.60155 23.2936ZM24.9058 16.0154C24.423 16.0154 24.03 15.6318 24.0206 15.144C23.9922 13.7944 23.6939 12.4922 23.14 11.2753C22.9365 10.8301 23.1306 10.3044 23.5803 10.1008C24.0253 9.89715 24.5508 10.0914 24.7543 10.5412C25.4124 11.9808 25.7627 13.515 25.7958 15.1108C25.8053 15.5986 25.4171 16.0059 24.9295 16.0154C24.9248 16.0154 24.9153 16.0154 24.9106 16.0154H24.9058ZM4.72937 14.5805C4.68203 14.5805 4.63942 14.5805 4.59208 14.5711C4.10921 14.4953 3.77782 14.0406 3.85357 13.5576C4.09974 11.9855 4.65362 10.508 5.50101 9.16791C5.76139 8.7512 6.31053 8.63289 6.72713 8.89334C7.13899 9.15378 7.26207 9.70301 7.0017 10.1197C6.28213 11.2515 5.81346 12.5017 5.6099 13.8323C5.54362 14.2727 5.1649 14.5853 4.7341 14.5853L4.72937 14.5805ZM21.379 8.31563C21.1707 8.31563 20.9576 8.23976 20.7872 8.09297C19.7789 7.19324 18.6238 6.54457 17.355 6.16101C16.8864 6.01894 16.6213 5.52169 16.7633 5.05288C16.9053 4.58408 17.4024 4.3189 17.871 4.46096C19.3859 4.92029 20.7683 5.69695 21.9707 6.76715C22.3352 7.09389 22.3684 7.65262 22.0417 8.02198C21.8666 8.22087 21.6251 8.32037 21.379 8.32037V8.31563ZM9.27404 7.4348C8.98526 7.4348 8.70596 7.29743 8.53553 7.03698C8.26569 6.62974 8.37457 6.07577 8.7817 5.80585C10.1214 4.9156 11.5985 4.34732 13.1749 4.11055C13.6578 4.03951 14.1122 4.37576 14.1832 4.85877C14.2542 5.34178 13.9229 5.79633 13.4353 5.86736C12.1192 6.06151 10.8836 6.53978 9.76638 7.28323C9.61489 7.38268 9.44447 7.43006 9.27404 7.43006V7.4348Z" fill="#DD1E47"/>
<path d="M24.9106 22.5549C24.8017 22.5549 24.6881 22.536 24.5839 22.4934C24.2478 22.3608 24.0253 22.0341 24.0253 21.6694V19.5385C24.0253 19.046 24.423 18.6482 24.9106 18.6482C25.3745 18.6482 25.7533 19.0033 25.7959 19.4532C26.1367 19.1549 26.6575 19.1596 26.9888 19.4769C27.3439 19.8131 27.3581 20.3767 27.022 20.7318L25.5544 22.2756C25.384 22.4555 25.1473 22.5501 24.9106 22.5501V22.5549Z" fill="#DD1E47"/>
<path d="M43.6101 32.8072C43.3923 32.8072 43.1698 32.7267 42.9994 32.5609C42.6443 32.2247 42.6301 31.6611 42.9663 31.306L46.0055 28.1048C46.3416 27.7497 46.905 27.7356 47.26 28.0718C47.6151 28.408 47.6293 28.9715 47.2932 29.3266L44.2539 32.5277C44.0788 32.7124 43.8468 32.8024 43.6101 32.8024V32.8072ZM49.6886 26.4049C49.4708 26.4049 49.2483 26.3244 49.0779 26.1587C48.7228 25.8225 48.7086 25.2589 49.0448 24.9037L51.7195 22.0862C51.8331 21.9678 51.9373 21.8494 52.0414 21.731C52.3586 21.3617 52.9219 21.3143 53.2912 21.6363C53.6652 21.9536 53.7078 22.5171 53.3859 22.8864C53.2628 23.0332 53.135 23.1706 53.0024 23.3127L50.3277 26.1302C50.1525 26.3149 49.9206 26.4049 49.6839 26.4049H49.6886ZM54.8014 19.3396C54.7161 19.3396 54.6357 19.3302 54.5504 19.3018C54.0818 19.1645 53.8119 18.6673 53.9492 18.1985C54.2191 17.2798 54.3564 16.328 54.3564 15.362C54.3564 14.9689 54.3327 14.5759 54.2853 14.1828C54.2285 13.6951 54.5789 13.2547 55.0665 13.1979C55.5541 13.1458 55.9943 13.4915 56.0511 13.9793C56.1032 14.4339 56.1316 14.9026 56.1316 15.362C56.1316 16.4985 55.9707 17.6208 55.6535 18.7004C55.5399 19.0887 55.1848 19.3396 54.8014 19.3396ZM29.4175 17.8054C29.1997 17.8054 28.9772 17.7249 28.8068 17.5591C28.4517 17.2229 28.4375 16.6594 28.7736 16.3043L31.8129 13.1032C32.149 12.748 32.7123 12.7338 33.0674 13.07C33.4224 13.4062 33.4366 13.9698 33.1005 14.3249L30.0613 17.5261C29.8861 17.7107 29.6542 17.8006 29.4175 17.8006V17.8054ZM35.496 11.4031C35.2782 11.4031 35.0557 11.3227 34.8853 11.157C34.5302 10.8208 34.516 10.2572 34.8521 9.90204L37.2144 7.41122C37.4558 7.15551 37.7162 6.90924 37.9813 6.67247C38.3506 6.35046 38.9092 6.38843 39.2358 6.75779C39.5578 7.12715 39.5199 7.68588 39.1506 8.01262C38.9281 8.20677 38.7104 8.41516 38.5021 8.63299L36.1398 11.1191C35.9646 11.3037 35.7327 11.3938 35.496 11.3938V11.4031ZM53.7883 10.8112C53.4853 10.8112 53.187 10.655 53.0214 10.3708C52.6568 9.74576 52.2213 9.16335 51.7195 8.63773C51.2887 8.18313 50.8153 7.77112 50.3135 7.4207C49.9111 7.13657 49.8164 6.5826 50.1005 6.18483C50.3845 5.78232 50.9384 5.68752 51.336 5.97164C51.9325 6.39309 52.4959 6.88086 53.0072 7.4207C53.5989 8.04577 54.1197 8.73718 54.5504 9.48064C54.7966 9.90209 54.6546 10.4466 54.2333 10.6976C54.0912 10.7781 53.9398 10.8207 53.7883 10.8207V10.8112ZM42.4124 6.14691C42.0242 6.14691 41.6691 5.89114 41.5603 5.4981C41.4277 5.02456 41.7023 4.53691 42.1757 4.40431C43.7095 3.97339 45.3617 3.88814 46.9381 4.15333C47.421 4.23383 47.7476 4.69312 47.6672 5.17613C47.5867 5.65914 47.1275 5.99063 46.6446 5.9054C45.3285 5.68283 43.9415 5.75384 42.6633 6.11847C42.5828 6.14214 42.5023 6.15165 42.4218 6.15165L42.4124 6.14691Z" fill="#DD1E47"/>
<path d="M40.5613 39.1099C40.3246 39.1099 40.0927 39.0152 39.9175 38.8353L38.4499 37.2915C38.1233 36.9506 38.1233 36.4107 38.4499 36.0698L39.9175 34.526C40.2536 34.1709 40.817 34.1566 41.172 34.4929C41.5271 34.8291 41.5413 35.3926 41.2052 35.7478L40.3199 36.6807L41.2052 37.6135C41.5413 37.9687 41.5271 38.5321 41.172 38.8684C41.0016 39.0294 40.7791 39.1146 40.5613 39.1146V39.1099Z" fill="#DD1E47"/>
<path d="M50.1762 74.6771C49.3288 74.6771 48.4814 74.5776 47.6624 74.3835C47.1843 74.2698 46.8908 73.7917 47.0044 73.3134C47.118 72.8351 47.5962 72.5415 48.0743 72.6551C49.3241 72.9534 50.6638 72.9771 51.9231 72.7308C52.4059 72.6361 52.8699 72.9488 52.9646 73.4318C53.0592 73.9148 52.7468 74.3788 52.2639 74.4735C51.5822 74.6061 50.8816 74.6724 50.1762 74.6724V74.6771ZM55.9659 72.8114C55.6914 72.8114 55.4168 72.6835 55.2464 72.442C54.9623 72.0443 55.0523 71.4902 55.4499 71.2013C55.9233 70.8604 56.3778 70.4673 56.7849 70.0317C57.2678 69.5203 57.6986 68.9567 58.0584 68.3506C58.3093 67.9291 58.8537 67.7919 59.275 68.0428C59.6964 68.2938 59.8384 68.8384 59.5875 69.2599C59.1567 69.9796 58.6501 70.6568 58.0726 71.2582C57.585 71.7696 57.05 72.2384 56.4867 72.6456C56.3305 72.7593 56.1506 72.8114 55.9707 72.8114H55.9659ZM44.0598 72.5699C43.8705 72.5699 43.6764 72.5083 43.5154 72.3804C43.0799 72.0395 42.6633 71.6607 42.2798 71.2582L40.4099 69.2883C40.0738 68.9331 40.088 68.3696 40.443 68.0334C40.7981 67.6971 41.3614 67.7114 41.6976 68.0665L43.5675 70.0364C43.8941 70.3774 44.2445 70.6994 44.6137 70.9835C45.0019 71.2866 45.0682 71.8454 44.7652 72.229C44.59 72.4515 44.3297 72.5699 44.0646 72.5699H44.0598ZM38.1186 66.4754C37.8819 66.4754 37.65 66.3808 37.4748 66.2008L34.5444 63.1133C34.2083 62.7582 34.2225 62.1946 34.5776 61.8584C34.9326 61.5222 35.496 61.5364 35.8321 61.8916L38.7625 64.9791C39.0986 65.3342 39.0844 65.8977 38.7293 66.2339C38.5589 66.3949 38.3364 66.4801 38.1186 66.4801V66.4754ZM60.2076 65.6941C60.1698 65.6941 60.1272 65.6941 60.0846 65.6846C59.5969 65.6183 59.2608 65.1684 59.3271 64.6854C59.3886 64.2308 59.4218 63.7668 59.4218 63.3074C59.4218 62.4598 59.3176 61.6169 59.1046 60.8024C58.9815 60.3289 59.2703 59.8411 59.7437 59.7227C60.2171 59.5996 60.7047 59.8838 60.8231 60.362C61.0692 61.3233 61.197 62.3178 61.197 63.3122C61.197 63.852 61.1592 64.3965 61.0882 64.9269C61.0266 65.372 60.6479 65.6941 60.2124 65.6941H60.2076ZM32.2532 60.3004C32.0165 60.3004 31.7845 60.2058 31.6093 60.0259L28.679 56.9384C28.3428 56.5832 28.357 56.0196 28.7121 55.6834C29.0671 55.3472 29.6305 55.3614 29.9666 55.7166L32.897 58.8041C33.2331 59.1592 33.2189 59.7227 32.8638 60.0589C32.6934 60.2199 32.4709 60.3052 32.2532 60.3052V60.3004ZM58.1152 57.6676C57.8501 57.6676 57.5897 57.5493 57.4146 57.322C57.2157 57.0663 57.0027 56.8153 56.7849 56.588L54.5789 54.2675C54.2427 53.9124 54.2569 53.3489 54.612 53.0127C54.9671 52.6765 55.5304 52.6907 55.8665 53.0459L58.0726 55.3662C58.333 55.6408 58.5839 55.9297 58.8206 56.2375C59.1188 56.6258 59.0478 57.1846 58.6643 57.4829C58.5034 57.606 58.3093 57.6676 58.1199 57.6676H58.1152ZM52.2923 51.4548C52.0556 51.4548 51.8237 51.36 51.6485 51.1801L48.7181 48.0927C48.382 47.7375 48.3962 47.174 48.7513 46.8377C49.1063 46.5015 49.6697 46.5158 50.0058 46.8709L52.9362 49.9584C53.2723 50.3136 53.2581 50.877 52.903 51.2132C52.7326 51.3742 52.5101 51.4595 52.2923 51.4595V51.4548ZM46.4269 45.2798C46.1902 45.2798 45.9582 45.1852 45.783 45.0052L42.8527 41.9177C42.5165 41.5626 42.5307 40.999 42.8858 40.6628C43.2408 40.3266 43.8042 40.3408 44.1403 40.696L47.0707 43.7834C47.4068 44.1386 47.3926 44.7021 47.0375 45.0383C46.8671 45.1993 46.6446 45.2845 46.4269 45.2845V45.2798Z" fill="#DD1E47"/>
<path d="M54.4653 58.79L33.4603 36.6758L49.4046 19.8889C51.7763 17.3933 51.7763 13.3445 49.4046 10.849C47.0328 8.3534 43.1888 8.3534 40.817 10.849L20.8252 31.8977V15.3665C20.8252 11.8339 18.1079 8.97375 14.7562 8.97375C11.4045 8.97375 8.68713 11.8339 8.68713 15.3665V63.3124C8.68713 66.845 11.4045 69.7051 14.7562 69.7051C18.1079 69.7051 20.8252 66.845 20.8252 63.3124V41.4538L45.8777 67.8299C47.0612 69.0801 48.6187 69.7004 50.1715 69.7004C51.7242 69.7004 53.277 69.0753 54.4653 67.8299C56.837 65.3344 56.837 61.2856 54.4653 58.79Z" fill="url(#paint2_linear_53_37693)"/>
<defs>
<linearGradient id="paint0_linear_53_37693" x1="0.591885" y1="39.3418" x2="64.3404" y2="39.3418" gradientUnits="userSpaceOnUse">
<stop stop-color="#F1F2F2"/>
<stop offset="1" stop-color="#D1D3D4"/>
</linearGradient>
<linearGradient id="paint1_linear_53_37693" x1="1.94113" y1="39.3416" x2="62.9913" y2="39.3416" gradientUnits="userSpaceOnUse">
<stop stop-color="#D1D3D4"/>
<stop offset="1" stop-color="#F1F2F2"/>
</linearGradient>
<linearGradient id="paint2_linear_53_37693" x1="8.68713" y1="39.3418" x2="56.2453" y2="39.3418" gradientUnits="userSpaceOnUse">
<stop stop-color="#E24263"/>
<stop offset="0.11" stop-color="#E0375A"/>
<stop offset="0.32" stop-color="#DE284F"/>
<stop offset="0.57" stop-color="#DD2048"/>
<stop offset="1" stop-color="#DD1E47"/>
</linearGradient>
</defs>
</svg>
