<svg width="65" height="89" viewBox="0 0 65 89" fill="none" xmlns="http://www.w3.org/2000/svg">
<g style="mix-blend-mode:multiply">
<path opacity="0.03" d="M24.5498 88.0535C16.7434 88.0535 10.3951 81.3672 10.3951 73.1465V25.2007C10.3951 16.9801 16.7434 10.2937 24.5498 10.2937C32.3563 10.2937 38.7046 16.9801 38.7046 25.2007V58.2395H49.8485C57.655 58.2395 64.0033 64.9259 64.0033 73.1465C64.0033 81.3672 57.655 88.0535 49.8485 88.0535H24.5498Z" fill="#FBFBFB"/>
<path opacity="0.06" d="M24.2281 87.7029C16.4311 87.7029 10.0828 81.0213 10.0828 72.8102V24.8643C10.0828 16.6532 16.4264 9.97144 24.2281 9.97144C32.0298 9.97144 38.3734 16.6532 38.3734 24.8643V57.9173H49.5267C57.3237 57.9173 63.672 64.599 63.672 72.8102C63.672 81.0213 57.3284 87.7029 49.5267 87.7029H24.2281Z" fill="#F7F7F7"/>
<path opacity="0.1" d="M23.9013 87.3573C16.1091 87.3573 9.7655 80.6804 9.7655 72.474V24.5282C9.7655 16.3218 16.1044 9.64478 23.9013 9.64478C31.6983 9.64478 38.0372 16.3218 38.0372 24.5282V57.5906H49.2C56.9922 57.5906 63.3358 64.2676 63.3358 72.474C63.3358 80.6804 56.997 87.3573 49.2 87.3573H23.9013Z" fill="#F3F3F3"/>
<path opacity="0.13" d="M23.5793 87.0073C15.7918 87.0073 9.4577 80.3351 9.4577 72.1381V24.1923C9.4577 15.9906 15.7918 9.32324 23.5793 9.32324C31.3668 9.32324 37.701 15.9954 37.701 24.1923V57.2691H48.8733C56.6608 57.2691 62.9949 63.9412 62.9949 72.1381C62.9949 80.3351 56.6608 87.0073 48.8733 87.0073H23.5746H23.5793Z" fill="#EFEFEF"/>
<path opacity="0.16" d="M23.2528 86.661C15.4701 86.661 9.14069 79.9935 9.14069 71.8013V23.8554C9.14069 15.6632 15.4701 8.99585 23.2528 8.99585C31.0356 8.99585 37.365 15.6632 37.365 23.8554V56.9417H48.5515C56.3343 56.9417 62.6637 63.609 62.6637 71.8013C62.6637 79.9935 56.3343 86.661 48.5515 86.661H23.2528Z" fill="#EBEBEB"/>
<path opacity="0.19" d="M22.9309 86.3154C15.1576 86.3154 8.82819 79.6526 8.82819 71.4699V23.5241C8.82819 15.3366 15.1529 8.67859 22.9309 8.67859C30.7089 8.67859 37.0336 15.3413 37.0336 23.5241V56.6244H48.2296C56.0028 56.6244 62.3323 63.2871 62.3323 71.4699C62.3323 79.6526 56.0076 86.3154 48.2296 86.3154H22.9309Z" fill="#E6E7E7"/>
<path opacity="0.23" d="M22.6042 85.9655C14.8356 85.9655 8.51569 79.3122 8.51569 71.1295V23.1837C8.51569 15.0009 14.8356 8.34766 22.6042 8.34766C30.3727 8.34766 36.6927 15.0009 36.6927 23.1837V56.2935H47.8981C55.6667 56.2935 61.9866 62.9467 61.9866 71.1295C61.9866 79.3122 55.6667 85.9655 47.8981 85.9655H22.5994H22.6042Z" fill="#E2E3E3"/>
<path opacity="0.26" d="M22.2824 85.6198C14.5186 85.6198 8.20337 78.9714 8.20337 70.7934V22.8475C8.20337 14.6742 14.5186 8.021 22.2824 8.021C30.0462 8.021 36.3614 14.6695 36.3614 22.8475V55.9668H47.5811C55.3449 55.9668 61.6601 62.6153 61.6601 70.7934C61.6601 78.9714 55.3449 85.6198 47.5811 85.6198H22.2824Z" fill="#DEDFE0"/>
<path opacity="0.29" d="M21.9557 85.2735C14.1966 85.2735 7.88611 78.6298 7.88611 70.4613V22.5154C7.88611 14.3469 14.1966 7.70312 21.9557 7.70312C29.7147 7.70312 36.0252 14.3469 36.0252 22.5154V55.6489H47.2544C55.0134 55.6489 61.3239 62.2927 61.3239 70.4613C61.3239 78.6298 55.0134 85.2735 47.2544 85.2735H21.9557Z" fill="#DADBDC"/>
<path opacity="0.32" d="M21.6337 84.9236C13.8841 84.9236 7.57361 78.2845 7.57361 70.1207V22.1749C7.57361 14.0111 13.8793 7.37207 21.6337 7.37207C29.388 7.37207 35.6938 14.0111 35.6938 22.1749V55.3179H46.9324C54.682 55.3179 60.9925 61.9569 60.9925 70.1207C60.9925 78.2845 54.6867 84.9236 46.9324 84.9236H21.6337Z" fill="#D6D7D8"/>
<path opacity="0.35" d="M21.3072 84.578C13.5623 84.578 7.26129 77.9437 7.26129 69.7894V21.8435C7.26129 13.6892 13.5623 7.05493 21.3072 7.05493C29.0521 7.05493 35.3531 13.6892 35.3531 21.8435V55.0008H46.6059C54.3507 55.0008 60.6517 61.635 60.6517 69.7894C60.6517 77.9437 54.3507 84.578 46.6059 84.578H21.3072Z" fill="#D2D3D4"/>
<path opacity="0.39" d="M20.9804 84.2272C13.2403 84.2272 6.94403 77.5977 6.94403 69.4481V21.5023C6.94403 13.3527 13.2403 6.72314 20.9804 6.72314C28.7206 6.72314 35.0169 13.3527 35.0169 21.5023V54.669H46.2791C54.0193 54.669 60.3155 61.2985 60.3155 69.4481C60.3155 77.5977 54.0193 84.2272 46.2791 84.2272H20.9804Z" fill="#CECFD0"/>
<path opacity="0.42" d="M20.6585 83.8817C12.9231 83.8817 6.63153 77.257 6.63153 69.1121V21.1663C6.63153 13.0214 12.9231 6.39661 20.6585 6.39661C28.3939 6.39661 34.6854 13.0214 34.6854 21.1663V54.3424H45.9572C53.6926 54.3424 59.9841 60.9672 59.9841 69.1121C59.9841 77.257 53.6926 83.8817 45.9572 83.8817H20.6585Z" fill="#CACBCC"/>
<path opacity="0.45" d="M20.3318 83.5361C12.6058 83.5361 6.31903 76.9161 6.31903 68.7807V20.8349C6.31903 12.6995 12.6058 6.07935 20.3318 6.07935C28.0577 6.07935 34.3445 12.6995 34.3445 20.8349V54.0252H45.6257C53.3517 54.0252 59.6385 60.6453 59.6385 68.7807C59.6385 76.9161 53.3517 83.5361 45.6257 83.5361H20.327H20.3318Z" fill="#C6C7C8"/>
<path opacity="0.48" d="M20.01 83.1855C12.2888 83.1855 6.00671 76.5702 6.00671 68.4396V20.4937C6.00671 12.3631 12.2888 5.74768 20.01 5.74768C27.7312 5.74768 34.0133 12.3631 34.0133 20.4937V53.6935H45.3087C53.0299 53.6935 59.312 60.3089 59.312 68.4396C59.312 76.5702 53.0299 83.1855 45.3087 83.1855H20.01Z" fill="#C2C3C4"/>
<path opacity="0.52" d="M19.6833 82.8398C11.9668 82.8398 5.68951 76.2292 5.68951 68.108V20.1622C5.68951 12.0362 11.9668 5.43042 19.6833 5.43042C27.3998 5.43042 33.6771 12.041 33.6771 20.1622V53.3762H44.982C52.6985 53.3762 58.9758 59.9868 58.9758 68.108C58.9758 76.2292 52.6985 82.8398 44.982 82.8398H19.6833Z" fill="#BDBEC0"/>
<path opacity="0.55" d="M19.3614 82.4892C11.6544 82.4892 5.38184 75.8833 5.38184 67.7668V19.821C5.38184 11.7045 11.6544 5.09875 19.3614 5.09875C27.0685 5.09875 33.341 11.7045 33.341 19.821V53.0446H44.6554C52.3671 53.0446 58.635 59.6504 58.635 67.7668C58.635 75.8833 52.3624 82.4892 44.6554 82.4892H19.3567H19.3614Z" fill="#B9BABC"/>
<path opacity="0.58" d="M19.0348 82.1436C11.3325 82.1436 5.06464 75.5425 5.06464 67.4355V19.4896C5.06464 11.3779 11.3325 4.78149 19.0348 4.78149C26.737 4.78149 33.0049 11.3827 33.0049 19.4896V52.7273H44.3335C52.0357 52.7273 58.3036 59.3285 58.3036 67.4355C58.3036 75.5425 52.0357 82.1436 44.3335 82.1436H19.0348Z" fill="#B5B6B8"/>
<path opacity="0.61" d="M18.7128 81.798C11.0153 81.798 4.75214 75.2063 4.75214 67.0993V19.1535C4.75214 11.0465 11.0153 4.45483 18.7128 4.45483C26.4103 4.45483 32.6735 11.0465 32.6735 19.1535V52.4007H44.0115C51.709 52.4007 57.9722 58.9923 57.9722 67.0993C57.9722 75.2063 51.709 81.798 44.0115 81.798H18.7128Z" fill="#B1B2B4"/>
<path opacity="0.65" d="M18.3861 81.4474C10.6933 81.4474 4.43494 74.8604 4.43494 66.7582V18.8124C4.43494 10.7148 10.6933 4.12317 18.3861 4.12317C26.0789 4.12317 32.3373 10.7101 32.3373 18.8124V52.069H43.6848C51.3776 52.069 57.636 58.6559 57.636 66.7582C57.636 74.8604 51.3776 81.4474 43.6848 81.4474H18.3861Z" fill="#ADAEB0"/>
<path opacity="0.68" d="M18.0643 81.1017C10.381 81.1017 4.12732 74.5195 4.12732 66.4267V18.4809C4.12732 10.3881 10.381 3.80591 18.0643 3.80591C25.7477 3.80591 32.0013 10.3881 32.0013 18.4809V51.7517H43.363C51.0463 51.7517 57.3 58.3339 57.3 66.4267C57.3 74.5195 51.0463 81.1017 43.363 81.1017H18.0643Z" fill="#A9AAAC"/>
<path opacity="0.71" d="M17.7376 80.7519C10.059 80.7519 3.81006 74.1743 3.81006 66.0863V18.1405C3.81006 10.0524 10.059 3.47498 17.7376 3.47498C25.4162 3.47498 31.6651 10.0524 31.6651 18.1405V51.4208H43.0363C50.7149 51.4208 56.9638 57.9982 56.9638 66.0863C56.9638 74.1743 50.7149 80.7519 43.0363 80.7519H17.7376Z" fill="#A5A6A8"/>
<path opacity="0.74" d="M17.4109 80.4062C9.73705 80.4062 3.49286 73.8334 3.49286 65.7548V17.809C3.49286 9.73041 9.73705 3.15771 17.4109 3.15771C25.0848 3.15771 31.329 9.73041 31.329 17.809V51.1035H42.7096C50.3835 51.1035 56.6277 57.6762 56.6277 65.7548C56.6277 73.8334 50.3835 80.4062 42.7096 80.4062H17.4109Z" fill="#A1A2A4"/>
<path opacity="0.77" d="M17.0891 80.0597C9.41997 80.0597 3.18524 73.4918 3.18524 65.4179V17.4721C3.18524 9.39827 9.4247 2.83032 17.0891 2.83032C24.7535 2.83032 30.993 9.39827 30.993 17.4721V50.7761H42.3831C50.0522 50.7761 56.2869 57.3441 56.2869 65.4179C56.2869 73.4918 50.0475 80.0597 42.3831 80.0597H17.0844H17.0891Z" fill="#9D9EA1"/>
<path opacity="0.81" d="M16.7624 79.7098C9.10277 79.7098 2.86804 73.1466 2.86804 65.0775V17.1317C2.86804 9.06259 9.10277 2.49939 16.7624 2.49939C24.4221 2.49939 30.6568 9.06259 30.6568 17.1317V50.4452H42.0611C49.7208 50.4452 55.9555 57.0084 55.9555 65.0775C55.9555 73.1466 49.7208 79.7098 42.0611 79.7098H16.7624Z" fill="#999A9D"/>
<path opacity="0.84" d="M16.4404 79.3642C8.78547 79.3642 2.55548 72.8058 2.55548 64.7462V16.8003C2.55548 8.7407 8.78547 2.18213 16.4404 2.18213C24.0953 2.18213 30.3253 8.7407 30.3253 16.8003V50.1279H41.7391C49.394 50.1279 55.624 56.6865 55.624 64.7462C55.624 72.8058 49.394 79.3642 41.7391 79.3642H16.4404Z" fill="#949699"/>
<path opacity="0.87" d="M16.1139 79.0187C8.46369 79.0187 2.24316 72.465 2.24316 64.4101V16.4643C2.24316 8.40942 8.46842 1.85559 16.1139 1.85559C23.7594 1.85559 29.9846 8.40942 29.9846 16.4643V49.8014H41.4078C49.058 49.8014 55.2786 56.3552 55.2786 64.4101C55.2786 72.465 49.0533 79.0187 41.4078 79.0187H16.1092H16.1139Z" fill="#909295"/>
<path opacity="0.9" d="M15.7919 78.6679C8.14645 78.6679 1.93066 72.1188 1.93066 64.0734V16.1276C1.93066 8.07743 8.15119 1.5332 15.7919 1.5332C23.4327 1.5332 29.6532 8.08216 29.6532 16.1276V49.479H41.0906C48.7361 49.479 54.9519 56.028 54.9519 64.0734C54.9519 72.1188 48.7313 78.6679 41.0906 78.6679H15.7919Z" fill="#8C8E91"/>
<path opacity="0.94" d="M15.4653 78.3224C7.82925 78.3224 1.61346 71.7781 1.61346 63.7374V15.7916C1.61346 7.75088 7.82925 1.20667 15.4653 1.20667C23.1012 1.20667 29.317 7.75088 29.317 15.7916V49.1525H40.7639C48.3999 49.1525 54.6157 55.6967 54.6157 63.7374C54.6157 71.7781 48.3999 78.3224 40.7639 78.3224H15.4653Z" fill="#888A8D"/>
<path opacity="0.97" d="M15.1434 77.9717C7.51214 77.9717 1.30109 71.4321 1.30109 63.4009V15.4551C1.30109 7.41912 7.51214 0.884277 15.1434 0.884277C22.7747 0.884277 28.9857 7.42386 28.9857 15.4551V48.8301H40.4421C48.0734 48.8301 54.2844 55.3697 54.2844 63.4009C54.2844 71.4321 48.0734 77.9717 40.4421 77.9717H15.1434Z" fill="#848689"/>
<path d="M14.8167 77.6261C7.19017 77.6261 0.988586 71.096 0.988586 63.0648V15.1189C0.988586 7.08772 7.19017 0.557617 14.8167 0.557617C22.4432 0.557617 28.6448 7.08772 28.6448 15.1189V48.5034H40.1107C47.7372 48.5034 53.9388 55.0335 53.9388 63.0648C53.9388 71.096 47.7372 77.6261 40.1107 77.6261H14.812H14.8167Z" fill="#808285"/>
</g>
<path d="M14.8168 77.9813C7.0056 77.9813 0.652527 71.2902 0.652527 63.0648V15.119C0.652527 6.89362 7.0056 0.202515 14.8168 0.202515C22.6279 0.202515 28.981 6.89362 28.981 15.119V48.1483H40.1107C47.9219 48.1483 54.2749 54.8394 54.2749 63.0648C54.2749 71.2902 47.9219 77.9813 40.1107 77.9813H14.812H14.8168Z" fill="url(#paint0_linear_53_37654)"/>
<path d="M14.8169 76.5612C7.74895 76.5612 2.00183 70.5046 2.00183 63.0653V15.1195C2.00183 7.68022 7.75368 1.62366 14.8169 1.62366C21.88 1.62366 27.6319 7.68022 27.6319 15.1195V49.5695H40.1108C47.1787 49.5695 52.9258 55.626 52.9258 63.0653C52.9258 70.5046 47.174 76.5612 40.1108 76.5612H14.8121H14.8169Z" fill="url(#paint1_linear_53_37654)"/>
<path d="M27.1016 53.4758H24.9713C24.479 53.4758 24.0813 53.0781 24.0813 52.5856V50.4546C24.0813 49.9622 24.479 49.5643 24.9713 49.5643C25.4636 49.5643 25.8613 49.9622 25.8613 50.4546V51.6953H27.1016C27.594 51.6953 27.9916 52.0931 27.9916 52.5856C27.9916 53.0781 27.594 53.4758 27.1016 53.4758Z" fill="#483F99"/>
<path d="M38.1318 74.4302H33.8238C33.3315 74.4302 32.9386 74.0325 32.9386 73.54C32.9386 73.0475 33.3362 72.6497 33.8238 72.6497H38.1318C38.6241 72.6497 39.0171 73.0475 39.0171 73.54C39.0171 74.0325 38.6194 74.4302 38.1318 74.4302ZM29.5111 74.4302H25.2032C24.7108 74.4302 24.3179 74.0325 24.3179 73.54C24.3179 73.0475 24.7156 72.6497 25.2032 72.6497H29.5111C30.0035 72.6497 30.3964 73.0475 30.3964 73.54C30.3964 74.0325 29.9987 74.4302 29.5111 74.4302ZM20.8905 74.4302H16.5825C16.0901 74.4302 15.6972 74.0325 15.6972 73.54C15.6972 73.0475 16.0949 72.6497 16.5825 72.6497H20.8905C21.3828 72.6497 21.7757 73.0475 21.7757 73.54C21.7757 74.0325 21.3781 74.4302 20.8905 74.4302ZM42.4161 74.1602C42.0137 74.1602 41.6492 73.8856 41.5545 73.4784C41.4409 73.0001 41.7344 72.5218 42.2125 72.4081C43.486 72.1003 44.6648 71.5273 45.7157 70.7034C46.0992 70.4003 46.6578 70.4666 46.9608 70.8502C47.2638 71.2338 47.1975 71.7926 46.814 72.0957C45.5642 73.0806 44.1535 73.7673 42.6291 74.1319C42.5581 74.1508 42.4919 74.1555 42.4208 74.1555L42.4161 74.1602ZM12.3029 74.1082C12.2272 74.1082 12.1514 74.0987 12.0757 74.0798C10.5561 73.682 9.16425 72.9669 7.9334 71.9536C7.55468 71.641 7.49787 71.0822 7.81031 70.7034C8.12276 70.3245 8.68138 70.2726 9.0601 70.5804C10.0921 71.428 11.2567 72.0245 12.5254 72.3607C12.9988 72.4839 13.2829 72.9716 13.1598 73.4452C13.0556 73.8429 12.6958 74.1082 12.3029 74.1082ZM49.0059 69.0034C48.8639 69.0034 48.7218 68.9703 48.5893 68.8993C48.1585 68.6672 47.9928 68.1321 48.2248 67.6965C48.8497 66.5268 49.2237 65.2625 49.342 63.9366C49.3846 63.4488 49.8107 63.0889 50.303 63.1315C50.7906 63.1741 51.1551 63.605 51.1125 64.0928C50.9753 65.6602 50.5302 67.1566 49.7917 68.5394C49.6308 68.8377 49.3231 69.0082 49.0059 69.0082V69.0034ZM5.82202 68.8187C5.50011 68.8187 5.18766 68.6435 5.03143 68.3357C4.32133 66.9435 3.90474 65.4376 3.80059 63.8655C3.76745 63.3777 4.1367 62.9516 4.62431 62.9184C5.12612 62.8853 5.53798 63.2546 5.57111 63.7424C5.66106 65.073 6.01138 66.3468 6.6126 67.5259C6.8351 67.9616 6.66468 68.4967 6.22441 68.7193C6.09659 68.7856 5.95931 68.8187 5.82202 68.8187ZM49.7491 60.6454C49.3751 60.6454 49.0248 60.4087 48.9065 60.0299C48.4946 58.7655 47.8461 57.6147 46.9703 56.6203C46.6483 56.251 46.6815 55.6922 47.0507 55.3655C47.42 55.0435 47.9833 55.0813 48.3052 55.4459C49.342 56.6251 50.1089 57.9841 50.5965 59.4805C50.748 59.9493 50.4924 60.4466 50.0237 60.5981C49.9338 60.6265 49.8391 60.6407 49.7491 60.6407V60.6454ZM4.66218 60.3803C4.16984 60.3803 3.77692 59.9825 3.77692 59.49V55.1809C3.77692 54.6884 4.17457 54.2905 4.66218 54.2905C5.14979 54.2905 5.54744 54.6884 5.54744 55.1809V59.49C5.54744 59.9825 5.14979 60.3803 4.66218 60.3803ZM44.2103 54.3663C44.0872 54.3663 43.9641 54.3379 43.8411 54.2858C42.6623 53.7507 41.4078 53.4761 40.1154 53.4761H40.0302C39.5378 53.4761 39.1402 53.0784 39.1402 52.5859C39.1402 52.0934 39.5378 51.6956 40.0302 51.6956H40.1154C41.6681 51.6956 43.1688 52.0223 44.5796 52.6663C45.0246 52.87 45.2234 53.3956 45.0198 53.8407C44.8731 54.1674 44.5464 54.3616 44.2103 54.3616V54.3663ZM35.7222 53.4761H31.4142C30.9219 53.4761 30.5289 53.0784 30.5289 52.5859C30.5289 52.0934 30.9266 51.6956 31.4142 51.6956H35.7222C36.2145 51.6956 36.6122 52.0934 36.6122 52.5859C36.6122 53.0784 36.2145 53.4761 35.7222 53.4761ZM4.66691 51.7572C4.17457 51.7572 3.78165 51.3593 3.78165 50.8669V46.5576C3.78165 46.0651 4.17931 45.6674 4.66691 45.6674C5.15452 45.6674 5.55218 46.0651 5.55218 46.5576V50.8669C5.55218 51.3593 5.15452 51.7572 4.66691 51.7572ZM24.9759 46.9791C24.4836 46.9791 24.0859 46.5813 24.0859 46.0888V41.7797C24.0859 41.2872 24.4836 40.8894 24.9759 40.8894C25.4683 40.8894 25.8659 41.2872 25.8659 41.7797V46.0888C25.8659 46.5813 25.4683 46.9791 24.9759 46.9791ZM4.66691 43.1339C4.17457 43.1339 3.78165 42.7362 3.78165 42.2437V37.9345C3.78165 37.442 4.17931 37.0443 4.66691 37.0443C5.15452 37.0443 5.55218 37.442 5.55218 37.9345V42.2437C5.55218 42.7362 5.15452 43.1339 4.66691 43.1339ZM24.9759 38.356C24.4836 38.356 24.0859 37.9582 24.0859 37.4657V33.1566C24.0859 32.6641 24.4836 32.2662 24.9759 32.2662C25.4683 32.2662 25.8659 32.6641 25.8659 33.1566V37.4657C25.8659 37.9582 25.4683 38.356 24.9759 38.356ZM4.66691 34.5108C4.17457 34.5108 3.78165 34.1131 3.78165 33.6206V29.3114C3.78165 28.8189 4.17931 28.4212 4.66691 28.4212C5.15452 28.4212 5.55218 28.8189 5.55218 29.3114V33.6206C5.55218 34.1131 5.15452 34.5108 4.66691 34.5108ZM24.9759 29.7329C24.4836 29.7329 24.0859 29.335 24.0859 28.8426V24.5333C24.0859 24.0408 24.4836 23.6431 24.9759 23.6431C25.4683 23.6431 25.8659 24.0408 25.8659 24.5333V28.8426C25.8659 29.335 25.4683 29.7329 24.9759 29.7329ZM4.66691 25.8877C4.17457 25.8877 3.78165 25.49 3.78165 24.9975V20.6882C3.78165 20.1958 4.17931 19.7979 4.66691 19.7979C5.15452 19.7979 5.55218 20.1958 5.55218 20.6882V24.9975C5.55218 25.49 5.15452 25.8877 4.66691 25.8877ZM24.9759 21.1096C24.4836 21.1096 24.0859 20.7119 24.0859 20.2194V15.9102C24.0859 15.4177 24.4836 15.02 24.9759 15.02C25.4683 15.02 25.8659 15.4177 25.8659 15.9102V20.2194C25.8659 20.7119 25.4683 21.1096 24.9759 21.1096ZM4.66691 17.2646C4.17457 17.2646 3.78165 16.8667 3.78165 16.3742V15.1099C3.78165 14.0019 3.93787 12.908 4.24085 11.8568C4.37814 11.3832 4.87521 11.1133 5.33915 11.2506C5.80782 11.388 6.08239 11.8804 5.9451 12.3492C5.68473 13.2394 5.55691 14.1676 5.55691 15.1052V16.3695C5.55691 16.862 5.15925 17.2598 4.67165 17.2598L4.66691 17.2646ZM24.4078 12.5481C24.0386 12.5481 23.693 12.3161 23.5652 11.942C23.1391 10.6824 22.4716 9.54581 21.5816 8.56085C21.2502 8.19622 21.2786 7.63749 21.6432 7.30602C22.0077 6.97928 22.571 7.00763 22.8977 7.36752C23.9486 8.53243 24.7392 9.87737 25.2458 11.369C25.402 11.8331 25.1558 12.335 24.6919 12.496C24.5972 12.5291 24.5025 12.5434 24.4078 12.5434V12.5481ZM7.09074 9.20965C6.89191 9.20965 6.69308 9.14339 6.52739 9.00606C6.14867 8.69353 6.09659 8.13469 6.40904 7.75586C7.40792 6.54833 8.66244 5.54923 10.0448 4.8626C10.4803 4.64477 11.0153 4.82465 11.233 5.26504C11.4508 5.70543 11.2709 6.2358 10.8306 6.45362C9.67079 7.03134 8.6151 7.86957 7.77244 8.88768C7.59728 9.10077 7.34164 9.20965 7.08601 9.20965H7.09074ZM18.7791 6.34946C18.6607 6.34946 18.5376 6.32582 18.424 6.27374C17.2831 5.77178 16.0712 5.52077 14.8214 5.52077H14.6084C14.116 5.56338 13.7137 5.14663 13.6995 4.65415C13.69 4.16641 14.0782 3.7592 14.5658 3.745H14.8214C16.3174 3.745 17.7707 4.04801 19.1389 4.64467C19.5886 4.84356 19.7922 5.36455 19.5933 5.81442C19.4466 6.14589 19.1199 6.34472 18.7791 6.34472V6.34946Z" fill="#483F99"/>
<path d="M40.1155 69.4577H14.8168C11.4651 69.4577 8.7478 66.5975 8.7478 63.0649V15.1191C8.7478 11.5865 11.4651 8.72632 14.8168 8.72632C18.1685 8.72632 20.8859 11.5865 20.8859 15.1191V56.6721H40.1108C43.4625 56.6721 46.1798 59.5323 46.1798 63.0649C46.1798 66.5975 43.4625 69.4577 40.1108 69.4577H40.1155Z" fill="#483F99"/>
<defs>
<linearGradient id="paint0_linear_53_37654" x1="0.652527" y1="39.0943" x2="54.2797" y2="39.0943" gradientUnits="userSpaceOnUse">
<stop stop-color="#F1F2F2"/>
<stop offset="1" stop-color="#D1D3D4"/>
</linearGradient>
<linearGradient id="paint1_linear_53_37654" x1="2.00183" y1="39.0948" x2="52.9306" y2="39.0948" gradientUnits="userSpaceOnUse">
<stop stop-color="#D1D3D4"/>
<stop offset="1" stop-color="#F1F2F2"/>
</linearGradient>
</defs>
</svg>
