<svg width="89" height="89" viewBox="0 0 89 89" fill="none" xmlns="http://www.w3.org/2000/svg">
<g style="mix-blend-mode:multiply">
<path opacity="0.03" d="M20.2034 22.0871C21.5763 15.5712 26.9589 10.779 33.293 10.4333C33.5345 10.4191 33.7901 10.4144 34.041 10.4144C40.129 10.4144 45.521 14.5105 47.4525 20.6049L49.1946 26.1027L49.4598 25.3166L50.932 20.6617C51.1072 20.1077 51.3297 19.5157 51.5617 18.9996C53.8624 13.8096 58.8095 10.4286 64.3436 10.4144C64.5945 10.4144 64.8406 10.4191 65.0915 10.4333C65.333 10.4475 65.5697 10.4664 65.8064 10.4901C71.8328 11.1341 76.8745 15.8079 78.2001 22.0823L88.3167 70.0281C89.1357 73.9112 88.4682 77.8983 86.4373 81.2605C84.4064 84.6226 81.2583 86.9477 77.5704 87.8096C76.5621 88.0463 75.5301 88.1647 74.4933 88.1647C69.338 88.1647 64.6465 85.1435 62.1754 80.5691C62.0665 80.3702 61.9529 80.1476 61.8535 79.944C61.7588 80.1382 61.6546 80.3465 61.5552 80.5359C59.0888 85.1908 54.3973 88.1647 49.1994 88.1647C44.0014 88.1647 39.3005 85.1862 36.8341 80.5171C36.7394 80.3372 36.6352 80.1287 36.5453 79.944C36.4459 80.1476 36.3323 80.3702 36.2234 80.5739C33.7522 85.1482 29.0608 88.1694 23.9102 88.1694C22.8781 88.1694 21.8367 88.0463 20.8236 87.8096C13.2112 86.029 8.39199 78.0499 10.082 70.0281L20.1987 22.0823L20.2034 22.0871Z" fill="#FBFBFB"/>
<path opacity="0.06" d="M19.8911 21.751C21.2639 15.2398 26.6418 10.4523 32.9665 10.1066C33.2079 10.0924 33.4636 10.0878 33.7145 10.0878C39.7977 10.0878 45.185 14.1791 47.1165 20.2689L48.8586 25.7713L49.1237 25.0421L50.596 20.3825C50.7665 19.8474 50.9984 19.2176 51.2209 18.7204C53.5027 13.5162 58.4498 10.1162 63.9839 10.0878C64.2348 10.0878 64.4857 10.0877 64.7366 10.1066C64.978 10.1208 65.2147 10.1398 65.4514 10.1635C71.4826 10.7933 76.5291 15.4719 77.8546 21.751L87.9712 69.6968C88.7902 73.5751 88.1227 77.5623 86.0918 80.9196C84.0609 84.2818 80.9128 86.6021 77.2297 87.464C76.2261 87.7008 75.1893 87.8191 74.1573 87.8191C69.002 87.8191 64.3058 84.7932 61.8394 80.2093C61.7352 80.0152 61.6169 79.7784 61.5174 79.5842C61.4275 79.7737 61.3139 79.9962 61.2192 80.1762C58.7528 84.8405 54.0661 87.8144 48.8634 87.8144C43.6607 87.8144 38.9598 84.8311 36.4981 80.1573C36.4034 79.9821 36.2945 79.7643 36.2093 79.5796C36.1146 79.7785 35.9915 80.0152 35.8874 80.2093C33.4209 84.7932 28.7248 87.8191 23.5742 87.8191C22.5421 87.8191 21.5006 87.696 20.4876 87.4593C12.88 85.6787 8.06546 77.7091 9.75551 69.6921L19.8721 21.7462L19.8911 21.751Z" fill="#F7F7F7"/>
<path opacity="0.1" d="M19.5739 21.4193C20.9467 14.9129 26.3199 10.1301 32.6398 9.7844C32.8812 9.7702 33.1369 9.76544 33.3878 9.76544C39.4663 9.76544 44.8489 13.8521 46.7804 19.9418L48.5225 25.4491L48.7876 24.7719L50.2646 20.1076C50.4303 19.5914 50.6718 18.9237 50.8895 18.4407C53.1571 13.2223 58.0947 9.80333 63.6288 9.76544C63.8797 9.76544 64.1354 9.76546 64.391 9.77966C64.6324 9.78913 64.8691 9.80813 65.1058 9.83654C71.1417 10.4569 76.1977 15.1354 77.5232 21.4145L87.6398 69.3604C88.4588 73.2339 87.7913 77.2163 85.7604 80.5737C83.7295 83.9311 80.5861 86.2562 76.9078 87.1133C75.9042 87.3501 74.8674 87.4685 73.8354 87.4685C68.68 87.4685 63.9791 84.4378 61.5174 79.8445C61.418 79.6598 61.2902 79.4089 61.2002 79.2195C61.115 79.3994 60.9967 79.6409 60.902 79.8161C58.4403 84.49 53.7489 87.4685 48.5462 87.4685C43.3435 87.4685 38.6426 84.4805 36.1809 79.7972C36.0909 79.6267 35.9726 79.3947 35.8921 79.2195C35.7974 79.4136 35.6743 79.6598 35.5702 79.8492C33.1085 84.4425 28.4076 87.4732 23.2522 87.4732C22.2202 87.4732 21.1834 87.3549 20.1704 87.1133C12.5675 85.3328 7.75772 77.3679 9.44777 69.3604L19.5644 21.4145L19.5739 21.4193Z" fill="#F3F3F3"/>
<path opacity="0.13" d="M19.2614 21.0832C20.6343 14.5815 26.0027 9.80349 32.3179 9.4578C32.5593 9.4436 32.8102 9.43884 33.0659 9.43884C39.1396 9.43884 44.5175 13.5255 46.4442 19.6057L48.1911 25.1178L48.4562 24.4974L49.9332 19.833C50.0894 19.3358 50.3451 18.6302 50.5534 18.1661C52.802 12.9335 57.7396 9.50041 63.2737 9.44832C63.5294 9.44832 63.785 9.44834 64.0406 9.46254C64.2821 9.47201 64.5188 9.49089 64.7555 9.51457C70.7961 10.1254 75.8615 14.8041 77.1871 21.0879L87.3037 69.0338C88.1227 72.9073 87.4552 76.885 85.429 80.2424C83.4029 83.5951 80.2595 85.9202 76.5811 86.7773C75.5775 87.014 74.5455 87.1324 73.5134 87.1324C68.3581 87.1324 63.6525 84.097 61.1955 79.4942C61.0961 79.3142 60.9635 79.0539 60.8783 78.8692C60.7931 79.0444 60.67 79.2953 60.5801 79.4657C58.1231 84.149 53.4317 87.1324 48.2242 87.1324C43.0168 87.1324 38.3159 84.1444 35.8589 79.4516C35.7737 79.2859 35.6506 79.0395 35.5702 78.8738C35.4802 79.0585 35.3477 79.3237 35.253 79.5036C32.796 84.1064 28.0904 87.1419 22.935 87.1419C21.903 87.1419 20.8662 87.0235 19.8532 86.782C12.255 85.0062 7.44999 77.0461 9.14004 69.0432L19.2567 21.0974L19.2614 21.0832Z" fill="#EFEFEF"/>
<path opacity="0.16" d="M18.949 20.7513C20.3171 14.2543 25.6855 9.48116 31.996 9.13548C32.2374 9.12127 32.4883 9.11652 32.744 9.11652C38.813 9.11652 44.1861 13.1984 46.1129 19.2739L47.8597 24.7906L48.1296 24.2224L49.6066 19.5533C49.7581 19.0751 50.0232 18.3316 50.2268 17.8817C52.4612 12.6349 57.3893 9.18281 62.9282 9.11652C63.1838 9.11652 63.4442 9.11653 63.7046 9.126C63.946 9.13547 64.1827 9.15434 64.4194 9.17802C70.4648 9.77942 75.5349 14.4581 76.8652 20.7419L86.9818 68.6877C87.7961 72.5566 87.1333 76.5342 85.1071 79.8869C83.081 83.2396 79.9423 85.5599 76.2687 86.417C75.2651 86.6538 74.233 86.7722 73.201 86.7722C68.0457 86.7722 63.3353 83.732 60.8831 79.1245C60.7884 78.954 60.6511 78.6747 60.5659 78.4995C60.4854 78.6652 60.3529 78.9351 60.2676 79.0961C57.8154 83.7889 53.1193 86.7722 47.9118 86.7722C42.7044 86.7722 37.9987 83.7794 35.5512 79.0772C35.466 78.9209 35.3382 78.6557 35.2625 78.4947C35.1773 78.6747 35.04 78.9492 34.9453 79.1245C32.4883 83.7367 27.7827 86.7769 22.6273 86.7769C21.5953 86.7769 20.5586 86.6585 19.5502 86.417C11.9615 84.6412 7.1565 76.6857 8.84182 68.6924L18.9585 20.7465L18.949 20.7513Z" fill="#EBEBEB"/>
<path opacity="0.19" d="M18.6317 20.4153C19.9999 13.9231 25.3635 9.14983 31.6693 8.80888C31.9107 8.79467 32.1616 8.78992 32.4173 8.78992C38.4816 8.78992 43.8499 12.8672 45.7767 18.9427L47.5236 24.4641L47.7934 23.9526L49.2704 19.2789C49.4172 18.8195 49.6917 18.0382 49.8858 17.6073C52.1014 12.3463 57.0295 8.87516 62.5636 8.7994C62.824 8.7994 63.0843 8.79941 63.3447 8.80888C63.5861 8.81835 63.8228 8.83734 64.0596 8.86102C70.1096 9.45294 75.1893 14.1267 76.5148 20.4201L86.6314 68.3659C87.4457 72.23 86.7829 76.2077 84.7567 79.5557C82.7306 82.9036 79.5966 85.2239 75.923 86.0811C74.9194 86.3178 73.8874 86.4362 72.8601 86.4362C67.7048 86.4362 62.9897 83.396 60.5374 78.7743C60.4475 78.6085 60.3007 78.3197 60.2202 78.1493C60.1445 78.3103 60.0072 78.5897 59.922 78.7459C57.4745 83.4482 52.7783 86.4362 47.5662 86.4362C42.354 86.4362 37.6531 83.4434 35.2056 78.7317C35.1251 78.5802 34.9878 78.3055 34.9168 78.1493C34.8363 78.3197 34.6896 78.6085 34.5996 78.779C32.1474 83.4007 27.4323 86.441 22.2817 86.4457C21.2497 86.4457 20.2176 86.3273 19.2046 86.0858C11.6206 84.31 6.82032 76.364 8.50564 68.3706L18.6223 20.4248L18.6317 20.4153Z" fill="#E6E7E7"/>
<path opacity="0.23" d="M18.3192 20.0842C19.6874 13.6015 25.0463 8.82823 31.3473 8.48728C31.5887 8.47308 31.8396 8.46832 32.0905 8.46832C38.1501 8.46832 43.5185 12.5456 45.4405 18.6116L47.1921 24.1378L47.462 23.6832L48.9437 19.0046C49.0857 18.5642 49.3698 17.7449 49.5544 17.3282C51.751 12.0483 56.6744 8.56777 62.2132 8.47306C62.4736 8.46833 62.7387 8.47307 63.0038 8.48254C63.2452 8.49201 63.4819 8.511 63.7186 8.52994C69.7735 9.1124 74.8578 13.7862 76.1881 20.0795L86.3047 68.0253C87.119 71.8894 86.4562 75.8577 84.4301 79.2056C82.4086 82.5536 79.2747 84.8692 75.6058 85.7263C74.6022 85.963 73.5749 86.0814 72.5429 86.0814C67.3875 86.0814 62.6677 83.0365 60.2202 78.4053C60.135 78.2443 59.9835 77.9413 59.903 77.7803C59.8273 77.9365 59.6852 78.2301 59.6048 78.3817C57.1573 83.0934 52.4611 86.0862 47.2489 86.0862C42.0368 86.0862 37.3311 83.0886 34.8884 78.3675C34.8126 78.2207 34.6706 77.9318 34.5996 77.7803C34.5191 77.946 34.3676 78.249 34.2824 78.4053C31.8349 83.0365 27.1151 86.0814 21.9644 86.0862C20.9372 86.0862 19.9004 85.9678 18.8921 85.731C11.3129 83.9552 6.51729 76.0187 8.2026 68.0301L18.3192 20.0842Z" fill="#E2E3E3"/>
<path opacity="0.26" d="M18.0068 19.7525C19.3749 13.2745 24.7244 8.50597 31.0254 8.16502C31.2668 8.15081 31.5177 8.14606 31.7686 8.14606C37.8235 8.14606 43.1871 12.2184 45.1091 18.2797L46.8607 23.8108L47.1306 23.4082L48.6123 18.725C48.7449 18.3035 49.0431 17.4417 49.223 17.0486C51.4054 11.7544 56.3193 8.25498 61.8629 8.1508C62.128 8.14606 62.3931 8.1508 62.6582 8.15554C62.8997 8.16501 63.1364 8.17914 63.3731 8.20282C69.4326 8.7758 74.5265 13.4497 75.8567 19.7478L85.9733 67.6936C86.7876 71.5529 86.1248 75.5212 84.1034 78.8644C82.082 82.2076 78.948 84.5232 75.2839 85.3803C74.2803 85.6171 73.253 85.7355 72.2257 85.7355C67.0703 85.7355 62.3458 82.6858 59.903 78.0451C59.8178 77.8935 59.6616 77.5764 59.5858 77.4201C59.5148 77.5669 59.3633 77.8747 59.2876 78.0215C56.8448 82.7427 52.1487 85.7401 46.9318 85.7401C41.7148 85.7401 37.0092 82.7379 34.5712 78.0073C34.4954 77.8699 34.3487 77.5621 34.2777 77.4201C34.2019 77.5764 34.0457 77.8935 33.9605 78.0451C31.5177 82.6858 26.7932 85.7355 21.6425 85.7355C20.6153 85.7355 19.5832 85.6171 18.5702 85.3803C10.9957 83.6093 6.20485 75.6727 7.89017 67.6936L18.0068 19.7478V19.7525Z" fill="#DEDFE0"/>
<path opacity="0.29" d="M17.6897 19.4164C19.0578 12.9431 24.4025 8.17931 30.6941 7.83836C30.9308 7.82415 31.1864 7.8194 31.4373 7.8194C37.4874 7.8194 42.8463 11.887 44.7636 17.9483L46.5152 23.484L46.7851 23.1383L48.2668 18.4551C48.3946 18.0478 48.7023 17.1528 48.8728 16.774C51.0362 11.4656 55.9502 7.94727 61.489 7.83362C61.7541 7.82888 62.0239 7.82888 62.2938 7.83362C62.5352 7.84309 62.7719 7.85722 63.0133 7.8809C69.0776 8.43968 74.1809 13.1183 75.5112 19.4164L85.6278 67.3622C86.4421 71.2215 85.7793 75.185 83.7579 78.5234C81.7364 81.8666 78.6072 84.1775 74.9431 85.0346C73.9442 85.2713 72.9122 85.3897 71.8849 85.3897C66.7343 85.3897 62.0003 82.3355 59.5622 77.6854C59.4817 77.5386 59.3208 77.2071 59.245 77.0603C59.1788 77.2023 59.0178 77.5243 58.9468 77.6617C56.5088 82.3923 51.8079 85.3897 46.591 85.3897C41.3741 85.3897 36.6684 82.3876 34.2304 77.6474C34.1594 77.5148 34.0032 77.1976 33.9369 77.0603C33.8659 77.2118 33.7002 77.5433 33.6197 77.6854C31.1817 82.3355 26.4524 85.3897 21.3018 85.3897C20.2745 85.3897 19.2424 85.2713 18.2341 85.0346C10.6644 83.2635 5.87827 75.3366 7.55885 67.3622L17.6755 19.4164H17.6897Z" fill="#DADBDC"/>
<path opacity="0.32" d="M17.3772 19.0851C18.7406 12.6166 24.0853 7.85744 30.3721 7.51176C30.6088 7.49755 30.8645 7.4928 31.1154 7.4928C37.1607 7.4928 42.5149 11.5606 44.4322 17.6124L46.1885 23.1528L46.4584 22.8592L47.9401 18.1711C48.0632 17.7828 48.3804 16.8499 48.5461 16.49C50.6906 11.1675 55.5998 7.63013 61.1434 7.50228C61.4132 7.49281 61.683 7.49754 61.9529 7.50228C62.1943 7.51175 62.431 7.526 62.6725 7.54968C68.7462 8.09898 73.8495 12.7776 75.1798 19.0804L85.2964 67.0262C86.1107 70.8808 85.4479 74.8395 83.4265 78.1827C81.4098 81.5212 78.2806 83.832 74.6212 84.6891C73.6223 84.9259 72.595 85.0443 71.5677 85.0443C66.4171 85.0443 61.6783 81.9853 59.245 77.3257C59.1693 77.1884 58.9988 76.8427 58.9278 76.7006C58.8616 76.8379 58.7006 77.1741 58.6296 77.302C56.1963 82.0421 51.4907 85.0443 46.2738 85.0443C41.0569 85.0443 36.3465 82.0374 33.9132 77.2878C33.8469 77.1599 33.686 76.8284 33.6197 76.6958C33.5487 76.8379 33.3782 77.1836 33.3025 77.321C30.8692 81.9806 26.1304 85.0395 20.9798 85.0395C19.9525 85.0395 18.9205 84.9212 17.9122 84.6844C10.3519 82.9134 5.56579 74.9911 7.24637 67.0262L17.363 19.0804L17.3772 19.0851Z" fill="#D6D7D8"/>
<path opacity="0.35" d="M17.0647 18.7489C18.4281 12.2851 23.7681 7.53078 30.0502 7.1851C30.2869 7.17089 30.5425 7.16614 30.7934 7.16614C36.8341 7.16614 42.1835 11.2291 44.1008 17.2762L45.8571 22.8214L46.127 22.5846L47.6135 17.8919C47.7318 17.5225 48.0632 16.5517 48.2147 16.206C50.345 10.8693 55.2495 7.32715 60.7883 7.17562C61.0581 7.16615 61.3327 7.16615 61.6026 7.17562C61.844 7.18509 62.0807 7.19934 62.3221 7.21828C68.4006 7.75811 73.5134 12.4366 74.8436 18.7394L84.9603 66.6852C85.7745 70.5351 85.1118 74.4939 83.0951 77.8324C81.0784 81.1708 77.9539 83.4769 74.2945 84.334C73.2956 84.5708 72.2683 84.6892 71.241 84.6892C66.0904 84.6892 61.3469 81.6255 58.9184 76.9564C58.8473 76.8238 58.6722 76.4686 58.6059 76.3313C58.5444 76.4591 58.3739 76.8096 58.3077 76.9374C55.8744 81.687 51.1735 84.6939 45.9518 84.6939C40.7302 84.6939 36.0198 81.6823 33.5913 76.9279C33.525 76.8048 33.3593 76.4591 33.2977 76.336C33.2315 76.4733 33.0563 76.8285 32.9806 76.9611C30.5473 81.6302 25.8085 84.6939 20.6579 84.6939C19.6306 84.6939 18.6033 84.5755 17.595 84.3388C10.0394 82.5725 5.25805 74.6549 6.93864 66.6947L17.0553 18.7489H17.0647Z" fill="#D2D3D4"/>
<path opacity="0.39" d="M16.7524 18.4171C18.1158 11.9581 23.451 7.20378 29.7284 6.86283C29.9651 6.84863 30.2207 6.84387 30.4716 6.84387C36.5075 6.84387 41.8522 10.9021 43.7695 16.9492L45.5259 22.4991L45.7957 22.3191L47.2822 17.6216C47.3911 17.2712 47.7366 16.2625 47.8834 15.9358C49.9948 10.5848 54.8945 7.02857 60.4381 6.85809C60.7126 6.84862 60.9872 6.84862 61.2618 6.85809C61.5032 6.86756 61.7399 6.8817 61.9814 6.90064C68.0646 7.431 73.1821 12.1096 74.5171 18.4171L84.6337 66.363C85.4432 70.2128 84.7852 74.1669 82.7685 77.5006C80.7518 80.8343 77.6321 83.1404 73.9774 83.9975C72.9785 84.2343 71.9512 84.3527 70.9287 84.3527C65.7781 84.3527 61.0298 81.2842 58.606 76.6057C58.5397 76.4778 58.3551 76.1084 58.2935 75.9806C58.2367 76.1037 58.0568 76.4683 57.9953 76.5867C55.5667 81.3458 50.8611 84.3527 45.6395 84.3527C40.4178 84.3527 35.7075 81.341 33.2789 76.5725C33.2174 76.4588 33.0422 76.0989 32.9854 75.9806C32.9238 76.1084 32.7392 76.4825 32.6729 76.6057C30.2444 81.289 25.5009 84.3527 20.3503 84.3527C19.323 84.3527 18.2957 84.2343 17.2873 83.9975C9.73654 82.2312 4.9599 74.3232 6.64048 66.3677L16.7571 18.4219L16.7524 18.4171Z" fill="#CECFD0"/>
<path opacity="0.42" d="M16.4352 18.081C17.7986 11.6267 23.1292 6.87712 29.4018 6.53617C29.6385 6.52197 29.8941 6.51721 30.145 6.51721C36.1762 6.51721 41.5162 10.5754 43.4334 16.613L45.1945 22.1676L45.4643 22.0398L46.9508 17.3375C47.055 17.006 47.41 15.9596 47.5473 15.6471C49.6398 10.2771 54.5395 6.70664 60.083 6.52669C60.3576 6.51722 60.6369 6.51722 60.9115 6.52669C61.1529 6.53616 61.3896 6.55029 61.6311 6.56924C67.719 7.09013 72.846 11.7687 74.181 18.0763L84.2976 66.0221C85.1072 69.8672 84.4491 73.8213 82.4324 77.1502C80.4205 80.484 77.3007 82.7853 73.646 83.6424C72.6472 83.8792 71.6246 83.9976 70.5973 83.9976C65.4467 83.9976 60.6937 80.9291 58.2699 76.2363C58.2036 76.118 58.0143 75.7344 57.9575 75.6112C57.9006 75.7296 57.7208 76.1037 57.6592 76.2174C55.2354 80.9859 50.5298 83.9976 45.3034 83.9976C40.077 83.9976 35.3666 80.9812 32.9428 76.2079C32.886 76.099 32.7014 75.7249 32.6493 75.6112C32.5878 75.7344 32.3984 76.118 32.3369 76.2363C29.913 80.9291 25.1648 83.9976 20.0142 83.9976C18.9916 83.9976 17.9596 83.8792 16.956 83.6424C9.40992 81.8761 4.63802 73.9728 6.31386 66.0268L16.4305 18.081H16.4352Z" fill="#CACBCC"/>
<path opacity="0.45" d="M16.1228 17.7494C17.4814 11.2998 22.8119 6.55485 29.0798 6.21391C29.3165 6.1997 29.5721 6.19495 29.8231 6.19495C35.8495 6.19495 41.1895 10.2485 43.102 16.2814L44.8631 21.8407L45.1329 21.7697L46.6194 17.0675C46.7188 16.755 47.0833 15.6658 47.2112 15.3769C49.2894 9.99279 54.1797 6.40332 59.7232 6.21391C60.0025 6.20444 60.2818 6.1997 60.5611 6.21391C60.8026 6.22338 61.0393 6.23289 61.2807 6.25657C67.3734 6.76799 72.5098 11.4418 73.8401 17.7588L83.9567 65.7047C84.7663 69.5451 84.1082 73.4944 82.0963 76.8234C80.0843 80.1523 76.9646 82.4537 73.3194 83.3108C72.3205 83.5476 71.2979 83.666 70.2754 83.666C65.1248 83.666 60.3671 80.5927 57.948 75.8905C57.8864 75.7768 57.6923 75.379 57.6355 75.2654C57.5834 75.3743 57.3941 75.7674 57.3373 75.8715C54.9182 80.6495 50.2078 83.666 44.9814 83.666C39.7551 83.666 35.04 80.6448 32.6209 75.8621C32.5641 75.7579 32.3794 75.3696 32.3274 75.2654C32.2705 75.3838 32.0765 75.7816 32.0149 75.8905C29.5958 80.5927 24.8381 83.666 19.6922 83.666C18.6697 83.666 17.6424 83.5476 16.634 83.3108C9.09745 81.5445 4.32554 73.6507 6.00139 65.7047L16.118 17.7588L16.1228 17.7494Z" fill="#C6C7C8"/>
<path opacity="0.48" d="M15.8104 17.4132C17.169 10.9684 22.4948 6.22819 28.7579 5.88725C28.9946 5.87304 29.2503 5.86829 29.4965 5.86829C35.5181 5.86829 40.8534 9.91706 42.7612 15.95L44.5223 21.514L44.7921 21.4998L46.2833 16.7929C46.378 16.4993 46.752 15.3722 46.8751 15.0976C48.9344 9.69921 53.8247 6.0956 59.3682 5.88725C59.6475 5.87778 59.9268 5.87304 60.2109 5.88251C60.4523 5.88724 60.689 5.90148 60.9305 5.92043C67.0279 6.41764 72.1691 11.0962 73.5041 17.4132L83.6207 65.3591C84.4302 69.1995 83.7722 73.144 81.7602 76.4683C79.7482 79.7925 76.6332 82.0939 72.988 82.951C71.9939 83.183 70.9666 83.3061 69.9441 83.3061C64.7934 83.3061 60.031 80.2281 57.6166 75.5164C57.5598 75.4123 57.3563 75.0003 57.3042 74.8913C57.2568 74.9955 57.058 75.398 57.0059 75.5022C54.5868 80.2897 49.8812 83.3061 44.6501 83.3061C39.419 83.3061 34.7086 80.285 32.2895 75.4927C32.2375 75.3933 32.0434 74.9955 31.996 74.8913C31.9439 75.0003 31.7404 75.4123 31.6836 75.5164C29.2692 80.2281 24.5068 83.3061 19.3609 83.3061C18.3383 83.3061 17.311 83.1877 16.3074 82.951C8.77558 81.1894 4.0084 73.2956 5.68425 65.3591L15.8009 17.4132H15.8104Z" fill="#C2C3C4"/>
<path opacity="0.52" d="M15.4932 17.0814C16.8518 10.6412 22.1729 5.90593 28.4313 5.56498C28.668 5.55077 28.9236 5.54602 29.1698 5.54602C35.1915 5.54602 40.5173 9.59479 42.4251 15.6182L44.1909 21.187L44.4607 21.2248L45.9519 16.5131C46.0371 16.2385 46.4253 15.0737 46.539 14.818C48.5841 9.4054 53.4648 5.78281 59.0131 5.56498C59.2972 5.55551 59.5765 5.55077 59.8653 5.5555C60.1067 5.56024 60.3434 5.57436 60.5848 5.59331C66.687 6.08105 71.8376 10.7596 73.1726 17.0814L83.2893 65.0272C84.0988 68.8629 83.4408 72.8075 81.4288 76.1318C79.4216 79.456 76.3066 81.7574 72.6661 82.605C71.6719 82.837 70.6494 82.9602 69.6268 82.9602C64.4762 82.9602 59.709 79.8774 57.2994 75.1562C57.2473 75.0568 57.039 74.6306 56.987 74.5311C56.9396 74.6259 56.7361 75.0473 56.6887 75.142C54.2744 79.939 49.564 82.9602 44.3329 82.9602C39.1018 82.9602 34.3867 79.9342 31.9723 75.1325C31.925 75.0426 31.7214 74.6259 31.6788 74.5311C31.6315 74.6353 31.4232 75.0568 31.3664 75.1562C28.9567 79.8774 24.1896 82.9602 19.0437 82.9602C18.0211 82.9602 16.9938 82.8418 15.9902 82.605C8.46311 80.8434 3.70067 72.959 5.37652 65.0272L15.4932 17.0814Z" fill="#BDBEC0"/>
<path opacity="0.55" d="M15.1807 16.7503C16.5394 10.3149 21.8557 5.58422 28.1047 5.24327C28.3414 5.22906 28.5923 5.22443 28.8432 5.22443C34.8601 5.22443 40.1812 9.26845 42.089 15.2871L43.8548 20.8607L44.1246 20.9554L45.6158 16.2389C45.6963 15.9832 46.094 14.7804 46.2029 14.5389C48.229 9.11214 53.1051 5.47056 58.6534 5.23853C58.9374 5.22432 59.2215 5.22443 59.5102 5.22917C59.7517 5.2339 59.9884 5.24803 60.2298 5.26697C66.3367 5.74525 71.4968 10.4238 72.8318 16.7456L82.9484 64.6914C83.758 68.527 83.0952 72.467 81.088 75.7865C79.0807 79.106 75.9705 81.4073 72.33 82.255C71.3359 82.487 70.3133 82.6054 69.2908 82.6054C64.1401 82.6054 59.3682 79.5179 56.9633 74.7873C56.9113 74.6925 56.6982 74.2569 56.6509 74.1621C56.6083 74.2521 56.4 74.6878 56.3526 74.773C53.943 79.5795 49.2327 82.6054 43.9968 82.6054C38.761 82.6054 34.0459 79.5794 31.641 74.7636C31.5936 74.6783 31.3901 74.2474 31.3475 74.1621C31.3001 74.2569 31.0871 74.6973 31.035 74.7873C28.6254 79.5179 23.8582 82.6054 18.7076 82.6054C17.685 82.6054 16.6625 82.487 15.6589 82.2502C8.13649 80.4887 3.37878 72.6089 5.0499 64.6866L15.1665 16.7408L15.1807 16.7503Z" fill="#B9BABC"/>
<path opacity="0.58" d="M14.8682 16.4143C16.2269 9.98367 21.5337 5.25774 27.7827 4.91679C28.0194 4.90258 28.2703 4.89783 28.5212 4.89783C34.5334 4.89783 39.8497 8.93711 41.7575 14.9558L43.5233 20.5341L43.7932 20.6809L45.2891 15.9597C45.3649 15.7182 45.772 14.4823 45.8714 14.2597C47.8787 8.81874 52.7547 5.15829 58.303 4.91679C58.5918 4.90258 58.8758 4.89784 59.1693 4.90731C59.4108 4.91204 59.6475 4.92629 59.8889 4.94523C66.0005 5.41403 71.1654 10.0926 72.5004 16.4191L82.617 64.3649C83.4265 68.1958 82.7638 72.1309 80.7613 75.4504C78.754 78.7699 75.6485 81.0666 72.008 81.9143C71.0139 82.1463 69.9913 82.2647 68.9735 82.2647C63.8229 82.2647 59.0462 79.1725 56.6461 74.4323C56.5987 74.3471 56.381 73.8925 56.3336 73.8072C56.2958 73.8925 56.078 74.3376 56.0354 74.4181C53.6305 79.234 48.9154 82.2599 43.6796 82.2599C38.4437 82.2599 33.7286 79.2293 31.3237 74.4086C31.2811 74.3281 31.0681 73.883 31.0302 73.8025C30.9876 73.8925 30.7651 74.3424 30.7178 74.4276C28.3129 79.1677 23.5362 82.2599 18.3903 82.2599C17.3678 82.2599 16.3452 82.1416 15.3416 81.9048C7.82871 80.148 3.07101 72.273 4.74212 64.3554L14.8588 16.4096L14.8682 16.4143Z" fill="#B5B6B8"/>
<path opacity="0.61" d="M14.5509 16.0826C15.9049 9.65664 21.2117 4.93071 27.4559 4.58976C27.6926 4.57556 27.9435 4.5708 28.1944 4.5708C34.2019 4.5708 39.5135 8.61008 41.4213 14.6193L43.1919 20.2023L43.4617 20.4059L44.9577 15.68C45.0287 15.4574 45.4453 14.1837 45.5399 13.9753C47.533 8.52017 52.3996 4.83126 57.9478 4.58502C58.2366 4.57082 58.5254 4.56607 58.8189 4.5708C59.0603 4.57554 59.297 4.58978 59.5385 4.60398C65.6596 5.06332 70.8292 9.74186 72.1642 16.0683L82.2808 64.0142C83.0903 67.8404 82.4276 71.7754 80.425 75.0902C78.4226 78.405 75.317 80.7017 71.6813 81.5493C70.6871 81.7814 69.6693 81.8997 68.6468 81.8997C63.4961 81.8997 58.7148 78.8028 56.3193 74.0532C56.2767 73.9727 56.0495 73.5086 56.0116 73.4281C55.9738 73.5038 55.7513 73.9679 55.7134 74.0437C53.3085 78.869 48.5981 81.8997 43.3623 81.8997C38.1264 81.8997 33.4066 78.8643 31.0065 74.0342C30.9686 73.9632 30.7461 73.5038 30.7129 73.4281C30.6751 73.5086 30.4478 73.9727 30.4052 74.0532C28.0051 78.8028 23.2237 81.8997 18.0778 81.8997C17.06 81.8997 16.0327 81.7814 15.0338 81.5446C7.52564 79.7878 2.77267 71.9223 4.44378 64.0094L14.5604 16.0636L14.5509 16.0826Z" fill="#B1B2B4"/>
<path opacity="0.65" d="M14.2386 15.7461C15.5925 9.32493 20.8946 4.60374 27.1341 4.2628C27.3708 4.24859 27.6217 4.24384 27.8726 4.24384C33.8753 4.24384 39.1822 8.27836 41.0853 14.2828L42.8558 19.8706L43.1256 20.1311L44.6216 15.4052C44.6879 15.2016 45.1139 13.8898 45.1992 13.7004C47.1732 8.22628 52.0398 4.52798 57.5881 4.26754C57.8769 4.25333 58.1704 4.24858 58.4639 4.25332C58.7054 4.25332 58.9421 4.26755 59.1835 4.2865C65.3093 4.73636 70.4836 9.4149 71.8234 15.7461L81.94 63.6919C82.7448 67.5181 82.0868 71.4484 80.0843 74.7585C78.0818 78.0733 74.981 80.3652 71.3452 81.2129C70.3511 81.4449 69.3333 81.5633 68.3154 81.5633C63.1696 81.5633 58.3787 78.4616 55.9833 73.7025C55.9454 73.6315 55.7087 73.1532 55.6756 73.0774C55.6424 73.1484 55.4152 73.622 55.3773 73.693C52.9772 78.5279 48.2621 81.5633 43.0262 81.5633C37.7904 81.5633 33.0658 78.5278 30.6704 73.6883C30.6373 73.622 30.41 73.1484 30.3769 73.0821C30.339 73.1579 30.107 73.6362 30.0692 73.7072C27.6738 78.4663 22.8876 81.568 17.7417 81.568C16.7239 81.568 15.7014 81.4496 14.6978 81.2129C7.19431 79.456 2.44608 71.5953 4.11719 63.6919L14.2338 15.7461H14.2386Z" fill="#ADAEB0"/>
<path opacity="0.68" d="M13.926 15.415C15.28 8.99859 20.5773 4.28203 26.8121 3.94109C27.0488 3.92688 27.2997 3.92224 27.5506 3.92224C33.5486 3.92224 38.8507 7.95203 40.7538 13.9565L42.5243 19.549L42.7942 19.8615L44.2901 15.1309C44.3469 14.9462 44.7872 13.5918 44.8677 13.4213C46.8228 7.93303 51.6847 4.21574 57.2377 3.94583C57.5312 3.93162 57.8247 3.92698 58.123 3.92698C58.3644 3.92698 58.6011 3.9411 58.8426 3.96005C64.9731 4.40044 70.1569 9.07909 71.4966 15.4103L81.6133 63.3561C82.4181 67.1776 81.76 71.1032 79.7623 74.4179C77.7598 77.728 74.659 80.02 71.0327 80.8676C70.0433 81.0996 69.0207 81.218 68.0029 81.218C62.857 81.218 58.0614 78.1163 55.6708 73.343C55.6329 73.2767 55.3962 72.7842 55.363 72.7179C55.3299 72.7842 55.0979 73.2719 55.0648 73.3335C52.6694 78.1778 47.9495 81.218 42.7137 81.218C37.4779 81.218 32.7533 78.1778 30.3579 73.3288C30.3247 73.2672 30.0928 72.7794 30.0644 72.7179C30.0312 72.7842 29.7898 73.2767 29.7566 73.343C27.366 78.1115 22.5751 81.218 17.4292 81.218C16.4114 81.218 15.3888 81.0996 14.39 80.8628C6.89125 79.106 2.14775 71.2548 3.81413 63.3561L13.9308 15.4103L13.926 15.415Z" fill="#A9AAAC"/>
<path opacity="0.71" d="M13.609 15.079C14.9629 8.66724 20.2555 3.95555 26.4855 3.6146C26.7222 3.6004 26.9731 3.59564 27.224 3.59564C33.2173 3.59564 38.5195 7.62554 40.4178 13.6205L42.1931 19.2177L42.4629 19.5871L43.9636 14.8517C44.0157 14.6859 44.4654 13.2938 44.5364 13.1423C46.4774 7.63974 51.3298 3.90347 56.8828 3.61934C57.1763 3.60514 57.4745 3.59565 57.7728 3.60038C58.0142 3.60038 58.2509 3.61462 58.4924 3.63356C64.6277 4.05975 69.8209 8.74301 71.1559 15.079L81.2725 63.0248C82.0773 66.8415 81.4193 70.7672 79.4215 74.0772C77.4238 77.3873 74.323 79.6745 70.6967 80.5221C69.7073 80.7542 68.6895 80.8726 67.6716 80.8726C62.5257 80.8726 57.7254 77.7661 55.3395 72.9833C55.3063 72.9218 55.0602 72.4199 55.0318 72.3583C55.0034 72.4152 54.7619 72.917 54.7335 72.9738C52.3428 77.8276 47.623 80.8678 42.3824 80.8678C37.1419 80.8678 32.4173 77.8229 30.0266 72.9691C29.9982 72.9123 29.7568 72.4152 29.7284 72.3583C29.6999 72.4199 29.4538 72.9265 29.4206 72.9833C27.0347 77.7613 22.2344 80.8726 17.0932 80.8726C16.0754 80.8726 15.0528 80.7542 14.054 80.5174C6.55998 78.7653 1.82121 70.9139 3.48759 63.0248L13.6042 15.079H13.609Z" fill="#A5A6A8"/>
<path opacity="0.74" d="M13.2965 14.7472C14.6457 8.34017 19.9383 3.63322 26.1636 3.29228C26.4003 3.27807 26.6512 3.27332 26.9021 3.27332C32.8906 3.27332 38.188 7.29835 40.0864 13.2886L41.8616 18.8906L42.1315 19.3169L43.6322 14.5767C43.6795 14.4299 44.1387 12.9998 44.2002 12.8625C46.1223 7.34575 50.9746 3.59535 56.5277 3.29702C56.8259 3.27807 57.1242 3.27332 57.4271 3.27806C57.6686 3.27806 57.9053 3.29229 58.1467 3.3065C64.2868 3.72321 69.4847 8.40173 70.8245 14.7424L80.9411 62.6882C81.7459 66.505 81.0878 70.4259 79.0901 73.7312C77.0923 77.0365 73.9963 79.3237 70.3747 80.1714C69.3853 80.4034 68.3675 80.5218 67.3497 80.5218C62.2038 80.5218 57.3987 77.4106 55.0175 72.6183C54.9891 72.5662 54.7382 72.0454 54.7098 71.9933C54.6861 72.0454 54.4352 72.5615 54.4116 72.6136C52.0256 77.4768 47.301 80.5218 42.0605 80.5218C36.8199 80.5218 32.0906 77.4768 29.7046 72.6089C29.681 72.5615 29.43 72.0454 29.4064 71.9933C29.378 72.0502 29.1271 72.5662 29.0987 72.6183C26.7127 77.4058 21.9124 80.5218 16.7712 80.5218C15.7534 80.5218 14.7356 80.4034 13.7367 80.1666C6.25221 78.4145 1.51344 70.5727 3.17982 62.6835L13.2965 14.7377V14.7472Z" fill="#A1A2A4"/>
<path opacity="0.77" d="M12.984 14.4111C14.3332 8.00883 19.6211 3.30662 25.8416 2.96568C26.0783 2.95147 26.3292 2.94672 26.5754 2.94672C32.5592 2.94672 37.8519 6.96701 39.7502 12.9573L41.5255 18.564L41.7953 19.0423L43.296 14.2974C43.3386 14.1696 43.8073 12.7015 43.8641 12.5832C45.7719 7.05223 50.6148 3.28295 56.1726 2.97042C56.4708 2.95147 56.7738 2.94672 57.0768 2.94672C57.3182 2.94672 57.5549 2.96095 57.7964 2.97516C63.9411 3.3824 69.1486 8.06091 70.4883 14.4063L80.6049 62.3522C81.4097 66.1641 80.7517 70.0851 78.7587 73.3856C76.7609 76.6862 73.6696 78.9733 70.048 79.821C69.0586 80.053 68.0408 80.1715 67.0277 80.1715C61.8818 80.1715 57.0721 77.0555 54.6956 72.2538C54.6719 72.2065 54.4115 71.6762 54.3879 71.6288C54.3642 71.6762 54.1133 72.2065 54.0896 72.2491C51.7037 77.1218 46.9838 80.1715 41.7385 80.1715C36.4932 80.1715 31.7686 77.1218 29.3827 72.2443C29.359 72.2017 29.1081 71.6714 29.0844 71.6288C29.0608 71.6762 28.8051 72.2065 28.7767 72.2538C26.3955 77.0508 21.5905 80.1715 16.4446 80.1715C15.4268 80.1715 14.4089 80.053 13.4101 79.821C5.93028 78.0689 1.19624 70.2366 2.86262 62.3522L12.9793 14.4063L12.984 14.4111Z" fill="#9D9EA1"/>
<path opacity="0.81" d="M12.6716 14.0793C14.0208 7.68649 19.304 2.97945 25.515 2.64323C25.7517 2.62903 26.0026 2.62439 26.2488 2.62439C32.2279 2.62439 37.5158 6.64468 39.4142 12.6255L41.1894 18.237L41.4593 18.772L42.96 14.0271C42.9931 13.9182 43.476 12.4124 43.5233 12.3082C45.4122 6.7631 50.2551 2.97472 55.8081 2.65271C56.1111 2.63377 56.4141 2.62439 56.7218 2.62913C56.9632 2.62913 57.1999 2.63851 57.4414 2.65745C63.5909 3.05523 68.8078 7.73385 70.1475 14.0793L80.2642 62.0251C81.0689 65.8323 80.4109 69.7485 78.4179 73.0491C76.4248 76.3497 73.3335 78.632 69.7167 79.4797C68.7273 79.7117 67.7142 79.8301 66.6964 79.8301C61.5505 79.8301 56.736 76.7095 54.3642 71.903C54.3406 71.8652 54.0802 71.3159 54.0565 71.2781C54.0376 71.3159 53.7772 71.8604 53.7583 71.8983C51.3771 76.7805 46.6525 79.8301 41.4072 79.8301C36.1619 79.8301 31.4326 76.7805 29.0514 71.8936C29.0324 71.8557 28.7721 71.3159 28.7531 71.2781C28.7342 71.3207 28.4691 71.8652 28.4454 71.903C26.0689 76.7142 21.2591 79.8348 16.1132 79.8348C15.1002 79.8348 14.0776 79.7164 13.0835 79.4844C5.60842 77.7371 0.879117 69.9048 2.54076 62.0298L12.6574 14.084L12.6716 14.0793Z" fill="#999A9D"/>
<path opacity="0.84" d="M12.3543 13.7484C13.7035 7.36033 18.982 2.65803 25.1883 2.32182C25.425 2.30761 25.6759 2.30286 25.9221 2.30286C31.8964 2.30286 37.1796 6.31851 39.0732 12.2946L40.8532 17.9107L41.1278 18.4979L42.6332 13.7484C42.6616 13.6584 43.1587 12.1146 43.1966 12.0294C45.0665 6.47002 49.9047 2.66751 55.4625 2.3313C55.7654 2.31235 56.0732 2.30286 56.3809 2.3076C56.6223 2.3076 56.859 2.31709 57.1052 2.33604C63.2594 2.72434 68.4811 7.40295 69.8208 13.7531L79.9374 61.6989C80.7422 65.5062 80.0842 69.4176 78.0912 72.7135C76.0981 76.0093 73.0115 78.2917 69.3947 79.1393C68.4053 79.3713 67.3922 79.4897 66.3792 79.4897C61.2333 79.4897 56.414 76.3643 54.047 71.5484C54.028 71.5153 53.7582 70.9566 53.7393 70.9235C53.7251 70.9566 53.4552 71.5153 53.441 71.5437C51.0645 76.4354 46.34 79.4897 41.0899 79.4897C35.8399 79.4897 31.1106 76.4354 28.7341 71.539C28.7199 71.5106 28.4501 70.9519 28.4359 70.9187C28.4217 70.9519 28.1471 71.5106 28.1281 71.5437C25.7564 76.3643 20.9371 79.4897 15.796 79.4897C14.7829 79.4897 13.7651 79.3713 12.7662 79.1393C5.29589 77.3919 0.57132 69.5692 2.23297 61.6989L12.3496 13.7531L12.3543 13.7484Z" fill="#949699"/>
<path opacity="0.87" d="M12.042 13.4121C13.3912 7.02881 18.6649 2.33137 24.8665 1.99516C25.1032 1.98095 25.3541 1.9762 25.6003 1.9762C31.5699 1.9762 36.8483 5.99185 38.742 11.9632L40.522 17.584L40.7965 18.2281L42.302 13.4737C42.3256 13.398 42.8322 11.821 42.8606 11.75C44.7163 6.1717 49.5498 2.35506 55.1028 2.00464C55.4105 1.98569 55.7182 1.9762 56.0307 1.9762C56.2721 1.9762 56.5135 1.98569 56.755 1.9999C62.9139 2.37873 68.1451 7.05722 69.4848 13.4121L79.6014 61.3579C80.4015 65.1605 79.7482 69.0719 77.7599 72.3677C75.7669 75.6636 72.6803 77.9413 69.0682 78.7889C68.0788 79.021 67.0657 79.1394 66.0526 79.1394C60.9067 79.1394 56.0875 76.0092 53.7157 71.1839C53.7015 71.1555 53.4222 70.5873 53.4127 70.5589C53.3985 70.5826 53.1287 71.1555 53.1145 71.1839C50.7427 76.085 46.0134 79.1441 40.7634 79.1441C35.5134 79.1441 30.784 76.085 28.4076 71.1839C28.3934 71.1602 28.1235 70.5873 28.1093 70.5636C28.0951 70.592 27.8205 71.1649 27.8063 71.1886C25.4393 76.0187 20.6153 79.1488 15.4742 79.1488C14.4611 79.1488 13.4433 79.0304 12.4491 78.7984C4.98829 77.0511 0.263727 69.2329 1.92537 61.3722L12.042 13.4263V13.4121Z" fill="#909295"/>
<path opacity="0.9" d="M11.7295 13.0804C13.074 6.7018 18.3477 2.0091 24.5446 1.67289C24.7813 1.65868 25.0322 1.65393 25.2784 1.65393C31.2432 1.65393 36.517 5.66472 38.4106 11.6313L40.1906 17.257L40.4651 17.9578L41.9706 13.1988C41.9895 13.1419 42.5055 11.5225 42.5292 11.4704C44.366 5.87789 49.1947 2.04226 54.7525 1.68237C55.0602 1.66343 55.3726 1.65393 55.6851 1.65393C55.9265 1.65393 56.1679 1.66342 56.4094 1.67763C62.5778 2.04699 67.8089 6.72548 69.1534 13.0804L79.27 61.0262C80.0701 64.8287 79.4168 68.7307 77.4285 72.0265C75.4402 75.3176 72.3536 77.5953 68.7463 78.443C67.7616 78.675 66.7438 78.7934 65.7354 78.7934C60.5895 78.7934 55.7655 75.6585 53.3985 70.8237C53.3891 70.8047 53.105 70.2176 53.0955 70.1987C53.0861 70.2176 52.8068 70.8047 52.7973 70.8237C50.4255 75.7343 45.701 78.7934 40.4462 78.7934C35.1914 78.7934 30.4621 75.7344 28.0904 70.8191C28.0809 70.8001 27.8016 70.2176 27.7921 70.1987C27.7827 70.2176 27.4986 70.8047 27.4891 70.8237C25.1269 75.6633 20.2982 78.7934 15.157 78.7981C14.1439 78.7981 13.1261 78.6797 12.1319 78.4477C4.67583 76.7004 -0.043999 68.8917 1.61291 61.0357L11.7295 13.0899V13.0804Z" fill="#8C8E91"/>
<path opacity="0.94" d="M11.4124 12.7441C12.7568 6.37026 18.0211 1.68219 24.2179 1.34124C24.4546 1.32703 24.7055 1.32239 24.9517 1.32239C30.9119 1.32239 36.1856 5.32845 38.0745 11.295L39.8592 16.9255L40.1338 17.6783L41.6392 12.9146C41.6487 12.8767 42.1789 11.2193 42.1931 11.1861C44.0109 5.57943 48.8349 1.72955 54.3974 1.35072C54.7099 1.33178 55.0223 1.31766 55.3348 1.32239C55.5762 1.32239 55.8176 1.33177 56.0591 1.34598C62.2322 1.70113 67.4728 6.38447 68.8173 12.7441L78.9339 60.6899C79.734 64.4877 79.0807 68.3896 77.0924 71.6807C75.1041 74.9718 72.0222 77.2496 68.4149 78.0925C67.4302 78.3245 66.4171 78.4429 65.4041 78.4429C60.2582 78.4429 55.4294 75.3081 53.0672 70.4591C53.0577 70.4449 52.7689 69.8482 52.7642 69.834C52.7594 69.8482 52.4707 70.4449 52.4659 70.4591C50.0989 75.3792 45.3696 78.4429 40.1148 78.4429C34.8601 78.4429 30.126 75.3792 27.7637 70.4591C27.759 70.4449 27.4702 69.8482 27.4655 69.834C27.4608 69.8482 27.1672 70.4449 27.1625 70.4591C24.8002 75.3081 19.9715 78.4429 14.8304 78.4429C13.8173 78.4429 12.8042 78.3245 11.81 78.0925C4.35867 76.3499 -0.356434 68.5412 1.30048 60.6947L11.4171 12.7488L11.4124 12.7441Z" fill="#888A8D"/>
<path opacity="0.97" d="M11.0999 12.413C12.4444 6.04391 17.7039 1.36058 23.896 1.01963C24.1327 1.00543 24.3789 1.00067 24.6298 1.00067C30.5852 1.00067 35.8542 5.00683 37.7431 10.964L39.5278 16.5991L39.8024 17.4089L41.3126 12.645C41.3126 12.645 41.857 10.9309 41.8617 10.9119C43.6654 5.29102 48.4846 1.42215 54.0424 1.03385C54.3548 1.01017 54.672 1.00067 54.9892 1.00067C55.2306 1.00067 55.4721 1.01016 55.7135 1.01963C61.8914 1.36531 67.1415 6.04864 68.4812 12.4083L78.5978 60.3541C79.3979 64.1471 78.7446 68.0491 76.7563 71.3354C74.768 74.6218 71.6909 76.8995 68.0883 77.7424C67.1036 77.9745 66.0905 78.0928 65.0821 78.0928C59.9362 78.0928 55.1028 74.9533 52.7453 70.0948C52.7453 70.0901 52.447 69.4744 52.4423 69.4697C52.4423 69.4744 52.1488 70.0901 52.144 70.0948C49.7817 75.0244 45.0477 78.0928 39.7929 78.0928C34.5382 78.0928 29.8041 75.0244 27.4418 70.0948C27.4418 70.0901 27.1483 69.4744 27.1436 69.4697C27.1436 69.4744 26.8453 70.0901 26.8406 70.0948C24.4831 74.9533 19.6449 78.0928 14.5084 78.0928C13.4954 78.0928 12.4823 77.9745 11.4881 77.7424C4.0415 75.9998 -0.668869 68.2006 0.988043 60.3588L11.1047 12.413H11.0999Z" fill="#848689"/>
<path d="M14.177 77.7468C13.1687 77.7468 12.1508 77.6284 11.1614 77.3964C3.72426 75.6538 -0.986106 67.8641 0.670806 60.027L10.7874 12.0812C12.1319 5.71684 17.3867 1.03352 23.5741 0.697305C23.8108 0.683099 24.0569 0.678345 24.3078 0.678345C30.2585 0.678345 35.5228 4.67976 37.4069 10.6321L39.4662 17.1386L41.5255 10.6369C43.4144 4.67976 48.6834 0.678345 54.6388 0.678345C54.8802 0.678345 55.1217 0.683099 55.3631 0.697305C61.5458 1.03352 66.8005 5.7121 68.145 12.0812L78.2617 60.027C79.0617 63.8201 78.4084 67.7173 76.4248 70.9989C74.4413 74.2852 71.3642 76.5582 67.7616 77.4011C66.7769 77.6332 65.7638 77.7515 64.7554 77.7515C59.6143 77.7515 54.7714 74.6073 52.4185 69.7393L52.1156 69.1142L51.8173 69.7393C49.4598 74.6783 44.7257 77.7515 39.4662 77.7515C34.2067 77.7515 29.4727 74.6831 27.1151 69.7393L26.8169 69.1095L26.5139 69.7346C24.1611 74.6025 19.3182 77.7468 14.177 77.7468Z" fill="#808285"/>
</g>
<path d="M14.177 78.1018C13.1402 78.1018 12.1034 77.9786 11.0856 77.7419C3.46383 75.9566 -1.35542 67.9774 0.339366 59.9462L10.456 12.0004C11.8336 5.47977 17.2162 0.682885 23.5551 0.341937C23.7965 0.327731 24.0521 0.322977 24.3031 0.322977C30.3958 0.322977 35.7926 4.4191 37.724 10.5183L39.4662 16.0113L41.2036 10.5183C43.135 4.4191 48.5366 0.318237 54.6388 0.318237C54.8849 0.318237 55.1311 0.322991 55.382 0.337197C61.7161 0.682881 67.0987 5.47503 68.4763 11.9957L78.593 59.9415C79.412 63.8245 78.7445 67.8164 76.7088 71.1833C74.6732 74.5502 71.5251 76.8753 67.8372 77.7419C66.8289 77.9786 65.7921 78.097 64.7601 78.097C59.3728 78.097 54.4967 74.8011 52.1202 69.8905C49.739 74.8722 44.8819 78.097 39.4662 78.097C34.0504 78.097 29.1933 74.8722 26.8121 69.8905C24.4403 74.8011 19.5643 78.097 14.177 78.097V78.1018Z" fill="url(#paint0_linear_53_37611)"/>
<path d="M14.1769 76.6813C13.2396 76.6813 12.2975 76.5724 11.3791 76.3546C4.48633 74.7399 0.121549 67.5184 1.65538 60.2543L11.772 12.3085C13.0171 6.40818 17.8884 2.07055 23.6213 1.75801C23.8391 1.74381 24.071 1.73905 24.2983 1.73905C29.8134 1.73905 34.6895 5.44686 36.4411 10.9636L39.4614 20.5007L42.477 10.9636C44.2238 5.44212 49.1093 1.73431 54.6292 1.73431C54.8517 1.73431 55.0742 1.73907 55.3015 1.75327C61.0296 2.06581 65.9057 6.40344 67.1508 12.3037L77.2674 60.2496C78.8012 67.5136 74.4364 74.7398 67.5342 76.3499C66.6205 76.563 65.6832 76.6719 64.7459 76.6719C58.7905 76.6719 53.5309 72.2253 52.2385 66.1024L52.1581 65.719L51.6137 67.4426C49.8668 72.9641 44.9813 76.6719 39.4519 76.6719C33.9226 76.6719 29.0418 72.9641 27.2949 67.4473L26.7505 65.7237L26.67 66.1024C25.3776 72.23 20.1181 76.6719 14.1674 76.6719L14.1769 76.6813Z" fill="url(#paint1_linear_53_37611)"/>
<path d="M39.4662 30.3266C39.078 30.3266 38.7371 30.0756 38.6188 29.7062L37.975 27.6747C37.8282 27.2059 38.0838 26.7087 38.5525 26.5619C38.8839 26.4577 39.2342 26.5619 39.4615 26.7939C39.6887 26.5571 40.039 26.453 40.3704 26.5619C40.8391 26.7087 41.0994 27.2107 40.9479 27.6747L40.3041 29.7062C40.1858 30.0756 39.8449 30.3266 39.4567 30.3266H39.4662Z" fill="#0095DA"/>
<path d="M64.7553 74.5501C64.4523 74.5501 64.1541 74.5359 63.8558 74.5122C63.3682 74.4696 63.0037 74.0386 63.0463 73.5509C63.0889 73.0631 63.5245 72.7033 64.0073 72.7412C64.9352 72.8217 65.8867 72.7507 66.8052 72.5328C67.1555 72.4523 67.5011 72.3482 67.8372 72.2251C68.2964 72.0593 68.8076 72.296 68.9733 72.7554C69.139 73.2147 68.9023 73.7262 68.4431 73.8919C68.0407 74.0387 67.6289 74.1618 67.2123 74.2565C66.4075 74.4459 65.579 74.5406 64.7553 74.5406V74.5501ZM59.8793 73.2431C59.7325 73.2431 59.581 73.2053 59.439 73.1248C58.104 72.3624 56.911 71.3064 55.9879 70.061C55.6944 69.6679 55.7749 69.1091 56.1678 68.8202C56.5607 68.5266 57.1193 68.6072 57.4081 69.0002C58.1892 70.0468 59.1928 70.9417 60.3148 71.581C60.7409 71.8225 60.8876 72.3671 60.6462 72.7933C60.4805 73.0822 60.1822 73.2431 59.8745 73.2431H59.8793ZM71.7285 71.6804C71.4966 71.6804 71.2693 71.5904 71.0942 71.4152C70.7486 71.0648 70.7581 70.5013 71.1084 70.1604C72.0315 69.2559 72.7842 68.1383 73.2813 66.9261C73.4707 66.4715 73.9914 66.2584 74.4412 66.4431C74.8956 66.6277 75.1087 67.1487 74.924 67.6033C74.3275 69.0524 73.4612 70.3403 72.3534 71.4247C72.183 71.5952 71.9558 71.6804 71.7333 71.6804H71.7285ZM54.8991 66.5709C54.4967 66.5709 54.1369 66.2963 54.0375 65.8938C54.0138 65.7944 53.9901 65.695 53.9712 65.5955L53.1427 61.6794C53.0433 61.2011 53.3463 60.7276 53.8292 60.6281C54.312 60.5287 54.7807 60.8317 54.8801 61.3147L55.7086 65.2356C55.7275 65.3209 55.7417 65.4014 55.7654 65.4771C55.879 65.9554 55.5902 66.4337 55.1121 66.5473C55.0411 66.5663 54.9701 66.5709 54.9038 66.5709H54.8991ZM74.9146 63.9759C74.4269 63.9759 74.0293 63.583 74.0246 63.0952C74.0198 62.437 73.9488 61.7787 73.8115 61.1347L73.3713 59.0512C73.2718 58.5729 73.5748 58.0994 74.0577 57.9999C74.5406 57.9005 75.0092 58.2083 75.1087 58.6866L75.5489 60.7701C75.7099 61.5277 75.7951 62.3091 75.7998 63.081C75.7998 63.5735 75.4116 63.9712 74.9193 63.9759H74.9146ZM73.3571 55.5659C72.9452 55.5659 72.5759 55.277 72.4907 54.8603L71.6055 50.6696C71.506 50.1913 71.809 49.7178 72.2919 49.6183C72.7748 49.5189 73.2434 49.8267 73.3428 50.3049L74.2281 54.4957C74.3275 54.974 74.0246 55.4476 73.5417 55.547C73.4801 55.5613 73.4186 55.5659 73.3571 55.5659ZM71.5865 47.189C71.1747 47.189 70.8054 46.9002 70.7202 46.4834L69.8349 42.2926C69.7355 41.8143 70.0385 41.3408 70.5214 41.2413C71.0042 41.1419 71.4729 41.4498 71.5723 41.9281L72.4576 46.1188C72.557 46.5971 72.254 47.0706 71.7712 47.1701C71.7096 47.1843 71.6481 47.189 71.5865 47.189ZM69.816 38.8074C69.4041 38.8074 69.0349 38.5185 68.9497 38.1018L68.0644 33.911C67.965 33.4327 68.268 32.9592 68.7508 32.8597C69.2337 32.7603 69.7024 33.0681 69.8018 33.5463L70.6871 37.7372C70.7865 38.2155 70.4835 38.689 70.0006 38.7884C69.9391 38.8026 69.8775 38.8074 69.816 38.8074ZM68.0455 30.4305C67.6336 30.4305 67.2644 30.1417 67.1791 29.725L66.2939 25.5341C66.1945 25.0558 66.4974 24.5823 66.9803 24.4828C67.4632 24.3834 67.9319 24.6912 68.0313 25.1695L68.9165 29.3603C69.0159 29.8386 68.713 30.3121 68.2301 30.4116C68.1686 30.4258 68.107 30.4305 68.0455 30.4305ZM41.3929 24.2129C41.3029 24.2129 41.213 24.1988 41.123 24.1704C40.6543 24.0236 40.3987 23.5216 40.5455 23.0575L41.8378 18.9755C41.9846 18.5067 42.4864 18.251 42.9504 18.3978C43.419 18.5446 43.6794 19.0466 43.5279 19.5107L42.2355 23.5925C42.1172 23.9714 41.7668 24.2129 41.3881 24.2129H41.3929ZM66.2797 22.0488C65.8678 22.0488 65.4986 21.7599 65.4133 21.3432L64.5281 17.1525C64.4287 16.6742 64.7316 16.2007 65.2145 16.1012C65.6974 16.0018 66.1661 16.3096 66.2655 16.7878L67.1507 20.9787C67.2502 21.457 66.9472 21.9305 66.4643 22.0299C66.4028 22.0442 66.3412 22.0488 66.2797 22.0488ZM43.9776 16.0443C43.8877 16.0443 43.7977 16.0302 43.7078 16.0018C43.2391 15.855 42.9835 15.353 43.1302 14.8889L44.1386 11.7115C44.2427 11.38 44.3611 11.0627 44.4936 10.7455C44.683 10.2909 45.199 10.0778 45.6535 10.2672C46.108 10.4566 46.321 10.9775 46.1316 11.4273C46.0227 11.6925 45.9233 11.9672 45.8334 12.2466L44.825 15.424C44.7067 15.8028 44.3564 16.0443 43.9776 16.0443ZM64.5091 13.6672C64.1068 13.6672 63.7422 13.3925 63.6428 12.9806C63.3446 11.6925 62.7954 10.4992 62.019 9.44324C61.7303 9.05021 61.8107 8.49137 62.2084 8.20252C62.6013 7.91366 63.1599 7.99423 63.4487 8.392C64.3719 9.64688 65.0157 11.0532 65.3755 12.578C65.4844 13.0563 65.1908 13.5346 64.7127 13.6435C64.6464 13.6577 64.5754 13.6672 64.5091 13.6672ZM47.7033 8.45825C47.4714 8.45825 47.2394 8.36836 47.0642 8.18841C46.7234 7.83326 46.7328 7.27441 47.0879 6.93346C48.2241 5.83959 49.5449 5.01568 51.0171 4.49479C51.4763 4.32905 51.9876 4.5705 52.1486 5.03457C52.3143 5.49864 52.0728 6.00539 51.6089 6.17113C50.378 6.60679 49.275 7.29807 48.3187 8.21674C48.1483 8.38247 47.9258 8.46773 47.7033 8.46773V8.45825ZM59.5715 6.96664C59.4201 6.96664 59.2686 6.92876 59.1313 6.84826C57.9856 6.19004 56.7453 5.79702 55.4482 5.67863C54.9606 5.63601 54.6008 5.20507 54.6434 4.71259C54.686 4.22485 55.1168 3.86498 55.6092 3.9076C57.1667 4.04966 58.6531 4.51844 60.0213 5.30452C60.4473 5.55076 60.5941 6.09062 60.3479 6.51681C60.1822 6.80093 59.884 6.9619 59.5763 6.9619L59.5715 6.96664Z" fill="#0095DA"/>
<path d="M53.1191 58.1562C52.9061 58.1562 52.7025 58.0757 52.5416 57.9431C52.3238 58.0947 52.0398 58.1467 51.7699 58.0615C51.3013 57.9147 51.0409 57.4128 51.1924 56.9488L51.8362 54.9173C51.9593 54.5337 52.338 54.2827 52.7262 54.2969C53.1286 54.3158 53.4695 54.6047 53.5499 55.0025L53.9902 57.0861C54.0896 57.5644 53.7866 58.0379 53.3038 58.1374C53.2422 58.1516 53.1807 58.1562 53.1191 58.1562Z" fill="#0095DA"/>
<path d="M39.4661 74.5456C38.7228 74.5456 37.9843 74.4698 37.26 74.3183C36.7819 74.2189 36.4742 73.7501 36.5736 73.2671C36.673 72.7888 37.1417 72.4763 37.6245 72.5805C38.8365 72.8314 40.1147 72.8314 41.336 72.5757C41.8189 72.4763 42.2876 72.7841 42.387 73.2623C42.4864 73.7406 42.1834 74.2141 41.7006 74.3136C40.9668 74.4698 40.2188 74.5456 39.4661 74.5456ZM33.7095 72.7083C33.5296 72.7083 33.3544 72.6562 33.1982 72.5473C31.9816 71.6854 30.9638 70.601 30.1684 69.3177C29.9081 68.901 30.0359 68.3518 30.4525 68.0961C30.8691 67.8356 31.4135 67.9634 31.6739 68.3801C32.3414 69.4598 33.203 70.369 34.2208 71.0935C34.6232 71.3776 34.7131 71.9317 34.4338 72.3295C34.2634 72.5757 33.9888 72.7036 33.7095 72.7036V72.7083ZM45.2416 72.6941C44.9623 72.6941 44.6925 72.5662 44.5173 72.32C44.2333 71.9222 44.3279 71.3681 44.7256 71.0793C45.7434 70.3547 46.6003 69.4361 47.2678 68.3564C47.5234 67.9397 48.0726 67.8119 48.4892 68.0676C48.9058 68.3233 49.0336 68.8726 48.7779 69.2893C47.9874 70.5726 46.9695 71.6617 45.7576 72.5236C45.6014 72.6372 45.4215 72.6894 45.2416 72.6894V72.6941ZM29.3779 65.9509C28.9991 65.9509 28.6488 65.7094 28.5305 65.3306L27.2902 61.4191C27.1434 60.9503 27.399 60.453 27.8677 60.3063C28.3316 60.1595 28.8334 60.4152 28.9802 60.884L30.2205 64.7954C30.3673 65.2642 30.1116 65.7615 29.643 65.9083C29.553 65.9367 29.4631 65.9509 29.3731 65.9509H29.3779ZM49.5591 65.9272C49.4691 65.9272 49.3792 65.913 49.2892 65.8846C48.8205 65.7378 48.5602 65.2359 48.7117 64.7718L49.952 60.8604C50.0987 60.3916 50.6005 60.1311 51.0645 60.2827C51.5331 60.4295 51.7935 60.9313 51.642 61.3954L50.4017 65.3069C50.2834 65.6857 49.933 65.9272 49.5543 65.9272H49.5591Z" fill="#0095DA"/>
<path d="M25.8084 58.1562C25.7469 58.1562 25.6853 58.1516 25.6238 58.1374C25.1457 58.0379 24.8379 57.5644 24.9374 57.0861L25.3776 55.0025C25.4628 54.6094 25.799 54.3206 26.2013 54.2969C26.5848 54.2827 26.9683 54.529 27.0913 54.9173L27.7352 56.9488C27.8819 57.4176 27.6263 57.9147 27.1576 58.0615C26.8878 58.1468 26.6037 58.0947 26.386 57.9431C26.2298 58.0757 26.0262 58.1562 25.8084 58.1562Z" fill="#0095DA"/>
<path d="M14.1769 74.5505C13.3484 74.5505 12.5199 74.4557 11.7104 74.2663C11.308 74.1716 10.9104 74.0532 10.5222 73.9159C10.0583 73.7502 9.82155 73.2435 9.98724 72.7794C10.1529 72.3201 10.6642 72.0786 11.1234 72.2443C11.4453 72.3579 11.7814 72.4574 12.1176 72.5379C13.0502 72.7558 14.0206 72.8268 14.958 72.7415C15.4503 72.6942 15.8764 73.0588 15.919 73.5465C15.9616 74.0343 15.6018 74.4652 15.1142 74.5078C14.8065 74.5362 14.4893 74.5505 14.1769 74.5505ZM19.0861 73.2245C18.7783 73.2245 18.4801 73.0636 18.3144 72.7794C18.0682 72.3533 18.215 71.8134 18.6411 71.5672C19.7583 70.9231 20.7619 70.0282 21.5383 68.9769C21.8318 68.5839 22.3857 68.4987 22.7786 68.7923C23.1715 69.0859 23.2567 69.6399 22.9632 70.0329C22.0448 71.2783 20.8519 72.3438 19.5216 73.1062C19.3843 73.1867 19.2281 73.2245 19.0813 73.2245H19.0861ZM7.2273 71.7093C7.0048 71.7093 6.7823 71.624 6.60714 71.4583C5.49464 70.3739 4.62358 69.0905 4.02236 67.6415C3.833 67.1869 4.04603 66.6708 4.50049 66.4814C4.95023 66.2919 5.47097 66.505 5.66033 66.9596C6.16214 68.1672 6.91959 69.2847 7.84746 70.1845C8.19778 70.5254 8.20724 71.0889 7.86639 71.4393C7.69123 71.6192 7.45927 71.7093 7.23203 71.7093H7.2273ZM24.0379 66.5335C23.9716 66.5335 23.9006 66.524 23.8343 66.5098C23.3562 66.3962 23.0626 65.9179 23.1715 65.4443L23.2189 65.2313L24.0521 61.2772C24.1515 60.7989 24.6201 60.4911 25.103 60.5906C25.5812 60.69 25.8889 61.1635 25.7894 61.6418L24.8995 65.8515C24.8048 66.2588 24.4403 66.5382 24.0379 66.5382V66.5335ZM4.01289 64.0142C3.52055 64.0142 3.12762 63.6118 3.12762 63.124C3.12762 62.338 3.21284 61.5471 3.37853 60.7705L3.80933 58.7248C3.90874 58.2466 4.37741 57.9387 4.86028 58.0381C5.33842 58.1376 5.64613 58.6112 5.54672 59.0895L5.11592 61.1351C4.97863 61.7933 4.90762 62.4657 4.90289 63.1287C4.90289 63.6164 4.50523 64.0142 4.01762 64.0142H4.01289ZM5.56092 55.6042C5.49938 55.6042 5.43783 55.5994 5.37629 55.5852C4.89815 55.4858 4.59044 55.0123 4.68986 54.534L5.57512 50.3431C5.67454 49.8648 6.1432 49.5571 6.62608 49.6565C7.10421 49.756 7.41193 50.2295 7.31251 50.7077L6.42725 54.8986C6.3373 55.3153 5.96805 55.6042 5.56092 55.6042ZM7.33145 47.2226C7.26991 47.2226 7.20836 47.2178 7.14682 47.2036C6.66868 47.1042 6.36097 46.6306 6.46039 46.1524L7.34565 41.9615C7.44506 41.4832 7.91373 41.1754 8.39661 41.2749C8.87474 41.3743 9.18246 41.8479 9.08304 42.3261L8.19778 46.517C8.10783 46.9337 7.73857 47.2226 7.33145 47.2226ZM9.10198 38.841C9.04043 38.841 8.97889 38.8362 8.91735 38.822C8.43921 38.7225 8.1315 38.249 8.23091 37.7707L9.11618 33.5799C9.21559 33.1016 9.68426 32.7938 10.1671 32.8933C10.6453 32.9927 10.953 33.4662 10.8536 33.9445L9.9683 38.1354C9.87836 38.5521 9.5091 38.841 9.10198 38.841ZM10.8725 30.4592C10.811 30.4592 10.7494 30.4546 10.6879 30.4404C10.2097 30.3409 9.90203 29.8673 10.0014 29.389L10.8867 25.1983C10.9861 24.72 11.4548 24.4122 11.9377 24.5117C12.4158 24.6111 12.7235 25.0846 12.6241 25.5629L11.7388 29.7536C11.6489 30.1704 11.2796 30.4592 10.8725 30.4592ZM37.5251 24.1707C37.1464 24.1707 36.7961 23.9292 36.6777 23.5504L35.3853 19.4684C35.2386 18.9996 35.4942 18.5024 35.9629 18.3556C36.4268 18.2088 36.9286 18.4645 37.0754 18.9334L38.3678 23.0152C38.5145 23.484 38.2589 23.9813 37.7902 24.1281C37.7003 24.1565 37.6103 24.1707 37.5204 24.1707H37.5251ZM12.643 22.0823C12.5815 22.0823 12.5199 22.0776 12.4584 22.0634C11.9803 21.9639 11.6726 21.4904 11.772 21.0121L12.6572 16.8214C12.7567 16.3431 13.2253 16.0352 13.7082 16.1347C14.1863 16.2341 14.494 16.7077 14.3946 17.186L13.5094 21.3768C13.4194 21.7935 13.0502 22.0823 12.643 22.0823ZM34.9403 16.0069C34.5616 16.0069 34.216 15.7654 34.0929 15.3865L33.0988 12.2422C33.0089 11.9533 32.9047 11.6692 32.7864 11.3945C32.597 10.9447 32.81 10.4238 33.2598 10.2344C33.7142 10.045 34.2302 10.2581 34.4243 10.7079C34.5616 11.0347 34.6847 11.3709 34.7936 11.7119L35.7877 14.8514C35.9345 15.3202 35.6788 15.8175 35.2102 15.9643C35.1202 15.9927 35.0303 16.0069 34.9403 16.0069ZM14.4136 13.7007C14.3473 13.7007 14.281 13.6912 14.2147 13.677C13.7366 13.5681 13.4384 13.0898 13.5472 12.6116C13.8976 11.0868 14.5414 9.67568 15.4598 8.41607C15.7486 8.0183 16.3024 7.93298 16.7001 8.22184C17.0978 8.5107 17.183 9.0648 16.8942 9.46257C16.1178 10.5233 15.5781 11.7166 15.2799 13.0094C15.1852 13.4214 14.8207 13.7007 14.4136 13.7007ZM31.2052 8.43029C30.9827 8.43029 30.7649 8.34978 30.5898 8.18404C29.6335 7.26537 28.521 6.58345 27.2949 6.1478C26.8309 5.98679 26.5895 5.48004 26.7505 5.01597C26.9114 4.55191 27.418 4.31045 27.8819 4.47145C29.3542 4.98761 30.675 5.80678 31.8159 6.90065C32.1709 7.2416 32.1804 7.80044 31.8443 8.1556C31.6691 8.33554 31.4372 8.43029 31.2052 8.43029ZM19.3322 6.98123C19.0245 6.98123 18.7263 6.82488 18.5653 6.54076C18.3191 6.11457 18.4612 5.57482 18.8872 5.32858C20.2554 4.53777 21.7371 4.0595 23.2946 3.91271C23.7822 3.87009 24.213 4.22522 24.2604 4.71296C24.3077 5.20071 23.9479 5.63638 23.4603 5.679C22.1632 5.80212 20.9229 6.19989 19.782 6.86285C19.6399 6.94335 19.4884 6.98123 19.337 6.98123H19.3322Z" fill="#0095DA"/>
<path d="M64.7553 69.5784C61.9717 69.5784 59.4627 67.5517 58.833 64.5731L53.4694 39.1583L45.2227 65.2077C44.3942 67.8169 42.0745 69.5784 39.4614 69.5784C36.8482 69.5784 34.5285 67.8169 33.7 65.2077L25.4534 39.1583L20.0897 64.5731C19.3606 68.0205 16.1178 70.194 12.8466 69.4269C9.5754 68.6598 7.51136 65.2456 8.23566 61.7982L18.3523 13.8524C18.9441 11.0491 21.2401 9.00336 23.9669 8.85656C26.7173 8.70029 29.1743 10.495 30.0406 13.2178L39.4566 42.9703L48.8726 13.2178C49.7342 10.4903 52.2148 8.70503 54.9464 8.85656C57.6685 9.00336 59.9692 11.0491 60.561 13.8524L70.6776 61.7982C71.4066 65.2456 69.3426 68.6598 66.0666 69.4269C65.6216 69.5311 65.1814 69.5832 64.7458 69.5832L64.7553 69.5784Z" fill="url(#paint2_linear_53_37611)"/>
<defs>
<linearGradient id="paint0_linear_53_37611" x1="-0.0014842" y1="39.21" x2="78.9338" y2="39.21" gradientUnits="userSpaceOnUse">
<stop stop-color="#F1F2F2"/>
<stop offset="1" stop-color="#D1D3D4"/>
</linearGradient>
<linearGradient id="paint1_linear_53_37611" x1="1.34766" y1="39.2102" x2="77.5798" y2="39.2102" gradientUnits="userSpaceOnUse">
<stop stop-color="#D1D3D4"/>
<stop offset="1" stop-color="#F1F2F2"/>
</linearGradient>
<linearGradient id="paint2_linear_53_37611" x1="8.09364" y1="39.2104" x2="70.8338" y2="39.2104" gradientUnits="userSpaceOnUse">
<stop stop-color="#00AEEE"/>
<stop offset="0.23" stop-color="#009FE2"/>
<stop offset="0.52" stop-color="#0097DC"/>
<stop offset="1" stop-color="#0095DA"/>
</linearGradient>
</defs>
</svg>
