<svg width="75" height="90" viewBox="0 0 75 90" fill="none" xmlns="http://www.w3.org/2000/svg">
<g style="mix-blend-mode:multiply">
<path opacity="0.03" d="M59.9092 88.8028C55.5113 88.8028 51.4353 86.7051 48.7369 83.0494L38.6486 69.3925V73.8958C38.6486 82.1164 32.3003 88.8028 24.4939 88.8028C16.6875 88.8028 10.3391 82.1164 10.3391 73.8958V25.95C10.3391 19.5856 14.1831 13.9174 19.9019 11.8527C21.3836 11.3176 22.9316 11.0477 24.4939 11.0477C28.8965 11.0477 32.9678 13.1455 35.6709 16.8012L45.7592 30.4581V25.9547C45.7592 17.7341 52.1075 11.0477 59.9139 11.0477C67.7204 11.0477 74.0687 17.7341 74.0687 25.9547V73.9006C74.0687 80.2697 70.2247 85.9332 64.5059 87.9978C63.0242 88.5329 61.4809 88.8028 59.9139 88.8028H59.9092Z" fill="#FBFBFB"/>
<path opacity="0.06" d="M59.5873 88.4518C55.1893 88.4518 51.1228 86.354 48.4197 82.703L38.3125 69.0225V73.5591C38.3125 81.7702 31.9689 88.4518 24.1672 88.4518C16.3655 88.4518 10.0219 81.7702 10.0219 73.5591V25.6132C10.0219 19.2536 13.8612 13.5901 19.5752 11.5254C21.0569 10.9903 22.6002 10.7203 24.1625 10.7203C28.5604 10.7203 32.6317 12.8182 35.3301 16.4692L45.4372 30.1497V25.6132C45.4372 17.4021 51.7808 10.7203 59.5825 10.7203C67.3842 10.7203 73.7278 17.4021 73.7278 25.6132V73.5591C73.7278 79.9187 69.8885 85.5822 64.1745 87.6468C62.6928 88.1819 61.1495 88.4518 59.5873 88.4518Z" fill="#F7F7F7"/>
<path opacity="0.1" d="M59.2608 88.1063C54.8676 88.1063 50.8011 86.0132 48.1027 82.3622L37.9766 68.6533V73.223C37.9766 81.4294 31.6377 88.1063 23.8407 88.1063C16.0438 88.1063 9.7049 81.4294 9.7049 73.223V25.2772C9.7049 18.9223 13.5395 13.2634 19.2534 11.1987C20.7352 10.6636 22.2785 10.3937 23.8407 10.3937C28.2339 10.3937 32.3004 12.4868 34.9988 16.1378L45.1249 29.8468V25.2772C45.1249 17.0707 51.4638 10.3937 59.2608 10.3937C67.0577 10.3937 73.3966 17.0707 73.3966 25.2772V73.223C73.3966 79.5779 69.562 85.2366 63.8481 87.3013C62.371 87.8364 60.8277 88.1063 59.2608 88.1063Z" fill="#F3F3F3"/>
<path opacity="0.13" d="M58.9387 87.761C54.5503 87.761 50.4885 85.6679 47.7901 82.0216L37.645 68.2843V72.887C37.645 81.0887 31.3109 87.7562 23.5234 87.7562C15.7359 87.7562 9.40179 81.084 9.40179 72.887V24.9412C9.40179 18.5911 13.2364 12.937 18.9409 10.8771C20.4226 10.342 21.9612 10.0721 23.5234 10.0721C27.9119 10.0721 31.9784 12.1651 34.6721 15.8114L44.8171 29.5487V24.946C44.8171 16.7443 51.1512 10.0769 58.9387 10.0769C66.7262 10.0769 73.0604 16.749 73.0604 24.946V72.8918C73.0604 79.2419 69.2258 84.8961 63.5213 86.956C62.0443 87.4911 60.501 87.761 58.9387 87.761Z" fill="#EFEFEF"/>
<path opacity="0.16" d="M58.6122 87.4099C54.2285 87.4099 50.1667 85.3216 47.473 81.6753L37.309 67.9143V72.5502C37.309 80.7425 30.9796 87.4099 23.1969 87.4099C15.4141 87.4099 9.08472 80.7425 9.08472 72.5502V24.6044C9.08472 18.259 12.9146 12.6097 18.6191 10.5498C20.0961 10.0147 21.6394 9.74481 23.1969 9.74481C27.5853 9.74481 31.6471 11.8331 34.3361 15.4793L44.5 29.2404V24.6044C44.5 16.4122 50.8294 9.74481 58.6122 9.74481C66.395 9.74481 72.7244 16.4122 72.7244 24.6044V72.5502C72.7244 78.8957 68.8945 84.5449 63.19 86.6048C61.713 87.1399 60.1744 87.4099 58.6122 87.4099Z" fill="#EBEBEB"/>
<path opacity="0.19" d="M58.2902 87.0644C53.9065 87.0644 49.8494 84.9761 47.1605 81.3346L36.9776 67.5451V72.2142C36.9776 80.4017 30.6529 87.0597 22.8749 87.0597C15.0969 87.0597 8.77222 80.397 8.77222 72.2142V24.2684C8.77222 17.9277 12.6021 12.2832 18.2971 10.2233C19.7741 9.68816 21.3127 9.41815 22.8702 9.41815C27.2539 9.41815 31.311 11.5065 33.9999 15.148L44.1828 28.9375V24.2684C44.1828 16.0809 50.5075 9.42289 58.2855 9.42289C66.0635 9.42289 72.3882 16.0856 72.3882 24.2684V72.2142C72.3882 78.5549 68.5583 84.1994 62.8633 86.2593C61.3863 86.7944 59.8477 87.0644 58.2902 87.0644Z" fill="#E6E7E7"/>
<path opacity="0.23" d="M57.9636 86.7141C53.5846 86.7141 49.5322 84.6258 46.8386 80.989L36.632 67.1759V71.8829C36.632 80.0656 30.3121 86.7189 22.5435 86.7189C14.775 86.7189 8.45502 80.0656 8.45502 71.8829V23.937C8.45502 17.6011 12.2801 11.9612 17.9704 9.90129C19.4474 9.36619 20.986 9.09629 22.5435 9.09629C26.9225 9.09629 30.9796 11.1846 33.6685 14.8214L43.8751 28.6345V23.9276C43.8751 15.7448 50.195 9.09155 57.9636 9.09155C65.7321 9.09155 72.052 15.7448 72.052 23.9276V71.8734C72.052 78.2093 68.2269 83.8491 62.5366 85.9043C61.0644 86.4394 59.5258 86.7094 57.9636 86.7094V86.7141Z" fill="#E2E3E3"/>
<path opacity="0.26" d="M57.6369 86.3683C53.2626 86.3683 49.2103 84.2848 46.5214 80.6433L36.2959 66.8018V71.5419C36.2959 79.7152 29.9807 86.3683 22.2168 86.3683C14.453 86.3683 8.13782 79.7199 8.13782 71.5419V23.5961C8.13782 17.2649 11.9582 11.6297 17.6485 9.57455C19.1255 9.04418 20.6593 8.77429 22.2168 8.77429C26.5958 8.77429 30.6434 10.8579 33.3324 14.4994L43.5579 28.341V23.6008C43.5579 15.4275 49.8731 8.77429 57.6369 8.77429C65.4007 8.77429 71.7159 15.4228 71.7159 23.6008V71.5466C71.7159 77.8779 67.8955 83.5129 62.2052 85.5681C60.733 86.0984 59.1944 86.3731 57.6369 86.3731V86.3683Z" fill="#DEDFE0"/>
<path opacity="0.29" d="M57.315 86.0224C52.9408 86.0224 48.8932 83.9389 46.209 80.3021L35.9645 66.4369V71.2102C35.9645 79.3787 29.6541 86.0224 21.895 86.0224C14.1359 86.0224 7.82544 79.3787 7.82544 71.2102V23.2643C7.82544 16.9379 11.6458 11.3074 17.3266 9.25228C18.7989 8.72192 20.3375 8.45203 21.8903 8.45203C26.2645 8.45203 30.3121 10.5355 32.9963 14.1723L43.2408 28.0375V23.2643C43.2408 15.0958 49.5512 8.45203 57.3103 8.45203C65.0694 8.45203 71.3799 15.0958 71.3799 23.2643V71.2102C71.3799 77.5366 67.5595 83.1669 61.8787 85.2221C60.4064 85.7525 58.8725 86.0224 57.315 86.0224Z" fill="#DADBDC"/>
<path opacity="0.32" d="M56.9884 85.6725C52.6189 85.6725 48.576 83.589 45.8918 79.957L35.6284 66.0633V70.8697C35.6284 79.0335 29.3227 85.6725 21.5683 85.6725C13.814 85.6725 7.50824 79.0335 7.50824 70.8697V22.9239C7.50824 16.6021 11.3239 10.9766 17.0047 8.9214C18.477 8.39104 20.0108 8.12103 21.5636 8.12103C25.9331 8.12103 29.9807 10.2046 32.6602 13.8367L42.9236 27.7304V22.9239C42.9236 14.7601 49.2293 8.12103 56.9836 8.12103C64.738 8.12103 71.0437 14.7601 71.0437 22.9239V70.8697C71.0437 77.1914 67.2281 82.8171 61.5473 84.8723C60.075 85.4026 58.5411 85.6725 56.9884 85.6725Z" fill="#D6D7D8"/>
<path opacity="0.35" d="M56.6665 85.3269C52.3017 85.3269 48.2589 83.2481 45.5794 79.6161L35.2971 65.6987V70.5383C35.2971 78.6926 28.9961 85.3269 21.2512 85.3269C13.5063 85.3269 7.20532 78.6926 7.20532 70.5383V22.5924C7.20532 16.2754 11.0162 10.6545 16.6923 8.60409C18.1646 8.07372 19.6984 7.80383 21.2512 7.80383C25.616 7.80383 29.6588 9.8827 32.3383 13.5147L42.6206 27.432V22.5924C42.6206 14.4381 48.9216 7.80383 56.6665 7.80383C64.4114 7.80383 70.7124 14.4381 70.7124 22.5924V70.5383C70.7124 76.8553 66.9015 82.4762 61.2254 84.5266C59.7578 85.057 58.224 85.3269 56.6665 85.3269Z" fill="#D2D3D4"/>
<path opacity="0.39" d="M56.3399 84.9762C51.9798 84.9762 47.9369 82.8973 45.2622 79.27L34.961 65.3243V70.1971C34.961 78.3467 28.6647 84.9762 20.9245 84.9762C13.1844 84.9762 6.88812 78.3467 6.88812 70.1971V22.2512C6.88812 15.939 10.699 10.318 16.3704 8.27236C17.8427 7.742 19.3718 7.47211 20.9245 7.47211C25.2893 7.47211 29.3274 9.55097 32.0069 13.1783L42.3082 27.124V22.2512C42.3082 14.1016 48.6044 7.47211 56.3446 7.47211C64.0847 7.47211 70.381 14.1016 70.381 22.2512V70.1971C70.381 76.5093 66.5701 82.1255 60.8987 84.1759C59.4312 84.7063 57.8974 84.9762 56.3446 84.9762H56.3399Z" fill="#CECFD0"/>
<path opacity="0.42" d="M56.0179 84.6306C51.6578 84.6306 47.6244 82.5518 44.945 78.9292L34.6248 64.9551V69.861C34.6248 78.0059 28.3332 84.6306 20.5978 84.6306C12.8624 84.6306 6.57086 78.0059 6.57086 69.861V21.9152C6.57086 15.6076 10.377 9.99145 16.0437 7.94576C17.516 7.4154 19.045 7.14551 20.5931 7.14551C24.9531 7.14551 28.9913 9.22436 31.666 12.8469L41.9862 26.821V21.9152C41.9862 13.7703 48.2777 7.14551 56.0131 7.14551C63.7485 7.14551 70.0401 13.7703 70.0401 21.9152V69.861C70.0401 76.1685 66.2339 81.78 60.5673 83.8304C59.0997 84.3607 57.5706 84.6306 56.0179 84.6306Z" fill="#CACBCC"/>
<path opacity="0.45" d="M55.6911 84.2847C51.3358 84.2847 47.3024 82.2106 44.6277 78.588L34.2885 64.5902V69.5293C34.2885 77.6647 28.0018 84.2847 20.2758 84.2847C12.5499 84.2847 6.26306 77.6647 6.26306 69.5293V21.5835C6.26306 15.2807 10.0692 9.66924 15.7311 7.62355C17.1987 7.09319 18.7278 6.82318 20.2758 6.82318C24.6311 6.82318 28.6645 8.8973 31.3392 12.5199L41.6784 26.5177V21.5787C41.6784 13.4433 47.9652 6.82318 55.6911 6.82318C63.4171 6.82318 69.7039 13.4433 69.7039 21.5787V69.5246C69.7039 75.8274 65.8977 81.4388 60.2358 83.4797C58.7682 84.0101 57.2391 84.28 55.6911 84.28V84.2847Z" fill="#C6C7C8"/>
<path opacity="0.48" d="M55.3693 83.9344C51.0188 83.9344 46.9901 81.8603 44.3154 78.2425L33.9573 64.2163V69.1885C33.9573 77.3191 27.6752 83.9344 19.954 83.9344C12.2328 83.9344 5.95074 77.3191 5.95074 69.1885V21.2427C5.95074 14.9446 9.75217 9.33779 15.4093 7.29684C16.8769 6.76647 18.406 6.49658 19.954 6.49658C24.3093 6.49658 28.338 8.57069 31.008 12.1885L41.3661 26.2148V21.2427C41.3661 13.112 47.6481 6.49658 55.3693 6.49658C63.0905 6.49658 69.3726 13.112 69.3726 21.2427V69.1885C69.3726 75.4865 65.5712 81.0932 59.914 83.1342C58.4465 83.6645 56.9221 83.9344 55.3693 83.9344Z" fill="#C2C3C4"/>
<path opacity="0.52" d="M55.0427 83.5887C50.6921 83.5887 46.6682 81.5146 43.9982 77.9015L33.6165 63.8517V68.8569C33.6165 76.9828 27.3391 83.5887 19.6227 83.5887C11.9062 83.5887 5.62885 76.9781 5.62885 68.8569V20.9111C5.62885 14.6177 9.42554 9.01579 15.078 6.97483C16.5455 6.44447 18.0699 6.17932 19.6179 6.17932C23.9685 6.17932 27.9924 8.25343 30.6624 11.8665L41.0442 25.9164V20.9111C41.0442 12.7851 47.3215 6.17932 55.038 6.17932C62.7545 6.17932 69.0318 12.7899 69.0318 20.9111V68.8569C69.0318 75.1502 65.2351 80.7523 59.5826 82.7932C58.1198 83.3236 56.5907 83.5935 55.0427 83.5935V83.5887Z" fill="#BDBEC0"/>
<path opacity="0.55" d="M54.716 83.2381C50.3701 83.2381 46.3462 81.1687 43.6809 77.5556L33.2803 63.4773V68.5157C33.2803 76.6322 27.0077 83.2381 19.3007 83.2381C11.5936 83.2381 5.32104 76.6322 5.32104 68.5157V20.5699C5.32104 14.2813 9.11774 8.68412 14.7654 6.64317C16.233 6.11281 17.7574 5.84766 19.3007 5.84766C23.6465 5.84766 27.6704 7.91702 30.3404 11.5301L40.7411 25.6084V20.5699C40.7411 12.4535 47.0137 5.84766 54.7207 5.84766C62.4277 5.84766 68.7003 12.4535 68.7003 20.5699V68.5157C68.7003 74.8043 64.9036 80.4016 59.2559 82.4426C57.7931 82.9729 56.2687 83.2381 54.7207 83.2381H54.716Z" fill="#B9BABC"/>
<path opacity="0.58" d="M54.3942 82.8925C50.0531 82.8925 46.0339 80.8232 43.3639 77.2148L32.9442 63.1128V68.1844C32.9442 76.2961 26.6764 82.8925 18.9741 82.8925C11.2718 82.8925 5.00397 76.2914 5.00397 68.1844V20.2385C5.00397 13.9547 8.79593 8.36224 14.4389 6.32602C15.9017 5.79566 17.4261 5.5304 18.9694 5.5304C23.3105 5.5304 27.3344 7.59976 29.9997 11.2081L40.4193 25.3101V20.2385C40.4193 12.1268 46.6871 5.5304 54.3894 5.5304C62.0917 5.5304 68.3596 12.1316 68.3596 20.2385V68.1844C68.3596 74.4682 64.5676 80.0608 58.9246 82.097C57.4618 82.6274 55.9375 82.8925 54.3894 82.8925H54.3942Z" fill="#B5B6B8"/>
<path opacity="0.61" d="M54.0675 82.547C49.7311 82.547 45.7119 80.4776 43.0467 76.874L32.6081 62.7435V67.8483C32.6081 75.9553 26.345 82.547 18.6474 82.547C10.9499 82.547 4.68677 75.9553 4.68677 67.8483V19.9025C4.68677 13.6233 8.474 8.03553 14.117 5.99931C15.5798 5.47368 17.1041 5.2038 18.6474 5.2038C22.9885 5.2038 27.003 7.27315 29.6683 10.8768L40.1068 25.0072V19.9025C40.1068 11.7955 46.3699 5.2038 54.0675 5.2038C61.765 5.2038 68.0282 11.7955 68.0282 19.9025V67.8483C68.0282 74.1274 64.2409 79.7151 58.598 81.7513C57.1351 82.2817 55.6108 82.547 54.0675 82.547Z" fill="#B1B2B4"/>
<path opacity="0.65" d="M53.7455 82.1963C49.4091 82.1963 45.3947 80.1317 42.7342 76.528L32.2767 62.3691V67.5071C32.2767 75.6046 26.0183 82.1963 18.3255 82.1963C10.6327 82.1963 4.37427 75.6093 4.37427 67.5071V19.5613C4.37427 13.2869 8.1615 7.7038 13.795 5.66758C15.2578 5.14196 16.7774 4.87207 18.3207 4.87207C22.6571 4.87207 26.6716 6.93669 29.3321 10.5403L39.7896 24.6991V19.5613C39.7896 11.4637 46.048 4.87207 53.7408 4.87207C61.4336 4.87207 67.692 11.459 67.692 19.5613V67.5071C67.692 73.7815 63.9048 79.3644 58.2713 81.4006C56.8132 81.9263 55.2888 82.1963 53.7455 82.1963Z" fill="#ADAEB0"/>
<path opacity="0.68" d="M53.419 81.8506C49.0873 81.8506 45.0776 79.7859 42.4171 76.187L31.9407 62.0045V67.1757C31.9407 75.2684 25.687 81.8506 18.0036 81.8506C10.3203 81.8506 4.06665 75.2684 4.06665 67.1757V19.2298C4.06665 12.9602 7.84915 7.38187 13.4826 5.35038C14.9455 4.82476 16.4651 4.55487 18.0036 4.55487C22.3353 4.55487 26.3498 6.61948 29.0055 10.2184L39.482 24.4008V19.2298C39.482 11.1371 45.7356 4.55487 53.419 4.55487C61.1023 4.55487 67.356 11.1371 67.356 19.2298V67.1757C67.356 73.4453 63.5735 79.0235 57.94 81.055C56.4819 81.5806 54.9575 81.8506 53.419 81.8506Z" fill="#A9AAAC"/>
<path opacity="0.71" d="M53.097 81.5051C48.7701 81.5051 44.7604 79.4404 42.1046 75.8462L31.6092 61.6353V66.8395C31.6092 74.9276 25.3603 81.5051 17.6817 81.5051C10.0031 81.5051 3.75415 74.9276 3.75415 66.8395V18.8937C3.75415 12.6288 7.53664 7.05532 13.1607 5.02384C14.6188 4.49821 16.1384 4.22821 17.6769 4.22821C22.0086 4.22821 26.0136 6.29293 28.6694 9.88709L39.1647 24.0979V18.8937C39.1647 10.8057 45.4137 4.22821 53.0923 4.22821C60.7709 4.22821 67.0198 10.8057 67.0198 18.8937V66.8395C67.0198 73.1044 63.2373 78.678 57.6133 80.7095C56.1552 81.2351 54.6356 81.5051 53.0923 81.5051H53.097Z" fill="#A5A6A8"/>
<path opacity="0.74" d="M52.7703 81.1545C48.4434 81.1545 44.4431 79.0945 41.7826 75.4956L31.2683 61.2611V66.4984C31.2683 74.577 25.0241 81.1498 17.3503 81.1498C9.67638 81.1498 3.43219 74.577 3.43219 66.4984V18.5526C3.43219 12.2924 7.20995 6.72354 12.834 4.69206C14.2921 4.16643 15.8117 3.89655 17.3503 3.89655C21.6772 3.89655 25.6822 5.95642 28.3379 9.55531L38.8522 23.7899V18.5526C38.8522 10.474 45.0964 3.90129 52.7703 3.90129C60.4442 3.90129 66.6884 10.474 66.6884 18.5526V66.4984C66.6884 72.7586 62.9106 78.3274 57.2866 80.3589C55.8285 80.8845 54.3089 81.1545 52.7703 81.1545Z" fill="#A1A2A4"/>
<path opacity="0.77" d="M52.4485 80.8091C48.1263 80.8091 44.126 78.7492 41.4702 75.1551L30.937 60.8921V66.1626C30.937 74.2364 24.6975 80.8044 17.0331 80.8044C9.36873 80.8044 3.12927 74.2364 3.12927 66.1626V18.2167C3.12927 11.9613 6.9023 6.39721 12.5216 4.36572C13.9797 3.8401 15.4946 3.57495 17.0331 3.57495C21.3553 3.57495 25.3556 5.63482 28.0114 9.22898L38.5446 23.492V18.2215C38.5446 10.1476 44.784 3.57969 52.4485 3.57969C60.1129 3.57969 66.3523 10.1476 66.3523 18.2215V66.1673C66.3523 72.4228 62.5793 77.9868 56.96 80.0183C55.5066 80.5439 53.987 80.8091 52.4485 80.8091Z" fill="#9D9EA1"/>
<path opacity="0.81" d="M52.1218 80.4584C47.8044 80.4584 43.8041 78.3985 41.1531 74.8091L30.5962 60.5225V65.8261C30.5962 73.8952 24.3614 80.4584 16.7018 80.4584C9.0421 80.4584 2.80737 73.8952 2.80737 65.8261V17.8803C2.80737 11.6295 6.5804 6.07021 12.1902 4.04346C13.6483 3.51783 15.1632 3.25269 16.697 3.25269C21.0145 3.25269 25.0147 5.31255 27.6658 8.90197L38.2227 23.1886V17.885C38.2227 9.81589 44.4574 3.25269 52.1171 3.25269C59.7768 3.25269 66.0115 9.81589 66.0115 17.885V65.8308C66.0115 72.0815 62.2385 77.6409 56.6286 79.6676C55.1753 80.1932 53.6556 80.4584 52.1218 80.4584Z" fill="#999A9D"/>
<path opacity="0.84" d="M51.7999 80.1129C47.4871 80.1129 43.4916 78.0578 40.8406 74.4683L30.2647 60.1533V65.49C30.2647 73.5497 24.0347 80.1081 16.3798 80.1081C8.72486 80.1081 2.49487 73.5497 2.49487 65.49V17.5442C2.49487 11.2983 6.26316 5.74366 11.873 3.71691C13.3263 3.19129 14.8412 2.92603 16.3751 2.92603C20.6925 2.92603 24.688 4.98126 27.3344 8.57069L37.9102 22.8858V17.549C37.9102 9.48934 44.1402 2.93077 51.7951 2.93077C59.4501 2.93077 65.68 9.48934 65.68 17.549V65.4948C65.68 71.7408 61.9118 77.2954 56.3019 79.3221C54.8486 79.8477 53.3337 80.1129 51.7951 80.1129H51.7999Z" fill="#949699"/>
<path opacity="0.87" d="M51.4732 79.7673C47.1605 79.7673 43.1697 77.7122 40.5234 74.1275L29.9286 59.784V65.1587C29.9286 73.2136 23.7034 79.7673 16.0579 79.7673C8.41245 79.7673 2.18719 73.2136 2.18719 65.1587V17.2129C2.18719 10.9716 5.95075 5.42169 11.5559 3.39494C13.0092 2.86931 14.5241 2.60417 16.0579 2.60417C20.3706 2.60417 24.3614 4.65928 27.0077 8.24397L37.6025 22.5827V17.2081C37.6025 9.15325 43.8278 2.59943 51.4732 2.59943C59.1187 2.59943 65.344 9.15325 65.344 17.2081V65.154C65.344 71.3952 61.5804 76.9451 55.9753 78.9718C54.522 79.4974 53.0071 79.7626 51.4732 79.7626V79.7673Z" fill="#909295"/>
<path opacity="0.9" d="M51.1466 79.4169C46.8386 79.4169 42.8478 77.3618 40.2062 73.7818L29.5925 59.4146V64.8224C29.5925 72.8725 23.372 79.4169 15.7313 79.4169C8.09052 79.4169 1.87 72.8678 1.87 64.8224V16.8766C1.87 10.64 5.63355 5.09495 11.2339 3.07294C12.6873 2.54731 14.1974 2.28217 15.7313 2.28217C20.0392 2.28217 24.03 4.33728 26.6763 7.91723L37.2901 22.2844V16.8766C37.2901 8.82639 43.5106 2.28217 51.1513 2.28217C58.792 2.28217 65.0126 8.83113 65.0126 16.8766V64.8224C65.0126 71.0589 61.249 76.6041 55.6486 78.6261C54.2 79.1517 52.6851 79.4169 51.1513 79.4169H51.1466Z" fill="#8C8E91"/>
<path opacity="0.94" d="M50.8246 79.0713C46.5214 79.0713 42.5353 77.0209 39.889 73.441L29.2564 59.0453V64.4863C29.2564 72.527 23.0406 79.0713 15.4046 79.0713C7.76859 79.0713 1.5528 72.527 1.5528 64.4863V16.5405C1.5528 10.3087 5.31162 4.76835 10.9073 2.74634C12.3606 2.22071 13.8708 1.95557 15.3998 1.95557C19.7078 1.95557 23.6939 4.00594 26.3355 7.58589L36.9681 21.9814V16.5405C36.9681 8.49978 43.1839 1.95557 50.8199 1.95557C58.4559 1.95557 64.6717 8.49978 64.6717 16.5405V64.4863C64.6717 70.7181 60.9129 76.2585 55.3172 78.2805C53.8686 78.8062 52.3537 79.0713 50.8246 79.0713Z" fill="#888A8D"/>
<path opacity="0.97" d="M50.4979 78.7211C46.1947 78.7211 42.2133 76.6707 39.5718 73.0955L28.9202 58.6761V64.1503C28.9202 72.1862 22.7091 78.7211 15.0779 78.7211C7.44659 78.7211 1.23553 72.1815 1.23553 64.1503V16.2045C1.23553 9.97741 4.99436 4.44181 10.5853 2.41979C12.0339 1.89417 13.544 1.62891 15.0731 1.62891C19.3764 1.62891 23.3577 3.67939 25.9993 7.25461L36.6509 21.6738V16.1997C36.6509 8.16375 42.8619 1.62891 50.4932 1.62891C58.1244 1.62891 64.3355 8.16849 64.3355 16.1997V64.1455C64.3355 70.3726 60.5767 75.9083 54.9858 77.9303C53.5372 78.4559 52.027 78.7211 50.4932 78.7211H50.4979Z" fill="#848689"/>
<path d="M50.1761 78.3752C45.8776 78.3752 41.901 76.3247 39.2594 72.7542L28.5889 58.3066V63.8138C28.5889 71.8451 22.3873 78.3752 14.7608 78.3752C7.13426 78.3752 0.932678 71.8451 0.932678 63.8138V15.868C0.932678 9.64572 4.68677 4.11475 10.2729 2.09273C11.7215 1.57184 13.2317 1.3067 14.7608 1.3067C19.0593 1.3067 23.0406 3.35718 25.6775 6.92766L36.348 21.3752V15.868C36.348 7.8368 42.5496 1.3067 50.1761 1.3067C57.8026 1.3067 64.0042 7.8368 64.0042 15.868V63.8138C64.0042 70.0361 60.2501 75.5671 54.664 77.5891C53.2154 78.1148 51.7052 78.3799 50.1761 78.3799V78.3752Z" fill="#808285"/>
</g>
<path d="M50.1762 78.7302C45.7735 78.7302 41.6975 76.6324 38.9944 72.972L28.9251 59.3435V63.8137C28.9251 72.0391 22.572 78.7302 14.7609 78.7302C6.94969 78.7302 0.596619 72.0391 0.596619 63.8137V15.8679C0.596619 9.49404 4.44065 3.82575 10.1641 1.75639C11.6506 1.22129 13.1939 0.946655 14.7609 0.946655C19.1635 0.946655 23.2395 3.04439 25.9426 6.70485L36.0119 20.3333V15.8631C36.0119 7.63776 42.365 0.946655 50.1762 0.946655C57.9873 0.946655 64.3404 7.63776 64.3404 15.8631V63.809C64.3404 70.1828 60.4964 75.8511 54.7729 77.9157C53.2912 78.4508 51.7431 78.7254 50.1762 78.7254V78.7302Z" fill="url(#paint0_linear_53_37570)"/>
<path d="M50.1762 77.3096C46.1949 77.3096 42.5023 75.4107 40.0596 72.1007L27.5759 55.2048V63.8185C27.5759 71.2578 21.8241 77.3144 14.7609 77.3144C7.69772 77.3144 1.94586 71.2578 1.94586 63.8185V15.8727C1.94586 10.1097 5.42538 4.97656 10.6044 3.10608C11.9489 2.62307 13.3454 2.37681 14.7609 2.37681C18.747 2.37681 22.4348 4.2757 24.8775 7.58574L37.3612 24.4816V15.8679C37.3612 8.42863 43.113 2.37207 50.1762 2.37207C57.2394 2.37207 62.9913 8.42863 62.9913 15.8679V63.8138C62.9913 69.5767 59.5117 74.7099 54.3327 76.5803C52.993 77.0634 51.5917 77.3096 50.1762 77.3096Z" fill="url(#paint1_linear_53_37570)"/>
<path d="M24.9106 49.9204C24.4183 49.9204 24.0253 49.5227 24.0253 49.0303V46.8993C24.0253 46.5158 24.2715 46.1748 24.636 46.0564C25.0005 45.938 25.3982 46.0611 25.6254 46.3736L26.8894 48.0879C27.1829 48.481 27.0977 49.0397 26.7048 49.3285C26.4113 49.5464 26.0231 49.5559 25.7296 49.3807C25.5923 49.6979 25.2799 49.9204 24.9106 49.9204Z" fill="#FAAC18"/>
<path d="M14.7561 75.1788C13.7619 75.1788 12.7773 75.0414 11.8257 74.7715C11.3523 74.6389 11.0825 74.1465 11.215 73.6729C11.3476 73.1994 11.8399 72.9247 12.3086 73.062C13.5347 73.4125 14.846 73.4882 16.1053 73.2988C16.5882 73.2231 17.0426 73.5593 17.1136 74.0423C17.1846 74.5253 16.8533 74.9799 16.3704 75.0509C15.8402 75.1314 15.2958 75.174 14.7561 75.174V75.1788ZM20.1434 73.5783C19.8546 73.5783 19.5659 73.4361 19.4002 73.1757C19.1351 72.7637 19.2487 72.2144 19.6605 71.9492C20.7399 71.2484 21.6536 70.3439 22.3826 69.2595C22.6572 68.8523 23.2063 68.7434 23.6135 69.0133C24.0206 69.2879 24.1295 69.8373 23.8596 70.2445C22.998 71.5325 21.9139 72.6075 20.631 73.4362C20.4843 73.5309 20.3138 73.5783 20.1482 73.5783H20.1434ZM8.36987 72.8442C8.17104 72.8442 7.96748 72.7779 7.80179 72.6358C6.62775 71.6556 5.67621 70.4575 4.97557 69.0843C4.75307 68.6486 4.9235 68.1136 5.36376 67.891C5.79929 67.6685 6.33424 67.8389 6.55674 68.2793C7.14849 69.4394 7.95328 70.4481 8.94269 71.2768C9.31668 71.5893 9.36875 72.1528 9.05631 72.5269C8.88115 72.7353 8.63024 72.8442 8.37461 72.8442H8.36987ZM24.7118 66.764C24.655 66.764 24.5981 66.7592 24.5413 66.7497C24.0585 66.655 23.746 66.191 23.8407 65.708C23.9591 65.0876 24.0206 64.4531 24.0206 63.8138V61.6734C24.0206 61.1809 24.4183 60.7832 24.9059 60.7832C25.3935 60.7832 25.7911 61.1809 25.7911 61.6734V63.8138C25.7911 64.5667 25.7201 65.3149 25.5781 66.0442C25.4976 66.4704 25.1236 66.764 24.707 66.764H24.7118ZM4.62998 65.5375C4.17078 65.5375 3.78259 65.1823 3.74472 64.7182C3.72105 64.4199 3.71158 64.1169 3.71158 63.8091V60.4375C3.71158 59.9451 4.10924 59.5472 4.60158 59.5472C5.09392 59.5472 5.49158 59.9451 5.49158 60.4375V63.8138C5.49158 64.0743 5.50105 64.3299 5.51998 64.5856C5.55786 65.0734 5.19333 65.4996 4.70573 65.5375C4.68206 65.5375 4.65839 65.5375 4.63472 65.5375H4.62998ZM24.9059 58.3444C24.4135 58.3444 24.0206 57.9467 24.0206 57.4542V53.2397C24.0206 52.7472 24.4183 52.3495 24.9059 52.3495C25.3935 52.3495 25.7911 52.7472 25.7911 53.2397V57.4542C25.7911 57.9467 25.3935 58.3444 24.9059 58.3444ZM4.59685 57.1086C4.10451 57.1086 3.70685 56.7107 3.70685 56.2182V52.0038C3.70685 51.5113 4.10451 51.1135 4.59685 51.1135C5.08919 51.1135 5.48684 51.5113 5.48684 52.0038V56.2182C5.48684 56.7107 5.08919 57.1086 4.59685 57.1086ZM4.59685 48.6795C4.10451 48.6795 3.70685 48.2817 3.70685 47.7892V43.5748C3.70685 43.0823 4.10451 42.6845 4.59685 42.6845C5.08919 42.6845 5.48684 43.0823 5.48684 43.5748V47.7892C5.48684 48.2817 5.08919 48.6795 4.59685 48.6795ZM4.59685 40.2505C4.10451 40.2505 3.70685 39.8528 3.70685 39.3603V35.1458C3.70685 34.6533 4.10451 34.2556 4.59685 34.2556C5.08919 34.2556 5.48684 34.6533 5.48684 35.1458V39.3603C5.48684 39.8528 5.08919 40.2505 4.59685 40.2505ZM4.59685 31.8215C4.10451 31.8215 3.70685 31.4238 3.70685 30.9313V26.7167C3.70685 26.2243 4.10451 25.8265 4.59685 25.8265C5.08919 25.8265 5.48684 26.2243 5.48684 26.7167V30.9313C5.48684 31.4238 5.08919 31.8215 4.59685 31.8215ZM36.2202 28.5304C35.9504 28.5304 35.6805 28.4073 35.5054 28.1705L33.0011 24.78C32.7075 24.387 32.7928 23.8282 33.1857 23.5393C33.5786 23.2505 34.1372 23.331 34.426 23.7241L36.9303 27.1146C37.2238 27.5076 37.1386 28.0664 36.7457 28.3553C36.5847 28.4737 36.4001 28.5304 36.2202 28.5304ZM4.59685 23.3925C4.10451 23.3925 3.70685 22.9948 3.70685 22.5023V18.2878C3.70685 17.7954 4.10451 17.3975 4.59685 17.3975C5.08919 17.3975 5.48684 17.7954 5.48684 18.2878V22.5023C5.48684 22.9948 5.08919 23.3925 4.59685 23.3925ZM31.2116 21.7493C30.9418 21.7493 30.6719 21.6262 30.4968 21.3894L27.9924 17.9989C27.6989 17.6059 27.7841 17.0471 28.1771 16.7582C28.57 16.4693 29.1286 16.5499 29.4174 16.9429L31.9217 20.3334C32.2152 20.7265 32.13 21.2853 31.7371 21.5742C31.5761 21.6926 31.3915 21.7493 31.2116 21.7493ZM4.74834 14.9683C4.701 14.9683 4.64892 14.9683 4.60158 14.9541C4.11871 14.8736 3.79206 14.4142 3.87254 13.9312C4.12818 12.4159 4.66786 10.9858 5.48211 9.69303C5.74248 9.27632 6.29163 9.15327 6.70823 9.41372C7.12482 9.67417 7.24791 10.2234 6.98753 10.6401C6.29636 11.7387 5.83716 12.9415 5.62413 14.2296C5.55312 14.6652 5.1744 14.9731 4.74834 14.9731V14.9683ZM26.203 14.9683C25.9331 14.9683 25.6633 14.8452 25.4881 14.6084L22.9838 11.2178C22.6903 10.8248 22.7755 10.2661 23.1685 9.9772C23.5614 9.68361 24.12 9.76879 24.4088 10.1618L26.9131 13.5524C27.2066 13.9455 27.1214 14.5042 26.7285 14.7931C26.5675 14.9114 26.3829 14.9683 26.203 14.9683ZM20.9198 8.43346C20.7304 8.43346 20.5363 8.37183 20.3707 8.24398C19.3623 7.45317 18.1788 6.86606 16.9479 6.55353C16.4745 6.43041 16.1858 5.94738 16.3089 5.47384C16.4272 5.0003 16.9101 4.7114 17.3882 4.83452C18.8558 5.20861 20.2665 5.90472 21.4689 6.8518C21.8524 7.15486 21.9187 7.7137 21.6204 8.09727C21.4453 8.31983 21.1849 8.4382 20.9198 8.4382V8.43346ZM9.12732 8.03091C8.84328 8.03091 8.5687 7.89829 8.39354 7.64731C8.11423 7.2448 8.21838 6.69083 8.62078 6.41144C9.38769 5.88581 10.2209 5.45492 11.0919 5.14239C11.6553 4.93877 12.2423 4.7825 12.8293 4.67359C13.3217 4.58362 13.7761 4.90563 13.8614 5.38864C13.9513 5.87165 13.6294 6.33568 13.1465 6.42092C12.6542 6.51089 12.1666 6.64341 11.6932 6.81388C10.9641 7.07906 10.2682 7.43433 9.62439 7.87472C9.4729 7.9789 9.29774 8.03091 9.12258 8.03091H9.12732Z" fill="#FAAC18"/>
<path d="M40.0217 33.6682C39.7471 33.6682 39.4772 33.5404 39.3068 33.3083L38.0428 31.5941C37.7493 31.201 37.8345 30.6423 38.2275 30.3535C38.521 30.1356 38.9092 30.1261 39.2027 30.3013C39.34 29.984 39.6524 29.7615 40.0217 29.7615C40.514 29.7615 40.9069 30.1593 40.9069 30.6517V32.7827C40.9069 33.1662 40.6608 33.5072 40.2962 33.6256C40.2063 33.654 40.1116 33.6682 40.0169 33.6682H40.0217Z" fill="#FAAC18"/>
<path d="M51.9325 75.0222C51.5111 75.0222 51.1371 74.7191 51.0614 74.293C50.9715 73.8099 51.2934 73.3506 51.7762 73.2607C52.2686 73.1707 52.7562 73.0382 53.2296 72.8677C53.9586 72.6025 54.6545 72.2474 55.2984 71.8022C55.7008 71.5229 56.2546 71.627 56.534 72.0295C56.8133 72.432 56.7091 72.986 56.3067 73.2654C55.5398 73.791 54.7066 74.2219 53.8355 74.5345C53.2675 74.7381 52.6852 74.8991 52.0934 75.0033C52.0413 75.0127 51.9845 75.0175 51.9325 75.0175V75.0222ZM47.757 74.8755C47.686 74.8755 47.6103 74.866 47.5345 74.8471C46.067 74.473 44.6563 73.7769 43.4538 72.8298C43.0704 72.5267 43.0041 71.9679 43.3071 71.5843C43.61 71.2008 44.1686 71.1345 44.5521 71.4329C45.5605 72.2237 46.744 72.8108 47.9748 73.1233C48.4482 73.2464 48.737 73.7295 48.6139 74.203C48.5098 74.6055 48.15 74.8708 47.757 74.8708V74.8755ZM58.6927 70.4005C58.5317 70.4005 58.366 70.3579 58.2193 70.2632C57.8027 70.0028 57.6796 69.4535 57.94 69.0367C58.6311 67.9381 59.0903 66.7353 59.3034 65.4473C59.3838 64.9643 59.8478 64.6375 60.3259 64.718C60.8088 64.7985 61.1354 65.2579 61.0549 65.7409C60.7993 67.2562 60.2596 68.6863 59.4454 69.9791C59.275 70.249 58.9862 70.3957 58.6927 70.3957V70.4005ZM41.2288 69.8749C40.959 69.8749 40.6891 69.7518 40.514 69.515L38.0097 66.1244C37.7162 65.7314 37.8014 65.1726 38.1943 64.8838C38.592 64.5902 39.1458 64.6754 39.4346 65.0684L41.9389 68.459C42.2324 68.8521 42.1472 69.4108 41.7543 69.6996C41.5933 69.818 41.4087 69.8749 41.2288 69.8749ZM36.2202 63.0938C35.9504 63.0938 35.6805 62.9707 35.5054 62.7339L33.0011 59.3434C32.7075 58.9504 32.7928 58.3915 33.1857 58.1027C33.5786 57.8138 34.1372 57.8944 34.426 58.2874L36.9303 61.6779C37.2238 62.071 37.1386 62.6298 36.7457 62.9186C36.5847 63.037 36.4001 63.0938 36.2202 63.0938ZM60.3306 62.2793C59.8383 62.2793 59.4406 61.8815 59.4406 61.389V57.1746C59.4406 56.6821 59.8383 56.2844 60.3306 56.2844C60.823 56.2844 61.2206 56.6821 61.2206 57.1746V61.389C61.2206 61.8815 60.823 62.2793 60.3306 62.2793ZM31.2163 56.3174C30.9465 56.3174 30.6766 56.1943 30.5015 55.9575L27.9972 52.567C27.7037 52.174 27.7889 51.6152 28.1818 51.3263C28.5747 51.0374 29.1334 51.118 29.4221 51.5111L31.9264 54.9015C32.2199 55.2946 32.1347 55.8534 31.7418 56.1423C31.5808 56.2607 31.3962 56.3174 31.2163 56.3174ZM60.3306 53.8503C59.8383 53.8503 59.4406 53.4526 59.4406 52.9601V48.7455C59.4406 48.2531 59.8383 47.8553 60.3306 47.8553C60.823 47.8553 61.2206 48.2531 61.2206 48.7455V52.9601C61.2206 53.4526 60.823 53.8503 60.3306 53.8503ZM60.3306 45.4213C59.8383 45.4213 59.4406 45.0236 59.4406 44.5311V40.3165C59.4406 39.824 59.8383 39.4263 60.3306 39.4263C60.823 39.4263 61.2206 39.824 61.2206 40.3165V44.5311C61.2206 45.0236 60.823 45.4213 60.3306 45.4213ZM60.3306 36.9924C59.8383 36.9924 59.4406 36.5946 59.4406 36.1021V31.8876C59.4406 31.3951 59.8383 30.9973 60.3306 30.9973C60.823 30.9973 61.2206 31.3951 61.2206 31.8876V36.1021C61.2206 36.5946 60.823 36.9924 60.3306 36.9924ZM60.3306 28.5634C59.8383 28.5634 59.4406 28.1655 59.4406 27.6731V23.4586C59.4406 22.9661 59.8383 22.5683 60.3306 22.5683C60.823 22.5683 61.2206 22.9661 61.2206 23.4586V27.6731C61.2206 28.1655 60.823 28.5634 60.3306 28.5634ZM40.0216 27.3274C39.5293 27.3274 39.1364 26.9297 39.1364 26.4372V22.2226C39.1364 21.7301 39.534 21.3324 40.0216 21.3324C40.5092 21.3324 40.9069 21.7301 40.9069 22.2226V26.4372C40.9069 26.9297 40.5092 27.3274 40.0216 27.3274ZM60.3306 20.1344C59.8383 20.1344 59.4406 19.7365 59.4406 19.244V15.8678C59.4406 15.6073 59.4312 15.3517 59.4122 15.0959C59.3744 14.6082 59.7389 14.182 60.2265 14.1441C60.7236 14.1015 61.1402 14.4709 61.178 14.9586C61.2017 15.2569 61.2112 15.56 61.2112 15.8678V19.244C61.2112 19.7365 60.8135 20.1344 60.3212 20.1344H60.3306ZM40.0216 18.8984C39.5293 18.8984 39.1364 18.5006 39.1364 18.0082V15.8678C39.1364 15.1148 39.2074 14.3667 39.3494 13.6374C39.4441 13.1544 39.908 12.8419 40.3909 12.9366C40.8738 13.0313 41.1862 13.4953 41.0915 13.9783C40.9732 14.5987 40.9116 15.2332 40.9116 15.8725V18.0129C40.9116 18.5054 40.514 18.9031 40.0264 18.9031L40.0216 18.8984ZM59.1661 11.8901C58.8442 11.8901 58.5317 11.7149 58.3755 11.4071C57.7837 10.2469 56.9789 9.23822 55.9895 8.40952C55.6155 8.09699 55.5635 7.53353 55.8759 7.15943C56.1884 6.78533 56.747 6.73325 57.1257 7.04579C58.2997 8.02601 59.2513 9.22406 59.9519 10.5973C60.1744 11.033 60.004 11.568 59.5637 11.7905C59.4359 11.8568 59.2939 11.8901 59.1613 11.8901H59.1661ZM41.8111 10.8246C41.6407 10.8246 41.4702 10.7772 41.3188 10.6731C40.9116 10.3984 40.8027 9.84905 41.0726 9.4418C41.9342 8.15378 43.0183 7.07885 44.3012 6.25016C44.7131 5.98497 45.2622 6.09865 45.5273 6.51063C45.7924 6.92261 45.6788 7.47195 45.2669 7.73713C44.1876 8.43797 43.2739 9.3424 42.5449 10.4268C42.3744 10.6825 42.0904 10.8199 41.8064 10.8199L41.8111 10.8246ZM52.8651 6.65745C52.7846 6.65745 52.7041 6.64795 52.6236 6.62427C51.3975 6.27385 50.0862 6.19809 48.8269 6.3875C48.3393 6.45853 47.8896 6.12702 47.8186 5.64401C47.7476 5.161 48.079 4.70646 48.5618 4.63543C50.0673 4.40813 51.639 4.50277 53.1065 4.91948C53.5799 5.05208 53.8497 5.54459 53.7172 6.01813C53.6083 6.41116 53.2533 6.66219 52.8651 6.66219V6.65745Z" fill="#FAAC18"/>
<path d="M50.1762 70.2064C48.3394 70.2064 46.5546 69.3256 45.3806 67.7393L20.8299 34.5016V63.8136C20.8299 67.3462 18.1126 70.2064 14.7609 70.2064C11.4092 70.2064 8.69183 67.3462 8.69183 63.8136V15.8678C8.69183 13.1355 10.3393 10.7062 12.7915 9.82071C15.2437 8.93519 17.9611 9.78755 19.5564 11.9422L44.1072 45.1798V15.8678C44.1072 12.3352 46.8245 9.47503 50.1762 9.47503C53.5279 9.47503 56.2452 12.3352 56.2452 15.8678V63.8136C56.2452 66.546 54.5978 68.9752 52.1455 69.8607C51.497 70.0928 50.8342 70.2064 50.1762 70.2064Z" fill="url(#paint2_linear_53_37570)"/>
<defs>
<linearGradient id="paint0_linear_53_37570" x1="-7.00151" y1="39.8431" x2="64.3404" y2="39.8431" gradientUnits="userSpaceOnUse">
<stop stop-color="#F1F2F2"/>
<stop offset="1" stop-color="#D1D3D4"/>
</linearGradient>
<linearGradient id="paint1_linear_53_37570" x1="1.94113" y1="39.8432" x2="-6.52806" y2="39.8432" gradientUnits="userSpaceOnUse">
<stop stop-color="#D1D3D4"/>
<stop offset="1" stop-color="#F1F2F2"/>
</linearGradient>
<linearGradient id="paint2_linear_53_37570" x1="8.6871" y1="39.8431" x2="56.2452" y2="39.8431" gradientUnits="userSpaceOnUse">
<stop stop-color="#FABC45"/>
<stop offset="0.18" stop-color="#FAB531"/>
<stop offset="0.37" stop-color="#FAB022"/>
<stop offset="0.61" stop-color="#FAAC1A"/>
<stop offset="1" stop-color="#FAAC18"/>
</linearGradient>
</defs>
</svg>
