<svg width="79" height="89" viewBox="0 0 79 89" fill="none" xmlns="http://www.w3.org/2000/svg">
<g style="mix-blend-mode:multiply">
<path opacity="0.03" d="M44.1992 40.6741C40.9611 40.6741 38.116 44.9122 38.116 49.7423C38.116 54.5724 40.9564 58.8106 44.1992 58.8106C47.442 58.8106 50.2825 54.5724 50.2825 49.7423C50.2825 44.9122 47.442 40.6741 44.1992 40.6741ZM44.1992 88.6199C25.2347 88.6199 9.80646 71.1794 9.80646 49.7423C9.80646 28.3052 25.2347 10.8648 44.1992 10.8648C63.1638 10.8648 78.592 28.3052 78.592 49.7423C78.592 71.1794 63.1638 88.6199 44.1992 88.6199Z" fill="#FBFBFB"/>
<path opacity="0.06" d="M43.8774 40.3234C40.6299 40.3234 37.7847 44.5662 37.7847 49.4011C37.7847 54.2359 40.6299 58.4789 43.8774 58.4789C47.125 58.4789 49.9701 54.2359 49.9701 49.4011C49.9701 44.5662 47.125 40.3234 43.8774 40.3234ZM43.8774 88.2692C24.9176 88.2692 9.49414 70.8335 9.49414 49.4011C9.49414 27.9687 24.9176 10.5331 43.8774 10.5331C62.8372 10.5331 78.2607 27.9687 78.2607 49.4011C78.2607 70.8335 62.8372 88.2692 43.8774 88.2692Z" fill="#F7F7F7"/>
<path opacity="0.1" d="M43.5507 39.9779C40.2984 39.9779 37.4485 44.2255 37.4485 49.0698C37.4485 53.9141 40.3032 58.1617 43.5507 58.1617C46.7983 58.1617 49.6529 53.9141 49.6529 49.0698C49.6529 44.2255 46.7983 39.9779 43.5507 39.9779ZM43.5507 87.9237C24.5956 87.9237 9.17688 70.4927 9.17688 49.0698C9.17688 27.6469 24.5956 10.2159 43.5507 10.2159C62.5058 10.2159 77.9245 27.6469 77.9245 49.0698C77.9245 70.4927 62.5058 87.9237 43.5507 87.9237Z" fill="#F3F3F3"/>
<path opacity="0.13" d="M43.2287 39.6279C39.9717 39.6279 37.1123 43.8803 37.1123 48.7293C37.1123 53.5783 39.9717 57.8307 43.2287 57.8307C46.4857 57.8307 49.3451 53.5783 49.3451 48.7293C49.3451 43.8803 46.4857 39.6279 43.2287 39.6279ZM43.2287 87.5737C24.2831 87.5737 8.86908 70.1475 8.86908 48.7293C8.86908 27.3111 24.2831 9.88489 43.2287 9.88489C62.1743 9.88489 77.5883 27.3111 77.5883 48.7293C77.5883 70.1475 62.1743 87.5737 43.2287 87.5737Z" fill="#EFEFEF"/>
<path opacity="0.16" d="M42.9022 39.2823C39.6405 39.2823 36.7764 43.5394 36.7764 48.3979C36.7764 53.2564 39.6405 57.5135 42.9022 57.5135C46.164 57.5135 49.0281 53.2564 49.0281 48.3979C49.0281 43.5394 46.164 39.2823 42.9022 39.2823ZM42.9022 87.2281C23.9614 87.2281 8.55206 69.8066 8.55206 48.3979C8.55206 26.9892 23.9614 9.56769 42.9022 9.56769C61.8431 9.56769 77.2524 26.9892 77.2524 48.3979C77.2524 69.8066 61.8431 87.2281 42.9022 87.2281Z" fill="#EBEBEB"/>
<path opacity="0.19" d="M42.5803 38.936C39.309 38.936 36.4449 43.1979 36.4449 48.0611C36.4449 52.9244 39.3138 57.1861 42.5803 57.1861C45.8467 57.1861 48.7156 52.9244 48.7156 48.0611C48.7156 43.1979 45.8467 38.936 42.5803 38.936ZM42.5803 86.8818C23.6441 86.8818 8.23956 69.4651 8.23956 48.0611C8.23956 26.6572 23.6441 9.2403 42.5803 9.2403C61.5164 9.2403 76.9209 26.6572 76.9209 48.0611C76.9209 69.4651 61.5164 86.8818 42.5803 86.8818Z" fill="#E6E7E7"/>
<path opacity="0.23" d="M42.2536 38.5861C38.9776 38.5861 36.104 42.8574 36.104 47.7206C36.104 52.5838 38.9776 56.8552 42.2536 56.8552C45.5295 56.8552 48.4031 52.5838 48.4031 47.7206C48.4031 42.8574 45.5295 38.5861 42.2536 38.5861ZM42.2536 86.532C23.3269 86.532 7.92706 69.1198 7.92706 47.7206C7.92706 26.3214 23.3269 8.90936 42.2536 8.90936C61.1802 8.90936 76.58 26.3214 76.58 47.7206C76.58 69.1198 61.1802 86.532 42.2536 86.532Z" fill="#E2E3E3"/>
<path opacity="0.26" d="M41.9317 38.2403C38.651 38.2403 35.7727 42.5164 35.7727 47.3891C35.7727 52.2618 38.651 56.5379 41.9317 56.5379C45.2124 56.5379 48.0907 52.2618 48.0907 47.3891C48.0907 42.5164 45.2124 38.2403 41.9317 38.2403ZM41.9317 86.1861C23.0098 86.1861 7.61469 68.7836 7.61469 47.3891C7.61469 25.9946 23.0098 8.5921 41.9317 8.5921C60.8536 8.5921 76.2487 25.9946 76.2487 47.3891C76.2487 68.7836 60.8536 86.1861 41.9317 86.1861Z" fill="#DEDFE0"/>
<path opacity="0.29" d="M41.605 37.894C38.3196 37.894 35.4366 42.1749 35.4366 47.0523C35.4366 51.9298 38.3196 56.2106 41.605 56.2106C44.8905 56.2106 47.7735 51.9298 47.7735 47.0523C47.7735 42.1749 44.8905 37.894 41.605 37.894ZM41.605 85.8398C22.6878 85.8398 7.29749 68.4421 7.29749 47.0523C7.29749 25.6625 22.6878 8.26477 41.605 8.26477C60.5222 8.26477 75.9126 25.6625 75.9126 47.0523C75.9126 68.4421 60.5222 85.8398 41.605 85.8398Z" fill="#DADBDC"/>
<path opacity="0.32" d="M41.2784 37.5441C37.9882 37.5441 35.1005 41.8297 35.1005 46.7166C35.1005 51.6035 37.9882 55.889 41.2784 55.889C44.5685 55.889 47.4563 51.6035 47.4563 46.7166C47.4563 41.8297 44.5685 37.5441 41.2784 37.5441ZM41.2784 85.4899C22.3659 85.4899 6.98029 68.0969 6.98029 46.7166C6.98029 25.3363 22.3659 7.94318 41.2784 7.94318C60.1908 7.94318 75.5765 25.3363 75.5765 46.7166C75.5765 68.0969 60.1908 85.4899 41.2784 85.4899Z" fill="#D6D7D8"/>
<path opacity="0.35" d="M40.9566 37.1985C37.6569 37.1985 34.7644 41.4889 34.7644 46.3805C34.7644 51.2722 37.6569 55.5624 40.9566 55.5624C44.2562 55.5624 47.1487 51.2722 47.1487 46.3805C47.1487 41.4889 44.2562 37.1985 40.9566 37.1985ZM40.9566 85.1444C22.0535 85.1444 6.67267 67.7561 6.67267 46.3805C6.67267 25.005 22.0535 7.61658 40.9566 7.61658C59.8596 7.61658 75.2404 25.005 75.2404 46.3805C75.2404 67.7561 59.8596 85.1444 40.9566 85.1444Z" fill="#D2D3D4"/>
<path opacity="0.39" d="M40.6298 36.8478C37.3255 36.8478 34.4282 41.1429 34.4282 46.044C34.4282 50.9451 37.3255 55.2401 40.6298 55.2401C43.9342 55.2401 46.8314 50.9451 46.8314 46.044C46.8314 41.1429 43.9342 36.8478 40.6298 36.8478ZM40.6298 84.7936C21.7316 84.7936 6.35541 67.4101 6.35541 46.044C6.35541 24.6779 21.7316 7.29425 40.6298 7.29425C59.5281 7.29425 74.9042 24.6779 74.9042 46.044C74.9042 67.4101 59.5281 84.7936 40.6298 84.7936Z" fill="#CECFD0"/>
<path opacity="0.42" d="M40.3079 36.5022C36.9988 36.5022 34.0968 40.8019 34.0968 45.7078C34.0968 50.6137 36.9988 54.9135 40.3079 54.9135C43.6169 54.9135 46.5189 50.6137 46.5189 45.7078C46.5189 40.8019 43.6169 36.5022 40.3079 36.5022ZM40.3079 84.448C21.4143 84.448 6.04291 67.0691 6.04291 45.7078C6.04291 24.3464 21.4143 6.96765 40.3079 6.96765C59.2014 6.96765 74.5728 24.3464 74.5728 45.7078C74.5728 67.0691 59.2014 84.448 40.3079 84.448Z" fill="#CACBCC"/>
<path opacity="0.45" d="M39.9812 36.1567C36.6673 36.1567 33.7559 40.4659 33.7559 45.3718C33.7559 50.2776 36.6626 54.5868 39.9812 54.5868C43.2997 54.5868 46.2064 50.2776 46.2064 45.3718C46.2064 40.4659 43.2997 36.1567 39.9812 36.1567ZM39.9812 84.1025C21.0924 84.1025 5.73041 66.7284 5.73041 45.3718C5.73041 24.0152 21.0971 6.64099 39.9812 6.64099C58.8652 6.64099 74.2319 24.0152 74.2319 45.3718C74.2319 66.7284 58.8652 84.1025 39.9812 84.1025Z" fill="#C6C7C8"/>
<path opacity="0.48" d="M39.6594 35.806C36.3361 35.806 33.4246 40.1199 33.4246 45.0353C33.4246 49.9506 36.3361 54.2645 39.6594 54.2645C42.9827 54.2645 45.8941 49.9506 45.8941 45.0353C45.8941 40.1199 42.9827 35.806 39.6594 35.806ZM39.6594 83.7518C20.78 83.7518 5.41809 66.3824 5.41809 45.0353C5.41809 23.6881 20.78 6.31873 39.6594 6.31873C58.5387 6.31873 73.9007 23.6881 73.9007 45.0353C73.9007 66.3824 58.5387 83.7518 39.6594 83.7518Z" fill="#C2C3C4"/>
<path opacity="0.52" d="M39.3326 35.4604C36.0046 35.4604 33.0884 39.7791 33.0884 44.6991C33.0884 49.6192 36.0046 53.9379 39.3326 53.9379C42.6607 53.9379 45.5768 49.6192 45.5768 44.6991C45.5768 39.7791 42.6607 35.4604 39.3326 35.4604ZM39.3326 83.4062C20.458 83.4062 5.10083 66.0415 5.10083 44.6991C5.10083 23.3567 20.458 5.99207 39.3326 5.99207C58.2072 5.99207 73.5645 23.3567 73.5645 44.6991C73.5645 66.0415 58.2072 83.4062 39.3326 83.4062Z" fill="#BDBEC0"/>
<path opacity="0.55" d="M39.0108 35.1097C35.6781 35.1097 32.7524 39.4331 32.7524 44.3627C32.7524 49.2922 35.6781 53.6156 39.0108 53.6156C42.3436 53.6156 45.2692 49.2922 45.2692 44.3627C45.2692 39.4331 42.3436 35.1097 39.0108 35.1097ZM39.0108 83.0555C20.141 83.0555 4.79321 65.6956 4.79321 44.3627C4.79321 23.0297 20.1457 5.6698 39.0108 5.6698C57.8759 5.6698 73.2284 23.0297 73.2284 44.3627C73.2284 65.6956 57.8759 83.0555 39.0108 83.0555Z" fill="#B9BABC"/>
<path opacity="0.58" d="M38.6842 34.7642C35.3467 34.7642 32.4163 39.0924 32.4163 44.0266C32.4163 48.9609 35.3467 53.289 38.6842 53.289C42.0216 53.289 44.952 48.9609 44.952 44.0266C44.952 39.0924 42.0216 34.7642 38.6842 34.7642ZM38.6842 82.71C19.819 82.71 4.47601 65.3548 4.47601 44.0266C4.47601 22.6984 19.8238 5.34314 38.6842 5.34314C57.5445 5.34314 72.8923 22.6984 72.8923 44.0266C72.8923 65.3548 57.5445 82.71 38.6842 82.71Z" fill="#B5B6B8"/>
<path opacity="0.61" d="M38.3575 34.4186C35.0153 34.4186 32.0802 38.7514 32.0802 43.6904C32.0802 48.6294 35.0153 52.9624 38.3575 52.9624C41.6997 52.9624 44.6348 48.6294 44.6348 43.6904C44.6348 38.7514 41.6997 34.4186 38.3575 34.4186ZM38.3575 82.3644C19.5018 82.3644 4.15881 65.0139 4.15881 43.6904C4.15881 22.367 19.5018 5.01654 38.3575 5.01654C57.2131 5.01654 72.5562 22.367 72.5562 43.6904C72.5562 65.0139 57.2131 82.3644 38.3575 82.3644Z" fill="#B1B2B4"/>
<path opacity="0.65" d="M38.0355 34.0686C34.6838 34.0686 31.7487 38.4061 31.7487 43.3546C31.7487 48.3031 34.6886 52.6408 38.0355 52.6408C41.3825 52.6408 44.3223 48.3031 44.3223 43.3546C44.3223 38.4061 41.3825 34.0686 38.0355 34.0686ZM38.0355 82.0144C19.1846 82.0144 3.84631 64.6733 3.84631 43.3546C3.84631 22.0359 19.1846 4.69495 38.0355 4.69495C56.8864 4.69495 72.2247 22.0359 72.2247 43.3546C72.2247 64.6733 56.8864 82.0144 38.0355 82.0144Z" fill="#ADAEB0"/>
<path opacity="0.68" d="M37.7089 33.7223C34.3525 33.7223 31.4079 38.0646 31.4079 43.0178C31.4079 47.971 34.3525 52.3134 37.7089 52.3134C41.0654 52.3134 44.0099 47.971 44.0099 43.0178C44.0099 38.0646 41.0654 33.7223 37.7089 33.7223ZM37.7089 81.6681C18.8627 81.6681 3.53394 64.3318 3.53394 43.0178C3.53394 21.7038 18.8675 4.36761 37.7089 4.36761C56.5504 4.36761 71.8839 21.7038 71.8839 43.0178C71.8839 64.3318 56.5504 81.6681 37.7089 81.6681Z" fill="#A9AAAC"/>
<path opacity="0.71" d="M37.387 33.3724C34.0258 33.3724 31.0765 37.7242 31.0765 42.6821C31.0765 47.6401 34.0258 51.9918 37.387 51.9918C40.7481 51.9918 43.6974 47.6401 43.6974 42.6821C43.6974 37.7242 40.7481 33.3724 37.387 33.3724ZM37.387 81.3182C18.5502 81.3182 3.22144 63.9866 3.22144 42.6821C3.22144 21.3776 18.5502 4.04602 37.387 4.04602C56.2237 4.04602 71.5525 21.3776 71.5525 42.6821C71.5525 63.9866 56.2237 81.3182 37.387 81.3182Z" fill="#A5A6A8"/>
<path opacity="0.74" d="M37.0603 33.0268C33.6944 33.0268 30.7404 37.3833 30.7404 42.346C30.7404 47.3087 33.6944 51.6652 37.0603 51.6652C40.4262 51.6652 43.3802 47.3087 43.3802 42.346C43.3802 37.3833 40.4262 33.0268 37.0603 33.0268ZM37.0603 80.9726C18.2283 80.9726 2.90424 63.6458 2.90424 42.346C2.90424 21.0462 18.2236 3.71942 37.0603 3.71942C55.897 3.71942 71.2164 21.0462 71.2164 42.346C71.2164 63.6458 55.897 80.9726 37.0603 80.9726Z" fill="#A1A2A4"/>
<path opacity="0.77" d="M36.7385 32.6811C33.3631 32.6811 30.4043 37.0424 30.4043 42.0146C30.4043 46.9868 33.3631 51.348 36.7385 51.348C40.1138 51.348 43.0726 46.9868 43.0726 42.0146C43.0726 37.0424 40.1138 32.6811 36.7385 32.6811ZM36.7385 80.6269C17.9112 80.6269 2.59662 63.3049 2.59662 42.0146C2.59662 20.7243 17.9112 3.40222 36.7385 3.40222C55.5657 3.40222 70.8803 20.7243 70.8803 42.0146C70.8803 63.3049 55.5657 80.6269 36.7385 80.6269Z" fill="#9D9EA1"/>
<path opacity="0.81" d="M36.4118 32.3304C33.0317 32.3304 30.0681 36.6964 30.0681 41.6733C30.0681 46.6502 33.0317 51.0163 36.4118 51.0163C39.7919 51.0163 42.7554 46.6502 42.7554 41.6733C42.7554 36.6964 39.7919 32.3304 36.4118 32.3304ZM36.4118 80.2762C17.5892 80.2762 2.27936 62.9589 2.27936 41.6733C2.27936 20.3877 17.5892 3.0705 36.4118 3.0705C55.2343 3.0705 70.5442 20.3877 70.5442 41.6733C70.5442 62.9589 55.2343 80.2762 36.4118 80.2762Z" fill="#999A9D"/>
<path opacity="0.84" d="M36.0898 31.9849C32.705 31.9849 29.7367 36.3556 29.7367 41.3373C29.7367 46.3189 32.705 50.6897 36.0898 50.6897C39.4746 50.6897 42.4429 46.3189 42.4429 41.3373C42.4429 36.3556 39.4746 31.9849 36.0898 31.9849ZM36.0898 79.9307C17.2767 79.9307 1.96686 62.6181 1.96686 41.3373C1.96686 20.0564 17.272 2.74384 36.0898 2.74384C54.9076 2.74384 70.2127 20.0564 70.2127 41.3373C70.2127 62.6181 54.9076 79.9307 36.0898 79.9307Z" fill="#949699"/>
<path opacity="0.87" d="M35.7633 31.6392C32.3737 31.6392 29.396 36.0147 29.396 41.0058C29.396 45.9969 32.369 50.3725 35.7633 50.3725C39.1576 50.3725 42.1305 45.9969 42.1305 41.0058C42.1305 36.0147 39.1576 31.6392 35.7633 31.6392ZM35.7633 79.5851C16.9549 79.5851 1.65454 62.2772 1.65454 41.0058C1.65454 19.7345 16.9549 2.42664 35.7633 2.42664C54.5716 2.42664 69.872 19.7345 69.872 41.0058C69.872 62.2772 54.5716 79.5851 35.7633 79.5851Z" fill="#909295"/>
<path opacity="0.9" d="M35.4413 31.2885C32.047 31.2885 29.0646 35.6688 29.0646 40.6646C29.0646 45.6605 32.0423 50.0407 35.4413 50.0407C38.8403 50.0407 41.818 45.6605 41.818 40.6646C41.818 35.6688 38.8403 31.2885 35.4413 31.2885ZM35.4413 79.2344C16.6377 79.2344 1.34204 61.9313 1.34204 40.6646C1.34204 19.398 16.6377 2.09491 35.4413 2.09491C54.2449 2.09491 69.5406 19.398 69.5406 40.6646C69.5406 61.9313 54.2449 79.2344 35.4413 79.2344Z" fill="#8C8E91"/>
<path opacity="0.94" d="M35.1146 30.943C31.7108 30.943 28.7284 35.328 28.7284 40.3333C28.7284 45.3386 31.7108 49.7235 35.1146 49.7235C38.5183 49.7235 41.5008 45.3386 41.5008 40.3333C41.5008 35.328 38.5183 30.943 35.1146 30.943ZM35.1146 78.8888C16.3157 78.8888 1.02478 61.5905 1.02478 40.3333C1.02478 19.0762 16.3157 1.77771 35.1146 1.77771C53.9134 1.77771 69.2044 19.0762 69.2044 40.3333C69.2044 61.5905 53.9134 78.8888 35.1146 78.8888Z" fill="#888A8D"/>
<path opacity="0.97" d="M34.7879 30.5923C31.3794 30.5923 28.3922 34.9868 28.3922 39.9921C28.3922 44.9974 31.3841 49.3918 34.7879 49.3918C38.1917 49.3918 41.1836 44.9974 41.1836 39.9921C41.1836 34.9868 38.1917 30.5923 34.7879 30.5923ZM34.7879 78.5382C15.9985 78.5382 0.707581 61.2446 0.707581 39.9921C0.707581 18.7397 15.9938 1.44598 34.7879 1.44598C53.582 1.44598 68.8682 18.7397 68.8682 39.9921C68.8682 61.2446 53.582 78.5382 34.7879 78.5382Z" fill="#848689"/>
<path d="M34.4661 30.2468C31.0528 30.2468 28.0562 34.6459 28.0562 39.6607C28.0562 44.6754 31.0528 49.0747 34.4661 49.0747C37.8793 49.0747 40.876 44.6754 40.876 39.6607C40.876 34.6459 37.8793 30.2468 34.4661 30.2468ZM34.4661 78.1926C15.6814 78.1926 0.399963 60.9037 0.399963 39.656C0.399963 18.4084 15.6814 1.11938 34.4661 1.11938C53.2507 1.11938 68.5322 18.4084 68.5322 39.656C68.5322 60.9037 53.2507 78.1926 34.4661 78.1926Z" fill="#808285"/>
</g>
<path d="M34.4661 78.548C15.4969 78.548 0.0639038 61.1027 0.0639038 39.6609C0.0639038 18.219 15.4969 0.773926 34.4661 0.773926C53.4354 0.773926 68.8684 18.219 68.8684 39.6609C68.8684 61.1027 53.4354 78.548 34.4661 78.548ZM34.4661 30.6021C31.2328 30.6021 28.3924 34.8356 28.3924 39.6563C28.3924 44.4769 31.2281 48.7103 34.4661 48.7103C37.7042 48.7103 40.5352 44.4769 40.5352 39.6563C40.5352 34.8356 37.6995 30.6021 34.4661 30.6021Z" fill="url(#paint0_linear_53_37531)"/>
<path d="M34.4661 77.1277C16.2401 77.1277 1.40833 60.3217 1.40833 39.6612C1.40833 19.0007 16.2353 2.19489 34.4661 2.19489C52.6969 2.19489 67.5239 19.0007 67.5239 39.6612C67.5239 60.3217 52.6969 77.1277 34.4661 77.1277ZM34.4661 29.1819C30.4422 29.1819 27.0479 33.9789 27.0479 39.6566C27.0479 45.3343 30.4469 50.1312 34.4661 50.1312C38.4853 50.1312 41.8843 45.3343 41.8843 39.6566C41.8843 33.9789 38.4853 29.1819 34.4661 29.1819Z" fill="url(#paint1_linear_53_37531)"/>
<path d="M34.4803 74.9966C33.008 74.9966 31.5405 74.8829 30.1061 74.6556C29.6232 74.5799 29.2918 74.1252 29.3675 73.6422C29.4433 73.1592 29.8978 72.8278 30.3854 72.9036C31.7298 73.1167 33.1074 73.2255 34.4708 73.2255H34.5987C35.091 73.2255 35.4886 73.6233 35.4886 74.111C35.4886 74.5987 35.091 75.0013 34.5987 75.0013H34.4898L34.4803 74.9966ZM38.8167 74.6462C38.3906 74.6462 38.0119 74.3383 37.9409 73.9027C37.8604 73.4197 38.1918 72.9651 38.6747 72.8846C40.0191 72.6668 41.3589 72.3353 42.656 71.9091C43.1246 71.7528 43.6217 72.0085 43.7779 72.4773C43.9342 72.9461 43.6785 73.4434 43.2146 73.5997C41.8275 74.0543 40.3978 74.4046 38.9634 74.6414C38.9161 74.6509 38.8688 74.6509 38.8214 74.6509L38.8167 74.6462ZM26.12 73.6754C26.03 73.6754 25.9354 73.6612 25.8454 73.6328C24.4726 73.1877 23.1091 72.6289 21.8026 71.9707C21.3623 71.7529 21.1871 71.2178 21.4049 70.7774C21.6227 70.3417 22.1576 70.1617 22.5979 70.3796C23.8287 70.9952 25.1069 71.5208 26.3946 71.9375C26.8632 72.0891 27.1141 72.591 26.9627 73.055C26.8396 73.4291 26.494 73.6706 26.12 73.6706V73.6754ZM46.8456 72.0085C46.5237 72.0085 46.2112 71.8286 46.055 71.5208C45.8325 71.0851 46.0077 70.55 46.4432 70.3274C47.6551 69.7118 48.8386 68.9968 49.9653 68.2012C50.3677 67.9171 50.9169 68.0167 51.2009 68.4144C51.485 68.8169 51.3855 69.3709 50.9879 69.6503C49.7902 70.4932 48.5309 71.2556 47.248 71.9091C47.1202 71.9754 46.9829 72.0038 46.8456 72.0038V72.0085ZM18.5597 69.8918C18.3846 69.8918 18.2047 69.8397 18.0532 69.7308C16.8744 68.9068 15.7288 67.9835 14.6589 66.9891C14.2991 66.6576 14.2802 66.094 14.6116 65.7341C14.9429 65.3742 15.5063 65.3554 15.8661 65.6868C16.8792 66.6244 17.9585 67.4957 19.071 68.2771C19.4734 68.5565 19.5728 69.1104 19.2888 69.513C19.1184 69.7592 18.839 69.8918 18.5597 69.8918ZM53.7715 67.1358C53.5348 67.1358 53.2981 67.0411 53.1229 66.8565C52.7868 66.4966 52.8058 65.9377 53.1655 65.6015C54.1597 64.6686 55.1112 63.6553 55.9918 62.5899C56.3042 62.211 56.8628 62.159 57.2415 62.4715C57.6203 62.784 57.6723 63.3428 57.3599 63.7216C56.432 64.8486 55.4284 65.9188 54.3774 66.899C54.207 67.06 53.9893 67.1405 53.7715 67.1405V67.1358ZM12.344 64.1431C12.0883 64.1431 11.8374 64.0341 11.6623 63.821C10.7438 62.7129 9.87752 61.5291 9.0964 60.3026C8.8313 59.8907 8.95438 59.3413 9.36624 59.0761C9.7781 58.811 10.3273 58.9341 10.5924 59.3461C11.3356 60.511 12.1546 61.6333 13.0304 62.6846C13.3428 63.0634 13.2908 63.6221 12.9168 63.9347C12.7511 64.072 12.5522 64.1384 12.3487 64.1384L12.344 64.1431ZM59.1636 60.6058C59.0026 60.6058 58.8369 60.5631 58.6902 60.4684C58.2783 60.2032 58.1552 59.6586 58.4156 59.2419C59.1494 58.0865 59.8216 56.8695 60.4181 55.6194C60.6311 55.179 61.1613 54.9895 61.6016 55.2026C62.0419 55.4157 62.2312 55.9461 62.0182 56.3865C61.3933 57.6982 60.6832 58.9815 59.9163 60.1937C59.7458 60.4589 59.4618 60.6058 59.1683 60.6058H59.1636ZM7.77561 57.0116C7.44422 57.0116 7.12704 56.8269 6.97556 56.5096C6.35066 55.2121 5.79205 53.8625 5.31864 52.4893C5.15769 52.0252 5.40386 51.5185 5.86779 51.3575C6.33173 51.1965 6.83827 51.4427 6.99449 51.9068C7.44422 53.2138 7.97444 54.5018 8.57093 55.733C8.78396 56.1734 8.59933 56.7038 8.15906 56.9169C8.03598 56.9784 7.90343 57.0068 7.77561 57.0068V57.0116ZM62.8182 52.9628C62.7235 52.9628 62.6241 52.9487 62.5295 52.9155C62.0655 52.7545 61.8194 52.2525 61.9756 51.7884C62.4206 50.4909 62.7946 49.1508 63.0928 47.8013C63.197 47.323 63.6704 47.0246 64.1485 47.124C64.6266 47.2282 64.9296 47.7018 64.8255 48.1801C64.513 49.596 64.1201 51.0023 63.6562 52.3614C63.5283 52.7307 63.1875 52.9628 62.8182 52.9628ZM5.00146 49.0088C4.59434 49.0088 4.22981 48.7293 4.13513 48.3126C3.82269 46.9109 3.58125 45.4667 3.42503 44.0272C3.37295 43.5394 3.72327 43.1037 4.21088 43.0469C4.69848 42.9806 5.13875 43.3452 5.19082 43.8329C5.34231 45.2062 5.56955 46.5843 5.86779 47.9244C5.97667 48.4027 5.6737 48.8762 5.19556 48.9851C5.12928 48.9993 5.063 49.0088 5.00146 49.0088ZM64.6408 44.6901C64.6077 44.6901 64.5793 44.6901 64.5462 44.6853C64.0585 44.6333 63.7035 44.1976 63.7556 43.7098C63.8976 42.3744 63.9686 41.0154 63.9686 39.661V39.5616C63.9686 39.0691 64.3663 38.6714 64.8586 38.6714C65.3509 38.6714 65.7486 39.0691 65.7486 39.5616V39.661C65.7486 41.0769 65.6729 42.5024 65.5261 43.8946C65.4788 44.3492 65.0906 44.6901 64.6456 44.6901H64.6408ZM4.07359 40.5656C3.58125 40.5656 3.18359 40.1867 3.18359 39.6942V39.661C3.18359 38.2262 3.25934 36.7773 3.41556 35.3661C3.46764 34.8784 3.91263 34.5279 4.39077 34.58C4.87838 34.6321 5.2287 35.0725 5.17662 35.5602C5.02987 36.9146 4.95886 38.2925 4.95886 39.6658C4.95886 40.1583 4.5612 40.5703 4.06886 40.5703L4.07359 40.5656ZM64.6172 36.2138C64.1722 36.2138 63.7887 35.8775 63.7366 35.4229C63.5851 34.0496 63.3532 32.6717 63.0502 31.3363C62.9413 30.858 63.2443 30.3845 63.7224 30.2756C64.2006 30.1667 64.674 30.4697 64.7829 30.948C65.1 32.3496 65.3415 33.794 65.5024 35.2335C65.5545 35.7213 65.2042 36.1617 64.7166 36.2138C64.6834 36.2138 64.6503 36.2185 64.6172 36.2185V36.2138ZM4.98726 32.1555C4.92572 32.1555 4.85944 32.1508 4.79317 32.1366C4.31503 32.0324 4.01205 31.5541 4.12093 31.0758C4.43338 29.66 4.83104 28.2535 5.29971 26.8944C5.46066 26.4304 5.96721 26.1842 6.42641 26.3452C6.89034 26.5062 7.13651 27.0081 6.97556 27.4722C6.53056 28.7696 6.15183 30.1146 5.85359 31.4594C5.76364 31.8714 5.39439 32.1555 4.98726 32.1555ZM62.7567 27.9457C62.3874 27.9457 62.0466 27.7184 61.9188 27.349C61.4643 26.0421 60.9341 24.7588 60.3329 23.5229C60.1198 23.0825 60.3045 22.5522 60.7447 22.3391C61.1897 22.126 61.7199 22.3106 61.9282 22.751C62.5531 24.0437 63.1165 25.3981 63.5899 26.7666C63.7508 27.2307 63.5047 27.7374 63.0455 27.8984C62.9508 27.9316 62.8514 27.9457 62.752 27.9457H62.7567ZM7.7472 24.1433C7.61938 24.1433 7.48683 24.1148 7.36375 24.058C6.92348 23.8449 6.73412 23.3145 6.94715 22.8741C7.57678 21.5624 8.28688 20.2838 9.05853 19.0716C9.32364 18.6596 9.87279 18.5366 10.2846 18.8017C10.6965 19.0669 10.8196 19.6162 10.5545 20.0281C9.82071 21.1788 9.14374 22.3959 8.54726 23.646C8.39577 23.9633 8.07859 24.148 7.7472 24.148V24.1433ZM59.0594 20.3218C58.7659 20.3218 58.4819 20.1797 58.3114 19.9145C57.5635 18.7496 56.7445 17.6273 55.8687 16.5808C55.5562 16.2019 55.6036 15.6432 55.9823 15.3307C56.361 15.0181 56.9196 15.0655 57.2321 15.4443C58.1505 16.5477 59.0168 17.7315 59.8074 18.9579C60.0725 19.3699 59.9541 19.9193 59.5423 20.1844C59.3955 20.2791 59.2298 20.3265 59.0641 20.3265L59.0594 20.3218ZM12.2966 17.0023C12.0978 17.0023 11.899 16.936 11.7333 16.7987C11.3545 16.4861 11.3025 15.9273 11.6149 15.5485C12.5475 14.4214 13.5511 13.356 14.6068 12.3758C14.9666 12.0396 15.53 12.0633 15.8613 12.4232C16.1975 12.7831 16.1738 13.3418 15.814 13.678C14.8151 14.6062 13.8636 15.6196 12.983 16.685C12.8079 16.8981 12.5522 17.007 12.2966 17.007V17.0023ZM53.6247 13.8248C53.4117 13.8248 53.1939 13.7491 53.0235 13.5881C52.0057 12.6505 50.9263 11.7792 49.8138 11.0073C49.4114 10.7279 49.312 10.1738 49.5913 9.77132C49.8706 9.36881 50.4245 9.26938 50.8269 9.54877C52.0057 10.3727 53.1513 11.2914 54.226 12.2858C54.5857 12.6173 54.6094 13.1808 54.278 13.5407C54.1029 13.7301 53.8662 13.8248 53.6247 13.8248ZM18.5029 11.2393C18.2236 11.2393 17.949 11.1067 17.7739 10.8605C17.4898 10.458 17.5893 9.90388 17.9917 9.6245C19.1894 8.7816 20.4534 8.02393 21.741 7.37519C22.1765 7.15736 22.7115 7.32787 22.934 7.76826C23.1565 8.20392 22.9766 8.73902 22.5411 8.96159C21.3291 9.57245 20.1456 10.2827 19.0142 11.0783C18.858 11.1872 18.6828 11.2393 18.5029 11.2393ZM46.6752 9.00413C46.5426 9.00413 46.4053 8.97574 46.2775 8.90945C45.0467 8.29385 43.7685 7.77294 42.4761 7.35623C42.0074 7.20469 41.7518 6.70754 41.9033 6.23874C42.0548 5.76993 42.5518 5.51424 43.0205 5.66577C44.3981 6.1109 45.7568 6.66494 47.0681 7.31842C47.5084 7.53625 47.6835 8.07135 47.4658 8.50701C47.3095 8.81954 46.9971 8.99939 46.6704 8.99939L46.6752 9.00413ZM26.0537 7.44155C25.6797 7.44155 25.3341 7.20476 25.2111 6.83066C25.0596 6.36659 25.3152 5.86459 25.7791 5.71306C27.1662 5.25846 28.6006 4.91281 30.035 4.68078C30.5179 4.60028 30.9724 4.93178 31.0529 5.41479C31.1286 5.8978 30.802 6.35235 30.3191 6.43285C28.9746 6.65068 27.6349 6.9727 26.333 7.39889C26.2431 7.4273 26.1484 7.44155 26.0585 7.44155H26.0537ZM38.6273 6.42337C38.58 6.42337 38.5374 6.42336 38.49 6.41389C37.1645 6.20553 35.8106 6.10139 34.4614 6.10139C33.969 6.10139 33.543 5.70356 33.543 5.21108C33.543 4.7186 33.9075 4.32562 34.3998 4.32562V5.21582L34.4472 4.32562C35.9005 4.32562 37.3444 4.43925 38.7599 4.65708C39.2427 4.73284 39.5741 5.18751 39.4984 5.67051C39.4321 6.11091 39.0534 6.42337 38.6226 6.42337H38.6273Z" fill="#8C3D96"/>
<path d="M34.4425 54.0427C32.9371 54.0379 31.4695 53.6212 30.0777 52.8067C29.6564 52.5604 29.5144 52.0159 29.7605 51.5898C30.0114 51.1683 30.5559 51.0262 30.9772 51.2724C32.0897 51.9259 33.259 52.2621 34.4472 52.2621C34.9396 52.2621 35.3325 52.6647 35.3325 53.1525C35.3325 53.6402 34.9348 54.0379 34.4425 54.0379V54.0427ZM38.367 52.9535C38.0593 52.9535 37.7611 52.7973 37.6001 52.5131C37.3539 52.087 37.496 51.5471 37.922 51.3008C38.9493 50.7042 39.8914 49.8565 40.7198 48.7911C41.0181 48.4028 41.5767 48.3318 41.9649 48.6349C42.3531 48.9332 42.4241 49.4919 42.1211 49.8802C41.1554 51.1304 40.0381 52.1248 38.812 52.8399C38.67 52.9204 38.5185 52.9582 38.367 52.9582V52.9535ZM27.4835 50.1834C27.2184 50.1834 26.9533 50.065 26.7781 49.8377C25.9165 48.7154 25.2017 47.4321 24.6572 46.0209C24.4821 45.5616 24.7093 45.0501 25.1638 44.8749C25.623 44.695 26.1343 44.927 26.3094 45.3816C26.7923 46.6318 27.4219 47.7683 28.1794 48.7533C28.4776 49.1416 28.4066 49.7003 28.0184 49.9986C27.8575 50.1217 27.6681 50.1834 27.4787 50.1834H27.4835ZM43.423 46.6318C43.3141 46.6318 43.2052 46.6128 43.1011 46.5702C42.6418 46.3903 42.4193 45.8789 42.5945 45.4195C43.0584 44.2262 43.3756 42.9524 43.5366 41.6407C43.5981 41.153 44.0337 40.8119 44.526 40.8688C45.0136 40.9303 45.3592 41.3708 45.2976 41.8585C45.1178 43.317 44.7674 44.7328 44.2467 46.0635C44.1094 46.4139 43.7733 46.6318 43.4182 46.6318H43.423ZM24.501 42.5925C24.056 42.5925 23.6726 42.261 23.6205 41.8111C23.5353 41.1008 23.4927 40.3763 23.4927 39.6612C23.4927 38.9462 23.5353 38.2028 23.6205 37.4878C23.6773 37 24.1223 36.659 24.6099 36.7111C25.0975 36.7679 25.4431 37.2131 25.3863 37.7008C25.3105 38.3496 25.2679 39.0077 25.2679 39.666C25.2679 40.3242 25.3058 40.9682 25.3816 41.6075C25.4384 42.0953 25.0928 42.5357 24.6052 42.5925C24.5673 42.5925 24.5342 42.5973 24.501 42.5973V42.5925ZM44.4266 38.52C43.9816 38.52 43.5981 38.1886 43.5461 37.734C43.3898 36.4223 43.0774 35.1485 42.6182 33.9504C42.443 33.4911 42.6703 32.9796 43.1295 32.8044C43.5887 32.6292 44.0999 32.8565 44.2751 33.3158C44.7864 34.6512 45.1367 36.0672 45.3071 37.5257C45.3639 38.0134 45.0183 38.4537 44.5307 38.5106C44.4976 38.5106 44.4597 38.5153 44.4266 38.5153V38.52ZM25.4952 34.4807C25.391 34.4807 25.2821 34.4619 25.1733 34.4192C24.7141 34.244 24.4868 33.7278 24.6667 33.2684C25.2111 31.8573 25.926 30.5741 26.7923 29.4566C27.0905 29.0683 27.6492 28.9972 28.0374 29.2955C28.4255 29.5938 28.4966 30.1527 28.1983 30.541C27.4361 31.5259 26.8065 32.6624 26.3236 33.9078C26.1863 34.2582 25.8502 34.476 25.4952 34.476V34.4807ZM41.4583 30.9245C41.1932 30.9245 40.9281 30.8061 40.753 30.5788C39.9292 29.5086 38.9966 28.6563 37.9694 28.0502C37.548 27.7992 37.406 27.2546 37.6569 26.8331C37.9078 26.4117 38.4522 26.2695 38.8736 26.5205C40.0949 27.2403 41.2027 28.2442 42.1637 29.4991C42.462 29.8874 42.3862 30.4462 41.998 30.7446C41.8371 30.8677 41.6477 30.9292 41.4583 30.9292V30.9245ZM30.5417 28.1496C30.2387 28.1496 29.9404 27.9932 29.7747 27.7091C29.5286 27.2829 29.6706 26.7432 30.0919 26.4922C31.4837 25.6777 32.9513 25.2657 34.4614 25.2657C34.9538 25.2657 35.3704 25.6635 35.3704 26.156C35.3704 26.6485 34.9964 27.0462 34.504 27.0462H34.4567C33.2685 27.0462 32.0992 27.3777 30.9819 28.0265C30.8399 28.107 30.6884 28.1496 30.5369 28.1496H30.5417Z" fill="#8C3D96"/>
<path d="M34.4662 70.0242C19.9612 70.0242 8.15448 56.4004 8.15448 39.6608C8.15448 22.9212 19.9564 9.29755 34.4662 9.29755C48.9761 9.29755 60.778 22.9212 60.778 39.6608C60.778 56.4004 48.9761 70.0242 34.4662 70.0242ZM34.4662 22.0784C26.6551 22.0784 20.302 29.9676 20.302 39.6562C20.302 49.3448 26.6551 57.2339 34.4662 57.2339C42.2774 57.2339 48.6305 49.3448 48.6305 39.6562C48.6305 29.9676 42.2774 22.0784 34.4662 22.0784Z" fill="url(#paint2_linear_53_37531)"/>
<defs>
<linearGradient id="paint0_linear_53_37531" x1="0.0591698" y1="39.6609" x2="68.8684" y2="39.6609" gradientUnits="userSpaceOnUse">
<stop stop-color="#F1F2F2"/>
<stop offset="1" stop-color="#D1D3D4"/>
</linearGradient>
<linearGradient id="paint1_linear_53_37531" x1="1.40833" y1="39.6613" x2="67.5191" y2="39.6613" gradientUnits="userSpaceOnUse">
<stop stop-color="#D1D3D4"/>
<stop offset="1" stop-color="#F1F2F2"/>
</linearGradient>
<linearGradient id="paint2_linear_53_37531" x1="8.15448" y1="39.6609" x2="60.7733" y2="39.6609" gradientUnits="userSpaceOnUse">
<stop stop-color="#9155A6"/>
<stop offset="0.22" stop-color="#8E479D"/>
<stop offset="0.52" stop-color="#8C3F97"/>
<stop offset="1" stop-color="#8C3D96"/>
</linearGradient>
</defs>
</svg>
