<svg width="71" height="89" viewBox="0 0 71 89" fill="none" xmlns="http://www.w3.org/2000/svg">
<g style="mix-blend-mode:multiply">
<path opacity="0.03" d="M24.5154 88.3727C16.709 88.3727 10.3607 81.6863 10.3607 73.4657V25.5199C10.3607 17.2992 16.709 10.6129 24.5154 10.6129C24.5959 10.6129 24.6858 10.6129 24.7663 10.6129C24.8468 10.6129 24.9368 10.6129 25.0172 10.6129H43.2291C58.0087 10.6129 70.0332 23.2752 70.0332 38.8357C70.0332 54.3962 58.0087 67.0587 43.2291 67.0587H38.6655V73.4609C38.6655 81.6816 32.3171 88.3679 24.5107 88.3679L24.5154 88.3727Z" fill="#FBFBFB"/>
<path opacity="0.06" d="M24.1936 88.0221C16.3919 88.0221 10.0483 81.3405 10.0483 73.1293V25.1835C10.0483 16.9723 16.3919 10.2906 24.1936 10.2906C24.2741 10.2906 24.3688 10.2906 24.4445 10.2906C24.525 10.2906 24.6197 10.2906 24.6954 10.2906H42.9073C57.6822 10.2906 69.7019 22.9483 69.7019 38.5041C69.7019 54.0598 57.6822 66.7176 42.9073 66.7176H38.3342V73.134C38.3342 81.3452 31.9906 88.0268 24.1889 88.0268L24.1936 88.0221Z" fill="#F7F7F7"/>
<path opacity="0.1" d="M23.867 87.6765C16.0747 87.6765 9.73114 80.9996 9.73114 72.7932V24.8473C9.73114 16.6409 16.07 9.96393 23.867 9.96393C23.9427 9.96393 24.0421 9.96393 24.1179 9.96393C24.1936 9.96393 24.293 9.96393 24.3735 9.96393H42.5853C57.3555 9.96393 69.3658 22.6169 69.3658 38.1632C69.3658 53.7095 57.3508 66.3625 42.5853 66.3625H37.9981V72.7884C37.9981 80.9949 31.6592 87.6717 23.8622 87.6717L23.867 87.6765Z" fill="#F3F3F3"/>
<path opacity="0.13" d="M23.545 87.3265C15.7575 87.3265 9.42334 80.6543 9.42334 72.4573V24.5115C9.42334 16.3098 15.7575 9.6424 23.545 9.6424C23.6207 9.6424 23.7249 9.6424 23.7959 9.6424C23.8716 9.6424 23.9758 9.6424 24.0515 9.6424H42.2633C57.0241 9.6424 69.0343 22.2859 69.0343 37.8322C69.0343 53.3785 57.0241 66.022 42.2633 66.022H37.6666V72.462C37.6666 80.6637 31.3325 87.3312 23.545 87.3312V87.3265Z" fill="#EFEFEF"/>
<path opacity="0.16" d="M23.2184 86.9801C15.4357 86.9801 9.10626 80.3126 9.10626 72.1204V24.1746C9.10626 15.9824 15.4357 9.315 23.2184 9.315C23.2894 9.315 23.3983 9.315 23.4693 9.315C23.5403 9.315 23.654 9.315 23.725 9.315H41.9368C56.6928 9.315 68.6983 21.9538 68.6983 37.4906C68.6983 53.0274 56.6928 65.6661 41.9368 65.6661H37.3306V72.1157C37.3306 80.3079 31.0012 86.9754 23.2184 86.9754V86.9801Z" fill="#EBEBEB"/>
<path opacity="0.19" d="M22.8918 86.6346C15.1185 86.6346 8.78906 79.9719 8.78906 71.7891V23.8433C8.78906 15.6558 15.1137 8.9978 22.8918 8.9978C22.958 8.9978 23.0764 8.9978 23.1427 8.9978C23.2089 8.9978 23.3273 8.9978 23.3983 8.9978H41.6101C56.3614 8.9978 68.3622 21.6318 68.3622 37.1639C68.3622 52.696 56.3614 65.3301 41.6101 65.3301H36.9897V71.7939C36.9897 79.9813 30.665 86.6394 22.887 86.6394L22.8918 86.6346Z" fill="#E6E7E7"/>
<path opacity="0.23" d="M22.5698 86.2847C14.8012 86.2847 8.48126 79.6267 8.48126 71.4486V23.5028C8.48126 15.3201 14.8012 8.66681 22.5698 8.66681C22.636 8.66681 22.7544 8.66681 22.8207 8.66681C22.8869 8.66681 23.01 8.66681 23.0763 8.66681H41.2881C56.0346 8.66681 68.026 21.2961 68.026 36.8234C68.026 52.3508 56.0299 64.9801 41.2881 64.9801H36.6582V71.4534C36.6582 79.6361 30.3383 86.2894 22.5698 86.2894V86.2847Z" fill="#E2E3E3"/>
<path opacity="0.26" d="M22.2431 85.9389C14.4793 85.9389 8.16406 79.2905 8.16406 71.1125V23.1667C8.16406 14.9934 14.4793 8.34015 22.2431 8.34015C22.3046 8.34015 22.4324 8.34015 22.494 8.34015C22.5555 8.34015 22.6881 8.34015 22.7496 8.34015H40.9615C55.6985 8.34015 67.6898 20.9647 67.6898 36.4825C67.6898 52.0004 55.6985 64.625 40.9615 64.625H36.3221V71.1078C36.3221 79.281 30.0069 85.9343 22.2431 85.9343V85.9389Z" fill="#DEDFE0"/>
<path opacity="0.29" d="M21.9213 85.5925C14.1622 85.5925 7.85175 78.9489 7.85175 70.7803V22.8345C7.85175 14.666 14.1622 8.02222 21.9213 8.02222C21.9828 8.02222 22.1107 8.02222 22.1722 8.02222C22.2337 8.02222 22.3663 8.02222 22.4278 8.02222H40.6397C55.372 8.02222 67.3586 20.642 67.3586 36.1551C67.3586 51.6683 55.372 64.288 40.6397 64.288H35.9861V70.785C35.9861 78.9535 29.6756 85.5973 21.9166 85.5973L21.9213 85.5925Z" fill="#DADBDC"/>
<path opacity="0.32" d="M21.5946 85.2428C13.845 85.2428 7.53448 78.6038 7.53448 70.4399V22.4941C7.53448 14.3303 13.8402 7.69128 21.5946 7.69128C21.6514 7.69128 21.7887 7.69128 21.8455 7.69128C21.9023 7.69128 22.0443 7.69128 22.1011 7.69128H40.3129C55.0405 7.69128 67.0176 20.3064 67.0176 35.8101C67.0176 51.3138 55.0358 63.9288 40.3129 63.9288H35.6499V70.4352C35.6499 78.599 29.3442 85.238 21.5898 85.238L21.5946 85.2428Z" fill="#D6D7D8"/>
<path opacity="0.35" d="M21.2728 84.8971C13.5279 84.8971 7.22687 78.2628 7.22687 70.1085V22.1626C7.22687 14.0083 13.5279 7.37402 21.2728 7.37402C21.3296 7.37402 21.4668 7.37402 21.5237 7.37402C21.5805 7.37402 21.7225 7.37402 21.7793 7.37402H39.9911C54.7092 7.37402 66.6864 19.9844 66.6864 35.4833C66.6864 50.9823 54.7092 63.5926 39.9911 63.5926H35.3186V70.1132C35.3186 78.2675 29.0176 84.9018 21.2728 84.9018V84.8971Z" fill="#D2D3D4"/>
<path opacity="0.39" d="M20.9461 84.5464C13.2059 84.5464 6.90967 77.9169 6.90967 69.7673V21.8215C6.90967 13.6719 13.2059 7.04236 20.9461 7.04236C20.9982 7.04236 21.1449 7.04236 21.197 7.04236C21.2491 7.04236 21.4006 7.04236 21.4526 7.04236H39.6645C54.3778 7.04236 66.3502 19.648 66.3502 35.1375C66.3502 50.6269 54.3778 63.2325 39.6645 63.2325H34.9825V69.7626C34.9825 77.9122 28.6862 84.5417 20.9461 84.5417V84.5464Z" fill="#CECFD0"/>
<path opacity="0.42" d="M20.6241 84.2008C12.8887 84.2008 6.59717 77.576 6.59717 69.4312V21.4854C6.59717 13.3405 12.8887 6.7157 20.6241 6.7157C20.6715 6.7157 20.8277 6.7157 20.875 6.7157C20.9224 6.7157 21.0833 6.7157 21.1307 6.7157H39.3425C54.0511 6.7157 66.0141 19.3165 66.0141 34.8012C66.0141 50.2859 54.0464 62.8868 39.3425 62.8868H34.6463V69.4264C34.6463 77.5713 28.3548 84.1961 20.6194 84.1961L20.6241 84.2008Z" fill="#CACBCC"/>
<path opacity="0.45" d="M20.2974 83.8553C12.5714 83.8553 6.28461 77.2353 6.28461 69.0999V21.154C6.28461 13.0186 12.5714 6.3985 20.2974 6.3985C20.3447 6.3985 20.5009 6.3985 20.5483 6.3985C20.5956 6.3985 20.7566 6.3985 20.8039 6.3985H39.0157C53.7196 6.3985 65.6778 18.9947 65.6778 34.4746C65.6778 49.9546 53.7149 62.5508 39.0157 62.5508H34.3101V69.1046C34.3101 77.24 28.0233 83.86 20.2974 83.86V83.8553Z" fill="#C6C7C8"/>
<path opacity="0.48" d="M19.9756 83.5046C12.2544 83.5046 5.97229 76.8893 5.97229 68.7587V20.8128C5.97229 12.6822 12.2544 6.06677 19.9756 6.06677C20.0182 6.06677 20.1839 6.06677 20.2265 6.06677C20.2691 6.06677 20.4395 6.06677 20.4821 6.06677H38.6939C53.3884 6.06677 65.3466 18.6534 65.3466 34.1287C65.3466 49.604 53.3884 62.1906 38.6939 62.1906H33.9788V68.7539C33.9788 76.8846 27.6968 83.4999 19.9756 83.4999V83.5046Z" fill="#C2C3C4"/>
<path opacity="0.52" d="M19.6489 83.159C11.9324 83.159 5.65509 76.5483 5.65509 68.4271V20.4813C5.65509 12.3554 11.9324 5.74957 19.6489 5.74957C19.6915 5.74957 19.8572 5.74957 19.8998 5.74957C19.9424 5.74957 20.1176 5.74957 20.1554 5.74957H38.3673C53.057 5.74957 65.0104 18.3315 65.0104 33.802C65.0104 49.2725 53.057 61.8545 38.3673 61.8545H33.638V68.4319C33.638 76.5578 27.3606 83.1637 19.6442 83.1637L19.6489 83.159Z" fill="#BDBEC0"/>
<path opacity="0.55" d="M19.3222 82.8083C11.6105 82.8083 5.34259 76.2024 5.34259 68.0859V20.1401C5.34259 12.0236 11.6152 5.41785 19.3222 5.41785C19.3601 5.41785 19.5352 5.41785 19.5731 5.41785C19.611 5.41785 19.7909 5.41785 19.8287 5.41785H38.0406C52.7256 5.41785 64.6695 17.995 64.6695 33.4561C64.6695 48.9171 52.7256 61.4943 38.0406 61.4943H33.3018V68.0812C33.3018 76.1976 27.0292 82.8036 19.3222 82.8036V82.8083Z" fill="#B9BABC"/>
<path opacity="0.58" d="M19.0004 82.4628C11.2981 82.4628 5.03027 75.8616 5.03027 67.7546V19.8088C5.03027 11.6971 11.2981 5.10065 19.0004 5.10065C19.0383 5.10065 19.2134 5.10065 19.2513 5.10065C19.2845 5.10065 19.4738 5.10065 19.507 5.10065H37.7188C52.399 5.10065 64.3383 17.6732 64.3383 33.1295C64.3383 48.5858 52.399 61.1583 37.7188 61.1583H32.9706V67.7594C32.9706 75.8711 26.7027 82.4675 19.0004 82.4675V82.4628Z" fill="#B5B6B8"/>
<path opacity="0.61" d="M18.6737 82.1171C10.9761 82.1171 4.71301 75.5255 4.71301 67.4185V19.4727C4.71301 11.3657 10.9761 4.77399 18.6737 4.77399C18.7068 4.77399 18.8914 4.77399 18.9199 4.77399C18.953 4.77399 19.1424 4.77399 19.1755 4.77399H37.3873C52.0581 4.77399 63.9973 17.3417 63.9973 32.7933C63.9973 48.2448 52.0628 60.8126 37.3873 60.8126H32.6249V67.4232C32.6249 75.5302 26.3618 82.1219 18.6642 82.1219L18.6737 82.1171Z" fill="#B1B2B4"/>
<path opacity="0.65" d="M18.3517 81.7665C10.6589 81.7665 4.40051 75.1796 4.40051 67.0773V19.1315C4.40051 11.034 10.6589 4.44232 18.3517 4.44232C18.3801 4.44232 18.5695 4.44232 18.5979 4.44232C18.6263 4.44232 18.8251 4.44232 18.8535 4.44232H37.0654C51.7314 4.44232 63.6612 17.0053 63.6612 32.4474C63.6612 47.8895 51.7314 60.4525 37.0654 60.4525H32.2935V67.0726C32.2935 75.1701 26.0351 81.7618 18.3422 81.7618L18.3517 81.7665Z" fill="#ADAEB0"/>
<path opacity="0.68" d="M18.0252 81.4208C10.3419 81.4208 4.0882 74.8386 4.0882 66.7459V18.8C4.0882 10.7072 10.3419 4.12506 18.0252 4.12506C18.0536 4.12506 18.2477 4.12506 18.2714 4.12506C18.2998 4.12506 18.5033 4.12506 18.5317 4.12506H36.7436C51.4049 4.12506 63.3299 16.6833 63.3299 32.1206C63.3299 47.558 51.4049 60.1163 36.7436 60.1163H31.9622V66.7506C31.9622 74.8434 25.7085 81.4256 18.0252 81.4256V81.4208Z" fill="#A9AAAC"/>
<path opacity="0.71" d="M17.7032 81.071C10.0246 81.071 3.7757 74.4934 3.7757 66.4054V18.4596C3.7757 10.3715 10.0246 3.79407 17.7032 3.79407C17.7269 3.79407 17.9257 3.79407 17.9494 3.79407C17.9731 3.79407 18.1814 3.79407 18.2098 3.79407H36.4216C51.0734 3.79407 62.9985 16.3476 62.9985 31.7755C62.9985 47.2034 51.0782 59.757 36.4216 59.757H31.6308V66.4007C31.6308 74.4888 25.3818 81.0662 17.7032 81.0662V81.071Z" fill="#A5A6A8"/>
<path opacity="0.74" d="M17.3765 80.7253C9.70263 80.7253 3.45844 74.1525 3.45844 66.074V18.1281C3.45844 10.0496 9.70263 3.47687 17.3765 3.47687C17.4002 3.47687 17.6037 3.47687 17.6227 3.47687C17.6463 3.47687 17.8594 3.47687 17.883 3.47687H36.0949C50.742 3.47687 62.6623 16.0257 62.6623 31.4488C62.6623 46.872 50.7467 59.4207 36.0949 59.4207H31.2898V66.0787C31.2898 74.1573 25.0456 80.73 17.3718 80.73L17.3765 80.7253Z" fill="#A1A2A4"/>
<path opacity="0.77" d="M17.0547 80.3789C9.38554 80.3789 3.15082 73.811 3.15082 65.7371V17.7913C3.15082 9.71748 9.39028 3.14954 17.0547 3.14954C17.0736 3.14954 17.2819 3.14954 17.3009 3.14954C17.3198 3.14954 17.5423 3.14954 17.5612 3.14954H35.7731C50.4154 3.14954 62.3263 15.6936 62.3263 31.1073C62.3263 46.521 50.4154 59.0649 35.7731 59.0649H30.9585V65.7324C30.9585 73.8062 24.7191 80.3742 17.0547 80.3742V80.3789Z" fill="#9D9EA1"/>
<path opacity="0.81" d="M16.728 80.029C9.06834 80.029 2.83362 73.4658 2.83362 65.3967V17.4509C2.83362 9.38175 9.06834 2.81854 16.728 2.81854C16.7422 2.81854 16.96 2.81854 16.9742 2.81854C16.9884 2.81854 17.2156 2.81854 17.2346 2.81854H35.4464C50.084 2.81854 61.9901 15.3579 61.9901 30.7668C61.9901 46.1758 50.084 58.715 35.4464 58.715H30.6224V65.3919C30.6224 73.461 24.3877 80.0242 16.728 80.0242V80.029Z" fill="#999A9D"/>
<path opacity="0.84" d="M16.406 79.6835C8.75111 79.6835 2.52112 73.125 2.52112 65.0654V17.1195C2.52112 9.05991 8.75111 2.50134 16.406 2.50134C16.4202 2.50134 16.638 2.50134 16.6522 2.50134C16.6664 2.50134 16.8984 2.50134 16.9126 2.50134H35.1244C49.7526 2.50134 61.6587 15.0359 61.6587 30.4401C61.6587 45.8444 49.7573 58.3789 35.1244 58.3789H30.2862V65.0701C30.2862 73.1297 24.0562 79.6882 16.4013 79.6882L16.406 79.6835Z" fill="#949699"/>
<path opacity="0.87" d="M16.0795 79.3378C8.42926 79.3378 2.20874 72.7841 2.20874 64.7292V16.7834C2.20874 8.72851 8.434 2.17468 16.0795 2.17468C16.0889 2.17468 16.3162 2.17468 16.3256 2.17468C16.3351 2.17468 16.5765 2.17468 16.586 2.17468H34.7978C49.4213 2.17468 61.3179 14.6998 61.3179 30.0993C61.3179 45.4988 49.4213 58.0238 34.7978 58.0238H29.9502V64.7245C29.9502 72.7794 23.7249 79.3331 16.0795 79.3331V79.3378Z" fill="#909295"/>
<path opacity="0.9" d="M15.7528 78.9871C8.10733 78.9871 1.89154 72.438 1.89154 64.3926V16.4468C1.89154 8.39664 8.11206 1.85242 15.7528 1.85242C15.7623 1.85242 15.9895 1.85242 15.999 1.85242C16.0084 1.85242 16.2499 1.85242 16.2593 1.85242H34.4712C49.0899 1.85242 60.9818 14.3728 60.9818 29.7675C60.9818 45.1623 49.0899 57.6826 34.4712 57.6826H29.614V64.3974C29.614 72.4475 23.3935 78.9919 15.7528 78.9919V78.9871Z" fill="#8C8E91"/>
<path opacity="0.94" d="M15.4308 78.6415C7.79483 78.6415 1.57904 72.0972 1.57904 64.0565V16.1107C1.57904 8.06997 7.79483 1.52576 15.4308 1.52576C15.4356 1.52576 15.6723 1.52576 15.677 1.52576C15.6817 1.52576 15.9326 1.52576 15.9374 1.52576H34.1492C48.7632 1.52576 60.6503 14.0414 60.6503 29.4266C60.6503 44.8119 48.7632 57.3275 34.1492 57.3275H29.2779V64.0517C29.2779 72.0924 23.0621 78.6368 15.4261 78.6368L15.4308 78.6415Z" fill="#888A8D"/>
<path opacity="0.97" d="M15.1042 78.2909C7.47289 78.2909 1.26184 71.7513 1.26184 63.7201V15.7743C1.26184 7.73834 7.47289 1.20349 15.1042 1.20349C15.1042 1.20349 15.3456 1.20349 15.3503 1.20349C15.3503 1.20349 15.606 1.20349 15.6107 1.20349H33.8225C48.427 1.20349 60.3095 13.7145 60.3095 29.095C60.3095 44.4756 48.427 56.9864 33.8225 56.9864H28.9417V63.7249C28.9417 71.7608 22.7307 78.2957 15.0994 78.2957L15.1042 78.2909Z" fill="#848689"/>
<path d="M14.7823 77.9453C7.15581 77.9453 0.954224 71.4152 0.954224 63.384V15.4382C0.954224 7.40693 7.15581 0.876831 14.7823 0.876831H15.0285H15.2889H33.5007C48.1005 0.876831 59.9782 13.3829 59.9782 28.7587C59.9782 44.1346 48.1005 56.6408 33.5007 56.6408H28.6105V63.3887C28.6105 71.4199 22.4089 77.95 14.7823 77.95V77.9453Z" fill="#808285"/>
</g>
<path d="M14.7824 78.3009C6.97124 78.3009 0.618164 71.6098 0.618164 63.3844V15.4386C0.618164 7.2132 6.97124 0.522095 14.7824 0.522095C14.8676 0.522095 14.9528 0.522095 15.038 0.522095C15.1232 0.522095 15.2085 0.522095 15.2889 0.522095H33.5008C48.2852 0.522095 60.3143 13.1893 60.3143 28.7545C60.3143 44.3198 48.2852 56.9869 33.5008 56.9869H28.9466V63.3797C28.9466 71.605 22.5936 78.2961 14.7824 78.2961V78.3009Z" fill="url(#paint0_linear_53_37489)"/>
<path d="M14.7824 76.8797C7.71453 76.8797 1.96741 70.8232 1.96741 63.3839V15.4381C1.96741 7.99876 7.71926 1.9422 14.7824 1.9422C14.8677 1.9422 14.9529 1.9422 15.0381 1.9422C15.1233 1.9422 15.2085 1.9422 15.289 1.9422H33.5008C47.542 1.9422 58.9652 13.9701 58.9652 28.754C58.9652 43.5379 47.542 55.5657 33.5008 55.5657H27.5975V63.3791C27.5975 70.8184 21.8456 76.875 14.7824 76.875V76.8797Z" fill="url(#paint1_linear_53_37489)"/>
<path d="M24.9369 55.5709C24.4446 55.5709 24.0516 55.1731 24.0516 54.6807V52.5497C24.0516 52.0573 24.4493 51.6594 24.9369 51.6594H27.0672C27.5596 51.6594 27.9525 52.0573 27.9525 52.5497C27.9525 53.0422 27.5548 53.4399 27.0672 53.4399H25.8269V54.6807C25.8269 55.1731 25.4292 55.5709 24.9416 55.5709H24.9369Z" fill="#F15A29"/>
<path d="M14.7824 74.749C14.3942 74.749 13.9965 74.7254 13.6083 74.6828C13.1207 74.6307 12.7704 74.1903 12.8225 73.7025C12.8745 73.2148 13.3101 72.8548 13.8024 72.9164C15.1137 73.0584 16.444 72.9164 17.6843 72.4855C18.1483 72.3245 18.6548 72.5754 18.811 73.0395C18.972 73.5036 18.7211 74.0103 18.2571 74.1666C17.1352 74.5502 15.9659 74.7443 14.7776 74.7443L14.7824 74.749ZM9.6412 73.3047C9.48497 73.3047 9.32402 73.2621 9.18199 73.1769C7.85646 72.3718 6.68242 71.2637 5.78769 69.971C5.50838 69.5685 5.6078 69.0145 6.01019 68.7351C6.41258 68.4557 6.96647 68.5552 7.24577 68.9577C7.99849 70.0468 8.9879 70.9797 10.1004 71.6568C10.517 71.9125 10.6543 72.4571 10.3986 72.8786C10.233 73.1532 9.93944 73.3047 9.6412 73.3047ZM21.6467 71.9883C21.41 71.9883 21.178 71.8936 21.0029 71.709C20.6668 71.3538 20.681 70.7902 21.036 70.454C22.0018 69.5401 22.7545 68.451 23.2752 67.2151C23.4646 66.7652 23.9853 66.5521 24.4398 66.7415C24.8895 66.931 25.1026 67.4518 24.9132 67.9064C24.293 69.3649 23.403 70.6576 22.2574 71.7373C22.087 71.8983 21.8645 71.9788 21.6467 71.9788V71.9883ZM4.83615 66.3959C4.41955 66.3959 4.0503 66.1023 3.96509 65.6808C3.8136 64.9279 3.73785 64.156 3.73785 63.3841V61.1869C3.73785 60.6945 4.13551 60.2966 4.62785 60.2966C5.12019 60.2966 5.51785 60.6945 5.51785 61.1869V63.3841C5.51785 64.0423 5.58413 64.6959 5.71195 65.3304C5.80663 65.8134 5.49892 66.2775 5.01604 66.3769C4.95924 66.3864 4.89769 66.3959 4.84088 66.3959H4.83615ZM24.9369 64.2365C24.4445 64.2365 24.0516 63.8387 24.0516 63.3462V59.0133C24.0516 58.5209 24.4493 58.123 24.9369 58.123C25.4245 58.123 25.8221 58.5209 25.8221 59.0133V63.3462C25.8221 63.8387 25.4245 64.2365 24.9369 64.2365ZM4.62785 57.749C4.13551 57.749 3.73785 57.3512 3.73785 56.8587V52.5259C3.73785 52.0334 4.13551 51.6356 4.62785 51.6356C5.12019 51.6356 5.51785 52.0334 5.51785 52.5259V56.8587C5.51785 57.3512 5.12019 57.749 4.62785 57.749ZM33.5197 53.4445H31.4746C30.9822 53.4445 30.5893 53.0467 30.5893 52.5542C30.5893 52.0617 30.987 51.664 31.4746 51.664H33.5007C34.2203 51.683 34.9778 51.6261 35.7068 51.5504C36.1944 51.4983 36.6299 51.8534 36.682 52.3411C36.7341 52.8289 36.379 53.2646 35.8914 53.3167C35.1056 53.3972 34.3055 53.4398 33.5197 53.4398V53.4445ZM40.0337 52.45C39.655 52.45 39.3047 52.2086 39.1863 51.8251C39.0396 51.3563 39.2999 50.859 39.7686 50.7122C41.0847 50.3002 42.3676 49.7557 43.589 49.0927C44.0198 48.856 44.5594 49.017 44.7914 49.4479C45.0234 49.8788 44.8672 50.4187 44.4364 50.6507C43.1156 51.3705 41.7238 51.9624 40.2988 52.4075C40.2089 52.4359 40.1236 52.4453 40.0337 52.4453V52.45ZM4.62785 49.088C4.13551 49.088 3.73785 48.6902 3.73785 48.1977V43.8648C3.73785 43.3724 4.13551 42.9745 4.62785 42.9745C5.12019 42.9745 5.51785 43.3724 5.51785 43.8648V48.1977C5.51785 48.6902 5.12019 49.088 4.62785 49.088ZM47.5987 48.3445C47.3431 48.3445 47.0874 48.2356 46.9123 48.0225C46.5998 47.6437 46.6566 47.0849 47.0353 46.7723C48.1005 45.8963 49.0946 44.9113 49.9894 43.8459C50.3066 43.4718 50.8652 43.4197 51.2392 43.737C51.6132 44.0542 51.6652 44.613 51.3481 44.9871C50.3823 46.1378 49.3124 47.1986 48.162 48.1456C47.9963 48.283 47.7975 48.3492 47.5987 48.3492V48.3445ZM53.1375 41.7481C52.9908 41.7481 52.8393 41.7103 52.6972 41.6345C52.2712 41.393 52.1197 40.8484 52.3659 40.4222C53.0476 39.2194 53.6299 37.9409 54.0891 36.6292C54.25 36.1651 54.7566 35.9236 55.2205 36.0846C55.6844 36.2456 55.9259 36.7523 55.7649 37.2163C55.2678 38.6322 54.6429 40.0008 53.9092 41.2983C53.7482 41.5872 53.4452 41.7481 53.1375 41.7481ZM4.63259 40.4269C4.14025 40.4269 3.74259 40.0291 3.74259 39.5366V35.2038C3.74259 34.7113 4.14025 34.3136 4.63259 34.3136C5.12493 34.3136 5.52259 34.7113 5.52259 35.2038V39.5366C5.52259 40.0291 5.12493 40.4269 4.63259 40.4269ZM55.9969 33.6174C55.9495 33.6174 55.9022 33.6175 55.8548 33.608C55.372 33.5275 55.0406 33.0729 55.1211 32.5898C55.3246 31.335 55.4288 30.0469 55.4288 28.7636V28.4322C55.4193 27.9397 55.8122 27.5372 56.2999 27.5325C56.8253 27.5183 57.1946 27.916 57.1993 28.4085V28.7684C57.1993 30.1464 57.0904 31.5292 56.8727 32.8788C56.8017 33.3144 56.4277 33.6269 55.9969 33.6269V33.6174ZM4.63259 31.7612C4.14025 31.7612 3.74259 31.3634 3.74259 30.871V26.538C3.74259 26.0455 4.14025 25.6478 4.63259 25.6478C5.12493 25.6478 5.52259 26.0455 5.52259 26.538V30.871C5.52259 31.3634 5.12493 31.7612 4.63259 31.7612ZM55.8738 24.999C55.4572 24.999 55.0832 24.7007 55.0027 24.2792C54.7423 22.9154 54.3589 21.5659 53.8618 20.2684C53.6867 19.809 53.9139 19.2976 54.3731 19.1224C54.8323 18.9472 55.3436 19.1746 55.5187 19.6339C56.0537 21.0261 56.4655 22.475 56.7449 23.943C56.8348 24.426 56.5223 24.8901 56.0395 24.98C55.9827 24.9895 55.9259 24.9943 55.8738 24.9943V24.999ZM4.63259 23.0954C4.14025 23.0954 3.74259 22.6977 3.74259 22.2052V17.8722C3.74259 17.3797 4.14025 16.982 4.63259 16.982C5.12493 16.982 5.52259 17.3797 5.52259 17.8722V22.2052C5.52259 22.6977 5.12493 23.0954 4.63259 23.0954ZM52.7919 16.9536C52.4937 16.9536 52.2002 16.8021 52.0345 16.5274C51.3149 15.3389 50.4817 14.2118 49.5633 13.1795C49.2367 12.8149 49.2698 12.2514 49.6391 11.9247C50.0036 11.5979 50.5669 11.631 50.8936 12.0004C51.883 13.1132 52.7777 14.3255 53.5588 15.6088C53.8145 16.0303 53.6819 16.5747 53.2606 16.8305C53.1186 16.9157 52.9576 16.9583 52.8014 16.9583L52.7919 16.9536ZM4.80301 14.4438C4.75094 14.4438 4.69886 14.4439 4.64679 14.4297C4.16392 14.3445 3.842 13.885 3.92722 13.402C4.20179 11.8441 4.78408 10.3856 5.6504 9.0692C5.92024 8.65722 6.46939 8.5483 6.88125 8.81821C7.28838 9.08813 7.402 9.63748 7.13216 10.0495C6.39838 11.1623 5.90604 12.3935 5.67407 13.7099C5.59833 14.1408 5.22434 14.4438 4.80301 14.4438ZM47.0637 10.523C46.8744 10.523 46.685 10.4614 46.5193 10.3383C45.421 9.48589 44.2375 8.73772 43.0067 8.11738C42.5711 7.89482 42.396 7.36445 42.6138 6.92406C42.8363 6.48367 43.3665 6.30842 43.8067 6.53098C45.137 7.20341 46.4152 8.00846 47.6034 8.93186C47.9916 9.23019 48.0626 9.78891 47.7644 10.1772C47.5892 10.4045 47.3289 10.523 47.0637 10.523ZM9.4471 7.4213C9.15359 7.4213 8.86955 7.27918 8.69912 7.014C8.43402 6.60202 8.55237 6.05279 8.96896 5.78761C10.3134 4.92577 11.7904 4.38113 13.3621 4.17277C13.8498 4.10174 14.2948 4.44747 14.361 4.93522C14.4273 5.42296 14.0865 5.86802 13.5989 5.93432C12.2923 6.10953 11.0567 6.56417 9.92997 7.28395C9.78322 7.37866 9.61753 7.42604 9.45183 7.42604L9.4471 7.4213ZM39.3804 6.64937C39.2999 6.64937 39.2194 6.63998 39.1437 6.6163C37.8134 6.24694 36.4406 6.00544 35.0582 5.90599C34.5706 5.86811 34.2014 5.44666 34.2392 4.95418C34.2771 4.46643 34.6984 4.1017 35.1908 4.13485C36.6867 4.24376 38.178 4.50427 39.6218 4.90678C40.0952 5.03937 40.3698 5.52714 40.2373 6.00068C40.1284 6.39372 39.7733 6.64937 39.3804 6.64937ZM30.7929 5.84911H26.4612C25.9689 5.84911 25.576 5.4514 25.576 4.95892C25.576 4.46644 25.9736 4.0686 26.4612 4.0686H30.7929C31.2852 4.0686 31.6781 4.46644 31.6781 4.95892C31.6781 5.4514 31.2805 5.84911 30.7929 5.84911ZM22.1296 5.84911H17.7979C17.3056 5.84911 16.9127 5.4514 16.9127 4.95892C16.9127 4.46644 17.3103 4.0686 17.7979 4.0686H22.1296C22.6219 4.0686 23.0148 4.46644 23.0148 4.95892C23.0148 5.4514 22.6172 5.84911 22.1296 5.84911Z" fill="#F15A29"/>
<path d="M25.4435 28.9346C24.9512 28.9346 24.5582 28.5369 24.5582 28.0444V25.9134C24.5582 25.421 24.9559 25.0231 25.4435 25.0231H27.5738C28.0661 25.0231 28.4591 25.421 28.4591 25.9134C28.4591 26.4059 28.0614 26.8036 27.5738 26.8036H26.3335V28.0444C26.3335 28.5369 25.9358 28.9346 25.4482 28.9346H25.4435Z" fill="#F15A29"/>
<path d="M27.5738 32.4855H25.4435C24.9512 32.4855 24.5582 32.0878 24.5582 31.5953V29.4644C24.5582 28.9719 24.9559 28.5741 25.4435 28.5741C25.9311 28.5741 26.3288 28.9719 26.3288 29.4644V30.705H27.5691C28.0614 30.705 28.4543 31.1029 28.4543 31.5953C28.4543 32.0878 28.0567 32.4855 27.5691 32.4855H27.5738Z" fill="#F15A29"/>
<path d="M33.5007 32.4858H31.6166C31.1242 32.4858 30.7313 32.0881 30.7313 31.5956C30.7313 31.1031 31.129 30.7053 31.6166 30.7053H33.5007C33.941 30.7053 34.3529 30.4874 34.6653 30.0944C34.9683 29.7061 35.5269 29.6398 35.9104 29.9428C36.2938 30.2459 36.3648 30.8047 36.0618 31.1883C35.418 32.0075 34.4854 32.4763 33.5007 32.4763V32.4858ZM35.3707 27.7646C35.1056 27.7646 34.8452 27.6462 34.67 27.4189C34.3623 27.0212 33.9457 26.7986 33.5007 26.7986H31.6355C31.1432 26.7986 30.7503 26.4009 30.7503 25.9084C30.7503 25.4159 31.1479 25.0181 31.6355 25.0181H33.5007C34.4901 25.0181 35.4275 25.4963 36.0713 26.325C36.3696 26.7133 36.3033 27.2722 35.9151 27.5705C35.7541 27.6936 35.56 27.7551 35.3707 27.7551V27.7646Z" fill="#F15A29"/>
<path d="M33.5008 9.04559H15.2889C15.2037 9.04559 15.1185 9.05508 15.038 9.05981C14.9528 9.05981 14.8723 9.04559 14.7871 9.04559C11.4354 9.04559 8.71808 11.9058 8.71808 15.4384V63.3842C8.71808 66.9168 11.4354 69.777 14.7871 69.777C18.1388 69.777 20.8561 66.9168 20.8561 63.3842V48.4677H33.5055C43.8257 48.4677 52.2239 39.6267 52.2239 28.759C52.2239 17.8912 43.8257 9.05033 33.5055 9.05033L33.5008 9.04559ZM33.5008 35.6822H21.358V21.8311H33.5008C37.127 21.8311 40.0763 24.9376 40.0763 28.7543C40.0763 32.5711 37.127 35.6774 33.5008 35.6774V35.6822Z" fill="url(#paint2_linear_53_37489)"/>
<defs>
<linearGradient id="paint0_linear_53_37489" x1="0.61343" y1="39.4138" x2="60.3191" y2="39.4138" gradientUnits="userSpaceOnUse">
<stop stop-color="#F1F2F2"/>
<stop offset="1" stop-color="#D1D3D4"/>
</linearGradient>
<linearGradient id="paint1_linear_53_37489" x1="1.96267" y1="39.4133" x2="58.9699" y2="39.4133" gradientUnits="userSpaceOnUse">
<stop stop-color="#D1D3D4"/>
<stop offset="1" stop-color="#F1F2F2"/>
</linearGradient>
<linearGradient id="paint2_linear_53_37489" x1="8.70861" y1="39.4136" x2="52.2239" y2="39.4136" gradientUnits="userSpaceOnUse">
<stop stop-color="#F67950"/>
<stop offset="0.13" stop-color="#F46D42"/>
<stop offset="0.34" stop-color="#F26233"/>
<stop offset="0.59" stop-color="#F15C2B"/>
<stop offset="1" stop-color="#F15A29"/>
</linearGradient>
</defs>
</svg>
