<svg width="81" height="92" viewBox="0 0 81 92" fill="none" xmlns="http://www.w3.org/2000/svg">
<g style="mix-blend-mode:multiply">
<path opacity="0.03" d="M44.1911 10.9207C63.1556 10.9207 78.5838 28.3611 78.5838 49.7982C78.5838 54.993 77.6891 60.0314 75.9233 64.7857L76.0843 64.9656L76.4535 65.354C76.5577 65.463 76.6665 65.5813 76.766 65.6902C79.2466 68.4604 80.61 72.0687 80.61 75.8949C80.61 75.9754 80.61 76.056 80.61 76.1365C80.5532 80.029 79.0856 83.6799 76.463 86.4406C73.7883 89.2535 70.2377 90.8068 66.4552 90.8068C62.6727 90.8068 59.2974 89.3339 56.651 86.649C56.58 86.5779 56.509 86.5022 56.438 86.4312L56.2345 86.2182C56.1682 86.2466 56.0924 86.2796 56.0262 86.3033C52.2342 87.8754 48.2576 88.6758 44.1958 88.6758C25.2313 88.6758 9.80304 71.2354 9.80304 49.7982C9.80304 28.3611 25.2313 10.9207 44.1958 10.9207H44.1911Z" fill="#FBFBFB"/>
<path opacity="0.06" d="M43.8644 10.594C62.8242 10.594 78.2477 28.0298 78.2477 49.4621C78.2477 54.6569 77.3529 59.6905 75.5872 64.4496L75.7386 64.6295L76.1079 65.0179C76.2073 65.1221 76.3257 65.25 76.4203 65.3541C78.9057 68.1243 80.2691 71.728 80.2738 75.5542C80.2738 75.6347 80.2738 75.7151 80.2738 75.7956C80.217 79.6881 78.7542 83.3392 76.1316 86.0999C73.4616 88.9127 69.911 90.4612 66.1285 90.4612C62.3461 90.4612 58.9707 88.9883 56.3244 86.3034C56.2581 86.2371 56.1776 86.1519 56.1113 86.0856L55.9078 85.8726C55.8415 85.901 55.7657 85.934 55.6995 85.9577C51.9075 87.5346 47.9309 88.3303 43.8644 88.3303C24.9046 88.3303 9.48108 70.8945 9.48108 49.4621C9.48108 28.0298 24.9046 10.594 43.8644 10.594Z" fill="#F7F7F7"/>
<path opacity="0.1" d="M43.5376 10.2718C62.4927 10.2718 77.9115 27.7028 77.9115 49.1257C77.9115 54.3156 77.0167 59.3539 75.2557 64.1083L75.3977 64.2884L75.767 64.6766C75.8616 64.7761 75.9847 64.9134 76.0794 65.0128C78.5648 67.7783 79.9329 71.382 79.9376 75.2082C79.9376 75.2887 79.9376 75.3691 79.9376 75.4496C79.8856 79.3421 78.418 82.9932 75.8001 85.754C73.1301 88.5668 69.5843 90.1104 65.8065 90.1104C62.0288 90.1104 58.6487 88.6329 56.0024 85.9479C55.9361 85.8816 55.8509 85.7964 55.7893 85.7301L55.5905 85.5218C55.5289 85.5502 55.4437 85.5835 55.3822 85.6071C51.5902 87.184 47.6136 87.9794 43.5471 87.9794C24.592 87.9794 9.17328 70.5486 9.17328 49.1257C9.17328 27.7028 24.592 10.2718 43.5471 10.2718H43.5376Z" fill="#F3F3F3"/>
<path opacity="0.13" d="M43.2157 9.9451C62.1613 9.9451 77.5753 27.3715 77.5753 48.7896C77.5753 53.9796 76.6806 59.0133 74.9195 63.7676L75.0568 63.9475L75.4261 64.336C75.516 64.4307 75.6486 64.5727 75.7385 64.6721C78.2286 67.4376 79.5968 71.0365 79.6015 74.8627C79.6015 74.9432 79.6015 75.0236 79.6015 75.1041C79.5494 78.9966 78.0866 82.6477 75.464 85.4084C72.7987 88.2165 69.2529 89.7649 65.4799 89.7649C61.7068 89.7649 58.322 88.2875 55.6757 85.5978C55.6141 85.5362 55.5242 85.4416 55.4627 85.38L55.2638 85.1717C55.2023 85.1953 55.1171 85.2331 55.0555 85.2568C51.2636 86.8336 47.2822 87.6339 43.2157 87.6339C24.2701 87.6339 8.85608 70.2078 8.85608 48.7896C8.85608 27.3715 24.2701 9.9451 43.2157 9.9451Z" fill="#EFEFEF"/>
<path opacity="0.16" d="M42.8892 9.62283C61.83 9.62283 77.2393 27.0444 77.2393 48.4531C77.2393 53.6431 76.3446 58.6767 74.5835 63.4263L74.7113 63.611L75.0806 63.9992C75.1705 64.0939 75.3078 64.2409 75.3931 64.3357C77.8832 67.0964 79.256 70.6999 79.2655 74.5214C79.2655 74.6019 79.2655 74.6823 79.2655 74.7628C79.2181 78.6553 77.7553 82.3064 75.1327 85.0671C72.4674 87.8752 68.9264 89.4189 65.1533 89.4189C61.3803 89.4189 57.9955 87.9414 55.3491 85.247C55.2876 85.1854 55.1929 85.0861 55.1361 85.0245L54.942 84.8208C54.8852 84.8445 54.7905 84.8825 54.7337 84.9062C50.937 86.483 46.9604 87.2833 42.8892 87.2833C23.9483 87.2833 8.539 69.8618 8.539 48.4531C8.539 27.0444 23.9483 9.62283 42.8892 9.62283Z" fill="#EBEBEB"/>
<path opacity="0.19" d="M42.5672 9.2962C61.5033 9.2962 76.9079 26.7131 76.9079 48.117C76.9079 53.3023 76.0132 58.3359 74.2521 63.0855L74.3704 63.2703L74.7397 63.6585C74.8249 63.7485 74.9717 63.9047 75.0521 63.9947C77.547 66.7554 78.9198 70.3543 78.9293 74.1758C78.9293 74.2563 78.9293 74.3367 78.9293 74.4172C78.882 78.3097 77.4192 81.9608 74.8012 84.7215C72.1407 87.5248 68.5996 89.0687 64.8314 89.0687C61.0631 89.0687 57.6735 87.5865 55.0272 84.8968C54.9704 84.8399 54.8709 84.7357 54.8141 84.6741L54.62 84.4704C54.5632 84.4941 54.4686 84.5368 54.4117 84.5557C50.6151 86.1373 46.6385 86.9377 42.5672 86.9377C23.6311 86.9377 8.2265 69.521 8.2265 48.117C8.2265 26.7131 23.6311 9.2962 42.5672 9.2962Z" fill="#E6E7E7"/>
<path opacity="0.23" d="M42.2405 8.97461C61.1672 8.97461 76.567 26.3866 76.567 47.7858C76.567 52.9711 75.6722 58.0001 73.9112 62.7497L74.0248 62.9342L74.3941 63.3227C74.4745 63.4079 74.626 63.5689 74.7065 63.6589C77.2013 66.4149 78.5789 70.0137 78.5931 73.8351C78.5931 73.9156 78.5931 73.9962 78.5931 74.0767C78.5458 77.9692 77.0877 81.6201 74.4651 84.3808C71.8045 87.1842 68.2682 88.728 64.4999 88.728C60.7316 88.728 57.3421 87.2459 54.7005 84.5515C54.6437 84.4947 54.5395 84.3856 54.4874 84.3288L54.2981 84.13C54.246 84.1536 54.1419 84.1963 54.0898 84.2153C50.2931 85.7969 46.3118 86.5971 42.2405 86.5971C23.3138 86.5971 7.914 69.1851 7.914 47.7858C7.914 26.3866 23.3138 8.97461 42.2405 8.97461Z" fill="#E2E3E3"/>
<path opacity="0.26" d="M41.9187 8.64765C60.8406 8.64765 76.2357 26.0502 76.2357 47.4447C76.2357 52.6299 75.341 57.6591 73.5799 62.4039L73.6841 62.5884L74.0533 62.9769C74.1338 63.0574 74.29 63.2278 74.3658 63.3131C76.8653 66.0691 78.243 69.6632 78.2572 73.4847C78.2572 73.5652 78.2572 73.6456 78.2572 73.7261C78.2145 77.6186 76.7517 81.2697 74.1338 84.0304C71.4733 86.829 67.9417 88.3727 64.1781 88.3727C60.4146 88.3727 57.0203 86.8905 54.3787 84.1913C54.3266 84.1393 54.2177 84.0257 54.1657 83.9689L53.9763 83.7698C53.9242 83.7935 53.8201 83.8362 53.768 83.8551C49.9713 85.4368 45.99 86.2372 41.9187 86.2372C22.9968 86.2372 7.60168 68.8345 7.60168 47.44C7.60168 26.0456 22.9968 8.64291 41.9187 8.64291V8.64765Z" fill="#DEDFE0"/>
<path opacity="0.29" d="M41.592 8.32571C60.5092 8.32571 75.8996 25.7236 75.8996 47.1134C75.8996 52.2939 75.0096 57.3229 73.2438 62.0678L73.3384 62.2571L73.7077 62.6454C73.7834 62.7259 73.9491 62.901 74.0201 62.9815C76.5245 65.7328 77.9021 69.3271 77.921 73.1485C77.921 73.229 77.921 73.3094 77.921 73.3899C77.8784 77.2824 76.4203 80.9335 73.8024 83.6943C71.1466 86.4929 67.615 88.0317 63.8562 88.0317C60.0973 88.0317 56.6936 86.5496 54.0567 83.8457C54.0046 83.7936 53.891 83.6754 53.8437 83.6233L53.6591 83.429C53.6117 83.448 53.4981 83.4954 53.4508 83.5144C49.6541 85.096 45.668 85.9008 41.5967 85.9008C22.6795 85.9008 7.28918 68.5031 7.28918 47.1134C7.28918 25.7236 22.6795 8.32571 41.5967 8.32571H41.592Z" fill="#DADBDC"/>
<path opacity="0.32" d="M41.27 7.99873C60.1824 7.99873 75.5681 25.3918 75.5681 46.772C75.5681 51.9526 74.6781 56.9817 72.917 61.7218L73.007 61.9112L73.3762 62.2994C73.4472 62.3752 73.6176 62.5598 73.6887 62.6356C76.193 65.3869 77.5753 68.9763 77.5942 72.7977C77.5942 72.8782 77.5942 72.9588 77.5942 73.0394C77.5564 76.9318 76.0983 80.5827 73.4756 83.3434C70.8198 86.1373 67.293 87.6763 63.5341 87.6763C59.7753 87.6763 56.3715 86.1896 53.7347 83.4856C53.6874 83.4383 53.569 83.3103 53.5217 83.263L53.337 83.0688C53.2897 83.0877 53.1761 83.1351 53.1287 83.1541C49.332 84.7404 45.346 85.5407 41.2747 85.5407C22.3622 85.5407 6.97662 68.1477 6.97662 46.7674C6.97662 25.3871 22.3622 7.99399 41.2747 7.99399L41.27 7.99873Z" fill="#D6D7D8"/>
<path opacity="0.35" d="M40.9435 7.67242C59.8465 7.67242 75.2274 25.0607 75.2274 46.4363C75.2274 51.6168 74.3374 56.6409 72.5763 61.3858L72.6568 61.5754L73.0261 61.9636C73.0923 62.0347 73.2722 62.224 73.3385 62.2998C75.8475 65.0463 77.2299 68.6359 77.2535 72.4573C77.2535 72.5378 77.2535 72.6182 77.2535 72.6987C77.2157 76.5912 75.7576 80.2423 73.1397 83.003C70.4886 85.7969 66.9618 87.3359 63.2077 87.3359C59.4536 87.3359 56.0451 85.8489 53.4082 83.145C53.3609 83.0977 53.2378 82.9699 53.1952 82.9226L53.0106 82.7283C52.9679 82.7473 52.8496 82.7992 52.8022 82.8134C49.0056 84.3998 45.0195 85.2049 40.9435 85.2049C22.0405 85.2049 6.65961 67.8167 6.65961 46.4411C6.65961 25.0656 22.0405 7.67716 40.9435 7.67716V7.67242Z" fill="#D2D3D4"/>
<path opacity="0.39" d="M40.6215 7.35016C59.5198 7.35016 74.8959 24.7338 74.8959 46.0999C74.8959 51.2757 74.0059 56.2999 72.2449 61.0448L72.3159 61.239L72.6852 61.6273C72.7514 61.6935 72.9361 61.8924 72.9976 61.9634C75.5066 64.7052 76.8937 68.2994 76.9174 72.1161C76.9174 72.1966 76.9174 72.2772 76.9174 72.3577C76.8795 76.2502 75.4262 79.9012 72.8082 82.6572C70.1572 85.4463 66.635 86.9852 62.8857 86.9852C59.1363 86.9852 55.7231 85.4983 53.091 82.7897C53.0484 82.7471 52.9158 82.6099 52.8732 82.5672L52.6933 82.3776C52.6507 82.3966 52.5276 82.4488 52.485 82.463C48.6836 84.0493 44.6975 84.8542 40.6215 84.8542C21.7233 84.8542 6.34711 67.4708 6.34711 46.1047C6.34711 24.7387 21.7233 7.3549 40.6215 7.3549V7.35016Z" fill="#CECFD0"/>
<path opacity="0.42" d="M40.2949 7.02317C59.1884 7.02317 74.5598 24.4021 74.5598 45.7634C74.5598 50.9392 73.6698 55.9634 71.9088 60.7035L71.9703 60.8977L72.3395 61.2859C72.4011 61.3522 72.5952 61.5558 72.652 61.6221C75.1658 64.3639 76.5528 67.9534 76.5765 71.7701C76.5765 71.8507 76.5765 71.9313 76.5765 72.0118C76.5434 75.9043 75.0853 79.5553 72.4674 82.3112C69.821 85.1004 66.2989 86.6346 62.5496 86.6346C58.8002 86.6346 55.387 85.1429 52.7548 82.4343C52.7122 82.3916 52.5797 82.2496 52.5371 82.207L52.3572 82.0176C52.3146 82.0365 52.1915 82.0885 52.1489 82.1027C48.3475 83.6938 44.3614 84.4988 40.2854 84.4988C21.3919 84.4988 6.02045 67.1199 6.02045 45.7586C6.02045 24.3972 21.3919 7.01843 40.2854 7.01843L40.2949 7.02317Z" fill="#CACBCC"/>
<path opacity="0.45" d="M39.9681 6.70123C58.8569 6.70123 74.2189 24.0753 74.2189 45.4319C74.2189 50.6077 73.3289 55.6272 71.5678 60.3673L71.6246 60.5616L71.9939 60.9546C72.0507 61.0162 72.2495 61.2293 72.3063 61.2908C74.8201 64.0279 76.2119 67.6173 76.2403 71.434C76.2403 71.5145 76.2403 71.5951 76.2403 71.6756C76.2072 75.5681 74.7538 79.2191 72.1359 81.9751C69.4896 84.7642 65.9722 86.2984 62.2276 86.2984C58.4829 86.2984 55.065 84.8069 52.4328 82.0935C52.395 82.0556 52.2529 81.9086 52.2151 81.866L52.0399 81.6814C52.002 81.6956 51.8695 81.7523 51.8316 81.7665C48.0302 83.3576 44.0441 84.1627 39.9634 84.1627C21.0746 84.1627 5.71265 66.7885 5.71265 45.4319C5.71265 24.0753 21.0793 6.70123 39.9634 6.70123H39.9681Z" fill="#C6C7C8"/>
<path opacity="0.48" d="M39.6464 6.37457C58.5257 6.37457 73.8876 23.744 73.8876 45.0911C73.8876 50.2622 72.9976 55.2863 71.2366 60.0217L71.2839 60.2159L71.6532 60.609C71.71 60.6658 71.9136 60.8836 71.9656 60.9452C74.4841 63.6823 75.8759 67.267 75.9043 71.0837C75.9043 71.1642 75.9043 71.2446 75.9043 71.3251C75.8759 75.2176 74.4226 78.8686 71.8047 81.6246C69.1631 84.409 65.6457 85.9433 61.9011 85.9433C58.1565 85.9433 54.7385 84.4517 52.1064 81.7384C52.0685 81.7005 51.9265 81.5487 51.8886 81.5108L51.7134 81.3263C51.6756 81.3405 51.543 81.3972 51.5051 81.4114C47.7037 83.0025 43.7129 83.8076 39.6369 83.8076C20.7576 83.8076 5.39563 66.4383 5.39563 45.0911C5.39563 23.744 20.7576 6.37457 39.6369 6.37457H39.6464Z" fill="#C2C3C4"/>
<path opacity="0.52" d="M39.3197 6.05231C58.1943 6.05231 73.5515 23.417 73.5515 44.7594C73.5515 49.9304 72.6615 54.9499 70.9052 59.6853L70.943 59.8842L71.3123 60.2773C71.3644 60.3293 71.5774 60.5566 71.6247 60.6135C74.1432 63.3458 75.5445 66.9304 75.5729 70.7471C75.5729 70.8276 75.5729 70.9081 75.5729 70.9839C75.5445 74.8764 74.0912 78.5274 71.4732 81.2834C68.8316 84.0678 65.319 85.5975 61.5791 85.5975C57.8392 85.5975 54.4165 84.101 51.7844 81.3877C51.7512 81.3545 51.5998 81.1983 51.5666 81.1604L51.3962 80.9805C51.3631 80.9947 51.221 81.0561 51.1879 81.0656C47.3865 82.6567 43.3957 83.4666 39.3149 83.4666C20.4403 83.4666 5.08313 66.1018 5.08313 44.7594C5.08313 23.417 20.4403 6.05231 39.3149 6.05231H39.3197Z" fill="#BDBEC0"/>
<path opacity="0.55" d="M38.9978 5.72568C57.8677 5.72568 73.2154 23.0857 73.2154 44.4186C73.2154 49.5897 72.3254 54.6091 70.5691 59.3397L70.6022 59.5386L70.9762 59.9317C71.0236 59.9838 71.2413 60.2158 71.2887 60.2679C73.8119 63.0002 75.2132 66.5802 75.2416 70.3969C75.2416 70.4774 75.2416 70.5579 75.2416 70.6337C75.2132 74.5262 73.7646 78.1772 71.1467 80.9332C68.5051 83.7128 64.9971 85.247 61.262 85.247C57.5268 85.247 54.0994 83.7507 51.4673 81.0326C51.4341 80.9995 51.2826 80.8385 51.2495 80.8053L51.0791 80.6254C51.0459 80.6396 50.9039 80.701 50.8708 80.7105C47.0694 82.3063 43.0738 83.1115 38.9978 83.1115C20.128 83.1115 4.78021 65.7516 4.78021 44.4186C4.78021 23.0857 20.1327 5.72568 38.9978 5.72568Z" fill="#B9BABC"/>
<path opacity="0.58" d="M38.6711 5.40411C57.5315 5.40411 72.8793 22.7593 72.8793 44.0875C72.8793 49.2538 71.9893 54.2733 70.2329 59.004L70.2566 59.2028L70.6306 59.5959C70.6732 59.6432 70.9004 59.8847 70.943 59.9321C73.4663 62.6597 74.8723 66.2443 74.9054 70.0563C74.9054 70.1368 74.9054 70.2173 74.9054 70.2931C74.8818 74.1855 73.4284 77.8365 70.8152 80.5925C68.1784 83.3722 64.6704 84.9018 60.9353 84.9018C57.2001 84.9018 53.7727 83.4053 51.1453 80.6825C51.1169 80.6541 50.9559 80.4836 50.9275 80.4552L50.7618 80.2802C50.7334 80.2944 50.582 80.3558 50.5536 80.3652C46.7521 81.9611 42.7566 82.7709 38.6759 82.7709C19.8107 82.7709 4.46771 65.4157 4.46771 44.0875C4.46771 22.7593 19.8155 5.40411 38.6759 5.40411H38.6711Z" fill="#B5B6B8"/>
<path opacity="0.61" d="M38.3491 5.07713C57.2048 5.07713 72.5478 22.4276 72.5478 43.751C72.5478 48.9173 71.6578 53.9321 69.9015 58.6675L69.9157 58.8663L70.2897 59.2594C70.3323 59.302 70.5642 59.5483 70.6021 59.5956C73.1301 62.3232 74.5361 65.9032 74.5692 69.7152C74.5692 69.7957 74.5692 69.8762 74.5692 69.952C74.5456 73.8445 73.0969 77.4954 70.479 80.2514C67.8422 83.0264 64.339 84.5558 60.6086 84.5558C56.8781 84.5558 53.446 83.0595 50.8186 80.3319C50.7902 80.3035 50.6292 80.133 50.6008 80.1046L50.4351 79.9294C50.4067 79.9388 50.2552 80.0052 50.2268 80.0147C46.4207 81.6105 42.4299 82.4203 38.3491 82.4203C19.4935 82.4203 4.15045 65.0696 4.15045 43.7462C4.15045 22.4227 19.4935 5.07239 38.3491 5.07239V5.07713Z" fill="#B1B2B4"/>
<path opacity="0.65" d="M38.0224 4.75519C56.8733 4.75519 72.2116 22.0962 72.2116 43.415C72.2116 48.5813 71.3216 53.5959 69.5653 58.3266L69.5748 58.5303L69.9488 58.9234C69.9866 58.9613 70.2281 59.2169 70.2612 59.2596C72.7939 61.9824 74.1999 65.5623 74.2331 69.3743C74.2331 69.4548 74.2331 69.5353 74.2331 69.6111C74.2141 73.5036 72.7655 77.1545 70.1476 79.9105C67.5155 82.6855 64.0123 84.2103 60.2866 84.2103C56.5609 84.2103 53.124 82.7092 50.4966 79.9864C50.4729 79.9627 50.3025 79.7828 50.2788 79.7591L50.1179 79.5887C50.0942 79.5982 49.9333 79.6643 49.9096 79.6738C46.1034 81.2696 42.1079 82.0842 38.0272 82.0842C19.1762 82.0842 3.83795 64.7432 3.83795 43.4245C3.83795 22.1057 19.1762 4.76467 38.0272 4.76467L38.0224 4.75519Z" fill="#ADAEB0"/>
<path opacity="0.68" d="M37.7007 4.42853C56.5469 4.42853 71.8757 21.7648 71.8757 43.0788C71.8757 48.2404 70.9857 53.2552 69.2294 57.9858V58.1893L69.6033 58.5824C69.6365 58.6203 69.8826 58.8808 69.9158 58.914C72.4485 61.6321 73.8592 65.2121 73.8971 69.0241C73.8971 69.1046 73.8971 69.1803 73.8971 69.2608C73.8782 73.1533 72.4296 76.8043 69.8164 79.5603C67.1842 82.3305 63.6858 83.8601 59.9601 83.8601C56.2344 83.8601 52.7975 82.3589 50.1701 79.6313C50.1465 79.6076 49.9713 79.4277 49.9524 79.404L49.7914 79.2336C49.7914 79.2336 49.6068 79.3092 49.5831 79.3187C45.7769 80.9192 41.7814 81.7291 37.6959 81.7291C18.8497 81.7291 3.52094 64.3928 3.52094 43.0788C3.52094 21.7648 18.8545 4.42853 37.6959 4.42853H37.7007Z" fill="#A9AAAC"/>
<path opacity="0.71" d="M37.3739 4.10157C56.2107 4.10157 71.5395 21.433 71.5395 42.7375C71.5395 47.8991 70.6495 52.914 68.8979 57.6399L68.8884 57.8434L69.2624 58.2365C69.2908 58.2696 69.5464 58.5349 69.5749 58.568C72.1123 61.2861 73.523 64.8613 73.5609 68.6733C73.5609 68.7538 73.5609 68.8296 73.5609 68.91C73.542 72.8025 72.0981 76.4535 69.4802 79.2095C66.8528 81.9797 63.3543 83.5047 59.6334 83.5047C55.9124 83.5047 52.466 82.0033 49.8434 79.271C49.8245 79.2521 49.6446 79.0628 49.6256 79.0391L49.4647 78.8733C49.4647 78.8733 49.2753 78.9539 49.2564 78.9586C45.4502 80.5592 41.4547 81.3689 37.3692 81.3689C18.5325 81.3689 3.20367 64.0374 3.20367 42.7329C3.20367 21.4284 18.5325 4.09683 37.3692 4.09683L37.3739 4.10157Z" fill="#A5A6A8"/>
<path opacity="0.74" d="M37.0521 3.77968C55.8841 3.77968 71.2081 21.1065 71.2081 42.4063C71.2081 47.5679 70.3181 52.5779 68.5666 57.3038L68.5524 57.5073L68.9263 57.9004C68.9548 57.9288 69.2151 58.2035 69.2388 58.2319C71.7762 60.9453 73.1917 64.5206 73.2343 68.3326C73.2343 68.413 73.2343 68.4888 73.2343 68.5693C73.2201 72.4618 71.7715 76.1175 69.1583 78.8688C66.5309 81.6343 63.0372 83.1591 59.3163 83.1591C55.5953 83.1591 52.1489 81.6531 49.531 78.9208C49.5121 78.9019 49.3274 78.7076 49.3132 78.6887L49.157 78.5231C49.157 78.5231 48.9677 78.6035 48.9487 78.6082C45.1426 80.2088 41.1423 81.0233 37.0568 81.0233C18.2248 81.0233 2.90076 63.6966 2.90076 42.3968C2.90076 21.097 18.2201 3.7702 37.0568 3.7702L37.0521 3.77968Z" fill="#A1A2A4"/>
<path opacity="0.77" d="M36.7255 3.45297C55.5527 3.45297 70.8673 20.775 70.8673 42.0654C70.8673 47.2222 69.9773 52.2323 68.2257 56.9583L68.2021 57.1666L68.576 57.5597C68.5997 57.5833 68.8648 57.8673 68.8885 57.891C71.4307 60.6044 72.8461 64.1797 72.8888 67.987C72.8888 68.0675 72.8888 68.1433 72.8888 68.2238C72.8745 72.1163 71.4307 75.772 68.8175 78.5232C66.1901 81.2887 62.7011 82.8133 58.9849 82.8133C55.2687 82.8133 51.8176 81.3076 49.1996 78.5753C49.1854 78.5611 48.9961 78.3621 48.9771 78.3431L48.8209 78.1822C48.8209 78.1822 48.6316 78.2628 48.6126 78.2675C44.8065 79.8728 40.8062 80.6824 36.7207 80.6824C17.8935 80.6824 2.57886 63.3605 2.57886 42.0702C2.57886 20.7799 17.8935 3.45771 36.7207 3.45771L36.7255 3.45297Z" fill="#9D9EA1"/>
<path opacity="0.81" d="M36.3988 3.13071C55.2213 3.13071 70.5312 20.4479 70.5312 41.7335C70.5312 46.8903 69.6412 51.9006 67.8896 56.6218L67.8565 56.8301L68.2304 57.2232C68.2304 57.2232 68.524 57.5356 68.5429 57.5545C71.0851 60.2632 72.5053 63.8384 72.5526 67.6457C72.5526 67.7262 72.5526 67.8019 72.5526 67.8824C72.5432 71.7749 71.0945 75.4306 68.4813 78.1819C65.8587 80.9474 62.3697 82.4673 58.6582 82.4673C54.9467 82.4673 51.4909 80.9615 48.873 78.2244C48.8588 78.2102 48.6647 78.0067 48.6505 77.9925L48.499 77.8316C48.499 77.8316 48.3049 77.9119 48.2907 77.9167C44.4845 79.522 40.4795 80.3364 36.3941 80.3364C17.5715 80.3364 2.26166 63.0191 2.26166 41.7335C2.26166 20.4479 17.5715 3.13071 36.3941 3.13071H36.3988Z" fill="#999A9D"/>
<path opacity="0.84" d="M36.0768 2.80445C54.8898 2.80445 70.1997 20.1169 70.1997 41.3978C70.1997 46.5546 69.3097 51.56 67.5581 56.2812L67.5202 56.4895L67.8942 56.8826C67.8942 56.8826 68.1924 57.1952 68.2066 57.2142C70.7536 59.9228 72.1738 63.4932 72.2211 67.3004C72.2211 67.3809 72.2211 67.4567 72.2211 67.5372C72.2116 71.425 70.7678 75.0854 68.1546 77.8367C65.5319 80.5974 62.0477 82.1175 58.3362 82.1175C54.6247 82.1175 51.1689 80.6115 48.5509 77.8698C48.5415 77.8603 48.3426 77.6473 48.3284 77.6378L48.177 77.4815C48.177 77.4815 47.9829 77.5621 47.9687 77.5668C44.1578 79.1721 40.1575 79.9866 36.072 79.9866C17.259 79.9866 1.9491 62.674 1.9491 41.3931C1.9491 20.1123 17.2542 2.79971 36.072 2.79971L36.0768 2.80445Z" fill="#949699"/>
<path opacity="0.87" d="M35.7502 2.48216C54.5586 2.48216 69.859 19.7899 69.859 41.0612C69.859 46.2181 68.969 51.2235 67.2174 55.9447L67.17 56.153L67.544 56.5461C67.544 56.5461 67.847 56.8634 67.8565 56.8776C70.4034 59.5815 71.8283 63.1518 71.8804 66.9591C71.8804 67.0396 71.8804 67.1153 71.8804 67.1958C71.8709 71.0836 70.4318 74.744 67.8186 77.4953C65.2007 80.256 61.7164 81.7715 58.0097 81.7715C54.3029 81.7715 50.8423 80.2609 48.2244 77.5191C48.215 77.5097 48.0114 77.2965 48.0019 77.287L47.8552 77.1307C47.8552 77.1307 47.6563 77.216 47.6469 77.216C43.836 78.8213 39.8357 79.6357 35.7455 79.6357C16.9372 79.6357 1.63678 62.328 1.63678 41.0566C1.63678 19.7853 16.9372 2.47742 35.7455 2.47742L35.7502 2.48216Z" fill="#909295"/>
<path opacity="0.9" d="M35.4283 2.15515C54.2319 2.15515 69.5276 19.4582 69.5276 40.7249C69.5276 45.877 68.6376 50.8823 66.886 55.6034L66.8292 55.8166L67.2031 56.2097C67.2031 56.2097 67.5061 56.5316 67.5156 56.541C70.0672 59.2449 71.4922 62.8108 71.5443 66.6181C71.5443 66.6986 71.5443 66.7743 71.5443 66.8548C71.5395 70.7426 70.0956 74.4031 67.4825 77.1543C64.8645 79.9103 61.385 81.4303 57.683 81.4303C53.981 81.4303 50.5157 79.9198 47.9025 77.1733C47.8978 77.1685 47.6895 76.9459 47.68 76.9411L47.5332 76.7848C47.5332 76.7848 47.3344 76.8701 47.3249 76.8701C43.514 78.4802 39.509 79.2947 35.4188 79.2947C16.6152 79.2947 1.31958 61.9915 1.31958 40.7249C1.31958 19.4582 16.6152 2.15515 35.4188 2.15515H35.4283Z" fill="#8C8E91"/>
<path opacity="0.94" d="M35.1016 1.83359C53.9005 1.83359 69.1914 19.1319 69.1914 40.3891C69.1914 45.5412 68.3014 50.5466 66.5545 55.263L66.4883 55.476L66.8622 55.8739C66.8622 55.8739 67.17 56.2005 67.1747 56.2053C69.7311 58.9044 71.156 62.4702 71.2081 66.2774C71.2081 66.3579 71.2081 66.4337 71.2081 66.5142C71.2081 70.402 69.7642 74.0624 67.151 76.8137C64.5378 79.5697 61.0583 81.085 57.3563 81.085C53.6543 81.085 50.189 79.5745 47.5758 76.828C47.5758 76.828 47.358 76.6006 47.3533 76.5959L47.2113 76.4444C47.2113 76.4444 47.0077 76.5297 47.003 76.5297C43.1921 78.1398 39.1871 78.9541 35.0969 78.9541C16.298 78.9541 1.00708 61.6557 1.00708 40.3986C1.00708 19.1414 16.298 1.84307 35.0969 1.84307L35.1016 1.83359Z" fill="#888A8D"/>
<path opacity="0.97" d="M34.7798 1.50693C53.5692 1.50693 68.8601 18.8005 68.8601 40.053C68.8601 45.2051 67.9748 50.2056 66.2233 54.922L66.1522 55.1352L66.5262 55.5329C66.5262 55.5329 66.8387 55.8597 66.8387 55.8645C69.3951 58.5589 70.8247 62.1293 70.8815 65.9318C70.8815 66.0123 70.8815 66.0881 70.8815 66.1686C70.8815 70.0563 69.4377 73.7169 66.8292 76.4634C64.216 79.2147 60.7412 80.7299 57.0439 80.7299C53.3467 80.7299 49.8766 79.2146 47.2634 76.4681L47.0409 76.2361L46.8989 76.0845C46.8989 76.0845 46.6954 76.1698 46.6906 76.1698C42.8797 77.7798 38.8747 78.599 34.7798 78.599C15.9904 78.599 0.699463 61.3054 0.699463 40.053C0.699463 18.8005 15.9857 1.50693 34.7798 1.50693Z" fill="#848689"/>
<path d="M56.7172 80.3841C53.0199 80.3841 49.5499 78.8689 46.9367 76.1176L46.5722 75.734L46.3639 75.8193C42.553 77.4294 38.5432 78.2485 34.453 78.2485C15.6684 78.2485 0.386902 60.9597 0.386902 39.712C0.386902 18.4643 15.6684 1.17532 34.453 1.17532C53.2377 1.17532 68.5191 18.4643 68.5191 39.712C68.5191 44.8594 67.6339 49.8598 65.8823 54.5762L65.8018 54.794L66.493 55.5233C69.1062 58.2745 70.5453 61.9304 70.5453 65.8181C70.5453 69.7059 69.1062 73.3662 66.493 76.1128C63.8798 78.864 60.4097 80.3795 56.7125 80.3795L56.7172 80.3841Z" fill="#808285"/>
</g>
<path d="M56.7173 80.7341C52.9348 80.7341 49.3748 79.1809 46.7001 76.3633L46.4965 76.1455C42.643 77.7745 38.5954 78.6031 34.4578 78.6031C15.4886 78.6031 0.055603 61.1579 0.055603 39.7161C0.055603 18.2742 15.4886 0.828979 34.4578 0.828979C53.4271 0.828979 68.8601 18.2742 68.8601 39.7161C68.8601 44.9108 67.9653 49.954 66.1995 54.7084L66.7345 55.2719C69.4092 58.0894 70.8862 61.8351 70.8862 65.8176C70.8862 69.8 69.414 73.5457 66.7345 76.3633C64.0598 79.1809 60.5045 80.7341 56.7173 80.7341Z" fill="url(#paint0_linear_53_37444)"/>
<path d="M56.7172 79.314C53.2945 79.314 50.0753 77.9122 47.6515 75.3599L46.8041 74.4697C42.8985 76.2549 38.7089 77.183 34.453 77.183C16.227 77.183 1.39996 60.3771 1.39996 39.7166C1.39996 19.0561 16.227 2.25012 34.453 2.25012C52.679 2.25012 67.506 19.0561 67.506 39.7166C67.506 45.0392 66.5119 50.2528 64.6088 55.0497L65.7734 56.2763C68.1925 58.824 69.5275 62.2145 69.5275 65.8181C69.5275 69.4217 68.1925 72.8122 65.7734 75.3599C63.3543 77.9075 60.1351 79.314 56.7124 79.314H56.7172Z" fill="url(#paint1_linear_53_37444)"/>
<path d="M48.8068 73.3517C48.57 73.3517 48.3381 73.262 48.1629 73.0773L47.1546 72.0164C46.7001 72.2437 46.2409 72.4616 45.777 72.6653C45.3272 72.8641 44.8018 72.6558 44.6077 72.2107C44.4088 71.7608 44.6124 71.2398 45.0621 71.0409C45.6918 70.7663 46.3166 70.4633 46.9179 70.1413C47.2682 69.9518 47.7037 70.0228 47.9783 70.3117L49.4458 71.8555C49.782 72.2107 49.7678 72.7741 49.4127 73.1103C49.2423 73.2714 49.0198 73.3566 48.802 73.3566L48.8068 73.3517Z" fill="#483F99"/>
<path d="M32.6873 74.9946C32.6873 74.9946 32.6495 74.9946 32.6305 74.9946C31.1393 74.8952 29.6433 74.6774 28.1853 74.3412C27.7071 74.2323 27.4089 73.754 27.5225 73.2757C27.6314 72.7975 28.1095 72.4945 28.5877 72.6128C29.9511 72.9254 31.3523 73.1335 32.7489 73.2235C33.2365 73.2566 33.6105 73.6782 33.5773 74.1659C33.5442 74.6347 33.156 74.9946 32.6921 74.9946H32.6873ZM37.0332 74.9283C36.5834 74.9283 36.1952 74.5826 36.1526 74.128C36.1053 73.6403 36.4651 73.2047 36.9527 73.1574C38.3445 73.0248 39.7363 72.7738 41.095 72.4186C41.5684 72.2908 42.056 72.5795 42.1791 73.0531C42.3022 73.5266 42.0181 74.0144 41.5447 74.1375C40.0961 74.5163 38.6096 74.7816 37.1231 74.9237C37.0947 74.9237 37.0663 74.9237 37.0379 74.9237L37.0332 74.9283ZM24.2371 73.0485C24.1282 73.0485 24.0146 73.0294 23.9057 72.9821C22.5376 72.4281 21.1884 71.7555 19.896 70.9837C19.4746 70.7327 19.3374 70.1882 19.5883 69.7667C19.8392 69.3453 20.3836 69.208 20.8049 69.459C22.0215 70.1835 23.2855 70.8179 24.5732 71.3388C25.0277 71.5235 25.2454 72.0399 25.0608 72.4945C24.9188 72.8401 24.5874 73.0485 24.2371 73.0485ZM16.7857 68.616C16.5869 68.616 16.3928 68.5497 16.2271 68.4171C15.0815 67.489 13.9832 66.4615 12.9606 65.3629C12.6245 65.003 12.6434 64.4441 13.0032 64.1079C13.363 63.7717 13.9216 63.7907 14.2577 64.1506C15.2282 65.1877 16.2697 66.1585 17.3491 67.0393C17.7278 67.3471 17.7893 67.9057 17.4769 68.2892C17.3017 68.5071 17.0461 68.616 16.7857 68.616ZM10.8492 62.2801C10.5747 62.2801 10.3001 62.1523 10.1249 61.9108C9.26806 60.7128 8.47274 59.4436 7.7579 58.1271C7.52593 57.6962 7.68216 57.1563 8.11295 56.9243C8.54375 56.6923 9.08343 56.8485 9.3154 57.2795C9.99236 58.5296 10.7498 59.7373 11.5641 60.8738C11.8481 61.2716 11.7582 61.8254 11.3605 62.1143C11.2043 62.2279 11.0244 62.2801 10.8445 62.2801H10.8492ZM6.70221 54.6466C6.34716 54.6466 6.01578 54.4335 5.87849 54.0831C5.33408 52.7098 4.86541 51.2892 4.48668 49.8497C4.35886 49.3761 4.64291 48.8884 5.11631 48.7652C5.58971 48.6421 6.07732 48.9216 6.2004 49.3951C6.56492 50.7636 7.00992 52.1227 7.52593 53.4297C7.70583 53.8843 7.48333 54.4005 7.02886 54.5804C6.91998 54.6231 6.81109 54.6419 6.70221 54.6419V54.6466ZM63.5864 50.4321C63.5106 50.4321 63.4349 50.4226 63.3591 50.4037C62.8857 50.2806 62.6017 49.7928 62.7248 49.3193C63.0846 47.9602 63.3639 46.5586 63.5674 45.1522C63.6384 44.6692 64.0835 44.3283 64.5711 44.3993C65.0587 44.4704 65.3948 44.9201 65.3238 45.4031C65.1107 46.8758 64.8125 48.3439 64.4385 49.7692C64.3344 50.167 63.9746 50.4321 63.5816 50.4321H63.5864ZM4.46775 46.2507C4.03221 46.2507 3.65349 45.9336 3.59195 45.4933C3.37892 44.0395 3.24637 42.5477 3.19429 41.0608C3.18009 40.5683 3.56355 40.1611 4.05115 40.1421C4.53876 40.1137 4.95062 40.5068 4.96955 40.9993C5.01689 42.4199 5.14471 43.8453 5.34828 45.2375C5.41929 45.7205 5.08317 46.1751 4.6003 46.2461C4.55769 46.2508 4.51509 46.2556 4.47248 46.2556L4.46775 46.2507ZM64.8267 41.8279C64.8267 41.8279 64.8078 41.8279 64.7983 41.8279C64.306 41.8137 63.9225 41.4017 63.9367 40.9139C63.9509 40.5162 63.9556 40.1138 63.9556 39.716C63.9556 38.6979 63.913 37.6702 63.8325 36.6616C63.7947 36.1738 64.1592 35.7429 64.6468 35.705C65.1391 35.6671 65.5652 36.0319 65.6031 36.5196C65.6883 37.5756 65.7309 38.6505 65.7309 39.716C65.7309 40.1327 65.7262 40.5541 65.712 40.9708C65.6978 41.4538 65.3048 41.8328 64.8267 41.8328V41.8279ZM4.17897 37.5661C4.17897 37.5661 4.13163 37.5661 4.10796 37.5661C3.62035 37.5282 3.25583 37.1021 3.29371 36.6144C3.40732 35.1322 3.60615 33.6499 3.88546 32.2009C3.98014 31.7179 4.44881 31.4007 4.92695 31.4954C5.40982 31.5901 5.72227 32.0541 5.63232 32.5371C5.36721 33.9198 5.17785 35.3359 5.06423 36.7517C5.02636 37.2158 4.63817 37.571 4.17897 37.571V37.5661ZM64.1308 33.1669C63.7142 33.1669 63.3449 32.8733 63.2597 32.4471C62.9899 31.0549 62.6348 29.6676 62.2088 28.3275C62.062 27.8587 62.3177 27.3613 62.7863 27.2097C63.2503 27.063 63.7521 27.3188 63.8988 27.7876C64.3438 29.194 64.7178 30.6478 65.0019 32.1063C65.0965 32.5893 64.7794 33.0532 64.3012 33.1479C64.2444 33.1574 64.1876 33.1669 64.1308 33.1669ZM5.82168 29.0329C5.73173 29.0329 5.64179 29.0188 5.55657 28.9904C5.08791 28.8436 4.82753 28.3416 4.97902 27.8775C5.42876 26.4569 5.95897 25.0552 6.56966 23.7151C6.77322 23.27 7.2987 23.0711 7.7437 23.27C8.1887 23.4736 8.38753 23.9992 8.1887 24.4444C7.61115 25.7229 7.09987 27.0582 6.67381 28.4126C6.55546 28.7914 6.20514 29.0329 5.82641 29.0329H5.82168ZM61.4939 24.8895C61.1578 24.8895 60.8359 24.6953 60.6844 24.3685C60.0974 23.0758 59.4299 21.8162 58.7009 20.6181C58.4452 20.2014 58.5778 19.6522 58.9944 19.3965C59.411 19.1408 59.9601 19.2733 60.2157 19.69C60.9827 20.9496 61.688 22.2754 62.3035 23.6298C62.507 24.0749 62.3082 24.6005 61.8632 24.8041C61.7448 24.8562 61.6217 24.8848 61.4987 24.8848L61.4939 24.8895ZM9.40061 21.1201C9.24439 21.1201 9.08343 21.0775 8.94141 20.9922C8.52481 20.7365 8.38753 20.1919 8.64316 19.7705C9.41955 18.4919 10.2764 17.2607 11.1948 16.11C11.5025 15.7265 12.0611 15.665 12.4399 15.9681C12.8233 16.2759 12.8849 16.8346 12.5819 17.2181C11.7108 18.312 10.8966 19.4817 10.1581 20.694C9.99236 20.9686 9.69885 21.1201 9.40061 21.1201ZM56.9635 17.4834C56.7031 17.4834 56.4474 17.3697 56.2723 17.1519C55.3823 16.0438 54.4213 14.9925 53.4129 14.0265C53.0579 13.6855 53.0484 13.1268 53.3845 12.7717C53.7206 12.4165 54.284 12.4023 54.639 12.7432C55.7042 13.7613 56.7173 14.8694 57.6546 16.039C57.9623 16.4226 57.9008 16.9813 57.5173 17.2891C57.3517 17.4217 57.1576 17.4834 56.9635 17.4834ZM14.8163 14.3343C14.5844 14.3343 14.3524 14.2444 14.1773 14.0597C13.8364 13.7045 13.8506 13.1457 14.2009 12.8047C15.285 11.7629 16.4401 10.797 17.6331 9.93043C18.0308 9.64157 18.5846 9.73151 18.8734 10.1293C19.1622 10.5271 19.0722 11.081 18.6746 11.3699C17.5432 12.1844 16.4543 13.0984 15.4318 14.0834C15.2613 14.2491 15.0388 14.3295 14.8163 14.3295V14.3343ZM50.6814 11.493C50.5015 11.493 50.3216 11.441 50.1654 11.3273C49.015 10.5034 47.8078 9.75986 46.5723 9.12532C46.1367 8.90276 45.9663 8.36765 46.1888 7.93199C46.4113 7.49634 46.9462 7.32595 47.3818 7.54852C48.6931 8.22568 49.9808 9.01172 51.1974 9.88777C51.5951 10.1719 51.685 10.7306 51.401 11.1284C51.2258 11.3699 50.956 11.4978 50.6814 11.4978V11.493ZM21.8606 9.25793C21.5387 9.25793 21.231 9.08271 21.07 8.77965C20.8428 8.34399 21.0132 7.80888 21.4487 7.58158C22.7837 6.89021 24.1708 6.30305 25.5768 5.82951C26.0455 5.67324 26.5426 5.9243 26.6988 6.38837C26.855 6.85244 26.6041 7.35433 26.1402 7.5106C24.8194 7.95099 23.5175 8.50501 22.2677 9.15376C22.1352 9.22006 21.9979 9.25319 21.8606 9.25319V9.25793ZM42.9697 7.5343C42.8797 7.5343 42.785 7.52004 42.6903 7.4869C41.3553 7.0465 39.9825 6.71036 38.6049 6.48779C38.122 6.41203 37.7906 5.95263 37.8711 5.46962C37.9468 4.98661 38.406 4.65511 38.8889 4.73561C40.3612 4.97238 41.8288 5.33227 43.249 5.80107C43.7129 5.95734 43.9685 6.45934 43.8123 6.92341C43.6892 7.29751 43.3436 7.5343 42.9697 7.5343ZM30.0789 6.51612C29.6528 6.51612 29.2741 6.2084 29.2031 5.77275C29.1226 5.28974 29.454 4.83033 29.9369 4.75457C31.4091 4.51306 32.9146 4.38993 34.4105 4.38519C34.8981 4.38519 35.2958 4.78302 35.2958 5.27077C35.2958 5.76325 34.8981 6.16096 34.4105 6.16096C33.0092 6.16096 31.5985 6.27945 30.2209 6.50675C30.1736 6.51622 30.1215 6.51612 30.0741 6.51612H30.0789Z" fill="#483F99"/>
<path d="M62.8242 58.17C62.5875 58.17 62.3555 58.08 62.1804 57.8953L60.7128 56.3515C60.4619 56.0863 60.3957 55.6979 60.5519 55.3665C60.8407 54.7461 61.1152 54.1022 61.3709 53.4582C61.5508 53.0036 62.0668 52.7811 62.5212 52.9611C62.9757 53.141 63.1982 53.657 63.0183 54.1116C62.8242 54.5994 62.6207 55.0873 62.4076 55.5655L63.4633 56.6782C63.7994 57.0333 63.7852 57.597 63.4302 57.9332C63.2597 58.0942 63.0372 58.1795 62.8195 58.1795L62.8242 58.17Z" fill="#483F99"/>
<path d="M55.4296 77.1026C55.3917 77.1026 55.3539 77.1026 55.316 77.0931C53.9052 76.9131 52.5608 76.4585 51.3252 75.7435C50.8991 75.4972 50.7571 74.9526 50.9985 74.5312C51.2447 74.105 51.7891 73.9629 52.2105 74.2044C53.2425 74.8011 54.3597 75.1799 55.5385 75.3314C56.0261 75.393 56.3669 75.8381 56.3054 76.3259C56.2486 76.771 55.8651 77.0977 55.4249 77.0977L55.4296 77.1026ZM59.2831 76.8515C58.8902 76.8515 58.5304 76.5909 58.4262 76.1932C58.2984 75.7196 58.5825 75.232 59.0559 75.1041C60.1968 74.7963 61.2572 74.2754 62.2087 73.5462C62.5969 73.2478 63.1556 73.3236 63.4538 73.7119C63.752 74.1003 63.6763 74.659 63.2881 74.9573C62.1519 75.8286 60.8832 76.4538 59.5151 76.8184C59.4393 76.8373 59.3588 76.8468 59.2831 76.8468V76.8515ZM65.3237 72.2583C65.1675 72.2583 65.0113 72.2156 64.8645 72.1304C64.4432 71.8794 64.3107 71.33 64.5616 70.9133C65.1722 69.8999 65.5888 68.7824 65.8019 67.5939C65.8871 67.1109 66.351 66.7888 66.8292 66.8741C67.312 66.9593 67.6339 67.4232 67.5487 67.9062C67.2978 69.3079 66.8055 70.6291 66.0812 71.8319C65.9155 72.1065 65.622 72.2629 65.319 72.2629L65.3237 72.2583ZM66.6729 64.7667C66.2516 64.7667 65.8776 64.4636 65.8019 64.0375C65.5888 62.8489 65.1675 61.7314 64.5568 60.7181C64.3012 60.2966 64.4385 59.7519 64.8551 59.5009C65.2717 59.2452 65.8208 59.3827 66.0717 59.7994C66.796 60.9975 67.2931 62.3186 67.544 63.7202C67.6292 64.2032 67.312 64.6627 66.8292 64.7526C66.7771 64.7621 66.725 64.7667 66.6729 64.7667Z" fill="#483F99"/>
<path d="M30.2256 52.8097C30.0599 52.8097 29.8942 52.7624 29.7475 52.6724C29.1179 52.2699 28.5119 51.787 27.9438 51.2282C27.5935 50.8825 27.5888 50.3238 27.9344 49.9734C28.1474 49.7555 28.4456 49.6702 28.7249 49.7223C28.7912 49.3813 29.0563 49.0925 29.4208 49.0214C29.899 48.922 30.3677 49.2345 30.4671 49.7128C30.5949 50.352 30.789 50.9818 31.0399 51.5785C31.1914 51.9384 31.092 52.3504 30.7937 52.6014C30.628 52.7387 30.4245 52.8097 30.2209 52.8097H30.2256Z" fill="#483F99"/>
<path d="M29.5818 46.5065C29.525 46.5065 29.4682 46.5019 29.4114 46.4924C28.9285 46.3977 28.6161 45.9335 28.7108 45.4505C29.0137 43.9021 29.6055 42.4625 30.4813 41.1792C30.7559 40.7719 31.3097 40.6678 31.7169 40.9424C32.124 41.2171 32.2281 41.7712 31.9536 42.1737C31.2151 43.2581 30.7133 44.4704 30.4576 45.7821C30.3771 46.2083 30.0031 46.5019 29.5865 46.5019L29.5818 46.5065ZM34.2827 39.6118C33.9845 39.6118 33.6957 39.465 33.53 39.1951C33.2696 38.7784 33.3974 38.229 33.814 37.9733C35.1538 37.1399 36.6261 36.6191 38.193 36.4297C38.6854 36.3729 39.1209 36.7185 39.1824 37.2015C39.244 37.6893 38.8937 38.1296 38.4108 38.1911C37.1042 38.3521 35.8734 38.7832 34.7561 39.4793C34.6094 39.5692 34.4484 39.6118 34.2874 39.6118H34.2827Z" fill="#483F99"/>
<path d="M44.4988 39.4602C44.3426 39.4602 44.1911 39.4223 44.0538 39.3418C43.4952 39.0151 42.8987 38.7499 42.288 38.551C41.8193 38.3995 41.5637 37.9023 41.7152 37.4335C41.8667 36.9647 42.3685 36.7138 42.8324 36.8606C43.036 36.9269 43.2395 36.9979 43.4384 37.0784C43.4147 36.9269 43.3863 36.78 43.3579 36.6284C43.2632 36.1454 43.5804 35.6813 44.0633 35.5866C44.5414 35.4966 45.0101 35.8092 45.1048 36.2922C45.2468 37.0215 45.3415 37.7697 45.3888 38.5131C45.4125 38.8399 45.2515 39.1525 44.9722 39.3277C44.8302 39.4177 44.6692 39.4602 44.5035 39.4602H44.4988Z" fill="#483F99"/>
<path d="M26.126 48.0982C25.8041 48.0982 25.4917 47.9229 25.3354 47.6151C24.6821 46.3366 24.1898 44.9444 23.8773 43.4812C23.7732 43.0029 24.0809 42.5293 24.559 42.4252C25.0372 42.321 25.5106 42.6288 25.6147 43.107C25.894 44.4187 26.3343 45.6642 26.9166 46.8054C27.1391 47.2411 26.9687 47.7762 26.5284 47.9987C26.4006 48.065 26.2633 48.0982 26.126 48.0982ZM24.3792 40.0431C24.3792 40.0431 24.3602 40.0431 24.3507 40.0431C23.8631 40.0289 23.475 39.6169 23.4939 39.1291C23.5412 37.6564 23.7685 36.2028 24.1661 34.8106C24.2987 34.3371 24.791 34.0672 25.2644 34.1997C25.7378 34.3323 26.0077 34.8247 25.8751 35.2983C25.5153 36.5531 25.3165 37.8601 25.2739 39.186C25.2597 39.669 24.862 40.0431 24.3886 40.0431H24.3792ZM42.9271 33.3995C42.5957 33.3995 42.2785 33.2148 42.1271 32.8975C41.5353 31.671 40.8015 30.5961 39.9447 29.7011C39.6038 29.346 39.618 28.7825 39.9731 28.4463C40.3281 28.1101 40.8915 28.1193 41.2276 28.4745C42.2123 29.5021 43.0549 30.7335 43.7272 32.1257C43.9402 32.5661 43.7556 33.0965 43.3153 33.3095C43.1922 33.3711 43.0597 33.3995 42.9318 33.3995H42.9271ZM26.6704 32.1352C26.5142 32.1352 26.3532 32.0924 26.2065 32.0025C25.7899 31.7467 25.6573 31.2021 25.913 30.7807C26.732 29.4406 27.7119 28.3088 28.8291 27.4185C29.2126 27.1107 29.7712 27.1723 30.0789 27.5559C30.3866 27.9394 30.3251 28.4983 29.9416 28.8061C28.9901 29.5685 28.1474 30.5439 27.4326 31.7088C27.2669 31.9835 26.9734 32.1352 26.6752 32.1352H26.6704ZM37.1895 27.6366C37.0806 27.6366 36.9717 27.6174 36.8675 27.5748C35.6935 27.1155 34.4627 26.9971 33.2697 27.2197C32.7868 27.3096 32.3229 26.9925 32.2329 26.5142C32.143 26.0312 32.4602 25.5672 32.9383 25.4772C34.4579 25.1931 36.0296 25.3398 37.5114 25.9223C37.9658 26.1022 38.1931 26.6135 38.0132 27.0728C37.8759 27.4233 37.5398 27.6366 37.1847 27.6366H37.1895Z" fill="#483F99"/>
<path d="M61.0111 61.3001L56.4001 56.4415C59.1553 51.6398 60.7649 45.8911 60.7649 39.7162C60.7649 22.9718 48.9629 9.35278 34.4579 9.35278C19.9528 9.35278 8.15082 22.9766 8.15082 39.7162C8.15082 56.4558 19.9528 70.0795 34.4579 70.0795C39.4239 70.0795 44.0679 68.4836 48.0351 65.7134L52.4282 70.3353C53.6118 71.5854 55.1693 72.2105 56.722 72.2105C58.2748 72.2105 59.8275 71.5854 61.0158 70.3353C63.3875 67.8397 63.3875 63.7908 61.0158 61.2952L61.0111 61.3001ZM34.4579 57.294C26.6467 57.294 20.2936 49.4048 20.2936 39.7162C20.2936 30.0275 26.6467 22.1383 34.4579 22.1383C42.269 22.1383 48.6221 30.0275 48.6221 39.7162C48.6221 42.2875 48.1629 44.7262 47.3628 46.9281L43.8123 43.1872C41.4406 40.6917 37.5965 40.6917 35.2248 43.1872C32.853 45.6828 32.853 49.7315 35.2248 52.227L39.1019 56.309C37.6439 56.9388 36.0864 57.2986 34.4626 57.2986L34.4579 57.294Z" fill="#483F99"/>
<defs>
<linearGradient id="paint0_linear_53_37444" x1="0.050869" y1="40.7815" x2="70.8815" y2="40.7815" gradientUnits="userSpaceOnUse">
<stop stop-color="#F1F2F2"/>
<stop offset="1" stop-color="#D1D3D4"/>
</linearGradient>
<linearGradient id="paint1_linear_53_37444" x1="1.39996" y1="40.782" x2="69.5322" y2="40.782" gradientUnits="userSpaceOnUse">
<stop stop-color="#D1D3D4"/>
<stop offset="1" stop-color="#F1F2F2"/>
</linearGradient>
</defs>
</svg>
