<svg width="69" height="89" viewBox="0 0 69 89" fill="none" xmlns="http://www.w3.org/2000/svg">
<g style="mix-blend-mode:multiply">
<path opacity="0.03" d="M24.0222 10.2743H42.9962C49.8179 10.2743 56.2326 13.073 61.0565 18.1541C65.8805 23.2304 68.5363 29.983 68.5363 37.1666C68.5363 44.3502 65.8805 51.1029 61.0565 56.184C60.6021 56.6623 60.1287 57.1263 59.6411 57.5667L59.8683 57.8271L64.3751 62.5719C64.5266 62.7329 64.6876 62.9082 64.8343 63.0739C67.225 65.8252 68.5363 69.3626 68.5363 73.113C68.5363 73.2314 68.5363 73.3544 68.5363 73.4728C68.4511 77.3227 66.9883 80.9312 64.394 83.6682C61.724 86.481 58.1688 88.0341 54.3863 88.0341C50.6038 88.0341 47.0485 86.4809 44.3738 83.6634L37.784 76.7212C37.7604 76.8301 37.7272 76.9296 37.6988 77.0338C37.6515 77.2185 37.5947 77.4268 37.5379 77.6068C35.7342 83.6823 30.3611 88.0295 24.0317 88.0295C16.2252 88.0295 9.87689 81.3431 9.87689 73.1225V25.1767C9.87689 16.956 16.2252 10.2697 24.0317 10.2697L24.0222 10.2743Z" fill="#FBFBFB"/>
<path opacity="0.06" d="M23.7003 9.94742H42.6743C49.496 9.94742 55.9059 12.746 60.7251 17.8223C65.5491 22.8987 68.2049 29.6466 68.2049 36.8302C68.2049 44.0138 65.5491 50.7618 60.7251 55.8382C60.2707 56.3164 59.7973 56.7805 59.3097 57.2209L59.5227 57.4812L64.0295 62.2261C64.1763 62.3823 64.3467 62.5671 64.4887 62.7281C66.8841 65.4746 68.2002 69.012 68.2049 72.7672C68.2049 72.8856 68.2049 73.0038 68.2049 73.1269C68.1244 76.9816 66.6616 80.59 64.0626 83.3224C61.3926 86.1352 57.8421 87.6836 54.0644 87.6836C50.2866 87.6836 46.7313 86.1351 44.0613 83.3175L37.4621 76.3707C37.4384 76.4749 37.3958 76.5649 37.3722 76.6644C37.3248 76.8443 37.268 77.062 37.2112 77.242C35.4123 83.3317 30.0391 87.6836 23.705 87.6836C15.908 87.6836 9.55969 81.0019 9.55969 72.7908V24.8449C9.55969 16.6338 15.9033 9.95204 23.705 9.95204L23.7003 9.94742Z" fill="#F7F7F7"/>
<path opacity="0.1" d="M23.3735 9.62538H42.3475C49.1646 9.62538 55.5744 12.4193 60.389 17.4957C65.2082 22.5673 67.864 29.3152 67.864 36.4941C67.864 43.6729 65.2082 50.4209 60.389 55.4925C59.9345 55.9708 59.4611 56.4348 58.9735 56.8752L59.1676 57.1356L63.6791 61.8853C63.8211 62.0321 64.0058 62.2358 64.1383 62.3873C66.5385 65.1291 67.8593 68.6711 67.864 72.4216C67.864 72.5399 67.864 72.6582 67.864 72.7813C67.7882 76.6359 66.3254 80.2491 63.7264 82.9814C61.0612 85.7895 57.5107 87.338 53.7329 87.338C49.9551 87.338 46.4046 85.7896 43.7346 82.9768L37.1306 76.0203C37.107 76.1197 37.0596 76.1955 37.036 76.295C36.9933 76.4702 36.9271 76.7023 36.8797 76.8728C35.0903 82.9767 29.7124 87.3332 23.3783 87.3332C15.586 87.3332 9.24243 80.6564 9.24243 72.45V24.5042C9.24243 16.2977 15.5813 9.62076 23.3783 9.62076L23.3735 9.62538Z" fill="#F3F3F3"/>
<path opacity="0.13" d="M23.0469 9.29875H42.0209C48.8332 9.29875 55.2383 12.0928 60.0576 17.1644C64.8768 22.236 67.5279 28.979 67.5279 36.1531C67.5279 43.3272 64.8721 50.0705 60.0576 55.1421C59.6031 55.6204 59.1297 56.0844 58.6421 56.5248L58.822 56.7805L63.3335 61.5302C63.4708 61.6723 63.6649 61.8854 63.7927 62.0322C66.1976 64.774 67.5184 68.3112 67.5326 72.0616C67.5326 72.18 67.5326 72.2985 67.5326 72.4216C67.4569 76.2762 65.9941 79.8893 63.3998 82.6263C60.7346 85.4344 57.1888 86.983 53.4157 86.983C49.6427 86.983 46.0922 85.4345 43.4269 82.6217L36.8182 75.6606C36.7945 75.7553 36.7425 75.8216 36.7188 75.9163C36.6762 76.082 36.6099 76.3281 36.5626 76.4939C34.7826 82.612 29.3952 86.9781 23.0658 86.9781C15.2784 86.9781 8.94421 80.306 8.94421 72.109V24.1632C8.94421 15.9615 15.2784 9.29413 23.0658 9.29413L23.0469 9.29875Z" fill="#EFEFEF"/>
<path opacity="0.16" d="M22.7249 8.97693H41.6989C48.5112 8.97693 54.9116 11.7707 59.7261 16.8423C64.5406 21.9092 67.1917 28.6524 67.1917 35.8218C67.1917 42.9912 64.5406 49.7343 59.7214 54.8059C59.2669 55.2842 58.7935 55.7482 58.3059 56.1886L58.4669 56.4444L62.9784 61.1941C63.111 61.3314 63.3145 61.5538 63.4376 61.6958C65.8472 64.4329 67.1728 67.9703 67.187 71.7255C67.187 71.8438 67.187 71.9624 67.187 72.0855C67.1159 75.9401 65.6531 79.5578 63.0541 82.2901C60.3936 85.0935 56.8478 86.6419 53.0748 86.6419C49.3018 86.6419 45.756 85.0934 43.0907 82.2853L36.4725 75.3195C36.4489 75.4143 36.3921 75.4665 36.3684 75.5612C36.3258 75.7222 36.2595 75.9825 36.2122 76.1388C34.4416 82.2711 29.0496 86.6419 22.7154 86.6419C14.9327 86.6419 8.60327 79.9746 8.60327 71.7823V23.8365C8.60327 15.6443 14.9327 8.97693 22.7154 8.97693H22.7249Z" fill="#EBEBEB"/>
<path opacity="0.19" d="M22.3984 8.64957H41.3724C48.1799 8.64957 54.5803 11.4435 59.3949 16.5104C64.2094 21.5772 66.8604 28.3158 66.8604 35.4852C66.8604 42.6546 64.2094 49.393 59.3949 54.4598C58.9404 54.9381 58.467 55.4021 57.9794 55.8425L58.1261 56.0983L62.6377 60.848C62.7655 60.9806 62.9785 61.2124 63.0969 61.3497C65.5112 64.0868 66.8415 67.6196 66.8557 71.3747C66.8557 71.4931 66.8557 71.6115 66.8557 71.7299C66.7847 75.5892 65.3266 79.2021 62.7276 81.9392C60.0671 84.7425 56.526 86.2864 52.7577 86.2864C48.9894 86.2864 45.4484 84.7427 42.7831 81.9346L36.1602 74.9594C36.1413 75.0493 36.0703 75.0918 36.0513 75.1818C36.0135 75.3381 35.9424 75.6082 35.8951 75.7645C34.134 81.911 28.7372 86.2864 22.4031 86.2864C14.6298 86.2864 8.30042 79.6236 8.30042 71.4409V23.4951C8.30042 15.3076 14.6251 8.64957 22.4031 8.64957H22.3984Z" fill="#E6E7E7"/>
<path opacity="0.23" d="M22.0763 8.328H41.0503C47.8579 8.328 54.2536 11.1171 59.0633 16.1839C63.8731 21.2461 66.5242 27.9847 66.5242 35.1493C66.5242 42.314 63.8731 49.0523 59.0633 54.1145C58.6089 54.5927 58.1355 55.0568 57.6479 55.4972L57.7757 55.7529L62.2872 60.5072C62.4103 60.6351 62.6328 60.8766 62.7464 61.0092C65.1655 63.7415 66.5005 67.2789 66.5194 71.0294C66.5194 71.1478 66.5194 71.2661 66.5194 71.3845C66.4532 75.2439 64.9951 78.8616 62.3961 81.5987C59.7403 84.402 56.1992 85.941 52.4357 85.941C48.6721 85.941 45.1311 84.3972 42.4705 81.5938L35.8429 74.614C35.8239 74.6992 35.7482 74.7324 35.7293 74.8177C35.6914 74.9692 35.6157 75.2533 35.573 75.4001C33.8215 81.5609 28.4199 85.9458 22.081 85.9458C14.3125 85.9458 7.99255 79.2879 7.99255 71.1098V23.164C7.99255 14.9813 14.3125 8.328 22.081 8.328H22.0763Z" fill="#E2E3E3"/>
<path opacity="0.26" d="M21.7497 8.00137H40.7237C47.5265 8.00137 53.9222 10.7904 58.7272 15.8573C63.537 20.9194 66.1833 27.6531 66.1833 34.813C66.1833 41.9729 63.5323 48.7066 58.7225 53.7735C58.268 54.2518 57.7946 54.7113 57.3117 55.1564L57.4254 55.4119L61.9416 60.1663C62.06 60.2894 62.292 60.5404 62.4008 60.6683C64.8247 63.4006 66.1644 66.9332 66.1833 70.6884C66.1833 70.8068 66.1833 70.9252 66.1833 71.0436C66.1218 74.9029 64.6637 78.5255 62.06 81.2626C59.4042 84.0612 55.8679 85.6049 52.1043 85.6049C48.3408 85.6049 44.8044 84.0611 42.1439 81.2577L35.5115 74.273C35.4926 74.3535 35.4121 74.3725 35.3932 74.4578C35.3553 74.5998 35.2795 74.9029 35.2369 75.0402C33.4948 81.2152 28.0885 85.6049 21.7497 85.6049C13.9859 85.6049 7.67065 78.9564 7.67065 70.7784V22.8325C7.67065 14.6592 13.9859 8.006 21.7497 8.006V8.00137Z" fill="#DEDFE0"/>
<path opacity="0.29" d="M21.4279 7.67908H40.4019C47.1999 7.67908 53.5909 10.4683 58.4007 15.5304C63.2105 20.5925 65.8568 27.3215 65.8568 34.4814C65.8568 41.6413 63.2105 48.3703 58.4007 53.4325C57.9462 53.9107 57.4728 54.3702 56.9899 54.8105L57.0846 55.066L61.6009 59.8204C61.7098 59.9388 61.9559 60.1992 62.0601 60.3224C64.4886 63.05 65.8331 66.5825 65.8568 70.3377C65.8568 70.4561 65.8568 70.5744 65.8568 70.6928C65.7952 74.5522 64.3372 78.1748 61.7382 80.9118C59.0824 83.7104 55.5508 85.2495 51.792 85.2495C48.0331 85.2495 44.4968 83.7058 41.841 80.9072L35.1992 73.913C35.1802 73.9935 35.095 73.9983 35.0761 74.0788C35.0429 74.2161 34.9625 74.5286 34.9199 74.6659C33.1872 80.855 27.7762 85.2495 21.4326 85.2495C13.6735 85.2495 7.36304 78.6059 7.36304 70.4373V22.4915C7.36304 14.323 13.6735 7.67908 21.4326 7.67908H21.4279Z" fill="#DADBDC"/>
<path opacity="0.32" d="M21.1012 7.35224H40.0752C46.8733 7.35224 53.2595 10.1413 58.0646 15.1987C62.8696 20.2561 65.5159 26.9851 65.5159 34.1403C65.5159 41.2954 62.8696 48.0244 58.0646 53.0818C57.6101 53.5601 57.1367 54.0195 56.6538 54.4599L56.7296 54.7156L61.2458 59.47C61.35 59.5836 61.6056 59.8536 61.705 59.9719C64.1383 62.6948 65.4828 66.232 65.5112 69.9824C65.5112 70.1008 65.5112 70.2192 65.5112 70.3375C65.4544 74.2016 63.9963 77.8243 61.3926 80.5614C58.7415 83.3553 55.21 84.8942 51.4559 84.8942C47.7018 84.8942 44.1654 83.3552 41.5144 80.5565L34.8678 73.5577C34.8489 73.6335 34.7589 73.6288 34.74 73.7046C34.7068 73.8372 34.6264 74.1638 34.5838 74.2916C32.8606 80.495 27.4448 84.8989 21.1012 84.8989C13.3516 84.8989 7.04114 78.26 7.04114 70.0961V22.1503C7.04114 13.9865 13.3469 7.34738 21.1012 7.34738V7.35224Z" fill="#D6D7D8"/>
<path opacity="0.35" d="M20.7793 7.02558H39.7534C46.5467 7.02558 52.9329 9.81001 57.7332 14.8674C62.5383 19.9248 65.1799 26.649 65.1799 33.7995C65.1799 40.9499 62.5335 47.6788 57.7285 52.7362C57.274 53.2145 56.8006 53.6739 56.3177 54.1143L56.3793 54.37L60.8956 59.1243C60.995 59.2285 61.2601 59.5127 61.3595 59.6263C63.7975 62.3492 65.1467 65.8817 65.1799 69.6321C65.1799 69.7505 65.1799 69.8689 65.1799 69.9873C65.1231 73.8514 63.6697 77.474 61.066 80.2158C58.4149 83.0097 54.8881 84.5486 51.134 84.5486C47.3799 84.5486 43.853 83.0095 41.1972 80.2109L34.5459 73.2026C34.527 73.2737 34.4276 73.2595 34.4134 73.3305C34.3802 73.4536 34.295 73.7945 34.2571 73.9176C32.5434 80.1351 27.1229 84.5438 20.7793 84.5438C13.0345 84.5438 6.73346 77.9095 6.73346 69.7552V21.8093C6.73346 13.655 13.0345 7.02072 20.7793 7.02072V7.02558Z" fill="#D2D3D4"/>
<path opacity="0.39" d="M20.4526 6.70352H39.4266C46.2152 6.70352 52.6014 9.48796 57.4018 14.5454C62.2021 19.598 64.8484 26.3224 64.8484 33.4728C64.8484 40.6232 62.2021 47.3426 57.4018 52.4C56.9473 52.8783 56.4786 53.3377 55.991 53.7781L56.0336 54.0338L60.5546 58.7928C60.6493 58.8923 60.9239 59.1906 61.0186 59.2948C63.4613 62.0129 64.8153 65.5454 64.8484 69.3006C64.8484 69.419 64.8484 69.5374 64.8484 69.6558C64.7963 73.5198 63.343 77.1473 60.7392 79.8891C58.0929 82.6783 54.5661 84.2171 50.8167 84.2171C47.0674 84.2171 43.5405 82.6781 40.8894 79.8843L34.2286 72.8711C34.2144 72.9374 34.1056 72.9137 34.0914 72.98C34.063 73.0984 33.973 73.4537 33.9399 73.5673C32.2356 79.7991 26.8104 84.2125 20.4621 84.2125C12.7219 84.2125 6.42566 77.5829 6.42566 69.4333V21.4875C6.42566 13.3379 12.7219 6.70838 20.4621 6.70838L20.4526 6.70352Z" fill="#CECFD0"/>
<path opacity="0.42" d="M20.1307 6.37689H39.1048C45.8934 6.37689 52.2748 9.16121 57.0704 14.2139C61.8707 19.2665 64.5123 25.9814 64.5123 33.1318C64.5123 40.2823 61.8707 46.9972 57.0704 52.0498C56.616 52.5281 56.1473 52.9873 55.6597 53.4277L55.6881 53.6834L60.2091 58.4426C60.299 58.5373 60.5878 58.8451 60.673 58.9446C63.1205 61.6627 64.4792 65.1904 64.5123 68.9455C64.5123 69.0639 64.5123 69.1823 64.5123 69.3007C64.4603 73.1695 63.0069 76.797 60.4032 79.534C57.7569 82.3232 54.2347 83.8574 50.4854 83.8574C46.736 83.8574 43.2139 82.3183 40.5628 79.5292L33.8973 72.5114C33.8831 72.5777 33.7695 72.5398 33.7506 72.6014C33.7222 72.715 33.6322 73.0796 33.5991 73.1933C31.9043 79.4393 26.4743 83.862 20.126 83.862C12.3906 83.862 6.09906 77.2372 6.09906 69.0924V21.1465C6.09906 13.0017 12.3906 6.37689 20.126 6.37689H20.1307Z" fill="#CACBCC"/>
<path opacity="0.45" d="M19.804 6.05465H38.7781C45.5619 6.05465 51.9387 8.83907 56.739 13.887C61.5346 18.9349 64.1762 25.6498 64.1762 32.7955C64.1762 39.9412 61.5346 46.6561 56.7342 51.704C56.2845 52.1823 55.8111 52.6414 55.3235 53.0818L55.333 53.3376L59.854 58.0968C59.9392 58.1867 60.2374 58.504 60.3179 58.5987C62.7701 61.3121 64.1335 64.8447 64.1714 68.5951C64.1714 68.7135 64.1714 68.8319 64.1714 68.9502C64.1241 72.8191 62.6707 76.4464 60.067 79.1882C57.4254 81.9726 53.9033 83.5067 50.1587 83.5067C46.4141 83.5067 42.8919 81.9726 40.2456 79.1787L33.5753 72.1513C33.5611 72.2128 33.4428 72.1607 33.4239 72.2222C33.3955 72.3264 33.3008 72.71 33.2724 72.8142C31.5871 79.0743 26.1524 83.5021 19.7993 83.5021C12.0734 83.5021 5.78656 76.8819 5.78656 68.7465V20.8007C5.78656 12.6653 12.0734 6.04517 19.7993 6.04517L19.804 6.05465Z" fill="#C6C7C8"/>
<path opacity="0.48" d="M19.4775 5.72797H38.4515C45.2353 5.72797 51.6074 8.50766 56.4029 13.5603C61.1985 18.6082 63.8401 25.3184 63.8401 32.4593C63.8401 39.6003 61.1985 46.3103 56.4029 51.363C55.9532 51.8365 55.4798 52.3007 54.9922 52.741V52.9968L59.5085 57.7557C59.5889 57.841 59.8966 58.1678 59.9724 58.2577C62.4294 60.9664 63.7975 64.4989 63.8354 68.2541C63.8354 68.3725 63.8354 68.4908 63.8354 68.6092C63.7928 72.478 62.3394 76.11 59.7357 78.8518C57.0941 81.6362 53.5767 83.1705 49.8368 83.1705C46.0969 83.1705 42.5748 81.6363 39.9332 78.8472L33.2535 71.8151C33.2393 71.8719 33.1162 71.815 33.0973 71.8671C33.0736 71.9666 32.9742 72.3596 32.9458 72.459C31.2699 78.7334 25.8305 83.1705 19.4775 83.1705C11.7562 83.1705 5.47418 76.5554 5.47418 68.4247V20.4789C5.47418 12.3482 11.7562 5.73282 19.4775 5.73282V5.72797Z" fill="#C2C3C4"/>
<path opacity="0.52" d="M19.1555 5.4064H38.1295C44.9087 5.4064 51.2807 8.18597 56.0715 13.2339C60.8671 18.2771 63.504 24.9871 63.504 32.1281C63.504 39.269 60.8624 45.9745 56.0715 51.0224C55.6218 51.496 55.1484 51.9599 54.6655 52.4003L54.6418 52.656L59.1629 57.4199C59.2386 57.5004 59.5558 57.8365 59.6268 57.917C62.0885 60.6256 63.4566 64.1535 63.504 67.9087C63.504 68.0271 63.504 68.1455 63.504 68.2638C63.4614 72.1327 62.0127 75.7648 59.4043 78.5113C56.7627 81.291 53.25 82.8252 49.5102 82.8252C45.7703 82.8252 42.2576 81.2908 39.6113 78.5064L32.9268 71.4697C32.9126 71.5218 32.7801 71.4509 32.7659 71.503C32.7422 71.5977 32.6428 72.005 32.6144 72.0949C30.948 78.3835 25.5039 82.8252 19.1508 82.8252C11.4343 82.8252 5.15698 76.2146 5.15698 68.0934V20.1476C5.15698 12.0217 11.4343 5.41588 19.1508 5.41588L19.1555 5.4064Z" fill="#BDBEC0"/>
<path opacity="0.55" d="M18.8288 5.07982H37.8028C44.5772 5.07982 50.9492 7.85951 55.7401 12.9027C60.5309 17.9459 63.1678 24.6511 63.1678 31.7874C63.1678 38.9236 60.5309 45.6289 55.7353 50.6721C55.2856 51.1456 54.8122 51.6096 54.3293 52.0453L54.2914 52.301L58.8172 57.0648C58.8882 57.1406 59.2148 57.4862 59.2811 57.562C61.7476 60.2659 63.1204 63.7986 63.1678 67.549C63.1678 67.6674 63.1678 67.7858 63.1678 67.9042C63.1299 71.7777 61.6765 75.4096 59.0728 78.1514C56.436 80.9311 52.9233 82.4607 49.1882 82.4607C45.453 82.4607 41.9403 80.9265 39.2988 78.1468L32.6096 71.1006C32.6001 71.1527 32.4581 71.0673 32.4439 71.1147C32.4202 71.1999 32.3208 71.6215 32.2924 71.7115C30.6355 78.0143 25.1866 82.4607 18.8288 82.4607C11.117 82.4607 4.84918 75.8549 4.84918 67.7384V19.7926C4.84918 11.6761 11.1218 5.07034 18.8288 5.07034V5.07982Z" fill="#B9BABC"/>
<path opacity="0.58" d="M18.507 4.75748H37.481C44.2554 4.75748 50.6227 7.53704 55.4088 12.5755C60.1997 17.6139 62.8365 24.3194 62.8365 31.4509C62.8365 38.5824 60.1997 45.2876 55.4088 50.3307C54.9591 50.8043 54.4857 51.2685 54.0028 51.7042L53.946 51.9599L58.4717 56.7235C58.538 56.7946 58.8741 57.1498 58.9357 57.2209C61.4068 59.9248 62.7844 63.4526 62.8318 67.2077C62.8318 67.3261 62.8318 67.4445 62.8318 67.5629C62.7939 71.4364 61.3453 75.0732 58.7416 77.815C56.1047 80.5946 52.5968 82.1242 48.8664 82.1242C45.136 82.1242 41.6233 80.5947 38.9864 77.8103L32.2878 70.7593C32.2783 70.8066 32.1316 70.7119 32.1174 70.7593C32.0984 70.8398 31.9895 71.2756 31.9659 71.3561C30.3184 77.6731 24.8648 82.1291 18.507 82.1291C10.8047 82.1291 4.53687 75.5279 4.53687 67.4209V19.4751C4.53687 11.3634 10.8047 4.76696 18.507 4.76696V4.75748Z" fill="#B5B6B8"/>
<path opacity="0.61" d="M18.1804 4.43085H37.1544C43.9241 4.43085 50.2866 7.20567 55.0727 12.2489C59.8588 17.2873 62.4957 23.9879 62.4957 31.1194C62.4957 38.2509 59.8588 44.9468 55.0727 49.99C54.623 50.4636 54.1496 50.9276 53.6667 51.3632L53.591 51.6143L58.1167 56.3779C58.1782 56.4395 58.5238 56.809 58.5806 56.8753C61.0565 59.5745 62.4389 63.1024 62.491 66.8575C62.491 66.9759 62.491 67.0943 62.491 67.2127C62.4578 71.0862 61.0092 74.7229 58.4007 77.4694C55.7686 80.2443 52.2607 81.774 48.5303 81.774C44.7999 81.774 41.2919 80.2444 38.6551 77.4648L31.9517 70.4042C31.9422 70.4468 31.7907 70.3426 31.7765 70.3853C31.7576 70.461 31.6487 70.911 31.625 70.982C29.9871 77.3132 24.5287 81.774 18.1662 81.774C10.4686 81.774 4.20551 75.1823 4.20551 67.0753V19.1295C4.20551 11.0225 10.4686 4.43085 18.1662 4.43085H18.1804Z" fill="#B1B2B4"/>
<path opacity="0.65" d="M17.8583 4.1086H36.8324C43.602 4.1086 49.9598 6.88354 54.7459 11.922C59.5321 16.9604 62.1642 23.6563 62.1642 30.7831C62.1642 37.9099 59.5273 44.6057 54.7412 49.6442C54.2915 50.1177 53.8181 50.577 53.3352 51.0174L53.2453 51.2683L57.771 56.037C57.8278 56.0938 58.1829 56.4725 58.2349 56.5341C60.7156 59.2333 62.1026 62.7565 62.1547 66.5117C62.1547 66.6301 62.1547 66.7485 62.1547 66.8668C62.1263 70.7404 60.6777 74.3818 58.0692 77.1235C55.4371 79.8985 51.9339 81.4233 48.2082 81.4233C44.4826 81.4233 40.9746 79.8939 38.3425 77.1189L31.6344 70.0538C31.6249 70.0916 31.464 69.9732 31.4545 70.0158C31.4356 70.0821 31.3267 70.5461 31.3077 70.6124C29.6792 76.9578 24.2162 81.4233 17.8536 81.4233C10.1608 81.4233 3.9024 74.8364 3.9024 66.7341V18.7883C3.9024 10.6908 10.1608 4.09912 17.8536 4.09912L17.8583 4.1086Z" fill="#ADAEB0"/>
<path opacity="0.68" d="M17.5318 3.78192H36.5058C43.2708 3.78192 49.6286 6.55697 54.41 11.5907C59.1913 16.6244 61.8282 23.32 61.8282 30.4421C61.8282 37.5641 59.1961 44.26 54.41 49.2937C53.9602 49.7672 53.4868 50.2267 53.004 50.6671L52.8951 50.918L57.4255 55.6865C57.4776 55.7386 57.8421 56.1317 57.8895 56.1838C60.3748 58.8783 61.7667 62.406 61.8235 66.1612C61.8235 66.2796 61.8235 66.398 61.8235 66.5164C61.7951 70.3946 60.3464 74.0361 57.7427 76.7779C55.1153 79.5481 51.6121 81.0777 47.8865 81.0777C44.1608 81.0777 40.6623 79.5482 38.0255 76.7733L31.3126 69.7033C31.3031 69.7411 31.1374 69.6085 31.128 69.6464C31.1138 69.7079 31.0002 70.1862 30.9812 70.2478C29.3622 76.6074 23.8944 81.0825 17.5271 81.0825C9.84375 81.0825 3.59009 74.5002 3.59009 66.4074V18.4616C3.59009 10.3688 9.84375 3.78678 17.5271 3.78678L17.5318 3.78192Z" fill="#A9AAAC"/>
<path opacity="0.71" d="M17.2098 3.45529H36.1838C42.944 3.45529 49.3018 6.23011 54.0832 11.2638C58.8646 16.2975 61.4967 22.9887 61.4967 30.106C61.4967 37.2233 58.8646 43.9192 54.0832 48.953C53.6335 49.4265 53.1601 49.8858 52.6772 50.3262L52.5541 50.577L57.0846 55.3457C57.1319 55.3931 57.5059 55.7955 57.5533 55.8429C60.0434 58.5326 61.4399 62.0605 61.4967 65.8156C61.4967 65.934 61.4967 66.0524 61.4967 66.1708C61.4731 70.049 60.0244 73.6907 57.416 76.4372C54.7886 79.2074 51.2901 80.7321 47.5692 80.7321C43.8482 80.7321 40.3498 79.2073 37.7177 76.4323L30.9953 69.3531C30.9859 69.3862 30.8154 69.2441 30.806 69.2772C30.7918 69.334 30.6734 69.8218 30.6592 69.8786C29.0496 76.2524 23.5771 80.7321 17.2098 80.7321C9.53121 80.7321 3.28229 74.1545 3.28229 66.0665V18.1207C3.28229 10.0326 9.53121 3.45529 17.2098 3.45529Z" fill="#A5A6A8"/>
<path opacity="0.74" d="M16.8832 3.133H35.8572C42.6174 3.133 48.9704 5.90319 53.7471 10.9369C58.5237 15.9659 61.1558 22.6571 61.1558 29.7744C61.1558 36.8917 58.5237 43.578 53.7423 48.6117C53.2926 49.0852 52.8192 49.5445 52.3363 49.9849L52.1943 50.236L56.7248 55.0045C56.7674 55.0471 57.1556 55.4592 57.1935 55.5018C59.6883 58.1915 61.0848 61.7146 61.1511 65.4697C61.1511 65.5881 61.1511 65.7065 61.1511 65.8249C61.1274 69.7032 59.6836 73.3494 57.0751 76.0959C54.4477 78.8614 50.954 80.3862 47.2378 80.3862C43.5216 80.3862 40.0231 78.8615 37.3957 76.0913L30.6687 69.0072C30.6639 69.0356 30.484 68.884 30.4746 68.9124C30.4604 68.9645 30.342 69.4664 30.3278 69.5138C28.7277 75.9018 23.2504 80.3862 16.8832 80.3862C9.20928 80.3862 2.96509 73.8135 2.96509 65.7349V17.7891C2.96509 9.71054 9.20928 3.13785 16.8832 3.13785V3.133Z" fill="#A1A2A4"/>
<path opacity="0.77" d="M16.5564 2.80637H35.5304C42.2859 2.80637 48.6342 5.57667 53.4109 10.6057C58.1875 15.6346 60.8197 22.3209 60.8197 29.4335C60.8197 36.546 58.1875 43.2325 53.4109 48.2615C52.9612 48.735 52.4878 49.1943 52.0096 49.6347L51.8534 49.8856L56.3839 54.6543C56.417 54.6921 56.8194 55.1135 56.8525 55.1514C59.3521 57.8363 60.7534 61.3641 60.8197 65.1193C60.8197 65.2377 60.8197 65.356 60.8197 65.4744C60.8007 69.3527 59.3568 72.9992 56.7437 75.7457C54.121 78.5112 50.6273 80.0311 46.9111 80.0311C43.1948 80.0311 39.7011 78.5063 37.0737 75.7408L30.3419 68.6521C30.3372 68.6758 30.1526 68.5147 30.1431 68.5383C30.1336 68.581 30.0105 69.0971 29.9963 69.1397C28.4057 75.542 22.919 80.0358 16.5517 80.0358C8.88255 80.0358 2.64783 73.4678 2.64783 65.394V17.4482C2.64783 9.37431 8.88729 2.80637 16.5517 2.80637H16.5564Z" fill="#9D9EA1"/>
<path opacity="0.81" d="M16.2346 2.48459H35.2087C41.9594 2.48459 48.3077 5.25478 53.0844 10.279C57.861 15.3033 60.4884 21.9895 60.4884 29.0973C60.4884 36.2052 57.861 42.8915 53.0844 47.9205C52.6346 48.3941 52.166 48.8535 51.6831 49.2891L51.5079 49.54L56.0384 54.3133C56.0668 54.3464 56.4787 54.7775 56.5071 54.8106C59.0114 57.4956 60.4174 61.0185 60.4837 64.7737C60.4837 64.8921 60.4837 65.0105 60.4837 65.1288C60.4647 69.0119 59.0208 72.6582 56.4124 75.4047C53.7897 78.1655 50.3008 79.6902 46.5893 79.6902C42.8778 79.6902 39.3841 78.1656 36.7614 75.4001L30.0201 68.3017C30.0201 68.3017 29.8213 68.1502 29.8166 68.1692C29.8071 68.207 29.6793 68.7373 29.6698 68.7752C28.0887 75.1916 22.5972 79.6902 16.2299 79.6902C8.57023 79.6902 2.33551 73.127 2.33551 65.0579V17.112C2.33551 9.04294 8.57023 2.47974 16.2299 2.47974L16.2346 2.48459Z" fill="#999A9D"/>
<path opacity="0.84" d="M15.9079 2.15744H34.8819C41.6326 2.15744 47.9763 4.92289 52.7482 9.95187C57.5201 14.9761 60.1475 21.658 60.1475 28.7658C60.1475 35.8736 57.5201 42.5552 52.7482 47.5795C52.2984 48.053 51.8298 48.5122 51.3469 48.9479L51.1575 49.199L55.6927 53.9723C55.7164 54.0007 56.1377 54.441 56.1614 54.4694C58.6704 57.1496 60.0812 60.6726 60.1522 64.4278C60.1522 64.5462 60.1522 64.6647 60.1522 64.7783C60.138 68.6614 58.6941 72.3123 56.0857 75.0589C53.4677 77.8196 49.9788 79.3397 46.272 79.3397C42.5653 79.3397 39.0763 77.8197 36.4536 75.0542L29.7076 67.9511C29.7076 67.9511 29.5041 67.7805 29.4993 67.7995C29.4899 67.8326 29.362 68.3726 29.3526 68.4057C27.7809 74.8364 22.2846 79.3397 15.9126 79.3397C8.2577 79.3397 2.02771 72.7811 2.02771 64.7215V16.7756C2.02771 8.71601 8.2577 2.15744 15.9126 2.15744H15.9079Z" fill="#949699"/>
<path opacity="0.87" d="M15.586 1.83567H34.56C41.306 1.83567 47.6496 4.601 52.4168 9.62524C57.1887 14.6448 59.8161 21.3216 59.8161 28.4295C59.8161 35.5373 57.1887 42.2097 52.4168 47.2339C51.9671 47.7074 51.4984 48.1666 51.0155 48.6023L50.8072 48.8534L55.3424 53.6267C55.3424 53.6267 55.7922 54.1001 55.8111 54.1238C58.3249 56.7993 59.7404 60.3223 59.8114 64.0822C59.8114 64.2006 59.8114 64.3191 59.8114 64.4328C59.8019 68.3158 58.358 71.9666 55.7448 74.7179C53.1269 77.4739 49.6427 78.9941 45.9359 78.9941C42.2292 78.9941 38.7449 77.474 36.1222 74.7133L29.3715 67.6007C29.3715 67.6007 29.1632 67.4161 29.1585 67.4303C29.1537 67.454 29.0212 68.0126 29.0117 68.0363C27.4495 74.4812 21.9485 78.9941 15.5765 78.9941C7.92633 78.9941 1.70581 72.4403 1.70581 64.3854V16.4395C1.70581 8.38464 7.93107 1.83081 15.5765 1.83081L15.586 1.83567Z" fill="#909295"/>
<path opacity="0.9" d="M15.2594 1.5093H34.2334C40.9794 1.5093 47.3183 4.27474 52.0855 9.29425C56.8527 14.3138 59.48 20.9859 59.48 28.089C59.48 35.1921 56.8527 41.8642 52.0855 46.8837C51.6357 47.3573 51.1671 47.8167 50.6842 48.2523L50.457 48.5032L54.9922 53.2765C54.9922 53.2765 55.4466 53.7547 55.4608 53.7736C57.9794 56.4491 59.3996 59.9723 59.4753 63.7274C59.4753 63.8458 59.4753 63.9643 59.4753 64.0779C59.4658 67.9657 58.0267 71.6166 55.4135 74.3631C52.8003 77.1191 49.3161 78.6393 45.6141 78.6393C41.912 78.6393 38.4278 77.1192 35.8099 74.3585L29.0497 67.2413C29.0497 67.2413 28.8366 67.0422 28.8319 67.0517C28.8272 67.0706 28.6946 67.639 28.6851 67.6579C27.1324 74.117 21.6267 78.6344 15.2547 78.6344C7.60922 78.6344 1.39343 72.0854 1.39343 64.04V16.0942C1.39343 8.04404 7.61396 1.49982 15.2547 1.49982L15.2594 1.5093Z" fill="#8C8E91"/>
<path opacity="0.94" d="M14.9375 1.18695H33.9115C40.6528 1.18695 46.9869 3.95239 51.7541 8.9719C56.5213 13.9867 59.1439 20.6588 59.1439 27.7572C59.1439 34.8555 56.5213 41.5278 51.7541 46.5473C51.3043 47.0208 50.8357 47.4802 50.3528 47.9159L50.1114 48.1667L54.6466 52.9447C54.6466 52.9447 55.1058 53.4278 55.1152 53.442C57.6385 56.1128 59.0587 59.6358 59.1392 63.391C59.1392 63.5093 59.1392 63.6278 59.1392 63.7415C59.1344 67.6292 57.6953 71.2802 55.0821 74.0315C52.4689 76.7875 48.9894 78.3028 45.2874 78.3028C41.5854 78.3028 38.1059 76.7826 35.4879 74.0266L28.723 66.9046C28.723 66.9046 28.5052 66.6915 28.5005 66.6963C28.5005 66.7105 28.3585 67.2929 28.3585 67.3071C26.8152 73.7757 21.3048 78.3028 14.928 78.3028C7.29202 78.3028 1.07623 71.7584 1.07623 63.7177V15.7719C1.07623 7.73117 7.29202 1.18695 14.928 1.18695H14.9375Z" fill="#888A8D"/>
<path opacity="0.97" d="M14.6108 0.860321H33.5848C40.3213 0.860321 46.6555 3.62114 51.4226 8.64065C56.1851 13.6554 58.8125 20.3227 58.8125 27.421C58.8125 34.5194 56.1898 41.1869 51.4226 46.2017C50.9729 46.6752 50.5042 47.1346 50.0214 47.5703L49.761 47.8211L54.3009 52.5991C54.3009 52.5991 54.7649 53.087 54.7696 53.0964C57.2976 55.7672 58.7225 59.2855 58.803 63.0454C58.803 63.1638 58.803 63.2775 58.803 63.3959C58.803 67.2837 57.3591 70.9393 54.7459 73.6905C52.1328 76.4418 48.658 77.9572 44.9607 77.9572C41.2634 77.9572 37.7839 76.4419 35.1707 73.6859L28.401 66.5544C28.401 66.5544 28.1738 66.327 28.1738 66.3317C28.1738 66.3364 28.0318 66.9379 28.0318 66.9426C26.4979 73.4253 20.9828 77.9619 14.6061 77.9619C6.97479 77.9619 0.763733 71.4223 0.763733 63.391V15.4452C0.763733 7.40927 6.97479 0.874425 14.6061 0.874425L14.6108 0.860321Z" fill="#848689"/>
<path d="M44.6436 77.6068C40.9463 77.6068 37.4762 76.0916 34.863 73.3403L27.8567 65.9625L27.7147 66.5734C26.1903 73.0704 20.6704 77.6116 14.2889 77.6116C6.6624 77.6116 0.460815 71.0815 0.460815 63.0503V15.1045C0.460815 7.07325 6.6624 0.543152 14.2889 0.543152H33.2629C39.9995 0.543152 46.3289 3.30385 51.0913 8.31862C55.8538 13.3287 58.4764 19.9962 58.4764 27.0898C58.4764 34.1834 55.8538 40.8459 51.0913 45.8607C50.6463 46.3295 50.1729 46.7936 49.69 47.2293L49.4155 47.4802L54.4241 52.7554C57.0373 55.5067 58.4764 59.1625 58.4764 63.0503C58.4764 66.938 57.0373 70.5985 54.4241 73.3498C51.8156 76.101 48.3409 77.6116 44.6483 77.6116L44.6436 77.6068Z" fill="#808285"/>
</g>
<path d="M44.6435 77.9573C40.8563 77.9573 37.301 76.4041 34.6215 73.5865L28.0365 66.6538C26.5027 73.1839 20.9212 77.9619 14.2841 77.9619C6.47295 77.9619 0.119873 71.2708 0.119873 63.0454V15.0996C0.119873 6.87421 6.47295 0.183105 14.2841 0.183105H33.2581C40.0846 0.183105 46.4992 2.98179 51.3232 8.06286C56.1472 13.1439 58.8077 19.8966 58.8077 27.0849C58.8077 34.2732 56.1472 41.0258 51.3232 46.1069C50.8687 46.5852 50.3953 47.0493 49.9077 47.4945L54.6607 52.4997C57.3354 55.3172 58.8124 59.0629 58.8124 63.0454C58.8124 67.0279 57.3402 70.7784 54.6607 73.596C51.9907 76.4135 48.4307 77.9619 44.6435 77.9619V77.9573Z" fill="url(#paint0_linear_53_37401)"/>
<path d="M44.6435 76.5371C41.2161 76.5371 37.9969 75.1306 35.5778 72.583L27.0897 63.6473C26.7867 70.8119 21.1627 76.5417 14.2841 76.5417C7.4056 76.5417 1.46912 70.4852 1.46912 63.0459V15.1C1.46912 7.66075 7.22097 1.60419 14.2841 1.60419H33.2582C39.7248 1.60419 45.7986 4.25613 50.3717 9.06728C54.94 13.8784 57.4586 20.2759 57.4586 27.0853C57.4586 33.8948 54.94 40.2925 50.367 45.1036C49.5858 45.9276 48.7574 46.6851 47.8911 47.3812L53.7045 53.4995C56.1236 56.0471 57.4586 59.4376 57.4586 63.0412C57.4586 66.6449 56.1236 70.0354 53.7045 72.583C51.2901 75.1306 48.0662 76.5371 44.6435 76.5371Z" fill="url(#paint1_linear_53_37401)"/>
<path d="M24.4433 59.7594C23.951 59.7594 23.558 59.3617 23.558 58.8692V56.7383C23.558 56.3737 23.7805 56.0468 24.1167 55.9142C24.4528 55.7816 24.8362 55.8622 25.0919 56.1274L26.5594 57.671C26.8955 58.0262 26.8813 58.5899 26.5263 58.9261C26.1902 59.2434 25.6742 59.248 25.3286 58.9497C25.286 59.3996 24.9072 59.7548 24.4433 59.7548V59.7594Z" fill="#FAAC18"/>
<path d="M13.2094 74.3486C13.1763 74.3486 13.1432 74.3487 13.11 74.344C11.5478 74.1735 10.0708 73.6715 8.71684 72.857C8.29551 72.6061 8.16296 72.0566 8.41386 71.6399C8.66477 71.2184 9.20918 71.086 9.63051 71.337C10.7619 72.0189 11.9975 72.4403 13.2994 72.5823C13.787 72.6344 14.1373 73.0747 14.0852 73.5625C14.0379 74.0171 13.6497 74.3533 13.2047 74.3533L13.2094 74.3486ZM17.4369 73.8892C17.0677 73.8892 16.7221 73.6572 16.5943 73.2878C16.4381 72.8237 16.689 72.3171 17.1529 72.1608C18.3885 71.7441 19.5104 71.0718 20.4857 70.1626C20.8454 69.8312 21.4041 69.8453 21.7402 70.2052C22.0763 70.5651 22.0526 71.1238 21.6976 71.46C20.5377 72.5397 19.2027 73.3448 17.7257 73.842C17.631 73.8752 17.5364 73.8892 17.4417 73.8892H17.4369ZM6.06578 70.0727C5.78647 70.0727 5.5119 69.94 5.33674 69.6937C4.43728 68.4152 3.81712 66.9899 3.4952 65.4557C3.39105 64.9774 3.69876 64.5038 4.18164 64.4043C4.66924 64.3001 5.13318 64.608 5.23259 65.091C5.50717 66.3885 6.03264 67.5959 6.79009 68.6708C7.07413 69.0733 6.97472 69.6275 6.57706 69.9069C6.42084 70.0158 6.24568 70.0678 6.06578 70.0678V70.0727ZM23.5486 68.2211C23.4302 68.2211 23.3119 68.1973 23.1935 68.1452C22.7438 67.9511 22.5402 67.4256 22.7343 66.9757C23.2598 65.7682 23.5344 64.4848 23.5486 63.1541C23.5533 62.6664 23.951 62.278 24.4338 62.278H24.4433C24.9356 62.2828 25.3286 62.6854 25.3191 63.1779C25.3002 64.7453 24.9783 66.2653 24.3534 67.6907C24.2066 68.0221 23.88 68.2211 23.5391 68.2211H23.5486ZM4.12956 61.8898C3.63722 61.8898 3.2443 61.4921 3.2443 60.9996V56.7093C3.2443 56.2168 3.64196 55.8191 4.12956 55.8191C4.61717 55.8191 5.01483 56.2168 5.01483 56.7093V60.9996C5.01483 61.4921 4.61717 61.8898 4.12956 61.8898ZM4.12956 53.3046C3.63722 53.3046 3.2443 52.9069 3.2443 52.4144V48.1241C3.2443 47.6316 3.64196 47.2339 4.12956 47.2339C4.61717 47.2339 5.01483 47.6316 5.01483 48.1241V52.4144C5.01483 52.9069 4.61717 53.3046 4.12956 53.3046ZM4.12956 44.7194C3.63722 44.7194 3.2443 44.3214 3.2443 43.829V39.5389C3.2443 39.0464 3.64196 38.6485 4.12956 38.6485C4.61717 38.6485 5.01483 39.0464 5.01483 39.5389V43.829C5.01483 44.3214 4.61717 44.7194 4.12956 44.7194ZM48.568 43.7723C48.3502 43.7723 48.1277 43.6917 47.9573 43.5307C47.6022 43.1945 47.588 42.631 47.9241 42.2759C48.8709 41.2767 49.7231 40.1875 50.4616 39.0321C50.7267 38.6201 51.2758 38.4971 51.6877 38.7622C52.0995 39.0274 52.2226 39.5766 51.9575 39.9886C51.1622 41.2388 50.2343 42.418 49.2118 43.4976C49.0366 43.6823 48.8047 43.7723 48.568 43.7723ZM53.16 36.5839C53.0511 36.5839 52.9375 36.565 52.8333 36.5224C52.3788 36.3425 52.1563 35.8262 52.3362 35.3716C52.8428 34.1025 53.231 32.7718 53.4913 31.4175C53.586 30.9392 54.0452 30.622 54.5328 30.7167C55.0157 30.8114 55.3282 31.2756 55.2335 31.7586C54.9494 33.2218 54.5281 34.6566 53.9837 36.0299C53.8464 36.3803 53.5103 36.5885 53.16 36.5885V36.5839ZM4.12483 36.1388C3.63249 36.1388 3.23956 35.7411 3.23956 35.2486V30.9535C3.23956 30.461 3.63722 30.0633 4.12483 30.0633C4.61243 30.0633 5.01009 30.461 5.01009 30.9535V35.2486C5.01009 35.7411 4.61243 36.1388 4.12483 36.1388ZM54.7885 28.207C54.7885 28.207 54.7837 28.207 54.779 28.207C54.2914 28.207 53.8937 27.8045 53.8985 27.312V27.0895C53.8985 25.7826 53.7896 24.4755 53.5671 23.197C53.4819 22.7139 53.8085 22.2546 54.2914 22.1694C54.7648 22.0842 55.2335 22.4108 55.3187 22.8938C55.5554 24.2671 55.6785 25.6831 55.6785 27.0895V27.3263C55.6737 27.8141 55.2761 28.207 54.7885 28.207ZM4.12483 27.5536C3.63249 27.5536 3.23956 27.1557 3.23956 26.6632V22.3731C3.23956 21.8806 3.63722 21.4827 4.12483 21.4827C4.61243 21.4827 5.01009 21.8806 5.01009 22.3731V26.6632C5.01009 27.1557 4.61243 27.5536 4.12483 27.5536ZM53.3257 19.7969C52.9659 19.7969 52.6298 19.5792 52.4925 19.2193C52.0096 17.9312 51.4036 16.6857 50.6888 15.516C50.4332 15.0993 50.5657 14.5502 50.9823 14.2945C51.3989 14.0388 51.9481 14.1712 52.2037 14.5879C52.9753 15.8523 53.6286 17.1971 54.1541 18.594C54.3245 19.0534 54.0926 19.5649 53.6334 19.7354C53.5292 19.7732 53.4251 19.7922 53.3209 19.7922L53.3257 19.7969ZM4.12483 18.9682C3.63249 18.9682 3.23956 18.5704 3.23956 18.078V15.0994C3.23956 14.6258 3.26797 14.1524 3.32478 13.6836C3.38158 13.1959 3.83605 12.8501 4.31419 12.907C4.80179 12.9638 5.14738 13.4088 5.09057 13.8966C5.04323 14.2944 5.01956 14.7016 5.01956 15.0994V18.078C5.01956 18.5704 4.6219 18.9682 4.1343 18.9682H4.12483ZM48.8757 12.5139C48.6342 12.5139 48.3928 12.4144 48.2176 12.2202C48.1182 12.1066 48.0141 11.9978 47.9099 11.8889C47.0625 10.9939 46.1394 10.1795 45.1689 9.4597C44.776 9.1661 44.6955 8.61201 44.9843 8.21897C45.2778 7.82593 45.8317 7.74536 46.2246 8.03422C47.2756 8.81556 48.2744 9.70111 49.1928 10.6671C49.3065 10.7855 49.4201 10.9086 49.529 11.0318C49.8556 11.3964 49.8319 11.9551 49.4674 12.2866C49.297 12.4429 49.084 12.5139 48.8709 12.5139H48.8757ZM5.55451 10.6341C5.40302 10.6341 5.25153 10.5962 5.10951 10.5157C4.68344 10.2694 4.54142 9.72484 4.78759 9.30339C5.57818 7.9396 6.61493 6.7793 7.86945 5.8559C8.26237 5.56704 8.82099 5.65223 9.10977 6.04527C9.39854 6.4383 9.31807 6.99714 8.92041 7.28599C7.87892 8.05313 6.97945 9.0571 6.32142 10.1936C6.15573 10.4777 5.85749 10.6387 5.55451 10.6387V10.6341ZM42.0208 7.4423C41.8977 7.4423 41.7699 7.4138 41.6468 7.35698C40.4065 6.77926 39.0999 6.32948 37.7696 6.02168C37.2915 5.91277 36.9932 5.43449 37.1069 4.95622C37.2157 4.47795 37.6986 4.17966 38.172 4.29331C39.6206 4.62952 41.0408 5.11719 42.3948 5.74699C42.8398 5.95535 43.0339 6.48109 42.8256 6.92622C42.6741 7.24822 42.3569 7.4423 42.0208 7.4423ZM12.2768 5.71393C11.865 5.71393 11.4957 5.42507 11.4105 5.00362C11.3111 4.52535 11.6188 4.05171 12.1017 3.95226C12.8165 3.80546 13.5456 3.72983 14.2793 3.72983H16.5611C17.0535 3.72983 17.4464 4.12755 17.4464 4.62003C17.4464 5.11251 17.0487 5.51022 16.5611 5.51022H14.2841C13.6734 5.51022 13.0627 5.57185 12.4662 5.69497C12.4047 5.70917 12.3478 5.71393 12.2863 5.71393H12.2768ZM33.722 5.51508C33.722 5.51508 33.7078 5.51508 33.7031 5.51508C33.5516 5.51508 33.4048 5.51022 33.2533 5.51022H29.4282C28.9359 5.51022 28.543 5.11251 28.543 4.62003C28.543 4.12755 28.9406 3.72983 29.4282 3.72983H33.2533C33.419 3.72983 33.58 3.72972 33.741 3.73445C34.2333 3.74392 34.6215 4.15113 34.6073 4.64361C34.5978 5.12662 34.2002 5.51022 33.722 5.51022V5.51508ZM25.1392 5.51022H20.8502C20.3578 5.51022 19.9649 5.11251 19.9649 4.62003C19.9649 4.12755 20.3626 3.72983 20.8502 3.72983H25.1392C25.6316 3.72983 26.0245 4.12755 26.0245 4.62003C26.0245 5.11251 25.6268 5.51022 25.1392 5.51022Z" fill="#FAAC18"/>
<path d="M44.9558 49.289C44.7191 49.289 44.4872 49.199 44.312 49.0143L42.8444 47.4707C42.6551 47.2718 42.5699 46.997 42.6077 46.7271C42.6504 46.4571 42.8113 46.2203 43.0527 46.0877C43.6445 45.7563 44.2221 45.3917 44.7807 44.9987C45.1831 44.7146 45.7369 44.814 46.0163 45.2165C46.3003 45.619 46.2009 46.173 45.7985 46.4524C45.505 46.6607 45.202 46.8596 44.8943 47.0538L45.5949 47.7925C45.931 48.1477 45.9168 48.7111 45.5618 49.0474C45.3914 49.2084 45.1689 49.2936 44.9511 49.2936L44.9558 49.289Z" fill="#FAAC18"/>
<path d="M44.6434 74.4062C43.9002 74.4062 43.1569 74.3305 42.4374 74.1789C41.9545 74.0795 41.6468 73.6107 41.7462 73.1324C41.8456 72.6494 42.319 72.3369 42.7924 72.4411C44.1416 72.7205 45.5713 72.6872 46.9015 72.3463C47.375 72.2279 47.8578 72.5073 47.9809 72.9856C48.104 73.4591 47.8152 73.9421 47.3418 74.0652C46.466 74.2925 45.5571 74.4062 44.6387 74.4062H44.6434ZM38.527 72.2989C38.3377 72.2989 38.1436 72.2374 37.9826 72.1095C37.5471 71.7733 37.1352 71.3944 36.747 70.9872L34.6735 68.8042C34.3374 68.4491 34.3516 67.8856 34.7067 67.5494C35.0617 67.2132 35.6251 67.2273 35.9612 67.5825L38.0347 69.7654C38.3613 70.1111 38.7117 70.4284 39.0762 70.7125C39.4644 71.0155 39.5307 71.5698 39.2277 71.9581C39.0525 72.1806 38.7921 72.2989 38.527 72.2989ZM51.1196 72.0052C50.8687 72.0052 50.6178 71.9012 50.4426 71.6929C50.1254 71.3188 50.168 70.7599 50.542 70.4426C50.7835 70.2343 51.0249 70.0069 51.2521 69.7654C51.9812 68.9983 52.5729 68.1128 53.0179 67.1374C53.2167 66.6922 53.7422 66.4886 54.192 66.6923C54.637 66.8959 54.8358 67.4215 54.637 67.8666C54.1162 69.0221 53.4108 70.0734 52.5445 70.9825C52.2747 71.2667 51.9906 71.5364 51.6971 71.7874C51.5314 71.9295 51.3231 72.0006 51.1196 72.0006V72.0052ZM32.1882 65.7831C31.9515 65.7831 31.7195 65.6884 31.5443 65.5084L28.4104 62.2077C28.0743 61.8526 28.0885 61.2891 28.4435 60.9529C28.7986 60.6167 29.3619 60.6308 29.6981 60.986L32.832 64.2866C33.1681 64.6418 33.1539 65.2053 32.7989 65.5415C32.6284 65.7025 32.4059 65.7877 32.1882 65.7877V65.7831ZM54.779 63.9551C54.2866 63.9551 53.8937 63.5812 53.8937 63.0887C53.8937 61.6586 53.6049 60.2711 53.0558 59.0257C52.857 58.5758 53.0605 58.0548 53.5103 57.8559C53.96 57.6571 54.4807 57.8607 54.6796 58.3105C55.3281 59.7785 55.669 61.417 55.669 63.0413C55.669 63.5338 55.2713 63.9551 54.7837 63.9551H54.779ZM51.2237 55.8859C50.987 55.8859 50.7551 55.7914 50.5799 55.6115L47.446 52.3108C47.1098 51.9557 47.124 51.3922 47.4791 51.056C47.8342 50.7198 48.3975 50.7339 48.7336 51.0891L51.8676 54.3897C52.2037 54.7449 52.1895 55.3083 51.8344 55.6446C51.664 55.8056 51.4415 55.8908 51.2237 55.8908V55.8859Z" fill="#FAAC18"/>
<path d="M26.5736 29.4811H24.4433C23.951 29.4811 23.558 29.0834 23.558 28.5909V25.5698C23.558 25.0773 23.9557 24.6793 24.4433 24.6793H26.5736C27.066 24.6793 27.4589 25.0773 27.4589 25.5698C27.4589 26.0622 27.0612 26.4599 26.5736 26.4599H25.3333V27.7007H26.5736C27.066 27.7007 27.4589 28.0984 27.4589 28.5909C27.4589 29.0834 27.0612 29.4811 26.5736 29.4811Z" fill="#FAAC18"/>
<path d="M33.2581 29.4811H30.1052C29.6129 29.4811 29.22 29.0834 29.22 28.5909C29.22 28.0984 29.6176 27.7007 30.1052 27.7007H33.2581C33.7126 27.516 34.2523 27.7337 34.4321 28.1883C34.6168 28.6429 34.4179 29.1544 33.9635 29.3391C33.741 29.4291 33.5043 29.4764 33.2581 29.4764V29.4811ZM33.6416 26.5356C33.5279 26.5356 33.4143 26.5168 33.3054 26.4694C33.2912 26.4647 33.2628 26.4599 33.2628 26.4599H30.1147C29.6224 26.4599 29.2294 26.0622 29.2294 25.5698C29.2294 25.0773 29.6271 24.6793 30.1147 24.6793H33.2581C33.5137 24.6841 33.7457 24.7267 33.9729 24.8167C34.4274 25.0013 34.6452 25.5222 34.4605 25.9721C34.3185 26.3178 33.9871 26.5261 33.6368 26.5261L33.6416 26.5356Z" fill="#FAAC18"/>
<path d="M36.2595 45.179C39.7769 44.5398 43.0244 42.7973 45.5998 40.0839C48.8994 36.6128 50.7125 31.9959 50.7125 27.09C50.7125 22.1841 48.8994 17.5669 45.5998 14.0959C42.3049 10.6248 37.9212 8.71191 33.2581 8.71191H14.2841C10.9324 8.71191 8.21509 11.5721 8.21509 15.1047V63.0505C8.21509 66.5831 10.9324 69.4433 14.2841 69.4433C17.6358 69.4433 20.3532 66.5831 20.3532 63.0505V46.5192L40.345 67.5727C41.5285 68.8229 43.086 69.4479 44.6388 69.4479C46.1915 69.4479 47.7443 68.8229 48.9325 67.5727C51.3043 65.0772 51.3043 61.0285 48.9325 58.5329L36.2595 45.1885V45.179ZM37.017 23.131C38.0206 24.187 38.5745 25.5935 38.5745 27.0851C38.5745 28.5768 38.0206 29.9832 37.017 31.0392C36.0133 32.0952 34.6783 32.6777 33.2581 32.6777H20.3579V21.4926H33.2581C34.6783 21.4926 36.0133 22.075 37.017 23.131Z" fill="url(#paint2_linear_53_37401)"/>
<defs>
<linearGradient id="paint0_linear_53_37401" x1="0.119873" y1="39.0701" x2="58.8124" y2="39.0701" gradientUnits="userSpaceOnUse">
<stop stop-color="#F1F2F2"/>
<stop offset="1" stop-color="#D1D3D4"/>
</linearGradient>
<linearGradient id="paint1_linear_53_37401" x1="1.46912" y1="39.0706" x2="57.4633" y2="39.0706" gradientUnits="userSpaceOnUse">
<stop stop-color="#D1D3D4"/>
<stop offset="1" stop-color="#F1F2F2"/>
</linearGradient>
<linearGradient id="paint2_linear_53_37401" x1="8.21509" y1="39.0704" x2="50.7173" y2="39.0704" gradientUnits="userSpaceOnUse">
<stop stop-color="#FABC45"/>
<stop offset="0.18" stop-color="#FAB531"/>
<stop offset="0.37" stop-color="#FAB022"/>
<stop offset="0.61" stop-color="#FAAC1A"/>
<stop offset="1" stop-color="#FAAC18"/>
</linearGradient>
</defs>
</svg>
