<svg width="69" height="89" viewBox="0 0 69 89" fill="none" xmlns="http://www.w3.org/2000/svg">
<g style="mix-blend-mode:multiply">
<path opacity="0.03" d="M39.8099 10.25C48.8046 10.25 60.313 13.5128 65.6388 22.6757C67.5372 25.9384 68.1668 29.7644 67.4283 33.4959C67.3999 33.6522 67.3667 33.8037 67.3289 33.96C66.5336 37.4216 64.6352 40.4097 61.9321 42.4885C61.8185 42.5785 61.6859 42.6731 61.5675 42.7584C61.4492 42.8436 61.3403 42.9383 61.2172 43.0236C66.0743 47.3991 68.536 53.1953 68.536 60.2842C68.536 72.8093 60.9237 82.8482 48.6626 86.4897C45.415 87.451 41.7461 87.9624 38.0536 87.9624C28.9311 87.9624 17.2854 84.6951 11.9501 75.5274C10.0754 72.3073 9.43635 68.5379 10.1323 64.8538C10.1701 64.6502 10.2127 64.4465 10.2601 64.2429C11.0554 60.7766 12.9585 57.7934 15.6616 55.7146C15.8557 55.5678 16.0687 55.4113 16.2723 55.2692C16.3954 55.184 16.509 55.0894 16.6368 55.0089C16.7173 54.9521 16.7978 54.8952 16.883 54.8431C12.2247 50.5197 9.86241 44.8372 9.86241 37.9236C9.86241 25.3464 17.4227 15.2885 29.5939 11.6754C32.7136 10.7473 36.2452 10.2594 39.8004 10.2594L39.8099 10.25Z" fill="#FBFBFB"/>
<path opacity="0.06" d="M39.488 9.92362C48.478 9.92362 59.9817 13.1863 65.3075 22.3445C67.2058 25.6072 67.8355 29.4381 67.0922 33.1696C67.0591 33.3258 67.0259 33.4774 66.9928 33.6336C66.1975 37.0952 64.2897 40.0832 61.5818 42.1573C61.4682 42.2426 61.3309 42.3469 61.2173 42.4274C61.1036 42.5079 61.009 42.6121 60.8906 42.6926C65.7477 47.0634 68.2047 52.8593 68.2047 59.9435C68.2047 72.4639 60.5924 82.4982 48.3407 86.1349C45.0931 87.0962 41.429 87.6076 37.7364 87.6076C28.6187 87.6076 16.973 84.3402 11.6424 75.1772C9.76303 71.9524 9.12867 68.1784 9.82931 64.4895C9.86718 64.2859 9.90979 64.0776 9.95713 63.874C10.7572 60.4077 12.665 57.4244 15.3823 55.3503C15.567 55.2082 15.7989 55.0424 15.993 54.9098C16.1114 54.8293 16.2108 54.7251 16.3339 54.6446C16.4096 54.5878 16.4854 54.5309 16.5658 54.4788C11.9123 50.1601 9.55474 44.4826 9.55474 37.5736C9.55474 25.0012 17.115 14.9479 29.2815 11.3348C32.4012 10.4066 35.9328 9.91899 39.488 9.91899V9.92362Z" fill="#F7F7F7"/>
<path opacity="0.1" d="M39.1614 9.60178C48.1513 9.60178 59.6503 12.8644 64.9714 22.0132C66.8745 25.2806 67.4994 29.1116 66.7514 32.8431C66.7182 32.9994 66.6851 33.1509 66.652 33.3072C65.8519 36.7687 63.9394 39.7569 61.2268 41.8262C61.1179 41.9115 60.9711 42.0156 60.8622 42.0961C60.7533 42.1766 60.6729 42.2855 60.5593 42.3613C65.4116 46.7321 67.8686 52.5234 67.8686 59.6075C67.8686 72.1232 60.261 82.1527 48.0141 85.7895C44.7712 86.7508 41.1024 87.2622 37.4098 87.2622C28.2921 87.2622 16.6558 83.9996 11.3253 74.8366C9.44587 71.6118 8.81151 67.8331 9.52161 64.1395C9.55949 63.9358 9.60683 63.7273 9.65417 63.5237C10.459 60.0574 12.3762 57.0741 15.103 55.0095C15.2829 54.8722 15.5291 54.6969 15.7137 54.569C15.8273 54.4885 15.9126 54.3798 16.0309 54.304C16.1019 54.2472 16.1729 54.1902 16.2439 54.1334C11.5999 49.8195 9.24704 44.1465 9.24704 37.2423C9.24704 24.6793 16.8026 14.6261 28.9643 11.0178C32.084 10.0896 35.6109 9.60178 39.1661 9.60178H39.1614Z" fill="#F3F3F3"/>
<path opacity="0.13" d="M38.8395 9.27441C47.8247 9.27441 59.319 12.5325 64.64 21.6812C66.5431 24.9486 67.168 28.7844 66.4153 32.5206C66.3822 32.6769 66.349 32.8331 66.3159 32.9847C65.5111 36.4462 63.5938 39.4342 60.8717 41.4989C60.7676 41.5794 60.6114 41.6929 60.5072 41.7687C60.4031 41.8445 60.3368 41.9628 60.2279 42.0385C65.0803 46.4046 67.5373 52.1961 67.5373 59.2756C67.5373 71.7817 59.9297 81.8113 47.6874 85.4481C44.4446 86.4093 40.7805 86.9207 37.0879 86.9207C27.9749 86.9207 16.3387 83.658 11.0129 74.4998C9.13346 71.2702 8.4991 67.4866 9.21394 63.7883C9.25181 63.5847 9.29915 63.3764 9.34649 63.1728C10.156 59.7065 12.0828 56.7231 14.8143 54.6632C14.9847 54.5306 15.2498 54.3458 15.4297 54.2227C15.5386 54.1469 15.6096 54.0287 15.7232 53.9577C15.7895 53.9009 15.8558 53.8439 15.9221 53.7871C11.2827 49.4731 8.93463 43.8049 8.93463 36.9149C8.93463 24.3567 16.4854 14.3083 28.6424 10.6999C31.7621 9.77175 35.289 9.28389 38.8443 9.28389L38.8395 9.27441Z" fill="#EFEFEF"/>
<path opacity="0.16" d="M38.5129 8.95264C47.4934 8.95264 58.9876 12.2106 64.3039 21.3546C66.207 24.6268 66.8319 28.4624 66.0744 32.1986C66.0413 32.3549 66.0082 32.5111 65.975 32.6627C65.1655 36.1242 63.2435 39.1075 60.5167 41.1674C60.4173 41.2432 60.2516 41.3615 60.1522 41.4372C60.0528 41.513 60.0007 41.6363 59.8918 41.7073C64.7394 46.0733 67.1964 51.8599 67.1964 58.9346C67.1964 71.436 59.5936 81.4609 47.3561 85.093C44.1133 86.0543 40.4491 86.5656 36.7566 86.5656C27.6483 86.5656 16.0168 83.3028 10.691 74.1493C8.80682 70.9151 8.17719 67.1269 8.89677 63.4286C8.93464 63.2202 8.98198 63.0165 9.02932 62.8128C9.84831 59.3418 11.7798 56.3633 14.5208 54.3081C14.6865 54.1802 14.9658 53.9907 15.1362 53.8676C15.2451 53.7919 15.2972 53.6688 15.4061 53.5978C15.4676 53.541 15.5292 53.4842 15.5907 53.4274C10.9608 49.1182 8.61273 43.4546 8.61273 36.5693C8.61273 24.0158 16.1635 13.9721 28.3158 10.3638C31.4308 9.43564 34.9576 8.94778 38.5129 8.94778V8.95264Z" fill="#EBEBEB"/>
<path opacity="0.19" d="M38.1863 8.62622C47.1668 8.62622 58.6563 11.8843 63.9726 21.0236C65.8757 24.2957 66.5006 28.1362 65.7384 31.8724C65.7052 32.0287 65.6721 32.1848 65.6342 32.3411C64.82 35.8027 62.8932 38.786 60.1617 40.8412C60.067 40.917 59.8918 41.04 59.7972 41.111C59.7025 41.1821 59.6646 41.3148 59.5605 41.3811C64.4081 45.7424 66.8604 51.529 66.8604 58.5989C66.8604 71.0956 59.2622 81.1156 47.0295 84.7476C43.7867 85.7089 40.1225 86.2157 36.4347 86.2205C27.3264 86.2205 15.6996 82.9626 10.3786 73.809C8.49443 70.5748 7.8648 66.7817 8.58911 63.0786C8.63172 62.8702 8.67432 62.6666 8.72166 62.4582C9.54538 58.9872 11.4816 56.0088 14.2368 53.9583C14.3978 53.8352 14.6865 53.6361 14.857 53.5225C14.9611 53.4514 14.9943 53.3189 15.1031 53.2526C15.16 53.1958 15.212 53.1342 15.2688 53.0774C10.6437 48.7729 8.30507 43.1142 8.30507 36.2337C8.30507 23.6849 15.8511 13.6458 27.9987 10.0422C31.1136 9.11881 34.6405 8.62622 38.191 8.62622H38.1863Z" fill="#E6E7E7"/>
<path opacity="0.23" d="M37.8644 8.30392C46.8401 8.30392 58.3249 11.5571 63.6412 20.6964C65.5443 23.9686 66.1645 27.8138 65.4023 31.5547C65.3691 31.711 65.336 31.8672 65.2981 32.0234C64.4839 35.485 62.5477 38.4683 59.8114 40.5187C59.7167 40.5897 59.5368 40.7177 59.4421 40.7887C59.3474 40.8598 59.3285 40.9969 59.2291 41.0632C64.072 45.4245 66.5242 51.2066 66.5242 58.2718C66.5242 70.7637 58.9261 80.7789 46.6981 84.411C43.46 85.3723 39.7959 85.8791 36.1081 85.8839C27.0045 85.8839 15.3825 82.6259 10.0614 73.4819C8.17252 70.2429 7.54763 66.4449 8.27667 62.7371C8.31927 62.5287 8.36188 62.3253 8.41396 62.117C9.24241 58.6459 11.1881 55.6672 13.948 53.6215C14.0995 53.5031 14.4072 53.2948 14.5682 53.1859C14.6676 53.1196 14.6866 52.9775 14.7907 52.9112C14.8428 52.8543 14.8901 52.793 14.9422 52.7361C10.3265 48.4317 7.98789 42.7823 7.98789 35.9065C7.98789 23.3625 15.5292 13.3282 27.672 9.72454C30.787 8.80114 34.3091 8.30855 37.8644 8.30855V8.30392Z" fill="#E2E3E3"/>
<path opacity="0.26" d="M37.5377 7.97708C46.5134 7.97708 57.9934 11.2301 63.305 20.3647C65.2128 23.6416 65.8283 27.4822 65.0613 31.2279C65.0282 31.3842 64.9951 31.5403 64.9572 31.6966C64.1382 35.1581 62.1973 38.1415 59.4562 40.1872C59.3663 40.2535 59.1769 40.3909 59.087 40.4524C58.9971 40.514 58.9923 40.6653 58.8976 40.7269C63.7358 45.0834 66.188 50.8655 66.188 57.926C66.188 70.4132 58.5947 80.4238 46.3714 84.0511C43.1333 85.0124 39.4692 85.5191 35.7813 85.5191C26.6825 85.5191 15.0605 82.2611 9.74414 73.1218C7.85526 69.878 7.23037 66.0755 7.96415 62.3677C8.00675 62.1593 8.04936 61.9557 8.10144 61.7473C8.93463 58.2763 10.8898 55.2977 13.6592 53.2567C13.8059 53.1431 14.1279 52.93 14.2794 52.8211C14.374 52.7548 14.3788 52.608 14.4782 52.5464C14.5208 52.4896 14.5681 52.4282 14.6155 52.3714C10.0045 48.0716 7.67064 42.4223 7.67064 35.5607C7.67064 23.0214 15.212 12.9919 27.35 9.38822C30.465 8.46482 33.9871 7.97223 37.5377 7.97223V7.97708Z" fill="#DEDFE0"/>
<path opacity="0.29" d="M37.2159 7.65529C46.1869 7.65529 57.6622 10.9086 62.9737 20.0337C64.8816 23.3106 65.497 27.1556 64.7253 30.9012C64.6922 31.0575 64.6591 31.2139 64.6212 31.3702C63.7975 34.8317 61.8518 37.815 59.1013 39.8559C59.0161 39.9222 58.822 40.0596 58.7321 40.1212C58.6421 40.1827 58.6563 40.3343 58.5664 40.3958C63.4045 44.7524 65.8568 50.5296 65.8568 57.5901C65.8568 70.0726 58.2681 80.0784 46.0496 83.7057C42.8115 84.667 39.1521 85.1737 35.4643 85.1737C26.3655 85.1737 14.7529 81.9158 9.43654 72.7812C7.54766 69.5328 6.92277 65.73 7.66128 62.0175C7.70388 61.8091 7.74649 61.601 7.79856 61.3973C8.63649 57.9216 10.6011 54.9428 13.38 52.9113C13.522 52.8024 13.8581 52.5799 14.0049 52.4757C14.0948 52.4142 14.0854 52.258 14.18 52.1964C14.2179 52.1348 14.2605 52.0781 14.3031 52.0165C9.70165 47.7215 7.3725 42.0768 7.3725 35.22C7.3725 22.6854 14.9091 12.6654 27.0424 9.0618C30.1574 8.1384 33.6795 7.65067 37.2301 7.65067L37.2159 7.65529Z" fill="#DADBDC"/>
<path opacity="0.32" d="M36.889 7.32837C45.8553 7.32837 57.3306 10.5768 62.6375 19.7019C64.5453 22.9788 65.1607 26.8288 64.3843 30.5792C64.3512 30.7354 64.3181 30.8916 64.2802 31.0479C63.4517 34.5094 61.5013 37.4881 58.7461 39.529C58.6656 39.5906 58.462 39.7374 58.3768 39.7942C58.2916 39.8511 58.32 40.012 58.2348 40.0735C63.0683 44.4254 65.5205 50.2026 65.5205 57.2583C65.5205 69.736 57.9318 79.7371 45.718 83.3644C42.4799 84.3257 38.8205 84.8325 35.1375 84.8325C26.0434 84.8325 14.4308 81.5792 9.11919 72.4446C7.22558 69.1961 6.60542 65.3843 7.3534 61.667C7.396 61.4586 7.44334 61.2502 7.49068 61.0466C8.33334 57.5708 10.3074 54.5922 13.091 52.5654C13.2236 52.4613 13.5739 52.2294 13.7159 52.1347C13.8012 52.0731 13.7775 51.912 13.8627 51.8551C13.8958 51.7936 13.9337 51.7368 13.9668 51.6753C9.3701 47.3803 7.04568 41.7452 7.04568 34.8931C7.04568 22.3632 14.5775 12.3478 26.7061 8.74413C29.8164 7.82073 33.3385 7.33299 36.889 7.33299V7.32837Z" fill="#D6D7D8"/>
<path opacity="0.35" d="M36.5672 7.0018C45.5334 7.0018 56.9993 10.2503 62.3061 19.3707C64.2139 22.6523 64.8294 26.5022 64.0482 30.2526C64.0151 30.4089 63.982 30.565 63.9441 30.7213C63.1109 34.1829 61.1605 37.1614 58.3958 39.1976C58.3201 39.2592 58.107 39.406 58.0265 39.4628C57.9461 39.5196 57.9887 39.6855 57.9082 39.7424C62.7416 44.0942 65.1891 49.8666 65.1891 56.9176C65.1891 69.3906 57.6052 79.3869 45.3961 83.0094C42.1581 83.9707 38.5034 84.4775 34.8156 84.4775C25.7215 84.4775 14.1184 81.2243 8.80678 72.0945C6.91317 68.8412 6.29301 65.0244 7.04572 61.3071C7.08833 61.0988 7.13567 60.8905 7.18301 60.6821C8.0304 57.2063 10.0092 54.2278 12.807 52.2058C12.9349 52.1064 13.2994 51.8648 13.4319 51.7748C13.5124 51.718 13.4745 51.5475 13.555 51.4907C13.5834 51.4291 13.6118 51.3676 13.645 51.3108C9.05769 47.0205 6.73328 41.3855 6.73328 34.5429C6.73328 22.0225 14.2651 12.0071 26.389 8.40346C29.4993 7.48006 33.0214 6.99232 36.5672 6.99232V7.0018Z" fill="#D2D3D4"/>
<path opacity="0.39" d="M36.2406 6.67944C45.2021 6.67944 56.6679 9.92786 61.9701 19.0435C63.8779 22.3251 64.4933 26.1798 63.7075 29.9303C63.6743 30.0865 63.6412 30.2429 63.6033 30.3992C62.7701 33.8607 60.8102 36.8391 58.0408 38.8706C57.9698 38.9274 57.7473 39.0837 57.6716 39.1358C57.5958 39.1879 57.6526 39.363 57.5769 39.4151C62.4056 43.767 64.8531 49.5347 64.8531 56.5809C64.8531 69.0445 57.2739 79.0409 45.0696 82.6635C41.8362 83.6248 38.1768 84.1315 34.4937 84.1315C25.4044 84.1315 13.8013 80.8782 8.4944 71.7531C6.60078 68.4952 5.98062 64.6786 6.73807 60.9565C6.78068 60.7482 6.82802 60.5399 6.88009 60.3316C7.73695 56.8558 9.72051 53.8771 12.5231 51.8599C12.6461 51.7652 13.0249 51.5189 13.1527 51.4289C13.2332 51.3768 13.1716 51.1968 13.2521 51.1447C13.2758 51.0831 13.2994 51.0216 13.3278 50.9648C8.75003 46.6793 6.42562 41.0489 6.42562 34.2157C6.42562 21.7001 13.9527 11.6895 26.0719 8.09058C29.1821 7.16718 32.6995 6.67944 36.25 6.67944H36.2406Z" fill="#CECFD0"/>
<path opacity="0.42" d="M35.9186 6.35281C44.8754 6.35281 56.3365 9.60134 61.6386 18.7122C63.5512 21.9939 64.1618 25.8531 63.3713 29.6082C63.3381 29.7645 63.3002 29.9209 63.2624 30.0772C62.4244 33.5387 60.4598 36.5173 57.6809 38.5394C57.6099 38.5914 57.3827 38.7525 57.3117 38.8046C57.2407 38.8567 57.3117 39.0364 57.2407 39.0885C62.0694 43.4356 64.5122 49.2033 64.5122 56.2448C64.5122 68.7036 56.933 78.6953 44.7334 82.3179C41.5 83.2792 37.8406 83.7859 34.1575 83.7859C25.0729 83.7859 13.4698 80.5374 8.16767 71.417C6.26932 68.1591 5.6539 64.3328 6.41608 60.6061C6.45868 60.3977 6.50602 60.1895 6.5581 59.9811C7.41969 56.5006 9.41272 53.5267 12.2247 51.5189C12.3384 51.4289 12.736 51.1734 12.8544 51.0881C12.9301 51.036 12.8544 50.8512 12.9301 50.7991C12.949 50.7376 12.968 50.6762 12.9869 50.6146C8.41384 46.3291 6.0989 40.708 6.0989 33.8796C6.0989 21.3687 13.6213 11.3628 25.7357 7.76395C28.8459 6.84055 32.3633 6.35281 35.9091 6.35281H35.9186Z" fill="#CACBCC"/>
<path opacity="0.45" d="M35.592 6.03125C44.5488 6.03125 56.0052 9.27515 61.3026 18.386C63.2151 21.6724 63.8258 25.5318 63.0305 29.2869C62.9974 29.4432 62.9595 29.5995 62.9216 29.7605C62.079 33.222 60.1096 36.2005 57.326 38.2178C57.2597 38.2699 57.023 38.4356 56.952 38.483C56.881 38.5304 56.971 38.7198 56.9047 38.7672C61.7287 43.1143 64.1762 48.8772 64.1762 55.914C64.1762 68.3681 56.6017 78.3549 44.4068 81.9727C41.1735 82.934 37.5188 83.4408 33.8357 83.4408C24.7511 83.4408 13.1575 80.1924 7.85533 71.0767C5.95699 67.814 5.34156 63.9831 6.10847 60.2563C6.15108 60.048 6.19842 59.8397 6.2505 59.6313C7.11683 56.1508 9.11932 53.1768 11.9408 51.1738C12.0497 51.0885 12.4568 50.8234 12.5704 50.7476C12.6414 50.7003 12.5515 50.5062 12.6225 50.4588C12.6367 50.3973 12.6509 50.3356 12.6651 50.2741C8.1015 45.9933 5.78656 40.3724 5.78656 33.5534C5.78656 21.0472 13.3089 11.0461 25.4139 7.44724C28.5241 6.52384 32.0368 6.03611 35.5826 6.03611L35.592 6.03125Z" fill="#C6C7C8"/>
<path opacity="0.48" d="M35.27 5.70389C44.2221 5.70389 55.6737 8.94778 60.9711 18.0492C62.8836 21.3356 63.4943 25.1995 62.6943 28.9547C62.6611 29.111 62.6233 29.272 62.5854 29.4282C61.738 32.8898 59.7639 35.8637 56.9756 37.881C56.914 37.9283 56.6679 38.0988 56.6016 38.1462C56.5353 38.1935 56.6395 38.3877 56.5732 38.4303C61.3972 42.7727 63.8399 48.5355 63.8399 55.5723C63.8399 68.0216 56.2702 78.004 44.0801 81.6218C40.8467 82.5831 37.192 83.0896 33.5137 83.0896C24.4338 83.0896 12.8402 79.8413 7.54277 70.7304C5.63969 67.463 5.029 63.632 5.80065 59.9005C5.84325 59.6922 5.89059 59.479 5.94267 59.2707C6.81373 55.7902 8.8257 52.8163 11.6519 50.818C11.7561 50.7375 12.1774 50.4628 12.2863 50.3918C12.3526 50.3445 12.2484 50.1456 12.3147 50.103C12.3241 50.0415 12.3336 49.9798 12.3431 49.9183C7.78421 45.6422 5.474 40.0262 5.474 33.2119C5.474 20.7105 12.9916 10.714 25.0966 7.11988C28.2021 6.19648 31.7195 5.70874 35.2653 5.70874L35.27 5.70389Z" fill="#C2C3C4"/>
<path opacity="0.52" d="M34.9434 5.38232C43.8955 5.38232 55.3424 8.62609 60.635 17.7228C62.5476 21.0139 63.1583 24.8779 62.3535 28.6378C62.3203 28.794 62.2825 28.955 62.2446 29.1113C61.3925 32.5729 59.4136 35.5466 56.6206 37.5592C56.5638 37.6018 56.3081 37.7817 56.2466 37.8244C56.185 37.867 56.3034 38.0705 56.2466 38.1132C61.0658 42.4555 63.5086 48.2138 63.5086 55.2459C63.5086 67.6905 55.9389 77.6681 43.7535 81.2859C40.5201 82.2424 36.8702 82.7537 33.1871 82.7537C24.1119 82.7537 12.523 79.51 7.22563 70.3991C5.32255 67.1317 4.71186 63.2914 5.48824 59.5551C5.53085 59.3468 5.58292 59.1336 5.635 58.9253C6.5108 55.4448 8.52749 52.471 11.3679 50.4774C11.4626 50.4017 11.9029 50.1223 12.0023 50.0513C12.0638 50.0087 11.9455 49.8003 12.007 49.7576C12.007 49.6961 12.0117 49.6298 12.0165 49.5683C7.46707 45.2922 5.16159 39.6854 5.16159 32.8806C5.16159 20.384 12.6792 10.3922 24.7747 6.79809C27.8802 5.87468 31.3976 5.38695 34.9387 5.38695L34.9434 5.38232Z" fill="#BDBEC0"/>
<path opacity="0.55" d="M34.6169 5.05569C43.5642 5.05569 55.0064 8.29461 60.299 17.3913C62.2163 20.6824 62.8223 24.5512 62.0175 28.3111C61.9844 28.4674 61.9465 28.6284 61.9086 28.7847C61.0565 32.2462 59.0682 35.2201 56.2704 37.2279C56.2183 37.2705 55.9532 37.4505 55.8964 37.4931C55.8396 37.5357 55.9721 37.744 55.9153 37.7819C60.7346 42.1195 63.1726 47.8778 63.1726 54.9052C63.1726 67.345 55.6076 77.3177 43.4269 80.9308C40.1983 81.8874 36.5436 82.3939 32.8653 82.3986C23.7902 82.3986 12.206 79.1551 6.91331 70.0489C5.01023 66.7768 4.39954 62.9314 5.18539 59.1952C5.228 58.9821 5.28007 58.774 5.33215 58.5656C6.21268 55.0803 8.23884 52.1112 11.0887 50.1224C11.1787 50.0513 11.6331 49.7625 11.7231 49.6962C11.7799 49.6583 11.6473 49.4405 11.7042 49.4026C11.7042 49.341 11.7042 49.2748 11.7042 49.2132C7.15948 44.9419 4.85874 39.3397 4.85874 32.5397C4.85874 20.0477 12.3717 10.061 24.4624 6.46683C27.5679 5.54343 31.0806 5.05569 34.6264 5.05569H34.6169Z" fill="#B9BABC"/>
<path opacity="0.58" d="M34.2949 4.7334C43.2375 4.7334 54.6797 7.97242 59.9676 17.0644C61.8849 20.3555 62.4908 24.2289 61.6813 27.9888C61.6482 28.1451 61.6103 28.3061 61.5724 28.4624C60.7156 31.9239 58.7225 34.8979 55.9152 36.901C55.8632 36.9389 55.5933 37.1281 55.5413 37.166C55.4892 37.2038 55.6359 37.4218 55.5839 37.455C60.3984 41.7926 62.8364 47.5459 62.8364 54.5685C62.8364 67.0037 55.2714 76.9719 43.1002 80.585C39.8716 81.5415 36.2217 82.048 32.5386 82.0527C23.4682 82.0527 11.8887 78.8091 6.59607 69.7077C4.68825 66.4308 4.08229 62.5857 4.87288 58.8447C4.91548 58.6316 4.96756 58.4232 5.01963 58.2149C5.9049 54.7296 7.94053 51.7606 10.7952 49.7765C10.8804 49.7102 11.3443 49.4117 11.4342 49.3501C11.4863 49.3122 11.3396 49.0897 11.3916 49.0518C11.3822 48.9903 11.3774 48.924 11.3727 48.8625C6.8375 44.5959 4.53676 38.9938 4.53676 32.2033C4.53676 19.7161 12.0449 9.73396 24.1357 6.14454C27.2412 5.22113 30.7538 4.7334 34.2949 4.7334Z" fill="#B5B6B8"/>
<path opacity="0.61" d="M33.9683 4.40677C42.9109 4.40677 54.3483 7.64567 59.6315 16.7329C61.5488 20.0287 62.1548 23.9024 61.3405 27.6671C61.3074 27.8281 61.2695 27.9843 61.2316 28.1406C60.37 31.6022 58.3723 34.5758 55.5602 36.5741C55.5129 36.612 55.2336 36.8015 55.1863 36.8393C55.1389 36.8772 55.2999 37.0998 55.2525 37.133C60.0623 41.4659 62.5003 47.2147 62.5003 54.2373C62.5003 66.6629 54.9401 76.6309 42.7736 80.244C39.545 81.2005 35.8951 81.7072 32.2167 81.7072C23.1463 81.7072 11.5716 78.4682 6.28368 69.3716C4.37586 66.0947 3.7699 62.24 4.56522 58.4943C4.61256 58.2812 4.6599 58.073 4.71197 57.8647C5.60671 54.3794 7.64708 51.4103 10.5112 49.4309C10.5869 49.3693 11.0698 49.0615 11.1503 49.0094C11.1976 48.9762 11.0319 48.7443 11.084 48.7111C11.0698 48.6448 11.0603 48.5832 11.0508 48.5169C6.52038 44.2503 4.2291 38.6578 4.2291 31.872C4.2291 19.3943 11.7373 9.41196 23.8185 5.82253C26.9241 4.89913 30.432 4.41139 33.973 4.41139L33.9683 4.40677Z" fill="#B1B2B4"/>
<path opacity="0.65" d="M33.6463 4.08476C42.5841 4.08476 54.0168 7.31904 59.3 16.4063C61.2173 19.7021 61.8185 23.5804 61.0043 27.3451C60.9711 27.5061 60.9333 27.6623 60.8954 27.8186C60.0291 31.2802 58.0266 34.2492 55.2098 36.2475C55.1672 36.2806 54.8784 36.4797 54.8358 36.5081C54.7932 36.5365 54.9684 36.7731 54.9258 36.8015C59.7356 41.1344 62.1736 46.8785 62.1736 53.8963C62.1736 66.3172 54.6181 76.2805 42.4516 79.8889C39.223 80.8455 35.573 81.3521 31.8994 81.3521C22.8338 81.3521 11.2638 78.1131 5.97585 69.0211C4.0633 65.7395 3.46208 61.8803 4.26213 58.1346C4.30947 57.9215 4.35681 57.7132 4.41362 57.5001C5.31309 54.0101 7.36292 51.0456 10.2365 49.071C10.3075 49.0189 10.8046 48.7015 10.8803 48.6495C10.9277 48.6163 10.743 48.3797 10.7904 48.3466C10.7714 48.2803 10.7572 48.2186 10.7383 48.1523C6.21729 43.8905 3.92601 38.3028 3.92601 31.5264C3.92601 19.0534 11.4295 9.07585 23.506 5.48642C26.6068 4.56302 30.1194 4.08014 33.6605 4.08014L33.6463 4.08476Z" fill="#ADAEB0"/>
<path opacity="0.68" d="M33.3196 3.75784C42.2527 3.75784 53.6854 6.99223 58.9639 16.0747C60.8812 19.3705 61.4824 23.2535 60.6634 27.0181C60.6303 27.1791 60.5924 27.3354 60.5498 27.4917C59.6787 30.9532 57.6715 33.9222 54.85 35.9111C54.8121 35.9395 54.5139 36.1433 54.476 36.1717C54.4381 36.2001 54.6275 36.4367 54.5896 36.4651C59.3947 40.7932 61.8327 46.5374 61.8327 53.5553C61.8327 65.9715 54.2772 75.9298 42.1202 79.5382C38.8916 80.4947 35.2463 81.0016 31.568 81.0016C22.5071 81.0016 10.9371 77.7624 5.6539 68.6752C3.74135 65.3889 3.14012 61.5296 3.94491 57.7792C3.99225 57.5661 4.03959 57.3531 4.0964 57.1447C5.0006 53.6548 7.05517 50.6904 9.9382 48.7205C10.0045 48.6731 10.5158 48.3463 10.582 48.299C10.6246 48.2705 10.4258 48.0242 10.4684 47.9958C10.4447 47.9295 10.4211 47.8681 10.4021 47.8018C5.88586 43.5447 3.59932 37.9569 3.59932 31.19C3.59932 18.7218 11.098 8.74905 23.1746 5.16436C26.2754 4.24095 29.788 3.75784 33.3243 3.75784H33.3196Z" fill="#A9AAAC"/>
<path opacity="0.71" d="M32.9978 3.43107C41.9309 3.43107 53.3541 6.66522 58.6326 15.7382C60.5546 19.0388 61.1511 22.9219 60.3274 26.6865C60.2942 26.8475 60.2564 27.0038 60.2138 27.16C59.3427 30.6216 57.326 33.5907 54.4951 35.5748C54.4619 35.6032 54.1542 35.8117 54.1163 35.8354C54.0785 35.8591 54.2915 36.1053 54.2536 36.1337C59.0587 40.4618 61.492 46.2011 61.492 53.2142C61.492 65.6256 53.9412 75.5795 41.7889 79.1878C38.565 80.1444 34.9151 80.651 31.2415 80.651C22.1805 80.651 10.62 77.412 5.33683 68.3295C3.42428 65.0431 2.81832 61.1743 3.63258 57.4191C3.67992 57.206 3.72726 56.993 3.78407 56.7847C4.693 53.2947 6.75704 50.3304 9.64954 48.3652C9.70634 48.3226 10.2366 47.9864 10.2934 47.9437C10.3312 47.9201 10.1182 47.6644 10.1561 47.636C10.1277 47.5697 10.0993 47.5034 10.0756 47.4371C5.5688 43.18 3.28699 37.6016 3.28699 30.8394C3.28699 18.3759 10.7857 8.40794 22.8528 4.82325C25.9536 3.89984 29.4615 3.41673 32.9978 3.41673V3.43107Z" fill="#A5A6A8"/>
<path opacity="0.74" d="M32.671 3.10893C41.5994 3.10893 53.0226 6.34319 58.2964 15.4115C60.2184 18.712 60.8149 22.5999 59.9864 26.3692C59.9533 26.5302 59.9154 26.6866 59.8728 26.8476C58.997 30.3092 56.9756 33.2782 54.1399 35.2576C54.1067 35.2812 53.7943 35.4942 53.7612 35.5179C53.728 35.5416 53.9552 35.7927 53.9221 35.8164C58.7224 40.1398 61.1557 45.879 61.1557 52.8874C61.1557 65.2941 53.6097 75.2431 41.4574 78.8467C38.2335 79.8033 34.5883 80.3101 30.9147 80.3101C21.8585 80.3101 10.298 77.0757 5.01952 67.9932C3.10224 64.7022 2.50102 60.8286 3.32001 57.0734C3.36735 56.8603 3.41942 56.6473 3.4715 56.4389C4.38516 52.949 6.45867 49.9847 9.36064 48.029C9.41271 47.9911 9.95239 47.6453 10.0092 47.6121C10.0423 47.5884 9.8151 47.328 9.84824 47.3044C9.8151 47.2381 9.78197 47.1718 9.74883 47.1055C5.24676 42.8531 2.96969 37.2796 2.96969 30.5222C2.96969 18.0634 10.4637 8.10013 22.526 4.51544C25.6268 3.59678 29.1347 3.10893 32.671 3.10893Z" fill="#A1A2A4"/>
<path opacity="0.77" d="M32.3492 2.78229C41.2775 2.78229 52.6913 6.01193 57.965 15.0802C59.887 18.3855 60.4835 22.2732 59.6503 26.0426C59.6172 26.2036 59.5793 26.3597 59.5367 26.5207C58.6562 29.9823 56.63 32.9514 53.7896 34.9261C53.7612 34.945 53.4393 35.1677 53.4109 35.1866C53.3825 35.2056 53.6239 35.466 53.5955 35.4849C58.3958 39.8083 60.8244 45.5428 60.8244 52.5464C60.8244 64.9484 53.2783 74.8929 41.1355 78.4965C37.9116 79.453 34.2664 79.9597 30.5928 79.9597C21.5414 79.9597 9.98557 76.7254 4.70239 67.6477C2.7851 64.3518 2.18388 60.4782 3.01234 56.7183C3.05968 56.5052 3.11175 56.2922 3.16383 56.0839C4.08223 52.5891 6.16521 49.6295 9.0719 47.6785C9.11451 47.6454 9.67312 47.295 9.72047 47.2619C9.74887 47.2429 9.50743 46.9682 9.53584 46.9493C9.49797 46.883 9.46009 46.8167 9.42222 46.7504C4.92962 42.5028 2.65255 36.9292 2.65255 30.186C2.65255 17.732 10.1418 7.77338 22.2041 4.19342C25.3049 3.27476 28.8081 2.78714 32.3444 2.78714L32.3492 2.78229Z" fill="#9D9EA1"/>
<path opacity="0.81" d="M32.0225 2.46072C40.9462 2.46072 52.36 5.69024 57.6289 14.7538C59.5509 18.0591 60.1474 21.9514 59.3095 25.7208C59.2716 25.8818 59.2338 26.0382 59.1959 26.1992C58.3106 29.6607 56.2797 32.625 53.4346 34.5996C53.4109 34.6186 53.0795 34.8413 53.0559 34.8602C53.0322 34.8792 53.2878 35.1442 53.2641 35.1631C58.0597 39.4818 60.493 45.2165 60.493 52.2154C60.493 64.6126 52.9517 74.5521 40.8136 78.1557C37.5898 79.1123 33.9493 79.6191 30.2757 79.6191C21.2242 79.6191 9.67315 76.3848 4.3947 67.3118C2.47268 64.0159 1.87619 60.133 2.70938 56.3683C2.75673 56.1552 2.8088 55.9421 2.86561 55.729C3.78875 52.2343 5.87645 49.2748 8.79735 47.3285C8.83523 47.3001 9.40805 46.9401 9.44592 46.9117C9.46959 46.8927 9.21395 46.6135 9.23762 46.5993C9.19501 46.533 9.15241 46.4665 9.1098 46.4002C4.62667 42.1525 2.3496 36.5886 2.3496 29.8501C2.3496 17.4008 9.83884 7.44696 21.8917 3.86701C24.9878 2.94834 28.4957 2.46072 32.032 2.46072H32.0225Z" fill="#999A9D"/>
<path opacity="0.84" d="M31.7006 2.13336C40.6195 2.13336 52.0285 5.36299 57.2975 14.4218C59.2242 17.7271 59.816 21.6244 58.9733 25.3985C58.9355 25.5595 58.8976 25.7204 58.8597 25.8767C57.9697 29.3382 55.9341 32.3026 53.0842 34.2725C53.0653 34.2867 52.7244 34.5189 52.7055 34.5331C52.6865 34.5473 52.9564 34.8218 52.9327 34.836C57.7283 39.1547 60.1568 44.8846 60.1568 51.8788C60.1568 64.2713 52.6203 74.2061 40.4822 77.805C37.2583 78.7616 33.6178 79.2682 29.9442 79.2682C20.8975 79.2682 9.34645 76.0388 4.07273 66.9705C2.15071 63.6699 1.55422 59.7868 2.39215 56.0174C2.43949 55.8043 2.49156 55.5914 2.54837 55.3783C3.48098 51.8836 5.57342 48.9237 8.49905 46.9822C8.53219 46.9585 9.11921 46.5892 9.15235 46.5656C9.17129 46.5514 8.89671 46.2627 8.92038 46.2532C8.87304 46.1869 8.82097 46.1205 8.77363 46.0495C4.29523 41.8066 2.02763 36.2473 2.02763 29.5135C2.02763 17.0689 9.51214 7.11983 21.5603 3.53987C24.6563 2.62121 28.1595 2.13336 31.6958 2.13336H31.7006Z" fill="#949699"/>
<path opacity="0.87" d="M31.374 1.8118C40.2929 1.8118 51.6972 5.03657 56.9615 14.0954C58.8882 17.4054 59.48 21.3026 58.6326 25.0767C58.5947 25.2377 58.5568 25.3986 58.519 25.5549C57.629 29.0164 55.5839 31.9809 52.7245 33.9461C52.7103 33.9603 52.36 34.1922 52.3458 34.2064C52.3316 34.2206 52.6156 34.5001 52.5967 34.5096C57.3875 38.8235 59.8161 44.5533 59.8161 51.5475C59.8161 63.9305 52.2795 73.8654 40.1509 77.4643C36.9318 78.4208 33.2866 78.9277 29.6177 78.9277C20.5709 78.9277 9.02936 75.6979 3.75565 66.6344C1.83363 63.3291 1.23714 59.4414 2.0798 55.672C2.12714 55.4589 2.17921 55.2458 2.23602 55.0327C3.17336 51.538 5.27527 48.5785 8.21037 46.6417C8.23405 46.6228 8.83527 46.2486 8.86367 46.2297C8.87787 46.2202 8.5891 45.9219 8.60803 45.9124C8.55596 45.8461 8.49915 45.775 8.44708 45.7087C3.97815 41.4705 1.71054 35.9161 1.71054 29.1871C1.71054 16.752 9.19505 6.80278 21.2384 3.22756C24.3345 2.30889 27.8377 1.82128 31.3693 1.82128L31.374 1.8118Z" fill="#909295"/>
<path opacity="0.9" d="M31.0473 1.48517C39.9615 1.48517 51.361 4.70993 56.6253 13.7593C58.552 17.0693 59.1438 20.9711 58.2916 24.7452C58.2538 24.9062 58.2159 25.0674 58.178 25.2236C57.2833 28.6852 55.2335 31.6495 52.3694 33.61C52.3599 33.6194 52.0001 33.8609 51.9906 33.8703C51.9812 33.8798 52.2794 34.1688 52.2652 34.1783C57.0561 38.4923 59.4799 44.2173 59.4799 51.2068C59.4799 63.5851 51.948 73.5152 39.8242 77.1141C36.605 78.0706 32.9646 78.5725 29.2957 78.5772C20.2537 78.5772 8.7121 75.3476 3.44311 66.2888C1.51636 62.9835 0.924608 59.0864 1.772 55.3123C1.81934 55.0992 1.87141 54.8813 1.92822 54.673C2.8703 51.1735 4.98168 48.2187 7.92625 46.2866C7.94518 46.2724 8.56061 45.8888 8.57954 45.8746C8.59374 45.8651 8.28603 45.5621 8.30023 45.5574C8.23869 45.4911 8.18188 45.4199 8.12508 45.3537C3.66088 41.1155 1.39801 35.5658 1.39801 28.851C1.39801 16.4206 8.87778 6.47615 20.9164 2.90093C24.0125 1.98226 27.5157 1.49465 31.0473 1.49465V1.48517Z" fill="#8C8E91"/>
<path opacity="0.94" d="M30.7254 1.16295C39.6348 1.16295 51.0344 4.38783 56.2939 13.4324C58.2206 16.7425 58.8124 20.649 57.9555 24.4279C57.9177 24.5889 57.8798 24.75 57.8372 24.9063C56.9377 28.3726 54.8831 31.3322 52.0143 33.2831C52.0048 33.2879 51.6403 33.534 51.6309 33.5435C51.6214 33.553 51.9386 33.8465 51.9291 33.8512C56.7152 38.1605 59.139 43.8857 59.139 50.8704C59.139 63.244 51.6119 73.1692 39.4881 76.7634C36.2689 77.72 32.6284 78.2221 28.9596 78.2268C19.9223 78.2268 8.38545 75.0018 3.11646 65.943C1.18971 62.633 0.597958 58.7359 1.45008 54.957C1.49742 54.7392 1.55423 54.5262 1.61104 54.3131C2.55785 50.8136 4.6787 47.8587 7.628 45.9313C7.6422 45.9219 8.27183 45.5288 8.28603 45.5193C8.2955 45.5146 7.97359 45.2022 7.98305 45.1975C7.91678 45.1312 7.85524 45.0599 7.78896 44.9889C3.33423 40.7555 1.0761 35.2104 1.0761 28.5003C1.0761 16.0747 8.55114 6.1352 20.5851 2.55999C23.6764 1.64132 27.1796 1.15347 30.7112 1.15347L30.7254 1.16295Z" fill="#888A8D"/>
<path opacity="0.97" d="M30.3988 0.836308C39.3083 0.836308 50.6984 4.05633 55.9579 13.1009C57.8846 16.4157 58.4764 20.3224 57.6148 24.1012C57.5769 24.2622 57.539 24.4233 57.4964 24.5796C56.5922 28.0459 54.5329 31.0007 51.6594 32.9516C51.6594 32.9516 51.2807 33.2075 51.2759 33.2122C51.2712 33.217 51.6026 33.52 51.5978 33.52C56.3792 37.8292 58.8078 43.5495 58.8078 50.5295C58.8078 62.8983 51.2807 72.819 39.1663 76.4132C35.9471 77.3697 32.3114 77.8717 28.6425 77.8717C19.6052 77.8717 8.07311 74.6468 2.80886 65.5928C0.882111 62.278 0.290357 58.3759 1.14722 54.5971C1.19456 54.3793 1.25137 54.1662 1.30817 53.9531C2.25972 50.4537 4.3853 47.4988 7.3488 45.5763C7.35354 45.5715 8.0021 45.169 8.00684 45.1642C8.00684 45.1642 7.67545 44.8424 7.68019 44.8424C7.60918 44.7713 7.5429 44.7048 7.47189 44.6338C3.0219 40.4051 0.768495 34.8647 0.768495 28.1594C0.768495 15.7384 8.24354 5.80359 20.2727 2.23311C23.364 1.31444 26.8672 0.826828 30.3941 0.826828L30.3988 0.836308Z" fill="#848689"/>
<path d="M28.3205 77.5308C19.288 77.5308 7.76058 74.306 2.49634 65.2567C0.564851 61.9419 -0.0221698 58.0305 0.844159 54.2469C1.70575 50.4633 3.91655 47.2622 7.06942 45.2307L7.72745 44.8235L7.37713 44.4966C2.78985 40.2442 0.460702 34.6376 0.460702 27.8281C0.460702 15.4119 7.93101 5.48183 19.9555 1.91135C23.0468 0.992681 26.5452 0.509689 30.0768 0.509689C38.9816 0.509689 50.3716 3.72959 55.6264 12.7694C57.5579 16.0842 58.1449 19.9958 57.2786 23.7746C56.4407 27.4445 54.3198 30.5888 51.309 32.625L50.9255 32.8807L51.2711 33.1934C56.0525 37.4978 58.4763 43.2181 58.4763 50.1934C58.4763 62.5575 50.9539 72.4687 38.8443 76.0676C35.6251 77.0241 31.9894 77.5259 28.3252 77.5259L28.3205 77.5308Z" fill="#808285"/>
</g>
<path d="M28.3205 77.8862C19.198 77.8862 7.54282 74.6188 2.20756 65.4463C0.228731 62.0511 -0.372492 58.0449 0.512772 54.1713C1.39804 50.2978 3.66091 47.0162 6.88952 44.9373C6.97473 44.8805 7.06468 44.8284 7.14989 44.7715C2.48213 40.4481 0.119847 34.761 0.119847 27.8379C0.119847 15.256 7.68484 5.19317 19.8608 1.58007C22.9805 0.651932 26.5121 0.164307 30.0721 0.164307C39.0715 0.164307 50.5799 3.43173 55.9104 12.5947C57.8845 15.99 58.4905 19.9961 57.6052 23.8697C56.7436 27.6391 54.5755 30.8495 51.4889 32.9331C56.3507 37.3086 58.8124 43.1095 58.8124 50.2031C58.8124 62.733 51.1954 72.7767 38.9342 76.4182C35.6867 77.3795 32.0178 77.8908 28.3205 77.8908V77.8862Z" fill="url(#paint0_linear_53_37360)"/>
<path d="M28.3205 76.4651C19.5625 76.4651 8.40442 73.373 3.36267 64.7025C1.57321 61.6292 1.02879 58.0066 1.82884 54.5025C2.6289 50.9983 4.67873 48.0291 7.59963 46.1492C8.25766 45.723 8.94883 45.3632 9.66367 45.0696C5.02905 41.4944 1.47379 36.1291 1.47379 27.8374C1.47379 15.9185 8.66006 6.38137 20.23 2.94821C23.2362 2.05796 26.6399 1.58447 30.0768 1.58447C38.707 1.58447 49.7278 4.67186 54.7648 13.3376C56.5543 16.4109 57.0987 20.0335 56.2987 23.5377C55.4986 27.0419 53.4488 30.0109 50.5279 31.8956C50.0497 32.2034 49.5527 32.4782 49.0414 32.7197C53.7896 36.3091 57.4632 41.7452 57.4632 50.2073C57.4632 62.0742 50.2201 71.5924 38.565 75.054C35.4358 75.9821 31.8947 76.4746 28.3205 76.4746V76.4651Z" fill="url(#paint1_linear_53_37360)"/>
<path d="M32.1456 52.9213C31.7621 52.9213 31.4071 52.6705 31.2934 52.2822C31.1798 51.8939 31.3455 51.4914 31.6722 51.2877C31.3029 51.0936 31.1136 50.6579 31.2414 50.2412C31.3834 49.7724 31.8852 49.5071 32.3491 49.6539C33.2249 49.9239 33.9066 50.1608 34.4368 50.3786C34.7304 50.5017 34.9387 50.7716 34.9813 51.0889C35.0191 51.4062 34.8866 51.7186 34.6309 51.9127C34.3374 52.1306 33.9303 52.3389 33.3007 52.5851C33.0119 52.6988 32.7089 52.8031 32.3917 52.8931C32.3113 52.9168 32.2261 52.9262 32.1456 52.9262V52.9213Z" fill="#DD1E47"/>
<path d="M28.0979 50.2837C28.0269 50.2837 27.9512 50.2742 27.8801 50.2552C27.544 50.17 27.1937 50.0801 26.8339 49.9949C25.9203 49.7676 24.9166 49.5213 23.8515 49.2372C23.3781 49.1093 23.0988 48.6217 23.2266 48.1481C23.3544 47.6746 23.842 47.395 24.3154 47.5229C25.3664 47.8023 26.3558 48.0486 27.26 48.2711C27.6245 48.3611 27.9796 48.4511 28.3204 48.5363C28.7938 48.6595 29.0826 49.1424 28.9642 49.6159C28.8601 50.0184 28.5003 50.2837 28.1026 50.2837H28.0979ZM20.1163 48.0674C20.0216 48.0674 19.9222 48.0534 19.8276 48.0202C18.4026 47.5325 17.115 47.0163 15.8983 46.4528C15.4533 46.2444 15.2592 45.7187 15.4675 45.2736C15.6758 44.8285 16.2013 44.6345 16.6463 44.8428C17.8109 45.3827 19.037 45.875 20.4051 46.339C20.869 46.5 21.1152 47.0019 20.959 47.466C20.8312 47.8354 20.4903 48.0674 20.1211 48.0674H20.1163ZM12.6508 44.5397C12.4851 44.5397 12.3146 44.4923 12.1632 44.3929C10.9134 43.5736 9.78667 42.6738 8.80199 41.7126C8.45167 41.3716 8.4422 40.8081 8.78778 40.4577C9.13337 40.1073 9.69198 40.1027 10.0423 40.4436C10.9465 41.3244 11.988 42.1578 13.1384 42.9107C13.5502 43.1807 13.6638 43.7298 13.394 44.1418C13.2236 44.4022 12.9395 44.5443 12.6508 44.5443V44.5397ZM6.82789 38.7624C6.53438 38.7624 6.24561 38.6157 6.07518 38.3458C5.30827 37.124 4.68811 35.8029 4.23838 34.4155C4.08689 33.9514 4.34252 33.4493 4.80646 33.2978C5.27513 33.1462 5.7722 33.402 5.92369 33.8661C6.33082 35.1162 6.8847 36.3047 7.57587 37.4033C7.83624 37.82 7.71316 38.3647 7.29656 38.6299C7.14981 38.7246 6.98412 38.7673 6.82316 38.7673L6.82789 38.7624ZM41.8361 31.541C41.7793 31.541 41.7177 31.5362 41.6562 31.522C40.1744 31.2189 38.7921 30.6175 37.5518 29.7367C37.1541 29.4526 37.0594 28.8986 37.3435 28.5009C37.6275 28.0984 38.1814 28.0084 38.5791 28.2925C39.6158 29.0313 40.7709 29.5332 42.0065 29.7841C42.4894 29.8836 42.7971 30.3524 42.6977 30.8306C42.6125 31.2521 42.2432 31.541 41.8266 31.541H41.8361ZM45.9405 31.5174C45.5334 31.5174 45.1641 31.2331 45.0742 30.8212C44.97 30.3429 45.273 29.8694 45.7511 29.7652C46.8116 29.5331 47.8104 29.1165 48.7336 28.5198C48.8803 28.4251 49.0224 28.3256 49.1644 28.2262C49.562 27.9373 50.1159 28.0226 50.4047 28.4204C50.6935 28.8182 50.6035 29.3723 50.2106 29.6611C50.0449 29.7795 49.8745 29.8978 49.6993 30.0114C48.601 30.7217 47.3986 31.2238 46.1346 31.4984C46.0683 31.5126 46.0068 31.5174 45.9452 31.5174H45.9405ZM4.24311 30.9918C3.79338 30.9918 3.40519 30.6507 3.36258 30.1913C3.28683 29.4289 3.24896 28.6381 3.24896 27.8331C3.24896 27.1844 3.27263 26.5404 3.31997 25.9059C3.35785 25.4181 3.76971 25.0393 4.27151 25.0867C4.75912 25.1246 5.12837 25.5506 5.0905 26.0384C5.0479 26.6256 5.02423 27.227 5.02423 27.8331C5.02423 28.5813 5.05736 29.3154 5.12837 30.0163C5.17571 30.504 4.82066 30.9396 4.33306 30.9869C4.30465 30.9869 4.27151 30.9869 4.24311 30.9869V30.9918ZM35.0096 27.2081C34.9102 27.2081 34.8108 27.1892 34.7114 27.1561C34.2001 26.9761 32.8035 26.5404 30.9052 26.4314C30.4176 26.403 30.0389 25.9863 30.0673 25.4938C30.0957 25.0061 30.517 24.6367 31.0046 24.6557C33.0544 24.7693 34.5788 25.224 35.3031 25.4797C35.767 25.6455 36.0085 26.1522 35.8428 26.6116C35.715 26.9762 35.3694 27.2035 35.0049 27.2035L35.0096 27.2081ZM52.4498 26.7866C52.2936 26.7866 52.1373 26.7488 51.9953 26.6636C51.574 26.4126 51.4367 25.8679 51.6876 25.4464C52.3362 24.3573 52.767 23.164 52.9658 21.8949C53.0415 21.4119 53.496 21.0854 53.9789 21.1564C54.4618 21.2322 54.7931 21.6866 54.7174 22.1696C54.4807 23.666 53.9789 25.0725 53.212 26.3558C53.0463 26.6352 52.7528 26.7915 52.4498 26.7915V26.7866ZM4.86327 22.7853C4.79226 22.7853 4.71651 22.7758 4.64077 22.7569C4.16737 22.6338 3.87859 22.1506 4.00167 21.6771C4.35673 20.2802 4.84433 18.9165 5.45029 17.6284C5.65859 17.1833 6.18406 16.9939 6.62906 17.2023C7.07406 17.4106 7.26342 17.9409 7.05513 18.3813C6.50124 19.5699 6.05151 20.8248 5.72013 22.1176C5.61598 22.5201 5.25619 22.7853 4.86327 22.7853ZM53.6948 18.8074C53.2924 18.8074 52.9232 18.5282 52.8285 18.1209C52.6107 17.1739 52.251 16.2742 51.7681 15.436C51.6119 15.1661 51.4509 14.9104 51.2805 14.6547C51.0106 14.2475 51.1195 13.6934 51.5267 13.4235C51.9338 13.1535 52.4877 13.2625 52.7575 13.6697C52.9469 13.9538 53.1268 14.2426 53.3019 14.5409C53.8795 15.5306 54.3008 16.6008 54.5612 17.7184C54.6701 18.1967 54.3718 18.6749 53.8984 18.7838C53.8321 18.798 53.7659 18.8074 53.6996 18.8074H53.6948ZM8.35225 15.3366C8.17236 15.3366 7.98773 15.2796 7.83151 15.1659C7.43385 14.8771 7.34864 14.3232 7.63741 13.9254C8.47534 12.7747 9.43635 11.6903 10.4873 10.7101C10.8471 10.3739 11.4057 10.3927 11.7418 10.7526C12.0779 11.1125 12.059 11.6713 11.6992 12.0075C10.7287 12.9167 9.84347 13.9112 9.07183 14.9719C8.89667 15.2087 8.62683 15.3366 8.35225 15.3366ZM49.3301 11.9224C49.117 11.9224 48.8993 11.8465 48.7336 11.6902C47.7962 10.8331 46.7263 10.0471 45.5523 9.35098C45.131 9.1 44.9937 8.55552 45.2399 8.13407C45.4908 7.71262 46.0352 7.57522 46.4565 7.82146C47.7347 8.57912 48.904 9.44091 49.9313 10.3785C50.2911 10.71 50.3195 11.2687 49.9881 11.6334C49.8129 11.8228 49.5715 11.9224 49.3348 11.9224H49.3301ZM14.3597 9.71561C14.0662 9.71561 13.7822 9.57362 13.6118 9.30843C13.3467 8.89646 13.4697 8.34699 13.8816 8.08181C15.0651 7.32415 16.3386 6.65185 17.6688 6.08361C18.1233 5.88946 18.644 6.10243 18.8334 6.55229C19.0275 7.00215 18.8145 7.52303 18.3647 7.71718C17.1244 8.24754 15.9409 8.87258 14.8426 9.57341C14.6959 9.66812 14.5302 9.71561 14.3645 9.71561H14.3597ZM42.2811 7.67926C42.1722 7.67926 42.0633 7.66037 41.9592 7.61775C40.752 7.14895 39.4596 6.74655 38.1246 6.42928C37.6465 6.31563 37.353 5.83724 37.4666 5.35896C37.5802 4.88069 38.0583 4.58726 38.5365 4.70091C39.9519 5.04186 41.3201 5.46315 42.603 5.96037C43.0622 6.14031 43.2847 6.65182 43.1095 7.11115C42.9723 7.46157 42.6361 7.67926 42.2811 7.67926ZM21.9342 6.47183C21.5365 6.47183 21.1768 6.20657 21.0773 5.80406C20.9543 5.33052 21.243 4.84761 21.7164 4.72449C23.0467 4.38355 24.4527 4.12778 25.9013 3.95731C26.3889 3.90522 26.8292 4.25096 26.886 4.73397C26.9428 5.22172 26.5925 5.66215 26.1096 5.71897C24.7415 5.87998 23.4112 6.12138 22.1567 6.44339C22.081 6.46233 22.0099 6.47183 21.9389 6.47183H21.9342ZM34.2616 5.73793C34.2285 5.73793 34.1906 5.73781 34.1575 5.73308C32.813 5.57681 31.4591 5.49642 30.1288 5.49168C29.6365 5.49168 29.2436 5.09373 29.2436 4.60125C29.2436 4.11351 29.6412 3.71591 30.1288 3.71591C31.5254 3.71591 32.9503 3.80105 34.361 3.96679C34.8486 4.02361 35.199 4.46404 35.1374 4.95178C35.0853 5.40165 34.7019 5.73793 34.2569 5.73793H34.2616Z" fill="#DD1E47"/>
<path d="M26.8482 28.3208C26.763 28.3208 26.6731 28.3065 26.5878 28.2828C25.7168 28.0129 25.0303 27.7761 24.4954 27.5536C24.2019 27.4305 23.9936 27.1654 23.9557 26.8481C23.9178 26.5308 24.0457 26.2181 24.2966 26.0287C24.5853 25.8108 24.983 25.612 25.6221 25.3658C25.9203 25.2521 26.2328 25.1528 26.5642 25.0629C27.0328 24.935 27.5252 25.2143 27.653 25.6879C27.7571 26.0667 27.5962 26.4549 27.2885 26.6585C27.6435 26.8574 27.8282 27.2884 27.7003 27.6909C27.582 28.0745 27.2317 28.3159 26.8529 28.3159L26.8482 28.3208Z" fill="#DD1E47"/>
<path d="M27.9323 74.3348H27.9228C26.5073 74.3206 25.0729 74.2212 23.648 74.046C23.1604 73.9844 22.8148 73.5439 22.8763 73.0561C22.9379 72.5684 23.3876 72.218 23.8657 72.2843C25.2197 72.45 26.5925 72.5448 27.9417 72.559C28.4341 72.5637 28.827 72.9662 28.8175 73.4587C28.8128 73.9464 28.4151 74.3348 27.9323 74.3348ZM32.1077 74.1405C31.6579 74.1405 31.2745 73.7997 31.2271 73.3451C31.1751 72.8574 31.5301 72.4217 32.0177 72.3696C33.3953 72.2276 34.7445 72.0002 36.0322 71.7019C36.5056 71.593 36.9885 71.8865 37.0974 72.3648C37.2062 72.843 36.9127 73.3213 36.4346 73.4302C35.0759 73.7475 33.651 73.9844 32.2024 74.1359C32.1692 74.1359 32.1408 74.1405 32.1077 74.1405ZM19.6477 73.2977C19.5767 73.2977 19.5057 73.2881 19.4347 73.2739C18.005 72.9235 16.6227 72.4831 15.335 71.9717C14.8805 71.7918 14.658 71.2757 14.8379 70.8211C15.0178 70.3666 15.5386 70.1438 15.9883 70.3238C17.2049 70.8068 18.5068 71.2189 19.8607 71.5504C20.3389 71.6688 20.6276 72.1471 20.5093 72.6254C20.4099 73.0326 20.0454 73.3024 19.6477 73.3024V73.2977ZM40.2266 72.2085C39.8715 72.2085 39.5401 71.9955 39.4028 71.6498C39.2229 71.1952 39.4454 70.679 39.8999 70.4991C41.1686 69.9971 42.3853 69.3957 43.5167 68.7138C43.938 68.4628 44.4825 68.5955 44.7334 69.0169C44.9843 69.4384 44.8517 69.9829 44.4304 70.2338C43.2137 70.9631 41.9119 71.6071 40.5532 72.147C40.4443 72.1896 40.3354 72.2085 40.2266 72.2085ZM11.9076 70.1818C11.7513 70.1818 11.5904 70.1392 11.4484 70.054C10.1607 69.2726 8.99139 68.3919 7.9641 67.4259C7.60905 67.0897 7.59011 66.526 7.92623 66.1708C8.26235 65.811 8.8257 65.7969 9.18075 66.1332C10.1134 67.0092 11.188 67.8189 12.3668 68.5339C12.7881 68.7896 12.9206 69.3342 12.665 69.7557C12.4993 70.0303 12.2058 70.1818 11.9028 70.1818H11.9076ZM47.3465 67.8994C47.1004 67.8994 46.8542 67.7952 46.679 67.5963C46.3571 67.227 46.395 66.6682 46.7595 66.3415C47.7726 65.4512 48.6957 64.4709 49.51 63.4244C49.813 63.0361 50.3669 62.9698 50.755 63.2681C51.1432 63.5712 51.2142 64.1252 50.9113 64.5135C50.0307 65.65 49.0271 66.7155 47.9288 67.6768C47.7584 67.8236 47.5501 67.8994 47.3465 67.8994ZM5.90953 64.4614C5.61602 64.4614 5.32724 64.3146 5.16155 64.0494C5.0432 63.8647 4.92958 63.6802 4.8207 63.4908C4.17214 62.3732 3.71767 61.1608 3.47624 59.887C3.38629 59.404 3.69873 58.9399 4.18161 58.85C4.66448 58.7552 5.12841 59.0726 5.21836 59.5556C5.42666 60.6306 5.80538 61.6535 6.35453 62.6006C6.45394 62.771 6.55336 62.9367 6.65751 63.0977C6.92261 63.5097 6.79953 64.0589 6.38293 64.3241C6.23618 64.4188 6.07049 64.4614 5.90953 64.4614ZM52.4404 61.3314C52.3078 61.3314 52.1705 61.3029 52.0427 61.2366C51.6024 61.0188 51.4273 60.4837 51.6451 60.0433C52.2415 58.8547 52.7291 57.5999 53.0889 56.3024C53.2215 55.8288 53.7091 55.5543 54.1825 55.6869C54.6559 55.8194 54.9305 56.3072 54.7979 56.7808C54.405 58.1824 53.8748 59.546 53.231 60.8341C53.0747 61.1466 52.7623 61.3219 52.4356 61.3219L52.4404 61.3314ZM4.3615 56.4492C4.30469 56.4492 4.24788 56.4444 4.18634 56.4302C3.70347 56.3355 3.39102 55.8666 3.4857 55.3884C3.78395 53.8825 4.35677 52.4857 5.18996 51.2213C5.4598 50.8141 6.01368 50.7005 6.4208 50.9704C6.82793 51.2403 6.94155 51.7895 6.67171 52.2014C5.96634 53.2669 5.47873 54.4557 5.22783 55.7343C5.14262 56.1557 4.77336 56.4492 4.35677 56.4492H4.3615ZM27.9512 53.3996H27.9275C26.0339 53.3523 24.519 53.0256 23.5817 52.7557C23.1083 52.6231 22.8384 52.1306 22.971 51.6618C23.1035 51.1882 23.5959 50.9136 24.0646 51.0509C24.9025 51.2877 26.2611 51.5812 27.9749 51.6239C28.4625 51.6381 28.8507 52.0453 28.8412 52.533C28.827 53.016 28.4341 53.3996 27.9559 53.3996H27.9512ZM54.7032 53.3238C54.6748 53.3238 54.6464 53.3238 54.6228 53.3238C54.1351 53.2764 53.7754 52.8455 53.8227 52.3577C53.889 51.6522 53.9221 50.9276 53.9221 50.1984C53.9221 49.5686 53.8984 48.9388 53.8464 48.3327C53.8085 47.8449 54.1683 47.414 54.6559 47.3761C55.153 47.3382 55.5743 47.6981 55.6122 48.1858C55.6642 48.8393 55.6926 49.5165 55.6926 50.1984C55.6926 50.9797 55.6595 51.7612 55.5885 52.5189C55.5459 52.9782 55.1577 53.3238 54.7032 53.3238ZM20.5945 50.3121C20.3957 50.3121 20.1968 50.2459 20.0312 50.1133C19.037 49.2988 17.9056 48.7115 16.67 48.3801C16.1966 48.2522 15.9173 47.7646 16.0451 47.291C16.1729 46.8175 16.6558 46.5379 17.1339 46.6658C18.6109 47.0683 19.9601 47.7646 21.1531 48.7401C21.5318 49.0479 21.5887 49.6112 21.2762 49.9901C21.101 50.2031 20.8454 50.3168 20.5898 50.3168L20.5945 50.3121ZM9.39378 49.5119L8.8825 48.7826L8.4233 48.0249C9.71569 47.1915 11.1264 46.6517 12.6224 46.4149C13.1005 46.3392 13.5597 46.6707 13.6355 47.1537C13.7112 47.6367 13.3798 48.0911 12.897 48.1669C11.6472 48.3658 10.4684 48.8158 9.39378 49.5119ZM53.9553 45.0463C53.5765 45.0463 53.2215 44.8001 53.1079 44.4165C52.7197 43.1427 52.18 41.9259 51.5078 40.8083C51.2569 40.3869 51.3894 39.8421 51.8107 39.5912C52.2321 39.3402 52.7765 39.4728 53.0274 39.8943C53.7754 41.1397 54.3719 42.4892 54.8027 43.905C54.9447 44.3738 54.6796 44.8712 54.2109 45.0133C54.1257 45.0417 54.0357 45.0512 53.9505 45.0512L53.9553 45.0463ZM49.6994 37.9527C49.4721 37.9527 49.2402 37.8627 49.0697 37.6875C48.175 36.7831 47.1335 35.926 45.9784 35.1494C45.5713 34.8748 45.4624 34.3254 45.737 33.9182C46.0115 33.5109 46.5607 33.4021 46.9678 33.6768C48.2223 34.5197 49.349 35.4478 50.329 36.4375C50.6746 36.788 50.6698 37.3467 50.3243 37.6924C50.1538 37.8629 49.9266 37.9481 49.6994 37.9481V37.9527ZM42.8303 33.2504C42.7025 33.2504 42.5746 33.2221 42.4516 33.1653C41.2822 32.6113 40.0419 32.1093 38.6643 31.6263C38.2004 31.4653 37.959 30.9586 38.1199 30.4945C38.2809 30.0304 38.7874 29.789 39.2513 29.95C40.6952 30.4519 41.9923 30.9775 43.2185 31.56C43.6635 31.7683 43.8481 32.2987 43.6398 32.7438C43.4883 33.0658 43.1711 33.2504 42.835 33.2504H42.8303ZM34.9528 30.4519C34.8771 30.4519 34.7966 30.4423 34.7209 30.4187C33.5989 30.1156 32.5337 29.8505 31.5727 29.6138L30.678 29.3911C30.2046 29.2727 29.9158 28.7897 30.0342 28.3162C30.1525 27.8426 30.6401 27.5538 31.1088 27.6722L31.9988 27.8949C32.9693 28.1364 34.0486 28.4014 35.1848 28.7092C35.6582 28.8371 35.9375 29.325 35.8097 29.7985C35.7008 30.1916 35.3458 30.4519 34.9528 30.4519Z" fill="#DD1E47"/>
<path d="M28.3205 69.3621C20.5046 69.3621 12.3905 66.6202 9.11452 60.9899C7.36293 57.9782 8.26239 54.043 11.1218 52.201C13.9574 50.3684 17.6595 51.2871 19.43 54.2419C20.7934 55.8236 28.4957 57.8835 34.4653 55.5536C38.0868 54.1378 38.5792 52.0494 38.5792 50.1979C38.5792 48.138 35.1754 46.9354 28.027 45.1691C20.1401 43.2228 8.21979 40.282 8.21979 27.8327C8.21979 19.1006 13.3941 12.3527 22.0621 9.77667C31.2272 7.05382 44.5535 9.36946 49.013 17.0361C50.7646 20.0478 49.8651 23.9829 47.0057 25.825C44.1606 27.6576 40.4538 26.7341 38.688 23.765C37.4383 22.245 30.1762 20.2088 24.4859 22.3729C20.8502 23.7556 20.3626 25.9055 20.3626 27.828C20.3626 29.9684 24.8836 31.2565 30.8011 32.7197C38.7354 34.6754 50.722 37.6349 50.722 50.1979C50.722 58.8779 45.4956 65.6117 36.7423 68.2067C34.1623 68.9738 31.2651 69.3574 28.3252 69.3621H28.3205Z" fill="url(#paint2_linear_53_37360)"/>
<defs>
<linearGradient id="paint0_linear_53_37360" x1="0.119848" y1="39.0228" x2="58.8124" y2="39.0228" gradientUnits="userSpaceOnUse">
<stop stop-color="#F1F2F2"/>
<stop offset="1" stop-color="#D1D3D4"/>
</linearGradient>
<linearGradient id="paint1_linear_53_37360" x1="1.46906" y1="39.0224" x2="57.4632" y2="39.0224" gradientUnits="userSpaceOnUse">
<stop stop-color="#D1D3D4"/>
<stop offset="1" stop-color="#F1F2F2"/>
</linearGradient>
<linearGradient id="paint2_linear_53_37360" x1="8.21979" y1="39.0225" x2="50.7172" y2="39.0225" gradientUnits="userSpaceOnUse">
<stop stop-color="#E24263"/>
<stop offset="0.11" stop-color="#E0375A"/>
<stop offset="0.32" stop-color="#DE284F"/>
<stop offset="0.57" stop-color="#DD2048"/>
<stop offset="1" stop-color="#DD1E47"/>
</linearGradient>
</defs>
</svg>
