<svg width="75" height="89" viewBox="0 0 75 89" fill="none" xmlns="http://www.w3.org/2000/svg">
<g style="mix-blend-mode:multiply">
<path opacity="0.03" d="M42.1992 87.9467C34.3927 87.9467 28.0444 81.2604 28.0444 73.0397V40.0009H24.4939C16.6875 40.0009 10.3391 33.3146 10.3391 25.0939C10.3391 16.8733 16.6875 10.1869 24.4939 10.1869H59.9092C67.7156 10.1869 74.064 16.8733 74.064 25.0939C74.064 33.3146 67.7156 40.0009 59.9092 40.0009H56.3587V73.0397C56.3587 81.2604 50.0103 87.9467 42.2039 87.9467H42.1992Z" fill="#FBFBFB"/>
<path opacity="0.06" d="M41.8772 87.6006C34.0803 87.6006 27.7319 80.9189 27.7319 72.7077V39.6548H24.1672C16.3703 39.6548 10.0219 32.973 10.0219 24.7619C10.0219 16.5507 16.3655 9.86899 24.1672 9.86899H59.5825C67.3795 9.86899 73.7278 16.5507 73.7278 24.7619C73.7278 32.973 67.3842 39.6548 59.5825 39.6548H56.0178V72.7077C56.0178 80.9189 49.6742 87.6006 41.8725 87.6006H41.8772Z" fill="#F7F7F7"/>
<path opacity="0.1" d="M41.5508 87.2504C33.7585 87.2504 27.4149 80.5737 27.4149 72.3672V39.3046H23.8407C16.0485 39.3046 9.7049 32.6278 9.7049 24.4214C9.7049 16.215 16.0438 9.538 23.8407 9.538H59.256C67.0483 9.538 73.3919 16.215 73.3919 24.4214C73.3919 32.6278 67.053 39.3046 59.256 39.3046H55.6818V72.3672C55.6818 80.5737 49.343 87.2504 41.546 87.2504H41.5508Z" fill="#F3F3F3"/>
<path opacity="0.13" d="M41.2287 86.9048C33.4412 86.9048 27.1071 80.2326 27.1071 72.0357V38.9589H23.5234C15.7359 38.9589 9.40179 32.2868 9.40179 24.0899C9.40179 15.8929 15.7359 9.22079 23.5234 9.22079H58.9387C66.7262 9.22079 73.0604 15.8929 73.0604 24.0899C73.0604 32.2868 66.7262 38.9589 58.9387 38.9589H55.3551V72.0357C55.3551 80.2374 49.0209 86.9048 41.2334 86.9048H41.2287Z" fill="#EFEFEF"/>
<path opacity="0.16" d="M40.902 86.5592C33.1193 86.5592 26.7899 79.8918 26.7899 71.6996V38.6133H23.192C15.4092 38.6133 9.07983 31.946 9.07983 23.7537C9.07983 15.5615 15.4092 8.89415 23.192 8.89415H58.6073C66.3901 8.89415 72.7195 15.5615 72.7195 23.7537C72.7195 31.946 66.3901 38.6133 58.6073 38.6133H55.0094V71.6996C55.0094 79.8918 48.68 86.5592 40.8973 86.5592H40.902Z" fill="#EBEBEB"/>
<path opacity="0.19" d="M40.5802 86.2087C32.8069 86.2087 26.4775 79.5459 26.4775 71.3632V38.2628H22.8702C15.0969 38.2628 8.76752 31.6001 8.76752 23.4174C8.76752 15.2346 15.0922 8.57186 22.8702 8.57186H58.2855C66.0588 8.57186 72.3882 15.2346 72.3882 23.4174C72.3882 31.6001 66.0635 38.2628 58.2855 38.2628H54.6782V71.3632C54.6782 79.5507 48.3535 86.2087 40.5755 86.2087H40.5802Z" fill="#E6E7E7"/>
<path opacity="0.23" d="M40.2535 85.8631C32.4849 85.8631 26.165 79.2051 26.165 71.0271V37.9173H22.5482C14.7797 37.9173 8.45972 31.2593 8.45972 23.0812C8.45972 14.9032 14.7797 8.24523 22.5482 8.24523H57.9635C65.7321 8.24523 72.052 14.9032 72.052 23.0812C72.052 31.2593 65.7321 37.9173 57.9635 37.9173H54.3467V71.0271C54.3467 79.2098 48.0268 85.8631 40.2582 85.8631H40.2535Z" fill="#E2E3E3"/>
<path opacity="0.26" d="M39.9316 85.5124C32.1677 85.5124 25.8525 78.8639 25.8525 70.6859V37.5666H22.2215C14.4577 37.5666 8.14252 30.9181 8.14252 22.7401C8.14252 14.562 14.4577 7.91353 22.2215 7.91353H57.6369C65.4007 7.91353 71.7159 14.562 71.7159 22.7401C71.7159 30.9181 65.4007 37.5666 57.6369 37.5666H54.0058V70.6859C54.0058 78.8592 47.6906 85.5124 39.9268 85.5124H39.9316Z" fill="#DEDFE0"/>
<path opacity="0.29" d="M39.605 85.1668C31.8459 85.1668 25.5355 78.5231 25.5355 70.3546V37.2209H21.895C14.1359 37.2209 7.82544 30.5773 7.82544 22.4087C7.82544 14.2402 14.1359 7.59631 21.895 7.59631H57.3103C65.0694 7.59631 71.3799 14.2402 71.3799 22.4087C71.3799 30.5773 65.0694 37.2209 57.3103 37.2209H53.6698V70.3546C53.6698 78.5231 47.3594 85.1668 39.6003 85.1668H39.605Z" fill="#DADBDC"/>
<path opacity="0.32" d="M39.2784 84.8212C31.5287 84.8212 25.2183 78.182 25.2183 70.0182V36.8753H21.5683C13.8187 36.8753 7.50824 30.2362 7.50824 22.0724C7.50824 13.9086 13.814 7.26967 21.5683 7.26967H56.9836C64.7333 7.26967 71.0437 13.9086 71.0437 22.0724C71.0437 30.2362 64.738 36.8753 56.9836 36.8753H53.3337V70.0182C53.3337 78.182 47.028 84.8212 39.2736 84.8212H39.2784Z" fill="#D6D7D8"/>
<path opacity="0.35" d="M38.9565 84.4704C31.2116 84.4704 24.9106 77.8362 24.9106 69.6818V36.5246H21.2512C13.5063 36.5246 7.20532 29.8903 7.20532 21.736C7.20532 13.5817 13.5063 6.94738 21.2512 6.94738H56.6665C64.4114 6.94738 70.7124 13.5817 70.7124 21.736C70.7124 29.8903 64.4114 36.5246 56.6665 36.5246H53.0071V69.6818C53.0071 77.8362 46.7061 84.4704 38.9612 84.4704H38.9565Z" fill="#D2D3D4"/>
<path opacity="0.39" d="M38.6299 84.1248C30.8897 84.1248 24.5934 77.4953 24.5934 69.3457V36.179H20.9198C13.1797 36.179 6.88342 29.5495 6.88342 21.3999C6.88342 13.2503 13.1797 6.62075 20.9198 6.62075H56.3352C64.0753 6.62075 70.3716 13.2503 70.3716 21.3999C70.3716 29.5495 64.0753 36.179 56.3352 36.179H52.6615V69.3457C52.6615 77.4953 46.3653 84.1248 38.6251 84.1248H38.6299Z" fill="#CECFD0"/>
<path opacity="0.42" d="M38.3078 83.7742C30.5724 83.7742 24.2809 77.1494 24.2809 69.0045V35.8284H20.5978C12.8624 35.8284 6.57086 29.2036 6.57086 21.0587C6.57086 12.9138 12.8624 6.28905 20.5978 6.28905H56.0131C63.7485 6.28905 70.0401 12.9138 70.0401 21.0587C70.0401 29.2036 63.7485 35.8284 56.0131 35.8284H52.3301V69.0045C52.3301 77.1494 46.0385 83.7742 38.3031 83.7742H38.3078Z" fill="#CACBCC"/>
<path opacity="0.45" d="M37.9811 83.4287C30.2552 83.4287 23.9684 76.8086 23.9684 68.6732V35.4829H20.2758C12.5499 35.4829 6.26306 28.8628 6.26306 20.7274C6.26306 12.592 12.5499 5.97182 20.2758 5.97182H55.6911C63.4171 5.97182 69.7039 12.592 69.7039 20.7274C69.7039 28.8628 63.4171 35.4829 55.6911 35.4829H51.9986V68.6732C51.9986 76.8086 45.7118 83.4287 37.9858 83.4287H37.9811Z" fill="#C6C7C8"/>
<path opacity="0.48" d="M37.6593 83.0832C29.9381 83.0832 23.6561 76.4678 23.6561 68.3371V35.1373H19.9493C12.2281 35.1373 5.94604 28.5219 5.94604 20.3913C5.94604 12.2606 12.2281 5.6452 19.9493 5.6452H55.3646C63.0859 5.6452 69.3679 12.2606 69.3679 20.3913C69.3679 28.5219 63.0859 35.1373 55.3646 35.1373H51.6579V68.3371C51.6579 76.4678 45.3758 83.0832 37.6546 83.0832H37.6593Z" fill="#C2C3C4"/>
<path opacity="0.52" d="M37.3327 82.7329C29.6162 82.7329 23.3389 76.1224 23.3389 68.0012V34.7871H19.6227C11.9062 34.7871 5.62885 28.1765 5.62885 20.0554C5.62885 11.9342 11.9062 5.32362 19.6227 5.32362H55.038C62.7545 5.32362 69.0318 11.9342 69.0318 20.0554C69.0318 28.1765 62.7545 34.7871 55.038 34.7871H51.3218V68.0012C51.3218 76.1271 45.0444 82.7329 37.3279 82.7329H37.3327Z" fill="#BDBEC0"/>
<path opacity="0.55" d="M37.0108 82.3873C29.2991 82.3873 23.0312 75.7815 23.0312 67.6651V34.4415H19.3055C11.5985 34.4415 5.32593 27.8357 5.32593 19.7192C5.32593 11.6028 11.5985 4.99699 19.3055 4.99699H54.7209C62.4326 4.99699 68.7005 11.6028 68.7005 19.7192C68.7005 27.8357 62.4279 34.4415 54.7209 34.4415H50.9952V67.6651C50.9952 75.7815 44.7226 82.3873 37.0156 82.3873H37.0108Z" fill="#B9BABC"/>
<path opacity="0.58" d="M36.6841 82.0412C28.9818 82.0412 22.714 75.44 22.714 67.333V34.0953H18.9788C11.2765 34.0953 5.00867 27.4942 5.00867 19.3872C5.00867 11.2802 11.2765 4.67905 18.9788 4.67905H54.3941C62.0964 4.67905 68.3643 11.2802 68.3643 19.3872C68.3643 27.4942 62.0964 34.0953 54.3941 34.0953H50.659V67.333C50.659 75.4447 44.3911 82.0412 36.6888 82.0412H36.6841Z" fill="#B5B6B8"/>
<path opacity="0.61" d="M36.3575 81.6912C28.6599 81.6912 22.3968 75.0995 22.3968 66.9926V33.7454H18.6474C10.9499 33.7454 4.68677 27.1537 4.68677 19.0467C4.68677 10.9397 10.9499 4.34807 18.6474 4.34807H54.0628C61.7603 4.34807 68.0234 10.9397 68.0234 19.0467C68.0234 27.1537 61.7603 33.7454 54.0628 33.7454H50.3134V66.9926C50.3134 75.0995 44.0503 81.6912 36.3527 81.6912H36.3575Z" fill="#B1B2B4"/>
<path opacity="0.65" d="M36.0355 81.3456C28.3427 81.3456 22.0843 74.7587 22.0843 66.6564V33.3998H18.3255C10.6327 33.3998 4.37427 26.8129 4.37427 18.7106C4.37427 10.6084 10.6327 4.02144 18.3255 4.02144H53.7408C61.4336 4.02144 67.692 10.6084 67.692 18.7106C67.692 26.8129 61.4336 33.3998 53.7408 33.3998H49.982V66.6564C49.982 74.754 43.7236 81.3456 36.0308 81.3456H36.0355Z" fill="#ADAEB0"/>
<path opacity="0.68" d="M35.7089 80.9949C28.0256 80.9949 21.7719 74.4128 21.7719 66.3201V33.0491H18.0036C10.3203 33.0491 4.06665 26.467 4.06665 18.3742C4.06665 10.2815 10.3203 3.69915 18.0036 3.69915H53.419C61.1023 3.69915 67.356 10.2815 67.356 18.3742C67.356 26.467 61.1023 33.0491 53.419 33.0491H49.6507V66.3201C49.6507 74.4128 43.397 80.9949 35.7137 80.9949H35.7089Z" fill="#A9AAAC"/>
<path opacity="0.71" d="M35.3869 80.6493C27.7083 80.6493 21.4594 74.0718 21.4594 65.9837V32.7035H17.6769C9.99832 32.7035 3.74939 26.1259 3.74939 18.0379C3.74939 9.94984 9.99832 3.37251 17.6769 3.37251H53.0922C60.7708 3.37251 67.0198 9.94984 67.0198 18.0379C67.0198 26.1259 60.7708 32.7035 53.0922 32.7035H49.3097V65.9837C49.3097 74.0718 43.0608 80.6493 35.3822 80.6493H35.3869Z" fill="#A5A6A8"/>
<path opacity="0.74" d="M35.0603 80.3036C27.3864 80.3036 21.1422 73.731 21.1422 65.6524V32.3578H17.3503C9.67638 32.3578 3.43219 25.7851 3.43219 17.7066C3.43219 9.62799 9.67638 3.0553 17.3503 3.0553H52.7656C60.4394 3.0553 66.6836 9.62799 66.6836 17.7066C66.6836 25.7851 60.4394 32.3578 52.7656 32.3578H48.9736V65.6524C48.9736 73.731 42.7294 80.3036 35.0555 80.3036H35.0603Z" fill="#A1A2A4"/>
<path opacity="0.77" d="M34.7384 79.953C27.0693 79.953 20.8346 73.385 20.8346 65.3112V32.0072H17.0331C9.364 32.0072 3.12927 25.4392 3.12927 17.3654C3.12927 9.29154 9.36873 2.72359 17.0331 2.72359H52.4485C60.1176 2.72359 66.3523 9.29154 66.3523 17.3654C66.3523 25.4392 60.1129 32.0072 52.4485 32.0072H48.647V65.3112C48.647 73.385 42.4076 79.953 34.7432 79.953H34.7384Z" fill="#9D9EA1"/>
<path opacity="0.81" d="M34.4118 79.6074C26.7521 79.6074 20.5174 73.0442 20.5174 64.9751V31.6616H16.7018C9.0421 31.6616 2.80737 25.0984 2.80737 17.0293C2.80737 8.96016 9.0421 2.39696 16.7018 2.39696H52.1171C59.7768 2.39696 66.0115 8.96016 66.0115 17.0293C66.0115 25.0984 59.7768 31.6616 52.1171 31.6616H48.3015V64.9751C48.3015 73.0442 42.0667 79.6074 34.4071 79.6074H34.4118Z" fill="#999A9D"/>
<path opacity="0.84" d="M34.0898 79.2569C26.4349 79.2569 20.2049 72.6983 20.2049 64.6387V31.3111H16.3798C8.72486 31.3111 2.49487 24.7525 2.49487 16.6929C2.49487 8.63324 8.72486 2.07467 16.3798 2.07467H51.7951C59.4501 2.07467 65.68 8.63324 65.68 16.6929C65.68 24.7525 59.4501 31.3111 51.7951 31.3111H47.97V64.6387C47.97 72.6983 41.74 79.2569 34.0851 79.2569H34.0898Z" fill="#949699"/>
<path opacity="0.87" d="M33.7632 78.9113C26.113 78.9113 19.8925 72.3575 19.8925 64.3026V30.9655H16.0579C8.40772 30.9655 2.18719 24.4117 2.18719 16.3568C2.18719 8.30186 8.41245 1.74803 16.0579 1.74803H51.4732C59.1234 1.74803 65.344 8.30186 65.344 16.3568C65.344 24.4117 59.1187 30.9655 51.4732 30.9655H47.6387V64.3026C47.6387 72.3575 41.4134 78.9113 33.7679 78.9113H33.7632Z" fill="#909295"/>
<path opacity="0.9" d="M33.4412 78.5656C25.7958 78.5656 19.58 72.0164 19.58 63.971V30.6198H15.7359C8.09048 30.6198 1.87469 24.0706 1.87469 16.0252C1.87469 7.97978 8.09522 1.43082 15.7359 1.43082H51.1513C58.7967 1.43082 65.0125 7.97978 65.0125 16.0252C65.0125 24.0706 58.792 30.6198 51.1513 30.6198H47.3072V63.971C47.3072 72.0212 41.0867 78.5656 33.446 78.5656H33.4412Z" fill="#8C8E91"/>
<path opacity="0.94" d="M33.1146 78.2148C25.4786 78.2148 19.2628 71.6705 19.2628 63.6298V30.2689H15.4046C7.76859 30.2689 1.5528 23.7247 1.5528 15.684C1.5528 7.64333 7.76859 1.09911 15.4046 1.09911H50.8199C58.4559 1.09911 64.6717 7.64333 64.6717 15.684C64.6717 23.7247 58.4559 30.2689 50.8199 30.2689H46.9617V63.6298C46.9617 71.6705 40.7459 78.2148 33.1099 78.2148H33.1146Z" fill="#888A8D"/>
<path opacity="0.97" d="M32.7879 77.8693C25.1566 77.8693 18.9456 71.3297 18.9456 63.2985V29.9235H15.0779C7.44659 29.9235 1.23553 23.3839 1.23553 15.3527C1.23553 7.32147 7.44659 0.781891 15.0779 0.781891H50.4932C58.1244 0.781891 64.3355 7.32147 64.3355 15.3527C64.3355 23.3839 58.1244 29.9235 50.4932 29.9235H46.6255V63.2985C46.6255 71.3345 40.4144 77.8693 32.7831 77.8693H32.7879Z" fill="#848689"/>
<path d="M32.4661 77.5237C24.8396 77.5237 18.638 70.9936 18.638 62.9624V29.5779H14.7608C7.13426 29.5779 0.932678 23.0478 0.932678 15.0166C0.932678 6.98533 7.13426 0.455231 14.7608 0.455231H50.1761C57.8026 0.455231 64.0042 6.98533 64.0042 15.0166C64.0042 23.0478 57.8026 29.5779 50.1761 29.5779H46.2989V62.9624C46.2989 70.9936 40.0973 77.5237 32.4708 77.5237H32.4661Z" fill="#808285"/>
</g>
<path d="M32.4661 77.874C24.655 77.874 18.3019 71.1829 18.3019 62.9575V29.9282H14.7609C6.94969 29.9282 0.596619 23.2371 0.596619 15.0117C0.596619 6.78632 6.94969 0.0952148 14.7609 0.0952148H50.1762C57.9873 0.0952148 64.3404 6.78632 64.3404 15.0117C64.3404 23.2371 57.9873 29.9282 50.1762 29.9282H46.6351V62.9575C46.6351 71.1829 40.282 77.874 32.4709 77.874H32.4661Z" fill="url(#paint0_linear_53_37319)"/>
<path d="M32.4662 76.4538C25.3983 76.4538 19.6512 70.3972 19.6512 62.9579V28.508H14.7609C7.69298 28.508 1.94586 22.4514 1.94586 15.0121C1.94586 7.57281 7.69772 1.51624 14.7609 1.51624H50.1762C57.2441 1.51624 62.9913 7.57281 62.9913 15.0121C62.9913 22.4514 57.2394 28.508 50.1762 28.508H45.286V62.9579C45.286 70.3972 39.5341 76.4538 32.4709 76.4538H32.4662Z" fill="url(#paint1_linear_53_37319)"/>
<path d="M22.3116 28.5121C21.8193 28.5121 21.4264 28.1144 21.4264 27.6219V26.3812H20.186C19.6937 26.3812 19.3008 25.9835 19.3008 25.491C19.3008 24.9985 19.6984 24.6008 20.186 24.6008H22.3164C22.8087 24.6008 23.2016 24.9985 23.2016 25.491V27.6219C23.2016 28.1144 22.804 28.5121 22.3164 28.5121H22.3116Z" fill="#00A185"/>
<path d="M50.1761 26.3812H48.9074C48.4151 26.3812 48.0221 25.9835 48.0221 25.491C48.0221 24.9985 48.4198 24.6008 48.9074 24.6008H50.1761C51.0425 24.6008 51.9041 24.4775 52.7278 24.2313C53.1964 24.094 53.6935 24.3593 53.8308 24.8281C53.9681 25.2969 53.703 25.7941 53.2343 25.9315C52.2449 26.2251 51.2176 26.3718 50.1761 26.3766V26.3812ZM16.0674 26.3812H14.7561C13.7335 26.3812 12.7204 26.2393 11.7452 25.9504C11.2766 25.8131 11.0067 25.3206 11.144 24.847C11.2813 24.3782 11.7736 24.1083 12.247 24.2456C13.0613 24.4824 13.9087 24.6054 14.7608 24.6054H16.0721C16.5645 24.6054 16.9574 25.0031 16.9574 25.4956C16.9574 25.9881 16.5597 26.386 16.0721 26.386L16.0674 26.3812ZM8.39354 24.0609C8.19471 24.0609 7.99114 23.9945 7.82545 23.8572C6.67981 22.9006 5.74248 21.7406 5.0371 20.4099C4.80987 19.9743 4.97556 19.4393 5.41109 19.212C5.84662 18.9847 6.38157 19.1502 6.6088 19.5859C7.20056 20.7129 7.99114 21.6884 8.95689 22.4934C9.33561 22.806 9.38768 23.3648 9.0705 23.7437C8.89534 23.9567 8.6397 24.0657 8.3888 24.0657L8.39354 24.0609ZM56.5718 24.0324C56.3162 24.0324 56.0653 23.9236 55.8901 23.7152C55.5729 23.3411 55.625 22.7775 55.999 22.465C56.9647 21.6553 57.7506 20.6752 58.3376 19.5482C58.5648 19.1125 59.0998 18.9419 59.5353 19.1692C59.9708 19.3965 60.1413 19.9317 59.914 20.3674C59.2181 21.7028 58.2855 22.8677 57.1399 23.829C56.9742 23.9663 56.7706 24.0373 56.5718 24.0373V24.0324ZM4.65365 16.9673C4.20391 16.9673 3.81572 16.6264 3.77312 16.167C3.73525 15.7882 3.71631 15.4046 3.71631 15.0162C3.71631 13.9082 3.87253 12.8142 4.17551 11.763C4.3128 11.2894 4.80987 11.0196 5.27381 11.157C5.74248 11.2943 6.01705 11.7867 5.87976 12.2555C5.61939 13.1457 5.49157 14.0739 5.49157 15.0162C5.49157 15.343 5.50577 15.6745 5.53891 15.9918C5.58625 16.4795 5.2312 16.9153 4.74359 16.9627C4.71519 16.9627 4.68679 16.9627 4.65365 16.9627V16.9673ZM60.2833 16.9247C60.2549 16.9247 60.2265 16.9247 60.1981 16.9247C59.7105 16.8774 59.3507 16.4464 59.398 15.9587C59.4264 15.6509 59.4406 15.3384 59.4406 15.0211C59.4406 14.0693 59.3033 13.1269 59.0382 12.2224C58.901 11.7536 59.1661 11.2564 59.6395 11.119C60.1034 10.9817 60.6052 11.2469 60.7425 11.7204C61.0549 12.7859 61.2159 13.8988 61.2159 15.0211C61.2159 15.3905 61.197 15.7646 61.1638 16.1245C61.1212 16.5838 60.733 16.9294 60.2833 16.9294V16.9247ZM6.90705 9.26765C6.71295 9.26765 6.51886 9.20602 6.35317 9.07343C5.96971 8.76563 5.90817 8.21164 6.21115 7.82808C7.15322 6.64423 8.29412 5.68293 9.60071 4.96788C10.0315 4.73111 10.5712 4.89212 10.8032 5.32304C11.0399 5.75396 10.8789 6.29381 10.4481 6.52584C9.34981 7.12724 8.3888 7.9368 7.59348 8.93123C7.41832 9.15379 7.15795 9.26765 6.89758 9.26765H6.90705ZM58.0015 9.23436C57.7411 9.23436 57.4855 9.12085 57.3103 8.90302C56.515 7.90859 55.5493 7.10354 54.4462 6.50688C54.0154 6.27485 53.8545 5.735 54.0864 5.30408C54.3184 4.87316 54.8581 4.71203 55.2889 4.94407C56.6002 5.65437 57.7459 6.61104 58.6927 7.79016C59.0004 8.17372 58.9388 8.73233 58.5554 9.04013C58.3897 9.17272 58.1956 9.23436 58.0015 9.23436ZM13.9418 5.46038C13.4826 5.46038 13.0944 5.10986 13.0566 4.64579C13.0187 4.15805 13.3785 3.72712 13.8661 3.68923C14.1596 3.66556 14.4531 3.65605 14.7608 3.65131H18.051C18.5433 3.65131 18.9362 4.04903 18.9362 4.54151C18.9362 5.03399 18.5386 5.43194 18.051 5.43194H14.7561C14.491 5.42721 14.2543 5.44144 14.0128 5.46038C13.9892 5.46038 13.9608 5.46038 13.9371 5.46038H13.9418ZM50.9525 5.46038C50.9525 5.46038 50.9052 5.46038 50.8815 5.46038C50.6495 5.44144 50.4128 5.43194 50.1761 5.43194H46.8386C46.3463 5.43194 45.9534 5.03399 45.9534 4.54151C45.9534 4.04903 46.351 3.65131 46.8386 3.65131H50.1761C50.4602 3.65131 50.7442 3.66093 51.0188 3.68461C51.5064 3.72249 51.8709 4.14869 51.833 4.64117C51.7952 5.10524 51.407 5.46038 50.9478 5.46038H50.9525ZM42.7295 5.43194H38.6156C38.1233 5.43194 37.7304 5.03399 37.7304 4.54151C37.7304 4.04903 38.128 3.65131 38.6156 3.65131H42.7295C43.2218 3.65131 43.6148 4.04903 43.6148 4.54151C43.6148 5.03399 43.2171 5.43194 42.7295 5.43194ZM34.5065 5.43194H30.3926C29.9003 5.43194 29.5073 5.03399 29.5073 4.54151C29.5073 4.04903 29.905 3.65131 30.3926 3.65131H34.5065C34.9988 3.65131 35.3917 4.04903 35.3917 4.54151C35.3917 5.03399 34.9941 5.43194 34.5065 5.43194ZM26.2835 5.43194H22.1696C21.6772 5.43194 21.2843 5.03399 21.2843 4.54151C21.2843 4.04903 21.682 3.65131 22.1696 3.65131H26.2835C26.7758 3.65131 27.1687 4.04903 27.1687 4.54151C27.1687 5.03399 26.7711 5.43194 26.2835 5.43194Z" fill="#00A185"/>
<path d="M42.6206 28.5121C42.1282 28.5121 41.7353 28.1144 41.7353 27.6219V25.491C41.7353 24.9985 42.133 24.6008 42.6206 24.6008H44.7509C45.2432 24.6008 45.6361 24.9985 45.6361 25.491C45.6361 25.9835 45.2385 26.3812 44.7509 26.3812H43.5106V27.6219C43.5106 28.1144 43.1129 28.5121 42.6253 28.5121H42.6206Z" fill="#00A185"/>
<path d="M30.4305 74.1144C30.369 74.1144 30.3074 74.1097 30.2459 74.0955C28.7783 73.7877 27.4055 73.1815 26.1699 72.2913C25.7722 72.0072 25.6823 71.4531 25.9663 71.0506C26.2504 70.6528 26.8043 70.5627 27.2067 70.8468C28.2387 71.5903 29.389 72.0971 30.6152 72.3528C31.0933 72.4522 31.401 72.9259 31.3016 73.4041C31.2116 73.8209 30.8424 74.1096 30.4353 74.1096L30.4305 74.1144ZM34.5207 74.1144C34.1089 74.1144 33.7444 73.8302 33.6544 73.4088C33.5503 72.9305 33.858 72.4571 34.3361 72.3576C35.5622 72.0972 36.7079 71.5857 37.7399 70.8422C38.1375 70.5581 38.6914 70.6482 38.9802 71.0459C39.2642 71.4437 39.1743 71.9976 38.7766 72.2864C37.541 73.1767 36.1729 73.783 34.7054 74.0955C34.6438 74.1097 34.5823 74.1144 34.5207 74.1144ZM23.8976 69.469C23.5993 69.469 23.3105 69.3221 23.1401 69.0475C22.3543 67.7737 21.8288 66.3768 21.5826 64.8899C21.5021 64.4069 21.8288 63.9475 22.3117 63.867C22.7945 63.796 23.2537 64.1133 23.3342 64.5963C23.5425 65.8511 23.9875 67.0302 24.6503 68.1099C24.9059 68.5266 24.7781 69.076 24.3615 69.3317C24.2147 69.4216 24.0538 69.4641 23.8976 69.4641V69.469ZM41.0442 69.45C40.8833 69.45 40.7223 69.4073 40.5803 69.3173C40.1637 69.0616 40.0312 68.5125 40.2915 68.0958C40.9543 67.0161 41.3946 65.8322 41.6028 64.5773C41.6833 64.0943 42.1425 63.7629 42.6207 63.8434C43.1035 63.9239 43.4302 64.3785 43.3544 64.8615C43.1083 66.3437 42.5875 67.7452 41.8017 69.0191C41.636 69.2937 41.3425 69.4406 41.0442 69.4406V69.45ZM22.3117 61.5183C21.8193 61.5183 21.4264 61.1205 21.4264 60.6281V56.5036C21.4264 56.0111 21.8241 55.6131 22.3117 55.6131C22.7993 55.6131 23.1969 56.0111 23.1969 56.5036V60.6281C23.1969 61.1205 22.7993 61.5183 22.3117 61.5183ZM42.6207 61.4945C42.1283 61.4945 41.7354 61.0967 41.7354 60.6043V56.4797C41.7354 55.9873 42.1331 55.5895 42.6207 55.5895C43.1083 55.5895 43.5059 55.9873 43.5059 56.4797V60.6043C43.5059 61.0967 43.1083 61.4945 42.6207 61.4945ZM22.3117 53.2693C21.8193 53.2693 21.4264 52.8713 21.4264 52.3788V48.2543C21.4264 47.7618 21.8241 47.3641 22.3117 47.3641C22.7993 47.3641 23.1969 47.7618 23.1969 48.2543V52.3788C23.1969 52.8713 22.7993 53.2693 22.3117 53.2693ZM42.6207 53.2503C42.1283 53.2503 41.7354 52.8526 41.7354 52.3601V48.2354C41.7354 47.7429 42.1331 47.3452 42.6207 47.3452C43.1083 47.3452 43.5059 47.7429 43.5059 48.2354V52.3601C43.5059 52.8526 43.1083 53.2503 42.6207 53.2503ZM22.3117 45.0249C21.8193 45.0249 21.4264 44.6271 21.4264 44.1347V40.0102C21.4264 39.5177 21.8241 39.1197 22.3117 39.1197C22.7993 39.1197 23.1969 39.5177 23.1969 40.0102V44.1347C23.1969 44.6271 22.7993 45.0249 22.3117 45.0249ZM42.6207 45.0013C42.1283 45.0013 41.7354 44.6033 41.7354 44.1109V39.9863C41.7354 39.4939 42.1331 39.0961 42.6207 39.0961C43.1083 39.0961 43.5059 39.4939 43.5059 39.9863V44.1109C43.5059 44.6033 43.1083 45.0013 42.6207 45.0013ZM22.3117 36.7759C21.8193 36.7759 21.4264 36.3781 21.4264 35.8857V31.7611C21.4264 31.2687 21.8241 30.8707 22.3117 30.8707C22.7993 30.8707 23.1969 31.2687 23.1969 31.7611V35.8857C23.1969 36.3781 22.7993 36.7759 22.3117 36.7759ZM42.6207 36.7569C42.1283 36.7569 41.7354 36.3592 41.7354 35.8667V31.7422C41.7354 31.2497 42.1331 30.8518 42.6207 30.8518C43.1083 30.8518 43.5059 31.2497 43.5059 31.7422V35.8667C43.5059 36.3592 43.1083 36.7569 42.6207 36.7569Z" fill="#00A185"/>
<path d="M50.1762 8.62325H14.7562C11.4045 8.62325 8.68713 11.4834 8.68713 15.016C8.68713 18.5486 11.4045 21.4088 14.7562 21.4088H26.3924V62.9618C26.3924 66.4944 29.1098 69.3546 32.4615 69.3546C35.8132 69.3546 38.5305 66.4944 38.5305 62.9618V21.4088H50.1668C53.5185 21.4088 56.2358 18.5486 56.2358 15.016C56.2358 11.4834 53.5185 8.62325 50.1668 8.62325H50.1762Z" fill="url(#paint2_linear_53_37319)"/>
<defs>
<linearGradient id="paint0_linear_53_37319" x1="-7.00151" y1="38.987" x2="64.3404" y2="38.987" gradientUnits="userSpaceOnUse">
<stop stop-color="#F1F2F2"/>
<stop offset="1" stop-color="#D1D3D4"/>
</linearGradient>
<linearGradient id="paint1_linear_53_37319" x1="1.94113" y1="38.9874" x2="-6.52806" y2="38.9874" gradientUnits="userSpaceOnUse">
<stop stop-color="#D1D3D4"/>
<stop offset="1" stop-color="#F1F2F2"/>
</linearGradient>
<linearGradient id="paint2_linear_53_37319" x1="8.68713" y1="38.9866" x2="56.2453" y2="38.9866" gradientUnits="userSpaceOnUse">
<stop stop-color="#33B49D"/>
<stop offset="0.04" stop-color="#2DB19A"/>
<stop offset="0.2" stop-color="#19AA90"/>
<stop offset="0.39" stop-color="#0AA58A"/>
<stop offset="0.62" stop-color="#02A186"/>
<stop offset="1" stop-color="#00A185"/>
</linearGradient>
</defs>
</svg>
