<svg width="75" height="89" viewBox="0 0 75 89" fill="none" xmlns="http://www.w3.org/2000/svg">
<g style="mix-blend-mode:multiply">
<path opacity="0.03" d="M42.1992 88.5277C24.6312 88.5277 10.3344 73.4786 10.3344 54.9774V25.6749C10.3344 17.4543 16.6828 10.7679 24.4892 10.7679C32.2956 10.7679 38.6439 17.4543 38.6439 25.6749V54.9774C38.6439 57.0421 40.2393 58.7184 42.1945 58.7184C44.1496 58.7184 45.745 57.0421 45.745 54.9774V25.6749C45.745 17.4543 52.0933 10.7679 59.8998 10.7679C67.7062 10.7679 74.0545 17.4543 74.0545 25.6749V54.9774C74.0545 73.4786 59.7625 88.5277 42.1897 88.5277H42.1992Z" fill="#FBFBFB"/>
<path opacity="0.06" d="M41.8774 88.1818C24.3141 88.1818 10.0221 73.1375 10.0221 54.641V25.3385C10.0221 17.1273 16.3657 10.4456 24.1674 10.4456C31.9691 10.4456 38.3127 17.1273 38.3127 25.3385V54.641C38.3127 56.7104 39.9128 58.3914 41.8774 58.3914C43.842 58.3914 45.4421 56.7104 45.4421 54.641V25.3385C45.4421 17.1273 51.7858 10.4456 59.5874 10.4456C67.3891 10.4456 73.7327 17.1273 73.7327 25.3385V54.641C73.7327 73.1327 59.4454 88.1818 41.8774 88.1818Z" fill="#F7F7F7"/>
<path opacity="0.1" d="M41.5507 87.8314C23.9922 87.8314 9.70959 72.7919 9.70959 54.3049V25.0024C9.70959 16.796 16.0485 10.119 23.8454 10.119C31.6424 10.119 37.9813 16.796 37.9813 25.0024V54.3049C37.9813 56.379 39.5861 58.0694 41.5555 58.0694C43.5248 58.0694 45.1297 56.379 45.1297 54.3049V25.0024C45.1297 16.796 51.4685 10.119 59.2655 10.119C67.0624 10.119 73.4013 16.796 73.4013 25.0024V54.3049C73.4013 72.7919 59.1187 87.8314 41.5602 87.8314H41.5507Z" fill="#F3F3F3"/>
<path opacity="0.13" d="M41.2287 87.4855C23.6749 87.4855 9.39709 72.4508 9.39709 53.9685V24.6658C9.39709 16.4641 15.7312 9.7967 23.5187 9.7967C31.3062 9.7967 37.6404 16.4688 37.6404 24.6658V53.9685C37.6404 56.0521 39.2499 57.7425 41.224 57.7425C43.1981 57.7425 44.8077 56.0474 44.8077 53.9685V24.6658C44.8077 16.4641 51.1418 9.7967 58.9293 9.7967C66.7168 9.7967 73.0509 16.4688 73.0509 24.6658V53.9685C73.0509 72.4508 58.7731 87.4855 41.2193 87.4855H41.2287Z" fill="#EFEFEF"/>
<path opacity="0.16" d="M40.9022 87.1401C23.3579 87.1401 9.08002 72.11 9.08002 53.6373V24.3347C9.08002 16.1425 15.4094 9.47513 23.1922 9.47513C30.9749 9.47513 37.3043 16.1425 37.3043 24.3347V53.6373C37.3043 55.7256 38.9186 57.4256 40.9022 57.4256C42.8858 57.4256 44.5001 55.7256 44.5001 53.6373V24.3347C44.5001 16.1425 50.8295 9.47513 58.6122 9.47513C66.395 9.47513 72.7244 16.1425 72.7244 24.3347V53.6373C72.7244 72.11 58.4513 87.1401 40.9022 87.1401Z" fill="#EBEBEB"/>
<path opacity="0.19" d="M40.5802 86.7902C23.0406 86.7902 8.77222 71.7648 8.77222 53.2968V23.994C8.77222 15.8065 15.0969 9.1485 22.8749 9.1485C30.6529 9.1485 36.9776 15.8112 36.9776 23.994V53.2968C36.9776 55.3898 38.5966 57.0943 40.5849 57.0943C42.5732 57.0943 44.1923 55.3898 44.1923 53.2968V23.994C44.1923 15.8065 50.5169 9.1485 58.295 9.1485C66.073 9.1485 72.3977 15.8112 72.3977 23.994V53.2968C72.3977 71.7648 58.1293 86.7902 40.5897 86.7902H40.5802Z" fill="#E6E7E7"/>
<path opacity="0.23" d="M40.2535 86.444C22.7187 86.444 8.45502 71.4232 8.45502 52.9599V23.6622C8.45502 15.4795 14.775 8.82621 22.5435 8.82621C30.3121 8.82621 36.632 15.4842 36.632 23.6622V52.9599C36.632 55.0624 38.2558 56.7672 40.2488 56.7672C42.2418 56.7672 43.8656 55.0577 43.8656 52.9599V23.6622C43.8656 15.4795 50.1855 8.82621 57.9541 8.82621C65.7226 8.82621 72.0426 15.4842 72.0426 23.6622V52.9599C72.0426 71.4232 57.7789 86.444 40.2441 86.444H40.2535Z" fill="#E2E3E3"/>
<path opacity="0.26" d="M39.9317 86.0934C22.4016 86.0934 8.1427 71.0774 8.1427 52.6236V23.321C8.1427 15.1478 14.4579 8.4945 22.2217 8.4945C29.9855 8.4945 36.3007 15.143 36.3007 23.321V52.6236C36.3007 54.7308 37.9293 56.4452 39.9317 56.4452C41.9342 56.4452 43.5628 54.7308 43.5628 52.6236V23.321C43.5628 15.1478 49.878 8.4945 57.6418 8.4945C65.4056 8.4945 71.7208 15.143 71.7208 23.321V52.6236C71.7208 71.0774 57.4619 86.0934 39.9317 86.0934Z" fill="#DEDFE0"/>
<path opacity="0.29" d="M39.605 85.748C22.0844 85.748 7.8302 70.7367 7.8302 52.2877V22.9851C7.8302 14.8166 14.1407 8.17294 21.8998 8.17294C29.6588 8.17294 35.9693 14.8166 35.9693 22.9851V52.2877C35.9693 54.3997 37.6025 56.1188 39.6098 56.1188C41.617 56.1188 43.2503 54.3997 43.2503 52.2877V22.9851C43.2503 14.8166 49.5607 8.17294 57.3198 8.17294C65.0789 8.17294 71.3894 14.8166 71.3894 22.9851V52.2877C71.3894 70.7367 57.1352 85.748 39.6145 85.748H39.605Z" fill="#DADBDC"/>
<path opacity="0.32" d="M39.2783 85.4021C21.7624 85.4021 7.51294 70.3957 7.51294 51.9561V22.6534C7.51294 14.4896 13.8187 7.85065 21.573 7.85065C29.3274 7.85065 35.6331 14.4896 35.6331 22.6534V51.9561C35.6331 54.0776 37.2711 55.8011 39.2831 55.8011C41.295 55.8011 42.933 54.0776 42.933 51.9561V22.6534C42.933 14.4896 49.2387 7.85065 56.9931 7.85065C64.7474 7.85065 71.0532 14.4896 71.0532 22.6534V51.9561C71.0532 70.4005 56.8037 85.4021 39.2878 85.4021H39.2783Z" fill="#D6D7D8"/>
<path opacity="0.35" d="M38.9565 85.0517C21.4453 85.0517 7.20062 70.0548 7.20062 51.6152V22.3126C7.20062 14.1583 13.5016 7.52402 21.2465 7.52402C28.9914 7.52402 35.2924 14.1583 35.2924 22.3126V51.6152C35.2924 53.7414 36.9351 55.4698 38.9518 55.4698C40.9685 55.4698 42.6112 53.7414 42.6112 51.6152V22.3126C42.6112 14.1583 48.9122 7.52402 56.6571 7.52402C64.402 7.52402 70.703 14.1583 70.703 22.3126V51.6152C70.703 70.05 56.4583 85.0517 38.9471 85.0517H38.9565Z" fill="#D2D3D4"/>
<path opacity="0.39" d="M38.6299 84.7058C21.1281 84.7058 6.88342 69.7138 6.88342 51.2836V21.9809C6.88342 13.8313 13.1797 7.20173 20.9198 7.20173C28.66 7.20173 34.9563 13.8313 34.9563 21.9809V51.2836C34.9563 53.4146 36.6037 55.1524 38.6299 55.1524C40.656 55.1524 42.3035 53.4193 42.3035 51.2836V21.9809C42.3035 13.8313 48.5997 7.20173 56.3399 7.20173C64.08 7.20173 70.3763 13.8313 70.3763 21.9809V51.2836C70.3763 69.7138 56.1363 84.7058 38.6299 84.7058Z" fill="#CECFD0"/>
<path opacity="0.42" d="M38.3079 84.3559C20.8109 84.3559 6.57562 69.3683 6.57562 50.9429V21.6404C6.57562 13.4955 12.8672 6.87075 20.6026 6.87075C28.338 6.87075 34.6295 13.4955 34.6295 21.6404V50.9429C34.6295 53.0833 36.2817 54.8212 38.3126 54.8212C40.3435 54.8212 41.9957 53.0833 41.9957 50.9429V21.6404C41.9957 13.4955 48.2872 6.87075 56.0226 6.87075C63.758 6.87075 70.0496 13.4955 70.0496 21.6404V50.9429C70.0496 69.3683 55.8143 84.3559 38.3173 84.3559H38.3079Z" fill="#CACBCC"/>
<path opacity="0.45" d="M37.9811 84.01C20.4889 84.01 6.25836 69.0272 6.25836 50.6065V21.304C6.25836 13.1686 12.5452 6.54846 20.2711 6.54846C27.9971 6.54846 34.2838 13.1686 34.2838 21.304V50.6065C34.2838 52.7517 35.9408 54.4943 37.9764 54.4943C40.012 54.4943 41.6689 52.7517 41.6689 50.6065V21.304C41.6689 13.1686 47.9557 6.54846 55.6817 6.54846C63.4076 6.54846 69.6944 13.1686 69.6944 21.304V50.6065C69.6944 69.0225 55.4639 84.01 37.9717 84.01H37.9811Z" fill="#C6C7C8"/>
<path opacity="0.48" d="M37.6593 83.6643C20.1718 83.6643 5.94604 68.6862 5.94604 50.275V20.9773C5.94604 12.8466 12.2281 6.23124 19.9493 6.23124C27.6705 6.23124 33.9526 12.8466 33.9526 20.9773V50.275C33.9526 52.4249 35.6142 54.1771 37.6593 54.1771C39.7044 54.1771 41.3661 52.4249 41.3661 50.275V20.9773C41.3661 12.8466 47.6482 6.23124 55.3694 6.23124C63.0906 6.23124 69.3726 12.8466 69.3726 20.9773V50.275C69.3726 68.6862 55.1469 83.6643 37.6593 83.6643Z" fill="#C2C3C4"/>
<path opacity="0.52" d="M37.3326 83.3137C19.8546 83.3137 5.63354 68.3405 5.63354 49.934V20.6313C5.63354 12.5053 11.9109 5.89954 19.6274 5.89954C27.3438 5.89954 33.6212 12.5101 33.6212 20.6313V49.934C33.6212 52.0934 35.2875 53.8454 37.3374 53.8454C39.3872 53.8454 41.0536 52.0886 41.0536 49.934V20.6313C41.0536 12.5053 47.3309 5.89954 55.0474 5.89954C62.7639 5.89954 69.0412 12.5101 69.0412 20.6313V49.934C69.0412 68.3405 54.8202 83.3137 37.3421 83.3137H37.3326Z" fill="#BDBEC0"/>
<path opacity="0.55" d="M37.0109 82.9683C19.5375 82.9683 5.32123 67.9997 5.32123 49.6028V20.3002C5.32123 12.1838 11.5938 5.57797 19.3008 5.57797C27.0078 5.57797 33.2804 12.1838 33.2804 20.3002V49.6028C33.2804 51.7668 34.9516 53.5284 37.0061 53.5284C39.0607 53.5284 40.7318 51.7668 40.7318 49.6028V20.3002C40.7318 12.1838 47.0044 5.57797 54.7114 5.57797C62.4184 5.57797 68.691 12.1838 68.691 20.3002V49.6028C68.691 67.9997 54.4747 82.9683 37.0014 82.9683H37.0109Z" fill="#B9BABC"/>
<path opacity="0.58" d="M36.6841 82.6224C19.2155 82.6224 5.00397 67.6586 5.00397 49.2664V19.9638C5.00397 11.8521 11.2718 5.25568 18.9741 5.25568C26.6764 5.25568 32.9442 11.8568 32.9442 19.9638V49.2664C32.9442 51.4352 34.6201 53.2015 36.6841 53.2015C38.7482 53.2015 40.4193 51.4352 40.4193 49.2664V19.9638C40.4193 11.8521 46.6871 5.25568 54.3894 5.25568C62.0917 5.25568 68.3596 11.8568 68.3596 19.9638V49.2664C68.3596 67.6586 54.148 82.6224 36.6794 82.6224H36.6841Z" fill="#B5B6B8"/>
<path opacity="0.61" d="M36.3574 82.272C18.8936 82.272 4.69147 67.3127 4.69147 48.9252V19.6226C4.69147 11.5157 10.9546 4.92398 18.6521 4.92398C26.3497 4.92398 32.6128 11.5157 32.6128 19.6226V48.9252C32.6128 51.1035 34.2934 52.8698 36.3622 52.8698C38.4309 52.8698 40.1115 51.0987 40.1115 48.9252V19.6226C40.1115 11.5157 46.3746 4.92398 54.0722 4.92398C61.7697 4.92398 68.0329 11.5157 68.0329 19.6226V48.9252C68.0329 67.3127 53.826 82.272 36.3669 82.272H36.3574Z" fill="#B1B2B4"/>
<path opacity="0.65" d="M36.0355 81.9263C18.5811 81.9263 4.37897 66.9719 4.37897 48.5939V19.2959C4.37897 11.1984 10.6374 4.60676 18.3302 4.60676C26.023 4.60676 32.2814 11.1937 32.2814 19.2959V48.5939C32.2814 50.7769 33.9667 52.5526 36.0402 52.5526C38.1137 52.5526 39.799 50.7769 39.799 48.5939V19.2959C39.799 11.1984 46.0574 4.60676 53.7502 4.60676C61.443 4.60676 67.7014 11.1937 67.7014 19.2959V48.5939C67.7014 66.9719 53.4993 81.9263 36.0449 81.9263H36.0355Z" fill="#ADAEB0"/>
<path opacity="0.68" d="M35.709 81.5762C18.2593 81.5762 4.06195 66.6265 4.06195 48.2532V18.9506C4.06195 10.8579 10.3156 4.27578 17.999 4.27578C25.6823 4.27578 31.9359 10.8579 31.9359 18.9506V48.2532C31.9359 50.4409 33.626 52.2216 35.7042 52.2216C37.7825 52.2216 39.4725 50.4409 39.4725 48.2532V18.9506C39.4725 10.8579 45.7262 4.27578 53.4095 4.27578C61.0929 4.27578 67.3465 10.8579 67.3465 18.9506V48.2532C67.3465 66.6265 53.1492 81.5762 35.6995 81.5762H35.709Z" fill="#A9AAAC"/>
<path opacity="0.71" d="M35.3869 81.2303C17.942 81.2303 3.74939 66.2855 3.74939 47.9216V18.6189C3.74939 10.5308 9.99832 3.95349 17.6769 3.95349C25.3555 3.95349 31.6045 10.5308 31.6045 18.6189V47.9216C31.6045 50.1189 33.2992 51.9039 35.3869 51.9039C37.4747 51.9039 39.1694 50.1189 39.1694 47.9216V18.6189C39.1694 10.5308 45.4184 3.95349 53.097 3.95349C60.7756 3.95349 67.0245 10.5308 67.0245 18.6189V47.9216C67.0245 66.2902 52.8319 81.2303 35.3869 81.2303Z" fill="#A5A6A8"/>
<path opacity="0.74" d="M35.0602 80.8846C17.6248 80.8846 3.43689 65.9493 3.43689 47.5854V18.2875C3.43689 10.209 9.68108 3.63627 17.355 3.63627C25.0288 3.63627 31.273 10.209 31.273 18.2875V47.5854C31.273 49.7874 32.9725 51.5772 35.065 51.5772C37.1574 51.5772 38.8569 49.7874 38.8569 47.5854V18.2875C38.8569 10.209 45.1011 3.63627 52.775 3.63627C60.4489 3.63627 66.6931 10.209 66.6931 18.2875V47.5854C66.6931 65.9446 52.5052 80.8846 35.0697 80.8846H35.0602Z" fill="#A1A2A4"/>
<path opacity="0.77" d="M34.7385 80.534C17.3077 80.534 3.12457 65.6035 3.12457 47.2491V17.9464C3.12457 9.87252 9.36403 3.30457 17.0284 3.30457C24.6928 3.30457 30.9323 9.87252 30.9323 17.9464V47.2491C30.9323 49.4558 32.6366 51.2552 34.7337 51.2552C36.8309 51.2552 38.5352 49.4605 38.5352 47.2491V17.9464C38.5352 9.87252 44.7746 3.30457 52.439 3.30457C60.1034 3.30457 66.3429 9.87252 66.3429 17.9464V47.2491C66.3429 65.6035 52.1597 80.534 34.729 80.534H34.7385Z" fill="#9D9EA1"/>
<path opacity="0.81" d="M34.4118 80.1884C16.9858 80.1884 2.80737 65.2624 2.80737 46.9128V17.6102C2.80737 9.54114 9.0421 2.97794 16.7018 2.97794C24.3614 2.97794 30.5962 9.54114 30.5962 17.6102V46.9128C30.5962 49.1289 32.3051 50.9286 34.4118 50.9286C36.5184 50.9286 38.2274 49.1289 38.2274 46.9128V17.6102C38.2274 9.54114 44.4622 2.97794 52.1218 2.97794C59.7815 2.97794 66.0162 9.54114 66.0162 17.6102V46.9128C66.0162 65.2624 51.8378 80.1884 34.4118 80.1884Z" fill="#999A9D"/>
<path opacity="0.84" d="M34.0898 79.8382C16.6685 79.8382 2.49957 64.9169 2.49957 46.572V17.2695C2.49957 9.20987 8.72956 2.6513 16.3845 2.6513C24.0394 2.6513 30.2694 9.20987 30.2694 17.2695V46.572C30.2694 48.7929 31.9831 50.5971 34.0945 50.5971C36.2059 50.5971 37.9196 48.7929 37.9196 46.572V17.2695C37.9196 9.20987 44.1496 2.6513 51.8046 2.6513C59.4595 2.6513 65.6895 9.20987 65.6895 17.2695V46.572C65.6895 64.9122 51.5158 79.8382 34.0993 79.8382H34.0898Z" fill="#949699"/>
<path opacity="0.87" d="M33.7632 79.4925C16.3515 79.4925 2.1825 64.5759 2.1825 46.2405V16.9428C2.1825 8.88791 8.40775 2.33408 16.0532 2.33408C23.6987 2.33408 29.9239 8.88791 29.9239 16.9428V46.2405C29.9239 48.4661 31.6424 50.2799 33.7585 50.2799C35.8746 50.2799 37.5931 48.4661 37.5931 46.2405V16.9428C37.5931 8.88791 43.8183 2.33408 51.4638 2.33408C59.1093 2.33408 65.3345 8.88791 65.3345 16.9428V46.2405C65.3345 64.5759 51.1656 79.4925 33.7538 79.4925H33.7632Z" fill="#909295"/>
<path opacity="0.9" d="M33.4413 79.1469C16.0342 79.1469 1.87 64.2351 1.87 45.9044V16.6018C1.87 8.55167 8.09052 2.00745 15.7313 2.00745C23.372 2.00745 29.5925 8.55641 29.5925 16.6018V45.9044C29.5925 48.1395 31.3204 49.9533 33.4365 49.9533C35.5527 49.9533 37.2806 48.1347 37.2806 45.9044V16.6018C37.2806 8.55167 43.5011 2.00745 51.1418 2.00745C58.7826 2.00745 65.0031 8.55641 65.0031 16.6018V45.9044C65.0031 64.2351 50.8389 79.1469 33.4318 79.1469H33.4413Z" fill="#8C8E91"/>
<path opacity="0.94" d="M33.1146 78.7965C15.7123 78.7965 1.5575 63.8895 1.5575 45.5683V16.2657C1.5575 8.22503 7.77328 1.68081 15.4093 1.68081C23.0453 1.68081 29.2611 8.22503 29.2611 16.2657V45.5683C29.2611 47.8081 30.9937 49.6313 33.1193 49.6313C35.2449 49.6313 36.9775 47.8081 36.9775 45.5683V16.2657C36.9775 8.22503 43.1933 1.68081 50.8293 1.68081C58.4653 1.68081 64.6811 8.22503 64.6811 16.2657V45.5683C64.6811 63.8895 50.5216 78.7965 33.124 78.7965H33.1146Z" fill="#888A8D"/>
<path opacity="0.97" d="M32.7881 78.4506C15.3905 78.4506 1.24048 63.5484 1.24048 45.2319V15.9293C1.24048 7.89337 7.45153 1.35852 15.0828 1.35852C22.7141 1.35852 28.9251 7.89811 28.9251 15.9293V45.2319C28.9251 47.4764 30.6625 49.3043 32.7928 49.3043C34.9231 49.3043 36.6605 47.4764 36.6605 45.2319V15.9293C36.6605 7.89337 42.8716 1.35852 50.5028 1.35852C58.1341 1.35852 64.3452 7.89811 64.3452 15.9293V45.2319C64.3452 63.5484 50.1904 78.4506 32.7976 78.4506H32.7881Z" fill="#848689"/>
<path d="M32.4661 78.1004C15.078 78.1004 0.927917 63.2028 0.927917 44.8958V15.5933C0.927917 7.56204 7.1295 1.03194 14.756 1.03194C22.3826 1.03194 28.5842 7.56204 28.5842 15.5933V44.8958C28.5842 47.1498 30.3263 48.9778 32.4613 48.9778C34.5964 48.9778 36.3385 47.1451 36.3385 44.8958V15.5933C36.3385 7.56204 42.5401 1.03194 50.1666 1.03194C57.7932 1.03194 63.9947 7.56204 63.9947 15.5933V44.8958C63.9947 63.2075 49.8447 78.1004 32.4566 78.1004H32.4661Z" fill="#808285"/>
</g>
<path d="M32.4662 78.4604C14.8887 78.4604 0.591919 63.4067 0.591919 44.896V15.5935C0.591919 7.36811 6.94499 0.677002 14.7562 0.677002C22.5673 0.677002 28.9204 7.36811 28.9204 15.5935V44.896C28.9204 46.9512 30.511 48.6274 32.4614 48.6274C34.4119 48.6274 36.0025 46.9559 36.0025 44.896V15.5935C36.0025 7.36811 42.3556 0.677002 50.1715 0.677002C57.9874 0.677002 64.3357 7.36811 64.3357 15.5935V44.896C64.3357 63.4019 50.0389 78.4604 32.4614 78.4604H32.4662Z" fill="url(#paint0_linear_53_37281)"/>
<path d="M32.4662 77.0402C15.632 77.0402 1.94116 62.621 1.94116 44.8964V15.5939C1.94116 8.15459 7.69302 2.09802 14.7609 2.09802C21.8288 2.09802 27.576 8.15459 27.576 15.5939V44.8964C27.576 47.7377 29.7678 50.0485 32.4662 50.0485C35.1646 50.0485 37.3565 47.7377 37.3565 44.8964V15.5939C37.3565 8.15459 43.1083 2.09802 50.1763 2.09802C57.2442 2.09802 62.9913 8.15459 62.9913 15.5939V44.8964C62.9913 62.621 49.2957 77.0402 32.4662 77.0402Z" fill="url(#paint1_linear_53_37281)"/>
<path d="M32.4803 74.9089C31.008 74.9089 29.5452 74.7954 28.1155 74.5681C27.6326 74.4923 27.3012 74.0375 27.377 73.5498C27.4527 73.0668 27.9072 72.7308 28.3948 72.8113C29.7345 73.0244 31.1027 73.1331 32.4661 73.1331H32.5844C33.0768 73.1331 33.4744 73.531 33.4744 74.0187C33.4744 74.5065 33.0768 74.9089 32.5844 74.9089H32.485H32.4803ZM36.793 74.5586C36.3669 74.5586 35.9882 74.2507 35.9172 73.815C35.8367 73.332 36.1681 72.8775 36.651 72.797C37.9907 72.5791 39.3257 72.2476 40.6134 71.8214C41.0773 71.6652 41.5791 71.9208 41.7353 72.3849C41.8915 72.849 41.6359 73.351 41.172 73.5073C39.7896 73.9666 38.3647 74.3171 36.935 74.5491C36.8877 74.5586 36.8403 74.5586 36.793 74.5586ZM24.1484 73.5831C24.0584 73.5831 23.9638 73.569 23.8738 73.5406C22.4962 73.0907 21.1423 72.5223 19.8451 71.8594C19.4096 71.6368 19.2345 71.1017 19.4617 70.666C19.6889 70.2304 20.2191 70.0599 20.6547 70.2824C21.8666 70.9028 23.1353 71.4333 24.4277 71.8547C24.8916 72.0063 25.1473 72.5082 24.9958 72.9722C24.8727 73.3463 24.5271 73.5831 24.1531 73.5831H24.1484ZM44.784 71.9068C44.4621 71.9068 44.1544 71.7314 43.9935 71.4284C43.7662 70.9927 43.9366 70.4577 44.3722 70.2304C45.5746 69.6101 46.7439 68.8855 47.847 68.0805C48.2399 67.7917 48.7985 67.877 49.0873 68.2747C49.3761 68.6725 49.2908 69.2266 48.8932 69.5155C47.7144 70.3726 46.4694 71.1443 45.1864 71.812C45.0539 71.8783 44.9166 71.9114 44.7793 71.9114L44.784 71.9068ZM16.6449 69.7474C16.465 69.7474 16.2804 69.6906 16.1242 69.577C14.9549 68.7293 13.8329 67.7823 12.7962 66.7642C12.4458 66.4185 12.4411 65.8595 12.782 65.5091C13.1275 65.1587 13.6862 65.1541 14.0365 65.495C15.0117 66.4516 16.0626 67.3419 17.1609 68.1374C17.5586 68.4263 17.6485 68.9804 17.3598 69.3781C17.1846 69.6196 16.9148 69.7474 16.6402 69.7474H16.6449ZM51.5916 66.9441C51.3643 66.9441 51.1324 66.8541 50.962 66.6789C50.6164 66.3284 50.6211 65.7697 50.9714 65.424C51.9372 64.4675 52.8461 63.4304 53.6698 62.3366C53.9633 61.9435 54.5219 61.8677 54.9149 62.1613C55.3078 62.4549 55.3835 63.0136 55.09 63.4066C54.219 64.5668 53.2532 65.6702 52.2259 66.6883C52.0508 66.8588 51.8283 66.9441 51.601 66.9441H51.5916ZM10.6232 63.8517C10.3534 63.8517 10.0883 63.7335 9.91787 63.5014C9.04207 62.3507 8.24675 61.1242 7.54612 59.8551C7.30941 59.4242 7.46564 58.8844 7.8917 58.6477C8.3225 58.4109 8.86218 58.5672 9.09888 58.9933C9.75691 60.1867 10.5096 61.3421 11.3333 62.4265C11.6316 62.8148 11.5558 63.3735 11.1629 63.6718C11.002 63.795 10.8126 63.8517 10.628 63.8517H10.6232ZM56.6617 60.2056C56.5197 60.2056 56.373 60.1725 56.2357 60.0967C55.8049 59.86 55.6486 59.32 55.8853 58.8891C56.5386 57.691 57.1162 56.4362 57.5943 55.1576C57.7648 54.6983 58.276 54.4662 58.7352 54.6367C59.1944 54.8072 59.4264 55.3187 59.256 55.778C58.7494 57.137 58.1388 58.4676 57.4429 59.7367C57.2819 60.0303 56.9789 60.1961 56.6617 60.1961V60.2056ZM6.5425 56.4742C6.18271 56.4742 5.8466 56.2564 5.71405 55.9012C5.20277 54.5469 4.78144 53.1451 4.46426 51.7339C4.35538 51.2557 4.65835 50.7823 5.13649 50.6733C5.61463 50.5644 6.08803 50.8675 6.19692 51.3457C6.49516 52.6764 6.89282 53.9976 7.37569 55.2714C7.55085 55.7307 7.31888 56.2421 6.85968 56.4173C6.75553 56.4552 6.65138 56.4742 6.54724 56.4742H6.5425ZM32.3998 53.9548H32.3903C30.8044 53.9406 29.2611 53.453 27.9261 52.5391C27.5237 52.2644 27.4196 51.7102 27.6942 51.303C27.9735 50.9004 28.5226 50.7917 28.9298 51.071C29.9712 51.7861 31.1737 52.1696 32.4045 52.179C32.8969 52.179 33.2898 52.5864 33.2851 53.0741C33.2851 53.5618 32.8827 53.9548 32.3951 53.9548H32.3998ZM36.3906 52.7615C36.1018 52.7615 35.8225 52.6195 35.6473 52.3638C35.3775 51.9566 35.4911 51.4025 35.8983 51.1325C36.9255 50.4506 37.7682 49.4847 38.3363 48.3292C38.554 47.8888 39.0843 47.709 39.5245 47.9221C39.9648 48.1399 40.1447 48.6701 39.9317 49.1105C39.2263 50.5501 38.1706 51.7576 36.8782 52.6147C36.7267 52.7141 36.5563 52.7615 36.3906 52.7615ZM59.6205 52.3069C59.559 52.3069 59.4927 52.3022 59.4311 52.288C58.953 52.1838 58.65 51.7102 58.7542 51.232C59.0477 49.9061 59.2465 48.5376 59.3507 47.1738C59.3885 46.6861 59.8193 46.3073 60.3022 46.3546C60.7898 46.3925 61.1591 46.8186 61.1212 47.3063C61.0123 48.7553 60.7993 50.1998 60.4868 51.6109C60.3969 52.0277 60.0276 52.3069 59.6205 52.3069ZM25.7343 49.4941C25.4029 49.4941 25.081 49.3048 24.9295 48.9875C24.3235 47.709 24.0206 46.3356 24.0206 44.8961V44.4984C24.0206 44.0059 24.4182 43.6079 24.9106 43.6079C25.4029 43.6079 25.8006 44.0059 25.8006 44.4984V44.8961C25.8006 46.0704 26.0515 47.1879 26.5391 48.225C26.7474 48.6701 26.558 49.1957 26.1177 49.4088C25.9947 49.4656 25.8668 49.4941 25.739 49.4941H25.7343ZM4.69623 48.2439C4.23703 48.2439 3.84884 47.8936 3.81096 47.4296C3.74469 46.5914 3.71155 45.739 3.71155 44.8961V43.1298C3.71155 42.6373 4.10921 42.2396 4.60155 42.2396C5.09389 42.2396 5.49155 42.6373 5.49155 43.1298V44.8961C5.49155 45.6916 5.52468 46.4965 5.58623 47.2874C5.6241 47.7751 5.25958 48.206 4.77197 48.2439C4.7483 48.2439 4.72463 48.2439 4.70096 48.2439H4.69623ZM40.0169 45.507C39.5245 45.507 39.1269 45.1092 39.1269 44.6168V40.388C39.1269 39.8955 39.5245 39.4978 40.0169 39.4978C40.5092 39.4978 40.9069 39.8955 40.9069 40.388V44.6168C40.9069 45.1092 40.5092 45.507 40.0169 45.507ZM60.3259 43.897C59.8335 43.897 59.4359 43.499 59.4359 43.0065V38.7731C59.4359 38.2807 59.8335 37.8829 60.3259 37.8829C60.8182 37.8829 61.2159 38.2807 61.2159 38.7731V43.0065C61.2159 43.499 60.8182 43.897 60.3259 43.897ZM24.9106 41.1552C24.4182 41.1552 24.0206 40.7574 24.0206 40.265V36.0313C24.0206 35.5388 24.4182 35.1411 24.9106 35.1411C25.4029 35.1411 25.8006 35.5388 25.8006 36.0313V40.265C25.8006 40.7574 25.4029 41.1552 24.9106 41.1552ZM4.60155 39.7866C4.10921 39.7866 3.71155 39.3889 3.71155 38.8964V34.663C3.71155 34.1705 4.10921 33.7725 4.60155 33.7725C5.09389 33.7725 5.49155 34.1705 5.49155 34.663V38.8964C5.49155 39.3889 5.09389 39.7866 4.60155 39.7866ZM40.0169 37.0448C39.5245 37.0448 39.1269 36.647 39.1269 36.1546V31.9212C39.1269 31.4287 39.5245 31.031 40.0169 31.031C40.5092 31.031 40.9069 31.4287 40.9069 31.9212V36.1546C40.9069 36.647 40.5092 37.0448 40.0169 37.0448ZM60.3259 35.4299C59.8335 35.4299 59.4359 35.0322 59.4359 34.5397V30.3063C59.4359 29.8138 59.8335 29.4161 60.3259 29.4161C60.8182 29.4161 61.2159 29.8138 61.2159 30.3063V34.5397C61.2159 35.0322 60.8182 35.4299 60.3259 35.4299ZM24.9106 32.6883C24.4182 32.6883 24.0206 32.2904 24.0206 31.7979V27.5645C24.0206 27.072 24.4182 26.6743 24.9106 26.6743C25.4029 26.6743 25.8006 27.072 25.8006 27.5645V31.7979C25.8006 32.2904 25.4029 32.6883 24.9106 32.6883ZM4.60155 31.3197C4.10921 31.3197 3.71155 30.922 3.71155 30.4296V26.1959C3.71155 25.7034 4.10921 25.3057 4.60155 25.3057C5.09389 25.3057 5.49155 25.7034 5.49155 26.1959V30.4296C5.49155 30.922 5.09389 31.3197 4.60155 31.3197ZM40.0169 28.5779C39.5245 28.5779 39.1269 28.1802 39.1269 27.6877V23.4543C39.1269 22.9619 39.5245 22.5639 40.0169 22.5639C40.5092 22.5639 40.9069 22.9619 40.9069 23.4543V27.6877C40.9069 28.1802 40.5092 28.5779 40.0169 28.5779ZM60.3259 26.9631C59.8335 26.9631 59.4359 26.5654 59.4359 26.0729V21.8441C59.4359 21.3516 59.8335 20.9539 60.3259 20.9539C60.8182 20.9539 61.2159 21.3516 61.2159 21.8441V26.0729C61.2159 26.5654 60.8182 26.9631 60.3259 26.9631ZM24.9106 24.2213C24.4182 24.2213 24.0206 23.8236 24.0206 23.3311V19.0977C24.0206 18.6052 24.4182 18.2075 24.9106 18.2075C25.4029 18.2075 25.8006 18.6052 25.8006 19.0977V23.3311C25.8006 23.8236 25.4029 24.2213 24.9106 24.2213ZM4.60155 22.8529C4.10921 22.8529 3.71155 22.455 3.71155 21.9625V17.7291C3.71155 17.2366 4.10921 16.8389 4.60155 16.8389C5.09389 16.8389 5.49155 17.2366 5.49155 17.7291V21.9625C5.49155 22.455 5.09389 22.8529 4.60155 22.8529ZM40.0169 20.1111C39.5245 20.1111 39.1269 19.7132 39.1269 19.2207V15.5841C39.1269 15.371 39.1316 15.1531 39.1458 14.9447C39.1742 14.457 39.5813 14.0829 40.0784 14.1066C40.566 14.135 40.9447 14.5518 40.9163 15.0395C40.9069 15.2195 40.9021 15.3994 40.9021 15.5841V19.2207C40.9021 19.7132 40.5045 20.1111 40.0121 20.1111H40.0169ZM60.3259 18.4963C59.8335 18.4963 59.4359 18.0986 59.4359 17.6061V15.5792C59.4359 14.902 59.3649 14.2249 59.2323 13.5667C59.1329 13.0837 59.4406 12.615 59.9235 12.5155C60.4016 12.4114 60.875 12.7238 60.9744 13.202C61.1354 13.9786 61.2159 14.7743 61.2159 15.5746V17.6012C61.2159 18.0937 60.8182 18.4917 60.3259 18.4917V18.4963ZM24.8869 15.7545C24.423 15.7545 24.0348 15.3946 24.0016 14.9258C23.9164 13.6188 23.5803 12.3687 22.998 11.2038C22.7802 10.7634 22.9601 10.2331 23.3957 10.0105C23.8359 9.79267 24.3661 9.97254 24.5839 10.4082C25.2703 11.7815 25.668 13.259 25.7674 14.8028C25.8006 15.2905 25.4313 15.7166 24.939 15.745C24.92 15.745 24.9011 15.745 24.8774 15.745L24.8869 15.7545ZM4.80038 14.4002C4.74357 14.4002 4.68676 14.3955 4.62995 14.3813C4.14708 14.2865 3.83463 13.8224 3.92931 13.3394C4.22282 11.824 4.80984 10.4083 5.6667 9.12978C5.94128 8.72253 6.49043 8.6135 6.89755 8.88815C7.30468 9.16281 7.41356 9.71216 7.13899 10.1194C6.41468 11.1991 5.91761 12.3971 5.6667 13.6804C5.58623 14.1066 5.21224 14.4002 4.79564 14.4002H4.80038ZM41.0773 11.8052C40.9495 11.8052 40.8169 11.7768 40.6891 11.7153C40.2488 11.5022 40.0642 10.9718 40.2772 10.5314C40.9495 9.13923 41.8821 7.91743 43.0419 6.90405C43.4112 6.58205 43.9745 6.62001 44.2964 6.98937C44.6183 7.35873 44.5805 7.91746 44.2112 8.2442C43.2313 9.09657 42.4502 10.1289 41.8773 11.3032C41.7259 11.6205 41.4087 11.8052 41.0773 11.8052ZM58.4512 10.4131C58.1672 10.4131 57.8926 10.2804 57.7174 10.0295C56.9742 8.94979 56.0416 8.05474 54.948 7.36811C54.5314 7.10766 54.4083 6.55832 54.6687 6.14634C54.9291 5.72963 55.4782 5.60658 55.8901 5.86703C57.1919 6.68152 58.2997 7.74221 59.1802 9.0255C59.4595 9.42801 59.3554 9.98198 58.953 10.2614C58.7968 10.3655 58.6216 10.4177 58.4512 10.4177V10.4131ZM21.2038 8.38617C21.0002 8.38617 20.7967 8.31528 20.631 8.17322C19.6321 7.32559 18.5007 6.70994 17.2651 6.35005C16.7964 6.21272 16.5218 5.72009 16.6591 5.25129C16.7964 4.78249 17.2888 4.50794 17.7622 4.64526C19.2392 5.07618 20.5884 5.80536 21.7814 6.81873C22.1553 7.136 22.198 7.69484 21.8808 8.06894C21.7056 8.2773 21.4547 8.38155 21.2038 8.38155V8.38617ZM9.39712 7.57182C9.10361 7.57182 8.81957 7.42959 8.64915 7.16441C8.38404 6.75243 8.50239 6.2032 8.91425 5.93801C10.2256 5.09511 11.6647 4.55522 13.1938 4.33265C13.6814 4.26162 14.1312 4.59787 14.2022 5.08088C14.2732 5.56863 13.9371 6.01843 13.4542 6.08946C12.176 6.27414 10.9736 6.7289 9.87526 7.43447C9.72851 7.52918 9.55808 7.57644 9.39712 7.57644V7.57182ZM47.2883 6.42103C46.9096 6.42103 46.5546 6.17476 46.4409 5.79119C46.2989 5.32239 46.5593 4.82524 47.0327 4.68318C48.0458 4.37538 49.1015 4.21427 50.1619 4.21427H50.1714C50.6448 4.21427 51.1229 4.24751 51.5916 4.30907C52.0792 4.37536 52.42 4.82043 52.3538 5.30817C52.2875 5.79592 51.8425 6.12733 51.3549 6.0705C50.9667 6.01841 50.5643 5.99004 50.1666 5.99004H50.1619C49.2719 5.99004 48.3961 6.12278 47.5487 6.37849C47.4635 6.4069 47.3736 6.41641 47.2883 6.41641V6.42103Z" fill="#483F99"/>
<path d="M32.4662 69.9367C19.3529 69.9367 8.68713 58.7044 8.68713 44.896V15.5935C8.68713 12.0609 11.4045 9.20069 14.7609 9.20069C18.1173 9.20069 20.8347 12.0609 20.8347 15.5935V44.896C20.8347 51.6534 26.0563 57.1511 32.4709 57.1511C38.8855 57.1511 44.1072 51.6534 44.1072 44.896V15.5935C44.1072 12.0609 46.8245 9.20069 50.181 9.20069C53.5374 9.20069 56.25 12.0609 56.25 15.5935V44.896C56.25 58.7044 45.5842 69.9367 32.4709 69.9367H32.4662Z" fill="#483F99"/>
<defs>
<linearGradient id="paint0_linear_53_37281" x1="0.591919" y1="39.5687" x2="64.3404" y2="39.5687" gradientUnits="userSpaceOnUse">
<stop stop-color="#F1F2F2"/>
<stop offset="1" stop-color="#D1D3D4"/>
</linearGradient>
<linearGradient id="paint1_linear_53_37281" x1="1.94116" y1="39.5691" x2="62.9913" y2="39.5691" gradientUnits="userSpaceOnUse">
<stop stop-color="#D1D3D4"/>
<stop offset="1" stop-color="#F1F2F2"/>
</linearGradient>
</defs>
</svg>
