<svg width="79" height="89" viewBox="0 0 79 89" fill="none" xmlns="http://www.w3.org/2000/svg">
<g style="mix-blend-mode:multiply">
<path opacity="0.03" d="M44.1993 88.2159C38.6084 88.2159 33.5335 84.7402 31.2612 79.3655L11.0232 31.4197C9.48937 27.7829 9.38996 23.7341 10.7486 20.0169C12.1073 16.2996 14.7536 13.3637 18.2095 11.7489C20.0321 10.8965 21.9636 10.4608 23.9566 10.4608C29.5427 10.4608 34.6224 13.9366 36.8947 19.316L44.1993 36.6143L51.5039 19.316C53.7763 13.9366 58.8512 10.4656 64.4421 10.4656C66.4351 10.4656 68.3666 10.8964 70.1892 11.7535C73.6403 13.3683 76.2913 16.3044 77.65 20.0217C79.0087 23.739 78.9093 27.7876 77.3754 31.4243L57.1374 79.3702C54.8698 84.7496 49.7902 88.2208 44.1993 88.2208V88.2159Z" fill="#FBFBFB"/>
<path opacity="0.06" d="M43.8775 87.8704C38.2913 87.8704 33.2212 84.3992 30.9536 79.0246L10.7156 31.0787C9.18175 27.442 9.08234 23.3979 10.441 19.6854C11.7949 15.9728 14.446 13.037 17.8971 11.4223C19.7197 10.5699 21.6512 10.1341 23.6395 10.1341C29.2257 10.1341 34.2958 13.6052 36.5681 18.9799L43.8822 36.302L51.1963 18.9799C53.4639 13.6052 58.5388 10.1341 64.125 10.1341C66.1133 10.1341 68.0447 10.5651 69.8673 11.4223C73.3185 13.037 75.9648 15.9681 77.3235 19.6854C78.6821 23.3979 78.5827 27.4467 77.0489 31.0787L56.8109 79.0246C54.5433 84.3992 49.4684 87.8704 43.887 87.8704H43.8775Z" fill="#F7F7F7"/>
<path opacity="0.1" d="M43.5508 87.5247C37.9693 87.5247 32.8992 84.0537 30.6363 78.6838L10.3983 30.738C8.86449 27.106 8.76508 23.0619 10.1237 19.3541C11.4777 15.6463 14.124 12.7104 17.5751 11.0956C19.393 10.2432 21.3245 9.80748 23.3128 9.80748C28.8942 9.80748 33.9643 13.2785 36.232 18.6484L43.5555 35.9943L50.8791 18.6484C53.1467 13.2785 58.2168 9.80748 63.7982 9.80748C65.7865 9.80748 67.718 10.2385 69.5359 11.0956C72.9823 12.7104 75.6286 15.6414 76.9825 19.3492C78.3365 23.0571 78.2418 27.1011 76.708 30.7331L56.47 78.679C54.2024 84.0489 49.1322 87.5153 43.5555 87.5153L43.5508 87.5247Z" fill="#F3F3F3"/>
<path opacity="0.13" d="M43.2289 87.1745C37.6522 87.1745 32.5868 83.7083 30.324 78.3431L10.086 30.3972C8.55212 26.7699 8.45744 22.726 9.81138 19.0182C11.1653 15.3104 13.8116 12.3792 17.258 10.7692C19.0759 9.91682 21.0074 9.48592 22.9909 9.48592C28.5676 9.48592 33.633 12.9522 35.9006 18.3174L43.2337 35.6866L50.5667 18.3174C52.8343 12.9522 57.8997 9.48592 63.4764 9.48592C65.4647 9.48592 67.3915 9.91682 69.2141 10.7692C72.6604 12.3792 75.302 15.3104 76.656 19.0182C78.0099 22.726 77.9105 26.7652 76.3814 30.3972L56.1434 78.3431C53.8805 83.7083 48.8151 87.1745 43.2384 87.1745H43.2289Z" fill="#EFEFEF"/>
<path opacity="0.16" d="M42.9022 86.8284C37.3302 86.8284 32.2696 83.3623 30.0067 78.0018L9.76868 30.056C8.23959 26.4287 8.14018 22.394 9.49411 18.6862C10.848 14.9832 13.4896 12.0521 16.936 10.4421C18.7539 9.5897 20.6806 9.15857 22.6642 9.15857C28.2362 9.15857 33.2968 12.6249 35.5597 17.9854L42.9022 35.3785L50.2447 17.9854C52.5076 12.6249 57.573 9.15857 63.1449 9.15857C65.1285 9.15857 67.06 9.5897 68.8778 10.4421C72.3195 12.0521 74.9611 14.9784 76.315 18.6862C77.669 22.3893 77.5695 26.4287 76.0404 30.056L55.8024 78.0018C53.5396 83.3623 48.4789 86.8284 42.9069 86.8284H42.9022Z" fill="#EBEBEB"/>
<path opacity="0.19" d="M42.5802 86.4782C37.013 86.4782 31.9523 83.0166 29.6942 77.6609L9.45619 29.715C7.92709 26.0925 7.82768 22.058 9.18161 18.355C10.5355 14.6519 13.1724 11.73 16.614 10.1152C18.4272 9.26283 20.3539 8.83192 22.3375 8.83192C27.9047 8.83192 32.9607 12.2935 35.2235 17.6493L42.5755 35.0662L49.9275 17.6493C52.1903 12.2935 57.2463 8.83192 62.8182 8.83192C64.8018 8.83192 66.7285 9.26283 68.5464 10.1152C71.9881 11.7252 74.6249 14.6518 75.9789 18.3501C77.3328 22.0532 77.2334 26.0878 75.7043 29.7104L55.4663 77.6562C53.2081 83.012 48.1475 86.4734 42.5802 86.4734V86.4782Z" fill="#E6E7E7"/>
<path opacity="0.23" d="M42.2536 86.1328C36.6911 86.1328 31.6351 82.6761 29.377 77.3203L9.13899 29.3745C7.60989 25.7519 7.51048 21.722 8.86441 18.0237C10.2136 14.3253 12.8552 11.4037 16.2921 9.79363C18.1052 8.94126 20.032 8.51036 22.0108 8.51036C27.5733 8.51036 32.6293 11.9719 34.8874 17.3229L42.2488 34.7633L49.6103 17.3229C51.8684 11.9719 56.9243 8.51036 62.4868 8.51036C64.4704 8.51036 66.3924 8.94126 68.2103 9.79363C71.6472 11.4037 74.284 14.3253 75.638 18.0237C76.9872 21.722 76.8925 25.7519 75.3634 29.3745L55.1254 77.3203C52.8673 82.6713 47.8113 86.1328 42.2488 86.1328H42.2536Z" fill="#E2E3E3"/>
<path opacity="0.26" d="M41.927 85.787C36.3692 85.787 31.318 82.33 29.0599 76.9837L8.82186 29.0379C7.29276 25.4201 7.19808 21.3904 8.54728 17.6968C9.89648 14.0032 12.5333 11.0814 15.9702 9.47135C17.7834 8.61898 19.7054 8.18808 21.6842 8.18808C27.242 8.18808 32.2932 11.645 34.5513 16.996L41.9222 34.46L49.2931 16.996C51.5513 11.645 56.6025 8.19294 62.1602 8.19294C64.1391 8.19294 66.0658 8.62384 67.8789 9.47621C71.3159 11.0815 73.948 14.0031 75.2972 17.7014C76.6464 21.395 76.5517 25.4249 75.0226 29.0428L54.7846 76.9886C52.5265 82.3348 47.4753 85.7916 41.9175 85.7916L41.927 85.787Z" fill="#DEDFE0"/>
<path opacity="0.29" d="M41.6051 85.4365C36.0521 85.4365 31.0056 81.9844 28.7475 76.6381L8.50947 28.6923C6.98511 25.0792 6.8857 21.0543 8.2349 17.3607C9.5841 13.667 12.2162 10.7501 15.6531 9.14008C17.4663 8.29245 19.3883 7.86143 21.3671 7.86143C26.9201 7.86143 31.9666 11.3136 34.2248 16.6598L41.6051 34.1475L48.9855 16.6598C51.2436 11.3136 56.2901 7.86143 61.8431 7.86143C63.8219 7.86143 65.744 8.29245 67.5571 9.14008C70.9893 10.7454 73.6214 13.6622 74.9706 17.3558C76.3198 21.0494 76.2204 25.0746 74.696 28.6877L54.458 76.6335C52.2046 81.9797 47.1581 85.4319 41.6004 85.4319L41.6051 85.4365Z" fill="#DADBDC"/>
<path opacity="0.32" d="M41.2784 85.0906C35.7302 85.0906 30.6837 81.6386 28.4303 76.2971L8.19227 28.3513C6.66791 24.7382 6.5685 20.7178 7.9177 17.0289C9.2669 13.34 11.899 10.4231 15.3312 8.8178C17.1396 7.97017 19.0616 7.53915 21.0404 7.53915C26.5887 7.53915 31.6352 10.9914 33.8886 16.3329L41.2784 33.8444L48.6683 16.3329C50.9217 10.9914 55.9682 7.53915 61.5164 7.53915C63.4953 7.53915 65.4126 7.97017 67.2257 8.8178C70.6531 10.4231 73.2853 13.34 74.6345 17.0289C75.9837 20.7178 75.8842 24.7429 74.3599 28.3513L54.1219 76.2971C51.8685 81.6386 46.8267 85.086 41.2737 85.086L41.2784 85.0906Z" fill="#D6D7D8"/>
<path opacity="0.35" d="M40.9566 84.745C35.4083 84.745 30.3713 81.2978 28.1179 75.961L7.87991 28.0152C6.35555 24.4068 6.26087 20.3865 7.60533 16.6976C8.9498 13.0088 11.5819 10.0965 15.0094 8.49117C16.8178 7.64354 18.735 7.21252 20.7139 7.21252C26.2574 7.21252 31.2992 10.66 33.5526 15.9968L40.9566 33.5319L48.3606 15.9968C50.614 10.66 55.6558 7.21252 61.1993 7.21252C63.1734 7.21252 65.0955 7.64354 66.9039 8.49117C70.3313 10.0965 72.9587 13.0088 74.3079 16.6976C75.6571 20.3865 75.5577 24.4021 74.0333 28.0152L53.7953 75.961C51.5419 81.2978 46.5049 84.745 40.9566 84.745Z" fill="#D2D3D4"/>
<path opacity="0.39" d="M40.6298 84.3951C35.0863 84.3951 30.054 80.9477 27.8053 75.6157L7.56734 27.6698C6.04298 24.0615 5.9483 20.0459 7.29277 16.3618C8.63724 12.6777 11.2646 9.76524 14.6921 8.15995C16.5005 7.31231 18.4178 6.88153 20.3918 6.88153C25.9307 6.88153 30.9677 10.3287 33.2211 15.6607L40.6346 33.2196L48.0481 15.6607C50.3015 10.3287 55.3338 6.88153 60.8773 6.88153C62.8514 6.88153 64.7687 7.31231 66.5771 8.15995C69.9998 9.76051 72.6272 12.6728 73.9764 16.3569C75.3209 20.0411 75.2262 24.0566 73.7018 27.665L53.4638 75.6108C51.2152 80.9429 46.1781 84.3902 40.6393 84.3902L40.6298 84.3951Z" fill="#CECFD0"/>
<path opacity="0.42" d="M40.3079 84.0492C34.7691 84.0492 29.7415 80.6065 27.4928 75.2792L7.25484 27.3334C5.73521 23.7298 5.6358 19.7187 6.98027 16.0346C8.32473 12.3552 10.9521 9.44302 14.3748 7.84246C16.1785 6.99482 18.0958 6.56866 20.0699 6.56866C25.6087 6.56866 30.6362 10.0113 32.8896 15.3386L40.3126 32.9211L47.7356 15.3386C49.9842 10.0113 55.0165 6.56866 60.5553 6.56866C62.5294 6.56866 64.442 6.99956 66.2504 7.84246C69.6731 9.44302 72.2957 12.3505 73.6402 16.0346C74.9847 19.714 74.89 23.7298 73.3656 27.3334L53.1276 75.2792C50.879 80.6065 45.8467 84.0492 40.3126 84.0492H40.3079Z" fill="#CACBCC"/>
<path opacity="0.45" d="M39.9814 83.6985C34.4473 83.6985 29.4198 80.2607 27.1758 74.9334L6.93782 26.9876C5.4182 23.3887 5.31878 19.3777 6.66325 15.6983C8.00771 12.0189 10.6304 9.11131 14.0531 7.51075C15.8567 6.66311 17.7693 6.23695 19.7434 6.23695C25.2775 6.23695 30.305 9.6797 32.5537 15.0023L39.9861 32.6083L47.4186 15.0023C49.6672 9.6797 54.6948 6.23695 60.2289 6.23695C62.1982 6.23695 64.1155 6.66785 65.9192 7.51075C69.3371 9.11131 71.9598 12.0189 73.3043 15.6983C74.6487 19.3777 74.5493 23.3887 73.0297 26.9876L52.7917 74.9334C50.543 80.256 45.5202 83.6985 39.9861 83.6985H39.9814Z" fill="#C6C7C8"/>
<path opacity="0.48" d="M39.6593 83.3531C34.13 83.3531 29.1071 79.9153 26.8632 74.5975L6.62521 26.6517C5.10558 23.0528 5.0109 19.0465 6.35064 15.3718C7.6951 11.6972 10.313 8.78974 13.731 7.18918C15.5347 6.34155 17.4472 5.91539 19.4166 5.91539C24.9459 5.91539 29.9687 9.35316 32.2127 14.671L39.6546 32.3009L47.0965 14.671C49.3404 9.35316 54.368 5.91539 59.8973 5.91539C61.8667 5.91539 63.7792 6.34155 65.5829 7.18918C69.0009 8.78974 71.6188 11.6925 72.9632 15.3672C74.3077 19.0419 74.2083 23.0479 72.6887 26.6468L52.4507 74.5927C50.2067 79.9105 45.1839 83.3485 39.6546 83.3485L39.6593 83.3531Z" fill="#C2C3C4"/>
<path opacity="0.52" d="M39.3328 83.0072C33.8082 83.0072 28.7901 79.5741 26.5462 74.2563L6.30819 26.3104C4.78857 22.7163 4.69389 18.7102 6.03362 15.0403C7.37335 11.3656 9.99601 8.46273 13.4092 6.8669C15.2082 6.024 17.1207 5.59311 19.0901 5.59311C24.6147 5.59311 29.6328 9.02626 31.8767 14.3441L39.3281 31.9975L46.7795 14.3441C49.0234 9.02626 54.0462 5.59311 59.5708 5.59311C61.5402 5.59311 63.4527 6.01927 65.2517 6.8669C68.6649 8.46273 71.2828 11.3656 72.6273 15.0403C73.967 18.715 73.8723 22.7163 72.3527 26.3104L52.1147 74.2563C49.8708 79.5694 44.8527 83.0072 39.3281 83.0072H39.3328Z" fill="#BDBEC0"/>
<path opacity="0.55" d="M39.0108 82.657C33.4909 82.657 28.4728 79.2237 26.2336 73.9153L5.99563 25.9695C4.48074 22.3753 4.38132 18.3787 5.72105 14.7088C7.06079 11.0389 9.67871 8.1361 13.0919 6.54027C14.8909 5.69737 16.8034 5.26648 18.7681 5.26648C24.2879 5.26648 29.3013 8.69951 31.5452 14.0126L39.0061 31.6899L46.4669 14.0126C48.7108 8.69951 53.7242 5.2711 59.2441 5.2711C61.2087 5.2711 63.1212 5.69726 64.9202 6.5449C68.3334 8.14072 70.9466 11.0388 72.2863 14.7134C73.6261 18.3834 73.5314 22.3849 72.0117 25.9743L51.7738 73.9202C49.5346 79.2333 44.5165 82.6617 38.9966 82.6617L39.0108 82.657Z" fill="#B9BABC"/>
<path opacity="0.58" d="M38.6841 82.3112C33.169 82.3112 28.1556 78.8829 25.9164 73.5745L5.67843 25.6287C4.16354 22.0393 4.06412 18.0426 5.40385 14.3727C6.74359 10.7075 9.35677 7.8046 12.77 6.20877C14.5689 5.36587 16.4768 4.93983 18.4414 4.93983C23.9565 4.93983 28.9699 8.36812 31.2091 13.6765L38.6794 31.3776L46.1497 13.6765C48.3889 8.36812 53.4022 4.93983 58.9174 4.93983C60.882 4.93983 62.7898 5.36587 64.5888 6.20877C67.9973 7.8046 70.6105 10.7026 71.9502 14.3678C73.2899 18.033 73.1952 22.0344 71.6756 25.6239L51.4376 73.5697C49.1984 78.8781 44.1851 82.3066 38.6699 82.3066L38.6841 82.3112Z" fill="#B5B6B8"/>
<path opacity="0.61" d="M38.3575 81.961C32.8471 81.961 27.8385 78.5326 25.5993 73.229L5.3613 25.2831C3.84641 21.6937 3.75173 17.7018 5.08672 14.0366C6.42646 10.3714 9.03964 7.47797 12.4482 5.88214C14.2471 5.03924 16.1502 4.6132 18.1148 4.6132C23.6252 4.6132 28.6338 8.0416 30.873 13.3452L38.3528 31.0697L45.8326 13.3452C48.0718 8.0416 53.0804 4.6132 58.5908 4.6132C60.5554 4.6132 62.4632 5.03924 64.2622 5.88214C67.6659 7.47797 70.2791 10.3714 71.6189 14.0366C72.9586 17.7018 72.8592 21.6937 71.3443 25.2831L51.1063 73.229C48.8671 78.5326 43.8632 81.9561 38.3481 81.9561L38.3575 81.961Z" fill="#B1B2B4"/>
<path opacity="0.65" d="M38.0356 81.6151C32.5299 81.6151 27.526 78.1915 25.2868 72.8926L5.0488 24.9467C3.53391 21.362 3.43923 17.3701 4.77422 13.7097C6.10922 10.0492 8.72241 7.1559 12.1262 5.56008C13.9204 4.71718 15.8282 4.29091 17.7881 4.29091C23.2938 4.29091 28.2976 7.71456 30.5368 13.0135L38.0261 30.7617L45.5153 13.0135C47.7545 7.71456 52.7584 4.29091 58.2641 4.29091C60.224 4.29091 62.1318 4.71718 63.9307 5.56008C67.3345 7.15117 69.943 10.0445 71.2827 13.7097C72.6224 17.3701 72.523 21.362 71.0081 24.9467L50.7701 72.8926C48.5356 78.1915 43.5318 81.6151 38.0214 81.6151H38.0356Z" fill="#ADAEB0"/>
<path opacity="0.68" d="M37.709 81.2695C32.2081 81.2695 27.2042 77.8458 24.9697 72.5516L4.73172 24.6058C3.22156 21.0258 3.12214 17.0386 4.45714 13.3782C5.79214 9.71772 8.40059 6.82927 11.8044 5.23345C13.5986 4.39055 15.5016 3.96428 17.4615 3.96428C22.9625 3.96428 27.9616 7.38804 30.2008 12.6822L37.7043 30.454L45.2077 12.6822C47.4422 7.38804 52.4461 3.96428 57.947 3.96428C59.9069 3.96428 61.81 4.39055 63.6089 5.23345C67.0079 6.82454 69.6164 9.7131 70.9561 13.3736C72.2911 17.034 72.1965 21.0212 70.6863 24.6011L50.4483 72.547C48.2138 77.8411 43.2147 81.2647 37.709 81.2647V81.2695Z" fill="#A9AAAC"/>
<path opacity="0.71" d="M37.387 80.9188C31.8861 80.9188 26.8917 77.5 24.6619 72.2106L4.42393 24.2648C2.91378 20.6848 2.81436 16.7024 4.15409 13.0466C5.48909 9.39093 8.09754 6.50226 11.4966 4.91117C13.2908 4.06827 15.1939 3.642 17.149 3.642C22.6452 3.642 27.6444 7.06101 29.8788 12.3504L37.3918 30.1461L44.9047 12.3504C47.1391 7.06101 52.1335 3.642 57.6345 3.642C59.5944 3.642 61.4975 4.06827 63.2917 4.91117C66.6907 6.50226 69.2944 9.39093 70.6294 13.0466C71.9644 16.7024 71.8697 20.6848 70.3596 24.2648L50.1216 72.2106C47.8871 77.5 42.8927 80.9188 37.3965 80.9188H37.387Z" fill="#A5A6A8"/>
<path opacity="0.74" d="M37.0604 80.5734C31.5642 80.5734 26.5745 77.1593 24.3448 71.8698L4.1068 23.924C2.59665 20.3488 2.50197 16.3664 3.83696 12.7154C5.17196 9.06439 7.77568 6.17584 11.1747 4.58475C12.9642 3.74658 14.8673 3.32043 16.8224 3.32043C22.3139 3.32043 27.3083 6.7346 29.5428 12.024L37.0652 29.8432L44.5875 12.024C46.822 6.73933 51.8117 3.32043 57.3079 3.32043C59.2631 3.32043 61.1661 3.74658 62.9603 4.58475C66.3546 6.1711 68.9584 9.05965 70.2934 12.7154C71.6284 16.3664 71.5337 20.3488 70.0235 23.924L49.7855 71.8698C47.5558 77.1545 42.5614 80.5734 37.0699 80.5734H37.0604Z" fill="#A1A2A4"/>
<path opacity="0.77" d="M36.7385 80.223C31.247 80.223 26.262 76.8088 24.0323 71.5289L3.7943 23.583C2.28415 20.0078 2.18947 16.03 3.52446 12.379C4.85946 8.72805 7.46318 5.84413 10.8575 4.25304C12.647 3.41487 14.5453 2.98872 16.5052 2.98872C21.9967 2.98872 26.9816 6.403 29.2161 11.6877L36.7479 29.5305L44.2798 11.6877C46.5095 6.403 51.4992 2.99335 56.9907 2.99335C58.9458 2.99335 60.8442 3.41973 62.6384 4.25789C66.0327 5.84425 68.6317 8.72805 69.9667 12.379C71.3017 16.03 71.2022 20.0078 69.6968 23.583L49.4588 71.5289C47.2291 76.8088 42.2441 80.223 36.7527 80.223H36.7385Z" fill="#9D9EA1"/>
<path opacity="0.81" d="M36.4118 79.8771C30.925 79.8771 25.9401 76.4676 23.7151 71.1876L3.4771 23.2418C1.97168 19.6713 1.87226 15.6983 3.20726 12.0473C4.53752 8.40103 7.14124 5.51734 10.5308 3.93099C12.3203 3.09282 14.2186 2.66644 16.1738 2.66644C21.6605 2.66644 26.6455 6.07597 28.8705 11.3559L36.4118 29.2225L43.9531 11.3559C46.1828 6.07597 51.1678 2.66644 56.6545 2.66644C58.6097 2.66644 60.508 3.09282 62.2975 3.93099C65.6871 5.51734 68.286 8.40103 69.621 12.0473C70.956 15.6935 70.8566 19.6713 69.3512 23.2418L49.1132 71.1876C46.8882 76.4676 41.9033 79.8771 36.4165 79.8771H36.4118Z" fill="#999A9D"/>
<path opacity="0.84" d="M36.0899 79.5315C30.6079 79.5315 25.6277 76.1219 23.4027 70.8466L3.16472 22.9008C1.6593 19.3351 1.55988 15.3623 2.89488 11.716C4.22515 8.06976 6.82413 5.19047 10.2137 3.60411C11.9984 2.76595 13.8968 2.3398 15.8519 2.3398C21.3339 2.3398 26.3142 5.74944 28.5391 11.0247L36.0899 28.9149L43.6407 11.0247C45.8657 5.74944 50.8507 2.3398 56.3327 2.3398C58.2831 2.3398 60.1814 2.76595 61.9709 3.60411C65.3557 5.19047 67.9547 8.06976 69.2897 11.716C70.62 15.3623 70.5253 19.3303 69.0199 22.9008L48.7819 70.8466C46.5569 76.1219 41.5767 79.5266 36.0947 79.5266L36.0899 79.5315Z" fill="#949699"/>
<path opacity="0.87" d="M35.7632 79.1813C30.2859 79.1813 25.3105 75.7766 23.0855 70.5061L2.84747 22.5603C1.34205 18.9946 1.24737 15.0262 2.57763 11.3847C3.90789 7.74322 6.50688 4.86417 9.89172 3.28255C11.6764 2.44438 13.5748 2.01823 15.5252 2.01823C21.0025 2.01823 25.978 5.4229 28.203 10.6934L35.7632 28.6074L43.3235 10.6934C45.5485 5.4229 50.5239 2.01823 56.0012 2.01823C57.9516 2.01823 59.85 2.44438 61.6347 3.28255C65.0196 4.86417 67.6138 7.74322 68.9441 11.3847C70.2743 15.0262 70.1797 18.9946 68.6742 22.5603L48.4362 70.5061C46.2112 75.7766 41.2358 79.1813 35.7585 79.1813H35.7632Z" fill="#909295"/>
<path opacity="0.9" d="M35.4414 78.8354C29.9689 78.8354 24.9934 75.4306 22.7732 70.1649L2.53515 22.2191C1.02973 18.658 0.93505 14.6898 2.26531 11.053C3.59558 7.41619 6.18983 4.53726 9.57467 2.95564C11.3594 2.11748 13.253 1.69595 15.2034 1.69595C20.676 1.69595 25.6467 5.10073 27.8717 10.3665L35.4414 28.3041L43.0112 10.3665C45.2361 5.10073 50.2069 1.69595 55.6794 1.69595C57.6299 1.69595 59.5235 2.12221 61.3082 2.95564C64.6883 4.53726 67.2826 7.41146 68.6128 11.053C69.9431 14.6898 69.8484 18.658 68.343 22.2191L48.105 70.1649C45.8847 75.4306 40.9092 78.8354 35.4367 78.8354H35.4414Z" fill="#8C8E91"/>
<path opacity="0.94" d="M35.1147 78.4895C29.6469 78.4895 24.6762 75.0895 22.4559 69.8285L2.21789 21.8827C0.717198 18.3216 0.617784 14.3628 1.94805 10.7261C3.27358 7.08927 5.86783 4.21496 9.25266 2.63334C11.0374 1.79518 12.9263 1.37366 14.8767 1.37366C20.3445 1.37366 25.3152 4.77369 27.5355 10.0347L35.1147 27.9961L42.6939 10.0347C44.9142 4.77369 49.8849 1.37366 55.3527 1.37366C57.3031 1.37366 59.192 1.79992 60.9767 2.63334C64.3568 4.21496 66.9464 7.08938 68.2766 10.7214C69.6069 14.3582 69.5075 18.3218 68.0068 21.878L47.7688 69.8239C45.5485 75.0849 40.5825 78.4849 35.11 78.4849L35.1147 78.4895Z" fill="#888A8D"/>
<path opacity="0.97" d="M34.7881 78.1393C29.325 78.1393 24.359 74.7439 22.1388 69.4829L1.90076 21.5371C0.400069 17.9808 0.305389 14.022 1.63092 10.3899C2.95645 6.7579 5.5507 3.8836 8.92607 2.30672C10.7061 1.47329 12.5997 1.04703 14.5454 1.04703C20.0084 1.04703 24.9744 4.44243 27.1947 9.70345L34.7834 27.6884L42.372 9.70345C44.5923 4.44717 49.5583 1.04703 55.0214 1.04703C56.9671 1.04703 58.8607 1.46855 60.6407 2.30672C64.016 3.88834 66.6056 6.7579 67.9358 10.3899C69.2614 14.022 69.1667 17.9808 67.666 21.5371L47.428 69.4829C45.2077 74.7392 40.2464 78.1393 34.7786 78.1393H34.7881Z" fill="#848689"/>
<path d="M34.4661 77.7937C29.0078 77.7937 24.0465 74.3983 21.8263 69.1468L1.58826 21.2009C0.0875691 17.6494 -0.00711128 13.6907 1.31842 10.0587C2.64395 6.42661 5.23347 3.55694 8.60883 1.98006C10.3888 1.14663 12.2777 0.720367 14.2234 0.720367C19.6817 0.720367 24.643 4.11565 26.8633 9.37193L34.4661 27.3805L42.069 9.37193C44.2893 4.12039 49.2505 0.725223 54.7089 0.725223C56.6546 0.725223 58.5434 1.14652 60.3234 1.98468C63.6988 3.56156 66.2836 6.43124 67.6138 10.0633C68.9394 13.6953 68.8447 17.6495 67.344 21.2058L47.106 69.1516C44.8905 74.4032 39.9292 77.7983 34.4661 77.7983V77.7937Z" fill="#808285"/>
</g>
<path d="M34.4661 78.1491C28.8704 78.1491 23.7908 74.6731 21.5185 69.289L1.28047 21.3432C-0.258094 17.7017 -0.352775 13.6483 1.00589 9.93106C2.36456 6.21378 5.01562 3.27311 8.4762 1.65361C10.2988 0.796501 12.235 0.365479 14.2281 0.365479C19.819 0.365479 24.9033 3.84124 27.1756 9.22538L34.4661 26.5001L41.7565 9.22538C44.0288 3.84124 49.1132 0.365479 54.7041 0.365479C56.6971 0.365479 58.6333 0.801236 60.4559 1.65361C63.9118 3.26837 66.5628 6.20892 67.9215 9.9262C69.2802 13.6435 69.1807 17.697 67.6469 21.3385L47.4089 69.2844C45.1366 74.6638 40.0569 78.1443 34.4613 78.1443L34.4661 78.1491Z" fill="url(#paint0_linear_53_37242)"/>
<path d="M34.4661 76.7283C29.4054 76.7283 24.8086 73.5839 22.7541 68.7112L2.51606 20.7654C1.12426 17.4696 1.03905 13.8045 2.26516 10.4424C3.49601 7.07549 5.89617 4.41891 9.02063 2.95567C10.6681 2.18381 12.4197 1.79079 14.2233 1.79079C19.284 1.79079 23.8808 4.93494 25.9401 9.80765L34.4661 30.004L42.9921 9.80765C45.0466 4.93967 49.6481 1.79079 54.7088 1.79079C56.5125 1.79079 58.2593 2.18381 59.9115 2.95567C63.036 4.41891 65.4361 7.08023 66.667 10.4424C67.8978 13.8045 67.8079 17.4743 66.4161 20.7654L46.1781 68.7112C44.1235 73.5792 39.5268 76.7283 34.4661 76.7283Z" fill="url(#paint1_linear_53_37242)"/>
<path d="M34.4662 37.8795C34.1111 37.8795 33.7892 37.6662 33.6472 37.3347L32.8187 35.3696C32.6294 34.9197 32.8377 34.3988 33.2921 34.2047C33.7419 34.0153 34.2673 34.2236 34.4567 34.6782L34.4662 34.7067L34.4756 34.6782C34.665 34.2236 35.1857 34.0153 35.6402 34.2047C36.0899 34.3941 36.303 34.915 36.1136 35.3696L35.2852 37.3347C35.1479 37.6614 34.826 37.8795 34.4662 37.8795Z" fill="#76B83F"/>
<path d="M32.3689 74.3706C32.3073 74.3706 32.241 74.3658 32.1795 74.3516C30.6504 74.0201 29.2302 73.3714 27.9662 72.4195C27.5733 72.126 27.4928 71.5671 27.7863 71.1788C28.0798 70.7858 28.6384 70.7053 29.0266 70.9989C30.087 71.7945 31.2753 72.3389 32.5535 72.6135C33.0316 72.7177 33.3346 73.1912 33.2304 73.6695C33.1405 74.0862 32.7712 74.3706 32.3641 74.3706H32.3689ZM36.6247 74.3562C36.2176 74.3562 35.8531 74.0769 35.7584 73.6649C35.6495 73.1866 35.9525 72.713 36.4307 72.6041C37.7088 72.3152 38.8923 71.7659 39.948 70.9656C40.341 70.672 40.8948 70.748 41.1931 71.1363C41.4913 71.5246 41.4156 72.0833 41.0227 72.3816C39.7634 73.3382 38.3479 73.9963 36.8236 74.3373C36.7573 74.3515 36.691 74.3611 36.6295 74.3611L36.6247 74.3562ZM25.6939 69.3936C25.3861 69.3936 25.0832 69.2325 24.9222 68.9436C24.7092 68.5648 24.5151 68.167 24.3399 67.7598L23.147 64.928C22.9576 64.4781 23.1659 63.9573 23.6204 63.7631C24.0701 63.5737 24.5908 63.7821 24.7849 64.2367L25.9779 67.0684C26.1247 67.4141 26.2904 67.7504 26.4702 68.0724C26.7117 68.4986 26.5602 69.0385 26.1341 69.28C25.9968 69.3558 25.8454 69.3936 25.6986 69.3936H25.6939ZM43.2713 69.3367C43.1246 69.3367 42.9778 69.2989 42.8405 69.2232C42.4097 68.9864 42.2583 68.4464 42.495 68.0155C42.6654 67.7077 42.8216 67.3904 42.9589 67.0684L44.1803 64.1752C44.3696 63.7253 44.8904 63.5122 45.3448 63.7016C45.7946 63.891 46.0076 64.4119 45.8182 64.8665L44.5969 67.7598C44.4359 68.1433 44.2513 68.5176 44.0525 68.8775C43.8915 69.1711 43.5885 69.3367 43.2761 69.3367H43.2713ZM22.2901 61.5187C21.9445 61.5187 21.6131 61.3151 21.4711 60.9741L19.8 57.0201C19.6106 56.5702 19.8189 56.0493 20.2734 55.8552C20.7231 55.6657 21.2439 55.8741 21.438 56.3287L23.1091 60.2828C23.2984 60.7327 23.0901 61.2535 22.6357 61.4477C22.5221 61.495 22.4037 61.5187 22.2901 61.5187ZM46.6609 61.4572C46.5473 61.4572 46.4289 61.4333 46.3153 61.3859C45.8656 61.1965 45.6526 60.6757 45.8419 60.2211L47.513 56.267C47.7024 55.8124 48.2231 55.604 48.6776 55.7934C49.1273 55.9828 49.3404 56.5039 49.151 56.9585L47.4846 60.9124C47.3426 61.2534 47.0112 61.4572 46.6656 61.4572H46.6609ZM18.9526 53.6105C18.607 53.6105 18.2756 53.4069 18.1336 53.066L16.4625 49.1119C16.2731 48.662 16.4814 48.1411 16.9359 47.947C17.3856 47.7576 17.9111 47.9659 18.1005 48.4205L19.7716 52.3746C19.9609 52.8245 19.7526 53.3453 19.2982 53.5395C19.1846 53.5868 19.0662 53.6105 18.9526 53.6105ZM49.9984 53.549C49.8848 53.549 49.7664 53.5253 49.6528 53.478C49.2031 53.2886 48.99 52.7677 49.1794 52.3131L50.8505 48.359C51.0399 47.9044 51.5606 47.696 52.0151 47.8855C52.4648 48.0749 52.6779 48.5958 52.4885 49.0504L50.8174 53.0044C50.6754 53.3454 50.344 53.549 49.9984 53.549ZM15.6151 45.7025C15.2695 45.7025 14.9381 45.4987 14.7961 45.1578L13.1297 41.2039C12.9404 40.754 13.1487 40.2332 13.6031 40.039C14.0529 39.8496 14.5736 40.0579 14.7677 40.5125L16.4341 44.4664C16.6234 44.9163 16.4152 45.4371 15.9607 45.6313C15.8471 45.6786 15.7287 45.7025 15.6151 45.7025ZM53.3359 45.6408C53.2223 45.6408 53.1039 45.6171 52.9903 45.5698C52.5406 45.3804 52.3275 44.8595 52.5169 44.4049L54.188 40.4508C54.3774 40.0009 54.8981 39.7879 55.3526 39.9773C55.8023 40.1667 56.0154 40.6876 55.826 41.1422L54.1549 45.0963C54.0129 45.4372 53.6815 45.6408 53.3359 45.6408ZM12.2776 37.7943C11.932 37.7943 11.6006 37.5907 11.4586 37.2498L9.7875 33.2957C9.59814 32.8458 9.80644 32.325 10.2609 32.1308C10.7154 31.9367 11.2314 32.1498 11.4255 32.6044L13.0966 36.5584C13.286 37.0083 13.0777 37.5292 12.6232 37.7233C12.5096 37.7707 12.3912 37.7943 12.2776 37.7943ZM56.6734 37.7328C56.5598 37.7328 56.4414 37.7092 56.3278 37.6618C55.8781 37.4724 55.665 36.9513 55.8544 36.4967L57.5255 32.5428C57.7149 32.0883 58.2356 31.8799 58.6901 32.0693C59.1398 32.2587 59.3528 32.7796 59.1635 33.2342L57.4924 37.1883C57.3504 37.5292 57.019 37.7328 56.6734 37.7328ZM36.9609 31.9604C36.8472 31.9604 36.7289 31.9365 36.6153 31.8892C36.1656 31.6998 35.9525 31.1789 36.1419 30.7243L37.813 26.7704C38.0024 26.3206 38.5231 26.1075 38.9776 26.2969C39.4273 26.4863 39.6403 27.0072 39.451 27.4618L37.7799 31.4156C37.6378 31.7566 37.3064 31.9604 36.9609 31.9604ZM31.9428 31.8987C31.5972 31.8987 31.2658 31.6951 31.1238 31.3541L29.4527 27.4C29.2633 26.9502 29.4716 26.4293 29.9261 26.2352C30.3806 26.0457 30.8966 26.2541 31.0907 26.7087L32.7618 30.6628C32.9511 31.1127 32.7428 31.6335 32.2884 31.8277C32.1748 31.875 32.0564 31.8987 31.9428 31.8987ZM8.94011 29.891C8.59453 29.891 8.26314 29.6874 8.12112 29.3465L6.45001 25.3924C6.26065 24.9425 6.46894 24.4216 6.92341 24.2275C7.37315 24.0381 7.89389 24.2464 8.08798 24.701L9.7591 28.6551C9.94846 29.105 9.74016 29.6258 9.2857 29.82C9.17208 29.8674 9.05373 29.891 8.94011 29.891ZM60.0109 29.8295C59.8973 29.8295 59.7789 29.8056 59.6653 29.7583C59.2156 29.5688 59.0025 29.048 59.1919 28.5934L60.863 24.6395C61.0524 24.1849 61.5731 23.9766 62.0276 24.166C62.4773 24.3554 62.6903 24.8763 62.501 25.3309L60.8299 29.2847C60.6879 29.6257 60.3565 29.8295 60.0109 29.8295ZM40.2984 24.0571C40.1847 24.0571 40.0664 24.0332 39.9528 23.9859C39.503 23.7964 39.29 23.2756 39.4794 22.821L41.1505 18.8669C41.3398 18.417 41.8606 18.2039 42.3151 18.3933C42.7648 18.5827 42.9778 19.1039 42.7885 19.5584L41.1173 23.5123C40.9753 23.8533 40.6439 24.0571 40.2984 24.0571ZM28.6053 23.9953C28.2597 23.9953 27.9283 23.7918 27.7863 23.4508L26.1152 19.4967C25.9258 19.0468 26.1341 18.526 26.5886 18.3318C27.0431 18.1424 27.5591 18.3508 27.7532 18.8054L29.4243 22.7595C29.6136 23.2093 29.4053 23.7302 28.9509 23.9243C28.8373 23.9717 28.7189 23.9953 28.6053 23.9953ZM5.60262 21.9876C5.25703 21.9876 4.92565 21.7841 4.78363 21.4431L4.09719 19.8139C3.74214 18.971 3.4865 18.0905 3.33975 17.1908C3.25927 16.7077 3.59065 16.2482 4.07352 16.1725C4.55639 16.092 5.01086 16.4236 5.09134 16.9066C5.21442 17.669 5.43219 18.4123 5.73043 19.1226L6.41687 20.7515C6.60623 21.2014 6.39793 21.7225 5.94347 21.9167C5.82985 21.964 5.7115 21.9876 5.59788 21.9876H5.60262ZM63.3484 21.9261C63.2348 21.9261 63.1164 21.9023 63.0028 21.8549C62.5531 21.6655 62.34 21.1446 62.5294 20.69L63.1922 19.1275C63.4999 18.3982 63.7176 17.631 63.8407 16.8497C63.9165 16.3667 64.3709 16.0399 64.8538 16.111C65.3367 16.1867 65.6681 16.6414 65.5923 17.1244C65.4456 18.0525 65.1899 18.957 64.8254 19.8188L64.1626 21.3814C64.0206 21.7223 63.6892 21.9261 63.3436 21.9261H63.3484ZM43.6359 16.1535C43.5222 16.1535 43.4039 16.1299 43.2903 16.0825C42.8405 15.8931 42.6275 15.3722 42.8169 14.9176L44.4832 10.9635C44.6726 10.5089 45.1934 10.3006 45.6478 10.49C46.0976 10.6794 46.3106 11.2003 46.1212 11.6549L44.4548 15.609C44.3128 15.9499 43.9814 16.1535 43.6359 16.1535ZM25.2678 16.092C24.9222 16.092 24.5908 15.8884 24.4488 15.5475L22.7777 11.5934C22.5883 11.1435 22.7966 10.6226 23.2511 10.4285C23.7008 10.2391 24.2216 10.4474 24.4157 10.902L26.0868 14.8561C26.2761 15.306 26.0679 15.8269 25.6134 16.021C25.4998 16.0684 25.3814 16.092 25.2678 16.092ZM4.38123 13.6818C4.31022 13.6818 4.24395 13.6721 4.17294 13.6579C3.6948 13.5443 3.40129 13.0614 3.51964 12.5879C3.88889 11.0583 4.54219 9.65198 5.46059 8.40184C5.74937 8.00407 6.30799 7.92338 6.70091 8.21224C7.09384 8.50583 7.17905 9.05993 6.89027 9.45297C6.12336 10.4948 5.55527 11.7261 5.24756 12.9999C5.14815 13.4071 4.78836 13.6818 4.38597 13.6818H4.38123ZM64.5319 13.6203C64.1342 13.6203 63.7697 13.3503 63.6703 12.943C63.3531 11.6645 62.7803 10.4426 62.0039 9.40557C61.7104 9.01253 61.7909 8.45393 62.1838 8.16507C62.5767 7.87148 63.1353 7.95192 63.4241 8.34496C64.352 9.59037 65.0148 10.992 65.3888 12.5215C65.5071 12.9998 65.2136 13.4781 64.7402 13.5964C64.6692 13.6154 64.5982 13.6203 64.5272 13.6203H64.5319ZM47.6456 8.64324C47.4184 8.64324 47.1911 8.55809 47.016 8.38288C46.6704 8.0372 46.6704 7.47373 47.016 7.12805C48.1332 6.01523 49.4445 5.16746 50.9073 4.61815C51.3665 4.44294 51.8778 4.6749 52.0482 5.13424C52.2187 5.59357 51.9867 6.10519 51.5322 6.2804C50.3061 6.73973 49.2078 7.4499 48.2657 8.38751C48.0906 8.55798 47.8681 8.64809 47.6408 8.64809L47.6456 8.64324ZM21.2297 8.59583C21.0072 8.59583 20.7799 8.51058 20.6095 8.34011C19.6627 7.41197 18.5597 6.70644 17.3336 6.25658C16.8744 6.08611 16.6377 5.57484 16.8081 5.11551C16.9785 4.65618 17.485 4.41924 17.949 4.58971C19.4165 5.12955 20.7326 5.96771 21.8593 7.07579C22.2096 7.42148 22.2143 7.98021 21.8688 8.33063C21.6936 8.50583 21.4664 8.59583 21.2344 8.59583H21.2297ZM9.35197 6.98585C9.04426 6.98585 8.74128 6.82498 8.58032 6.53613C8.33889 6.10994 8.49038 5.56997 8.91644 5.32846C9.15314 5.19587 9.39931 5.06811 9.65022 4.94972C10.8243 4.40042 12.0693 4.0689 13.3475 3.96473C13.8351 3.91737 14.2659 4.29134 14.3038 4.77908C14.3416 5.26683 13.9771 5.69776 13.4895 5.73564C12.4244 5.82088 11.3829 6.10038 10.4029 6.55971C10.1899 6.65915 9.98633 6.76329 9.7875 6.87694C9.65022 6.95271 9.49873 6.9907 9.35197 6.9907V6.98585ZM59.5091 6.95278C59.3623 6.95278 59.2156 6.91965 59.0783 6.84388C58.8937 6.74444 58.709 6.64483 58.5149 6.55485C57.5113 6.08605 56.4509 5.80666 55.3668 5.72616C54.8792 5.68828 54.5099 5.2622 54.5478 4.77446C54.5857 4.28671 55.0165 3.91263 55.4993 3.95525C56.8012 4.04995 58.0699 4.38621 59.2724 4.94972C59.4996 5.05864 59.7221 5.17216 59.9399 5.29054C60.3707 5.52731 60.5222 6.06728 60.2855 6.49821C60.1245 6.7918 59.8215 6.95741 59.5091 6.95741V6.95278Z" fill="#76B83F"/>
<path d="M34.4661 69.6251C32.066 69.6251 29.893 68.1381 28.9178 65.8273L8.67984 17.8815C7.31643 14.6567 8.69877 10.8777 11.7617 9.44284C14.8246 8.00802 18.413 9.46183 19.7764 12.6866L34.4661 47.4871L49.1558 12.6866C50.5192 9.46183 54.1076 8.00802 57.1706 9.44284C60.2335 10.8777 61.6158 14.6567 60.2524 17.8815L40.0144 65.8273C39.0392 68.1381 36.8663 69.6251 34.4661 69.6251Z" fill="url(#paint2_linear_53_37242)"/>
<defs>
<linearGradient id="paint0_linear_53_37242" x1="0.0543519" y1="39.2573" x2="68.8778" y2="39.2573" gradientUnits="userSpaceOnUse">
<stop stop-color="#F1F2F2"/>
<stop offset="1" stop-color="#D1D3D4"/>
</linearGradient>
<linearGradient id="paint1_linear_53_37242" x1="1.40357" y1="39.2572" x2="67.5286" y2="39.2572" gradientUnits="userSpaceOnUse">
<stop stop-color="#D1D3D4"/>
<stop offset="1" stop-color="#F1F2F2"/>
</linearGradient>
<linearGradient id="paint2_linear_53_37242" x1="8.15436" y1="39.2569" x2="60.7779" y2="39.2569" gradientUnits="userSpaceOnUse">
<stop stop-color="#8DC63F"/>
<stop offset="0.21" stop-color="#80BE3F"/>
<stop offset="0.51" stop-color="#78B93F"/>
<stop offset="1" stop-color="#76B83F"/>
</linearGradient>
</defs>
</svg>
