<svg width="89" height="89" viewBox="0 0 89 89" fill="none" xmlns="http://www.w3.org/2000/svg">
<g style="mix-blend-mode:multiply">
<path opacity="0.03" d="M11.9615 17.4058C13.9924 14.0484 17.1406 11.7185 20.8331 10.8567C21.8509 10.6199 22.8829 10.5015 23.9008 10.5015C29.1508 10.5015 33.7854 13.4611 36.2377 18.0687C36.3465 18.2723 36.4602 18.4948 36.5548 18.7031C36.6495 18.509 36.7537 18.296 36.8578 18.1066C39.329 13.4659 44.0109 10.5015 49.1994 10.5015C54.3879 10.5015 59.0983 13.4802 61.5647 18.1445C61.6594 18.3292 61.7636 18.5327 61.8535 18.7221C61.9529 18.5185 62.0665 18.2961 62.1754 18.0925C64.6466 13.5228 69.338 10.5015 74.5029 10.5015C75.5254 10.5015 76.5527 10.62 77.5563 10.8521C85.1876 12.6373 90.0116 20.6165 88.3215 28.6382L78.2001 76.584C76.8888 82.8016 71.9275 87.447 65.9769 88.1573C65.6833 88.1904 65.3851 88.2187 65.0869 88.2329C64.836 88.2471 64.5945 88.2519 64.3531 88.2519C58.7953 88.2424 53.8246 84.8283 51.5333 79.6051C51.3108 79.1079 51.1025 78.5396 50.9321 78.0093L49.4456 73.3164L49.19 72.5636L47.4478 78.0613C45.5164 84.1557 40.1148 88.2519 33.9985 88.2519C33.7712 88.2519 33.544 88.2471 33.3168 88.2329C26.9637 87.9062 21.5716 83.0951 20.1987 76.5792L10.0821 28.6334C9.26312 24.7456 9.92589 20.7584 11.9568 17.3963L11.9615 17.4058Z" fill="#FBFBFB"/>
<path opacity="0.06" d="M11.6489 17.0743C13.6798 13.7169 16.828 11.3919 20.5158 10.5301C21.5336 10.2933 22.5609 10.1749 23.5834 10.1749C28.8382 10.1749 33.4728 13.1391 35.9203 17.7561C36.0245 17.9503 36.1428 18.1872 36.2375 18.3908C36.3274 18.2014 36.4411 17.9787 36.5405 17.7941C39.0069 13.1439 43.6889 10.1749 48.8821 10.1749C54.0753 10.1749 58.7857 13.1582 61.2474 17.832C61.3421 18.0072 61.451 18.2299 61.5362 18.4098C61.6309 18.2109 61.7539 17.9741 61.8581 17.78C64.3245 13.2008 69.0254 10.1749 74.1855 10.1749C75.2081 10.1749 76.2306 10.2934 77.2342 10.5254C84.8608 12.3107 89.68 20.2802 87.99 28.2972L77.8686 76.2431C76.5573 82.4654 71.5865 87.1109 65.6264 87.8117C65.3329 87.8448 65.0394 87.8731 64.7411 87.8873C64.4902 87.9015 64.2488 87.9063 64.0074 87.9063C58.4449 87.8873 53.4789 84.4589 51.2065 79.2168C50.9935 78.7338 50.771 78.1277 50.61 77.6163L49.1235 72.9188L48.8679 72.218L47.1258 77.7252C45.199 83.8149 39.7975 87.9063 33.6906 87.9063C33.4634 87.9063 33.2361 87.9015 33.0089 87.8873C26.6605 87.5606 21.2732 82.7542 19.9003 76.2431L9.78371 28.2972C8.96472 24.4142 9.62749 20.427 11.6584 17.0697L11.6489 17.0743Z" fill="#F7F7F7"/>
<path opacity="0.1" d="M11.3318 16.743C13.358 13.3904 16.5061 11.0653 20.1892 10.2034C21.2023 9.96665 22.2343 9.84827 23.2521 9.84827C28.5069 9.84827 33.1462 12.8126 35.589 17.4439C35.6884 17.6333 35.8162 17.8842 35.9062 18.0783C35.9914 17.8984 36.1145 17.657 36.2091 17.4818C38.6708 12.8221 43.3575 9.85289 48.5508 9.85289C53.744 9.85289 58.4544 12.841 60.9161 17.5243C61.006 17.6948 61.1244 17.9269 61.2048 18.1021C61.2995 17.9127 61.4226 17.6617 61.5268 17.4723C63.9885 12.879 68.6941 9.85289 73.8542 9.85289C74.8767 9.85289 75.8993 9.97139 76.9029 10.2034C84.52 11.9839 89.3392 19.9535 87.6492 27.9658L77.5278 75.9116C76.2117 82.1386 71.2363 86.789 65.2667 87.4756C64.9731 87.5087 64.6844 87.5324 64.3861 87.5466C64.1352 87.5608 63.8938 87.5654 63.6524 87.5607C58.0851 87.5275 53.1191 84.0849 50.8657 78.8287C50.6622 78.3646 50.4255 77.7206 50.2692 77.2281L48.7827 72.5258L48.5271 71.877L46.7802 77.3891C44.8535 83.4741 39.4567 87.5655 33.3545 87.5655C33.1273 87.5655 32.9001 87.5608 32.6728 87.5466C26.3292 87.2198 20.9466 82.418 19.5737 75.9116L9.45711 27.9658C8.63812 24.0875 9.30089 20.1003 11.3318 16.7476V16.743Z" fill="#F3F3F3"/>
<path opacity="0.13" d="M11.0147 16.4161C13.0408 13.0634 16.1842 10.743 19.8673 9.88112C20.8804 9.64436 21.9124 9.52597 22.9302 9.52597C28.185 9.52597 32.8291 12.4952 35.2671 17.1359C35.3618 17.3158 35.4944 17.5809 35.5843 17.7704C35.6695 17.5951 35.7926 17.3394 35.8873 17.169C38.3442 12.4999 43.0309 9.52597 48.2289 9.52597C53.4269 9.52597 58.1372 12.5141 60.5942 17.2069C60.6794 17.3726 60.8025 17.6188 60.883 17.7893C60.9729 17.6046 61.1055 17.3394 61.2002 17.1595C63.6571 12.5567 68.3675 9.52597 73.5276 9.52597C74.5454 9.52597 75.5727 9.64447 76.5716 9.8765C84.1839 11.657 88.9984 19.6172 87.3131 27.6247L77.1917 75.5706C75.8757 81.8023 70.886 86.4524 64.9116 87.1249C64.6229 87.158 64.3294 87.1816 64.0406 87.1958C63.7897 87.2101 63.5482 87.2149 63.3068 87.2102C57.7396 87.1676 52.7736 83.7059 50.5344 78.4354C50.3356 77.9855 50.0941 77.3083 49.9426 76.83L48.4514 72.1279L48.1958 71.5311L46.4489 77.048C44.5222 83.1283 39.1301 87.2148 33.0327 87.2148C32.8054 87.2148 32.5782 87.2101 32.351 87.1958C26.0121 86.8691 20.6342 82.0722 19.2613 75.5706L9.14471 27.6247C8.32573 23.7464 8.98849 19.764 11.0147 16.4161Z" fill="#EFEFEF"/>
<path opacity="0.16" d="M10.7022 16.0846C12.7284 12.7367 15.867 10.4163 19.5454 9.5545C20.5585 9.31773 21.5857 9.19934 22.6036 9.19934C27.8583 9.19934 32.5072 12.1732 34.9405 16.8234C35.0351 16.9986 35.1724 17.2779 35.2576 17.4578C35.3381 17.2874 35.4707 17.0222 35.5606 16.8564C38.0176 12.1779 42.7043 9.19934 47.9023 9.19934C53.1002 9.19934 57.8153 12.1921 60.2628 16.8943C60.348 17.0506 60.4758 17.3158 60.5516 17.4768C60.6368 17.2968 60.7741 17.0223 60.8688 16.8518C63.3257 12.2395 68.0361 9.2042 73.1962 9.2042C74.214 9.2042 75.2366 9.32246 76.2402 9.5545C83.8478 11.335 88.6576 19.2905 86.9722 27.2886L76.8509 75.2344C75.5348 81.471 70.5357 86.1209 64.5519 86.7839C64.2631 86.817 63.9743 86.8409 63.6855 86.8551C63.4346 86.8646 63.1932 86.8692 62.947 86.8692C57.3751 86.8171 52.4138 83.3366 50.1888 78.0519C49.9994 77.6209 49.7438 76.9059 49.597 76.4419L48.1058 71.7349L47.8502 71.1904L46.1033 76.7166C44.1766 82.7921 38.7892 86.8741 32.6965 86.8741C32.4693 86.8741 32.2421 86.8693 32.0148 86.8551C25.6854 86.5284 20.3076 81.736 18.9347 75.2391L8.81805 27.2932C7.99907 23.4197 8.66183 19.442 10.688 16.0941L10.7022 16.0846Z" fill="#EBEBEB"/>
<path opacity="0.19" d="M10.3851 15.7536C12.4065 12.4057 15.5452 10.09 19.2236 9.23293C20.2366 8.99616 21.2639 8.87778 22.2817 8.87778C27.5365 8.87778 32.1901 11.8565 34.6186 16.5161C34.7086 16.6819 34.8506 16.9754 34.9358 17.1506C35.0116 16.9896 35.1536 16.7055 35.2388 16.5492C37.691 11.8612 42.3777 8.88263 47.5804 8.88263C52.7831 8.88263 57.4935 11.8754 59.941 16.5871C60.0215 16.7387 60.1588 17.0133 60.2298 17.1696C60.3103 16.9991 60.457 16.7103 60.547 16.5446C62.9992 11.9228 67.719 8.88263 72.8744 8.88263C73.8922 8.88263 74.9147 9.0009 75.9136 9.23293C83.5118 11.0134 88.3215 18.9596 86.6362 26.953L76.5149 74.8988C75.1988 81.14 70.1902 85.79 64.1969 86.4388C63.9129 86.4719 63.6241 86.4909 63.3353 86.5051C63.0844 86.5146 62.8382 86.5194 62.5968 86.5194C57.0248 86.4579 52.0636 82.963 49.8575 77.6593C49.6729 77.2426 49.4078 76.4897 49.2705 76.0493L47.7793 71.3378L47.5236 70.8453L45.772 76.376C43.85 82.4468 38.4674 86.5289 32.3747 86.5289C32.1475 86.5289 31.9202 86.5242 31.693 86.51C25.3683 86.188 19.9952 81.3957 18.6271 74.8988L8.51044 26.953C7.69145 23.0794 8.35421 19.1063 10.3804 15.7584L10.3851 15.7536Z" fill="#E6E7E7"/>
<path opacity="0.23" d="M10.0727 15.4269C12.0941 12.0837 15.228 9.76818 18.9016 8.91108C19.9147 8.67431 20.942 8.56055 21.9551 8.56055C27.2099 8.56055 31.8682 11.5392 34.292 16.213C34.3772 16.374 34.5287 16.6817 34.6092 16.8475C34.6849 16.6912 34.8317 16.3976 34.9121 16.2461C37.3596 11.5486 42.0511 8.5654 47.2538 8.5654C52.4565 8.5654 57.1716 11.5628 59.6143 16.284C59.6901 16.4308 59.8321 16.7198 59.9031 16.8713C59.9836 16.7056 60.1351 16.4023 60.2203 16.2461C62.6678 11.6149 67.3924 8.57003 72.5477 8.57003C73.5655 8.57003 74.5881 8.68852 75.587 8.92056C83.1804 10.6963 87.9854 18.6424 86.3001 26.6262L76.1787 74.5721C74.8627 80.818 69.8399 85.4729 63.8418 86.1074C63.5578 86.1406 63.2737 86.1596 62.985 86.1738C62.7341 86.1832 62.4879 86.1878 62.2465 86.183C56.6698 86.112 51.7132 82.5984 49.5214 77.2806C49.3462 76.8828 49.0716 76.0919 48.9344 75.6657L47.4384 70.9493L47.1828 70.5091L45.4312 76.0447C43.5091 82.1107 38.1313 86.1879 32.048 86.1879C31.8208 86.1879 31.5936 86.1831 31.3711 86.1689C25.0511 85.8469 19.6827 81.0547 18.3146 74.5672L8.19797 26.6214C7.37899 22.7526 8.04649 18.7795 10.0632 15.4363L10.0727 15.4269Z" fill="#E2E3E3"/>
<path opacity="0.26" d="M9.75539 15.0952C11.7768 11.752 14.9108 9.44111 18.5796 8.58401C19.588 8.35197 20.6153 8.23348 21.6331 8.23348C26.8926 8.23348 31.5509 11.2169 33.9747 15.8954C34.0552 16.0517 34.2114 16.3689 34.2872 16.5299C34.3582 16.3784 34.5097 16.0707 34.5901 15.9239C37.0329 11.2169 41.7291 8.22885 46.9318 8.22885C52.1345 8.22885 56.8543 11.2311 59.2923 15.9618C59.3681 16.1038 59.5148 16.4068 59.5858 16.5488C59.6616 16.3926 59.8178 16.0754 59.903 15.9239C62.3458 11.2832 67.0751 8.23348 72.2352 8.23348C73.253 8.23348 74.2708 8.35197 75.2697 8.58401C82.8584 10.3598 87.6587 18.2962 85.9781 26.2754L75.8567 74.2212C74.5359 80.4719 69.5084 85.1268 63.5009 85.7519C63.2169 85.7803 62.9375 85.8039 62.6535 85.8134C62.4026 85.8229 62.1564 85.8276 61.915 85.8229C56.3336 85.7376 51.3818 82.2098 49.2041 76.873C49.0337 76.4895 48.7496 75.6654 48.6218 75.2582L47.1259 70.5371L46.8702 70.1487L45.1139 75.6892C43.1919 81.7505 37.8188 85.8275 31.7403 85.8275C31.513 85.8275 31.2858 85.823 31.0633 85.8088C24.7481 85.4868 19.3844 80.6993 18.0163 74.2166L7.89965 26.2707C7.0854 22.4067 7.74816 18.4384 9.76486 15.0952H9.75539Z" fill="#DEDFE0"/>
<path opacity="0.29" d="M9.43819 14.7637C11.4549 11.4252 14.5888 9.11448 18.2577 8.25738C19.266 8.02534 20.2933 7.90685 21.3064 7.90685C26.5659 7.90685 31.2242 10.8949 33.648 15.5829C33.7285 15.7297 33.8895 16.0658 33.9605 16.2174C34.0268 16.0753 34.1877 15.7487 34.2635 15.6113C36.7062 10.8949 41.3977 7.90222 46.6051 7.90222C51.8125 7.90222 56.5276 10.9043 58.9657 15.6444C59.0367 15.777 59.1929 16.0944 59.2592 16.2317C59.3302 16.0802 59.4959 15.7488 59.5764 15.6067C62.0144 10.9566 66.7484 7.90222 71.9085 7.90222C72.9263 7.90222 73.9442 8.0206 74.943 8.2479C82.527 10.0237 87.3225 17.9505 85.642 25.9249L75.5206 73.8707C74.1998 80.1262 69.1628 84.7811 63.1458 85.392C62.8665 85.4204 62.5825 85.4442 62.3032 85.4537C62.0523 85.4632 61.8061 85.4679 61.5647 85.4632C55.9832 85.3685 51.0314 81.8263 48.868 76.4706C48.707 76.1059 48.4088 75.2441 48.2857 74.8511L46.7897 70.1252L46.5341 69.789L44.7778 75.3387C42.8605 81.3953 37.4874 85.4678 31.4136 85.4678C31.1863 85.4678 30.9639 85.4631 30.7366 85.4489C24.4261 85.1268 19.0672 80.3441 17.6991 73.8661L7.58245 25.9203C6.7682 22.0562 7.43096 18.0927 9.44766 14.7542L9.43819 14.7637Z" fill="#DADBDC"/>
<path opacity="0.32" d="M9.12579 14.4372C11.1425 11.0988 14.2717 8.79263 17.9358 7.93552C18.9442 7.70349 19.9715 7.58499 20.9846 7.58499C26.2441 7.58499 30.9071 10.5731 33.3262 15.2754C33.4019 15.4174 33.5723 15.763 33.6386 15.9098C33.7049 15.7725 33.8706 15.4364 33.9416 15.3038C36.3796 10.5779 41.0758 7.58499 46.2832 7.58499C51.4907 7.58499 56.2105 10.5921 58.6438 15.3417C58.7101 15.4696 58.871 15.8011 58.9373 15.9337C59.0083 15.7916 59.1787 15.4458 59.2545 15.3084C61.6878 10.6488 66.4313 7.58985 71.5867 7.58985C72.5997 7.58985 73.6223 7.70822 74.6164 7.93552C82.1909 9.70656 86.9865 17.6335 85.3059 25.5984L75.1845 73.5443C73.8637 79.8044 68.8125 84.4642 62.7908 85.0609C62.5115 85.0893 62.2322 85.1082 61.9529 85.1224C61.702 85.1318 61.4558 85.1317 61.2096 85.127C55.6235 85.0228 50.6717 81.462 48.5319 76.0921C48.3757 75.7416 48.068 74.8417 47.9544 74.4724L46.4584 69.7418L46.2028 69.4577L44.4464 75.0123C42.5291 81.0641 37.1607 85.1319 31.0917 85.1319C30.8645 85.1319 30.642 85.1271 30.4147 85.1129C24.109 84.7909 18.7548 80.0129 17.3867 73.5396L7.27005 25.5938C6.4558 21.7345 7.11856 17.7709 9.13053 14.4372H9.12579Z" fill="#D6D7D8"/>
<path opacity="0.35" d="M8.8086 14.105C10.8253 10.7713 13.9498 8.46526 17.6139 7.60816C18.6223 7.37613 19.6448 7.25763 20.6579 7.25763C25.9174 7.25763 30.5852 10.2504 32.9995 14.9621C33.0705 15.0947 33.2457 15.4595 33.312 15.5968C33.3735 15.469 33.5439 15.1137 33.6149 14.9906C36.0482 10.2552 40.7444 7.25763 45.9566 7.25763C51.1688 7.25763 55.8886 10.2695 58.3171 15.0239C58.3834 15.147 58.5491 15.4927 58.6107 15.6158C58.6769 15.4785 58.8521 15.1231 58.9278 14.9906C61.3611 10.3215 66.1046 7.25763 71.26 7.25763C72.2731 7.25763 73.2909 7.376 74.2898 7.6033C81.8595 9.37434 86.6503 17.2919 84.9698 25.2521L74.8484 73.1979C73.5276 79.4629 68.4669 84.1225 62.4358 84.7097C62.1564 84.7381 61.8819 84.7571 61.6026 84.7666C61.3517 84.776 61.1055 84.7759 60.8593 84.7712C55.2732 84.6575 50.3214 81.0776 48.1958 75.6935C48.049 75.362 47.7318 74.4246 47.6182 74.0694L46.1175 69.334L45.8619 69.1019L44.1008 74.6613C42.1836 80.7084 36.8246 84.7761 30.7556 84.7761C30.5331 84.7761 30.3059 84.7713 30.0786 84.7571C23.7776 84.4351 18.4282 79.6618 17.06 73.1933L6.94339 25.2475C6.12914 21.3929 6.7919 17.4293 8.80387 14.1004L8.8086 14.105Z" fill="#D2D3D4"/>
<path opacity="0.39" d="M8.49607 13.774C10.508 10.445 13.6325 8.1389 17.2919 7.28179C18.3003 7.04976 19.3228 6.93126 20.3359 6.93126C25.5954 6.93126 30.2679 9.9289 32.6775 14.6501C32.7438 14.7779 32.9284 15.152 32.99 15.2846C33.0468 15.1614 33.2267 14.7968 33.2929 14.6737C35.7215 9.92881 40.4224 6.92664 45.6346 6.92664C50.8468 6.92664 55.5713 9.9382 57.9951 14.7067C58.0567 14.8204 58.2318 15.1804 58.2887 15.3035C58.3502 15.1757 58.5348 14.8014 58.6011 14.6783C61.0297 9.99973 65.7779 6.93126 70.9333 6.93126C71.9463 6.93126 72.9642 7.04964 73.9583 7.27693C81.5233 9.04797 86.3094 16.9608 84.6336 24.9163L74.5122 72.8621C73.1867 79.1317 68.1212 83.7914 62.0806 84.3644C61.806 84.3928 61.5315 84.4118 61.2569 84.4212C61.006 84.4307 60.7598 84.4307 60.5137 84.4212C54.9228 84.2934 49.9757 80.6991 47.8643 75.3008C47.727 74.9835 47.3956 74.0129 47.2915 73.6767L45.7908 68.9364L45.5352 68.7614L43.7741 74.3301C41.8616 80.3725 36.5026 84.4353 30.4383 84.4353C30.2158 84.4353 29.9886 84.4306 29.7614 84.4164C23.4651 84.0944 18.1156 79.3212 16.7522 72.8621L6.63559 24.9163C5.82134 21.0617 6.4841 17.1077 8.49607 13.774Z" fill="#CECFD0"/>
<path opacity="0.42" d="M8.1789 13.4473C10.1909 10.1183 13.3106 7.81684 16.97 6.95973C17.9736 6.7277 19.0009 6.60944 20.014 6.60944C25.2782 6.60944 29.9507 9.61148 32.3556 14.3421C32.4219 14.4653 32.6065 14.849 32.6681 14.9768C32.7249 14.8584 32.9095 14.4796 32.971 14.3659C35.3996 9.61162 40.0958 6.60944 45.3127 6.60944C50.5296 6.60944 55.2494 9.62574 57.6732 14.399C57.7301 14.5079 57.9147 14.8821 57.9668 14.9958C58.0283 14.8727 58.2177 14.489 58.2792 14.3706C60.703 9.68254 65.456 6.60944 70.6114 6.60944C71.6244 6.60944 72.6423 6.72781 73.6364 6.95511C81.1967 8.72615 85.978 16.6294 84.3022 24.5801L74.1808 72.5259C72.8553 78.8003 67.7757 83.4601 61.7303 84.0236C61.4557 84.052 61.1812 84.0661 60.9113 84.0756C60.6604 84.0851 60.4142 84.0851 60.1681 84.0756C54.5724 83.9383 49.6301 80.3299 47.5329 74.9126C47.4004 74.6143 47.0595 73.6009 46.9601 73.2836L45.4594 68.5388L45.2038 68.4158L43.438 73.9891C41.5254 80.0267 36.1713 84.0851 30.1164 84.0851C29.8939 84.0851 29.6667 84.0803 29.4395 84.0661C23.1479 83.7441 17.8032 78.9756 16.4445 72.5213L6.32789 24.5755C5.51364 20.7256 6.17641 16.7714 8.18364 13.4425L8.1789 13.4473Z" fill="#CACBCC"/>
<path opacity="0.45" d="M7.86174 13.1161C9.8737 9.79181 12.9934 7.48571 16.6434 6.63334C17.647 6.4013 18.6695 6.28281 19.6826 6.28281C24.9469 6.28281 29.6241 9.28521 32.0243 14.0301C32.0858 14.1437 32.2799 14.5462 32.3367 14.6645C32.3888 14.5556 32.5829 14.1626 32.6397 14.0537C35.0635 9.28985 39.7644 6.28281 44.9813 6.28281C50.1982 6.28281 54.9228 9.29924 57.3419 14.0867C57.3987 14.1909 57.5833 14.5793 57.6354 14.6835C57.6922 14.5651 57.8863 14.1674 57.9478 14.0585C60.3669 9.361 65.1294 6.28281 70.28 6.28281C71.2931 6.28281 72.3062 6.40118 73.3003 6.62848C80.8511 8.39478 85.6325 16.2936 83.9566 24.2396L73.8353 72.1854C72.5097 78.4693 67.4206 83.1289 61.3658 83.6782C61.0912 83.7019 60.8214 83.7208 60.5516 83.7302C60.3007 83.7397 60.0497 83.7397 59.8083 83.7302C54.2127 83.5834 49.2703 79.9562 47.1921 74.5247C47.069 74.2405 46.7187 73.1941 46.624 72.8957L45.1186 68.146L44.863 68.075L43.0972 73.6532C41.1846 79.6861 35.8352 83.7443 29.7851 83.7443C29.5626 83.7443 29.3353 83.7396 29.1081 83.7254C22.8213 83.4034 17.4813 78.6396 16.1226 72.19L6.006 24.2442C5.19174 20.3991 5.85451 16.4452 7.86174 13.1209V13.1161Z" fill="#C6C7C8"/>
<path opacity="0.48" d="M7.54931 12.7838C9.55654 9.4596 12.6763 7.15834 16.3262 6.30597C17.3298 6.07394 18.3524 5.95544 19.3655 5.95544C24.6297 5.95544 29.3117 8.96248 31.7071 13.7168C31.7639 13.8257 31.9627 14.2376 32.0195 14.3513C32.0716 14.2471 32.2657 13.8398 32.3225 13.7404C34.7416 8.96712 39.4472 5.95544 44.6642 5.95544C49.8811 5.95544 54.6104 8.97674 57.0247 13.7737C57.0768 13.8731 57.2709 14.2757 57.3182 14.3751C57.3703 14.2662 57.5739 13.8541 57.6307 13.7499C60.045 9.0429 64.8122 5.9603 69.9676 5.9603C70.9807 5.9603 71.9937 6.07868 72.9879 6.30597C80.5339 8.07227 85.3106 15.9662 83.6347 23.9028L73.5134 71.8486C72.1878 78.1372 67.0893 82.7968 61.025 83.3319C60.7551 83.3556 60.4853 83.3745 60.2155 83.3839C59.9646 83.3934 59.7136 83.3887 59.4675 83.3839C53.8671 83.2277 48.9295 79.5813 46.8655 74.1356C46.7471 73.8704 46.3873 72.7861 46.2974 72.502L44.792 67.7477L44.5363 67.7287L42.7658 73.3164C40.858 79.3445 35.5085 83.398 29.4632 83.398C29.2407 83.398 29.0134 83.3933 28.7862 83.3791C22.5041 83.0571 17.1689 78.2981 15.8102 71.8532L5.69357 23.9074C4.88405 20.0622 5.54208 16.1176 7.54931 12.7933V12.7838Z" fill="#C2C3C4"/>
<path opacity="0.52" d="M7.23223 12.4572C9.23946 9.1377 12.3545 6.83634 15.9997 5.98397C17.0033 5.75193 18.0258 5.63367 19.0342 5.63367C24.2984 5.63367 28.9851 8.64534 31.3805 13.4091C31.4326 13.5086 31.6409 13.9394 31.6883 14.0436C31.7356 13.9442 31.9392 13.5228 31.9912 13.4281C34.4056 8.64062 39.1112 5.62881 44.3329 5.62881C49.5545 5.62881 54.2791 8.65486 56.6887 13.4565C56.736 13.5465 56.9396 13.9632 56.9822 14.0579C57.0295 13.9538 57.2378 13.5322 57.2947 13.4327C59.7043 8.71154 64.4762 5.62881 69.6315 5.62881C70.6399 5.62881 71.6577 5.74719 72.6471 5.97449C80.1884 7.74079 84.9604 15.6252 83.2892 23.5569L73.1679 71.5028C71.8423 77.7961 66.7296 82.4558 60.6653 82.9815C60.3954 83.0051 60.1303 83.0241 59.8652 83.0289C59.6143 83.0336 59.3634 83.0336 59.1173 83.0289C53.5169 82.8631 48.5793 79.2026 46.5295 73.738C46.4206 73.487 46.0466 72.3693 45.9661 72.1042L44.4607 67.3452L44.205 67.3783L42.4345 72.9708C40.5267 78.9942 35.1867 83.043 29.1413 83.043C28.9188 83.043 28.6916 83.0382 28.4691 83.024C22.1918 82.702 16.8613 77.9476 15.5026 71.5028L5.38595 23.5569C4.57643 19.7165 5.23447 15.7721 7.2417 12.4526L7.23223 12.4572Z" fill="#BDBEC0"/>
<path opacity="0.55" d="M6.91495 12.1262C8.92218 8.80666 12.0324 6.50992 15.6776 5.65755C16.6813 5.42552 17.6991 5.30725 18.7122 5.30725C23.9764 5.30725 28.6631 8.31882 31.0585 13.0968C31.1106 13.1915 31.3236 13.6319 31.3662 13.7313C31.4088 13.6413 31.6219 13.2058 31.6692 13.1158C34.0788 8.31884 38.7892 5.30725 44.0108 5.30725C49.2325 5.30725 53.9618 8.33296 56.3667 13.1489C56.414 13.2341 56.6176 13.665 56.6602 13.7503C56.7075 13.6555 56.9206 13.2152 56.9726 13.1253C59.3823 8.39461 64.1542 5.30725 69.3095 5.30725C70.3179 5.30725 71.331 5.42563 72.3251 5.65293C79.8617 7.41449 84.6289 15.2987 82.9578 23.221L72.8364 71.1669C71.5061 77.4649 66.3886 82.1293 60.3149 82.6407C60.045 82.6644 59.7847 82.6786 59.5196 82.6881C59.2686 82.6928 59.0177 82.6928 58.7716 82.6881C53.1665 82.5082 48.2289 78.8335 46.198 73.3547C46.0938 73.1226 45.7151 71.9625 45.6346 71.7162L44.1245 66.9524L43.8688 67.0377L42.0983 72.6349C40.1905 78.6536 34.8552 82.7024 28.8146 82.7024C28.5921 82.7024 28.3649 82.6977 28.1424 82.6835C21.8698 82.3662 16.544 77.6118 15.1853 71.1717L5.06867 23.2259C4.25915 19.3855 4.91719 15.4457 6.91968 12.1262H6.91495Z" fill="#B9BABC"/>
<path opacity="0.58" d="M6.6026 11.7942C8.60509 8.47941 11.7154 6.18279 15.3606 5.33042C16.3642 5.09838 17.382 4.97989 18.3903 4.97989C23.6593 4.97989 28.346 7.99632 30.7367 12.7838C30.784 12.869 31.0018 13.3285 31.0444 13.4185C31.087 13.3333 31.3048 12.8833 31.3474 12.8028C33.757 7.99634 38.4627 4.97989 43.689 4.97989C48.9154 4.97989 53.6447 8.01058 56.0449 12.8312C56.0875 12.9117 56.3005 13.357 56.3384 13.4375C56.381 13.3475 56.6035 12.8975 56.6508 12.8122C59.0557 8.07212 63.8371 4.97989 68.9877 4.97989C69.9961 4.97989 71.0091 5.09826 71.9986 5.32556C79.5257 7.08713 84.2928 14.9622 82.6217 22.8798L72.5004 70.8256C71.1701 77.1284 66.0431 81.7928 59.9599 82.29C59.6948 82.3137 59.4297 82.3278 59.1693 82.3325C58.9184 82.3373 58.6675 82.3325 58.4213 82.3325C52.8162 82.1431 47.8786 78.4496 45.8667 72.9565C45.772 72.7387 45.3791 71.5454 45.3081 71.3181L43.7979 66.5494L43.5423 66.6868L41.767 72.2888C39.8639 78.3027 34.5287 82.3469 28.4975 82.3469C28.275 82.3469 28.0478 82.3421 27.8253 82.3279C21.5574 82.0106 16.2364 77.2563 14.8777 70.8256L4.76106 22.8798C3.95154 19.0441 4.60957 15.1043 6.61207 11.7896L6.6026 11.7942Z" fill="#B5B6B8"/>
<path opacity="0.61" d="M6.28537 11.4678C8.28787 8.15299 11.3934 5.86099 15.0339 5.00862C16.0327 4.77659 17.0506 4.65833 18.0637 4.65833C23.3326 4.65833 28.0241 7.67939 30.41 12.4763C30.4526 12.5568 30.6799 13.0258 30.7177 13.111C30.7556 13.0353 30.9781 12.5711 31.0207 12.4953C33.4256 7.67941 38.136 4.65833 43.3623 4.65833C48.5887 4.65833 53.318 7.69365 55.7182 12.5237C55.756 12.5948 55.9785 13.0542 56.0117 13.13C56.0495 13.0495 56.2768 12.5805 56.3194 12.5048C58.7195 7.75519 63.5057 4.66295 68.6563 4.66295C69.6646 4.66295 70.6777 4.78133 71.6671 5.00862C79.1895 6.77019 83.952 14.6404 82.2808 22.5485L72.1595 70.4943C70.8292 76.8019 65.688 81.4663 59.6001 81.9541C59.335 81.9778 59.0746 81.9919 58.8142 81.9966C58.5586 82.0014 58.3124 81.9967 58.0662 81.992C52.4564 81.7931 47.5236 78.0805 45.5258 72.5732C45.4358 72.3744 45.0334 71.1431 44.9672 70.93L43.457 66.1569L43.2014 66.3463L41.4261 71.9577C39.523 77.9669 34.1925 82.0061 28.1661 82.0061C27.9436 82.0061 27.7164 82.0014 27.4939 81.9871C21.2307 81.6699 15.9144 76.9203 14.5557 70.4943L4.4391 22.5485C3.62958 18.7176 4.28761 14.7825 6.2901 11.4678H6.28537Z" fill="#B1B2B4"/>
<path opacity="0.65" d="M5.97286 11.136C7.97536 7.826 11.0761 5.53412 14.7166 4.68175C15.7155 4.44972 16.7333 4.33145 17.7417 4.33145C23.0107 4.33145 27.7068 7.35739 30.088 12.1638C30.1259 12.2396 30.3579 12.7225 30.3957 12.7983C30.4289 12.7272 30.6609 12.2489 30.6987 12.1779C33.0989 7.35255 37.8092 4.3266 43.0404 4.3266C48.2715 4.3266 53.0008 7.36193 55.3962 12.2015C55.4293 12.2678 55.6613 12.7413 55.6897 12.8124C55.7276 12.7366 55.9595 12.2584 55.9974 12.1874C58.3928 7.42833 63.1837 4.33145 68.3343 4.33145C69.3427 4.33145 70.351 4.44983 71.3404 4.67713C78.8581 6.43396 83.6158 14.2993 81.9494 22.2027L71.828 70.1485C70.4978 76.4608 65.3471 81.1299 59.2497 81.6034C58.9846 81.6271 58.7289 81.6367 58.4686 81.6462C58.2129 81.6509 57.9668 81.646 57.7159 81.6413C52.1013 81.433 47.1732 77.7062 45.1896 72.18C45.1091 71.9953 44.6973 70.7311 44.6357 70.537L43.1208 65.7588L42.8605 66.0004L41.0805 71.6165C39.1774 77.621 33.8516 81.6603 27.8299 81.6603C27.6074 81.6603 27.3802 81.6555 27.1577 81.6413C20.8993 81.324 15.5877 76.5792 14.2338 70.158L4.11712 22.2122C3.3076 18.3812 3.96563 14.4509 5.96339 11.1409L5.97286 11.136Z" fill="#ADAEB0"/>
<path opacity="0.68" d="M5.65574 10.805C7.6535 7.49495 10.759 5.2077 14.39 4.35533C15.3889 4.1233 16.4067 4.00504 17.4151 4.00504C22.6841 4.00504 27.385 7.03087 29.7614 11.8515C29.7993 11.9178 30.036 12.4149 30.0692 12.486C30.1023 12.4197 30.339 11.9272 30.3721 11.8656C32.7676 7.03076 37.4827 4.00504 42.7138 4.00504C47.9449 4.00504 52.6789 7.045 55.0696 11.894C55.1027 11.9556 55.3347 12.4434 55.3678 12.5049C55.401 12.4386 55.6424 11.9462 55.6756 11.8799C58.0662 7.1114 62.8618 4.00966 68.0125 4.00966C69.0208 4.00966 70.0292 4.12804 71.0186 4.35533C78.5315 6.11216 83.2844 13.9683 81.6181 21.8717L71.4967 69.8175C70.1617 76.1345 65.0063 80.8035 58.8994 81.2629C58.6391 81.2818 58.3834 81.2961 58.1278 81.3008C57.8721 81.3008 57.626 81.3008 57.3751 81.2913C51.7605 81.0735 46.8324 77.3276 44.8678 71.7872C44.792 71.6215 44.3707 70.3145 44.3139 70.1393L42.799 65.3565L42.5386 65.6502L40.7586 71.2712C38.8555 77.2709 33.5345 81.3054 27.5175 81.3054C27.295 81.3054 27.0678 81.3007 26.8453 81.2865C20.5916 80.9692 15.2848 76.2291 13.9308 69.8126L3.8142 21.8668C3.00468 18.0406 3.66271 14.1103 5.66047 10.805H5.65574Z" fill="#A9AAAC"/>
<path opacity="0.71" d="M5.33851 10.4785C7.33627 7.17324 10.4371 4.886 14.0681 4.03837C15.0669 3.80633 16.08 3.68784 17.0884 3.68784C22.3574 3.68784 27.063 6.71853 29.4347 11.5486C29.4679 11.6102 29.7093 12.1218 29.7425 12.1833C29.7709 12.1265 30.0123 11.6198 30.0454 11.563C32.4409 6.71866 37.156 3.68784 42.3871 3.68784C47.6182 3.68784 52.3522 6.73289 54.7429 11.5914C54.7713 11.6482 55.0127 12.1452 55.0411 12.2021C55.0695 12.1405 55.3157 11.6339 55.3489 11.5771C57.7348 6.79906 62.5351 3.69269 67.6905 3.69269C68.6941 3.69269 69.7072 3.80633 70.6919 4.03837C78.1953 5.7952 82.9483 13.6465 81.2819 21.5403L71.1605 69.4862C69.8255 75.8079 64.656 80.4771 58.5443 80.9269C58.284 80.9459 58.0331 80.9601 57.7774 80.9649C57.5218 80.9649 57.2709 80.9649 57.0247 80.9554C51.4054 80.7234 46.482 76.9634 44.5316 71.4088C44.4653 71.2572 44.0298 69.917 43.9824 69.756L42.4675 64.9686L42.2072 65.3143L40.4272 70.9447C38.5288 76.9397 33.2125 80.9695 27.1955 80.9695C26.973 80.9695 26.7458 80.9647 26.5233 80.9505C20.2744 80.6333 14.9723 75.8979 13.6183 69.4862L3.5017 21.5403C2.69218 17.7189 3.35021 13.7933 5.34797 10.488L5.33851 10.4785Z" fill="#A5A6A8"/>
<path opacity="0.74" d="M5.02607 10.1463C7.02383 6.84102 10.1199 4.55864 13.7462 3.711C14.745 3.47897 15.7581 3.36047 16.7665 3.36047C22.0355 3.36047 26.7458 6.39603 29.1128 11.2356C29.1412 11.2877 29.3922 11.8132 29.4206 11.8701C29.4442 11.818 29.6951 11.2971 29.7235 11.2497C32.1142 6.39593 36.8293 3.36047 42.0652 3.36047C47.301 3.36047 52.035 6.40531 54.421 11.2733C54.4447 11.3206 54.6956 11.8369 54.7192 11.889C54.7476 11.8322 54.9986 11.3159 55.027 11.2638C57.4129 6.47633 62.2179 3.36533 67.3686 3.36533C68.3722 3.36533 69.3805 3.47897 70.37 3.711C77.8687 5.46783 82.6169 13.3095 80.9505 21.1987L70.8292 69.1445C69.4942 75.4709 64.3151 80.1401 58.194 80.5758C57.9384 80.5947 57.6827 80.6043 57.4318 80.6091C57.1762 80.6091 56.9253 80.6091 56.6791 80.5996C51.0598 80.3581 46.1364 76.5838 44.2002 71.0056C44.1434 70.873 43.6984 69.4951 43.6511 69.353L42.1314 64.5608L41.8711 64.9585L40.0863 70.5935C38.188 76.5838 32.8764 80.6137 26.8642 80.6137C26.6417 80.6137 26.4192 80.6089 26.1919 80.5947C19.9478 80.2775 14.6456 75.5468 13.2964 69.1398L3.1798 21.194C2.37501 17.3726 3.02831 13.4516 5.02134 10.1463H5.02607Z" fill="#A1A2A4"/>
<path opacity="0.77" d="M4.70887 9.81528C6.7019 6.51471 9.79796 4.23222 13.4242 3.38458C14.4184 3.15255 15.4362 3.03891 16.4398 3.03891C21.7135 3.03891 26.4239 6.07414 28.7862 10.9279C28.8098 10.9753 29.0702 11.5105 29.0892 11.5626C29.1128 11.5153 29.3685 10.9847 29.3921 10.9374C31.7781 6.07415 36.4979 3.03891 41.7338 3.03891C46.9696 3.03891 51.7084 6.08838 54.0896 10.9658C54.1133 11.0085 54.3642 11.539 54.3878 11.5816C54.4115 11.5342 54.6719 10.999 54.6956 10.9564C57.0768 6.1594 61.8865 3.04353 67.0372 3.04353C68.0408 3.04353 69.0491 3.15717 70.0338 3.38921C77.5278 5.1413 82.2713 12.9831 80.6097 20.8627L70.4883 68.8086C69.1533 75.1398 63.9648 79.8138 57.8342 80.2352C57.5786 80.2542 57.3277 80.2636 57.0768 80.2683C56.8211 80.2683 56.5702 80.2684 56.3193 80.2542C50.6953 80.0032 45.7719 76.2101 43.8546 70.6176C43.8025 70.4992 43.3481 69.0881 43.3102 68.9602L41.7906 64.1631L41.5302 64.6179L39.7455 70.2576C37.8471 76.2432 32.5403 80.2683 26.5375 80.2683C26.315 80.2683 26.0925 80.2635 25.8653 80.2493C19.6258 79.9321 14.3284 75.2015 12.9792 68.8039L2.8626 20.8581C2.05781 17.0414 2.71111 13.1205 4.70414 9.8199L4.70887 9.81528Z" fill="#9D9EA1"/>
<path opacity="0.81" d="M4.39645 9.48813C6.38948 6.1923 9.4808 3.90992 13.1071 3.06229C14.1012 2.83025 15.1143 2.71661 16.1227 2.71661C21.3964 2.71661 26.1115 5.75671 28.4738 10.62C28.4974 10.6626 28.7578 11.2118 28.7767 11.2544C28.7957 11.2165 29.0608 10.6673 29.0797 10.6294C31.4609 5.75672 36.1808 2.71661 41.4213 2.71661C46.6619 2.71661 51.396 5.76609 53.7772 10.653C53.7961 10.6909 54.0565 11.2309 54.0754 11.2688C54.0944 11.2261 54.3595 10.6817 54.3831 10.6438C56.7596 5.83735 61.5741 2.71661 66.7248 2.71661C67.7284 2.71661 68.7367 2.83025 69.7214 3.06229C77.2106 4.81438 81.9494 12.6468 80.2878 20.5217L70.1664 68.4675C68.8314 74.8035 63.6287 79.4774 57.4934 79.8894C57.2377 79.9083 56.9916 79.9177 56.7454 79.9224C56.4898 79.9224 56.2389 79.9223 55.988 79.9081C50.3592 79.6476 45.4405 75.8357 43.5422 70.229C43.4996 70.1295 43.0309 68.6758 42.9978 68.5716L41.4781 63.7701L41.2178 64.2767L39.4283 69.9261C37.5347 75.9069 32.2278 79.927 26.2298 79.927C26.0073 79.927 25.7848 79.9223 25.5576 79.9081C19.3276 79.5908 14.0302 74.8651 12.681 68.4675L2.56438 20.5217C1.75959 16.705 2.41289 12.7888 4.40592 9.49298L4.39645 9.48813Z" fill="#999A9D"/>
<path opacity="0.84" d="M4.07919 9.15687C6.07222 5.86104 9.15881 3.57856 12.7803 2.73566C13.7745 2.50362 14.7876 2.38998 15.7912 2.38998C21.0649 2.38998 25.78 5.43471 28.1423 10.3074C28.1612 10.3406 28.4311 10.9042 28.4453 10.9421C28.4595 10.909 28.7293 10.3501 28.7482 10.3169C31.1295 5.43472 35.8493 2.38998 41.0899 2.38998C46.3305 2.38998 51.0692 5.44433 53.4457 10.3407C53.4599 10.3691 53.7297 10.9279 53.7439 10.9611C53.7582 10.9279 54.0327 10.369 54.0517 10.3359C56.4234 5.51998 61.2427 2.39461 66.3933 2.39461C67.3969 2.39461 68.4005 2.50836 69.3852 2.73566C76.865 4.48775 81.6037 12.3105 79.9421 20.1808L69.8207 68.1266C68.481 74.4673 63.2736 79.1411 57.1288 79.5389C56.8779 79.5579 56.6317 79.5674 56.3855 79.5674C56.1299 79.5674 55.879 79.5672 55.6281 79.553C49.9993 79.2831 45.0807 75.4523 43.1965 69.8314C43.1586 69.7461 42.6852 68.2593 42.6568 68.1694L41.1372 63.3628L40.8768 63.9216L39.0874 69.5756C37.1938 75.5564 31.8916 79.572 25.8984 79.572C25.6759 79.572 25.4534 79.5672 25.2309 79.553C19.0056 79.2358 13.713 74.5147 12.3638 68.122L2.24712 20.1761C1.44233 16.3641 2.09563 12.4527 4.08866 9.15687H4.07919Z" fill="#949699"/>
<path opacity="0.87" d="M3.76209 8.82539C5.75039 5.53429 8.84171 3.25193 12.4585 2.40903C13.4527 2.17699 14.4657 2.06335 15.4694 2.06335C20.7431 2.06335 25.4629 5.11295 27.8205 9.99513C27.8347 10.0235 28.1092 10.6012 28.1234 10.6296C28.1376 10.6059 28.4122 10.0283 28.4264 10.0046C30.8029 5.11295 35.5227 2.06335 40.768 2.06335C46.0134 2.06335 50.7521 5.12244 53.1239 10.0236C53.1381 10.0472 53.4079 10.6203 53.4221 10.6439C53.4363 10.6155 53.7109 10.0424 53.7251 10.0187C56.0921 5.19335 60.9208 2.06335 66.0667 2.06335C67.0704 2.06335 68.074 2.17687 69.0586 2.40417C76.5337 4.15153 81.2677 11.9744 79.6061 19.8352L69.4847 67.781C68.145 74.1264 62.9281 78.8051 56.7738 79.1887C56.5229 79.2029 56.2767 79.2122 56.0353 79.2169C55.7797 79.2169 55.5288 79.217 55.2779 79.2028C49.6444 78.9187 44.7304 75.0782 42.8605 69.4384C42.8321 69.3721 42.3445 67.8474 42.3208 67.7764L40.7965 62.9651L40.5361 63.576L38.7466 69.2349C36.853 75.211 31.5603 79.2218 25.5671 79.2218C25.3446 79.2218 25.1221 79.217 24.8996 79.2028C18.679 78.8903 13.3911 74.169 12.0467 67.781L1.93002 19.8352C1.12524 16.0279 1.77853 12.1165 3.76683 8.82539H3.76209Z" fill="#909295"/>
<path opacity="0.9" d="M3.44966 8.49847C5.43796 5.20737 8.52455 2.92963 12.1366 2.08673C13.1308 1.8547 14.1391 1.74106 15.1427 1.74106C20.4164 1.74106 25.141 4.79078 27.4938 9.68717C27.5033 9.70611 27.7873 10.298 27.7968 10.3216C27.8063 10.3027 28.0903 9.71074 28.0998 9.6918C30.4715 4.79067 35.1961 1.74106 40.4414 1.74106C45.6867 1.74106 50.4255 4.80005 52.7925 9.71538C52.802 9.73432 53.0813 10.3215 53.0908 10.3357C53.1002 10.3168 53.3843 9.7297 53.3937 9.71076C55.756 4.87592 60.5895 1.74106 65.7354 1.74106C66.7342 1.74106 67.7426 1.85481 68.7225 2.08211C76.1928 3.82947 80.9221 11.6428 79.2652 19.4988L69.1439 67.4446C67.8041 73.7947 62.573 78.4733 56.4141 78.8474C56.1631 78.8616 55.9217 78.871 55.6803 78.871C55.4246 78.871 55.1737 78.871 54.9228 78.8521C49.2893 78.5585 44.3754 74.6992 42.5197 69.0451C42.496 68.993 41.9989 67.4351 41.9847 67.3782L40.4604 62.5624L40.2 63.2253L38.4058 68.889C36.5169 74.8603 31.2242 78.8664 25.2357 78.8664C25.0132 78.8664 24.7907 78.8616 24.5682 78.8474C18.3524 78.5349 13.0692 73.8184 11.7248 67.4351L1.60812 19.4893C0.803336 15.682 1.45663 11.7753 3.44493 8.48899L3.44966 8.49847Z" fill="#8C8E91"/>
<path opacity="0.94" d="M3.13251 8.16698C5.1208 4.88062 8.20266 2.603 11.8147 1.7601C12.8089 1.52807 13.8172 1.41443 14.8208 1.41443C20.0993 1.41443 24.8239 4.46878 27.1719 9.37465C27.1814 9.38885 27.4654 9.99491 27.4749 10.0091C27.4797 9.99491 27.7684 9.39348 27.7779 9.37927C30.1449 4.46867 34.8742 1.41443 40.1195 1.41443C45.3648 1.41443 50.1083 4.47828 52.4706 9.40309C52.4754 9.41729 52.7641 10.0139 52.7689 10.0281C52.7736 10.0139 53.0671 9.41729 53.0718 9.40309C55.4341 4.55405 60.2676 1.41905 65.4182 1.41905C66.4171 1.41905 67.4207 1.5328 68.4054 1.7601C75.871 3.50746 80.5955 11.3162 78.9386 19.1675L68.8172 67.1133C67.4775 73.4682 62.2369 78.1466 56.0685 78.5065C55.8223 78.5207 55.5809 78.5303 55.3442 78.5303C55.0885 78.5303 54.8376 78.5255 54.582 78.5113C48.9438 78.2083 44.0346 74.3298 42.1978 68.6616C42.1836 68.6284 41.677 67.0281 41.6628 66.9949L40.1385 62.1742L39.8781 62.8892L38.0839 68.5622C36.195 74.5288 30.9071 78.5349 24.928 78.5349C24.7055 78.5349 24.483 78.5302 24.2605 78.516C18.0495 78.2034 12.771 73.4919 11.4265 67.1133L1.3099 19.1675C0.505118 15.365 1.15842 11.4582 3.14671 8.17184L3.13251 8.16698Z" fill="#888A8D"/>
<path opacity="0.97" d="M2.82011 7.83573C4.80367 4.54937 7.88552 2.27637 11.4929 1.43347C12.4823 1.20144 13.4954 1.0878 14.4942 1.0878C19.7727 1.0878 24.502 4.14679 26.8453 9.06212C26.8453 9.06686 27.1436 9.68735 27.1483 9.69682C27.1483 9.69209 27.4466 9.07171 27.4513 9.06698C29.8136 4.14691 34.5429 1.0878 39.7929 1.0878C45.043 1.0878 49.7865 4.1564 52.144 9.08594C52.144 9.09067 52.4423 9.70619 52.4423 9.71093C52.4423 9.70619 52.7405 9.09067 52.7452 9.08594C55.1028 4.22743 59.941 1.0878 65.0916 1.0878C66.0905 1.0878 67.0941 1.20132 68.0741 1.42862C75.5302 3.17598 80.2547 10.9752 78.5978 18.8217L68.4764 66.7675C67.132 73.1272 61.8867 77.8059 55.7087 78.1563C55.4626 78.1705 55.2259 78.1751 54.9892 78.1799C54.7335 78.1799 54.4826 78.1751 54.227 78.1609C48.584 77.8484 43.6796 73.956 41.857 68.2688C41.8475 68.2499 41.3315 66.6161 41.3267 66.5971L39.7977 61.7718L39.5373 62.539L37.7383 68.2166C35.8495 74.1784 30.5663 78.1799 24.5919 78.1799C24.3694 78.1799 24.1469 78.1751 23.9244 78.1609C17.7181 77.8484 12.4444 73.1366 11.0999 66.7675L0.983301 18.8217C0.183249 15.0239 0.831812 11.1221 2.81537 7.83573H2.82011Z" fill="#848689"/>
<path d="M54.6435 77.8342C48.6834 77.8342 43.4097 73.8329 41.5255 67.8758L39.4662 61.3741L37.4069 67.8758C35.5228 73.8329 30.2396 77.8296 24.27 77.8296C24.0475 77.8296 23.825 77.8249 23.6025 77.8107C17.4009 77.4744 12.1319 72.7911 10.7874 66.4268L0.670801 18.4809C-0.129251 14.6831 0.519312 10.7858 2.50287 7.50421C4.48643 4.22259 7.56356 1.94971 11.1709 1.10681C12.1603 0.879514 13.1687 0.761139 14.1723 0.761139C19.4507 0.761139 24.1848 3.82026 26.5234 8.7498L26.8216 9.38427L27.1246 8.75442C29.4869 3.82488 34.2162 0.761139 39.4662 0.761139C44.7163 0.761139 49.4598 3.82963 51.8173 8.77338L52.1156 9.40323L52.4185 8.77801C54.7714 3.91003 59.619 0.765763 64.7649 0.765763C65.7638 0.765763 66.7674 0.879514 67.7473 1.10681C75.1987 2.84944 79.9186 10.6438 78.2616 18.4856L68.1403 66.4314C66.7958 72.7957 61.5363 77.4791 55.3536 77.8153C55.1075 77.8295 54.8755 77.8342 54.6388 77.8342H54.6435Z" fill="#808285"/>
</g>
<path d="M54.6435 78.1848C48.5366 78.1848 43.1398 74.0839 41.2083 67.9847L39.4709 62.4916L37.7335 67.9847C35.802 74.0839 30.3958 78.1848 24.2746 78.1848C24.0474 78.1848 23.8202 78.18 23.5929 78.1658C17.2351 77.8201 11.8383 73.028 10.4655 66.5026L0.348835 18.5568C-0.470153 14.669 0.192611 10.6723 2.22351 7.31021C4.25441 3.94809 7.40728 1.62285 11.1046 0.756277C12.1224 0.519508 13.1544 0.401123 14.177 0.401123C19.6637 0.401123 24.4782 3.63068 26.831 8.58863C29.2122 3.61647 34.0646 0.401123 39.4756 0.401123C44.8866 0.401123 49.7532 3.62596 52.1297 8.60759C54.5015 3.69699 59.3823 0.401123 64.7743 0.401123C65.7969 0.401123 66.8242 0.519619 67.8278 0.751653C75.4638 2.5369 80.2925 10.5254 78.6024 18.5519L68.4811 66.4977C67.1035 73.0184 61.7161 77.8154 55.382 78.1563C55.1311 78.1705 54.8897 78.1753 54.6482 78.1753L54.6435 78.1848Z" fill="url(#paint0_linear_53_37199)"/>
<path d="M54.6435 76.7645C49.1189 76.7645 44.2333 73.0566 42.4865 67.5351L39.4662 57.9982L36.4458 67.5351C34.699 73.0566 29.804 76.7645 24.2699 76.7645C24.0663 76.7645 23.858 76.7596 23.6498 76.7502C17.8932 76.4376 13.0171 72.1001 11.7721 66.1998L1.65542 18.254C0.912178 14.7356 1.51813 11.1225 3.35494 8.08238C5.19175 5.04226 8.04637 2.935 11.3886 2.15366C12.3117 1.94057 13.2443 1.83157 14.1675 1.83157C20.2223 1.83157 25.3682 6.17881 26.6795 12.4011L26.76 12.7845L27.3044 11.061C29.0513 5.53949 33.9368 1.83157 39.4662 1.83157C44.9955 1.83157 49.881 5.53949 51.6279 11.061L52.1723 12.7845L52.2528 12.4011C53.5452 6.27825 58.8094 1.83157 64.7649 1.83157C65.6927 1.83157 66.6206 1.94045 67.5295 2.14881C74.4412 3.76831 78.806 10.9899 77.2769 18.254L67.1555 66.1998C65.9105 72.1001 61.0344 76.4376 55.3015 76.7502C55.0743 76.7644 54.8565 76.7691 54.6387 76.7691L54.6435 76.7645Z" fill="url(#paint1_linear_53_37199)"/>
<path d="M40.11 51.9883C39.8638 51.9883 39.6318 51.8891 39.4662 51.7138C39.2389 51.9506 38.8886 52.0547 38.5572 51.9458C38.0885 51.799 37.8329 51.297 37.9797 50.8329L38.6235 48.8014C38.7418 48.432 39.0827 48.181 39.4709 48.181C39.8591 48.181 40.1999 48.432 40.3183 48.8014L40.9621 50.8329C41.1089 51.3017 40.8532 51.799 40.3846 51.9458C40.2946 51.9742 40.2047 51.9883 40.1147 51.9883H40.11Z" fill="#EC008C"/>
<path d="M23.4035 74.5954C23.3751 74.5954 23.3515 74.5954 23.3231 74.5954C21.7656 74.4534 20.2838 73.9799 18.9157 73.1938C18.4896 72.9475 18.3428 72.4077 18.589 71.9815C18.8352 71.5553 19.3749 71.4085 19.8009 71.6548C20.9466 72.313 22.1822 72.7059 23.484 72.8243C23.9716 72.8716 24.3314 73.3026 24.2888 73.7903C24.2462 74.2497 23.858 74.5954 23.4083 74.5954H23.4035ZM27.6168 74.0555C27.2523 74.0555 26.9115 73.8282 26.7789 73.4636C26.6132 72.9995 26.8546 72.4929 27.3186 72.3272C28.5494 71.8868 29.6572 71.2002 30.6087 70.2816C30.9638 69.9406 31.5224 69.95 31.8633 70.3051C32.2041 70.6603 32.1946 71.219 31.8396 71.56C30.7034 72.6538 29.3826 73.473 27.9151 73.9986C27.8157 74.0318 27.7162 74.0509 27.6168 74.0509V74.0555ZM16.1936 70.4709C15.919 70.4709 15.6539 70.3429 15.4788 70.1109C14.5556 68.856 13.9118 67.4497 13.5567 65.9249C13.4431 65.4466 13.7414 64.9684 14.2195 64.8594C14.6929 64.7505 15.1758 65.0441 15.2847 65.5224C15.5876 66.8104 16.1321 68.0038 16.9084 69.0598C17.1972 69.4528 17.112 70.0117 16.7191 70.3005C16.5628 70.4189 16.3782 70.4709 16.1936 70.4709ZM33.6196 68.3021C33.506 68.3021 33.3876 68.2785 33.2787 68.2311C32.8243 68.0417 32.6112 67.5207 32.8006 67.0708C32.9095 66.8056 33.0089 66.5359 33.0988 66.2565L34.1025 63.079C34.2492 62.6102 34.751 62.3497 35.215 62.5012C35.6836 62.648 35.9393 63.15 35.7925 63.6141L34.7842 66.7915C34.68 67.123 34.5617 67.445 34.4291 67.7576C34.2871 68.0985 33.9557 68.3021 33.6101 68.3021H33.6196ZM13.5331 62.4208C13.1212 62.4208 12.752 62.1365 12.6667 61.7151L11.7815 57.5244C11.6821 57.0462 11.985 56.5725 12.4679 56.4731C12.946 56.3689 13.4195 56.6768 13.5189 57.1598L14.4041 61.3504C14.5035 61.8287 14.2006 62.3024 13.7177 62.4018C13.6562 62.416 13.5946 62.4208 13.5331 62.4208ZM36.2422 60.1525C36.1523 60.1525 36.0623 60.1384 35.9724 60.11C35.5037 59.9632 35.2481 59.4612 35.3948 58.9971L36.6872 54.9151C36.834 54.4463 37.3358 54.1858 37.7997 54.3373C38.2684 54.4841 38.524 54.9861 38.3773 55.4502L37.0849 59.5321C36.9665 59.911 36.6162 60.1525 36.2375 60.1525H36.2422ZM11.7625 54.039C11.3507 54.039 10.9814 53.755 10.8962 53.3336L10.0109 49.1427C9.91153 48.6644 10.2145 48.1908 10.6974 48.0914C11.1755 47.9872 11.6489 48.2951 11.7483 48.7781L12.6336 52.9689C12.733 53.4472 12.43 53.9206 11.9472 54.0201C11.8856 54.0343 11.8241 54.039 11.7625 54.039ZM9.99201 45.6622C9.58015 45.6622 9.21089 45.3782 9.12568 44.9567L8.24042 40.7658C8.141 40.2876 8.44398 39.8139 8.92685 39.7145C9.40499 39.6103 9.87839 39.9182 9.97781 40.4012L10.8631 44.5921C10.9625 45.0703 10.6595 45.5438 10.1766 45.6432C10.1151 45.6574 10.0536 45.6622 9.99201 45.6622ZM8.22148 37.2853C7.80962 37.2853 7.44037 37.001 7.35515 36.5796L6.46989 32.389C6.37047 31.9107 6.67345 31.437 7.15632 31.3376C7.63446 31.2334 8.10786 31.5413 8.20728 32.0243L9.09254 36.2152C9.19196 36.6935 8.88898 37.1669 8.40611 37.2663C8.34457 37.2805 8.28302 37.2853 8.22148 37.2853ZM6.45095 28.9084C6.03909 28.9084 5.66984 28.6242 5.58462 28.2027L4.69936 24.0121C4.59994 23.5338 4.90292 23.0602 5.38579 22.9607C5.86393 22.8565 6.33733 23.1644 6.43675 23.6474L7.32201 27.8381C7.42143 28.3164 7.11845 28.79 6.63558 28.8894C6.57404 28.9036 6.51249 28.9084 6.45095 28.9084ZM4.68042 20.5267C4.26856 20.5267 3.89931 20.2427 3.81409 19.8212L3.37383 17.7377C3.21287 16.98 3.12766 16.1986 3.12292 15.422C3.12292 14.9295 3.51112 14.5317 4.00346 14.527H4.00819C4.4958 14.527 4.89345 14.9199 4.89345 15.4077C4.89819 16.0659 4.9692 16.7242 5.10649 17.3682L5.54675 19.4517C5.64617 19.93 5.34319 20.4036 4.86032 20.5031C4.79877 20.5173 4.73723 20.522 4.67569 20.522L4.68042 20.5267ZM24.9137 17.9032C24.5018 17.9032 24.1326 17.6192 24.0474 17.1978L23.1668 13.0305C23.0532 12.5522 23.3467 12.0741 23.8249 11.9604C24.2983 11.8468 24.7811 12.1404 24.8948 12.6187C24.9184 12.7134 24.9374 12.8128 24.961 12.9075L25.7895 16.8283C25.8889 17.3066 25.5859 17.7802 25.1031 17.8797C25.0415 17.8939 24.98 17.8986 24.9184 17.8986L24.9137 17.9032ZM4.82244 12.1308C4.70883 12.1308 4.59521 12.1073 4.48633 12.0647C4.03186 11.8753 3.81883 11.359 4.00346 10.9044C4.59994 9.45067 5.46627 8.16735 6.57404 7.07821C6.92436 6.73726 7.48771 6.74212 7.82856 7.09254C8.17414 7.44296 8.16467 8.00643 7.81435 8.34737C6.89122 9.25183 6.13851 10.3694 5.64143 11.5817C5.49941 11.9226 5.16803 12.1308 4.82244 12.1308ZM22.2295 9.86256C21.9597 9.86256 21.6898 9.73944 21.5147 9.50741C20.7335 8.46089 19.7299 7.56604 18.608 6.92676C18.1819 6.68525 18.0351 6.14066 18.2766 5.71447C18.518 5.28829 19.0624 5.1414 19.4885 5.3829C20.8235 6.1453 22.0165 7.20127 22.9396 8.44194C23.2331 8.83498 23.1526 9.39381 22.7597 9.68267C22.5987 9.80106 22.4141 9.85794 22.2295 9.85794V9.86256ZM10.7873 6.32998C10.4228 6.32998 10.082 6.10742 9.95414 5.74753C9.78845 5.2882 10.0251 4.77683 10.4843 4.61109C10.8867 4.46429 11.2986 4.34116 11.7152 4.24645C12.823 3.99074 13.9686 3.91035 15.0716 4.00506C15.5592 4.04768 15.9238 4.4785 15.8811 4.96624C15.8385 5.45399 15.403 5.82806 14.9201 5.77597C13.997 5.69547 13.0407 5.76659 12.1176 5.97968C11.772 6.06018 11.4264 6.16431 11.0903 6.28743C10.9909 6.32532 10.8867 6.33946 10.7873 6.33946V6.32998Z" fill="#EC008C"/>
<path d="M26.2534 24.2157C26.2534 24.2157 26.225 24.2157 26.2108 24.2157C25.8084 24.1967 25.4675 23.908 25.387 23.5102L24.9468 21.4265C24.8474 20.9482 25.1503 20.4748 25.6332 20.3753C25.9125 20.3138 26.1918 20.3944 26.3907 20.5696C26.6084 20.418 26.8925 20.3659 27.167 20.4512C27.6357 20.598 27.8914 21.0997 27.7446 21.5638L27.1008 23.5953C26.9824 23.9647 26.6416 24.2157 26.2534 24.2157Z" fill="#EC008C"/>
<path d="M28.1328 18.2729C28.0429 18.2729 27.953 18.2585 27.863 18.2301C27.3943 18.0833 27.1387 17.5816 27.2855 17.1175L28.5258 13.2059C28.6725 12.7371 29.1743 12.4768 29.6383 12.6283C30.1069 12.7751 30.3626 13.2769 30.2158 13.741L28.9755 17.6525C28.8572 18.0314 28.5068 18.2729 28.1281 18.2729H28.1328ZM50.7947 18.2445C50.4159 18.2445 50.0704 18.0029 49.9473 17.6241L48.707 13.7128C48.5602 13.244 48.8158 12.7467 49.2845 12.5999C49.7532 12.4484 50.2503 12.7087 50.397 13.1775L51.6373 17.089C51.7841 17.5579 51.5284 18.0551 51.0598 18.2019C50.9698 18.2303 50.8799 18.2445 50.7899 18.2445H50.7947ZM30.907 10.5684C30.746 10.5684 30.5851 10.5257 30.4431 10.4357C30.0265 10.18 29.8986 9.63087 30.1543 9.21415C30.9449 7.93086 31.9627 6.84642 33.1746 5.97984C33.5723 5.69572 34.1261 5.7904 34.4149 6.18817C34.6989 6.58595 34.609 7.13992 34.2066 7.42405C33.1888 8.1533 32.3319 9.06723 31.6644 10.1469C31.4987 10.4168 31.2052 10.5684 30.907 10.5684ZM48.0158 10.5446C47.7175 10.5446 47.4288 10.3979 47.2631 10.1279C46.5908 9.04827 45.734 8.13446 44.7162 7.40994C44.3185 7.12582 44.2238 6.57161 44.5079 6.17384C44.7919 5.77133 45.3458 5.67676 45.7435 5.96088C46.9601 6.82273 47.9779 7.90705 48.7732 9.19034C49.0336 9.60705 48.9058 10.1564 48.4892 10.4121C48.3424 10.5021 48.1815 10.5446 48.0205 10.5446H48.0158ZM37.4163 5.94655C37.0044 5.94655 36.6352 5.65781 36.55 5.2411C36.4505 4.76282 36.7583 4.28918 37.2364 4.18974C38.685 3.88667 40.2188 3.88205 41.6722 4.18511C42.1503 4.28456 42.458 4.75323 42.3586 5.23624C42.2592 5.71451 41.7905 6.02241 41.3077 5.92296C40.091 5.67199 38.8081 5.67199 37.5962 5.92296C37.5346 5.93717 37.4731 5.94192 37.4116 5.94192L37.4163 5.94655Z" fill="#EC008C"/>
<path d="M52.6836 24.2154C52.3001 24.2154 51.9546 23.9644 51.8362 23.595L51.1924 21.5635C51.0456 21.0947 51.3013 20.5977 51.7699 20.4509C52.0445 20.3657 52.3285 20.4178 52.5463 20.5693C52.7499 20.3988 53.0244 20.3182 53.3038 20.3751C53.7819 20.4745 54.0896 20.9479 53.9902 21.4262L53.5499 23.5099C53.4647 23.903 53.1286 24.1917 52.7262 24.2154C52.712 24.2154 52.6978 24.2154 52.6836 24.2154Z" fill="#EC008C"/>
<path d="M55.5666 74.5906C55.1121 74.5906 54.7287 74.245 54.6861 73.7857C54.6387 73.298 54.9985 72.867 55.4861 72.8197C56.788 72.6965 58.0236 72.2988 59.1645 71.6358C59.5905 71.3896 60.1302 71.5317 60.3764 71.9579C60.6225 72.3841 60.4758 72.9237 60.0545 73.17C58.6863 73.9608 57.2046 74.4392 55.6471 74.586C55.6187 74.586 55.5903 74.586 55.5619 74.586L55.5666 74.5906ZM51.3533 74.0745C51.2539 74.0745 51.1545 74.0603 51.0598 74.0225C49.5875 73.5063 48.262 72.687 47.1258 71.5979C46.7708 71.2569 46.7613 70.6982 47.0974 70.3431C47.4383 69.9879 47.9969 69.9784 48.3519 70.3146C49.3082 71.2286 50.416 71.9152 51.6468 72.3461C52.1108 72.5071 52.3522 73.0139 52.1912 73.4779C52.0634 73.8426 51.7178 74.0699 51.3533 74.0699V74.0745ZM62.7623 70.4471C62.5824 70.4471 62.3978 70.3904 62.2416 70.2767C61.8439 69.9878 61.7587 69.4337 62.0475 69.036C62.8239 67.9752 63.3636 66.782 63.6618 65.4893C63.7707 65.011 64.2441 64.7126 64.727 64.8215C65.2051 64.9304 65.5033 65.4087 65.3945 65.887C65.0441 67.4165 64.4003 68.8229 63.4866 70.0825C63.3115 70.3192 63.0416 70.4471 62.7671 70.4471H62.7623ZM45.3316 68.34C44.986 68.34 44.6546 68.1364 44.5126 67.7955C44.3753 67.4735 44.2523 67.1371 44.1434 66.7961L43.1492 63.652C43.0025 63.1832 43.2581 62.6859 43.7268 62.5391C44.1954 62.3923 44.6925 62.6479 44.8393 63.1167L45.8334 66.2611C45.9234 66.55 46.0275 66.8341 46.1459 67.1088C46.3352 67.5634 46.1222 68.0795 45.6725 68.2736C45.5588 68.321 45.4452 68.3446 45.3269 68.3446L45.3316 68.34ZM65.4134 62.3875C65.3518 62.3875 65.2903 62.3829 65.2288 62.3687C64.7506 62.2693 64.4429 61.7957 64.5423 61.3174L65.4276 57.1265C65.527 56.6482 66.0004 56.3406 66.4785 56.44C66.9567 56.5395 67.2644 57.0129 67.165 57.4911L66.2797 61.682C66.1898 62.0987 65.8205 62.3875 65.4134 62.3875ZM42.7042 60.1904C42.3255 60.1904 41.9799 59.9489 41.8568 59.57L40.5644 55.4881C40.4177 55.0193 40.6733 54.522 41.142 54.3752C41.6107 54.2284 42.1077 54.4842 42.2545 54.953L43.5469 59.035C43.6936 59.5038 43.438 60.0008 42.9693 60.1476C42.8794 60.176 42.7894 60.1904 42.6995 60.1904H42.7042ZM67.1792 54.006C67.1176 54.006 67.0561 54.0012 66.9946 53.987C66.5164 53.8876 66.2087 53.4139 66.3081 52.9356L67.1934 48.745C67.2928 48.262 67.7709 47.9588 68.2443 48.0583C68.7225 48.1577 69.0302 48.6314 68.9308 49.1096L68.0455 53.3003C67.9556 53.717 67.5863 54.006 67.1792 54.006ZM68.9497 45.6242C68.8882 45.6242 68.8266 45.6195 68.7651 45.6053C68.2869 45.5058 67.9792 45.0324 68.0787 44.5541L68.9639 40.3633C69.0633 39.885 69.5415 39.5771 70.0149 39.6766C70.493 39.776 70.8007 40.2496 70.7013 40.7279L69.816 44.9188C69.7261 45.3355 69.3568 45.6242 68.9497 45.6242ZM70.7202 37.2474C70.6587 37.2474 70.5972 37.2426 70.5356 37.2284C70.0575 37.129 69.7498 36.6555 69.8492 36.1773L70.7344 31.9864C70.8339 31.5034 71.312 31.2002 71.7854 31.2997C72.2635 31.3991 72.5713 31.8728 72.4718 32.351L71.5866 36.5419C71.4966 36.9586 71.1274 37.2474 70.7202 37.2474ZM72.4908 28.8659C72.4292 28.8659 72.3677 28.8611 72.3061 28.8469C71.828 28.7475 71.5203 28.2738 71.6197 27.7955L72.505 23.6047C72.6044 23.1217 73.0825 22.8187 73.5559 22.9182C74.0341 23.0176 74.3418 23.491 74.2424 23.9693L73.3571 28.1602C73.2672 28.5769 72.8979 28.8659 72.4908 28.8659ZM74.2613 20.4887C74.1998 20.4887 74.1382 20.4842 74.0767 20.47C73.5985 20.3706 73.2908 19.8969 73.3902 19.4187L73.821 17.3731C73.9583 16.7148 74.0341 16.0472 74.0341 15.3795C74.0341 14.8917 74.4317 14.4939 74.9193 14.4939C75.4117 14.4939 75.8046 14.8964 75.8046 15.3841C75.8046 16.1702 75.7194 16.9611 75.5537 17.7377L75.1229 19.7833C75.033 20.2 74.6637 20.4887 74.2566 20.4887H74.2613ZM54.0138 17.9412C53.9523 17.9412 53.8907 17.9364 53.8292 17.9222C53.3511 17.8228 53.0434 17.3494 53.1428 16.8711L54.0328 12.6613C54.1464 12.183 54.6198 11.8894 55.0979 11.9983C55.5761 12.112 55.8696 12.5903 55.7607 13.0638L55.7134 13.2768L54.8802 17.2357C54.7902 17.6524 54.421 17.9412 54.0138 17.9412ZM74.0956 12.0978C73.75 12.0978 73.4186 11.8942 73.2766 11.5532C72.7653 10.3268 72.0316 9.24235 71.0895 8.32842C70.7392 7.98747 70.7297 7.424 71.0706 7.07359C71.4114 6.72317 71.9748 6.71368 72.3251 7.05463C73.4376 8.13429 74.3086 9.42235 74.9099 10.8714C75.0992 11.326 74.8862 11.842 74.4317 12.0314C74.3181 12.0788 74.2045 12.0978 74.0909 12.0978H74.0956ZM56.6838 9.891C56.4992 9.891 56.3146 9.83412 56.1584 9.71574C55.7654 9.42214 55.6802 8.86828 55.9737 8.47524C56.8969 7.22983 58.0851 6.16426 59.4154 5.40186C59.8414 5.15562 60.3811 5.30239 60.6273 5.72858C60.8735 6.15476 60.7267 6.69462 60.3006 6.94087C59.1787 7.58488 58.1798 8.47997 57.4034 9.53122C57.2282 9.76799 56.9631 9.891 56.6886 9.891H56.6838ZM68.1118 6.3205C68.0124 6.3205 67.9082 6.30162 67.8088 6.26848C67.4822 6.15009 67.1413 6.0507 66.8005 5.9702C65.8773 5.75711 64.9163 5.69085 63.9742 5.77135C63.4772 5.8045 63.0558 5.45399 63.0132 4.96624C62.9706 4.4785 63.3304 4.04768 63.818 4.00506C64.9353 3.90562 66.0951 3.98612 67.2029 4.24183C67.61 4.33654 68.0171 4.45966 68.4053 4.59699C68.8645 4.76272 69.1059 5.2741 68.9403 5.73343C68.8077 6.09332 68.4668 6.3205 68.1071 6.3205H68.1118Z" fill="#EC008C"/>
<path d="M66.0808 9.08592C62.8096 8.32825 59.562 10.4923 58.8377 13.9397L53.4741 39.3545L45.2274 13.305C44.3989 10.6958 42.0793 8.93423 39.4661 8.93423C36.8529 8.93423 34.5332 10.6958 33.7047 13.305L25.458 39.3545L20.0944 13.9397C19.3653 10.4923 16.1273 8.32825 12.8513 9.08592C9.58009 9.85305 7.51606 13.2672 8.24036 16.7146L18.3617 64.6604C18.9535 67.4637 21.2495 69.5093 23.9763 69.6561C26.6936 69.7935 29.1837 68.0177 30.0501 65.2949L39.4708 35.5424L48.8915 65.2949C49.72 67.9135 52.0491 69.6656 54.6481 69.6656C54.7523 69.6656 54.8564 69.6656 54.9653 69.6561C57.6921 69.5093 59.9881 67.4637 60.5799 64.6604L70.7012 16.7146C71.4303 13.2672 69.3662 9.85305 66.0903 9.08592H66.0808Z" fill="url(#paint2_linear_53_37199)"/>
<defs>
<linearGradient id="paint0_linear_53_37199" x1="-0.00148399" y1="39.2977" x2="78.9338" y2="39.2977" gradientUnits="userSpaceOnUse">
<stop stop-color="#F1F2F2"/>
<stop offset="1" stop-color="#D1D3D4"/>
</linearGradient>
<linearGradient id="paint1_linear_53_37199" x1="1.34771" y1="39.298" x2="77.5846" y2="39.298" gradientUnits="userSpaceOnUse">
<stop stop-color="#D1D3D4"/>
<stop offset="1" stop-color="#F1F2F2"/>
</linearGradient>
<linearGradient id="paint2_linear_53_37199" x1="8.09834" y1="39.2976" x2="70.8385" y2="39.2976" gradientUnits="userSpaceOnUse">
<stop stop-color="#F033A3"/>
<stop offset="0.04" stop-color="#EF2DA0"/>
<stop offset="0.2" stop-color="#ED1997"/>
<stop offset="0.39" stop-color="#EC0A90"/>
<stop offset="0.62" stop-color="#EC028D"/>
<stop offset="1" stop-color="#EC008C"/>
</linearGradient>
</defs>
</svg>
