<svg width="75" height="89" viewBox="0 0 75 89" fill="none" xmlns="http://www.w3.org/2000/svg">
<g style="mix-blend-mode:multiply">
<path opacity="0.03" d="M59.9141 88.3768C55.5115 88.3768 51.4402 86.2791 48.7371 82.6234L42.2041 73.7776L35.6711 82.6234C32.9727 86.2791 28.8967 88.3768 24.4941 88.3768C21.3649 88.3768 18.2783 87.2638 15.8071 85.2371C12.8199 82.7936 10.9216 79.2705 10.4529 75.3212C9.98424 71.3719 11.0068 67.4652 13.3265 64.3209L24.2763 49.4992L13.3265 34.6775C8.53563 28.19 9.64813 18.809 15.8118 13.7611C18.283 11.7391 21.3696 10.6216 24.4988 10.6216C28.9014 10.6216 32.9775 12.7193 35.6759 16.3751L42.2088 25.2209L48.7418 16.3751C51.4449 12.7193 55.5162 10.6216 59.9188 10.6216C63.048 10.6216 66.1346 11.7391 68.6058 13.7611C71.593 16.2046 73.4961 19.7277 73.96 23.677C74.4287 27.6263 73.4108 31.5332 71.0864 34.6775L60.1413 49.4992L71.0912 64.3209C73.4109 67.4652 74.4334 71.3671 73.9647 75.3212C73.4961 79.2752 71.593 82.7937 68.6058 85.2419C66.1346 87.2639 63.0528 88.3814 59.9188 88.3814L59.9141 88.3768Z" fill="#FBFBFB"/>
<path opacity="0.06" d="M59.5874 88.0312C55.1895 88.0312 51.1182 85.9334 48.4198 82.2824L41.8774 73.4271L35.3349 82.2824C32.6365 85.9381 28.5653 88.0312 24.1673 88.0312C21.0429 88.0312 17.9563 86.9183 15.4899 84.8963C12.5074 82.4529 10.6043 78.9344 10.1357 74.9851C9.667 71.0358 10.6848 67.1338 13.0045 63.9943L23.9591 49.1631L13.0045 34.3317C8.21838 27.849 9.33088 18.4731 15.4851 13.4299C17.9563 11.4079 21.0382 10.295 24.1626 10.295C28.5605 10.295 32.6318 12.3881 35.3302 16.0438L41.8726 24.9037L48.4151 16.0438C51.1135 12.3881 55.1847 10.295 59.5874 10.295C62.7119 10.295 65.7985 11.4079 68.2649 13.4299C71.2473 15.8733 73.1504 19.3916 73.6191 23.3409C74.0878 27.2902 73.0699 31.1921 70.7455 34.3317L59.791 49.1582L70.7455 63.9896C73.0652 67.1292 74.083 71.0311 73.6143 74.9805C73.1457 78.9298 71.2473 82.448 68.2602 84.8915C65.7937 86.9135 62.7119 88.0264 59.5827 88.0264L59.5874 88.0312Z" fill="#F7F7F7"/>
<path opacity="0.1" d="M59.2654 87.6805C54.8722 87.6805 50.801 85.5875 48.1073 81.9365L41.5554 73.0672L35.0035 81.9365C32.3098 85.5875 28.2385 87.6805 23.8406 87.6805C20.7162 87.6805 17.639 86.5676 15.1679 84.5456C12.1854 82.1069 10.2871 78.5887 9.81841 74.6441C9.34974 70.6995 10.3676 66.7976 12.6872 63.6627L23.6465 48.8267L12.6872 33.9907C7.90112 27.5127 9.01362 18.1461 15.1679 13.1076C17.6343 11.0856 20.7162 9.97272 23.8406 9.97272C28.2385 9.97272 32.3051 12.0659 34.9987 15.7169L41.5506 24.5863L48.1026 15.7169C50.801 12.0659 54.8675 9.97272 59.2654 9.97272C62.3899 9.97272 65.467 11.0856 67.9382 13.1076C70.9206 15.5463 72.819 19.0648 73.2876 23.0094C73.7563 26.954 72.7385 30.8559 70.4188 33.9907L59.4595 48.8267L70.4188 63.6627C72.7385 66.8023 73.7563 70.6995 73.2876 74.6441C72.819 78.5887 70.9206 82.1069 67.9382 84.5456C65.4717 86.5676 62.3946 87.6805 59.2654 87.6805Z" fill="#F3F3F3"/>
<path opacity="0.13" d="M58.9388 87.3349C54.5456 87.3349 50.4838 85.2418 47.7854 81.5955L41.224 72.7167L34.6627 81.5955C31.969 85.2418 27.9025 87.3349 23.5093 87.3349C20.3895 87.3349 17.3124 86.2221 14.8413 84.2049C11.8635 81.7661 9.9652 78.2525 9.49653 74.3079C9.02786 70.3681 10.0457 66.4707 12.3606 63.3359L23.3246 48.4906L12.3606 33.6451C7.57924 27.1718 8.69174 17.81 14.8365 12.7763C17.303 10.759 20.3801 9.64606 23.5045 9.64606C27.8977 9.64606 31.9595 11.7392 34.6579 15.3854L41.2193 24.2689L47.7807 15.39C50.4743 11.7438 54.5409 9.65091 58.9341 9.65091C62.0538 9.65091 65.1309 10.7637 67.5973 12.7809C70.5751 15.2197 72.4734 18.7334 72.9421 22.6732C73.4107 26.6131 72.3929 30.5102 70.0732 33.6497L59.1092 48.4906L70.0732 63.3359C72.3882 66.4707 73.406 70.3681 72.9373 74.3079C72.4687 78.2525 70.5703 81.7661 67.5926 84.2049C65.1262 86.2221 62.0491 87.3349 58.9293 87.3349H58.9388Z" fill="#EFEFEF"/>
<path opacity="0.16" d="M58.6169 86.9893C54.2285 86.9893 50.1667 84.8963 47.473 81.2548L40.9022 72.3616L34.3361 81.2548C31.6424 84.901 27.5853 86.9893 23.1922 86.9893C20.0724 86.9893 17 85.8765 14.5336 83.8592C11.5559 81.4205 9.66228 77.9116 9.19361 73.9718C8.72494 70.0319 9.74276 66.1393 12.0577 63.0092L23.0265 48.1591L12.0577 33.3089C7.28106 26.8404 8.39356 17.4879 14.5336 12.4589C17 10.4416 20.0724 9.32886 23.1922 9.32886C27.5806 9.32886 31.6424 11.4171 34.3361 15.0633L40.9069 23.9565L47.473 15.0633C50.1667 11.4171 54.2285 9.32886 58.6169 9.32886C61.7367 9.32886 64.8091 10.4416 67.2755 12.4589C70.2532 14.8976 72.1468 18.4067 72.6155 22.3466C73.0842 26.2864 72.0663 30.1787 69.7514 33.3136L58.7826 48.1639L69.7514 63.014C72.0663 66.1489 73.0842 70.0414 72.6155 73.9813C72.1468 77.9211 70.2532 81.4347 67.2755 83.8687C64.8138 85.886 61.7367 86.9987 58.6169 86.9987V86.9893Z" fill="#EBEBEB"/>
<path opacity="0.19" d="M58.2902 86.6388C53.9065 86.6388 49.8447 84.5504 47.1558 80.9089L40.5802 72.0063L34.0047 80.9089C31.3157 84.5504 27.2587 86.6388 22.8702 86.6388C19.7552 86.6388 16.6828 85.5307 14.2164 83.5134C11.2434 81.0794 9.3498 77.5703 8.88113 73.6352C8.41246 69.7001 9.43028 65.8078 11.7405 62.6777L22.714 47.8181L11.7405 32.9583C6.96858 26.4944 8.07634 17.1468 14.2164 12.1225C16.6781 10.1053 19.7505 8.99713 22.8702 8.99713C27.2539 8.99713 31.3157 11.0855 34.0047 14.727L40.585 23.6343L47.1605 14.7319C49.8542 11.0903 53.9113 9.00199 58.295 9.00199C61.41 9.00199 64.4824 10.1148 66.9488 12.1274C69.9218 14.5614 71.8201 18.0702 72.2841 22.0053C72.7527 25.9405 71.7349 29.833 69.42 32.9631L58.4465 47.8181L69.42 62.6777C71.7302 65.8078 72.748 69.7001 72.2793 73.6352C71.8107 77.5703 69.917 81.0793 66.9441 83.518C64.4824 85.5353 61.41 86.6434 58.295 86.6434L58.2902 86.6388Z" fill="#E6E7E7"/>
<path opacity="0.23" d="M57.9637 86.2935C53.58 86.2935 49.5277 84.2051 46.8388 80.5636L40.2537 71.6469L33.6687 80.5636C30.9797 84.2051 26.9274 86.2935 22.5437 86.2935C19.4287 86.2935 16.361 85.1854 13.8993 83.1681C10.9264 80.7341 9.03275 77.2299 8.56881 73.2948C8.10014 69.3644 9.11796 65.4718 11.4282 62.3465L22.4064 47.482L11.4282 32.6178C6.65626 26.1587 7.76876 16.8204 13.8993 11.7962C16.361 9.78366 19.4287 8.67079 22.5437 8.67079C26.9274 8.67079 30.9797 10.7593 33.6687 14.396L40.2537 23.3128L46.8388 14.396C49.5277 10.7545 53.5848 8.66617 57.9685 8.66617C61.0835 8.66617 64.1511 9.7743 66.6128 11.7916C69.5858 14.2256 71.4794 17.7296 71.9433 21.6647C72.412 25.595 71.3942 29.4876 69.084 32.613L58.1058 47.4774L69.084 62.3419C71.3942 65.472 72.412 69.3595 71.9433 73.2899C71.4747 77.225 69.5811 80.7292 66.6081 83.1632C64.1511 85.1758 61.0787 86.2886 57.9637 86.2886V86.2935Z" fill="#E2E3E3"/>
<path opacity="0.26" d="M57.6416 85.943C53.2626 85.943 49.2103 83.8547 46.5261 80.218L39.9316 71.2917L33.3371 80.218C30.6529 83.8547 26.6006 85.943 22.2168 85.943C19.1066 85.943 16.0389 84.835 13.5772 82.8224C10.609 80.3932 8.71537 76.8889 8.25144 72.9586C7.7875 69.0282 8.80058 65.1451 11.1061 62.0198L22.0938 47.1458L11.1061 32.2768C6.33889 25.8224 7.44665 16.4939 13.5772 11.4743C16.0342 9.4618 19.1018 8.35356 22.2168 8.35356C26.5958 8.35356 30.6482 10.4372 33.3324 14.074L39.9269 23.0002L46.5214 14.074C49.2103 10.4372 53.2626 8.34894 57.6416 8.34894C60.7519 8.34894 63.8195 9.45695 66.2812 11.4695C69.2495 13.8987 71.1431 17.403 71.607 21.3333C72.0757 25.2637 71.0579 29.1468 68.7477 32.2721L57.7647 47.1412L68.7477 62.0103C71.0579 65.1356 72.071 69.0187 71.6023 72.9491C71.1384 76.8795 69.2447 80.3837 66.2718 82.8129C63.8148 84.8255 60.7472 85.9335 57.6322 85.9335L57.6416 85.943Z" fill="#DEDFE0"/>
<path opacity="0.29" d="M57.315 85.5974C52.9407 85.5974 48.8931 83.5138 46.2042 79.877L39.6002 70.9366L32.9962 79.877C30.312 83.509 26.2644 85.5974 21.8854 85.5974C18.7752 85.5974 15.7123 84.4894 13.2506 82.4768C10.2823 80.0476 8.39345 76.548 7.92478 72.6176C7.46084 68.692 8.47393 64.8089 10.7794 61.6883L21.7718 46.8097L10.7794 31.9312C6.01696 25.4816 7.12472 16.1576 13.2458 11.1429C15.7028 9.13032 18.7705 8.02231 21.8807 8.02231C26.255 8.02231 30.3073 10.1057 32.9915 13.7425L39.5955 22.6831L46.1995 13.7425C48.8837 10.1104 52.936 8.02231 57.3102 8.02231C60.4205 8.02231 63.4834 9.13032 65.9404 11.1429C68.9086 13.5721 70.7975 17.0716 71.2662 20.9972C71.7348 24.9229 70.717 28.8058 68.4115 31.9312L57.4239 46.8097L68.4115 61.6883C70.717 64.8136 71.7301 68.692 71.2662 72.6176C70.8022 76.548 68.9086 80.0476 65.9404 82.4768C63.4834 84.4894 60.4205 85.5974 57.3102 85.5974H57.315Z" fill="#DADBDC"/>
<path opacity="0.32" d="M56.9932 85.2515C52.6236 85.2515 48.5761 83.168 45.8919 79.536L39.2784 70.5859L32.665 79.536C29.9855 83.168 25.9379 85.2515 21.5636 85.2515C18.4581 85.2515 15.3952 84.1434 12.9382 82.1356C9.97473 79.7063 8.08585 76.2117 7.61718 72.2861C7.15324 68.3604 8.16633 64.482 10.4671 61.3614L21.4642 46.4733L10.4671 31.5901C5.70936 25.1453 6.81713 15.8307 12.9335 10.8159C15.3905 8.80813 18.4534 7.70001 21.5589 7.70001C25.9332 7.70001 29.976 9.7835 32.6602 13.4155L39.2737 22.3656L45.8871 13.4155C48.5713 9.7835 52.6189 7.70001 56.9884 7.70001C60.094 7.70001 63.1569 8.80813 65.6138 10.8159C68.5774 13.2452 70.4662 16.7398 70.9349 20.6655C71.3988 24.5911 70.3858 28.4695 68.0803 31.5901L57.0879 46.4733L68.085 61.3567C70.3905 64.4774 71.4036 68.3556 70.9349 72.2812C70.471 76.2068 68.5821 79.7064 65.6138 82.131C63.1616 84.1388 60.0987 85.2466 56.9884 85.2466L56.9932 85.2515Z" fill="#D6D7D8"/>
<path opacity="0.35" d="M56.6664 84.9011C52.2969 84.9011 48.2541 82.8177 45.5746 79.1904L38.9564 70.2262L32.3382 79.1904C29.6588 82.8177 25.6159 84.9011 21.2464 84.9011C18.1409 84.9011 15.0827 83.7932 12.6257 81.7854C9.66219 79.3608 7.77805 75.866 7.30938 71.9451C6.84544 68.0242 7.85853 64.1507 10.1593 61.0301L21.1612 46.1372L10.1593 31.2446C5.4063 24.8044 6.50933 15.4946 12.6257 10.4893C15.0779 8.4815 18.1409 7.37338 21.2464 7.37338C25.6159 7.37338 29.6588 9.45225 32.3382 13.0843L38.9611 22.0482L45.5793 13.0843C48.2588 9.45698 52.3017 7.37338 56.6712 7.37338C59.7767 7.37338 62.8349 8.4815 65.2918 10.4893C68.2554 12.9138 70.1442 16.4084 70.6082 20.3293C71.0721 24.2502 70.0638 28.1287 67.7583 31.2446L56.7611 46.1372L67.763 61.0301C70.0685 64.1507 71.0768 68.0242 70.6129 71.9451C70.149 75.866 68.2601 79.3607 65.2966 81.79C62.8443 83.7978 59.7862 84.9059 56.6806 84.9059L56.6664 84.9011Z" fill="#D2D3D4"/>
<path opacity="0.39" d="M56.3446 84.5552C51.9798 84.5552 47.9417 82.4764 45.2622 78.8491L38.6346 69.8755L32.0069 78.8491C29.3322 82.4764 25.2893 84.5552 20.9246 84.5552C17.8238 84.5552 14.7656 83.4519 12.3133 81.4441C9.35458 79.0196 7.4657 75.5296 7.00176 71.6087C6.53783 67.6925 7.55091 63.8191 9.85165 60.7032L20.8583 45.8008L9.85165 30.9033C5.09868 24.4679 6.20644 15.1677 12.3133 10.1624C14.7656 8.15458 17.8238 7.05109 20.9246 7.05109C25.2893 7.05109 29.3275 9.13006 32.0069 12.7574L38.6346 21.7308L45.2622 12.7574C47.9417 9.13006 51.9798 7.05109 56.3446 7.05109C59.4454 7.05109 62.5036 8.15458 64.9558 10.1624C67.9146 12.5869 69.8035 16.0769 70.2674 19.9978C70.7313 23.914 69.723 27.7874 67.4175 30.9033L56.4109 45.8008L67.4175 60.6983C69.7183 63.8142 70.7313 67.6879 70.2674 71.6041C69.8035 75.525 67.9146 79.015 64.9558 81.4395C62.5083 83.4473 59.4501 84.5506 56.3446 84.5506V84.5552Z" fill="#CECFD0"/>
<path opacity="0.42" d="M56.0179 84.205C51.6579 84.205 47.6198 82.1261 44.945 78.5035L38.3079 69.5204L31.6708 78.5035C28.9961 82.1261 24.9579 84.205 20.5931 84.205C17.4924 84.205 14.4389 83.1015 11.9867 81.0937C9.0279 78.6739 7.14375 75.1839 6.67982 71.2677C6.21588 67.3516 7.22423 63.4829 9.52497 60.3717L20.5363 45.4647L9.52497 30.5577C4.77673 24.1318 5.87976 14.8314 11.9867 9.83552C14.4342 7.82772 17.4924 6.72446 20.5931 6.72446C24.9532 6.72446 28.9913 8.80331 31.6661 12.4259L38.3032 21.4136L44.9403 12.4259C47.6198 8.80331 51.6531 6.72446 56.0179 6.72446C59.1187 6.72446 62.1722 7.82772 64.6244 9.83552C67.5832 12.2553 69.4673 15.7453 69.9313 19.6615C70.3952 23.5776 69.3868 27.4464 67.0861 30.5623L56.0747 45.4693L67.0861 60.3763C69.3868 63.4922 70.3952 67.3612 69.9313 71.2726C69.4673 75.1888 67.5832 78.6787 64.6244 81.0985C62.1769 83.1016 59.1235 84.2096 56.0179 84.2096V84.205Z" fill="#CACBCC"/>
<path opacity="0.45" d="M55.696 83.8591C51.3359 83.8591 47.3025 81.7801 44.6278 78.1623L37.9812 69.1651L31.3346 78.1623C28.6599 81.7849 24.6265 83.8591 20.2664 83.8591C17.1704 83.8591 14.1169 82.7557 11.6694 80.7527C8.7154 78.3329 6.83125 74.8475 6.36732 70.9314C5.90338 67.0199 6.91173 63.1512 9.21247 60.0448L20.2286 45.1283L9.21247 30.2165C4.46897 23.7953 5.572 14.5045 11.6694 9.50863C14.1169 7.50556 17.1704 6.40219 20.2664 6.40219C24.6265 6.40219 28.6599 8.47642 31.3346 12.099L37.9812 21.0962L44.6278 12.099C47.3025 8.47642 51.3359 6.40219 55.696 6.40219C58.792 6.40219 61.8455 7.50556 64.293 9.50863C67.247 11.9284 69.1312 15.4137 69.5951 19.3251C70.059 23.2365 69.0507 27.1053 66.7499 30.2165L55.7338 45.1283L66.7499 60.04C69.0459 63.1511 70.059 67.0199 69.5951 70.9314C69.1312 74.8428 67.247 78.3329 64.293 80.7527C61.8455 82.7557 58.792 83.8591 55.696 83.8591Z" fill="#C6C7C8"/>
<path opacity="0.48" d="M55.3694 83.5138C51.0141 83.5138 46.9855 81.4397 44.3107 77.8218L37.6547 68.8151L30.9986 77.8218C28.3286 81.4397 24.2952 83.5138 19.9399 83.5138C16.8439 83.5138 13.7951 82.4104 11.3476 80.4073C8.3936 77.9875 6.51419 74.5069 6.05026 70.5955C5.58632 66.6888 6.59467 62.8247 8.89068 59.7136L19.9115 44.7925L8.89068 29.8712C4.15191 23.4547 5.25494 14.1687 11.3476 9.17764C13.7951 7.17457 16.8439 6.0712 19.9399 6.0712C24.2952 6.0712 28.3239 8.14531 30.9986 11.7631L37.6547 20.7745L44.3107 11.7678C46.9855 8.14993 51.0141 6.07582 55.3694 6.07582C58.4655 6.07582 61.5142 7.1792 63.9617 9.18227C66.9157 11.602 68.7952 15.0827 69.2591 18.9941C69.723 22.9008 68.7147 26.7649 66.4187 29.876L55.3978 44.7971L66.4187 59.7184C68.7147 62.8296 69.723 66.6937 69.2591 70.6004C68.7952 74.5118 66.911 77.9969 63.957 80.412C61.5142 82.415 58.4608 83.5138 55.3647 83.5138H55.3694Z" fill="#C2C3C4"/>
<path opacity="0.52" d="M55.0474 83.1633C50.6969 83.1633 46.6682 81.0893 43.9982 77.4762L37.3327 68.4551L30.6719 77.4762C28.0019 81.0893 23.978 83.1633 19.6227 83.1633C16.5313 83.1633 13.4826 82.06 11.0351 80.0617C8.0858 77.6466 6.20639 74.166 5.74246 70.2593C5.27852 66.3526 6.28687 62.4933 8.58288 59.3869L19.6084 44.4563L8.58288 29.5303C3.84411 23.1186 4.94714 13.8419 11.0398 8.85556C13.4826 6.85249 16.5313 5.75397 19.6274 5.75397C23.978 5.75397 28.0066 7.82796 30.6766 11.4411L37.3421 20.4621L44.0029 11.4411C46.6729 7.82796 50.7016 5.75397 55.0522 5.75397C58.1435 5.75397 61.1922 6.85722 63.6397 8.85556C66.589 11.2706 68.4732 14.7559 68.9324 18.6579C69.3963 22.5646 68.3879 26.4239 66.0919 29.5303L55.0664 44.4563L66.0919 59.3823C68.3879 62.4887 69.3963 66.348 68.9324 70.2547C68.4684 74.1614 66.589 77.6418 63.635 80.0568C61.1922 82.0551 58.1435 83.1586 55.0522 83.1586L55.0474 83.1633Z" fill="#BDBEC0"/>
<path opacity="0.55" d="M54.7208 82.8175C50.3749 82.8175 46.351 80.7481 43.681 77.135L37.0107 68.1047L30.3405 77.135C27.6752 80.7481 23.6513 82.8175 19.3007 82.8175C16.2094 82.8175 13.1654 81.7189 10.7226 79.7159C7.77332 77.3008 5.89391 73.8251 5.42998 69.9184C4.96604 66.0164 5.97439 62.1571 8.26566 59.0554L19.296 44.12L8.26566 29.1845C3.53163 22.7776 4.63466 13.5102 10.7179 8.52386C13.1607 6.52553 16.2046 5.42227 19.296 5.42227C23.6465 5.42227 27.6705 7.49164 30.3357 11.1047L37.006 20.1399L43.6763 11.1096C46.3462 7.49649 50.3702 5.42713 54.716 5.42713C57.8073 5.42713 60.8513 6.53038 63.2941 8.52872C66.2434 10.9438 68.1228 14.4242 68.5867 18.3262C69.0507 22.2282 68.0423 26.0875 65.7463 29.1892L54.716 44.1246L65.7463 59.06C68.0376 62.1665 69.0459 66.021 68.582 69.923C68.1181 73.825 66.2387 77.3054 63.2894 79.7205C60.8513 81.7188 57.8026 82.8175 54.7113 82.8175H54.7208Z" fill="#B9BABC"/>
<path opacity="0.58" d="M54.3943 82.4717C50.0484 82.4717 46.0292 80.4025 43.364 76.7941L36.6842 67.7495L30.0045 76.7941C27.3393 80.4025 23.3201 82.4717 18.9742 82.4717C15.8876 82.4717 12.8436 81.3731 10.4009 79.3748C7.45631 76.9597 5.57689 73.484 5.11296 69.5868C4.64902 65.6895 5.65737 61.835 7.94865 58.7333L18.9884 43.7932L7.94865 28.8529C3.21935 22.4507 4.31764 13.1883 10.4009 8.21143C12.8389 6.2131 15.8829 5.11447 18.9742 5.11447C23.3201 5.11447 27.3393 7.18372 30.0045 10.7921L36.6842 19.8367L43.364 10.7921C46.0292 7.18372 50.0532 5.11447 54.399 5.11447C57.4856 5.11447 60.5296 6.2131 62.9723 8.21143C65.9216 10.6265 67.7963 14.1022 68.2603 17.9994C68.7242 21.8967 67.7158 25.7561 65.4246 28.8578L54.3895 43.7978L65.4246 58.7379C67.7158 61.8396 68.7242 65.6944 68.2603 69.5916C67.7963 73.4936 65.9216 76.9693 62.9723 79.3796C60.5343 81.378 57.4903 82.4766 54.399 82.4766L54.3943 82.4717Z" fill="#B5B6B8"/>
<path opacity="0.61" d="M54.0723 82.1214C49.7311 82.1214 45.712 80.052 43.0514 76.4484L36.3622 67.3943L29.673 76.4484C27.0125 80.0567 22.9933 82.1214 18.6475 82.1214C15.5609 82.1214 12.5216 81.0227 10.0836 79.0244C7.13903 76.6141 5.26435 73.1382 4.80042 69.241C4.33648 65.3438 5.34483 61.494 7.63137 58.397L18.6759 43.4472L7.63137 28.4977C2.9068 22.1002 4.0051 12.8472 10.0789 7.87031C12.5169 5.87198 15.5609 4.77335 18.6427 4.77335C22.9838 4.77335 27.003 6.8427 29.6636 10.4463L36.3528 19.5005L43.042 10.4463C45.7072 6.83797 49.7264 4.77335 54.0675 4.77335C57.1541 4.77335 60.1934 5.87198 62.6314 7.87031C65.576 10.2806 67.4506 13.7564 67.9146 17.6488C68.3785 21.5461 67.3702 25.396 65.0789 28.4977L54.0391 43.4472L65.0789 58.397C67.3702 61.4987 68.3738 65.3486 67.9098 69.2459C67.4459 73.1431 65.5712 76.6187 62.6267 79.029C60.1886 81.0226 57.1494 82.1214 54.0628 82.1214H54.0723Z" fill="#B1B2B4"/>
<path opacity="0.65" d="M53.7456 81.7757C49.4092 81.7757 45.3948 79.711 42.7295 76.1074L36.0309 67.0391L29.3322 76.1074C26.6717 79.711 22.6572 81.7757 18.3161 81.7757C15.2342 81.7757 12.195 80.677 9.75697 78.6834C6.81713 76.2731 4.94245 72.802 4.47852 68.9095C4.01458 65.017 5.02293 61.1673 7.30947 58.0703L18.3587 43.1159L7.30947 28.1615C2.58964 21.7688 3.68794 12.5206 9.75697 7.54849C12.195 5.55489 15.2342 4.45615 18.3161 4.45615C22.6525 4.45615 26.6669 6.52088 29.3322 10.1245L36.0309 19.1927L42.7295 10.1245C45.3901 6.52088 49.4092 4.45615 53.7456 4.45615C56.8275 4.45615 59.8667 5.55489 62.3048 7.54849C65.2493 9.9588 67.124 13.4297 67.5832 17.3222C68.0471 21.2147 67.0388 25.0646 64.7523 28.1615L53.7078 43.1159L64.757 58.0703C67.0435 61.1673 68.0519 65.017 67.5879 68.9095C67.124 72.802 65.2493 76.2731 62.3095 78.6834C59.8762 80.677 56.8369 81.7757 53.7504 81.7757H53.7456Z" fill="#ADAEB0"/>
<path opacity="0.68" d="M53.4237 81.4248C49.0873 81.4248 45.0776 79.3602 42.4171 75.7613L35.7089 66.6836L29.0055 75.7613C26.345 79.3602 22.3353 81.4248 17.9989 81.4248C14.917 81.4248 11.8825 80.3263 9.4445 78.3327C6.50467 75.9271 4.63472 72.456 4.17079 68.5683C3.71159 64.6805 4.7152 60.8306 6.99701 57.7384L18.051 42.7745L6.99701 27.8109C2.27717 21.4228 3.37547 12.184 9.4445 7.21653C11.8778 5.22293 14.917 4.12442 17.9989 4.12442C22.3353 4.12442 26.345 6.18903 29.0055 9.78793L35.7137 18.8656L42.4171 9.78793C45.0776 6.18903 49.0921 4.12442 53.4237 4.12442C56.5056 4.12442 59.5401 5.22293 61.9734 7.21653C64.9132 9.62211 66.7879 13.0932 67.2471 16.981C67.711 20.8734 66.7027 24.7186 64.4161 27.8109L53.3669 42.7745L64.4209 57.7384C66.7074 60.8353 67.711 64.6805 67.2471 68.5683C66.7879 72.4608 64.9132 75.9271 61.9734 78.3327C59.5401 80.3263 56.5056 81.4202 53.4237 81.4202V81.4248Z" fill="#A9AAAC"/>
<path opacity="0.71" d="M53.0971 81.0797C48.7655 81.0797 44.7558 79.015 42.1 75.4162L35.3871 66.3241L28.6742 75.4162C26.0185 79.015 22.0087 81.0797 17.6771 81.0797C14.6 81.0797 11.5654 79.981 9.13215 77.9922C6.19705 75.5866 4.32237 72.1204 3.86317 68.2326C3.40397 64.3448 4.40758 60.5044 6.68939 57.4122L17.7481 42.4437L6.68939 27.475C1.97429 21.0916 3.07259 11.8577 9.13215 6.89496C11.5654 4.90137 14.6 3.80748 17.6771 3.80748C22.0087 3.80748 26.0185 5.8722 28.6742 9.46636L35.3918 18.5584L42.1047 9.46636C44.7652 5.86747 48.7702 3.80286 53.1019 3.80286C56.179 3.80286 59.2135 4.90148 61.6468 6.89034C64.5866 9.29592 66.4566 12.7623 66.9158 16.6453C67.3797 20.533 66.3714 24.3781 64.0896 27.4703L53.0309 42.4388L64.0896 57.4076C66.3714 60.4998 67.375 64.3447 66.9158 68.2277C66.4566 72.1155 64.5819 75.582 61.6468 77.9875C59.2182 79.9764 56.1837 81.075 53.1019 81.075L53.0971 81.0797Z" fill="#A5A6A8"/>
<path opacity="0.74" d="M52.7751 80.7341C48.4482 80.7341 44.4432 78.6741 41.7874 75.0752L35.0651 65.9739L28.3428 75.0752C25.687 78.6693 21.682 80.7341 17.3551 80.7341C14.278 80.7341 11.2482 79.6402 8.81488 77.6466C5.87977 75.241 4.00983 71.7795 3.55063 67.8965C3.09143 64.0135 4.09504 60.173 6.37211 57.0856L17.4356 42.1076L6.37211 27.1294C1.66175 20.7508 2.75531 11.5263 8.81488 6.56833C11.2434 4.57947 14.278 3.48085 17.3551 3.48085C21.682 3.48085 25.687 5.54072 28.3428 9.13488L35.0651 18.2364L41.7874 9.13488C44.4432 5.54072 48.4482 3.47623 52.7799 3.47623C55.857 3.47623 58.8868 4.57011 61.3201 6.56371C64.2552 8.96929 66.1251 12.4308 66.5843 16.3138C67.0435 20.1968 66.0446 24.0371 63.7581 27.1294L52.6946 42.1076L63.7581 57.0856C66.0399 60.1778 67.0435 64.0135 66.5796 67.8965C66.1204 71.7842 64.2504 75.2457 61.3106 77.6466C58.882 79.6354 55.8523 80.7294 52.7704 80.7294L52.7751 80.7341Z" fill="#A1A2A4"/>
<path opacity="0.77" d="M52.4484 80.3836C48.1262 80.3836 44.1212 78.3237 41.4702 74.7295L34.7384 65.6188L28.0066 74.7295C25.3555 78.3237 21.3505 80.3836 17.0236 80.3836C13.9512 80.3836 10.9214 79.2898 8.49288 77.3009C5.56251 74.9001 3.69257 71.4386 3.23336 67.5603C2.77416 63.6773 3.77304 59.8415 6.05485 56.754L17.123 41.7714L6.05485 26.7886C1.34922 20.4147 2.44278 11.1996 8.49288 6.24165C10.9214 4.25279 13.9512 3.15903 17.0236 3.15903C21.3505 3.15903 25.3508 5.21889 28.0018 8.81305L34.7336 17.9287L41.4654 8.81305C44.1212 5.21889 48.1215 3.15903 52.4484 3.15903C55.5208 3.15903 58.5506 4.25279 60.9791 6.24165C63.9142 8.6425 65.7794 12.104 66.2386 15.9823C66.6978 19.8653 65.699 23.7011 63.4172 26.7886L52.349 41.7714L63.4172 56.754C65.699 59.8415 66.6978 63.6773 66.2386 67.5603C65.7794 71.4433 63.9095 74.9047 60.9744 77.3056C58.5458 79.2944 55.516 80.3884 52.4437 80.3884L52.4484 80.3836Z" fill="#9D9EA1"/>
<path opacity="0.81" d="M52.1265 80.0373C47.8043 80.0373 43.8088 77.9776 41.153 74.3881L34.4118 65.263L27.6705 74.3881C25.0194 77.9776 21.0192 80.0373 16.697 80.0373C13.6246 80.0373 10.5996 78.9435 8.171 76.9547C5.24063 74.5538 3.37542 71.097 2.91148 67.2187C2.45228 63.3404 3.45116 59.5048 5.72823 56.4221L16.8011 41.4298L5.72823 26.4374C1.0226 20.0683 2.1209 10.8581 8.16626 5.90486C10.5948 3.916 13.6199 2.82224 16.6923 2.82224C21.0144 2.82224 25.0147 4.88198 27.6658 8.47141L34.407 17.5965L41.1483 8.47141C43.7993 4.88198 47.7996 2.82224 52.1218 2.82224C55.1942 2.82224 58.2192 3.916 60.6478 5.90486C63.5781 8.30571 65.4481 11.7626 65.9073 15.6409C66.3665 19.5191 65.3676 23.3547 63.0858 26.4374L52.0129 41.4298L63.0858 56.4221C65.3629 59.5096 66.3665 63.3404 65.9026 67.2187C65.4434 71.097 63.5734 74.5538 60.643 76.9547C58.2192 78.9388 55.1894 80.0327 52.117 80.0327L52.1265 80.0373Z" fill="#999A9D"/>
<path opacity="0.84" d="M51.8 79.6875C47.4825 79.6875 43.487 77.6324 40.8359 74.0429L34.0852 64.9083L27.3345 74.0429C24.6881 77.6276 20.6926 79.6875 16.3704 79.6875C13.3028 79.6875 10.2777 78.5936 7.84919 76.6095C4.92355 74.2134 3.05834 70.7565 2.59441 66.883C2.1352 63.0094 3.13409 59.1786 5.41116 56.0958L16.4888 41.0987L5.41116 26.1017C0.71026 19.7374 1.80382 10.5366 7.84919 5.5881C10.273 3.60398 13.2981 2.5101 16.3704 2.5101C20.6879 2.5101 24.6834 4.56522 27.3345 8.15465L34.0852 17.2939L40.8359 8.15465C43.487 4.56996 47.4825 2.5101 51.8 2.5101C54.8676 2.5101 57.8927 3.60398 60.3165 5.5881C63.2469 7.98421 65.1121 11.4411 65.5713 15.3146C66.0305 19.1882 65.0316 23.0237 62.7545 26.1017L51.6769 41.0987L62.7545 56.0958C65.0316 59.1786 66.0305 63.0094 65.5713 66.883C65.1121 70.7612 63.2469 74.2134 60.3165 76.6095C57.8927 78.5936 54.8676 79.6875 51.8 79.6875Z" fill="#949699"/>
<path opacity="0.87" d="M51.478 79.3419C47.1653 79.3419 43.1697 77.2867 40.5234 73.702L33.7679 64.5533L27.0125 73.702C24.3661 77.2867 20.3753 79.3419 16.0579 79.3419C12.9903 79.3419 9.96994 78.2481 7.54611 76.2639C4.62048 73.8678 2.75527 70.4156 2.29607 66.542C1.83687 62.6685 2.83575 58.8424 5.11282 55.7644L16.1952 40.758L5.11282 25.7516C0.416655 19.3919 1.51022 10.1958 7.54611 5.25204C9.96994 3.26792 12.9903 2.17404 16.0579 2.17404C20.3706 2.17404 24.3661 4.22904 27.0125 7.81373L33.7727 16.9627L40.5281 7.81373C43.1745 4.22904 47.17 2.17404 51.4827 2.17404C54.5504 2.17404 57.5707 3.26792 59.9945 5.25204C62.9201 7.64815 64.7853 11.1003 65.2445 14.9691C65.7037 18.8426 64.7049 22.6688 62.4278 25.7516L51.3454 40.758L62.4278 55.7644C64.7001 58.8471 65.7037 62.6732 65.2445 66.542C64.7853 70.4156 62.9201 73.8678 59.9945 76.2639C57.5754 78.2481 54.5504 79.3371 51.4827 79.3371L51.478 79.3419Z" fill="#909295"/>
<path opacity="0.9" d="M51.1512 78.9962C46.8385 78.9962 42.8525 76.9411 40.2062 73.3611L33.4412 64.2027L26.6763 73.3611C24.03 76.9411 20.0439 78.9962 15.7312 78.9962C12.6683 78.9962 9.64796 77.9022 7.22414 75.9228C4.30324 73.5267 2.43803 70.0795 1.97882 66.2107C1.51962 62.3418 2.51851 58.5155 4.79084 55.4423L15.8827 40.4312L4.79084 25.4199C0.099413 19.0651 1.18824 9.8784 7.22414 4.93939C9.64323 2.95526 12.6683 1.86624 15.7312 1.86624C20.0439 1.86624 24.0347 3.92135 26.6763 7.50131L33.4412 16.6643L40.2062 7.50593C42.8525 3.92598 46.8433 1.87087 51.1512 1.87087C54.2142 1.87087 57.2345 2.96485 59.6583 4.94424C62.5839 7.34035 64.4444 10.7876 64.9036 14.6564C65.3628 18.5252 64.3639 22.3514 62.0916 25.4294L51.0045 40.4407L62.0916 55.4518C64.3639 58.5298 65.3628 62.356 64.9036 66.2248C64.4444 70.0936 62.5792 73.5458 59.6583 75.9372C57.2392 77.9166 54.2189 79.0103 51.156 79.0103L51.1512 78.9962Z" fill="#8C8E91"/>
<path opacity="0.94" d="M50.8247 78.6451C46.5168 78.6451 42.5307 76.5948 39.8891 73.0149L33.1147 63.8424L26.3403 73.0149C23.6987 76.5948 19.7127 78.6451 15.4047 78.6451C12.3418 78.6451 9.32618 77.556 6.90708 75.5766C3.98619 73.1852 2.12571 69.738 1.66651 65.8739C1.20731 62.0098 2.20619 58.1883 4.47853 55.1103L15.5751 40.0896L4.47853 25.0691C-0.20817 18.7189 0.880658 9.53687 6.90708 4.6026C9.32618 2.6232 12.3465 1.52945 15.4047 1.52945C19.7127 1.52945 23.6987 3.57971 26.3403 7.15966L33.1147 16.3322L39.8891 7.15966C42.5307 3.57971 46.5215 1.52945 50.8295 1.52945C53.8924 1.52945 56.908 2.61847 59.3271 4.6026C62.248 6.99397 64.1084 10.4414 64.5676 14.3055C65.0268 18.1696 64.028 21.9958 61.7556 25.0691L50.6638 40.085L61.7556 55.1055C64.028 58.1835 65.0268 62.0049 64.5676 65.869C64.1084 69.7378 62.248 73.1852 59.3271 75.5766C56.908 77.556 53.8924 78.6451 50.8295 78.6451H50.8247Z" fill="#888A8D"/>
<path opacity="0.97" d="M50.5028 78.2999C46.1996 78.2999 42.2136 76.2496 39.572 72.6744L32.7881 63.4924L26.0042 72.6744C23.3626 76.2496 19.3813 78.2999 15.0733 78.2999C12.0151 78.2999 8.99956 77.2108 6.58047 75.2314C3.66431 72.84 1.80383 69.3974 1.34463 65.5333C0.885426 61.6693 1.88431 57.8526 4.15191 54.7793L15.2532 39.7539L4.15191 24.7285C-0.534784 18.3831 0.558778 9.21069 6.58047 4.27641C8.99956 2.29702 12.0151 1.20789 15.0733 1.20789C19.3766 1.20789 23.3626 3.25825 26.0042 6.83347L32.7881 16.0155L39.572 6.83347C42.2136 3.25825 46.1996 1.20789 50.5028 1.20789C53.561 1.20789 56.5766 2.29702 58.9957 4.27641C61.9166 6.66778 63.7771 10.1104 64.2316 13.9745C64.6908 17.8386 63.6919 21.6553 61.4243 24.7285L50.3277 39.7539L61.429 54.7793C63.6966 57.8526 64.6955 61.6693 64.2363 65.5333C63.7771 69.3974 61.9166 72.84 59.0004 75.2314C56.5861 77.2108 53.5705 78.2999 50.5076 78.2999H50.5028Z" fill="#848689"/>
<path d="M50.1761 77.954C45.8776 77.954 41.8963 75.9035 39.2547 72.3331L32.4614 63.137L25.668 72.3331C23.0312 75.9035 19.0498 77.954 14.7466 77.954C11.6884 77.954 8.67757 76.865 6.25848 74.8904C3.34231 72.5037 1.48657 69.0611 1.02737 65.2018C0.568165 61.3424 1.56705 57.5255 3.83465 54.457L14.9407 39.4221L3.83465 24.3872C-0.847311 18.0466 0.241517 8.88362 6.26321 3.95408C8.67757 1.97469 11.6931 0.885559 14.7513 0.885559C19.0546 0.885559 23.0312 2.93604 25.6728 6.50652L32.4661 15.7026L39.2594 6.50652C41.901 2.93604 45.8824 0.885559 50.1809 0.885559C53.239 0.885559 56.2499 1.97469 58.6643 3.95408C61.5804 6.34072 63.4409 9.78333 63.8954 13.6427C64.3546 17.502 63.3557 21.3187 61.0881 24.3872L49.9868 39.4175L61.0928 54.4523C63.3604 57.5209 64.3593 61.3376 63.9001 65.1969C63.4409 69.0563 61.5852 72.4989 58.6643 74.8855C56.2499 76.8602 53.239 77.9494 50.1809 77.9494L50.1761 77.954Z" fill="#808285"/>
</g>
<path d="M50.1762 78.3049C45.7688 78.3049 41.6928 76.2071 38.9897 72.5466L32.4614 63.7151L25.9379 72.5466C23.2348 76.2071 19.1588 78.3049 14.7514 78.3049C11.6222 78.3049 8.53087 77.1874 6.0597 75.1654C3.07253 72.7172 1.16945 69.1939 0.700776 65.2398C0.232106 61.2858 1.25466 57.3745 3.57433 54.2349L14.5194 39.4178L3.57433 24.6008C-1.22124 18.1086 -0.104011 8.71819 6.0597 3.67027C8.5356 1.64352 11.6222 0.530762 14.7514 0.530762C19.1588 0.530762 23.2348 2.62861 25.9379 6.28907L32.4662 15.1254L38.9897 6.28907C41.6928 2.62861 45.7735 0.530762 50.1762 0.530762C53.3054 0.530762 56.3967 1.64826 58.8679 3.67027C61.855 6.11847 63.7581 9.64181 64.2268 13.5959C64.6955 17.5499 63.6776 21.4613 61.3532 24.6056L50.4129 39.4178L61.358 54.2349C63.6824 57.3792 64.7002 61.2906 64.2315 65.2447C63.7629 69.1987 61.8598 72.7266 58.8679 75.17C56.3967 77.1968 53.3101 78.3095 50.1762 78.3095V78.3049Z" fill="url(#paint0_linear_53_37154)"/>
<path d="M50.1762 76.8838C46.1901 76.8838 42.5023 74.9849 40.0548 71.6749L32.4662 61.399L24.8775 71.6749C22.4347 74.9849 18.7422 76.8838 14.7561 76.8838C11.9205 76.8838 9.13211 75.8752 6.89291 74.0426C4.18977 71.8311 2.46658 68.6395 2.04526 65.0643C1.61919 61.4891 2.54233 57.9516 4.64424 55.1056L16.2332 39.4174L4.64424 23.7291C0.30313 17.8524 1.31621 9.35705 6.89291 4.79213C9.13211 2.95954 11.9252 1.9509 14.7561 1.9509C18.7422 1.9509 22.43 3.84979 24.8775 7.15983L32.4709 17.4357L40.0596 7.15983C42.5071 3.84979 46.1949 1.9509 50.1809 1.9509C53.0119 1.9509 55.805 2.95954 58.0442 4.79213C60.7473 7.00356 62.4705 10.1952 62.8918 13.7704C63.3179 17.3456 62.3947 20.8831 60.2881 23.7291L48.6992 39.4174L60.2881 55.1056C62.39 57.9516 63.3131 61.4891 62.8871 65.0643C62.461 68.6442 60.7378 71.831 58.0347 74.0472C55.8002 75.8798 53.0071 76.8884 50.1715 76.8884L50.1762 76.8838Z" fill="url(#paint1_linear_53_37154)"/>
<path d="M33.7348 59.3064C33.465 59.3064 33.1952 59.1834 33.02 58.9466L32.4661 58.1984L31.9122 58.9466C31.6187 59.3397 31.0648 59.4247 30.6719 59.1311C30.279 58.8375 30.1938 58.2834 30.4873 57.8904L31.7513 56.1764C32.0874 55.7218 32.8448 55.7218 33.1762 56.1764L34.4402 57.8904C34.7337 58.2834 34.6485 58.8423 34.2556 59.1311C34.0946 59.2495 33.91 59.3064 33.7301 59.3064H33.7348Z" fill="#0095DA"/>
<path d="M14.7514 74.7535C13.6626 74.7535 12.5832 74.5877 11.5323 74.2562C11.0636 74.1094 10.8032 73.6123 10.95 73.1435C11.0967 72.6747 11.5938 72.4143 12.0625 72.5611C13.3549 72.9683 14.7278 73.0725 16.0343 72.8878C16.5172 72.8168 16.967 73.1577 17.038 73.6407C17.109 74.1284 16.7681 74.5736 16.2853 74.6446C15.7834 74.7157 15.2627 74.7535 14.7467 74.7535H14.7514ZM20.2524 73.0961C19.9636 73.0961 19.6843 72.9587 19.5139 72.6982C19.244 72.291 19.3529 71.7371 19.76 71.4672C20.6595 70.8658 21.4548 70.108 22.1176 69.213L22.6099 68.5453C22.8987 68.1522 23.4573 68.0672 23.8502 68.3608C24.2432 68.6543 24.3284 69.2084 24.0349 69.6015L23.5425 70.269C22.7567 71.3297 21.8146 72.2342 20.7447 72.9445C20.5932 73.0439 20.4228 73.0913 20.2524 73.0913V73.0961ZM8.00542 72.1063C7.79239 72.1063 7.57463 72.0306 7.4042 71.8744C6.22543 70.79 5.30229 69.4829 4.66793 67.9818C4.47383 67.5319 4.68687 67.011 5.1366 66.8169C5.59107 66.6275 6.11181 66.8359 6.30117 67.2858C6.84085 68.5502 7.6125 69.6535 8.60665 70.5627C8.96643 70.8941 8.9901 71.4576 8.65872 71.8175C8.48356 72.0069 8.24686 72.1063 8.00542 72.1063ZM25.9474 66.4097C25.7628 66.4097 25.5782 66.3528 25.4219 66.2345C25.029 65.9409 24.9438 65.3868 25.2373 64.9937L27.86 61.4422C28.1535 61.0491 28.7074 60.9641 29.1003 61.2577C29.4932 61.5513 29.5784 62.1054 29.2849 62.4984L26.6623 66.0499C26.4871 66.2867 26.222 66.4097 25.9474 66.4097ZM4.61586 64.2219C4.12352 64.2219 3.73059 63.8195 3.73059 63.3317C3.73532 61.7122 4.06197 60.1448 4.7058 58.6863C4.90463 58.2364 5.42538 58.0328 5.87511 58.2317C6.32484 58.4306 6.52841 58.9516 6.32958 59.4014C5.78516 60.6374 5.51059 61.9632 5.50585 63.3412C5.50585 63.8289 5.1082 64.2268 4.61586 64.2268V64.2219ZM7.92021 56.2381C7.73558 56.2381 7.55096 56.1812 7.39473 56.0628C7.00181 55.7693 6.9166 55.2152 7.21011 54.8221L9.83276 51.2706C10.1263 50.8775 10.6802 50.7925 11.0731 51.0861C11.466 51.3797 11.5512 51.9335 11.2577 52.3266L8.63505 55.8781C8.45989 56.1149 8.19479 56.2381 7.92021 56.2381ZM13.1703 49.135C12.9856 49.135 12.801 49.0781 12.6448 48.9598C12.2519 48.6662 12.1666 48.1121 12.4602 47.719L15.0828 44.1675C15.3763 43.7745 15.9302 43.6894 16.3231 43.983C16.716 44.2766 16.8013 44.8304 16.5078 45.2235L13.8851 48.775C13.7099 49.0118 13.4401 49.135 13.1703 49.135Z" fill="#0095DA"/>
<path d="M18.4297 42.0176C18.2451 42.0176 18.0604 41.9607 17.9042 41.8424C17.5113 41.5488 17.4261 40.9947 17.7196 40.6016L18.5954 39.4178L17.7196 38.2339C17.4261 37.8409 17.5113 37.2821 17.9042 36.9932C18.2971 36.6996 18.8558 36.7849 19.1445 37.178L20.4085 38.8922C20.6405 39.2048 20.6405 39.6357 20.4085 39.9482L19.1445 41.6625C18.9694 41.8992 18.7043 42.0223 18.4297 42.0223V42.0176Z" fill="#0095DA"/>
<path d="M15.8071 35.0376C15.5373 35.0376 15.2674 34.9146 15.0923 34.6778L12.4696 31.1263C12.1761 30.7332 12.2613 30.1744 12.6542 29.8855C13.0472 29.5919 13.6058 29.677 13.8946 30.07L16.5172 33.6216C16.8107 34.0146 16.7255 34.5735 16.3326 34.8623C16.1716 34.9807 15.987 35.0376 15.8071 35.0376ZM10.5571 27.9345C10.2872 27.9345 10.0174 27.8115 9.84223 27.5747L7.21958 24.0232C6.92607 23.6301 7.01128 23.0713 7.4042 22.7824C7.79713 22.4888 8.35574 22.5739 8.64452 22.967L11.2672 26.5185C11.5607 26.9115 11.4755 27.4704 11.0825 27.7592C10.9216 27.8776 10.737 27.9345 10.5571 27.9345ZM5.52479 20.6941C5.18394 20.6941 4.85729 20.4951 4.71054 20.1636C4.06671 18.7051 3.73532 17.1377 3.73059 15.5182C3.73059 15.0305 4.12352 14.628 4.61586 14.628C5.10346 14.628 5.50112 15.0211 5.50585 15.5136C5.51059 16.8868 5.7899 18.2128 6.33431 19.4487C6.53314 19.8986 6.32958 20.4241 5.87984 20.6182C5.76149 20.6703 5.64314 20.6941 5.52006 20.6941H5.52479ZM28.5653 17.7439C28.2955 17.7439 28.0257 17.6209 27.8505 17.3841L25.2278 13.8326C24.9343 13.4396 25.0196 12.8807 25.4125 12.5919C25.8054 12.2983 26.364 12.3836 26.6528 12.7766L29.2754 16.3282C29.569 16.7212 29.4837 17.2798 29.0908 17.5687C28.9299 17.687 28.7452 17.7439 28.5653 17.7439ZM5.47745 12.104C5.36383 12.104 5.24548 12.0804 5.13186 12.033C4.68213 11.8436 4.4691 11.3227 4.65846 10.8681C5.29282 9.36701 6.21123 8.06005 7.39 6.97091C7.74979 6.63944 8.31314 6.66305 8.64452 7.02294C8.9759 7.38283 8.95223 7.94652 8.59244 8.278C7.60303 9.19193 6.82665 10.2951 6.2917 11.5595C6.14968 11.8957 5.8183 12.0994 5.47272 12.0994L5.47745 12.104ZM23.3153 10.6408C23.0455 10.6408 22.7756 10.5178 22.6005 10.2811L22.1176 9.62278C21.4548 8.72305 20.6548 7.96053 19.7506 7.35913C19.3434 7.08922 19.2298 6.53536 19.4997 6.12812C19.7695 5.72087 20.3234 5.60709 20.7305 5.87701C21.8099 6.59205 22.7567 7.49648 23.5425 8.56194L24.0254 9.22022C24.3189 9.61326 24.2337 10.1721 23.8408 10.461C23.6798 10.5793 23.4952 10.6362 23.3153 10.6362V10.6408ZM11.7832 6.32211C11.4045 6.32211 11.0541 6.08058 10.9358 5.70175C10.789 5.23294 11.0494 4.73591 11.5133 4.58911C13.0566 4.10137 14.6994 3.97348 16.2663 4.19604C16.7539 4.26707 17.09 4.71225 17.0238 5.2C16.9575 5.68774 16.4983 6.01904 16.0201 5.95748C14.7136 5.7728 13.3407 5.87707 12.0483 6.28905C11.9583 6.31746 11.8684 6.33159 11.7785 6.33159L11.7832 6.32211Z" fill="#0095DA"/>
<path d="M32.4661 23.0193C32.1868 23.0193 31.9217 22.8866 31.7513 22.6593L30.4873 20.9452C30.1938 20.5522 30.279 19.9934 30.6719 19.7045C31.0648 19.4109 31.6235 19.496 31.9122 19.889L32.4661 20.6372L33.0153 19.889C33.304 19.496 33.8627 19.4108 34.2556 19.6996C34.6485 19.9932 34.7337 20.5473 34.4449 20.9404L33.181 22.6546C33.0153 22.8819 32.7502 23.0144 32.4661 23.0144V23.0193Z" fill="#0095DA"/>
<path d="M49.1347 35.0278C48.95 35.0278 48.7654 34.9709 48.6092 34.8525C48.2163 34.5589 48.131 34.0051 48.4246 33.612L51.0472 30.0605C51.3407 29.6674 51.8946 29.5821 52.2875 29.8757C52.6804 30.1693 52.7657 30.7234 52.4721 31.1165L49.8495 34.668C49.6743 34.9048 49.4092 35.0278 49.1347 35.0278ZM54.3847 27.9247C54.2001 27.9247 54.0154 27.8678 53.8592 27.7494C53.4663 27.4558 53.3811 26.902 53.6746 26.5089L56.2973 22.9574C56.586 22.5644 57.1446 22.4791 57.5376 22.7727C57.9305 23.0663 58.0157 23.6203 57.7222 24.0134L55.0995 27.5649C54.9244 27.8017 54.6545 27.9247 54.3847 27.9247ZM59.4122 20.6843C59.2939 20.6843 59.1708 20.6605 59.0572 20.6084C58.6075 20.4096 58.4039 19.8888 58.6027 19.4389C59.1471 18.1983 59.4217 16.8772 59.4265 15.4992C59.4265 15.0114 59.8241 14.6136 60.3117 14.6136C60.8041 14.6136 61.197 15.0113 61.197 15.5038C61.197 17.1233 60.8656 18.686 60.2218 20.1492C60.075 20.4807 59.7484 20.6797 59.4075 20.6797L59.4122 20.6843ZM36.3575 17.7577C36.1729 17.7577 35.9882 17.7011 35.832 17.5827C35.4391 17.2891 35.3539 16.735 35.6474 16.342L38.27 12.7904C38.5588 12.3974 39.1174 12.3121 39.5104 12.6057C39.9033 12.8993 39.9885 13.4534 39.695 13.8464L37.0723 17.3979C36.8972 17.6347 36.6321 17.7577 36.3575 17.7577ZM59.4454 12.0942C59.0998 12.0942 58.7732 11.8908 58.6264 11.5545C58.0867 10.2902 57.3151 9.18689 56.3209 8.2777C55.9611 7.94622 55.9375 7.38252 56.2688 7.02263C56.6002 6.66274 57.1636 6.63913 57.5234 6.97061C58.7021 8.05501 59.6253 9.36208 60.2596 10.8632C60.4537 11.3131 60.2407 11.8339 59.791 12.0281C59.6773 12.0754 59.559 12.0991 59.4454 12.0991V12.0942ZM41.6028 10.6546C41.4182 10.6546 41.2336 10.598 41.0773 10.4796C40.6844 10.186 40.5992 9.63192 40.8927 9.23888L41.385 8.57111C42.1709 7.51039 43.113 6.60597 44.1829 5.89567C44.59 5.62575 45.1439 5.73467 45.4137 6.14191C45.6835 6.54916 45.5747 7.10325 45.1675 7.37316C44.2681 7.97456 43.4728 8.73211 42.8147 9.6271L42.3224 10.2949C42.1472 10.5316 41.8821 10.6546 41.6075 10.6546H41.6028ZM53.1302 6.31718C53.0402 6.31718 52.955 6.30282 52.8651 6.2744C51.5679 5.86716 50.1951 5.76313 48.8932 5.95255C48.4056 6.02358 47.9559 5.6827 47.8896 5.19969C47.8186 4.71195 48.1594 4.26677 48.6423 4.19573C50.2093 3.97317 51.852 4.09621 53.3953 4.58395C53.864 4.73075 54.1243 5.22801 53.9776 5.69682C53.8592 6.07565 53.5089 6.31718 53.1302 6.31718Z" fill="#0095DA"/>
<path d="M46.5027 42.0173C46.2328 42.0173 45.963 41.894 45.7878 41.6573L44.5238 39.943C44.2919 39.6305 44.2919 39.1995 44.5238 38.887L45.7878 37.1727C46.0813 36.7797 46.6352 36.6946 47.0281 36.9882C47.4211 37.2818 47.5063 37.8359 47.2128 38.229L46.337 39.4128L47.2128 40.5967C47.5063 40.9897 47.4211 41.5483 47.0281 41.8371C46.8672 41.9555 46.6825 42.0124 46.5027 42.0124V42.0173Z" fill="#0095DA"/>
<path d="M50.1761 74.7536C49.6648 74.7536 49.1536 74.7203 48.6565 74.6493C48.1689 74.5783 47.8328 74.1331 47.899 73.6453C47.9653 73.1576 48.4245 72.8263 48.9027 72.8879C50.2092 73.0725 51.5869 72.9635 52.8745 72.5563C53.3479 72.4095 53.8403 72.67 53.987 73.1341C54.1338 73.6029 53.8734 74.1 53.4095 74.2467C52.3585 74.5782 51.2697 74.7487 50.1761 74.7487V74.7536ZM44.6846 73.1057C44.5142 73.1057 44.3438 73.0583 44.1923 72.9589C43.1129 72.2438 42.1661 71.3393 41.3803 70.2691L40.8974 69.6156C40.6039 69.2226 40.6891 68.6638 41.0868 68.3749C41.4797 68.0813 42.0383 68.1665 42.3271 68.5643L42.81 69.2179C43.4727 70.1177 44.268 70.88 45.177 71.4814C45.5841 71.7513 45.6977 72.3054 45.4279 72.7126C45.2574 72.9683 44.9734 73.1103 44.6894 73.1103L44.6846 73.1057ZM56.9316 72.0969C56.6901 72.0969 56.4534 72.0023 56.2783 71.8129C55.9469 71.453 55.9706 70.8893 56.3304 70.5579C57.3198 69.6439 58.0962 68.5407 58.6311 67.2764C58.8205 66.8265 59.3412 66.6134 59.7957 66.8028C60.2454 66.9923 60.4584 67.5131 60.2691 67.9677C59.6347 69.4689 58.7163 70.7758 57.5375 71.8649C57.3671 72.0212 57.1493 72.1017 56.9363 72.1017L56.9316 72.0969ZM38.9896 66.4239C38.7197 66.4239 38.4499 66.3009 38.2747 66.0641L35.6521 62.5126C35.3586 62.1195 35.4438 61.5607 35.8367 61.2718C36.2296 60.9782 36.7883 61.0635 37.077 61.4566L39.6997 65.0081C39.9932 65.4011 39.908 65.96 39.5151 66.2488C39.3541 66.3672 39.1695 66.4239 38.9896 66.4239ZM60.3117 64.2079C59.8241 64.2079 59.4264 63.8148 59.4264 63.3223C59.4217 61.949 59.1424 60.6231 58.598 59.3871C58.3991 58.9373 58.6027 58.4165 59.0524 58.2176C59.5022 58.0188 60.0229 58.2224 60.2217 58.6722C60.8656 60.1355 61.1969 61.6982 61.2017 63.3177C61.2017 63.8101 60.8088 64.2079 60.3164 64.2079H60.3117ZM56.9979 56.2287C56.728 56.2287 56.4582 56.1057 56.283 55.8689L53.6604 52.3174C53.3668 51.9243 53.4521 51.3655 53.845 51.0766C54.2379 50.783 54.7965 50.8681 55.0853 51.2611L57.708 54.8127C58.0015 55.2057 57.9163 55.7646 57.5233 56.0534C57.3624 56.1718 57.1777 56.2287 56.9979 56.2287ZM51.7478 49.1256C51.478 49.1256 51.2081 49.0026 51.033 48.7658L48.4103 45.2143C48.1168 44.8212 48.202 44.2624 48.5949 43.9735C48.9879 43.68 49.5465 43.765 49.8353 44.1581L52.4579 47.7096C52.7514 48.1026 52.6662 48.6615 52.2733 48.9503C52.1123 49.0687 51.9277 49.1256 51.7478 49.1256Z" fill="#0095DA"/>
<path d="M40.159 39.4176L54.9671 19.368C57.0264 16.5836 56.5482 12.5633 53.9019 10.3992C51.2556 8.23041 47.4399 8.73219 45.3806 11.5213L32.4662 29.0044L19.5517 11.5213C17.4924 8.73219 13.6768 8.23041 11.0305 10.3992C8.38415 12.568 7.90601 16.5836 9.96532 19.368L24.7734 39.4176L9.96532 59.4672C7.90601 62.2516 8.38415 66.2719 11.0305 68.436C12.1382 69.3451 13.4496 69.781 14.7562 69.781C16.5646 69.781 18.354 68.9333 19.5517 67.3138L32.4662 49.8308L45.3806 67.3138C46.5784 68.9333 48.3678 69.781 50.1762 69.781C51.4781 69.781 52.7941 69.3404 53.9019 68.436C56.5482 66.2671 57.0264 62.2516 54.9671 59.4672L40.159 39.4176Z" fill="url(#paint2_linear_53_37154)"/>
<defs>
<linearGradient id="paint0_linear_53_37154" x1="0.587159" y1="39.4178" x2="64.3451" y2="39.4178" gradientUnits="userSpaceOnUse">
<stop stop-color="#F1F2F2"/>
<stop offset="1" stop-color="#D1D3D4"/>
</linearGradient>
<linearGradient id="paint1_linear_53_37154" x1="1.93637" y1="39.4173" x2="62.9912" y2="39.4173" gradientUnits="userSpaceOnUse">
<stop stop-color="#D1D3D4"/>
<stop offset="1" stop-color="#F1F2F2"/>
</linearGradient>
<linearGradient id="paint2_linear_53_37154" x1="8.68713" y1="39.4176" x2="56.2452" y2="39.4176" gradientUnits="userSpaceOnUse">
<stop stop-color="#00AEEE"/>
<stop offset="0.23" stop-color="#009FE2"/>
<stop offset="0.52" stop-color="#0097DC"/>
<stop offset="1" stop-color="#0095DA"/>
</linearGradient>
</defs>
</svg>
