<svg width="75" height="89" viewBox="0 0 75 89" fill="none" xmlns="http://www.w3.org/2000/svg">
<g style="mix-blend-mode:multiply">
<path opacity="0.03" d="M42.1994 88.4976C34.393 88.4976 28.0447 81.8113 28.0447 73.5906V55.1746L13.2271 34.6656C8.50258 28.1261 9.70976 18.7548 15.9208 13.7779C18.4062 11.789 21.3697 10.733 24.4894 10.733C28.9536 10.733 33.058 12.8781 35.7612 16.6143L42.2042 25.5311L48.6472 16.6143C51.3456 12.8781 55.4547 10.733 59.9189 10.733C63.0387 10.733 66.0022 11.7842 68.4828 13.7731C74.6939 18.7499 75.9058 28.1215 71.1765 34.661L56.3589 55.1698V73.5858C56.3589 81.8064 50.0106 88.4928 42.2042 88.4928L42.1994 88.4976Z" fill="#FBFBFB"/>
<path opacity="0.06" d="M41.8775 88.1516C34.0805 88.1516 27.7322 81.4699 27.7322 73.2588V54.8428L12.9099 34.3338C8.19009 27.7989 9.39727 18.4373 15.6036 13.4604C18.089 11.4715 21.0477 10.42 24.1627 10.42C28.6222 10.42 32.7266 12.5605 35.425 16.2967L41.8775 25.223L48.33 16.2967C51.0284 12.5652 55.1328 10.42 59.5922 10.42C62.7072 10.42 65.6707 11.4715 68.1514 13.4604C74.3577 18.4325 75.5649 27.7942 70.845 34.3338L56.0228 54.8428V73.2588C56.0228 81.4699 49.6792 88.1516 41.8775 88.1516Z" fill="#F7F7F7"/>
<path opacity="0.1" d="M41.5509 87.8015C33.7587 87.8015 27.4151 81.1248 27.4151 72.9184V54.4975L12.5928 33.9839C7.87298 27.4538 9.08016 18.0966 15.2817 13.1292C17.7624 11.1403 20.7212 10.0891 23.8361 10.0891C28.2909 10.0891 32.3953 12.2295 35.089 15.9609L41.5462 24.9013L48.0081 15.9609C50.7018 12.2295 54.8062 10.0891 59.2609 10.0891C62.3759 10.0891 65.3347 11.1404 67.8153 13.1246C74.0169 18.092 75.2241 27.4489 70.509 33.979L55.6867 54.4929V72.9135C55.6867 81.1199 49.3479 87.7969 41.5509 87.7969V87.8015Z" fill="#F3F3F3"/>
<path opacity="0.13" d="M41.229 87.4556C33.4415 87.4556 27.1074 80.7835 27.1074 72.5865V54.1611L12.2804 33.6426C7.56525 27.1172 8.77243 17.7697 14.9693 12.8022C17.4499 10.8181 20.404 9.76678 23.5142 9.76678C27.9642 9.76678 32.0639 11.9072 34.7576 15.634L41.2242 24.5838L47.6909 15.634C50.3846 11.9072 54.4843 9.76678 58.9343 9.76678C62.0445 9.76678 65.0033 10.8181 67.4792 12.8022C73.6761 17.7697 74.8832 27.1172 70.1681 33.6426L55.3411 54.1611V72.5865C55.3411 80.7882 49.007 87.4556 41.2195 87.4556H41.229Z" fill="#EFEFEF"/>
<path opacity="0.16" d="M40.9024 87.1103C33.1196 87.1103 26.7902 80.4429 26.7902 72.2507V53.8206L11.9632 33.3021C7.25286 26.7815 8.45531 17.4384 14.6474 12.4805C17.1233 10.4964 20.0774 9.44525 23.1876 9.44525C27.6376 9.44525 31.7326 11.5809 34.4262 15.3076L40.9024 24.2716L47.3786 15.3076C50.0722 11.5809 54.1672 9.44525 58.6124 9.44525C61.7227 9.44525 64.6767 10.4965 67.1526 12.4759C73.3447 17.4385 74.5519 26.7766 69.8415 33.2972L55.0145 53.8157V72.2458C55.0145 80.438 48.6851 87.1056 40.9024 87.1056V87.1103Z" fill="#EBEBEB"/>
<path opacity="0.19" d="M40.5804 86.7595C32.8071 86.7595 26.4777 80.0968 26.4777 71.914V53.4791L11.646 32.956C6.94038 26.4401 8.14282 17.1066 14.3302 12.1487C16.8061 10.1646 19.7554 9.11786 22.8657 9.11786C27.3109 9.11786 31.4059 11.2536 34.0948 14.9756L40.5804 23.9492L47.0661 14.9756C49.755 11.2536 53.8452 9.11786 58.2952 9.11786C61.4007 9.11786 64.3548 10.1646 66.8307 12.1487C73.018 17.1066 74.2252 26.4401 69.5149 32.956L54.6831 53.4791V71.914C54.6831 80.1015 48.3585 86.7595 40.5804 86.7595Z" fill="#E6E7E7"/>
<path opacity="0.23" d="M40.2537 86.4142C32.4852 86.4142 26.1652 79.7562 26.1652 71.5782V53.1432L11.3335 32.6201C6.63259 26.1089 7.83503 16.7849 14.0177 11.8269C16.4936 9.84754 19.4382 8.79633 22.5437 8.79633C26.9842 8.79633 31.0744 10.9319 33.7633 14.6492L40.2584 23.637L46.7535 14.6492C49.4425 10.9319 53.5279 8.79633 57.9732 8.79633C61.0787 8.79633 64.028 9.84291 66.4992 11.8223C72.6818 16.7755 73.8843 26.1041 69.1834 32.6152L54.3517 53.1432V71.5782C54.3517 79.7609 48.0317 86.4142 40.2632 86.4142H40.2537Z" fill="#E2E3E3"/>
<path opacity="0.26" d="M39.927 86.0635C32.1632 86.0635 25.848 79.415 25.848 71.237V52.7974L11.0163 32.2694C6.31535 25.763 7.5178 16.4437 13.6957 11.4952C16.1669 9.51581 19.1115 8.46946 22.217 8.46946C26.6575 8.46946 30.743 10.6004 33.4272 14.3177L39.9317 23.3149L46.4363 14.3129C49.1205 10.5956 53.206 8.4646 57.6465 8.4646C60.7473 8.4646 63.6966 9.51119 66.1678 11.4906C72.3457 16.4391 73.5481 25.7584 68.8472 32.2648L54.0108 52.7928V71.2323C54.0108 79.4056 47.6956 86.0589 39.9317 86.0589L39.927 86.0635Z" fill="#DEDFE0"/>
<path opacity="0.29" d="M39.6052 85.7181C31.8461 85.7181 25.5357 79.0745 25.5357 70.9059V52.4615L10.6992 31.9289C6.00305 25.4272 7.20549 16.1173 13.3787 11.1688C15.8498 9.18942 18.7944 8.14307 21.8952 8.14307C26.331 8.14307 30.4117 10.2739 33.0959 13.9865L39.6052 22.9978L46.1145 13.9865C48.7987 10.2739 52.8795 8.14307 57.3153 8.14307C60.4161 8.14307 63.3606 9.18953 65.8271 11.1642C72.0002 16.1127 73.2027 25.4224 68.5065 31.9241L53.6701 52.4566V70.9011C53.6701 79.0696 47.3596 85.7133 39.6005 85.7133L39.6052 85.7181Z" fill="#DADBDC"/>
<path opacity="0.32" d="M39.2785 85.3722C31.5288 85.3722 25.2184 78.7331 25.2184 70.5693V52.1202L10.3819 31.5876C5.69048 25.0907 6.88819 15.7857 13.0566 10.8467C15.5231 8.87206 18.4676 7.82536 21.5637 7.82536C25.9948 7.82536 30.0755 9.95159 32.755 13.6641L39.2737 22.6852L45.7925 13.6595C48.472 9.94697 52.5527 7.82074 56.9838 7.82074C60.0798 7.82074 63.0244 8.86721 65.4908 10.8419C71.6593 15.7856 72.8617 25.0908 68.1703 31.583L53.3291 52.1202V70.5693C53.3291 78.7331 47.0233 85.3722 39.269 85.3722H39.2785Z" fill="#D6D7D8"/>
<path opacity="0.35" d="M38.9567 85.0218C31.2118 85.0218 24.9108 78.3875 24.9108 70.2332V51.7795L10.0696 31.2421C5.38287 24.7499 6.58058 15.4543 12.7443 10.5153C15.2107 8.54061 18.1506 7.49414 21.2466 7.49414C25.6729 7.49414 29.7537 9.62025 32.4332 13.3281L38.9614 22.3632L45.4896 13.3281C48.1691 9.62025 52.2451 7.49414 56.6714 7.49414C59.7675 7.49414 62.7073 8.53598 65.1737 10.5106C71.3375 15.4497 72.5352 24.75 67.8485 31.2374L53.0073 51.7747V70.2286C53.0073 78.3829 46.7063 85.0172 38.9614 85.0172L38.9567 85.0218Z" fill="#D2D3D4"/>
<path opacity="0.39" d="M38.6299 84.6762C30.8898 84.6762 24.5935 78.0467 24.5935 69.8971V51.4385L9.75233 30.8965C5.06564 24.4137 6.26335 15.1228 12.4223 10.1837C14.884 8.20909 17.8239 7.16748 20.9152 7.16748C25.3415 7.16748 29.4128 9.2937 32.0922 12.9968L38.6299 22.046L45.1676 12.9968C47.8424 9.2937 51.9184 7.16748 56.3447 7.16748C59.436 7.16748 62.3759 8.20909 64.8376 10.1837C70.9965 15.118 72.1943 24.409 67.5123 30.8965L52.6664 51.4385V69.8971C52.6664 78.0467 46.3701 84.6762 38.6299 84.6762Z" fill="#CECFD0"/>
<path opacity="0.42" d="M38.308 84.3257C30.5726 84.3257 24.281 77.7009 24.281 69.5561V51.0975L9.43511 30.5552C4.75315 24.0772 5.95086 14.7913 12.1051 9.86171C14.5668 7.89179 17.5019 6.84521 20.5932 6.84521C25.0148 6.84521 29.0861 8.96658 31.7608 12.6697L38.308 21.7286L44.8552 12.6697C47.5299 8.96658 51.6012 6.84521 56.0228 6.84521C59.1141 6.84521 62.0492 7.88694 64.5109 9.85686C70.6651 14.7864 71.8628 24.0726 67.1809 30.5506L52.3349 51.0927V69.5512C52.3349 77.6961 46.0434 84.3209 38.308 84.3209V84.3257Z" fill="#CACBCC"/>
<path opacity="0.45" d="M37.9814 83.9798C30.2555 83.9798 23.9687 77.3597 23.9687 69.2243V50.7611L9.12274 30.2142C4.44551 23.7409 5.64322 14.4643 11.788 9.53476C14.2497 7.56484 17.1801 6.52289 20.2714 6.52289C24.6882 6.52289 28.7548 8.64436 31.4295 12.3427L37.9814 21.4158L44.5381 12.3427C47.2128 8.64436 51.2793 6.52289 55.6962 6.52289C58.7828 6.52289 61.7179 7.56484 64.1748 9.53476C70.3243 14.4643 71.5221 23.7409 66.8448 30.2142L51.9989 50.7611V69.2243C51.9989 77.3597 45.7121 83.9798 37.9861 83.9798H37.9814Z" fill="#C6C7C8"/>
<path opacity="0.48" d="M37.6595 83.6342C29.9383 83.6342 23.6562 77.0188 23.6562 68.8882V50.4202L8.80553 29.8686C4.13303 23.4001 5.32601 14.1282 11.4708 9.20816C13.9278 7.23824 16.8581 6.19629 19.9447 6.19629C24.3616 6.19629 28.4234 8.31787 31.0934 12.0115L37.6547 21.0938L44.2161 12.0115C46.8861 8.31314 50.9526 6.19629 55.3648 6.19629C58.4514 6.19629 61.3817 7.23812 63.8387 9.20331C69.9835 14.1281 71.1812 23.3952 66.504 29.8638L51.6533 50.4155V68.8836C51.6533 77.0142 45.3712 83.6294 37.65 83.6294L37.6595 83.6342Z" fill="#C2C3C4"/>
<path opacity="0.52" d="M37.3328 83.284C29.6163 83.284 23.339 76.6734 23.339 68.5522V50.0794L8.48832 29.5278C3.81582 23.064 5.01353 13.8016 11.1536 8.88148C13.6105 6.9163 16.5362 5.87469 19.6228 5.87469C24.0349 5.87469 28.0967 7.99142 30.7619 11.685L37.3328 20.7817L43.9036 11.685C46.5736 7.99142 50.6307 5.87469 55.0428 5.87469C58.1247 5.87469 61.055 6.9163 63.512 8.88148C69.652 13.8016 70.845 23.064 66.1773 29.5278L51.3266 50.0794V68.5522C51.3266 76.6782 45.0493 83.284 37.3328 83.284Z" fill="#BDBEC0"/>
<path opacity="0.55" d="M37.011 82.9382C29.2992 82.9382 23.0314 76.3324 23.0314 68.216V49.7385L8.17595 29.1821C3.50819 22.723 4.70117 13.4654 10.8365 8.55005C13.2887 6.58486 16.2191 5.54303 19.2962 5.54303C23.7036 5.54303 27.7607 7.65976 30.4307 11.3534L37.011 20.4595L43.5913 11.3534C46.2565 7.66449 50.3136 5.54789 54.721 5.54789C57.8029 5.54789 60.7285 6.58486 63.1807 8.55005C69.316 13.4654 70.509 22.723 65.8412 29.1821L50.9858 49.7385V68.216C50.9858 76.3324 44.7132 82.9382 37.0062 82.9382H37.011Z" fill="#B9BABC"/>
<path opacity="0.58" d="M36.6843 82.5923C28.982 82.5923 22.7141 75.9911 22.7141 67.8841V49.4066L7.85873 28.8456C3.19571 22.3913 4.38868 13.1432 10.5193 8.23256C12.9715 6.26737 15.8971 5.23016 18.9742 5.23016C23.3769 5.23016 27.434 7.347 30.0992 11.0359L36.689 20.1561L43.2788 11.0359C45.944 7.347 49.9964 5.23502 54.4038 5.23502C57.4809 5.23502 60.4065 6.272 62.8588 8.23718C68.9893 13.1478 70.1823 22.3961 65.5193 28.8505L50.6639 49.4115V67.889C50.6639 76.0007 44.396 82.5971 36.6937 82.5971L36.6843 82.5923Z" fill="#B5B6B8"/>
<path opacity="0.61" d="M36.3576 82.2423C28.66 82.2423 22.3969 75.6506 22.3969 67.5437V49.0613L7.53677 28.5003C2.87848 22.0507 4.07146 12.8119 10.1926 7.90133C12.6448 5.93615 15.5657 4.89917 18.6428 4.89917C23.0455 4.89917 27.0931 7.01115 29.7583 10.7L36.3576 19.8298L42.9568 10.7C45.6174 7.01589 49.6697 4.90379 54.0723 4.90379C57.1495 4.90379 60.0704 5.94088 62.5179 7.90133C68.6437 12.8119 69.8367 22.0507 65.1784 28.5003L50.3183 49.0613V67.5437C50.3183 75.6506 44.0551 82.2423 36.3576 82.2423Z" fill="#B1B2B4"/>
<path opacity="0.65" d="M36.0357 81.8967C28.3429 81.8967 22.0845 75.3098 22.0845 67.2075V48.7205L7.22439 28.1547C2.57083 21.7098 3.75907 12.4759 9.88018 7.57005C12.3277 5.6096 15.2486 4.57251 18.321 4.57251C22.7189 4.57251 26.7665 6.68437 29.427 10.3685L36.031 19.5126L42.6397 10.3685C45.3002 6.68437 49.3478 4.57251 53.7458 4.57251C56.8181 4.57251 59.739 5.6096 62.1865 7.57005C68.3076 12.4759 69.5006 21.7098 64.8423 28.1547L49.9822 48.7205V67.2075C49.9822 75.305 43.7238 81.8967 36.031 81.8967H36.0357Z" fill="#ADAEB0"/>
<path opacity="0.68" d="M35.7091 81.5456C28.0257 81.5456 21.7721 74.9635 21.7721 66.8707V48.3789L6.9072 27.8084C2.25364 21.3682 3.44662 12.1436 9.55826 7.24249C12.0058 5.28203 14.9219 4.24518 17.9943 4.24518C22.3875 4.24518 26.4351 6.35715 29.0909 10.0366L35.7043 19.1899L42.3178 10.0366C44.9783 6.35715 49.0212 4.24518 53.4144 4.24518C56.4868 4.24518 59.4029 5.28203 61.8504 7.24249C67.9668 12.1436 69.155 21.3682 64.5062 27.8084L49.6413 48.3789V66.8707C49.6413 74.9635 43.3877 81.5456 35.7043 81.5456H35.7091Z" fill="#A9AAAC"/>
<path opacity="0.71" d="M35.3872 81.2004C27.7086 81.2004 21.4597 74.6228 21.4597 66.5348V48.0386L6.59481 27.4678C1.94599 21.0324 3.13423 11.8127 9.24587 6.91627C11.6886 4.95582 14.6048 3.92358 17.6725 3.92358C22.0609 3.92358 26.1038 6.0307 28.7643 9.7101L35.3872 18.878L42.0101 9.7101C44.6659 6.03544 48.7088 3.92358 53.0972 3.92358C56.1649 3.92358 59.0811 4.96055 61.5238 6.91627C67.6355 11.8127 68.8237 21.0324 64.1749 27.4678L49.31 48.0386V66.5348C49.31 74.6228 43.0611 81.2004 35.3825 81.2004H35.3872Z" fill="#A5A6A8"/>
<path opacity="0.74" d="M35.0606 80.8548C27.3867 80.8548 21.1425 74.2821 21.1425 66.2036V47.7025L6.27289 27.1271C1.6288 20.6964 2.81704 11.4862 8.92395 6.59452C11.3667 4.63881 14.2781 3.60161 17.3458 3.60161C21.7342 3.60161 25.7724 5.70884 28.4282 9.3835L35.0606 18.5609L41.6929 9.37888C44.3487 5.70421 48.3869 3.59698 52.7753 3.59698C55.843 3.59698 58.7544 4.62922 61.1972 6.58967C67.3041 11.4813 68.4923 20.6963 63.8482 27.1223L48.9786 47.6976V66.1987C48.9786 74.2773 42.7344 80.8502 35.0606 80.8502V80.8548Z" fill="#A1A2A4"/>
<path opacity="0.77" d="M34.7386 80.5043C27.0695 80.5043 20.8348 73.9363 20.8348 65.8625V47.3614L5.96517 26.786C1.32581 20.3601 2.50932 11.1594 8.61149 6.26778C11.0543 4.31207 13.961 3.27972 17.0286 3.27972C21.4123 3.27972 25.4457 5.38683 28.1015 9.05676L34.7434 18.2482L41.3852 9.05676C44.0363 5.38683 48.0744 3.27972 52.4581 3.27972C55.521 3.27972 58.4325 4.31207 60.8705 6.26778C66.9727 11.1594 68.1609 20.3601 63.5168 26.786L48.6472 47.366V65.8673C48.6472 73.9412 42.4078 80.5091 34.7434 80.5091L34.7386 80.5043Z" fill="#9D9EA1"/>
<path opacity="0.81" d="M34.412 80.1581C26.7523 80.1581 20.5176 73.5949 20.5176 65.5257V47.0198L5.64802 26.4398C1.00866 20.0186 2.1969 10.8226 8.29434 5.93568C10.7324 3.97996 13.6391 2.94762 16.702 2.94762C21.081 2.94762 25.1144 5.0501 27.7654 8.72003L34.4167 17.921L41.0681 8.71541C43.7191 5.04548 47.7525 2.94299 52.1315 2.94299C55.1944 2.94299 58.1011 3.9751 60.5392 5.93082C66.6366 10.8177 67.8248 20.014 63.1855 26.4352L48.3111 47.0152V65.5211C48.3111 73.5902 42.0764 80.1534 34.4167 80.1534L34.412 80.1581Z" fill="#999A9D"/>
<path opacity="0.84" d="M34.09 79.808C26.4351 79.808 20.2051 73.2494 20.2051 65.1898V46.6792L5.33076 26.0944C0.696138 19.6779 1.88438 10.4914 7.97235 5.60917C10.4104 3.65819 13.3171 2.62573 16.3753 2.62573C20.7542 2.62573 24.7829 4.72833 27.4292 8.39352L34.0853 17.6086L40.7461 8.39352C43.3924 4.72833 47.4211 2.62573 51.8 2.62573C54.8582 2.62573 57.7649 3.65819 60.203 5.60917C66.2957 10.4914 67.4792 19.6826 62.8493 26.0944L47.9749 46.6792V65.1898C47.9749 73.2494 41.745 79.808 34.09 79.808Z" fill="#949699"/>
<path opacity="0.87" d="M33.7632 79.4624C26.113 79.4624 19.8925 72.9086 19.8925 64.8537V46.3383L5.01819 25.7536C0.388301 19.3419 1.57181 10.16 7.65978 5.28257C10.0931 3.33159 12.9998 2.29913 16.0532 2.29913C20.4275 2.29913 24.4514 4.40161 27.0977 8.06207L33.7632 17.2915L40.4288 8.06207C43.0751 4.40161 47.099 2.29913 51.4733 2.29913C54.5315 2.29913 57.4334 3.33159 59.8667 5.28257C65.9547 10.16 67.1382 19.3419 62.5083 25.7536L47.6292 46.3431V64.8585C47.6292 72.9134 41.404 79.467 33.7585 79.467L33.7632 79.4624Z" fill="#909295"/>
<path opacity="0.9" d="M33.4415 79.1168C25.796 79.1168 19.5802 72.5676 19.5802 64.5221V46.0021L4.70117 25.4126C0.0760216 19.0104 1.25953 9.83323 7.33803 4.96051C9.77133 3.00953 12.6733 1.98193 15.7267 1.98193C20.0963 1.98193 24.1202 4.07979 26.7665 7.74024L33.4415 16.9789L40.1165 7.74024C42.7628 4.07979 46.782 1.98193 51.1515 1.98193C54.205 1.98193 57.1069 3.01427 59.5402 4.96051C65.6235 9.83323 66.807 19.0104 62.1818 25.4126L47.3028 46.0021V64.5221C47.3028 72.5723 41.0822 79.1168 33.4415 79.1168Z" fill="#8C8E91"/>
<path opacity="0.94" d="M33.1148 78.7658C25.4788 78.7658 19.263 72.2216 19.263 64.1809V45.6609L4.38391 25.0666C-0.241239 18.6691 0.94227 9.49654 7.02077 4.62856C9.45407 2.68231 12.3513 1.65021 15.4047 1.65021C19.7695 1.65021 23.7935 3.74794 26.435 7.40366L33.1195 16.6566L39.804 7.40366C42.4456 3.74794 46.4648 1.65021 50.8343 1.65021C53.8877 1.65021 56.785 2.67757 59.2182 4.62856C65.2967 9.49654 66.4803 18.6691 61.8551 25.0666L46.9713 45.6609V64.1809C46.9713 72.2216 40.7555 78.7658 33.1195 78.7658H33.1148Z" fill="#888A8D"/>
<path opacity="0.97" d="M32.7881 78.4204C25.1569 78.4204 18.9458 71.8809 18.9458 63.8496V45.325L4.06199 24.7306C-0.558425 18.3379 0.625084 9.17494 6.69885 4.30696C9.12741 2.36072 12.0246 1.33301 15.0734 1.33301C19.4381 1.33301 23.4526 3.43085 26.0942 7.08184L32.7881 16.3443L39.482 7.08184C42.1236 3.42611 46.1381 1.33301 50.5029 1.33301C53.5516 1.33301 56.4488 2.36072 58.8774 4.30696C64.9512 9.17494 66.1347 18.3331 61.5142 24.7306L46.6304 45.325V63.8496C46.6304 71.8856 40.4194 78.4204 32.7881 78.4204Z" fill="#848689"/>
<path d="M32.4663 78.0748C24.8397 78.0748 18.6381 71.5447 18.6381 63.5135V44.984L3.75433 24.385C-0.861355 17.997 0.317421 8.84355 6.38645 3.9803C8.81501 2.03406 11.7075 1.00635 14.7562 1.00635C19.1163 1.00635 23.1307 3.09933 25.7676 6.75032L32.471 16.0271L39.1744 6.75032C41.8112 3.09933 45.8257 1.00635 50.1857 1.00635C53.2345 1.00635 56.127 2.03406 58.5555 3.9803C64.6245 8.84355 65.8033 17.997 61.1876 24.385L46.3038 44.984V63.5135C46.3038 71.5447 40.1022 78.0748 32.4757 78.0748H32.4663Z" fill="#808285"/>
</g>
<path d="M32.4662 78.4253C24.6551 78.4253 18.302 71.7341 18.302 63.5088V45.0976L3.48446 24.5933C-1.24484 18.049 -0.0329307 8.67282 6.18286 3.69119C8.66823 1.69759 11.6365 0.646484 14.7562 0.646484C19.2204 0.646484 23.3343 2.79147 26.0374 6.53243L32.471 15.4351L38.9045 6.53243C41.6076 2.79147 45.7168 0.646484 50.1857 0.646484C53.3054 0.646484 56.2737 1.69759 58.7591 3.69119C64.9748 8.67282 66.1868 18.049 61.4575 24.5933L46.6399 45.0976V63.5088C46.6399 71.7341 40.2868 78.4253 32.4757 78.4253H32.4662Z" fill="url(#paint0_linear_53_37115)"/>
<path d="M32.4662 77.0042C25.3983 77.0042 19.6512 70.9476 19.6512 63.5083V44.6188L4.55909 23.7357C0.27952 17.8117 1.37308 9.33065 6.99712 4.82256C9.24578 3.01838 11.93 2.06665 14.7515 2.06665C18.7943 2.06665 22.5106 4.00804 24.958 7.38911L32.4662 17.7785L39.9744 7.38911C42.4172 4.00804 46.1381 2.06665 50.181 2.06665C53.0072 2.06665 55.6867 3.01838 57.9353 4.82256C63.5594 9.33065 64.6529 17.8117 60.3781 23.7357L45.286 44.6188V63.5083C45.286 70.9476 39.5341 77.0042 32.471 77.0042H32.4662Z" fill="url(#paint1_linear_53_37115)"/>
<path d="M32.4662 23.4284C32.1822 23.4284 31.9124 23.2912 31.7467 23.0592L30.4969 21.3306C30.2081 20.9328 30.2981 20.3789 30.6957 20.0901C31.0934 19.8012 31.6473 19.8912 31.936 20.2889L32.4662 21.0228L32.9965 20.2889C33.2852 19.8912 33.8391 19.8012 34.2368 20.0901C34.6344 20.3789 34.7244 20.9328 34.4356 21.3306L33.1858 23.0592C33.0201 23.2912 32.7503 23.4284 32.4662 23.4284Z" fill="#F15A29"/>
<path d="M32.4663 74.8735C31.6947 74.8735 30.923 74.7883 30.1703 74.6273C29.6922 74.5231 29.3892 74.0496 29.4933 73.5713C29.5975 73.093 30.0661 72.7899 30.549 72.894C31.8177 73.1734 33.1622 73.1687 34.4262 72.8846C34.9091 72.7757 35.3777 73.0787 35.4866 73.557C35.5955 74.0352 35.2925 74.5089 34.8144 74.6178C34.0475 74.7883 33.2569 74.8781 32.4663 74.8781V74.8735ZM26.4919 72.861C26.3073 72.861 26.118 72.8042 25.957 72.6811C24.712 71.7435 23.6847 70.5691 22.913 69.2005C22.6716 68.7743 22.8231 68.2344 23.2491 67.9929C23.6752 67.7514 24.2149 67.9029 24.4563 68.3291C25.1001 69.4703 25.9901 70.4885 27.0222 71.2651C27.4151 71.5587 27.4908 72.1175 27.1973 72.5058C27.0222 72.7379 26.7571 72.861 26.4872 72.861H26.4919ZM38.4833 72.8325C38.2134 72.8325 37.953 72.714 37.7779 72.482C37.4796 72.0937 37.5554 71.535 37.9483 71.2367C38.9803 70.4506 39.8609 69.4325 40.5 68.2865C40.7414 67.8556 41.2763 67.7042 41.7071 67.9457C42.1332 68.1872 42.2894 68.7269 42.048 69.1531C41.2811 70.5311 40.2585 71.7056 39.0182 72.6526C38.8573 72.7758 38.6679 72.8325 38.4833 72.8325ZM22.3781 65.5921C21.9331 65.5921 21.5496 65.2559 21.4975 64.8013C21.4502 64.3752 21.4265 63.9441 21.4265 63.5132V60.4116C21.4265 59.9191 21.8242 59.5214 22.3118 59.5214C22.7994 59.5214 23.1971 59.9191 23.1971 60.4116V63.5086C23.1971 63.8732 23.216 64.2472 23.2586 64.6071C23.3107 65.0949 22.9604 65.5352 22.4728 65.5873C22.4396 65.5873 22.4065 65.5921 22.3733 65.5921H22.3781ZM42.564 65.5447C42.5309 65.5447 42.5025 65.5448 42.4693 65.5401C41.9817 65.488 41.6267 65.0523 41.6787 64.5646C41.7166 64.2141 41.7355 63.8589 41.7355 63.5132V60.3642C41.7355 59.8717 42.1332 59.474 42.6208 59.474C43.1084 59.474 43.5061 59.8717 43.5061 60.3642V63.5132C43.5061 63.9252 43.4824 64.3372 43.4398 64.7539C43.3925 65.2085 43.0043 65.5496 42.5593 65.5496L42.564 65.5447ZM22.3165 57.002C21.8242 57.002 21.4313 56.6043 21.4313 56.1119V51.8169C21.4313 51.3245 21.8289 50.9265 22.3165 50.9265C22.8041 50.9265 23.2018 51.3245 23.2018 51.8169V56.1119C23.2018 56.6043 22.8041 57.002 22.3165 57.002ZM42.6255 56.9546C42.1332 56.9546 41.7403 56.5569 41.7403 56.0644V51.7695C41.7403 51.2771 42.1379 50.8793 42.6255 50.8793C43.1131 50.8793 43.5108 51.2771 43.5108 51.7695V56.0644C43.5108 56.5569 43.1131 56.9546 42.6255 56.9546ZM22.3165 48.4122C21.8242 48.4122 21.4313 48.0143 21.4313 47.5218L21.4123 43.8093C21.1236 43.4115 21.2135 42.8574 21.6112 42.5686C22.0088 42.2797 22.5627 42.3697 22.8515 42.7674L23.0408 43.028C23.1497 43.1796 23.2113 43.3595 23.2113 43.549V47.5266C23.2113 48.0191 22.8136 48.4168 22.326 48.4168L22.3165 48.4122ZM42.6255 48.3648C42.1332 48.3648 41.7403 47.9669 41.7403 47.4744V43.549C41.7403 43.3643 41.7971 43.1796 41.906 43.028L42.1237 42.7298C42.4125 42.332 42.9664 42.2418 43.3641 42.5307C43.7617 42.8195 43.8517 43.3736 43.5629 43.7714L43.5155 43.8378V47.4792C43.5155 47.9717 43.1179 48.3694 42.6303 48.3694L42.6255 48.3648ZM19.6134 40.6982C19.3388 40.6982 19.069 40.5703 18.8938 40.3288L16.38 36.8482C16.0913 36.4504 16.1812 35.8966 16.5789 35.6077C16.9765 35.3188 17.5304 35.4088 17.8192 35.8066L20.333 39.2871C20.6217 39.6849 20.5318 40.2388 20.1341 40.5276C19.9779 40.6413 19.7933 40.6982 19.6134 40.6982ZM45.3571 40.6603C45.1772 40.6603 44.9973 40.6033 44.8363 40.4897C44.4387 40.2008 44.3487 39.647 44.6375 39.2492L47.1513 35.7686C47.4401 35.3709 47.9939 35.2809 48.3916 35.5698C48.7893 35.8586 48.8792 36.4127 48.5904 36.8105L46.0767 40.2908C45.9015 40.5323 45.6317 40.6603 45.3571 40.6603ZM14.5811 33.7371C14.3065 33.7371 14.0367 33.6094 13.8615 33.3679L11.3478 29.8873C11.059 29.4895 11.1489 28.9354 11.5466 28.6466C11.9443 28.3577 12.4981 28.4477 12.7869 28.8454L15.3007 32.326C15.5895 32.7238 15.4995 33.2779 15.1019 33.5667C14.9456 33.6804 14.761 33.7371 14.5811 33.7371ZM50.3894 33.6992C50.2095 33.6992 50.0296 33.6425 49.8686 33.5288C49.471 33.2399 49.381 32.6859 49.6698 32.2881L52.1836 28.8075C52.4723 28.4097 53.0262 28.3198 53.4239 28.6087C53.8215 28.8975 53.9115 29.4516 53.6227 29.8494L51.1089 33.33C50.9338 33.5715 50.6639 33.6992 50.3894 33.6992ZM9.54883 26.776C9.27426 26.776 9.00442 26.6483 8.82926 26.4068L6.31549 22.9262C6.02671 22.5284 6.11666 21.9743 6.51432 21.6855C6.91198 21.3966 7.46586 21.4868 7.75464 21.8846L10.2684 25.3649C10.5572 25.7627 10.4672 26.3168 10.0696 26.6056C9.91336 26.7193 9.72873 26.776 9.54883 26.776ZM55.4216 26.7383C55.2417 26.7383 55.0619 26.6813 54.9009 26.5677C54.5032 26.2788 54.4133 25.725 54.7021 25.3272L57.2158 21.8466C57.5046 21.4489 58.0585 21.3589 58.4562 21.6478C58.8538 21.9366 58.9438 22.4905 58.655 22.8883L56.1412 26.3688C55.9661 26.6103 55.6962 26.7383 55.4216 26.7383ZM5.05623 19.512C4.67278 19.512 4.31773 19.261 4.20411 18.8727C3.8964 17.8167 3.74017 16.7181 3.74017 15.6053C3.74017 15.1602 3.76384 14.7104 3.81592 14.27C3.87273 13.7823 4.31773 13.4366 4.79586 13.4887C5.28347 13.5455 5.63379 13.9859 5.57698 14.4689C5.53437 14.843 5.51544 15.2219 5.51544 15.6007C5.51544 16.5478 5.64799 17.4806 5.90836 18.3756C6.04565 18.8444 5.77581 19.3368 5.3024 19.4741C5.22193 19.4978 5.13671 19.5074 5.05623 19.5074V19.512ZM59.9048 19.4646C59.8243 19.4646 59.7438 19.4552 59.6586 19.4315C59.1852 19.299 58.9154 18.8066 59.0479 18.333C59.2988 17.4475 59.4266 16.5288 59.4266 15.6007C59.4266 15.2076 59.403 14.8099 59.3604 14.4263C59.3035 13.9386 59.6491 13.4981 60.1367 13.4413C60.6243 13.3845 61.0646 13.73 61.1214 14.2178C61.1735 14.6771 61.2019 15.1414 61.2019 15.6007C61.2019 16.6946 61.0504 17.7741 60.7522 18.8207C60.6433 19.209 60.2835 19.4646 59.9 19.4646H59.9048ZM36.2393 18.2287C36.0594 18.2287 35.8795 18.172 35.7186 18.0583C35.3209 17.7695 35.231 17.2154 35.5198 16.8176L38.0335 13.337C38.3176 12.9393 38.8762 12.8493 39.2738 13.1382C39.6715 13.427 39.7614 13.9811 39.4727 14.3789L36.9589 17.8595C36.7837 18.101 36.5139 18.2287 36.2393 18.2287ZM28.6838 18.1862C28.4092 18.1862 28.1394 18.0582 27.9642 17.8167L25.4505 14.3361C25.1617 13.9384 25.2516 13.3845 25.6493 13.0956C26.0469 12.8068 26.6008 12.8967 26.8896 13.2945L29.4034 16.7751C29.6922 17.1728 29.6022 17.7267 29.2046 18.0155C29.0483 18.1292 28.8637 18.1862 28.6838 18.1862ZM41.2716 11.263C41.0917 11.263 40.9118 11.2062 40.7509 11.0926C40.3532 10.8037 40.2633 10.2496 40.552 9.85186L41.3237 8.78639C41.958 7.90561 42.7155 7.12894 43.5723 6.47072C43.9605 6.17239 44.5192 6.24821 44.8174 6.63651C45.1156 7.02481 45.0399 7.58353 44.6517 7.88186C43.9321 8.43117 43.2978 9.08932 42.7628 9.82804L41.9912 10.8935C41.816 11.135 41.5462 11.263 41.2716 11.263ZM23.6515 11.2204C23.377 11.2204 23.1071 11.0925 22.932 10.851L22.1934 9.82804C21.649 9.07511 21.0005 8.4122 20.2667 7.85342C19.8785 7.55509 19.798 7.00111 20.0963 6.60807C20.3945 6.21977 20.9484 6.14407 21.3413 6.43766C22.2171 7.10061 22.9888 7.89141 23.6326 8.78639L24.3711 9.80931C24.6599 10.2071 24.5699 10.7609 24.1723 11.0498C24.016 11.1635 23.8314 11.2204 23.6515 11.2204ZM6.00304 11.1872C5.85629 11.1872 5.70953 11.1494 5.57224 11.0736C5.14618 10.8321 4.98996 10.2921 5.23139 9.86596C5.9415 8.59688 6.86937 7.49831 7.99134 6.59859C8.08602 6.52282 8.1807 6.44719 8.28011 6.37615C8.67304 6.08256 9.22692 6.15815 9.52043 6.55119C9.81394 6.94423 9.7382 7.49832 9.34527 7.79192C9.26479 7.85348 9.17958 7.91499 9.10384 7.98129C8.16176 8.73421 7.38065 9.65775 6.78416 10.728C6.6232 11.0168 6.32022 11.1825 6.00778 11.1825L6.00304 11.1872ZM58.9296 11.1446C58.6218 11.1446 58.3189 10.9835 58.1579 10.6947C57.5614 9.6434 56.7898 8.7296 55.8619 7.98614C55.772 7.91037 55.6773 7.83936 55.5826 7.76833C55.1897 7.47474 55.1092 6.92064 55.398 6.5276C55.6915 6.13457 56.2454 6.054 56.6383 6.34286C56.7472 6.42336 56.8608 6.50862 56.9697 6.59859C58.0774 7.48884 58.9958 8.56865 59.7012 9.81879C59.9426 10.245 59.7912 10.7847 59.3651 11.0262C59.2278 11.1067 59.0763 11.1398 58.9296 11.1398V11.1446ZM47.9655 6.23881C47.5631 6.23881 47.1986 5.96406 47.0992 5.55209C46.9903 5.07381 47.2838 4.59554 47.762 4.48662C49.2863 4.13147 50.8722 4.11248 52.4061 4.43922C52.8842 4.53867 53.1919 5.01231 53.0878 5.49058C52.9836 5.96886 52.5197 6.27663 52.0368 6.17245C50.7586 5.90253 49.4378 5.91678 48.1644 6.21037C48.0981 6.22458 48.0271 6.23395 47.9608 6.23395L47.9655 6.23881ZM16.9434 6.22933C16.8771 6.22933 16.8108 6.22446 16.7446 6.20551C16.096 6.05872 15.4285 5.98308 14.7657 5.98308H14.7563C14.1172 5.98308 13.4828 6.04934 12.8674 6.18193C12.3845 6.29084 11.9159 5.97834 11.8117 5.50006C11.7076 5.02179 12.0153 4.54826 12.4934 4.44408C13.2366 4.28308 14.032 4.20719 14.7657 4.20245C15.5611 4.20245 16.3564 4.29257 17.1375 4.47252C17.6156 4.58143 17.9139 5.05485 17.805 5.53313C17.7103 5.9451 17.3458 6.22447 16.9387 6.22447L16.9434 6.22933Z" fill="#F15A29"/>
<path d="M53.8498 10.4768C51.1799 8.34116 47.3737 8.88588 45.3428 11.694L32.4662 29.5132L19.5896 11.694C17.5587 8.88588 13.7478 8.34116 11.0826 10.4768C8.41258 12.6172 7.89657 16.6281 9.92747 19.4361L26.3972 42.2277V63.5132C26.3972 67.0458 29.1145 69.906 32.4662 69.906C35.8179 69.906 38.5353 67.0458 38.5353 63.5132V42.2277L55.005 19.4361C57.0359 16.6281 56.5198 12.6172 53.8498 10.4768Z" fill="url(#paint2_linear_53_37115)"/>
<defs>
<linearGradient id="paint0_linear_53_37115" x1="0.596696" y1="39.5382" x2="64.3357" y2="39.5382" gradientUnits="userSpaceOnUse">
<stop stop-color="#F1F2F2"/>
<stop offset="1" stop-color="#D1D3D4"/>
</linearGradient>
<linearGradient id="paint1_linear_53_37115" x1="1.9459" y1="39.5378" x2="62.9866" y2="39.5378" gradientUnits="userSpaceOnUse">
<stop stop-color="#D1D3D4"/>
<stop offset="1" stop-color="#F1F2F2"/>
</linearGradient>
<linearGradient id="paint2_linear_53_37115" x1="8.68715" y1="39.5379" x2="56.2453" y2="39.5379" gradientUnits="userSpaceOnUse">
<stop stop-color="#F67950"/>
<stop offset="0.13" stop-color="#F46D42"/>
<stop offset="0.34" stop-color="#F26233"/>
<stop offset="0.59" stop-color="#F15C2B"/>
<stop offset="1" stop-color="#F15A29"/>
</linearGradient>
</defs>
</svg>
