<svg width="75" height="89" viewBox="0 0 75 89" fill="none" xmlns="http://www.w3.org/2000/svg">
<g style="mix-blend-mode:multiply">
<path opacity="0.03" d="M24.494 88.2496C19.1256 88.2496 14.136 84.968 11.7784 79.8917C9.42086 74.8201 10.0268 68.6544 13.3217 64.1937L30.9702 40.3038H24.4988C16.6923 40.3038 10.344 33.6174 10.344 25.3968C10.344 17.1762 16.6923 10.4898 24.4988 10.4898H59.9141C65.2825 10.4898 70.2722 13.7714 72.6297 18.8477C74.9873 23.9193 74.3813 30.0848 71.0864 34.5455L53.4379 58.4356H59.9093C67.7158 58.4356 74.0641 65.122 74.0641 73.3426C74.0641 81.5633 67.7158 88.2496 59.9093 88.2496H24.494Z" fill="#FBFBFB"/>
<path opacity="0.06" d="M24.1674 87.9042C18.8037 87.9042 13.8188 84.6273 11.4612 79.5509C9.10369 74.4793 9.70965 68.3233 12.9998 63.8673L30.6625 39.9584H24.1674C16.3704 39.9584 10.0221 33.2767 10.0221 25.0655C10.0221 16.8543 16.3657 10.1726 24.1674 10.1726H59.5827C64.9464 10.1726 69.9313 13.4496 72.2889 18.5259C74.6464 23.5975 74.0405 29.7536 70.7503 34.2096L53.0876 58.1184H59.5827C67.3797 58.1184 73.728 64.8002 73.728 73.0113C73.728 81.2225 67.3844 87.9042 59.5827 87.9042H24.1674Z" fill="#F7F7F7"/>
<path opacity="0.1" d="M23.8456 87.5533C18.4867 87.5533 13.5017 84.2764 11.1489 79.2095C8.79611 74.1426 9.39733 67.9915 12.6875 63.5355L30.3644 39.6075H23.8456C16.0534 39.6075 9.70978 32.9307 9.70978 24.7243C9.70978 16.5179 16.0487 9.84088 23.8456 9.84088H59.2609C64.6199 9.84088 69.6048 13.1178 71.9576 18.1847C74.3104 23.2516 73.7092 29.4026 70.419 33.8587L52.7422 57.7867H59.2609C67.0531 57.7867 73.3968 64.4637 73.3968 72.6701C73.3968 80.8765 67.0579 87.5533 59.2609 87.5533H23.8456Z" fill="#F3F3F3"/>
<path opacity="0.13" d="M23.5189 87.2077C18.1647 87.2077 13.1845 83.9356 10.8317 78.8687C8.47884 73.8066 9.0848 67.6599 12.3702 63.2086L30.0613 39.2618H23.5236C15.7361 39.2618 9.40198 32.5897 9.40198 24.3928C9.40198 16.1958 15.7361 9.52368 23.5236 9.52368H58.9389C64.2931 9.52368 69.2733 12.7958 71.6261 17.8626C73.979 22.9248 73.373 29.0712 70.0876 33.5225L52.3965 57.4695H58.9342C66.7217 57.4695 73.0558 64.1416 73.0558 72.3386C73.0558 80.5355 66.7217 87.2077 58.9342 87.2077H23.5189Z" fill="#EFEFEF"/>
<path opacity="0.16" d="M23.1971 86.8618C17.8476 86.8618 12.8721 83.5896 10.5193 78.5275C8.1665 73.4701 8.77245 67.3284 12.0579 62.8771L29.7584 38.9114H23.1971C15.4143 38.9114 9.0849 32.2438 9.0849 24.0516C9.0849 15.8593 15.4143 9.19196 23.1971 9.19196H58.6124C63.9618 9.19196 68.9373 12.4642 71.2901 17.5263C73.6429 22.5837 73.037 28.7254 69.7516 33.1767L52.051 57.1426H58.6124C66.3951 57.1426 72.7245 63.81 72.7245 72.0022C72.7245 80.1945 66.3951 86.8618 58.6124 86.8618H23.1971Z" fill="#EBEBEB"/>
<path opacity="0.19" d="M22.8704 86.5116C17.5257 86.5116 12.5502 83.2441 10.2021 78.1867C7.85407 73.134 8.45529 66.9922 11.736 62.5504L29.4507 38.5657H22.8657C15.0924 38.5657 8.763 31.903 8.763 23.7202C8.763 15.5375 15.0877 8.87476 22.8657 8.87476H58.281C63.6257 8.87476 68.6012 12.1422 70.9493 17.1996C73.2974 22.2523 72.6961 28.3941 69.4155 32.8359L51.7007 56.8206H58.2857C66.059 56.8206 72.3884 63.4833 72.3884 71.6661C72.3884 79.8488 66.0638 86.5116 58.2857 86.5116H22.8704Z" fill="#E6E7E7"/>
<path opacity="0.23" d="M22.5437 86.1657C17.2037 86.1657 12.233 82.8982 9.88491 77.8455C7.53683 72.7928 8.13805 66.6605 11.4187 62.2187L29.1477 38.2151H22.539C14.7704 38.2151 8.4505 31.5571 8.4505 23.379C8.4505 15.201 14.7704 8.54303 22.539 8.54303H57.9543C63.2943 8.54303 68.265 11.8106 70.6131 16.8633C72.9612 21.9159 72.36 28.0482 69.0793 32.49L51.3503 56.4937H57.959C65.7276 56.4937 72.0475 63.1517 72.0475 71.3297C72.0475 79.5077 65.7276 86.1657 57.959 86.1657H22.5437Z" fill="#E2E3E3"/>
<path opacity="0.26" d="M22.2217 85.8155C16.8817 85.8155 11.9205 82.5529 9.57238 77.505C7.22903 72.4571 7.83025 66.3294 11.1062 61.8923L28.8494 37.8743H22.2217C14.4579 37.8743 8.1427 31.226 8.1427 23.048C8.1427 14.87 14.4579 8.2215 22.2217 8.2215H57.637C62.977 8.2215 67.9383 11.4841 70.2864 16.532C72.6297 21.5799 72.0285 27.7076 68.7526 32.1447L51.0094 56.1625H57.637C65.4009 56.1625 71.7161 62.811 71.7161 70.989C71.7161 79.167 65.4009 85.8155 57.637 85.8155H22.2217Z" fill="#DEDFE0"/>
<path opacity="0.29" d="M21.8952 85.4696C16.5599 85.4696 11.5986 82.2069 9.2553 77.1637C6.91195 72.1205 7.51318 65.9976 10.7891 61.5605L28.5465 37.5238H21.8952C14.1361 37.5238 7.82562 30.8801 7.82562 22.7116C7.82562 14.5431 14.1361 7.89917 21.8952 7.89917H57.3105C62.6458 7.89917 67.607 11.1619 69.9504 16.2051C72.2937 21.2483 71.6925 27.3712 68.4165 31.8083L50.6592 55.845H57.3105C65.0696 55.845 71.38 62.4889 71.38 70.6574C71.38 78.826 65.0696 85.4696 57.3105 85.4696H21.8952Z" fill="#DADBDC"/>
<path opacity="0.32" d="M21.5732 85.1241C16.2427 85.1241 11.2862 81.866 8.94284 76.8228C6.59949 71.7843 7.20071 65.6662 10.4719 61.2339L28.2435 37.1782H21.5685C13.8189 37.1782 7.50842 30.5391 7.50842 22.3753C7.50842 14.2115 13.8142 7.57257 21.5685 7.57257H56.9838C62.3144 7.57257 67.2709 10.8304 69.6142 15.8736C71.9576 20.9121 71.3564 27.0304 68.0851 31.4627L50.3136 55.5184H56.9886C64.7382 55.5184 71.0486 62.1573 71.0486 70.3211C71.0486 78.4849 64.7429 85.1241 56.9886 85.1241H21.5732Z" fill="#D6D7D8"/>
<path opacity="0.35" d="M21.2467 84.7735C15.9209 84.7735 10.9691 81.5204 8.63045 76.4819C6.29184 71.4482 6.89306 65.3348 10.1595 60.9072L27.9453 36.8325H21.2514C13.5065 36.8325 7.20551 30.1983 7.20551 22.0439C7.20551 13.8896 13.5065 7.25531 21.2514 7.25531H56.6667C61.9925 7.25531 66.9443 10.5084 69.2829 15.5469C71.6215 20.5806 71.0203 26.694 67.7538 31.1216L49.968 55.1963H56.662C64.4069 55.1963 70.7079 61.8306 70.7079 69.9849C70.7079 78.1392 64.4069 84.7735 56.662 84.7735H21.2467Z" fill="#D2D3D4"/>
<path opacity="0.39" d="M20.9247 84.4277C15.6036 84.4277 10.6518 81.1745 8.31795 76.1408C5.97934 71.1118 6.58056 64.9986 9.84704 60.5758L27.647 36.4819H20.9294C13.1893 36.4819 6.89301 29.8524 6.89301 21.7028C6.89301 13.5532 13.1893 6.92365 20.9294 6.92365H56.3447C61.6658 6.92365 66.6176 10.1769 68.9515 15.2106C71.2901 20.2396 70.6889 26.353 67.4224 30.7759L49.6224 54.8695H56.34C64.0802 54.8695 70.3764 61.499 70.3764 69.6486C70.3764 77.7982 64.0802 84.4277 56.34 84.4277H20.9247Z" fill="#CECFD0"/>
<path opacity="0.42" d="M20.598 84.0778C15.2817 84.0778 10.3346 80.8292 8.00075 75.7955C5.66214 70.7665 6.26336 64.6626 9.52984 60.2445L27.344 36.132H20.6028C12.8673 36.132 6.57581 29.5072 6.57581 21.3623C6.57581 13.2174 12.8673 6.59265 20.6028 6.59265H56.0181C61.3344 6.59265 66.2815 9.84101 68.6153 14.8747C70.9539 19.9037 70.3527 26.0076 67.0862 30.4257L49.2721 54.5385H56.0133C63.7488 54.5385 70.0403 61.1633 70.0403 69.3081C70.0403 77.453 63.7488 84.0778 56.0133 84.0778H20.598Z" fill="#CACBCC"/>
<path opacity="0.45" d="M20.276 83.7316C14.9644 83.7316 10.0221 80.4831 7.68819 75.4588C5.35431 70.4346 5.9508 64.3355 9.21255 59.9173L27.0362 35.7858H20.276C12.55 35.7858 6.26324 29.1657 6.26324 21.0303C6.26324 12.8949 12.55 6.27472 20.276 6.27472H55.6913C61.0029 6.27472 65.9452 9.5233 68.2791 14.5475C70.613 19.5718 70.0165 25.6709 66.7547 30.089L48.9311 54.2205H55.6913C63.4172 54.2205 69.704 60.8407 69.704 68.9761C69.704 77.1115 63.4172 83.7316 55.6913 83.7316H20.276Z" fill="#C6C7C8"/>
<path opacity="0.48" d="M19.9495 83.386C14.6379 83.386 9.70032 80.1423 7.37117 75.118C5.03729 70.0985 5.63852 64.0041 8.89553 59.5907L26.7334 35.4402H19.9495C12.2283 35.4402 5.94623 28.8248 5.94623 20.6941C5.94623 12.5635 12.2283 5.94806 19.9495 5.94806H55.3648C60.6764 5.94806 65.614 9.19178 67.9431 14.216C70.277 19.2355 69.6758 25.33 66.4188 29.7434L48.581 53.8939H55.3648C63.086 53.8939 69.3681 60.5093 69.3681 68.6399C69.3681 76.7706 63.086 83.386 55.3648 83.386H19.9495Z" fill="#C2C3C4"/>
<path opacity="0.52" d="M19.6275 83.0356C14.3207 83.0356 9.38782 79.792 7.05867 74.7725C4.72953 69.7577 5.32601 63.668 8.58303 59.2546L26.4351 35.0852H19.6275C11.9111 35.0852 5.63373 28.4744 5.63373 20.3532C5.63373 12.232 11.9111 5.62146 19.6275 5.62146H55.0429C60.3497 5.62146 65.2826 8.86529 67.6117 13.8848C69.9409 18.8996 69.3444 24.9893 66.0874 29.4027L48.2353 53.5721H55.0429C62.7593 53.5721 69.0367 60.1827 69.0367 68.3039C69.0367 76.4251 62.7593 83.0356 55.0429 83.0356H19.6275Z" fill="#BDBEC0"/>
<path opacity="0.55" d="M19.3009 82.6902C13.9987 82.6902 9.07062 79.4513 6.74147 74.4366C4.41233 69.4265 5.00882 63.3367 8.2611 58.9328L26.1273 34.7444H19.2961C11.5891 34.7444 5.31653 28.1386 5.31653 20.0221C5.31653 11.9057 11.5891 5.29987 19.2961 5.29987H54.7115C60.0136 5.29987 64.9417 8.53872 67.2708 13.5535C69.6 18.5635 69.0035 24.6534 65.7512 29.0573L47.885 53.2457H54.7162C62.4279 53.2457 68.6958 59.8515 68.6958 67.9679C68.6958 76.0844 62.4232 82.6902 54.7162 82.6902H19.3009Z" fill="#B9BABC"/>
<path opacity="0.58" d="M18.9743 82.3443C13.6769 82.3443 8.74877 79.1054 6.42436 74.0953C4.09522 69.09 4.69644 63.0049 7.94399 58.601L25.8244 34.3939H18.9743C11.272 34.3939 5.00415 27.7927 5.00415 19.6857C5.00415 11.5788 11.272 4.9776 18.9743 4.9776H54.3896C59.687 4.9776 64.6151 8.21657 66.9395 13.2266C69.2687 18.2319 68.6675 24.317 65.4199 28.7209L47.5395 52.928H54.3896C62.0919 52.928 68.3597 59.5292 68.3597 67.6362C68.3597 75.7432 62.0919 82.3443 54.3896 82.3443H18.9743Z" fill="#B5B6B8"/>
<path opacity="0.61" d="M18.6523 81.9941C13.3597 81.9941 8.43627 78.7598 6.11186 73.7497C3.78745 68.7444 4.38394 62.6689 7.63149 58.2697L25.5261 34.0483H18.6523C10.9548 34.0483 4.69165 27.4566 4.69165 19.3496C4.69165 11.2426 10.9548 4.65094 18.6523 4.65094H54.0676C59.3603 4.65094 64.2837 7.88505 66.6081 12.8951C68.9325 17.9004 68.336 23.9761 65.0885 28.3753L47.1938 52.5968H54.0676C61.7652 52.5968 68.0283 59.1884 68.0283 67.2954C68.0283 75.4024 61.7652 81.9941 54.0676 81.9941H18.6523Z" fill="#B1B2B4"/>
<path opacity="0.65" d="M18.3257 81.6482C13.0377 81.6482 8.11907 78.4139 5.79466 73.4133C3.47025 68.4128 4.06674 62.3419 7.31429 57.9475L25.2231 33.7071H18.3257C10.6328 33.7071 4.37445 27.1201 4.37445 19.0179C4.37445 10.9156 10.6328 4.32867 18.3257 4.32867H53.741C59.0289 4.32867 63.9476 7.56301 66.272 12.5636C68.5964 17.5642 67.9999 23.635 64.7523 28.0294L46.8435 52.2699H53.741C61.4338 52.2699 67.6922 58.8568 67.6922 66.9591C67.6922 75.0613 61.4338 81.6482 53.741 81.6482H18.3257Z" fill="#ADAEB0"/>
<path opacity="0.68" d="M18.0038 81.2978C12.7206 81.2978 7.80672 78.0683 5.48231 73.0677C3.16263 68.0719 3.75439 62.0058 6.9972 57.6113L24.9203 33.352H18.0038C10.3205 33.352 4.06683 26.7699 4.06683 18.6771C4.06683 10.5843 10.3205 4.00201 18.0038 4.00201H53.4192C58.7023 4.00201 63.6163 7.23149 65.9407 12.2321C68.2603 17.2279 67.6686 23.294 64.4258 27.6884L46.5027 51.9478H53.4192C61.1025 51.9478 67.3562 58.5301 67.3562 66.6229C67.3562 74.7157 61.1025 81.2978 53.4192 81.2978H18.0038Z" fill="#A9AAAC"/>
<path opacity="0.71" d="M17.6771 80.9519C12.3987 80.9519 7.48473 77.7225 5.16505 72.7313C2.84537 67.7402 3.44186 61.6788 6.67994 57.2891L24.6172 33.011H17.6771C9.9985 33.011 3.74957 26.4334 3.74957 18.3454C3.74957 10.2573 9.9985 3.67975 17.6771 3.67975H53.0924C58.3709 3.67975 63.2848 6.90945 65.6045 11.9006C67.9242 16.8917 67.3277 22.9529 64.0896 27.3426L46.1523 51.6209H53.0924C60.771 51.6209 67.02 58.1983 67.02 66.2863C67.02 74.3744 60.771 80.9519 53.0924 80.9519H17.6771Z" fill="#A5A6A8"/>
<path opacity="0.74" d="M17.3552 80.6065C12.0767 80.6065 7.17226 77.3817 4.85258 72.3906C2.53291 67.4042 3.12939 61.343 6.36747 56.958L24.3142 32.6607H17.3504C9.67656 32.6607 3.43237 26.088 3.43237 18.0094C3.43237 9.93085 9.67656 3.35815 17.3504 3.35815H52.7658C58.0442 3.35815 62.9487 6.583 65.2683 11.5741C67.588 16.5605 66.9915 22.6217 63.7535 27.0067L45.8067 51.304H52.7705C60.4444 51.304 66.6885 57.8767 66.6885 65.9552C66.6885 74.0338 60.4444 80.6065 52.7705 80.6065H17.3552Z" fill="#A1A2A4"/>
<path opacity="0.77" d="M17.0286 80.2559C11.7549 80.2559 6.85518 77.0359 4.5355 72.0448C2.22056 67.0584 2.81231 61.0066 6.05039 56.6263L24.0113 32.3101H17.0286C9.35948 32.3101 3.12476 25.7421 3.12476 17.6683C3.12476 9.59444 9.36421 3.02649 17.0286 3.02649H52.4439C57.7176 3.02649 62.6174 6.24648 64.9371 11.2376C67.252 16.2239 66.6602 22.2758 63.4222 26.656L45.4612 50.9723H52.4439C60.1131 50.9723 66.3478 57.5403 66.3478 65.6141C66.3478 73.6879 60.1083 80.2559 52.4439 80.2559H17.0286Z" fill="#9D9EA1"/>
<path opacity="0.81" d="M16.7067 79.9103C11.4377 79.9103 6.53798 76.6903 4.22303 71.7087C1.90809 66.727 2.49984 60.6799 5.73319 56.2997L23.7083 31.9644H16.702C9.04228 31.9644 2.80756 25.4012 2.80756 17.3321C2.80756 9.26303 9.04228 2.69983 16.702 2.69983H52.1173C57.3862 2.69983 62.286 5.91981 64.6009 10.9014C66.9159 15.8831 66.3241 21.9302 63.0908 26.3104L45.1156 50.6456H52.122C59.7817 50.6456 66.0164 57.2089 66.0164 65.278C66.0164 73.3471 59.7817 79.9103 52.122 79.9103H16.7067Z" fill="#999A9D"/>
<path opacity="0.84" d="M16.3799 79.5598C11.1157 79.5598 6.22068 76.3444 3.91047 71.3628C1.59553 66.3859 2.19202 60.3437 5.42063 55.9682L23.41 31.614H16.3799C8.72499 31.614 2.495 25.0554 2.495 16.9958C2.495 8.93613 8.72499 2.37756 16.3799 2.37756H51.7952C57.0595 2.37756 61.9545 5.59292 64.2647 10.5746C66.5796 15.5514 65.9831 21.5939 62.7545 25.9694L44.7652 50.3234H51.7952C59.4502 50.3234 65.6802 56.882 65.6802 64.9416C65.6802 73.0012 59.4502 79.5598 51.7952 79.5598H16.3799Z" fill="#949699"/>
<path opacity="0.87" d="M16.0534 79.2145C10.7939 79.2145 5.90363 75.999 3.59342 71.0221C1.28321 66.0499 1.87497 60.0124 5.10358 55.6369L23.1071 31.2638H16.0534C8.4032 31.2638 2.18268 24.7102 2.18268 16.6553C2.18268 8.6004 8.40794 2.04657 16.0534 2.04657H51.4687C56.7282 2.04657 61.6185 5.26181 63.9287 10.2387C66.2389 15.2109 65.6472 21.2486 62.4185 25.6241L44.415 49.997H51.4687C59.1189 49.997 65.3394 56.5508 65.3394 64.6057C65.3394 72.6606 59.1142 79.2145 51.4687 79.2145H16.0534Z" fill="#909295"/>
<path opacity="0.9" d="M15.7314 78.8685C10.4766 78.8685 5.58636 75.6578 3.28089 70.6856C0.970677 65.7182 1.56243 59.6854 4.79104 55.3146L22.8088 30.9227H15.7361C8.09067 30.9227 1.87488 24.3735 1.87488 16.3281C1.87488 8.28266 8.0954 1.7337 15.7361 1.7337H51.1514C56.4062 1.7337 61.2965 4.94443 63.602 9.91659C65.9122 14.884 65.3204 20.9169 62.0918 25.2876L44.0741 49.6795H51.1467C58.7922 49.6795 65.008 56.2285 65.008 64.2739C65.008 72.3193 58.7874 78.8685 51.1467 78.8685H15.7314Z" fill="#8C8E91"/>
<path opacity="0.94" d="M15.4048 78.5183C10.1547 78.5183 5.2692 75.3077 2.96372 70.3403C0.658246 65.3776 1.25 59.3448 4.46914 54.9787L22.5011 30.5725H15.4048C7.76877 30.5725 1.55298 24.0283 1.55298 15.9876C1.55298 7.94693 7.76877 1.40271 15.4048 1.40271H50.8201C56.0701 1.40271 60.9557 4.61308 63.2611 9.58051C65.5666 14.5432 64.9749 20.5763 61.7557 24.9423L43.7238 49.3485H50.8201C58.4561 49.3485 64.6719 55.8927 64.6719 63.9334C64.6719 71.9741 58.4561 78.5183 50.8201 78.5183H15.4048Z" fill="#888A8D"/>
<path opacity="0.97" d="M15.0828 78.1722C9.83749 78.1722 4.9567 74.9665 2.65122 69.999C0.345746 65.0363 0.9375 59.0129 4.15664 54.6516L22.2028 30.2264H15.0828C7.45153 30.2264 1.24048 23.6868 1.24048 15.6556C1.24048 7.62436 7.45153 1.08478 15.0828 1.08478H50.4981C55.7434 1.08478 60.6242 4.29076 62.9297 9.25818C65.2352 14.2209 64.6434 20.2444 61.4243 24.6057L43.3781 49.0306H50.4981C58.1294 49.0306 64.3404 55.5702 64.3404 63.6014C64.3404 71.6326 58.1294 78.1722 50.4981 78.1722H15.0828Z" fill="#848689"/>
<path d="M14.7562 77.8268C9.51087 77.8268 4.63482 74.6211 2.33407 69.6631C0.0285991 64.7052 0.620354 58.6863 3.8395 54.3297L21.8998 29.8858H14.7609C7.13439 29.8858 0.9328 23.3557 0.9328 15.3245C0.9328 7.29329 7.13439 0.763184 14.7609 0.763184H50.1762C55.4215 0.763184 60.2976 3.96892 62.5984 8.92688C64.9038 13.8848 64.3121 19.9035 61.0929 24.26L43.0326 48.7042H50.1715C57.798 48.7042 63.9996 55.2343 63.9996 63.2655C63.9996 71.2967 57.798 77.8268 50.1715 77.8268H14.7562Z" fill="#808285"/>
</g>
<path d="M14.7562 78.1775C9.38302 78.1775 4.38861 74.8958 2.03107 69.8147C-0.326484 64.7384 0.274738 58.5682 3.57436 54.1075L21.2086 30.2363H14.7562C6.94499 30.2363 0.591919 23.5452 0.591919 15.3198C0.591919 7.09443 6.94499 0.40332 14.7562 0.40332H50.1715C55.5446 0.40332 60.539 3.68502 62.8966 8.76609C65.2541 13.8424 64.6529 20.0126 61.3533 24.4733L43.719 48.3445H50.1715C57.9826 48.3445 64.3404 55.0356 64.3404 63.261C64.3404 71.4864 57.9874 78.1775 50.1715 78.1775H14.7562Z" fill="url(#paint0_linear_53_37074)"/>
<path d="M14.7562 76.7564C9.89431 76.7564 5.37804 73.7873 3.24299 69.1893C1.10794 64.5959 1.65709 59.0175 4.63953 54.9782L23.9686 28.8152H14.7609C7.69298 28.8152 1.94586 22.7586 1.94586 15.3193C1.94586 7.88005 7.69772 1.82349 14.7609 1.82349H50.1762C55.0381 1.82349 59.5543 4.79257 61.6894 9.39063C63.8244 13.984 63.2753 19.5624 60.2928 23.6017L40.9638 49.7647H50.1715C57.2394 49.7647 62.9865 55.8212 62.9865 63.2605C62.9865 70.6998 57.2347 76.7564 50.1715 76.7564H14.7562Z" fill="url(#paint1_linear_53_37074)"/>
<path d="M28.3996 28.3942C28.215 28.3942 28.0303 28.3374 27.8741 28.219C27.4812 27.9254 27.396 27.3713 27.6895 26.9783L27.912 26.68H27.5427C27.0504 26.68 26.6575 26.2823 26.6575 25.7898C26.6575 25.2973 27.0551 24.8994 27.5427 24.8994H29.6731C30.0092 24.8994 30.3121 25.0889 30.4636 25.3872C30.6151 25.6856 30.582 26.0454 30.3832 26.3153L29.1192 28.0296C28.944 28.2664 28.6789 28.3894 28.4043 28.3894L28.3996 28.3942Z" fill="#8C3D96"/>
<path d="M39.0749 48.5151C38.8903 48.5151 38.7057 48.4582 38.5495 48.3398C38.1565 48.0462 38.0713 47.4924 38.3648 47.0993L40.8881 43.6849C41.1816 43.2919 41.7355 43.2068 42.1284 43.5004C42.5213 43.794 42.6065 44.3479 42.313 44.7409L39.7898 48.1553C39.6146 48.3921 39.3495 48.5151 39.0749 48.5151ZM44.1214 41.6819C43.9368 41.6819 43.7522 41.6252 43.5959 41.5068C43.203 41.2132 43.1178 40.6591 43.4113 40.2661L45.9346 36.8519C46.2281 36.4589 46.782 36.3736 47.1749 36.6671C47.5678 36.9607 47.653 37.5148 47.3595 37.9079L44.8363 41.3221C44.6611 41.5588 44.396 41.6819 44.1214 41.6819ZM49.1679 34.8488C48.9833 34.8488 48.7987 34.792 48.6424 34.6736C48.2495 34.38 48.1643 33.8259 48.4578 33.4328L50.981 30.0186C51.2746 29.6256 51.8284 29.5403 52.2214 29.8339C52.6143 30.1275 52.6995 30.6816 52.406 31.0746L49.8827 34.4888C49.7076 34.7256 49.4425 34.8488 49.1679 34.8488ZM54.2144 28.0156C54.0298 28.0156 53.8451 27.9587 53.6889 27.8403C53.296 27.5467 53.2108 26.9929 53.5043 26.5998L56.0275 23.1856C56.321 22.7926 56.8749 22.7073 57.2678 23.0009C57.6608 23.2945 57.746 23.8486 57.4525 24.2416L54.9292 27.6558C54.7541 27.8926 54.489 28.0156 54.2144 28.0156ZM23.2869 26.6803H19.0405C18.5482 26.6803 18.1552 26.2826 18.1552 25.7901C18.1552 25.2976 18.5529 24.8997 19.0405 24.8997H23.2869C23.7793 24.8997 24.1722 25.2976 24.1722 25.7901C24.1722 26.2826 23.7745 26.6803 23.2869 26.6803ZM14.7941 26.6803H14.7515C13.2082 26.6803 11.7122 26.3581 10.3062 25.7189C9.86121 25.5152 9.66238 24.9896 9.86595 24.5445C10.0695 24.0994 10.595 23.9006 11.04 24.1043C12.214 24.6346 13.4591 24.9045 14.7515 24.9045C15.2438 24.9045 15.6604 25.3022 15.6604 25.7947C15.6604 26.2872 15.2817 26.6849 14.7941 26.6849V26.6803ZM7.2859 23.2945C7.03973 23.2945 6.79829 23.1949 6.62313 22.996C5.59585 21.8453 4.81946 20.5149 4.32239 19.0422C4.16617 18.5781 4.41234 18.076 4.87627 17.915C5.34021 17.754 5.84675 18.0049 6.00297 18.469C6.4243 19.7096 7.0776 20.8368 7.94866 21.8075C8.27531 22.1722 8.24217 22.7356 7.87765 23.0624C7.70723 23.2139 7.49893 23.2897 7.2859 23.2897V23.2945ZM59.1473 21.1113C59.01 21.1113 58.8727 21.0782 58.7401 21.0119C58.3046 20.7894 58.1342 20.2496 58.3567 19.814C58.9532 18.6538 59.3129 17.4035 59.4124 16.0918C59.4502 15.604 59.8716 15.2348 60.3686 15.2774C60.8562 15.3153 61.2208 15.7415 61.1829 16.234C61.0598 17.7777 60.6432 19.2598 59.9331 20.6283C59.7769 20.9314 59.4644 21.1113 59.1425 21.1113H59.1473ZM4.62537 15.4668C4.62537 15.4668 4.5875 15.4668 4.56383 15.4668C4.07622 15.4337 3.70697 15.0122 3.7401 14.5197C3.84425 12.9712 4.24665 11.489 4.94255 10.111C5.16505 9.67065 5.69526 9.49541 6.13553 9.71797C6.57579 9.94053 6.75095 10.4709 6.52845 10.9113C5.94143 12.0762 5.60058 13.3313 5.51063 14.643C5.47749 15.1118 5.0893 15.4717 4.62537 15.4717V15.4668ZM59.7958 12.8623C59.4218 12.8623 59.0762 12.6255 58.9532 12.2514C58.8301 11.8821 58.6881 11.5174 58.5224 11.1575C58.1389 10.3336 57.6466 9.57117 57.0453 8.88928C56.7234 8.51992 56.7566 7.96119 57.1258 7.63444C57.4951 7.31244 58.0537 7.34555 58.3803 7.71491C59.0904 8.52466 59.6775 9.4292 60.1319 10.4047C60.326 10.8214 60.4965 11.2572 60.6385 11.6928C60.79 12.1569 60.5391 12.6587 60.0704 12.8149C59.9804 12.8433 59.8858 12.8577 59.7958 12.8577V12.8623ZM8.34159 8.0844C8.09068 8.0844 7.83978 7.97552 7.65988 7.76716C7.3427 7.39307 7.39005 6.82949 7.76877 6.51696C8.96648 5.50832 10.3299 4.77904 11.8164 4.35759C12.285 4.22026 12.7774 4.49494 12.9147 4.96847C13.0472 5.44201 12.7774 5.92968 12.304 6.067C11.0637 6.42216 9.92275 7.02843 8.9144 7.87607C8.74871 8.01813 8.54515 8.0844 8.34159 8.0844ZM54.3422 6.65893C54.2144 6.65893 54.0913 6.63066 53.9682 6.57384C52.78 6.0198 51.5207 5.7308 50.2283 5.72133C49.736 5.72133 49.3431 5.31899 49.3478 4.82651C49.3478 4.33403 49.736 3.94556 50.2425 3.94556C51.7906 3.95503 53.296 4.30066 54.7209 4.96362C55.1659 5.17198 55.3553 5.69772 55.1517 6.14284C55.0002 6.46485 54.6831 6.6543 54.3469 6.6543L54.3422 6.65893ZM45.9866 5.72618H41.7402C41.2479 5.72618 40.8549 5.32847 40.8549 4.83599C40.8549 4.34351 41.2526 3.94556 41.7402 3.94556H45.9866C46.479 3.94556 46.8719 4.34351 46.8719 4.83599C46.8719 5.32847 46.4742 5.72618 45.9866 5.72618ZM37.4938 5.72618H33.2473C32.755 5.72618 32.3621 5.32847 32.3621 4.83599C32.3621 4.34351 32.7597 3.94556 33.2473 3.94556H37.4938C37.9861 3.94556 38.379 4.34351 38.379 4.83599C38.379 5.32847 37.9814 5.72618 37.4938 5.72618ZM29.0009 5.72618H24.7545C24.2621 5.72618 23.8692 5.32847 23.8692 4.83599C23.8692 4.34351 24.2669 3.94556 24.7545 3.94556H29.0009C29.4933 3.94556 29.8862 4.34351 29.8862 4.83599C29.8862 5.32847 29.4885 5.72618 29.0009 5.72618ZM20.5081 5.72618H16.2616C15.7693 5.72618 15.3764 5.32847 15.3764 4.83599C15.3764 4.34351 15.774 3.94556 16.2616 3.94556H20.5081C21.0004 3.94556 21.3933 4.34351 21.3933 4.83599C21.3933 5.32847 20.9957 5.72618 20.5081 5.72618Z" fill="#8C3D96"/>
<path d="M37.3943 53.6761H35.2639C34.9278 53.6761 34.6248 53.4868 34.4734 53.1885C34.3219 52.8901 34.355 52.5303 34.5538 52.2604L35.8178 50.5461C36.1113 50.1531 36.6652 50.0678 37.0581 50.3613C37.4511 50.6549 37.5363 51.209 37.2428 51.6021L37.0203 51.9003H37.3895C37.8819 51.9003 38.2748 52.2981 38.2748 52.7905C38.2748 53.283 37.8771 53.681 37.3895 53.681L37.3943 53.6761Z" fill="#8C3D96"/>
<path d="M48.6565 74.626H44.4101C43.9178 74.626 43.5248 74.2283 43.5248 73.7359C43.5248 73.2434 43.9225 72.8454 44.4101 72.8454H48.6565C49.1489 72.8454 49.5418 73.2434 49.5418 73.7359C49.5418 74.2283 49.1441 74.626 48.6565 74.626ZM40.1637 74.626H35.9173C35.4249 74.626 35.032 74.2283 35.032 73.7359C35.032 73.2434 35.4296 72.8454 35.9173 72.8454H40.1637C40.656 72.8454 41.0489 73.2434 41.0489 73.7359C41.0489 74.2283 40.6513 74.626 40.1637 74.626ZM31.6708 74.626H27.4244C26.932 74.626 26.5391 74.2283 26.5391 73.7359C26.5391 73.2434 26.9368 72.8454 27.4244 72.8454H31.6708C32.1632 72.8454 32.5561 73.2434 32.5561 73.7359C32.5561 74.2283 32.1584 74.626 31.6708 74.626ZM23.178 74.626H18.9315C18.4392 74.626 18.0463 74.2283 18.0463 73.7359C18.0463 73.2434 18.4439 72.8454 18.9315 72.8454H23.178C23.6703 72.8454 24.0632 73.2434 24.0632 73.7359C24.0632 74.2283 23.6656 74.626 23.178 74.626ZM14.6851 74.626H14.6804C13.1323 74.6166 11.6269 74.2709 10.202 73.608C9.75697 73.3996 9.56761 72.8739 9.77117 72.4288C9.97947 71.9836 10.5049 71.7941 10.9499 71.9978C12.1382 72.5518 13.3974 72.8408 14.6898 72.8503C15.1822 72.8503 15.5751 73.2526 15.5704 73.7451C15.5704 74.2328 15.168 74.626 14.6851 74.626ZM52.8604 74.2519C52.4722 74.2519 52.1171 73.9963 52.0082 73.608C51.8757 73.1344 52.1455 72.6466 52.6189 72.5092C53.8592 72.1541 55.0001 71.548 56.0085 70.7004C56.3825 70.3831 56.9458 70.4352 57.2583 70.8093C57.5755 71.1834 57.5281 71.747 57.1494 72.0595C55.9517 73.0681 54.5883 73.7972 53.1018 74.2186C53.0213 74.2423 52.9408 74.2519 52.8604 74.2519ZM7.21006 71.155C6.96389 71.155 6.71772 71.0507 6.54256 70.8518C5.83245 70.0421 5.24543 69.1378 4.79096 68.1623C4.59687 67.7456 4.42644 67.3098 4.28442 66.8742C4.13293 66.4101 4.38384 65.9081 4.85251 65.7518C5.31644 65.5956 5.81825 65.8514 5.97447 66.3202C6.09756 66.6895 6.23958 67.0542 6.40527 67.4141C6.78873 68.238 7.28107 69.0004 7.88229 69.6823C8.2042 70.0517 8.17106 70.6104 7.80181 70.9372C7.63139 71.084 7.42309 71.1596 7.21952 71.1596L7.21006 71.155ZM59.1898 68.9531C59.0572 68.9531 58.9199 68.9246 58.7921 68.8583C58.3518 68.6357 58.1767 68.1053 58.3992 67.6649C58.9862 66.5 59.3271 65.2452 59.417 63.9335C59.4501 63.4458 59.8857 63.081 60.3638 63.1094C60.8514 63.1426 61.2207 63.564 61.1875 64.0565C61.0834 65.605 60.681 67.0872 59.9851 68.4652C59.8289 68.773 59.5164 68.9531 59.1898 68.9531ZM4.62527 63.299C4.62527 63.299 4.57793 63.299 4.55426 63.299C4.06666 63.2612 3.70214 62.835 3.74001 62.3425C3.86309 60.7987 4.27969 59.3164 4.98979 57.9479C5.21229 57.5122 5.74724 57.3417 6.1875 57.5643C6.62304 57.7869 6.79346 58.3268 6.57096 58.7625C5.97447 59.9227 5.61469 61.1727 5.51527 62.4844C5.4774 62.9485 5.08921 63.3037 4.63001 63.3037L4.62527 63.299ZM59.7579 60.6992C59.3886 60.6992 59.043 60.4671 58.9152 60.0978C58.4939 58.8571 57.8406 57.7302 56.9695 56.7594C56.6429 56.3948 56.676 55.8313 57.0405 55.5046C57.405 55.1779 57.9684 55.211 58.295 55.5756C59.3223 56.7263 60.0987 58.057 60.5958 59.5297C60.752 59.9937 60.5058 60.4956 60.0419 60.6566C59.9472 60.6898 59.8525 60.704 59.7579 60.704V60.6992ZM8.18527 55.7506C8.00064 55.7506 7.81601 55.694 7.65979 55.5756C7.26686 55.282 7.18165 54.7279 7.47516 54.3349L9.9984 50.9207C10.2872 50.5276 10.8458 50.4423 11.2387 50.7359C11.6316 51.0295 11.7169 51.5836 11.4233 51.9766L8.90011 55.3908C8.72495 55.6276 8.45984 55.7506 8.18527 55.7506ZM54.2427 54.5527C54.1196 54.5527 53.9965 54.529 53.8782 54.4722C52.7041 53.9418 51.4591 53.6719 50.1667 53.6719C49.6744 53.6719 49.2578 53.2742 49.2578 52.7817C49.2578 52.2893 49.6365 51.8913 50.1241 51.8913H50.1667C51.71 51.8913 53.2059 52.2135 54.612 52.8527C55.057 53.0564 55.2558 53.582 55.0522 54.0271C54.9055 54.3538 54.5788 54.548 54.2427 54.548V54.5527ZM45.8824 53.6719H41.636C41.1436 53.6719 40.7507 53.2742 40.7507 52.7817C40.7507 52.2893 41.1484 51.8913 41.636 51.8913H45.8824C46.3747 51.8913 46.7677 52.2893 46.7677 52.7817C46.7677 53.2742 46.37 53.6719 45.8824 53.6719ZM13.2318 48.9222C13.0471 48.9222 12.8625 48.8656 12.7063 48.7472C12.3133 48.4536 12.2281 47.8995 12.5216 47.5065L15.0449 44.0923C15.3384 43.6992 15.8923 43.6139 16.2852 43.9075C16.6781 44.2011 16.7633 44.7552 16.4698 45.1482L13.9466 48.5624C13.7714 48.7992 13.5063 48.9222 13.2318 48.9222ZM18.2782 42.0892C18.0936 42.0892 17.909 42.0323 17.7528 41.9139C17.3598 41.6203 17.2746 41.0662 17.5681 40.6732L20.0914 37.259C20.3801 36.866 20.9388 36.7807 21.3317 37.0743C21.7246 37.3679 21.8098 37.922 21.5163 38.315L18.9931 41.7292C18.8179 41.966 18.5528 42.0892 18.2782 42.0892ZM23.3247 35.256C23.1401 35.256 22.9555 35.1991 22.7992 35.0807C22.4063 34.7871 22.3211 34.2332 22.6146 33.8402L25.1378 30.4258C25.4314 30.0327 25.9852 29.9477 26.3782 30.2412C26.7711 30.5348 26.8563 31.0887 26.5628 31.4817L24.0396 34.8962C23.8644 35.1329 23.5993 35.256 23.3247 35.256Z" fill="#8C3D96"/>
<path d="M50.1761 56.8684H27.1734L54.9669 19.241C56.3919 17.3137 56.6475 14.6996 55.6297 12.5072C54.6119 10.3147 52.4958 8.92255 50.1761 8.92255H14.756C11.4043 8.92255 8.687 11.7827 8.687 15.3153C8.687 18.8479 11.4043 21.7081 14.756 21.7081H37.7587L9.96519 59.3355C8.54024 61.2628 8.28461 63.8766 9.30242 66.0691C10.3202 68.2616 12.4364 69.6539 14.756 69.6539H50.1714C53.523 69.6539 56.2404 66.7937 56.2404 63.2611C56.2404 59.7285 53.523 56.8684 50.1714 56.8684H50.1761Z" fill="url(#paint2_linear_53_37074)"/>
<defs>
<linearGradient id="paint0_linear_53_37074" x1="0.591919" y1="39.2904" x2="64.3404" y2="39.2904" gradientUnits="userSpaceOnUse">
<stop stop-color="#F1F2F2"/>
<stop offset="1" stop-color="#D1D3D4"/>
</linearGradient>
<linearGradient id="paint1_linear_53_37074" x1="1.94113" y1="39.2899" x2="62.9912" y2="39.2899" gradientUnits="userSpaceOnUse">
<stop stop-color="#D1D3D4"/>
<stop offset="1" stop-color="#F1F2F2"/>
</linearGradient>
<linearGradient id="paint2_linear_53_37074" x1="8.687" y1="39.2906" x2="56.2451" y2="39.2906" gradientUnits="userSpaceOnUse">
<stop stop-color="#9155A6"/>
<stop offset="0.22" stop-color="#8E479D"/>
<stop offset="0.52" stop-color="#8C3F97"/>
<stop offset="1" stop-color="#8C3D96"/>
</linearGradient>
</defs>
</svg>
